<?xml version="1.0" standalone="no"?>
<!DOCTYPE svg PUBLIC "-//W3C//DTD SVG 1.1//EN" "http://www.w3.org/Graphics/SVG/1.1/DTD/svg11.dtd" >
<svg>
<metadata>
Created by FontForge 20120731 at Mon Aug 19 06:46:48 2019
 By www-data
Copyright (c) 2011 Canada Type. Designed by Patrick Griffin &#38; Bill Troop. All rights reserved.
</metadata>
<defs>
<font id="SemplicitaPro-Italic" horiz-adv-x="534" >
  <font-face 
    font-family="SemplicitaPro"
    font-weight="400"
    font-style="italic"
    font-stretch="normal"
    units-per-em="1000"
    panose-1="2 0 5 3 0 0 0 0 0 0"
    ascent="800"
    descent="-200"
    x-height="480"
    cap-height="757"
    bbox="-170 -302 1192 1079"
    underline-thickness="50"
    underline-position="-100"
    stemh="64"
    stemv="72"
    unicode-range="U+0020-FB04"
  />
<missing-glyph horiz-adv-x="563" 
d="M501 0h-459l120 758h459zM454 52l104 654h-349l-104 -654h349z" />
    <glyph glyph-name=".notdef" horiz-adv-x="563" 
d="M501 0h-459l120 758h459zM454 52l104 654h-349l-104 -654h349z" />
    <glyph glyph-name="space" unicode=" " horiz-adv-x="239" 
 />
    <glyph glyph-name="exclam" unicode="!" horiz-adv-x="255" 
d="M130 197h-46l70 560h93zM140 49c0 -32 -28 -61 -61 -61c-26 0 -44 21 -44 46c0 34 29 62 61 62c28 0 44 -20 44 -47z" />
    <glyph glyph-name="quotedbl" unicode="&#x22;" horiz-adv-x="364" 
d="M160 480h-54l33 281h78zM312 480h-54l33 281h77z" />
    <glyph glyph-name="numbersign" unicode="#" horiz-adv-x="632" 
d="M348 -11l-57 6l68 244h-140l-69 -250l-57 6l69 244h-116l15 58h117l40 151h-113l14 58h115l70 247l58 -5l-68 -242h139l68 247l59 -5l-68 -242h115l-12 -58h-119l-42 -151h114l-12 -58h-118zM376 297l41 151h-139l-43 -151h141z" />
    <glyph glyph-name="dollar" unicode="$" horiz-adv-x="547" 
d="M247 -110l-55 2l16 97c-93 2 -167 57 -189 97l49 52c22 -33 67 -79 150 -83l48 310c-75 46 -135 90 -135 183c0 110 83 183 195 194l16 103h56l-16 -101c76 -7 123 -52 138 -73l-46 -51c-23 27 -54 53 -102 58l-42 -262c65 -42 140 -93 140 -200
c0 -112 -81 -206 -207 -223zM318 336l-44 -276c68 14 117 57 117 142c0 55 -20 100 -73 134zM279 443l36 233c-57 -9 -107 -46 -107 -115c0 -55 31 -93 71 -118z" />
    <glyph glyph-name="percent" unicode="%" horiz-adv-x="784" 
d="M202 -22l-42 18l427 767l41 -18zM386 633c0 -92 -82 -169 -169 -169c-71 0 -119 56 -119 128c0 93 80 170 167 170c71 0 121 -56 121 -129zM227 515c56 0 107 51 107 112c0 47 -30 84 -76 84c-55 0 -106 -52 -106 -112c0 -48 30 -84 75 -84zM541 -12
c-71 0 -119 56 -119 128c0 93 79 170 166 170c71 0 121 -56 121 -128c0 -93 -81 -170 -168 -170zM550 38c56 0 106 52 106 113c0 47 -30 84 -75 84c-58 0 -107 -52 -107 -113c0 -47 30 -84 76 -84z" />
    <glyph glyph-name="ampersand" unicode="&#x26;" horiz-adv-x="697" 
d="M670 0h-89l-83 129c-18 -32 -109 -142 -245 -142c-131 0 -217 101 -217 230c0 152 121 261 217 287c-15 24 -39 63 -39 115c0 84 64 151 162 151c76 0 112 -40 130 -58l-50 -43c-12 14 -47 42 -90 42c-45 0 -88 -30 -88 -90c0 -43 22 -78 41 -106l249 1l-22 -55l-189 -1z
M466 177l-182 279c-26 -3 -182 -64 -182 -228c0 -111 70 -180 163 -180c113 0 188 100 201 129z" />
    <glyph glyph-name="quoteright" unicode="&#x2019;" horiz-adv-x="232" 
d="M148 560h-53l96 197h73z" />
    <glyph glyph-name="parenleft" unicode="(" horiz-adv-x="246" 
d="M113 -244l-54 -22c-14 67 -21 191 -21 290c0 335 102 628 193 812l51 -22c-57 -123 -181 -422 -181 -771c0 -93 5 -209 12 -287z" />
    <glyph glyph-name="parenright" unicode=")" horiz-adv-x="247" 
d="M9 -266l-50 22c102 249 181 450 181 788c0 106 -6 225 -13 270l56 22c11 -60 18 -182 18 -287c0 -309 -81 -599 -192 -815z" />
    <glyph glyph-name="plus" unicode="+" horiz-adv-x="613" 
d="M560 334h-216l-36 -230h-66l36 230h-216l10 60h216l36 230h66l-36 -230h216z" />
    <glyph glyph-name="comma" unicode="," horiz-adv-x="236" 
d="M11 -107h-53l102 197h74z" />
    <glyph glyph-name="hyphen" unicode="-" horiz-adv-x="384" 
d="M291 218h-234l17 57h234z" />
    <glyph glyph-name="period" unicode="." horiz-adv-x="234" 
d="M128 49c0 -31 -27 -60 -60 -60c-25 0 -44 22 -44 46c0 33 31 60 61 60c27 0 43 -19 43 -46z" />
    <glyph glyph-name="slash" unicode="/" horiz-adv-x="529" 
d="M13 -216l-49 19l549 1017l50 -24z" />
    <glyph glyph-name="zero" unicode="0" horiz-adv-x="645" 
d="M274 -13c-164 0 -199 148 -199 289c0 249 108 486 316 486c163 0 200 -145 200 -291c0 -252 -111 -484 -317 -484zM285 48c151 0 234 217 234 418c0 115 -27 234 -140 234c-150 0 -232 -209 -232 -415c0 -105 21 -237 138 -237z" />
    <glyph glyph-name="one" unicode="1" horiz-adv-x="344" 
d="M186 -4h-69l107 678l-127 -54l-12 54l223 95z" />
    <glyph glyph-name="two" unicode="2" horiz-adv-x="575" 
d="M471 0h-489l-3 14c30 32 485 345 485 556c0 72 -42 131 -113 131s-135 -51 -164 -83l-29 47c33 31 109 97 208 97c108 0 171 -78 171 -182c0 -197 -214 -371 -412 -519l356 2z" />
    <glyph glyph-name="three" unicode="3" horiz-adv-x="549" 
d="M-2 65l40 54c10 -21 60 -72 153 -72c126 0 196 93 196 183c0 85 -62 167 -181 169l6 36c131 7 208 91 208 168c0 53 -37 95 -107 95c-43 0 -92 -16 -128 -41l-15 50c20 19 91 55 163 55c103 0 157 -74 157 -152c0 -68 -40 -144 -143 -189v-2c74 -34 111 -107 111 -186
c0 -132 -104 -246 -272 -246c-117 0 -170 55 -188 78z" />
    <glyph glyph-name="four" unicode="4" horiz-adv-x="605" 
d="M408 -4h-67l24 151h-359l-2 19l521 609h6l-89 -566h96l-10 -62h-96zM375 209l60 377l-307 -377h247z" />
    <glyph glyph-name="five" unicode="5" horiz-adv-x="545" 
d="M0 45l36 58c37 -31 85 -54 148 -54c139 0 215 113 215 215c0 79 -47 154 -163 154c-33 0 -68 -6 -115 -21l148 352h264l-27 -60h-200l-90 -220c20 3 38 4 52 4c123 0 206 -77 206 -199c0 -138 -106 -287 -290 -287c-96 0 -164 41 -184 58z" />
    <glyph glyph-name="six" unicode="6" horiz-adv-x="587" 
d="M415 766l40 -45c-56 -54 -174 -186 -248 -296c31 30 81 42 122 42c116 0 197 -95 197 -211c0 -142 -122 -270 -272 -270c-132 0 -210 98 -210 203c0 197 276 480 371 577zM262 49c106 0 192 95 192 203c0 83 -50 154 -142 154c-107 0 -195 -98 -195 -205
c0 -86 57 -152 145 -152z" />
    <glyph glyph-name="seven" unicode="7" horiz-adv-x="515" 
d="M91 -7h-79l439 694l-342 -1l10 63h449z" />
    <glyph glyph-name="eight" unicode="8" horiz-adv-x="587" 
d="M408 378c48 -26 90 -72 90 -152c0 -137 -125 -240 -252 -240c-113 0 -191 81 -191 189c0 111 83 177 150 204c-55 29 -88 83 -88 155c0 145 134 229 249 229c105 0 185 -70 185 -178c0 -102 -71 -177 -143 -207zM254 46c88 0 172 81 172 173c0 72 -51 132 -127 132
c-88 0 -172 -80 -172 -173c0 -73 52 -132 127 -132zM313 408c86 0 164 74 164 166c0 73 -48 129 -121 129c-86 0 -168 -78 -168 -168c0 -69 49 -127 125 -127z" />
    <glyph glyph-name="nine" unicode="9" horiz-adv-x="587" 
d="M194 -18l-40 45c56 54 174 186 248 296c-31 -30 -81 -42 -122 -42c-115 0 -197 95 -197 213c0 148 129 268 278 268c135 0 204 -99 204 -200c0 -199 -268 -476 -371 -580zM298 342c108 0 195 99 195 205c0 86 -57 152 -145 152c-106 0 -191 -95 -191 -204
c0 -82 49 -153 141 -153z" />
    <glyph glyph-name="colon" unicode=":" horiz-adv-x="247" 
d="M134 49c0 -30 -28 -60 -61 -60c-25 0 -43 23 -43 46c0 33 29 61 60 61c27 0 44 -20 44 -47zM191 405c0 -32 -28 -59 -61 -59c-25 0 -44 20 -44 45c0 34 29 60 61 60c26 0 44 -19 44 -46z" />
    <glyph glyph-name="less" unicode="&#x3c;" horiz-adv-x="590" 
d="M446 64l-385 286l6 40l473 269l22 -56l-416 -233l339 -252z" />
    <glyph glyph-name="equal" unicode="=" horiz-adv-x="669" 
d="M568 215h-498l10 60h498zM604 440h-498l9 61h498z" />
    <glyph glyph-name="greater" unicode="&#x3e;" horiz-adv-x="590" 
d="M544 350l-473 -269l-21 56l415 233l-338 252l38 54l385 -286z" />
    <glyph glyph-name="question" unicode="?" horiz-adv-x="462" 
d="M372 328l30 -37c-24 -36 -108 -102 -194 -102c-70 0 -137 44 -137 130c0 177 281 197 281 332c0 38 -22 64 -63 64c-46 0 -91 -32 -106 -43l-21 43c27 21 83 58 147 58c79 0 110 -55 110 -113c0 -174 -282 -205 -282 -336c0 -44 32 -79 84 -79c64 0 126 52 151 83z
M166 -11c-27 0 -44 22 -44 47c0 32 29 59 60 59c26 0 43 -20 43 -45c0 -32 -28 -61 -59 -61z" />
    <glyph glyph-name="at" unicode="@" horiz-adv-x="1016" 
d="M686 -151l11 -51c-94 -38 -175 -47 -228 -47c-248 0 -417 193 -417 439c0 305 259 570 565 570c245 0 359 -169 359 -345c0 -215 -170 -443 -440 -443c-165 0 -225 85 -225 171c0 99 78 204 213 204c57 0 97 -19 130 -51l10 61c9 56 0 102 -102 102
c-69 0 -120 -21 -136 -27l-16 46c39 18 88 38 163 38c141 0 164 -72 147 -180l-25 -158h-18c-29 95 -106 112 -154 112c-94 0 -150 -66 -150 -134c0 -63 47 -127 175 -127c225 0 369 196 369 376c0 152 -103 298 -314 298c-268 0 -494 -236 -494 -504
c0 -210 138 -392 375 -392c47 0 126 7 202 42z" />
    <glyph glyph-name="A" unicode="A" horiz-adv-x="668" 
d="M624 0h-78l-53 202h-346l-117 -202h-80l463 780zM475 267l-79 312c-3 11 -9 35 -10 45c-4 -15 -14 -33 -21 -45l-179 -312h289z" />
    <glyph glyph-name="B" unicode="B" horiz-adv-x="606" 
d="M240 0h-187l120 757h145c116 0 211 -34 211 -151c0 -108 -80 -177 -145 -201c62 -10 149 -57 149 -177c0 -126 -97 -228 -293 -228zM192 421h58c120 0 203 69 203 167c0 79 -54 104 -133 104h-85zM135 65h122c133 0 199 74 199 160c0 81 -58 131 -148 131h-127z" />
    <glyph glyph-name="C" unicode="C" horiz-adv-x="722" 
d="M619 129l26 -48c-75 -62 -163 -95 -257 -95c-198 0 -326 146 -326 344c0 249 204 441 443 441c118 0 190 -47 232 -98l-48 -52c-38 50 -106 84 -194 84c-193 0 -357 -163 -357 -371c0 -170 110 -283 265 -283c86 0 169 35 216 78z" />
    <glyph glyph-name="D" unicode="D" horiz-adv-x="718" 
d="M222 0h-169l120 757h168c191 0 335 -105 335 -328c0 -251 -181 -429 -454 -429zM135 65h86c212 0 379 128 379 356c0 191 -117 271 -272 271h-93z" />
    <glyph glyph-name="E" unicode="E" horiz-adv-x="544" 
d="M460 1h-407l120 755h376l-11 -64h-304l-40 -254h245l-10 -65h-245l-49 -308h335z" />
    <glyph glyph-name="F" unicode="F" horiz-adv-x="503" 
d="M125 0h-72l120 756h370l-10 -64h-298l-41 -256h240l-10 -64h-240z" />
    <glyph glyph-name="G" unicode="G" horiz-adv-x="809" 
d="M693 296h-196l10 65h272c-44 -278 -235 -375 -394 -375c-191 0 -323 140 -323 345c0 260 214 440 445 440c170 0 247 -97 254 -106l-48 -53c-7 9 -75 93 -218 93c-205 0 -357 -174 -357 -370c0 -160 102 -284 256 -284c132 0 261 90 299 245z" />
    <glyph glyph-name="H" unicode="H" horiz-adv-x="738" 
d="M588 0h-72l56 353h-391l-56 -353h-72l120 757h72l-54 -339h391l54 339h72z" />
    <glyph glyph-name="I" unicode="I" horiz-adv-x="275" 
d="M125 0h-72l120 757h72z" />
    <glyph glyph-name="J" unicode="J" horiz-adv-x="274" 
d="M-108 -263l-17 64c124 48 161 91 190 276l108 680h71l-108 -685c-34 -214 -88 -271 -244 -335z" />
    <glyph glyph-name="K" unicode="K" horiz-adv-x="624" 
d="M593 0h-103l-310 350l-55 -350h-72l120 757h72l-53 -336l370 336h96l-414 -376z" />
    <glyph glyph-name="L" unicode="L" horiz-adv-x="496" 
d="M431 1h-378l120 756h72l-110 -692h306z" />
    <glyph glyph-name="M" unicode="M" horiz-adv-x="933" 
d="M818 0h-76l36 516c0 5 3 28 4 32c-3 -4 -13 -23 -16 -27l-352 -549l-183 549c-3 8 -6 18 -8 27c0 -9 -3 -23 -6 -32l-125 -516h-75l203 778l210 -609c2 -6 9 -27 8 -37c4 10 15 31 19 37l404 609z" />
    <glyph glyph-name="N" unicode="N" horiz-adv-x="822" 
d="M669 -26l-452 617l-93 -591h-72l123 776l452 -618l95 599h72z" />
    <glyph glyph-name="O" unicode="O" horiz-adv-x="873" 
d="M391 -14c-196 0 -330 145 -330 345c0 254 218 440 446 440c199 0 327 -142 327 -341c0 -263 -223 -444 -443 -444zM400 51c182 0 358 165 358 374c0 163 -106 280 -261 280c-182 0 -359 -162 -359 -367c0 -154 99 -287 262 -287z" />
    <glyph glyph-name="P" unicode="P" horiz-adv-x="550" 
d="M125 0h-72l120 757h145c116 0 231 -43 231 -194c0 -136 -94 -265 -305 -265h-72zM182 363h61c140 0 228 80 228 192c0 96 -64 137 -145 137h-91z" />
    <glyph glyph-name="Q" unicode="Q" horiz-adv-x="874" 
d="M770 -40l-61 -55l-120 135c-61 -34 -131 -54 -201 -54c-192 0 -326 148 -326 346c0 251 217 439 446 439c199 0 327 -142 327 -341c0 -155 -78 -278 -185 -352zM401 51c182 0 359 166 359 375c0 162 -107 279 -262 279c-183 0 -359 -162 -359 -367
c0 -155 99 -287 262 -287z" />
    <glyph glyph-name="R" unicode="R" horiz-adv-x="583" 
d="M553 0h-97l-236 300h-47l-48 -300h-72l120 757h141c108 0 235 -35 235 -192c0 -137 -96 -243 -246 -262zM182 363h56c163 0 234 94 234 195c0 94 -61 134 -157 134h-80z" />
    <glyph glyph-name="S" unicode="S" 
d="M1 86l50 52c21 -32 75 -86 166 -86c100 0 176 64 176 161c0 181 -275 147 -275 355c0 139 123 205 236 205c101 0 153 -52 170 -76l-47 -51c-26 32 -66 62 -126 62c-77 0 -156 -48 -156 -132c0 -157 276 -132 276 -349c0 -140 -116 -241 -261 -241
c-109 0 -185 57 -209 100z" />
    <glyph glyph-name="T" unicode="T" horiz-adv-x="530" 
d="M251 0h-72l110 692h-209l10 64h490l-10 -64h-209z" />
    <glyph glyph-name="U" unicode="U" horiz-adv-x="728" 
d="M528 109l103 648h72l-107 -673c-56 -57 -160 -98 -276 -98c-179 0 -260 97 -230 288l76 483h73l-72 -453c-29 -183 18 -253 170 -253c77 0 145 18 191 58z" />
    <glyph glyph-name="V" unicode="V" horiz-adv-x="620" 
d="M253 -32l-185 789h83l130 -584c2 -9 0 -25 -1 -36c3 11 7 27 12 36l315 584h85z" />
    <glyph glyph-name="W" unicode="W" horiz-adv-x="975" 
d="M662 -31l-130 568c-4 18 -5 26 -4 44c-4 -18 -8 -26 -17 -44l-305 -567l-128 787h79l84 -563c1 -11 0 -25 -1 -36c3 11 7 25 12 36l307 587l126 -586c2 -12 -1 -28 -1 -40c3 12 8 29 13 40l258 562h79z" />
    <glyph glyph-name="X" unicode="X" horiz-adv-x="609" 
d="M544 0h-86l-150 326l-258 -326h-86l313 393l-174 364h86l139 -305l241 305h87l-296 -369z" />
    <glyph glyph-name="Y" unicode="Y" horiz-adv-x="545" 
d="M257 0h-72l52 327l-172 430h80l135 -350c2 -5 3 -8 2 -16c2 8 5 11 9 16l252 350h78l-312 -430z" />
    <glyph glyph-name="Z" unicode="Z" horiz-adv-x="577" 
d="M497 1h-538l518 691h-336l11 64h459l-518 -691h414z" />
    <glyph glyph-name="bracketleft" unicode="[" horiz-adv-x="292" 
d="M171 -216h-168l164 1036h168l-9 -57h-108l-146 -925h108z" />
    <glyph glyph-name="backslash" unicode="\" horiz-adv-x="519" 
d="M401 -197l-56 -19l-228 1013l57 23z" />
    <glyph glyph-name="bracketright" unicode="]" horiz-adv-x="291" 
d="M124 -216h-168l9 57h107l147 925h-107l8 54h168z" />
    <glyph glyph-name="asciicircum" unicode="^" horiz-adv-x="607" 
d="M592 410h-77l-95 327l-200 -327h-76l257 404h62z" />
    <glyph glyph-name="underscore" unicode="_" horiz-adv-x="588" 
d="M478 -29h-470l9 57h470z" />
    <glyph glyph-name="quoteleft" unicode="&#x2018;" horiz-adv-x="235" 
d="M165 560h-73l117 197h53z" />
    <glyph glyph-name="a" unicode="a" horiz-adv-x="497" 
d="M331 83l20 125c-21 26 -63 57 -124 57c-67 0 -148 -37 -148 -123c0 -65 47 -100 119 -100c50 0 101 17 133 41zM433 313l-41 -258c-50 -43 -129 -68 -206 -68c-128 0 -177 70 -177 148c0 128 130 183 217 183c46 0 105 -16 133 -54l11 67c10 60 -16 106 -106 106
c-62 0 -117 -22 -133 -29l-17 50c35 16 89 36 160 36c137 0 176 -74 159 -181z" />
    <glyph glyph-name="b" unicode="b" horiz-adv-x="566" 
d="M34 52l122 768h66l-63 -393c28 23 93 67 175 67c119 0 178 -91 178 -212c0 -196 -154 -295 -298 -295c-64 0 -130 20 -180 65zM149 360l-44 -276c20 -19 68 -40 122 -40c111 0 214 88 214 232c0 101 -50 160 -127 160c-64 0 -132 -40 -165 -76z" />
    <glyph glyph-name="c" unicode="c" horiz-adv-x="501" 
d="M408 107l25 -39c-45 -53 -122 -81 -193 -81c-127 0 -206 88 -206 220c0 173 134 287 281 287c96 0 144 -49 158 -65l-42 -44c-7 10 -49 51 -119 51c-96 0 -209 -79 -209 -224c0 -106 60 -167 155 -167c68 0 118 31 150 62z" />
    <glyph glyph-name="d" unicode="d" horiz-adv-x="564" 
d="M390 85l44 282c-18 41 -70 69 -131 69c-116 0 -200 -102 -200 -228c0 -113 68 -164 154 -164c37 0 87 10 133 41zM446 442l60 378h66l-122 -768c-64 -44 -136 -65 -202 -65c-114 0 -215 62 -215 215c0 169 124 292 276 292c63 0 108 -21 137 -52z" />
    <glyph glyph-name="e" unicode="e" horiz-adv-x="532" 
d="M413 107l24 -40c-34 -42 -114 -80 -200 -80c-129 0 -205 85 -205 214c0 163 121 293 275 293c150 0 194 -122 174 -240l-3 -18h-375c-20 -124 36 -192 149 -192c85 0 136 38 161 63zM114 289h304c6 76 -28 148 -118 148c-75 0 -158 -51 -186 -148z" />
    <glyph glyph-name="f" unicode="f" horiz-adv-x="309" 
d="M124 0h-66l67 423h-77l9 57h77l21 134c10 66 26 113 60 152c37 42 85 52 123 52c48 0 80 -20 87 -26l-36 -56c-8 5 -33 21 -60 21c-64 0 -94 -62 -106 -136l-23 -141h115l-9 -57h-115z" />
    <glyph glyph-name="g" unicode="g" horiz-adv-x="563" 
d="M370 -32l15 97c-44 -47 -109 -78 -170 -78c-94 0 -181 75 -181 219c0 190 151 288 298 288c90 0 151 -37 177 -61l-73 -460c-32 -202 -149 -236 -249 -236c-76 0 -136 20 -181 56l37 51c36 -30 94 -49 151 -49c65 0 153 25 176 173zM396 134l42 266
c-14 10 -55 36 -116 36c-107 0 -217 -78 -217 -223c0 -95 48 -167 132 -167c64 0 126 41 159 88z" />
    <glyph glyph-name="h" unicode="h" horiz-adv-x="535" 
d="M414 0h-66l45 284c14 91 10 148 -87 148c-71 0 -116 -30 -154 -64l-58 -368h-66l130 820h66l-62 -390c37 29 88 64 168 64c100 0 154 -55 134 -179z" />
    <glyph glyph-name="i" unicode="i" horiz-adv-x="226" 
d="M98 0h-66l76 481h66zM216 635c0 -32 -27 -58 -59 -58c-24 0 -42 19 -42 44c0 33 29 58 59 58c26 0 42 -18 42 -44z" />
    <glyph glyph-name="j" unicode="j" horiz-adv-x="227" 
d="M-79 -268l-19 53c103 42 106 61 136 252l70 444h67l-70 -440c-32 -201 -48 -255 -184 -309zM157 577c-26 0 -42 19 -42 43c0 34 26 59 59 59c25 0 41 -19 41 -44c0 -32 -27 -58 -58 -58z" />
    <glyph glyph-name="k" unicode="k" horiz-adv-x="454" 
d="M409 0h-79l-196 245l-40 -245h-66l130 820h66l-84 -533l205 194h86l-235 -215z" />
    <glyph glyph-name="l" unicode="l" horiz-adv-x="231" 
d="M100 0h-66l130 820h66z" />
    <glyph glyph-name="m" unicode="m" horiz-adv-x="806" 
d="M685 0h-66l50 314c13 80 -4 118 -75 118c-72 0 -122 -40 -149 -65c0 -15 -2 -29 -4 -44l-51 -323h-66l50 315c14 85 -10 117 -76 117c-64 0 -109 -30 -146 -63l-58 -369h-66l76 481h66l-8 -51c29 23 89 64 163 64c68 0 98 -36 112 -74c37 31 106 74 183 74
c87 0 135 -54 116 -174z" />
    <glyph glyph-name="n" unicode="n" horiz-adv-x="535" 
d="M414 0h-66l45 284c14 91 10 148 -87 148c-71 0 -116 -30 -154 -64l-58 -368h-66l76 481h66l-8 -51c37 29 88 64 168 64c100 0 154 -55 134 -179z" />
    <glyph glyph-name="o" unicode="o" horiz-adv-x="583" 
d="M245 -13c-127 0 -212 90 -212 223c0 171 140 284 285 284c134 0 211 -97 211 -222c0 -169 -139 -285 -284 -285zM255 45c108 0 203 95 203 222c0 99 -58 169 -150 169c-111 0 -207 -101 -207 -224c0 -99 63 -167 154 -167z" />
    <glyph glyph-name="p" unicode="p" horiz-adv-x="564" 
d="M51 -255h-66l109 686c64 43 139 63 202 63c116 0 214 -69 214 -217c0 -159 -114 -290 -261 -290c-69 0 -119 29 -149 65zM154 395l-43 -270c22 -44 76 -80 138 -80c98 0 190 91 190 221c0 108 -63 169 -154 169c-54 0 -104 -21 -131 -40z" />
    <glyph glyph-name="q" unicode="q" horiz-adv-x="567" 
d="M404 -255h-66l49 311c-38 -37 -105 -68 -171 -68c-108 0 -183 82 -183 215c0 196 162 291 305 291c67 0 123 -21 175 -63zM399 131l42 264c-19 18 -55 40 -113 40c-127 0 -225 -103 -225 -230c0 -102 64 -160 137 -160c60 0 124 39 159 86z" />
    <glyph glyph-name="r" unicode="r" horiz-adv-x="332" 
d="M94 0h-66l76 481h66l-11 -69c10 22 59 82 111 82c36 0 66 -16 75 -22l-40 -63c-9 7 -26 20 -51 20c-54 0 -102 -66 -109 -107z" />
    <glyph glyph-name="s" unicode="s" horiz-adv-x="398" 
d="M-10 57l40 46c18 -26 54 -62 118 -62c74 0 111 48 111 96c0 107 -185 95 -185 223c0 79 70 135 161 135c70 0 114 -33 131 -56l-37 -48c-8 12 -41 50 -98 50c-63 0 -88 -45 -88 -76c0 -83 185 -75 185 -217c0 -94 -80 -162 -186 -162c-83 0 -131 41 -152 71z" />
    <glyph glyph-name="t" unicode="t" horiz-adv-x="302" 
d="M126 0h-66l67 423h-85l9 57h85l27 172h66l-27 -172h111l-9 -57h-111z" />
    <glyph glyph-name="u" unicode="u" 
d="M359 83l63 398h66l-67 -427c-55 -46 -128 -67 -199 -67c-117 0 -191 57 -171 185l49 309h67l-47 -294c-16 -99 16 -142 108 -142c64 0 106 21 131 38z" />
    <glyph glyph-name="v" unicode="v" horiz-adv-x="457" 
d="M187 -17h-20l-131 498h72l75 -302c11 -45 13 -68 13 -78h1c4 10 11 33 36 77l169 303h74z" />
    <glyph glyph-name="w" unicode="w" horiz-adv-x="699" 
d="M450 -17h-19l-78 351l-189 -351h-19l-106 498h72l71 -353l195 366h8l77 -366l184 353h70z" />
    <glyph glyph-name="x" unicode="x" horiz-adv-x="468" 
d="M407 0h-78l-109 206l-177 -206h-77l222 261l-121 220h79l89 -171l146 171h76l-192 -224z" />
    <glyph glyph-name="y" unicode="y" horiz-adv-x="480" 
d="M30 -259h-76l202 312l-120 428h74l95 -360l219 360h77z" />
    <glyph glyph-name="z" unicode="z" horiz-adv-x="445" 
d="M357 1h-390l351 422h-238l9 57h353l-347 -422h271z" />
    <glyph glyph-name="braceleft" unicode="{" horiz-adv-x="314" 
d="M203 -163l-20 -48c-111 9 -130 83 -113 189l22 140c14 86 4 145 -61 187c79 42 107 101 121 187l22 140c17 106 58 180 173 189l4 -48c-96 -15 -104 -78 -118 -167l-20 -127c-12 -76 -35 -123 -94 -174c44 -51 50 -98 38 -174l-20 -127c-14 -89 -30 -152 66 -167z" />
    <glyph glyph-name="bar" unicode="|" horiz-adv-x="230" 
d="M56 -260h-61l171 1080h61z" />
    <glyph glyph-name="braceright" unicode="}" horiz-adv-x="311" 
d="M-34 -211l-4 48c100 15 104 78 118 167l21 127c12 76 33 123 94 174c-44 51 -51 98 -39 174l20 127c14 89 26 152 -66 167l20 48c111 -9 130 -83 113 -189l-22 -140c-14 -86 -4 -145 61 -187c-79 -42 -106 -101 -120 -187l-23 -140c-17 -106 -58 -180 -173 -189z" />
    <glyph glyph-name="asciitilde" unicode="~" horiz-adv-x="554" 
d="M505 554l22 -49c-21 -18 -82 -59 -142 -59c-51 0 -98 52 -155 52c-39 0 -93 -32 -118 -48l-24 47c27 22 97 64 150 64c59 0 108 -53 154 -53c51 0 95 33 113 46z" />
    <glyph glyph-name="cent" unicode="&#xa2;" horiz-adv-x="547" 
d="M269 -13h-49l21 132c-102 15 -169 99 -169 212c0 168 115 270 249 288l21 140h49l-21 -138c83 -6 135 -57 145 -73l-41 -43c-11 12 -53 53 -114 56l-61 -388c70 0 116 32 150 64l26 -37c-43 -50 -111 -79 -185 -82zM250 177l60 379c-81 -17 -169 -89 -169 -221
c0 -87 47 -143 109 -158z" />
    <glyph glyph-name="sterling" unicode="&#xa3;" horiz-adv-x="584" 
d="M490 54l-2 -59c-19 -5 -62 -14 -89 -14c-84 0 -129 30 -186 30c-73 0 -184 -46 -195 -51l-12 54c5 3 78 33 140 47l37 229h-71l9 56h71l29 183c26 163 79 218 186 218c44 0 75 -18 86 -26l-40 -55c-8 5 -30 19 -60 19c-70 0 -90 -59 -103 -143l-31 -196h131l-9 -56h-131
l-35 -221c19 0 35 -1 49 -3c50 -8 68 -27 150 -27c32 0 55 10 76 15z" />
    <glyph glyph-name="fraction" unicode="&#x2044;" horiz-adv-x="136" 
d="M-129 -4l-41 20l461 747l41 -20z" />
    <glyph glyph-name="yen" unicode="&#xa5;" horiz-adv-x="660" 
d="M527 156h-186l-25 -156h-72l25 156h-197l8 50h197l12 79h-197l8 50h192l-168 422h80l135 -349c2 -5 3 -8 2 -18c3 9 6 13 9 18l252 349h78l-306 -422h181l-8 -50h-186l-12 -79h186z" />
    <glyph glyph-name="florin" unicode="&#x192;" horiz-adv-x="286" 
d="M-90 -257l9 54c5 -2 21 -6 33 -6c59 0 79 77 95 163l83 475h-83l9 55h84l9 66c28 192 64 297 191 297c11 0 42 -7 47 -8l-11 -57c-6 1 -29 4 -37 4c-97 0 -105 -140 -134 -302h88l-9 -55h-88l-87 -491c-21 -120 -61 -205 -156 -205c-20 0 -37 7 -43 10z" />
    <glyph glyph-name="section" unicode="&#xa7;" horiz-adv-x="541" 
d="M299 -128l-237 528c30 57 135 115 177 125l-61 140c16 38 206 134 318 135l-29 -73c-60 0 -199 -41 -218 -52l219 -497c-29 -58 -131 -113 -173 -124l75 -171c-23 -47 -222 -146 -331 -146l32 73c60 0 211 52 228 62zM395 162l-133 308c-37 0 -91 -26 -128 -54l136 -307
c36 0 100 29 125 53z" />
    <glyph glyph-name="currency" unicode="&#xa4;" horiz-adv-x="680" 
d="M573 147l-54 -39l-62 75c-42 -28 -91 -49 -145 -49c-55 0 -99 22 -129 49l-87 -76l-38 40l86 77c-17 31 -30 72 -30 116c0 76 33 129 75 174l-61 80l50 40l64 -79c43 31 90 52 145 52c54 0 98 -21 129 -51l87 78l42 -40l-88 -80c17 -27 28 -65 28 -109
c0 -76 -32 -133 -77 -180zM322 197c96 0 196 92 196 197c0 85 -62 150 -141 150c-92 0 -195 -87 -195 -195c0 -84 63 -152 140 -152z" />
    <glyph glyph-name="quotesingle" unicode="'" horiz-adv-x="213" 
d="M160 480h-54l33 281h78z" />
    <glyph glyph-name="quotedblleft" unicode="&#x201c;" horiz-adv-x="384" 
d="M160 560h-68l117 197h53zM316 560h-69l110 197h53z" />
    <glyph glyph-name="guillemotleft" unicode="&#xab;" horiz-adv-x="483" 
d="M201 25h-67l-93 210l156 210h66l-159 -210zM386 25h-67l-93 210l155 210h67l-160 -210z" />
    <glyph glyph-name="guilsinglleft" unicode="&#x2039;" horiz-adv-x="297" 
d="M200 26h-66l-93 209l156 210h65l-159 -210z" />
    <glyph glyph-name="guilsinglright" unicode="&#x203a;" horiz-adv-x="298" 
d="M77 26h-68l163 209l-93 210h66l90 -210z" />
    <glyph glyph-name="fi" unicode="&#xfb01;" 
d="M407 0h-66l76 481h66zM524 629c0 -32 -29 -58 -59 -58c-23 0 -42 19 -42 44c0 32 28 58 59 58c25 0 42 -20 42 -44zM124 0h-66l67 423h-77l9 57h77l21 134c9 57 24 112 60 152c38 42 86 52 120 52c53 0 83 -20 90 -26l-36 -56c-11 7 -32 21 -63 21
c-59 0 -90 -54 -102 -128l-24 -149h115l-9 -57h-115z" />
    <glyph glyph-name="fl" unicode="&#xfb02;" horiz-adv-x="540" 
d="M409 0h-66l130 820h66zM124 0h-66l67 423h-77l9 57h77l19 121c9 57 24 112 60 152c38 42 86 52 120 52c53 0 83 -20 90 -26l-36 -56c-11 7 -32 21 -63 21c-59 0 -90 -54 -102 -128l-22 -136h110l-9 -57h-110z" />
    <glyph glyph-name="dagger" unicode="&#x2020;" horiz-adv-x="461" 
d="M220 55h-63l79 497h-140l9 57h140l33 206h63l-33 -206h144l-9 -57h-144z" />
    <glyph glyph-name="daggerdbl" unicode="&#x2021;" horiz-adv-x="480" 
d="M229 56h-63l31 193h-140l9 56h140l43 272h-140l9 56h140l29 187h63l-29 -187h144l-9 -56h-144l-43 -272h144l-9 -56h-144z" />
    <glyph glyph-name="paragraph" unicode="&#xb6;" horiz-adv-x="540" 
d="M373 754l-79 -495c-146 0 -217 100 -217 206c0 133 125 289 296 289zM351 -165h-68l146 922h68z" />
    <glyph glyph-name="quotesinglbase" unicode="&#x201a;" horiz-adv-x="231" 
d="M24 -78h-53l96 197h73z" />
    <glyph glyph-name="quotedblbase" unicode="&#x201e;" horiz-adv-x="385" 
d="M174 -77h-53l102 197h68zM26 -77h-53l94 197h69z" />
    <glyph glyph-name="quotedblright" unicode="&#x201d;" horiz-adv-x="381" 
d="M296 560h-53l102 197h68zM148 560h-53l94 197h69z" />
    <glyph glyph-name="guillemotright" unicode="&#xbb;" horiz-adv-x="477" 
d="M74 25h-66l163 210l-92 210h65l89 -210zM257 25h-65l162 210l-92 210h66l86 -210z" />
    <glyph glyph-name="perthousand" unicode="&#x2030;" horiz-adv-x="1159" 
d="M1086 157c0 -92 -82 -169 -169 -169c-70 0 -119 56 -119 128c0 93 80 170 166 170c71 0 122 -56 122 -129zM926 38c57 0 106 52 106 113c0 47 -29 84 -75 84c-55 0 -106 -52 -106 -113c0 -47 30 -84 75 -84zM203 -22l-42 18l427 767l41 -18zM387 633
c0 -92 -82 -169 -169 -169c-71 0 -119 56 -119 128c0 93 80 170 167 170c71 0 121 -56 121 -129zM228 515c56 0 107 51 107 112c0 47 -30 84 -76 84c-55 0 -106 -52 -106 -112c0 -48 30 -84 75 -84zM542 -12c-71 0 -119 56 -119 128c0 93 79 170 166 170
c71 0 121 -56 121 -128c0 -93 -81 -170 -168 -170zM551 38c56 0 106 52 106 113c0 47 -30 84 -75 84c-58 0 -107 -52 -107 -113c0 -47 30 -84 76 -84z" />
    <glyph glyph-name="grave" unicode="`" horiz-adv-x="312" 
d="M349 610l-43 -27l-126 145l67 45z" />
    <glyph glyph-name="acute" unicode="&#xb4;" horiz-adv-x="318" 
d="M369 728l-172 -145l-35 27l155 163z" />
    <glyph glyph-name="circumflex" unicode="&#x2c6;" horiz-adv-x="423" 
d="M467 618l-43 -36l-101 96l-132 -96l-32 36l175 134h1z" />
    <glyph glyph-name="tilde" unicode="&#x2dc;" horiz-adv-x="352" 
d="M437 686l19 -37c-16 -17 -65 -64 -113 -64c-38 0 -65 45 -105 45c-29 0 -67 -31 -85 -46l-23 36c22 22 80 66 120 66c41 0 71 -46 104 -46c36 0 69 33 83 46z" />
    <glyph glyph-name="macron" unicode="&#xaf;" horiz-adv-x="499" 
d="M517 591h-347l9 58h347z" />
    <glyph glyph-name="breve" unicode="&#x2d8;" horiz-adv-x="382" 
d="M406 729h68c-15 -72 -81 -165 -196 -165c-81 0 -144 57 -135 165h70c-3 -17 -8 -108 73 -108c98 0 119 100 120 108z" />
    <glyph glyph-name="dotaccent" unicode="&#x2d9;" horiz-adv-x="238" 
d="M265 637c0 -29 -24 -53 -55 -53c-21 0 -39 18 -39 41c0 29 28 54 55 54c24 0 39 -19 39 -42z" />
    <glyph glyph-name="dieresis" unicode="&#xa8;" horiz-adv-x="337" 
d="M213 641c0 -28 -25 -51 -55 -51c-21 0 -39 17 -39 40c0 28 28 52 54 52c24 0 40 -18 40 -41zM429 642c0 -29 -24 -52 -56 -52c-23 0 -37 17 -37 39c0 28 23 53 52 53c26 0 41 -18 41 -40z" />
    <glyph glyph-name="ring" unicode="&#x2da;" horiz-adv-x="344" 
d="M400 704c0 -66 -60 -122 -125 -122c-53 0 -89 41 -89 93c0 68 60 124 124 124c53 0 90 -43 90 -95zM283 626c36 0 71 36 71 74c0 31 -21 56 -50 56c-35 0 -71 -34 -71 -73c0 -30 21 -57 50 -57z" />
    <glyph glyph-name="cedilla" unicode="&#xb8;" horiz-adv-x="556" 
d="M274 -203h-64l101 164h74z" />
    <glyph glyph-name="hungarumlaut" unicode="&#x2dd;" horiz-adv-x="545" 
d="M390 694l-196 -115l-23 31l178 133zM570 694l-196 -115l-23 31l178 133z" />
    <glyph glyph-name="ogonek" unicode="&#x2db;" horiz-adv-x="568" 
d="M358 -153l-9 -58c-22 -10 -50 -15 -79 -15c-54 0 -107 22 -107 79s47 112 137 157h64c-55 -30 -133 -74 -133 -136c0 -29 24 -45 57 -45c21 0 45 8 70 18z" />
    <glyph glyph-name="caron" unicode="&#x2c7;" horiz-adv-x="423" 
d="M477 712l-174 -134l-133 134l43 37l101 -96l132 96z" />
    <glyph glyph-name="emdash" unicode="&#x2014;" horiz-adv-x="847" 
d="M754 218h-697l17 57h697z" />
    <glyph glyph-name="AE" unicode="&#xc6;" horiz-adv-x="884" 
d="M799 1h-406l35 217h-239l-160 -218h-84l558 756h386l-10 -64h-304l-41 -254h245l-10 -65h-245l-49 -308h334zM438 281l57 363l-258 -363h201z" />
    <glyph glyph-name="ordfeminine" unicode="&#xaa;" horiz-adv-x="419" 
d="M314 456l12 79c-14 16 -42 34 -83 34c-45 0 -101 -22 -101 -75c0 -40 32 -63 82 -63c35 0 68 11 90 25zM401 608l-28 -176c-45 -36 -109 -48 -159 -48c-99 0 -136 48 -136 106c0 88 84 124 162 124c46 0 71 -13 94 -30l7 42c6 35 -12 64 -76 64c-44 0 -84 -14 -98 -19
l-14 40c28 12 70 26 124 26c104 0 136 -52 124 -129z" />
    <glyph glyph-name="Lslash" unicode="&#x141;" horiz-adv-x="498" 
d="M437 1h-382l37 232l-82 -49l11 70l82 50l72 453h72l-65 -409l142 86l-11 -70l-142 -86l-34 -215h310z" />
    <glyph glyph-name="Oslash" unicode="&#xd8;" horiz-adv-x="873" 
d="M201 -147l-56 19l83 153c-103 56 -167 168 -167 306c0 254 218 440 446 440c42 0 81 -7 117 -19l72 133l56 -24l-73 -134c97 -56 155 -164 155 -297c0 -263 -223 -444 -443 -444c-39 0 -75 6 -109 16zM263 89l326 600c-28 10 -59 16 -92 16c-182 0 -359 -162 -359 -367
c0 -104 45 -199 125 -249zM643 662l-327 -598c26 -9 54 -13 84 -13c182 0 358 165 358 374c0 104 -43 189 -115 237z" />
    <glyph glyph-name="OE" unicode="&#x152;" horiz-adv-x="1187" 
d="M1102 1h-407l25 155c-82 -122 -212 -170 -331 -170c-193 0 -327 150 -327 340c0 261 216 445 451 445c122 0 234 -66 276 -181l26 166h377l-11 -64h-305l-39 -254h244l-10 -65h-245l-48 -308h335zM392 51c196 0 367 166 367 374c0 163 -108 280 -256 280
c-190 0 -364 -162 -364 -367c0 -154 104 -287 253 -287z" />
    <glyph glyph-name="ordmasculine" unicode="&#xba;" horiz-adv-x="470" 
d="M461 580c0 -114 -101 -196 -211 -196c-98 0 -162 64 -162 156c0 116 103 197 212 197c100 0 161 -69 161 -157zM258 434c74 0 137 62 137 142c0 65 -41 111 -102 111c-74 0 -140 -66 -140 -145c0 -63 42 -108 105 -108z" />
    <glyph glyph-name="ae" unicode="&#xe6;" horiz-adv-x="852" 
d="M734 107l24 -40c-37 -44 -114 -80 -201 -80c-69 0 -124 23 -161 70c-55 -46 -136 -70 -210 -70c-127 0 -176 70 -176 150c0 126 122 181 214 181c49 0 109 -16 136 -54l11 67c10 60 -16 106 -106 106c-62 0 -117 -22 -133 -29l-17 50c35 16 90 36 159 36
c91 0 145 -35 158 -90c40 56 121 90 198 90c146 0 191 -122 171 -240l-3 -18h-376c-20 -124 39 -192 152 -192c84 0 135 38 160 63zM369 103c-12 26 -19 63 -17 105c-22 26 -63 57 -124 57c-66 0 -148 -37 -148 -123c0 -65 47 -100 119 -100c50 0 107 17 170 61zM434 289
h305c4 80 -31 148 -120 148c-76 0 -158 -51 -185 -148z" />
    <glyph glyph-name="lslash" unicode="&#x142;" horiz-adv-x="264" 
d="M114 0h-66l38 240l-75 -50l11 69l75 50l81 511h66l-74 -466l84 58l-11 -69l-84 -58z" />
    <glyph glyph-name="oslash" unicode="&#xf8;" horiz-adv-x="583" 
d="M81 -146l-47 20l89 147c-57 38 -90 105 -90 189c0 171 140 284 285 284c30 0 58 -5 82 -15l89 147l48 -23l-90 -149c53 -39 82 -106 82 -182c0 -169 -139 -285 -284 -285c-27 0 -53 4 -76 12zM158 78l209 347c-17 7 -37 11 -59 11c-111 0 -207 -101 -207 -224
c0 -58 21 -104 57 -134zM411 395l-209 -342c16 -5 34 -8 53 -8c108 0 203 95 203 222c0 53 -17 98 -47 128z" />
    <glyph glyph-name="oe" unicode="&#x153;" horiz-adv-x="951" 
d="M832 107l24 -40c-34 -42 -114 -80 -200 -80c-93 0 -158 43 -188 116c-54 -72 -137 -116 -223 -116c-127 0 -212 90 -212 223c0 171 140 284 285 284c91 0 156 -46 188 -115c50 70 129 115 220 115c150 0 194 -122 174 -240l-3 -18h-375c-20 -124 36 -192 149 -192
c85 0 136 38 161 63zM255 45c108 0 203 95 203 222c0 99 -58 169 -150 169c-111 0 -207 -101 -207 -224c0 -99 63 -167 154 -167zM533 289h304c6 76 -28 148 -118 148c-75 0 -158 -51 -186 -148z" />
    <glyph glyph-name="germandbls" unicode="&#xdf;" horiz-adv-x="531" 
d="M153 -246l11 56c90 15 223 108 223 245c0 61 -32 109 -104 109c-25 0 -53 -5 -85 -14l197 273h-205l-67 -423h-66l67 423h-72l9 57h72l21 134c9 57 24 112 60 152c38 42 86 52 120 52c53 0 83 -20 90 -26l-36 -56c-11 7 -32 21 -63 21c-59 0 -90 -54 -102 -128l-24 -149
h307l-206 -270c12 2 21 3 31 3c73 0 124 -63 124 -153c0 -198 -218 -294 -302 -306z" />
    <glyph glyph-name="logicalnot" unicode="&#xac;" horiz-adv-x="668" 
d="M547 109h-66l36 228h-432l9 57h498z" />
    <glyph glyph-name="trademark" unicode="&#x2122;" horiz-adv-x="945" 
d="M266 387h-61l50 316c-39 0 -79 -1 -118 -1l9 55h297l-9 -55c-40 0 -79 1 -118 1zM876 387h-61l8 225l-179 -239l-104 239l-58 -225h-62l109 381l129 -295l226 294z" />
    <glyph glyph-name="Eth" unicode="&#xd0;" horiz-adv-x="719" 
d="M223 0h-169l55 348h-74l9 58h74l56 351h168c191 0 335 -105 335 -328c0 -251 -181 -429 -454 -429zM136 65h86c212 0 379 128 379 356c0 191 -117 271 -272 271h-93l-46 -286h193l-9 -58h-193z" />
    <glyph glyph-name="onehalf" unicode="&#xbd;" horiz-adv-x="760" 
d="M138 -4l-42 20l461 747l41 -20zM212 345h-64l55 348l-75 -30l-14 49l166 59zM653 0h-330c75 56 298 193 298 304c0 36 -26 65 -65 65c-42 0 -81 -26 -100 -45l-25 40c24 19 74 56 139 56c73 0 117 -48 117 -109c0 -104 -131 -202 -227 -261l202 2z" />
    <glyph glyph-name="plusminus" unicode="&#xb1;" horiz-adv-x="652" 
d="M586 353h-216l-37 -230h-66l37 230h-216l9 60h216l37 230h66l-37 -230h216zM530 1h-498l9 59h498z" />
    <glyph glyph-name="Thorn" unicode="&#xde;" horiz-adv-x="547" 
d="M125 0h-72l120 757h72l-24 -148h73c117 0 231 -44 231 -192c0 -138 -98 -267 -309 -267h-67zM159 215h61c140 0 228 80 228 192c0 96 -64 137 -146 137h-91z" />
    <glyph glyph-name="onequarter" unicode="&#xbc;" horiz-adv-x="728" 
d="M559 -5h-62l13 85h-221l7 44l285 290h44l-45 -283h63l-8 -51h-63zM138 -4l-42 20l461 747l41 -20zM212 345h-64l55 348l-75 -30l-14 49l166 59zM520 129l31 196l-186 -196h155z" />
    <glyph glyph-name="divide" unicode="&#xf7;" horiz-adv-x="680" 
d="M366 174c0 -27 -24 -51 -54 -51c-22 0 -38 18 -38 39c0 27 26 52 52 52c25 0 40 -18 40 -40zM427 558c0 -27 -24 -51 -55 -51c-22 0 -37 18 -37 39c0 28 25 51 52 51c25 0 40 -17 40 -39zM594 334h-498l9 59h498z" />
    <glyph glyph-name="brokenbar" unicode="&#xa6;" horiz-adv-x="240" 
d="M61 -260h-61l70 439h61zM163 381h-61l69 439h61z" />
    <glyph glyph-name="degree" unicode="&#xb0;" horiz-adv-x="398" 
d="M397 639c0 -92 -82 -168 -172 -168c-75 0 -126 56 -126 128c0 93 81 170 173 170c74 0 125 -56 125 -130zM234 524c53 0 101 50 101 110c0 46 -28 81 -71 81c-55 0 -101 -50 -101 -111c0 -45 28 -80 71 -80z" />
    <glyph glyph-name="thorn" unicode="&#xfe;" horiz-adv-x="567" 
d="M54 -255h-66l170 1075h65l-57 -359c42 23 92 33 135 33c114 0 212 -71 212 -217c0 -156 -113 -290 -261 -290c-69 0 -119 29 -149 65zM157 395l-43 -270c22 -44 76 -80 138 -80c98 0 190 91 190 221c0 108 -63 169 -154 169c-54 0 -105 -21 -131 -40z" />
    <glyph glyph-name="threequarters" unicode="&#xbe;" horiz-adv-x="829" 
d="M662 -5h-62l13 85h-221l7 44l285 290h44l-45 -283h63l-8 -51h-63zM299 577v-1c49 -19 70 -60 70 -102c0 -69 -72 -137 -182 -137c-74 0 -114 32 -125 45l35 45c9 -12 45 -37 98 -37c74 0 111 43 111 85c0 46 -44 81 -120 81l5 34c78 0 128 38 128 78c0 28 -22 47 -63 47
c-27 0 -61 -11 -79 -23l-14 45c15 12 62 31 112 31c71 0 109 -43 109 -87c0 -36 -19 -77 -85 -104zM240 -4l-41 20l461 747l41 -20zM623 129l31 196l-186 -196h155z" />
    <glyph glyph-name="registered" unicode="&#xae;" horiz-adv-x="688" 
d="M330 215c-132 0 -227 109 -227 244c0 170 154 315 316 315c131 0 226 -107 226 -241c0 -171 -154 -318 -315 -318zM338 262c129 0 259 125 259 264c0 110 -79 202 -186 202c-130 0 -258 -122 -258 -263c0 -111 78 -203 185 -203zM499 344h-62l-102 124l-14 17l-22 -141
h-46l50 319h78c58 0 115 -21 115 -82c0 -58 -40 -105 -116 -105zM324 504h27c66 0 99 28 99 70c0 29 -25 48 -67 48h-40z" />
    <glyph glyph-name="minus" unicode="&#x2212;" horiz-adv-x="670" 
d="M587 334h-498l9 59h498z" />
    <glyph glyph-name="eth" unicode="&#xf0;" horiz-adv-x="585" 
d="M546 729l-120 -68c45 -97 101 -248 101 -369c0 -185 -131 -306 -283 -306c-139 0 -212 102 -212 218c0 155 130 283 281 283c44 0 97 -11 134 -61c-15 67 -55 157 -80 203l-110 -65l-22 42l111 64c-33 65 -72 124 -103 150h93c9 -12 39 -59 66 -120l126 72zM251 43
c102 0 205 87 205 217c0 93 -53 170 -152 170c-119 0 -203 -111 -203 -220c0 -83 49 -167 150 -167z" />
    <glyph glyph-name="multiply" unicode="&#xd7;" horiz-adv-x="627" 
d="M527 163l-53 -41l-158 197l-219 -197l-43 40l227 199l-161 198l53 42l158 -198l219 198l39 -42l-221 -197z" />
    <glyph glyph-name="copyright" unicode="&#xa9;" horiz-adv-x="881" 
d="M401 36c193 0 374 178 374 391c0 164 -108 291 -272 291c-194 0 -375 -176 -375 -389c0 -164 108 -293 273 -293zM393 -17c-192 0 -322 151 -322 340c0 244 215 448 440 448c192 0 321 -149 321 -338c0 -244 -214 -450 -439 -450zM584 236l21 -44
c-47 -37 -107 -54 -167 -54c-137 0 -218 88 -218 209c0 150 124 275 286 275c80 0 129 -31 156 -59l-42 -46c-25 30 -71 46 -122 46c-126 0 -208 -97 -208 -208c0 -93 57 -159 160 -159c54 0 106 18 134 40z" />
    <glyph glyph-name="Aacute" unicode="&#xc1;" horiz-adv-x="668" 
d="M624 0h-78l-53 202h-346l-117 -202h-80l463 780zM475 267l-79 312c-3 11 -9 35 -10 45c-4 -15 -14 -33 -21 -45l-179 -312h289zM530 883l-259 -45l-14 47l250 64z" />
    <glyph glyph-name="Acircumflex" unicode="&#xc2;" horiz-adv-x="668" 
d="M624 0h-78l-53 202h-346l-117 -202h-80l463 780zM475 267l-79 312c-3 11 -9 35 -10 45c-4 -15 -14 -33 -21 -45l-179 -312h289zM591 850l-41 -35l-135 61l-161 -68l-23 37l196 102z" />
    <glyph glyph-name="Adieresis" unicode="&#xc4;" horiz-adv-x="668" 
d="M624 0h-78l-53 202h-346l-117 -202h-80l463 780zM475 267l-79 312c-3 11 -9 35 -10 45c-4 -15 -14 -33 -21 -45l-179 -312h289zM592 901c0 -29 -25 -54 -58 -54c-25 0 -40 19 -40 41c0 29 24 54 55 54c27 0 43 -18 43 -41zM341 900c0 -28 -26 -53 -58 -53
c-23 0 -41 19 -41 42c0 29 29 53 56 53c26 0 43 -18 43 -42z" />
    <glyph glyph-name="Agrave" unicode="&#xc0;" horiz-adv-x="668" 
d="M624 0h-78l-53 202h-346l-117 -202h-80l463 780zM475 267l-79 312c-3 11 -9 35 -10 45c-4 -15 -14 -33 -21 -45l-179 -312h289zM513 838l-246 45l44 66l230 -64z" />
    <glyph glyph-name="Aring" unicode="&#xc5;" horiz-adv-x="668" 
d="M624 0h-78l-53 202h-346l-117 -202h-80l463 780zM475 267l-79 312c-3 11 -9 35 -10 45c-4 -15 -14 -33 -21 -45l-179 -312h289zM540 925c0 -66 -60 -122 -124 -122c-54 0 -90 41 -90 93c0 68 59 124 125 124c52 0 89 -43 89 -95zM424 847c35 0 71 36 71 74
c0 31 -21 56 -50 56c-36 0 -71 -34 -71 -73c0 -31 20 -57 50 -57z" />
    <glyph glyph-name="Atilde" unicode="&#xc3;" horiz-adv-x="668" 
d="M624 0h-78l-53 202h-346l-117 -202h-80l463 780zM475 267l-79 312c-3 11 -9 35 -10 45c-4 -15 -14 -33 -21 -45l-179 -312h289zM577 943l25 -46c-22 -21 -80 -67 -127 -67c-40 0 -69 48 -112 48c-29 0 -71 -33 -91 -49l-24 41c23 23 87 68 129 68c44 0 75 -48 110 -48
s77 38 90 53z" />
    <glyph glyph-name="Ccedilla" unicode="&#xc7;" horiz-adv-x="722" 
d="M294 -231h-64l100 164h75zM619 129l26 -48c-75 -62 -163 -95 -257 -95c-198 0 -326 146 -326 344c0 249 204 441 443 441c118 0 190 -47 232 -98l-48 -52c-38 50 -106 84 -194 84c-193 0 -357 -163 -357 -371c0 -170 110 -283 265 -283c86 0 169 35 216 78z" />
    <glyph glyph-name="Eacute" unicode="&#xc9;" horiz-adv-x="544" 
d="M516 883l-260 -45l-14 47l251 64zM460 1h-407l120 755h376l-11 -64h-304l-40 -254h245l-10 -65h-245l-49 -308h335z" />
    <glyph glyph-name="Ecircumflex" unicode="&#xca;" horiz-adv-x="544" 
d="M559 852l-40 -37l-136 66l-161 -73l-22 38l195 104zM460 1h-407l120 755h376l-11 -64h-304l-40 -254h245l-10 -65h-245l-49 -308h335z" />
    <glyph glyph-name="Edieresis" unicode="&#xcb;" horiz-adv-x="544" 
d="M306 884c0 -29 -25 -53 -56 -53c-22 0 -38 18 -38 40c0 30 27 55 54 55c25 0 40 -18 40 -42zM552 885c0 -29 -26 -53 -55 -53c-24 0 -39 18 -39 39c0 30 23 55 54 55c24 0 40 -18 40 -41zM460 1h-407l120 755h376l-11 -64h-304l-40 -254h245l-10 -65h-245l-49 -308h335z
" />
    <glyph glyph-name="Egrave" unicode="&#xc8;" horiz-adv-x="544" 
d="M492 838l-249 35l44 68l232 -54zM460 1h-407l120 755h376l-11 -64h-304l-40 -254h245l-10 -65h-245l-49 -308h335z" />
    <glyph glyph-name="Iacute" unicode="&#xcd;" horiz-adv-x="275" 
d="M340 871l-211 -36l-13 49l202 55zM125 0h-72l120 757h72z" />
    <glyph glyph-name="Icircumflex" unicode="&#xce;" horiz-adv-x="275" 
d="M125 0h-72l120 757h72zM351 850l-40 -36l-83 61l-108 -69l-23 38l142 108h1z" />
    <glyph glyph-name="Idieresis" unicode="&#xcf;" horiz-adv-x="275" 
d="M203 859c0 -29 -26 -53 -57 -53c-22 0 -39 18 -39 41c0 30 28 54 54 54c25 0 42 -18 42 -42zM346 860c0 -29 -24 -54 -57 -54c-24 0 -39 18 -39 40c0 30 23 55 54 55c26 0 42 -18 42 -41zM125 0h-72l120 757h72z" />
    <glyph glyph-name="Igrave" unicode="&#xcc;" horiz-adv-x="275" 
d="M313 835l-199 36l44 68l184 -55zM125 0h-72l120 757h72z" />
    <glyph glyph-name="Ntilde" unicode="&#xd1;" horiz-adv-x="822" 
d="M649 943l24 -46c-21 -21 -79 -67 -127 -67c-39 0 -69 48 -112 48c-28 0 -70 -33 -91 -49l-25 41c24 23 88 68 130 68c45 0 76 -48 111 -48c33 0 75 38 90 53zM669 -26l-452 617l-93 -591h-72l123 776l452 -618l95 599h72z" />
    <glyph glyph-name="Oacute" unicode="&#xd3;" horiz-adv-x="873" 
d="M659 883l-259 -45l-15 47l252 64zM391 -14c-196 0 -330 145 -330 345c0 254 218 440 446 440c199 0 327 -142 327 -341c0 -263 -223 -444 -443 -444zM400 51c182 0 358 165 358 374c0 163 -106 280 -261 280c-182 0 -359 -162 -359 -367c0 -154 99 -287 262 -287z" />
    <glyph glyph-name="Ocircumflex" unicode="&#xd4;" horiz-adv-x="873" 
d="M697 850l-41 -35l-134 61l-161 -68l-23 37l195 102zM391 -14c-196 0 -330 145 -330 345c0 254 218 440 446 440c199 0 327 -142 327 -341c0 -263 -223 -444 -443 -444zM400 51c182 0 358 165 358 374c0 163 -106 280 -261 280c-182 0 -359 -162 -359 -367
c0 -154 99 -287 262 -287z" />
    <glyph glyph-name="Odieresis" unicode="&#xd6;" horiz-adv-x="873" 
d="M364 885c0 -29 -25 -53 -56 -53c-22 0 -39 18 -39 41c0 29 28 53 54 53c25 0 41 -18 41 -41zM767 885c0 -28 -24 -53 -56 -53c-24 0 -39 18 -39 40c0 29 24 54 54 54c26 0 41 -18 41 -41zM391 -14c-196 0 -330 145 -330 345c0 254 218 440 446 440
c199 0 327 -142 327 -341c0 -263 -223 -444 -443 -444zM400 51c182 0 358 165 358 374c0 163 -106 280 -261 280c-182 0 -359 -162 -359 -367c0 -154 99 -287 262 -287z" />
    <glyph glyph-name="Ograve" unicode="&#xd2;" horiz-adv-x="873" 
d="M606 838l-246 45l44 66l230 -64zM391 -14c-196 0 -330 145 -330 345c0 254 218 440 446 440c199 0 327 -142 327 -341c0 -263 -223 -444 -443 -444zM400 51c182 0 358 165 358 374c0 163 -106 280 -261 280c-182 0 -359 -162 -359 -367c0 -154 99 -287 262 -287z" />
    <glyph glyph-name="Otilde" unicode="&#xd5;" horiz-adv-x="873" 
d="M680 943l23 -46c-21 -21 -78 -67 -126 -67c-39 0 -70 48 -112 48c-29 0 -71 -33 -90 -49l-27 41c25 23 88 68 130 68c45 0 76 -48 111 -48c33 0 76 38 91 53zM391 -14c-196 0 -330 145 -330 345c0 254 218 440 446 440c199 0 327 -142 327 -341
c0 -263 -223 -444 -443 -444zM400 51c182 0 358 165 358 374c0 163 -106 280 -261 280c-182 0 -359 -162 -359 -367c0 -154 99 -287 262 -287z" />
    <glyph glyph-name="Scaron" unicode="&#x160;" 
d="M543 914l-193 -101l-160 101l35 33l138 -69l151 67zM1 86l50 52c21 -32 75 -86 166 -86c100 0 176 64 176 161c0 181 -275 147 -275 355c0 139 123 205 236 205c101 0 153 -52 170 -76l-47 -51c-26 32 -66 62 -126 62c-77 0 -156 -48 -156 -132c0 -157 276 -132 276 -349
c0 -140 -116 -241 -261 -241c-109 0 -185 57 -209 100z" />
    <glyph glyph-name="Uacute" unicode="&#xda;" horiz-adv-x="728" 
d="M597 883l-259 -45l-14 47l251 64zM528 109l103 648h72l-107 -673c-56 -57 -160 -98 -276 -98c-179 0 -260 97 -230 288l76 483h73l-72 -453c-29 -183 18 -253 170 -253c77 0 145 18 191 58z" />
    <glyph glyph-name="Ucircumflex" unicode="&#xdb;" horiz-adv-x="728" 
d="M608 850l-41 -35l-135 61l-162 -68l-22 37l195 102h1zM528 109l103 648h72l-107 -673c-56 -57 -160 -98 -276 -98c-179 0 -260 97 -230 288l76 483h73l-72 -453c-29 -183 18 -253 170 -253c77 0 145 18 191 58z" />
    <glyph glyph-name="Udieresis" unicode="&#xdc;" horiz-adv-x="728" 
d="M280 886c0 -28 -26 -52 -57 -52c-22 0 -39 18 -39 41c0 29 28 53 54 53c25 0 42 -18 42 -42zM746 887c0 -28 -23 -53 -56 -53c-23 0 -39 18 -39 40c0 29 25 54 54 54c27 0 41 -18 41 -41zM528 109l103 648h72l-107 -673c-56 -57 -160 -98 -276 -98
c-179 0 -260 97 -230 288l76 483h73l-72 -453c-29 -183 18 -253 170 -253c77 0 145 18 191 58z" />
    <glyph glyph-name="Ugrave" unicode="&#xd9;" horiz-adv-x="728" 
d="M540 838l-246 45l43 66l231 -64zM528 109l103 648h72l-107 -673c-56 -57 -160 -98 -276 -98c-179 0 -260 97 -230 288l76 483h73l-72 -453c-29 -183 18 -253 170 -253c77 0 145 18 191 58z" />
    <glyph glyph-name="Yacute" unicode="&#xdd;" horiz-adv-x="545" 
d="M496 888l-173 -146l-34 28l154 163zM257 0h-72l52 327l-172 430h80l135 -350c2 -5 3 -8 2 -16c2 8 5 11 9 16l252 350h78l-312 -430z" />
    <glyph glyph-name="Ydieresis" unicode="&#x178;" horiz-adv-x="545" 
d="M603 886c0 -29 -24 -53 -55 -53c-24 0 -38 18 -38 39c0 30 23 55 53 55c25 0 40 -18 40 -41zM220 886c0 -29 -27 -53 -55 -53c-23 0 -38 18 -38 40c0 29 25 54 53 54c23 0 40 -18 40 -41zM257 0h-72l52 327l-172 430h80l135 -350c2 -5 3 -8 2 -16c2 8 5 11 9 16l252 350
h78l-312 -430z" />
    <glyph glyph-name="Zcaron" unicode="&#x17d;" horiz-adv-x="577" 
d="M566 914l-193 -101l-160 101l34 33l138 -69l151 67zM497 1h-538l518 691h-336l11 64h459l-518 -691h414z" />
    <glyph glyph-name="aacute" unicode="&#xe1;" horiz-adv-x="497" 
d="M433 728l-172 -145l-34 27l153 163zM331 83l20 125c-21 26 -63 57 -124 57c-67 0 -148 -37 -148 -123c0 -65 47 -100 119 -100c50 0 101 17 133 41zM433 313l-41 -258c-50 -43 -129 -68 -206 -68c-128 0 -177 70 -177 148c0 128 130 183 217 183c46 0 105 -16 133 -54
l11 67c10 60 -16 106 -106 106c-62 0 -117 -22 -133 -29l-17 50c35 16 89 36 160 36c137 0 176 -74 159 -181z" />
    <glyph glyph-name="acircumflex" unicode="&#xe2;" horiz-adv-x="497" 
d="M453 610l-43 -36l-102 96l-131 -96l-32 36l175 134h1zM331 83l20 125c-21 26 -63 57 -124 57c-67 0 -148 -37 -148 -123c0 -65 47 -100 119 -100c50 0 101 17 133 41zM433 313l-41 -258c-50 -43 -129 -68 -206 -68c-128 0 -177 70 -177 148c0 128 130 183 217 183
c46 0 105 -16 133 -54l11 67c10 60 -16 106 -106 106c-62 0 -117 -22 -133 -29l-17 50c35 16 89 36 160 36c137 0 176 -74 159 -181z" />
    <glyph glyph-name="adieresis" unicode="&#xe4;" horiz-adv-x="497" 
d="M236 643c0 -28 -26 -51 -54 -51c-22 0 -40 17 -40 40c0 28 28 52 54 52c24 0 40 -18 40 -41zM452 644c0 -29 -23 -52 -55 -52c-24 0 -38 17 -38 39c0 28 23 53 52 53c26 0 41 -18 41 -40zM331 83l20 125c-21 26 -63 57 -124 57c-67 0 -148 -37 -148 -123
c0 -65 47 -100 119 -100c50 0 101 17 133 41zM433 313l-41 -258c-50 -43 -129 -68 -206 -68c-128 0 -177 70 -177 148c0 128 130 183 217 183c46 0 105 -16 133 -54l11 67c10 60 -16 106 -106 106c-62 0 -117 -22 -133 -29l-17 50c35 16 89 36 160 36
c137 0 176 -74 159 -181z" />
    <glyph glyph-name="agrave" unicode="&#xe0;" horiz-adv-x="497" 
d="M357 610l-44 -27l-126 145l67 45zM331 83l20 125c-21 26 -63 57 -124 57c-67 0 -148 -37 -148 -123c0 -65 47 -100 119 -100c50 0 101 17 133 41zM433 313l-41 -258c-50 -43 -129 -68 -206 -68c-128 0 -177 70 -177 148c0 128 130 183 217 183c46 0 105 -16 133 -54
l11 67c10 60 -16 106 -106 106c-62 0 -117 -22 -133 -29l-17 50c35 16 89 36 160 36c137 0 176 -74 159 -181z" />
    <glyph glyph-name="aring" unicode="&#xe5;" horiz-adv-x="497" 
d="M423 676c0 -66 -59 -122 -124 -122c-53 0 -90 41 -90 93c0 68 60 124 124 124c53 0 90 -43 90 -95zM307 598c36 0 71 36 71 74c0 31 -21 56 -51 56c-36 0 -71 -34 -71 -73c0 -31 21 -57 51 -57zM331 83l20 125c-21 26 -63 57 -124 57c-67 0 -148 -37 -148 -123
c0 -65 47 -100 119 -100c50 0 101 17 133 41zM433 313l-41 -258c-50 -43 -129 -68 -206 -68c-128 0 -177 70 -177 148c0 128 130 183 217 183c46 0 105 -16 133 -54l11 67c10 60 -16 106 -106 106c-62 0 -117 -22 -133 -29l-17 50c35 16 89 36 160 36
c137 0 176 -74 159 -181z" />
    <glyph glyph-name="atilde" unicode="&#xe3;" horiz-adv-x="497" 
d="M444 686l18 -37c-16 -17 -64 -64 -113 -64c-37 0 -65 45 -105 45c-30 0 -67 -31 -85 -46l-23 36c23 22 81 66 121 66c41 0 70 -46 103 -46c35 0 70 33 84 46zM331 83l20 125c-21 26 -63 57 -124 57c-67 0 -148 -37 -148 -123c0 -65 47 -100 119 -100c50 0 101 17 133 41z
M433 313l-41 -258c-50 -43 -129 -68 -206 -68c-128 0 -177 70 -177 148c0 128 130 183 217 183c46 0 105 -16 133 -54l11 67c10 60 -16 106 -106 106c-62 0 -117 -22 -133 -29l-17 50c35 16 89 36 160 36c137 0 176 -74 159 -181z" />
    <glyph glyph-name="ccedilla" unicode="&#xe7;" horiz-adv-x="501" 
d="M151 -223h-64l101 164h74zM408 107l25 -39c-45 -53 -122 -81 -193 -81c-127 0 -206 88 -206 220c0 173 134 287 281 287c96 0 144 -49 158 -65l-42 -44c-7 10 -49 51 -119 51c-96 0 -209 -79 -209 -224c0 -106 60 -167 155 -167c68 0 118 31 150 62z" />
    <glyph glyph-name="eacute" unicode="&#xe9;" horiz-adv-x="532" 
d="M463 728l-173 -145l-35 27l155 163zM413 107l24 -40c-34 -42 -114 -80 -200 -80c-129 0 -205 85 -205 214c0 163 121 293 275 293c150 0 194 -122 174 -240l-3 -18h-375c-20 -124 36 -192 149 -192c85 0 136 38 161 63zM114 289h304c6 76 -28 148 -118 148
c-75 0 -158 -51 -186 -148z" />
    <glyph glyph-name="ecircumflex" unicode="&#xea;" horiz-adv-x="532" 
d="M473 618l-43 -36l-101 96l-132 -96l-32 36l175 134h1zM413 107l24 -40c-34 -42 -114 -80 -200 -80c-129 0 -205 85 -205 214c0 163 121 293 275 293c150 0 194 -122 174 -240l-3 -18h-375c-20 -124 36 -192 149 -192c85 0 136 38 161 63zM114 289h304
c6 76 -28 148 -118 148c-75 0 -158 -51 -186 -148z" />
    <glyph glyph-name="edieresis" unicode="&#xeb;" horiz-adv-x="532" 
d="M261 641c0 -28 -26 -51 -54 -51c-23 0 -40 17 -40 39c0 29 27 53 54 53c23 0 40 -18 40 -41zM478 642c0 -29 -24 -52 -56 -52c-23 0 -39 17 -39 39c0 28 25 53 53 53c26 0 42 -18 42 -40zM413 107l24 -40c-34 -42 -114 -80 -200 -80c-129 0 -205 85 -205 214
c0 163 121 293 275 293c150 0 194 -122 174 -240l-3 -18h-375c-20 -124 36 -192 149 -192c85 0 136 38 161 63zM114 289h304c6 76 -28 148 -118 148c-75 0 -158 -51 -186 -148z" />
    <glyph glyph-name="egrave" unicode="&#xe8;" horiz-adv-x="532" 
d="M373 610l-44 -27l-126 145l67 45zM413 107l24 -40c-34 -42 -114 -80 -200 -80c-129 0 -205 85 -205 214c0 163 121 293 275 293c150 0 194 -122 174 -240l-3 -18h-375c-20 -124 36 -192 149 -192c85 0 136 38 161 63zM114 289h304c6 76 -28 148 -118 148
c-75 0 -158 -51 -186 -148z" />
    <glyph glyph-name="iacute" unicode="&#xed;" horiz-adv-x="226" 
d="M280 715l-155 -137l-34 27l136 155zM98 0h-66l76 481h66z" />
    <glyph glyph-name="icircumflex" unicode="&#xee;" horiz-adv-x="226" 
d="M98 0h-66l76 481h66zM320 618l-43 -36l-104 96l-135 -96l-32 36l178 134h1z" />
    <glyph glyph-name="idieresis" unicode="&#xef;" horiz-adv-x="226" 
d="M146 642c0 -28 -25 -51 -55 -51c-22 0 -39 17 -39 39c0 29 27 53 53 53c25 0 41 -18 41 -41zM280 643c0 -28 -22 -52 -54 -52c-23 0 -40 17 -40 39c0 29 26 53 54 53c26 0 40 -18 40 -40zM98 0h-66l76 481h66z" />
    <glyph glyph-name="igrave" unicode="&#xec;" horiz-adv-x="226" 
d="M220 604l-44 -26l-112 136l67 45zM98 0h-66l76 481h66z" />
    <glyph glyph-name="ntilde" unicode="&#xf1;" horiz-adv-x="535" 
d="M470 690l18 -37c-14 -17 -64 -64 -112 -64c-37 0 -65 45 -105 45c-30 0 -66 -31 -84 -46l-24 36c23 22 80 66 121 66s70 -46 104 -46c35 0 69 33 82 46zM414 0h-66l45 284c14 91 10 148 -87 148c-71 0 -116 -30 -154 -64l-58 -368h-66l76 481h66l-8 -51
c37 29 88 64 168 64c100 0 154 -55 134 -179z" />
    <glyph glyph-name="oacute" unicode="&#xf3;" horiz-adv-x="583" 
d="M460 728l-173 -145l-35 27l155 163zM245 -13c-127 0 -212 90 -212 223c0 171 140 284 285 284c134 0 211 -97 211 -222c0 -169 -139 -285 -284 -285zM255 45c108 0 203 95 203 222c0 99 -58 169 -150 169c-111 0 -207 -101 -207 -224c0 -99 63 -167 154 -167z" />
    <glyph glyph-name="ocircumflex" unicode="&#xf4;" horiz-adv-x="583" 
d="M505 608l-43 -36l-102 96l-131 -96l-32 36l175 134h1zM245 -13c-127 0 -212 90 -212 223c0 171 140 284 285 284c134 0 211 -97 211 -222c0 -169 -139 -285 -284 -285zM255 45c108 0 203 95 203 222c0 99 -58 169 -150 169c-111 0 -207 -101 -207 -224
c0 -99 63 -167 154 -167z" />
    <glyph glyph-name="odieresis" unicode="&#xf6;" horiz-adv-x="583" 
d="M283 643c0 -28 -25 -51 -55 -51c-22 0 -39 17 -39 40c0 28 28 52 54 52c24 0 40 -18 40 -41zM499 644c0 -28 -22 -52 -56 -52c-22 0 -37 17 -37 39c0 28 24 53 52 53c27 0 41 -18 41 -40zM245 -13c-127 0 -212 90 -212 223c0 171 140 284 285 284c134 0 211 -97 211 -222
c0 -169 -139 -285 -284 -285zM255 45c108 0 203 95 203 222c0 99 -58 169 -150 169c-111 0 -207 -101 -207 -224c0 -99 63 -167 154 -167z" />
    <glyph glyph-name="ograve" unicode="&#xf2;" horiz-adv-x="583" 
d="M419 610l-44 -27l-126 145l67 45zM245 -13c-127 0 -212 90 -212 223c0 171 140 284 285 284c134 0 211 -97 211 -222c0 -169 -139 -285 -284 -285zM255 45c108 0 203 95 203 222c0 99 -58 169 -150 169c-111 0 -207 -101 -207 -224c0 -99 63 -167 154 -167z" />
    <glyph glyph-name="otilde" unicode="&#xf5;" horiz-adv-x="583" 
d="M489 686l18 -37c-15 -17 -64 -64 -113 -64c-37 0 -65 45 -105 45c-30 0 -67 -31 -84 -46l-23 36c22 22 80 66 120 66c41 0 71 -46 104 -46c35 0 69 33 83 46zM245 -13c-127 0 -212 90 -212 223c0 171 140 284 285 284c134 0 211 -97 211 -222c0 -169 -139 -285 -284 -285
zM255 45c108 0 203 95 203 222c0 99 -58 169 -150 169c-111 0 -207 -101 -207 -224c0 -99 63 -167 154 -167z" />
    <glyph glyph-name="scaron" unicode="&#x161;" horiz-adv-x="398" 
d="M422 710l-174 -134l-132 134l42 37l101 -96l132 96zM-10 57l40 46c18 -26 54 -62 118 -62c74 0 111 48 111 96c0 107 -185 95 -185 223c0 79 70 135 161 135c70 0 114 -33 131 -56l-37 -48c-8 12 -41 50 -98 50c-63 0 -88 -45 -88 -76c0 -83 185 -75 185 -217
c0 -94 -80 -162 -186 -162c-83 0 -131 41 -152 71z" />
    <glyph glyph-name="uacute" unicode="&#xfa;" 
d="M449 728l-173 -145l-35 27l155 163zM359 83l63 398h66l-67 -427c-55 -46 -128 -67 -199 -67c-117 0 -191 57 -171 185l49 309h67l-47 -294c-16 -99 16 -142 108 -142c64 0 106 21 131 38z" />
    <glyph glyph-name="ucircumflex" unicode="&#xfb;" 
d="M474 610l-43 -36l-102 96l-131 -96l-32 36l175 134h1zM359 83l63 398h66l-67 -427c-55 -46 -128 -67 -199 -67c-117 0 -191 57 -171 185l49 309h67l-47 -294c-16 -99 16 -142 108 -142c64 0 106 21 131 38z" />
    <glyph glyph-name="udieresis" unicode="&#xfc;" 
d="M259 641c0 -28 -26 -51 -54 -51c-23 0 -41 17 -41 40c0 28 28 52 55 52c23 0 40 -18 40 -41zM474 642c0 -28 -22 -52 -55 -52c-23 0 -38 17 -38 39c0 28 25 53 52 53s41 -18 41 -40zM359 83l63 398h66l-67 -427c-55 -46 -128 -67 -199 -67c-117 0 -191 57 -171 185
l49 309h67l-47 -294c-16 -99 16 -142 108 -142c64 0 106 21 131 38z" />
    <glyph glyph-name="ugrave" unicode="&#xf9;" 
d="M380 610l-44 -27l-125 145l66 45zM359 83l63 398h66l-67 -427c-55 -46 -128 -67 -199 -67c-117 0 -191 57 -171 185l49 309h67l-47 -294c-16 -99 16 -142 108 -142c64 0 106 21 131 38z" />
    <glyph glyph-name="yacute" unicode="&#xfd;" horiz-adv-x="480" 
d="M436 728l-172 -145l-34 27l153 163zM30 -259h-76l202 312l-120 428h74l95 -360l219 360h77z" />
    <glyph glyph-name="ydieresis" unicode="&#xff;" horiz-adv-x="480" 
d="M226 641c0 -28 -26 -51 -55 -51c-21 0 -39 17 -39 40c0 28 28 52 54 52c24 0 40 -18 40 -41zM442 642c0 -29 -23 -52 -56 -52c-23 0 -37 17 -37 39c0 28 23 53 52 53c26 0 41 -18 41 -40zM30 -259h-76l202 312l-120 428h74l95 -360l219 360h77z" />
    <glyph glyph-name="zcaron" unicode="&#x17e;" horiz-adv-x="445" 
d="M451 712l-174 -134l-132 134l42 37l101 -96l132 96zM357 1h-390l351 422h-238l9 57h353l-347 -422h271z" />
    <glyph glyph-name="ff" unicode="&#xfb00;" horiz-adv-x="619" 
d="M124 0h-66l67 423h-77l9 57h77l15 94c9 57 24 112 60 152c38 42 85 52 119 52c53 0 84 -20 91 -26l-37 -56c-11 7 -31 21 -62 21c-59 0 -91 -54 -103 -128l-17 -109h111l-9 -57h-111zM433 0h-66l67 423h-73l9 57h74l22 142c9 57 23 112 59 152c38 42 85 52 120 52
c53 0 84 -20 90 -26l-36 -56c-11 7 -32 21 -63 21c-60 0 -90 -54 -102 -128l-25 -157h114l-9 -57h-114z" />
    <glyph glyph-name="ffi" unicode="&#xfb03;" horiz-adv-x="842" 
d="M716 0h-66l76 481h66zM774 571c-25 0 -42 19 -42 44c0 31 28 58 59 58c24 0 41 -20 41 -44c0 -32 -28 -58 -58 -58zM124 0h-66l67 423h-77l9 57h77l15 94c9 57 24 112 60 152c38 42 85 52 119 52c53 0 84 -20 91 -26l-37 -56c-11 7 -31 21 -62 21
c-59 0 -91 -54 -103 -128l-17 -109h111l-9 -57h-111zM433 0h-66l67 423h-73l9 57h74l22 142c9 57 23 112 59 152c38 42 85 52 120 52c53 0 84 -20 90 -26l-36 -56c-11 7 -32 21 -63 21c-60 0 -90 -54 -102 -128l-25 -157h114l-9 -57h-114z" />
    <glyph glyph-name="ffl" unicode="&#xfb04;" horiz-adv-x="849" 
d="M718 0h-66l130 820h66zM124 0h-66l67 423h-77l9 57h77l14 90c9 57 24 112 60 152c38 42 86 52 120 52c53 0 83 -20 90 -26l-36 -56c-11 7 -32 21 -63 21c-59 0 -90 -54 -102 -128l-17 -105h111l-9 -57h-111zM433 0h-66l67 423h-73l9 57h73l20 127c9 57 23 112 59 152
c38 42 85 52 120 52c53 0 84 -20 90 -26l-36 -56c-10 7 -31 21 -62 21c-60 0 -90 -54 -102 -128l-22 -142h110l-9 -57h-111z" />
    <glyph glyph-name="o.sc" horiz-adv-x="660" 
d="M602 300c0 -180 -156 -311 -320 -311c-146 0 -238 104 -238 241c0 174 150 309 320 309c146 0 238 -100 238 -239zM292 51c127 0 237 109 237 243c0 106 -68 183 -176 183c-127 0 -237 -108 -237 -241c0 -100 63 -185 176 -185z" />
    <glyph glyph-name="n.sc" horiz-adv-x="647" 
d="M507 -19l-340 407l-59 -388h-69l87 543l340 -408l60 393h69z" />
    <glyph glyph-name="h.sc" horiz-adv-x="593" 
d="M456 0h-69l38 238h-278l-38 -238h-69l84 528h69l-36 -227h278l36 227h69z" />
    <glyph glyph-name="f_t.sc" horiz-adv-x="865" 
d="M109 0h-69l83 527h288l-9 -62l-219 1l-25 -159l177 1l-10 -63h-177zM626 0h-69l74 466l-164 -1l10 62h395l-10 -62l-162 1z" />
    <glyph glyph-name="f_j.sc" horiz-adv-x="662" 
d="M109 0h-69l83 527h288l-9 -62l-219 1l-25 -159l177 1l-10 -63h-177zM342 -182l-16 59c94 32 120 61 139 184l74 467h70l-75 -471c-24 -149 -66 -192 -192 -239z" />
    <glyph glyph-name="f.sc" horiz-adv-x="415" 
d="M109 0h-69l83 527h288l-9 -62l-219 1l-25 -159l177 1l-10 -63h-177z" />
    <glyph glyph-name="f.semp2" horiz-adv-x="297" 
d="M94 0h-66l97 614c9 57 24 112 60 152c38 42 86 52 120 52c53 0 83 -20 90 -26l-36 -56c-11 7 -32 21 -63 21c-59 0 -90 -54 -102 -128l-24 -150h133l-9 -57h-133z" />
    <glyph glyph-name="f_t.semp" horiz-adv-x="590" 
d="M55 -245h-66l136 859c9 57 24 112 60 152c38 42 85 52 119 52c53 0 84 -20 91 -26l-37 -56c-11 7 -31 21 -62 21c-59 0 -91 -54 -103 -128l-24 -150h134l-9 -57h-133zM391 0h-66l104 659h66l-28 -179h134l-9 -57h-134z" />
    <glyph glyph-name="f_j.semp" horiz-adv-x="523" 
d="M58 -230h-66l134 844c9 57 24 112 60 152c38 42 85 52 119 52c53 0 84 -20 91 -26l-37 -56c-11 7 -32 21 -63 21c-59 0 -90 -54 -102 -128l-24 -150h133l-9 -57h-133zM355 -251l-69 -15l119 747h66zM454 577c-26 0 -44 18 -44 44c0 33 28 58 58 58c27 0 44 -20 44 -44
c0 -32 -27 -58 -58 -58z" />
    <glyph glyph-name="five.osf" horiz-adv-x="500" 
d="M-44 -166l38 56c10 -22 74 -71 151 -71c92 0 182 71 182 180c0 106 -84 185 -233 216l134 284h240l-26 -63l-181 2l-85 -181c124 -29 217 -115 217 -247c0 -152 -124 -252 -258 -252c-99 0 -167 55 -179 76z" />
    <glyph glyph-name="seven.osf" horiz-adv-x="511" 
d="M31 -209h-77l465 652l-342 -1l10 63h447z" />
    <glyph glyph-name="zero.osf" horiz-adv-x="633" 
d="M264 -18c-126 0 -215 101 -215 230c0 165 144 304 300 304c127 0 217 -102 217 -231c0 -165 -146 -303 -302 -303zM276 47c117 0 224 104 224 229c0 96 -66 173 -161 173c-116 0 -222 -105 -222 -229c0 -98 65 -173 159 -173z" />
    <glyph glyph-name="three.osf" horiz-adv-x="526" 
d="M-47 -172l39 54c11 -20 60 -71 152 -71c127 0 198 96 198 185c0 85 -65 172 -180 177l6 37c133 9 206 91 206 160c0 47 -34 90 -107 90c-44 0 -92 -16 -127 -41l-16 51c21 18 91 54 165 54c102 0 156 -68 156 -143c0 -63 -39 -141 -141 -185v-2c75 -35 108 -116 108 -191
c0 -136 -109 -253 -274 -253c-118 0 -170 59 -185 78z" />
    <glyph glyph-name="two.osf" horiz-adv-x="533" 
d="M429 0h-443l-7 28c20 10 125 52 216 102c104 58 191 127 191 221c0 64 -41 111 -106 111c-64 0 -129 -45 -156 -74l-29 44c27 26 107 91 202 91c98 0 160 -68 160 -164c0 -95 -61 -165 -152 -223c-44 -28 -104 -60 -150 -78l283 3z" />
    <glyph glyph-name="one.osf" horiz-adv-x="414" 
d="M331 0h-319l10 56l135 1l60 372l-114 -43l-11 54l207 76l-75 -458l116 1z" />
    <glyph glyph-name="Abreve" unicode="&#x102;" horiz-adv-x="668" 
d="M624 0h-78l-53 202h-346l-117 -202h-80l463 780zM475 267l-79 312c-3 11 -9 35 -10 45c-4 -15 -14 -33 -21 -45l-179 -312h289zM542 976h67c-16 -72 -82 -165 -197 -165c-81 0 -144 57 -133 165h70c-3 -17 -10 -108 71 -108c98 0 120 100 122 108z" />
    <glyph glyph-name="Aogonek.semp" horiz-adv-x="669" 
d="M626 -153l-9 -58c-22 -10 -52 -15 -80 -15c-53 0 -106 22 -106 79c0 52 37 103 116 147l-40 156h-386l-90 -156h-81l462 778l215 -784c-69 -30 -129 -64 -129 -120c0 -29 24 -45 57 -45c22 0 45 8 71 18zM491 221l-103 399l-229 -399h332z" />
    <glyph glyph-name="Aogonek" unicode="&#x104;" horiz-adv-x="668" 
d="M625 -153l-9 -58c-22 -10 -52 -15 -80 -15c-53 0 -106 22 -106 79c0 52 37 103 116 147l-53 202h-345l-118 -202h-80l463 780l213 -786c-69 -30 -129 -64 -129 -120c0 -29 24 -45 57 -45c22 0 45 8 71 18zM475 267l-79 312c-3 13 -9 33 -10 45c-3 -12 -12 -31 -21 -45
l-178 -312h288z" />
    <glyph glyph-name="Atilde.semp" horiz-adv-x="669" 
d="M578 943l24 -46c-21 -21 -79 -67 -127 -67c-39 0 -69 48 -112 48c-28 0 -70 -33 -90 -49l-25 41c24 23 88 68 129 68c45 0 76 -48 111 -48c34 0 77 38 90 53zM625 0h-78l-40 156h-386l-90 -156h-81l462 778zM491 221l-103 399l-229 -399h332z" />
    <glyph glyph-name="Aring.semp" horiz-adv-x="669" 
d="M541 925c0 -66 -60 -122 -125 -122c-53 0 -89 41 -89 93c0 68 60 124 124 124c53 0 90 -43 90 -95zM424 847c36 0 71 36 71 74c0 31 -20 56 -50 56c-36 0 -71 -34 -71 -73c0 -31 20 -57 50 -57zM625 0h-78l-40 156h-386l-90 -156h-81l462 778zM491 221l-103 399
l-229 -399h332z" />
    <glyph glyph-name="Agrave.semp" horiz-adv-x="669" 
d="M513 838l-245 45l44 66l230 -64zM625 0h-78l-40 156h-386l-90 -156h-81l462 778zM491 221l-103 399l-229 -399h332z" />
    <glyph glyph-name="Adieresis.semp" horiz-adv-x="669" 
d="M342 900c0 -28 -27 -53 -58 -53c-24 0 -42 19 -42 42c0 29 29 53 57 53c25 0 43 -18 43 -42zM593 901c0 -29 -25 -54 -58 -54c-25 0 -41 19 -41 41c0 29 25 54 56 54c27 0 43 -18 43 -41zM625 0h-78l-40 156h-386l-90 -156h-81l462 778zM491 221l-103 399l-229 -399h332z
" />
    <glyph glyph-name="Acircumflex.semp" horiz-adv-x="669" 
d="M592 850l-41 -35l-136 61l-161 -68l-22 37l195 102zM625 0h-78l-40 156h-386l-90 -156h-81l462 778zM491 221l-103 399l-229 -399h332z" />
    <glyph glyph-name="Aacute.semp" horiz-adv-x="669" 
d="M553 883l-260 -45l-13 47l250 64zM625 0h-78l-40 156h-386l-90 -156h-81l462 778zM491 221l-103 399l-229 -399h332z" />
    <glyph glyph-name="J.semp2" horiz-adv-x="437" 
d="M255 216l86 541h72l-88 -554c-25 -155 -120 -216 -224 -216c-39 0 -77 11 -116 35l38 61c21 -15 51 -31 91 -31c74 0 125 61 141 164z" />
    <glyph glyph-name="J.semp" horiz-adv-x="455" 
d="M273 216l75 476h-167l10 64h240l-88 -553c-26 -161 -120 -216 -223 -216c-42 0 -94 18 -134 43l38 60c25 -16 68 -38 107 -38c74 0 125 59 142 164z" />
    <glyph glyph-name="J.alt" horiz-adv-x="274" 
d="M-106 -278l-17 65c128 47 158 101 185 270l111 700h71l-112 -709c-34 -214 -95 -266 -238 -326z" />
    <glyph glyph-name="A.semp" horiz-adv-x="669" 
d="M625 0h-78l-40 156h-386l-90 -156h-81l462 778zM491 221l-103 399l-229 -399h332z" />
    <glyph glyph-name="g.sc" horiz-adv-x="634" 
d="M502 206l-142 -1l10 62h215c-35 -207 -172 -278 -293 -278c-145 0 -248 102 -248 244c0 174 155 306 331 306c127 0 187 -69 190 -72l-44 -51c-4 5 -51 61 -154 61c-149 0 -248 -116 -248 -238c0 -113 84 -189 183 -189c90 0 179 63 200 156z" />
    <glyph glyph-name="a.sc" horiz-adv-x="537" 
d="M482 0h-73l-40 126h-252l-78 -126h-77l346 546zM349 189l-65 208l-128 -208h193z" />
    <glyph glyph-name="fl.sc" horiz-adv-x="824" 
d="M109 0h-69l83 527h288l-9 -62l-219 1l-25 -159l177 1l-10 -63h-177zM752 1h-297l83 527h69l-73 -465l228 1z" />
    <glyph glyph-name="ampersand.sc" horiz-adv-x="569" 
d="M524 0h-86l-61 85c-15 -26 -85 -95 -179 -95c-95 0 -170 70 -170 169c0 115 101 185 157 196c-18 24 -26 49 -26 73c0 57 48 109 121 109c60 0 92 -36 99 -47l-46 -37c-7 11 -28 32 -57 32c-32 0 -53 -25 -53 -55c0 -25 15 -50 27 -67l192 1l-23 -51l-132 1zM348 127
l-131 184c-27 -3 -121 -50 -121 -146c0 -74 56 -120 117 -120c71 0 125 63 135 82z" />
    <glyph glyph-name="j.sc" horiz-adv-x="247" 
d="M-73 -182l-16 59c94 32 120 61 139 184l74 467h70l-75 -471c-24 -149 -66 -192 -192 -239z" />
    <glyph glyph-name="c.sc" horiz-adv-x="575" 
d="M466 102l24 -47c-49 -38 -114 -66 -193 -66c-154 0 -253 105 -253 244c0 170 150 306 329 306c100 0 155 -42 181 -71l-46 -48c-29 34 -78 57 -142 57c-138 0 -248 -107 -248 -239c0 -110 77 -187 191 -187c67 0 126 26 157 51z" />
    <glyph glyph-name="r.sc" horiz-adv-x="490" 
d="M444 0h-90l-211 212l-34 -212h-69l84 528h114c107 0 183 -34 183 -137c0 -94 -64 -177 -185 -187zM150 259h39c107 0 159 55 159 123c0 58 -37 83 -102 83h-63z" />
    <glyph glyph-name="m.sc" horiz-adv-x="733" 
d="M623 0h-69l18 324c1 5 2 19 4 26c-4 -6 -10 -18 -15 -24l-247 -346l-137 346c-3 8 -6 16 -8 24c1 -7 0 -17 -3 -26l-84 -324h-70l150 542l169 -409c2 -6 4 -14 4 -20c1 6 4 14 9 20l301 409z" />
    <glyph glyph-name="i.sc" horiz-adv-x="246" 
d="M109 0h-69l84 528h69z" />
    <glyph glyph-name="l.sc" horiz-adv-x="409" 
d="M337 1h-297l83 527h69l-73 -465l228 1z" />
    <glyph glyph-name="d.sc" horiz-adv-x="576" 
d="M176 0h-136l84 528h127c156 0 265 -78 265 -224c0 -197 -140 -304 -340 -304zM119 63h60c154 0 263 76 263 233c0 107 -79 169 -188 169h-71z" />
    <glyph glyph-name="s.sc" horiz-adv-x="443" 
d="M1 66l46 47c18 -27 61 -63 126 -63s121 37 121 98c0 117 -208 99 -208 248c0 98 90 144 180 144c75 0 118 -32 137 -56l-41 -48c-22 24 -55 45 -99 45c-54 0 -103 -30 -103 -81c0 -104 208 -85 208 -245c0 -105 -90 -166 -198 -166c-93 0 -149 45 -169 77z" />
    <glyph glyph-name="e.sc" horiz-adv-x="450" 
d="M357 1h-317l83 526h295l-10 -63l-226 1l-24 -153h181l-10 -63l-181 1l-29 -187l248 1z" />
    <glyph glyph-name="t.sc" horiz-adv-x="450" 
d="M211 0h-69l74 466l-164 -1l10 62h395l-10 -62l-162 1z" />
    <glyph glyph-name="u.sc" horiz-adv-x="582" 
d="M394 87l70 441h69l-75 -468c-43 -40 -116 -71 -218 -71c-131 0 -195 68 -174 203l53 336h69l-47 -298c-22 -141 11 -179 121 -179c45 0 98 10 132 36z" />
    <glyph glyph-name="q.sc" horiz-adv-x="659" 
d="M561 -25l-55 -50l-89 99c-44 -23 -91 -35 -140 -35c-139 0 -233 106 -233 238c0 178 148 312 322 312c142 0 236 -100 236 -237c0 -79 -35 -179 -131 -245zM529 294c0 107 -69 183 -173 183c-132 0 -240 -108 -240 -241c0 -100 66 -185 170 -185c136 0 243 109 243 243z
" />
    <glyph glyph-name="emacron" unicode="&#x113;" horiz-adv-x="532" 
d="M489 591h-347l9 58h347zM413 107l24 -40c-34 -42 -114 -80 -200 -80c-129 0 -205 85 -205 214c0 163 121 293 275 293c150 0 194 -122 174 -240l-3 -18h-375c-20 -124 36 -192 149 -192c85 0 136 38 161 63zM114 289h304c6 76 -28 148 -118 148c-75 0 -158 -51 -186 -148
z" />
    <glyph glyph-name="edotaccent" unicode="&#x117;" horiz-adv-x="532" 
d="M369 637c0 -29 -25 -53 -55 -53c-23 0 -39 18 -39 40c0 29 26 55 54 55c24 0 40 -19 40 -42zM413 107l24 -40c-34 -42 -114 -80 -200 -80c-129 0 -205 85 -205 214c0 163 121 293 275 293c150 0 194 -122 174 -240l-3 -18h-375c-20 -124 36 -192 149 -192
c85 0 136 38 161 63zM114 289h304c6 76 -28 148 -118 148c-75 0 -158 -51 -186 -148z" />
    <glyph glyph-name="ecaron" unicode="&#x11b;" horiz-adv-x="532" 
d="M488 712l-174 -134l-133 134l43 37l101 -96l132 96zM413 107l24 -40c-34 -42 -114 -80 -200 -80c-129 0 -205 85 -205 214c0 163 121 293 275 293c150 0 194 -122 174 -240l-3 -18h-375c-20 -124 36 -192 149 -192c85 0 136 38 161 63zM114 289h304
c6 76 -28 148 -118 148c-75 0 -158 -51 -186 -148z" />
    <glyph glyph-name="uni1E0B" unicode="&#x1e0b;" horiz-adv-x="564" 
d="M351 637c0 -29 -25 -53 -55 -53c-23 0 -40 18 -40 40c0 29 27 55 55 55c24 0 40 -19 40 -42zM390 85l44 282c-18 41 -70 69 -131 69c-116 0 -200 -102 -200 -228c0 -113 68 -164 154 -164c37 0 87 10 133 41zM446 442l60 378h66l-122 -768c-64 -44 -136 -65 -202 -65
c-114 0 -215 62 -215 215c0 169 124 292 276 292c63 0 108 -21 137 -52z" />
    <glyph glyph-name="dcroat" unicode="&#x111;" horiz-adv-x="564" 
d="M446 442l32 201h-165l17 57h157l19 120h66l-19 -120h70l-18 -57h-61l-94 -591c-64 -44 -136 -65 -202 -65c-114 0 -215 62 -215 215c0 169 124 292 276 292c63 0 108 -21 137 -52zM390 85l44 282c-18 41 -70 69 -131 69c-116 0 -200 -102 -200 -228
c0 -113 68 -164 154 -164c37 0 87 10 133 41z" />
    <glyph glyph-name="dcaron" unicode="&#x10f;" horiz-adv-x="589" 
d="M650 570h-53l98 197h72zM390 85l44 282c-18 41 -70 69 -131 69c-116 0 -200 -102 -200 -228c0 -113 68 -164 154 -164c37 0 87 10 133 41zM446 442l60 378h66l-122 -768c-64 -44 -136 -65 -202 -65c-114 0 -215 62 -215 215c0 169 124 292 276 292c63 0 108 -21 137 -52z
" />
    <glyph glyph-name="cdotaccent" unicode="&#x10b;" horiz-adv-x="501" 
d="M363 637c0 -29 -25 -53 -55 -53c-23 0 -39 18 -39 40c0 29 26 55 54 55c24 0 40 -19 40 -42zM408 107l25 -39c-45 -53 -122 -81 -193 -81c-127 0 -206 88 -206 220c0 173 134 287 281 287c96 0 144 -49 158 -65l-42 -44c-7 10 -49 51 -119 51c-96 0 -209 -79 -209 -224
c0 -106 60 -167 155 -167c68 0 118 31 150 62z" />
    <glyph glyph-name="ccircumflex" unicode="&#x109;" horiz-adv-x="501" 
d="M485 618l-43 -36l-102 96l-131 -96l-32 36l175 134h1zM408 107l25 -39c-45 -53 -122 -81 -193 -81c-127 0 -206 88 -206 220c0 173 134 287 281 287c96 0 144 -49 158 -65l-42 -44c-7 10 -49 51 -119 51c-96 0 -209 -79 -209 -224c0 -106 60 -167 155 -167
c68 0 118 31 150 62z" />
    <glyph glyph-name="ccaron" unicode="&#x10d;" horiz-adv-x="501" 
d="M408 107l25 -39c-45 -53 -122 -81 -193 -81c-127 0 -206 88 -206 220c0 173 134 287 281 287c96 0 144 -49 158 -65l-42 -44c-7 10 -49 51 -119 51c-96 0 -209 -79 -209 -224c0 -106 60 -167 155 -167c68 0 118 31 150 62zM490 712l-174 -134l-132 134l42 37l101 -96
l132 96z" />
    <glyph glyph-name="cacute" unicode="&#x107;" horiz-adv-x="501" 
d="M466 728l-172 -145l-35 27l154 163zM408 107l25 -39c-45 -53 -122 -81 -193 -81c-127 0 -206 88 -206 220c0 173 134 287 281 287c96 0 144 -49 158 -65l-42 -44c-7 10 -49 51 -119 51c-96 0 -209 -79 -209 -224c0 -106 60 -167 155 -167c68 0 118 31 150 62z" />
    <glyph glyph-name="eogonek" unicode="&#x119;" horiz-adv-x="531" 
d="M361 -147l-9 -58c-22 -10 -52 -15 -79 -15c-54 0 -107 21 -107 80c0 43 28 88 86 128c-8 0 -9 -1 -22 -1c-118 0 -198 85 -198 215c0 160 120 292 276 292c147 0 193 -118 173 -240l-3 -18h-375c-20 -124 36 -192 149 -192c85 0 136 38 161 63l24 -40
c-42 -55 -203 -92 -203 -183c0 -35 23 -49 55 -49c24 0 46 8 72 18zM114 289h304c6 76 -28 148 -118 148c-75 0 -158 -51 -186 -148z" />
    <glyph glyph-name="uni1E1F" unicode="&#x1e1f;" horiz-adv-x="309" 
d="M373 931c0 -29 -24 -53 -55 -53c-22 0 -39 18 -39 41c0 29 28 54 54 54c25 0 40 -19 40 -42zM124 0h-66l67 423h-77l9 57h77l21 134c10 66 26 113 60 152c37 42 85 52 123 52c48 0 80 -20 87 -26l-36 -56c-8 5 -33 21 -60 21c-64 0 -94 -62 -106 -136l-23 -141h115
l-9 -57h-115z" />
    <glyph glyph-name="uni1E1F.semp2" horiz-adv-x="297" 
d="M343 931c0 -28 -24 -53 -54 -53c-24 0 -40 18 -40 41c0 29 28 54 55 54c23 0 39 -19 39 -42zM94 0h-66l97 614c9 57 24 112 60 152c38 42 86 52 120 52c53 0 83 -20 90 -26l-36 -56c-11 7 -32 21 -63 21c-59 0 -90 -54 -102 -128l-24 -150h133l-9 -57h-133z" />
    <glyph glyph-name="uni1E1F.semp" horiz-adv-x="297" 
d="M343 931c0 -28 -24 -53 -54 -53c-24 0 -40 18 -40 41c0 29 28 54 55 54c23 0 39 -19 39 -42zM55 -245h-66l136 859c9 57 24 112 60 152c38 42 85 52 119 52c53 0 84 -20 91 -26l-37 -56c-11 7 -31 21 -62 21c-59 0 -91 -54 -103 -128l-24 -150h134l-9 -57h-133z" />
    <glyph glyph-name="gcircumflex" unicode="&#x11d;" horiz-adv-x="563" 
d="M486 618l-42 -36l-102 96l-131 -96l-32 36l175 134h1zM370 -32l15 97c-44 -47 -109 -78 -170 -78c-94 0 -181 75 -181 219c0 190 151 288 298 288c90 0 151 -37 177 -61l-73 -460c-32 -202 -149 -236 -249 -236c-76 0 -136 20 -181 56l37 51c36 -30 94 -49 151 -49
c65 0 153 25 176 173zM396 134l42 266c-14 10 -55 36 -116 36c-107 0 -217 -78 -217 -223c0 -95 48 -167 132 -167c64 0 126 41 159 88z" />
    <glyph glyph-name="gbreve" unicode="&#x11f;" horiz-adv-x="563" 
d="M448 729h67c-15 -72 -81 -165 -196 -165c-81 0 -144 57 -135 165h71c-2 -17 -9 -108 72 -108c98 0 120 100 121 108zM370 -32l15 97c-44 -47 -109 -78 -170 -78c-94 0 -181 75 -181 219c0 190 151 288 298 288c90 0 151 -37 177 -61l-73 -460
c-32 -202 -149 -236 -249 -236c-76 0 -136 20 -181 56l37 51c36 -30 94 -49 151 -49c65 0 153 25 176 173zM396 134l42 266c-14 10 -55 36 -116 36c-107 0 -217 -78 -217 -223c0 -95 48 -167 132 -167c64 0 126 41 159 88z" />
    <glyph glyph-name="gcommaaccent" unicode="&#x123;" horiz-adv-x="563" 
d="M356 599h-73l117 197h53zM370 -32l15 97c-44 -47 -109 -78 -170 -78c-94 0 -181 75 -181 219c0 190 151 288 298 288c90 0 151 -37 177 -61l-73 -460c-32 -202 -149 -236 -249 -236c-76 0 -136 20 -181 56l37 51c36 -30 94 -49 151 -49c65 0 153 25 176 173zM396 134
l42 266c-14 10 -55 36 -116 36c-107 0 -217 -78 -217 -223c0 -95 48 -167 132 -167c64 0 126 41 159 88z" />
    <glyph glyph-name="gdotaccent" unicode="&#x121;" horiz-adv-x="563" 
d="M376 637c0 -29 -24 -53 -55 -53c-22 0 -39 18 -39 41c0 29 28 54 54 54c25 0 40 -19 40 -42zM370 -32l15 97c-44 -47 -109 -78 -170 -78c-94 0 -181 75 -181 219c0 190 151 288 298 288c90 0 151 -37 177 -61l-73 -460c-32 -202 -149 -236 -249 -236
c-76 0 -136 20 -181 56l37 51c36 -30 94 -49 151 -49c65 0 153 25 176 173zM396 134l42 266c-14 10 -55 36 -116 36c-107 0 -217 -78 -217 -223c0 -95 48 -167 132 -167c64 0 126 41 159 88z" />
    <glyph glyph-name="hcircumflex" unicode="&#x125;" horiz-adv-x="535" 
d="M357 903l-43 -36l-101 96l-132 -96l-32 36l175 134h1zM414 0h-66l45 284c14 91 10 148 -87 148c-71 0 -116 -30 -154 -64l-58 -368h-66l130 820h66l-62 -390c37 29 88 64 168 64c100 0 154 -55 134 -179z" />
    <glyph glyph-name="hbar" unicode="&#x127;" 
d="M413 0h-66l45 284c16 99 4 148 -86 148c-74 0 -121 -33 -154 -64l-58 -368h-66l102 643h-68l17 57h60l19 120h66l-19 -120h166l-17 -57h-158l-34 -213c30 24 83 64 168 64c100 0 153 -55 133 -179z" />
    <glyph glyph-name="uni1E03" unicode="&#x1e03;" horiz-adv-x="566" 
d="M410 637c0 -29 -24 -53 -55 -53c-22 0 -39 18 -39 41c0 29 28 54 54 54c25 0 40 -19 40 -42zM34 52l122 768h66l-63 -393c28 23 93 67 175 67c119 0 178 -91 178 -212c0 -196 -154 -295 -298 -295c-64 0 -130 20 -180 65zM149 360l-44 -276c20 -19 68 -40 122 -40
c111 0 214 88 214 232c0 101 -50 160 -127 160c-64 0 -132 -40 -165 -76z" />
    <glyph glyph-name="amacron.alt" horiz-adv-x="557" 
d="M509 591h-347l10 58h347zM435 -2h-65l10 68c-34 -41 -100 -78 -170 -78c-111 0 -177 90 -177 216c0 194 155 290 295 290c61 0 121 -18 175 -61zM391 134l42 266c-21 17 -66 35 -116 35c-123 0 -215 -106 -215 -230c0 -104 64 -159 132 -159c65 0 132 51 157 88z" />
    <glyph glyph-name="amacron" unicode="&#x101;" horiz-adv-x="497" 
d="M471 591h-358l9 58h358zM331 83l20 125c-21 26 -63 57 -124 57c-67 0 -148 -37 -148 -123c0 -65 47 -100 119 -100c50 0 101 17 133 41zM433 313l-41 -258c-50 -43 -129 -68 -206 -68c-128 0 -177 70 -177 148c0 128 130 183 217 183c46 0 105 -16 133 -54l11 67
c10 60 -16 106 -106 106c-62 0 -117 -22 -133 -29l-17 50c35 16 89 36 160 36c137 0 176 -74 159 -181z" />
    <glyph glyph-name="abreve.alt" horiz-adv-x="557" 
d="M446 729h67c-14 -72 -80 -165 -196 -165c-80 0 -143 57 -134 165h70c-2 -17 -9 -108 72 -108c99 0 120 100 121 108zM435 -2h-65l10 68c-34 -41 -100 -78 -170 -78c-111 0 -177 90 -177 216c0 194 155 290 295 290c61 0 121 -18 175 -61zM391 134l42 266
c-21 17 -66 35 -116 35c-123 0 -215 -106 -215 -230c0 -104 64 -159 132 -159c65 0 132 51 157 88z" />
    <glyph glyph-name="abreve" unicode="&#x103;" horiz-adv-x="497" 
d="M414 729h67c-15 -72 -81 -165 -196 -165c-81 0 -144 57 -135 165h71c-2 -17 -9 -108 72 -108c98 0 120 100 121 108zM331 83l20 125c-21 26 -63 57 -124 57c-67 0 -148 -37 -148 -123c0 -65 47 -100 119 -100c50 0 101 17 133 41zM433 313l-41 -258
c-50 -43 -129 -68 -206 -68c-128 0 -177 70 -177 148c0 128 130 183 217 183c46 0 105 -16 133 -54l11 67c10 60 -16 106 -106 106c-62 0 -117 -22 -133 -29l-17 50c35 16 89 36 160 36c137 0 176 -74 159 -181z" />
    <glyph glyph-name="aogonek.alt" horiz-adv-x="557" 
d="M447 -153l-10 -58c-21 -10 -51 -15 -78 -15c-54 0 -108 21 -108 80c0 53 43 105 119 147l10 65c-34 -41 -100 -78 -170 -78c-111 0 -177 90 -177 216c0 194 155 290 295 290c61 0 121 -18 175 -61l-69 -438c-41 -21 -115 -57 -115 -117c0 -35 25 -49 56 -49
c24 0 46 8 72 18zM391 134l42 266c-21 17 -66 35 -116 35c-123 0 -215 -106 -215 -230c0 -104 64 -159 132 -159c65 0 132 51 157 88z" />
    <glyph glyph-name="agrave.alt" horiz-adv-x="557" 
d="M392 610l-44 -27l-126 145l67 45zM435 -2h-65l10 68c-34 -41 -100 -78 -170 -78c-111 0 -177 90 -177 216c0 194 155 290 295 290c61 0 121 -18 175 -61zM391 134l42 266c-21 17 -66 35 -116 35c-123 0 -215 -106 -215 -230c0 -104 64 -159 132 -159c65 0 132 51 157 88z
" />
    <glyph glyph-name="aring.alt" horiz-adv-x="557" 
d="M452 704c0 -66 -60 -122 -125 -122c-53 0 -89 41 -89 93c0 68 59 124 123 124c53 0 91 -43 91 -95zM335 626c36 0 71 36 71 74c0 31 -21 56 -50 56c-37 0 -71 -34 -71 -73c0 -31 20 -57 50 -57zM435 -2h-65l10 68c-34 -41 -100 -78 -170 -78c-111 0 -177 90 -177 216
c0 194 155 290 295 290c61 0 121 -18 175 -61zM391 134l42 266c-21 17 -66 35 -116 35c-123 0 -215 -106 -215 -230c0 -104 64 -159 132 -159c65 0 132 51 157 88z" />
    <glyph glyph-name="atilde.alt" horiz-adv-x="557" 
d="M489 686l18 -37c-16 -17 -64 -64 -113 -64c-37 0 -65 45 -105 45c-30 0 -67 -31 -85 -46l-23 36c23 22 81 66 121 66c41 0 70 -46 103 -46c35 0 69 33 84 46zM435 -2h-65l10 68c-34 -41 -100 -78 -170 -78c-111 0 -177 90 -177 216c0 194 155 290 295 290
c61 0 121 -18 175 -61zM391 134l42 266c-21 17 -66 35 -116 35c-123 0 -215 -106 -215 -230c0 -104 64 -159 132 -159c65 0 132 51 157 88z" />
    <glyph glyph-name="aogonek" unicode="&#x105;" horiz-adv-x="497" 
d="M337 -141l-10 -58c-22 -10 -51 -15 -79 -15c-54 0 -108 22 -108 79c0 43 27 85 79 124c-13 -1 -25 -2 -39 -2c-119 0 -171 70 -171 149c0 127 130 182 217 182c46 0 105 -16 133 -54l11 67c10 60 -16 106 -107 106c-61 0 -116 -22 -132 -29l-17 50c35 16 90 36 159 36
c139 0 177 -74 160 -181l-41 -258c-39 -37 -117 -63 -161 -116c-11 -13 -19 -29 -23 -46c-7 -34 19 -52 58 -52c22 0 44 8 71 18zM331 83l20 125c-21 26 -62 57 -126 57c-63 0 -146 -37 -146 -122c0 -66 49 -101 114 -101c59 0 105 17 138 41z" />
    <glyph glyph-name="adieresis.alt" horiz-adv-x="557" 
d="M271 641c0 -28 -27 -51 -55 -51c-23 0 -40 17 -40 40c0 28 28 52 55 52c23 0 40 -18 40 -41zM486 642c0 -28 -22 -52 -56 -52c-22 0 -37 17 -37 39c0 28 24 53 52 53c27 0 41 -18 41 -40zM435 -2h-65l10 68c-34 -41 -100 -78 -170 -78c-111 0 -177 90 -177 216
c0 194 155 290 295 290c61 0 121 -18 175 -61zM391 134l42 266c-21 17 -66 35 -116 35c-123 0 -215 -106 -215 -230c0 -104 64 -159 132 -159c65 0 132 51 157 88z" />
    <glyph glyph-name="acircumflex.alt" horiz-adv-x="557" 
d="M486 618l-42 -36l-102 96l-131 -96l-32 36l175 134h1zM435 -2h-65l10 68c-34 -41 -100 -78 -170 -78c-111 0 -177 90 -177 216c0 194 155 290 295 290c61 0 121 -18 175 -61zM391 134l42 266c-21 17 -66 35 -116 35c-123 0 -215 -106 -215 -230c0 -104 64 -159 132 -159
c65 0 132 51 157 88z" />
    <glyph glyph-name="Abreve.semp" horiz-adv-x="669" 
d="M542 976h68c-16 -72 -82 -165 -197 -165c-81 0 -144 57 -134 165h70c-3 -17 -9 -108 72 -108c98 0 119 100 121 108zM625 0h-78l-40 156h-386l-90 -156h-81l462 778zM491 221l-103 399l-229 -399h332z" />
    <glyph glyph-name="Dcaron" unicode="&#x10e;" horiz-adv-x="718" 
d="M588 938l-193 -101l-160 101l35 33l138 -69l150 67zM222 0h-169l120 757h168c191 0 335 -105 335 -328c0 -251 -181 -429 -454 -429zM135 65h86c212 0 379 128 379 356c0 191 -117 271 -272 271h-93z" />
    <glyph glyph-name="Amacron" unicode="&#x100;" horiz-adv-x="668" 
d="M624 0h-78l-53 202h-346l-117 -202h-80l463 780zM475 267l-79 312c-3 11 -9 35 -10 45c-4 -15 -14 -33 -21 -45l-179 -312h289zM603 867h-358l10 58h358z" />
    <glyph glyph-name="Dcroat" unicode="&#x110;" horiz-adv-x="719" 
d="M223 0h-169l55 348h-74l9 58h74l56 351h168c191 0 335 -105 335 -328c0 -251 -181 -429 -454 -429zM136 65h86c212 0 379 128 379 356c0 191 -117 271 -272 271h-93l-46 -286h193l-9 -58h-193z" />
    <glyph glyph-name="uni1E0A" unicode="&#x1e0a;" horiz-adv-x="718" 
d="M448 890c0 -29 -26 -53 -55 -53c-23 0 -40 18 -40 40c0 29 27 55 55 55c24 0 40 -19 40 -42zM222 0h-169l120 757h168c191 0 335 -105 335 -328c0 -251 -181 -429 -454 -429zM135 65h86c212 0 379 128 379 356c0 191 -117 271 -272 271h-93z" />
    <glyph glyph-name="Ecaron" unicode="&#x11a;" horiz-adv-x="544" 
d="M460 1h-407l120 755h376l-11 -64h-304l-40 -254h245l-10 -65h-245l-49 -308h335zM574 920l-196 -101l-163 101l33 33l143 -69l154 67z" />
    <glyph glyph-name="Edotaccent" unicode="&#x116;" horiz-adv-x="544" 
d="M435 873c0 -29 -26 -53 -55 -53c-23 0 -40 18 -40 40c0 29 27 55 55 55c24 0 40 -19 40 -42zM460 1h-407l120 755h376l-11 -64h-304l-40 -254h245l-10 -65h-245l-49 -308h335z" />
    <glyph glyph-name="Emacron" unicode="&#x112;" horiz-adv-x="544" 
d="M460 1h-407l120 755h376l-11 -64h-304l-40 -254h245l-10 -65h-245l-49 -308h335zM550 867h-347l9 58h347z" />
    <glyph glyph-name="Eogonek" unicode="&#x118;" horiz-adv-x="545" 
d="M384 -141l-10 -58c-22 -10 -51 -15 -79 -15c-54 0 -108 22 -108 79c0 48 32 94 95 136h-229l120 755h376l-11 -64h-304l-40 -254h245l-10 -65h-245l-49 -308h335l-10 -64h-113c-47 -29 -91 -67 -91 -115c0 -29 23 -45 57 -45c22 0 44 8 71 18z" />
    <glyph glyph-name="uni1E1E" unicode="&#x1e1e;" horiz-adv-x="503" 
d="M125 0h-72l120 756h370l-10 -64h-298l-41 -256h240l-10 -64h-240zM425 890c0 -29 -24 -53 -55 -53c-22 0 -40 18 -40 41c0 29 29 54 55 54c25 0 40 -19 40 -42z" />
    <glyph glyph-name="Gcircumflex" unicode="&#x11c;" horiz-adv-x="809" 
d="M685 874l-39 -35l-135 67l-161 -68l-22 37l194 102h1zM693 296h-196l10 65h272c-44 -278 -235 -375 -394 -375c-191 0 -323 140 -323 345c0 260 214 440 445 440c170 0 247 -97 254 -106l-48 -53c-7 9 -75 93 -218 93c-205 0 -357 -174 -357 -370
c0 -160 102 -284 256 -284c132 0 261 90 299 245z" />
    <glyph glyph-name="Gbreve" unicode="&#x11e;" horiz-adv-x="809" 
d="M619 998h67c-16 -72 -81 -165 -196 -165c-81 0 -144 57 -135 165h71c-3 -17 -9 -108 72 -108c98 0 119 100 121 108zM693 296h-196l10 65h272c-44 -278 -235 -375 -394 -375c-191 0 -323 140 -323 345c0 260 214 440 445 440c170 0 247 -97 254 -106l-48 -53
c-7 9 -75 93 -218 93c-205 0 -357 -174 -357 -370c0 -160 102 -284 256 -284c132 0 261 90 299 245z" />
    <glyph glyph-name="Gcommaaccent" unicode="&#x122;" horiz-adv-x="809" 
d="M310 -243h-73l114 190h79zM693 296h-196l10 65h272c-44 -278 -235 -375 -394 -375c-191 0 -323 140 -323 345c0 260 214 440 445 440c170 0 247 -97 254 -106l-48 -53c-7 9 -75 93 -218 93c-205 0 -357 -174 -357 -370c0 -160 102 -284 256 -284c132 0 261 90 299 245z
" />
    <glyph glyph-name="Gdotaccent" unicode="&#x120;" horiz-adv-x="809" 
d="M551 913c0 -29 -24 -53 -55 -53c-22 0 -39 18 -39 41c0 29 28 54 54 54c25 0 40 -19 40 -42zM693 296h-196l10 65h272c-44 -278 -235 -375 -394 -375c-191 0 -323 140 -323 345c0 260 214 440 445 440c170 0 247 -97 254 -106l-48 -53c-7 9 -75 93 -218 93
c-205 0 -357 -174 -357 -370c0 -160 102 -284 256 -284c132 0 261 90 299 245z" />
    <glyph glyph-name="Amacron.semp" horiz-adv-x="669" 
d="M604 867h-358l10 58h358zM625 0h-78l-40 156h-386l-90 -156h-81l462 778zM491 221l-103 399l-229 -399h332z" />
    <glyph glyph-name="Hcircumflex" unicode="&#x124;" horiz-adv-x="738" 
d="M588 0h-72l56 353h-391l-56 -353h-72l120 757h72l-54 -339h391l54 339h72zM634 850l-40 -35l-134 67l-161 -68l-23 37l195 102h1z" />
    <glyph glyph-name="uni1E02" unicode="&#x1e02;" horiz-adv-x="606" 
d="M407 891c0 -27 -25 -54 -55 -54c-23 0 -40 18 -40 40c0 29 27 55 55 55c24 0 40 -18 40 -41zM240 0h-187l120 757h145c116 0 211 -34 211 -151c0 -108 -80 -177 -145 -201c62 -10 149 -57 149 -177c0 -126 -97 -228 -293 -228zM192 421h58c120 0 203 69 203 167
c0 79 -54 104 -133 104h-85zM135 65h122c133 0 199 74 199 160c0 81 -58 131 -148 131h-127z" />
    <glyph glyph-name="Cacute" unicode="&#x106;" horiz-adv-x="722" 
d="M638 882l-255 -45l-11 47l252 64zM619 129l26 -48c-75 -62 -163 -95 -257 -95c-198 0 -326 146 -326 344c0 249 204 441 443 441c118 0 190 -47 232 -98l-48 -52c-38 50 -106 84 -194 84c-193 0 -357 -163 -357 -371c0 -170 110 -283 265 -283c86 0 169 35 216 78z" />
    <glyph glyph-name="Hbar" unicode="&#x126;" horiz-adv-x="738" 
d="M589 0h-72l56 353h-391l-56 -353h-72l90 571h-69l10 58h69l20 128h72l-20 -128h391l20 128h72l-20 -128h68l-10 -58h-68zM583 418l24 153h-391l-24 -153h391z" />
    <glyph glyph-name="Idotaccent" unicode="&#x130;" horiz-adv-x="275" 
d="M125 0h-72l120 757h72zM274 878c0 -29 -24 -53 -55 -53c-22 0 -40 18 -40 41c0 29 29 54 55 54c25 0 40 -19 40 -42z" />
    <glyph glyph-name="Imacron" unicode="&#x12a;" horiz-adv-x="275" 
d="M125 0h-72l120 757h72zM400 867h-347l10 58h347z" />
    <glyph glyph-name="Iogonek" unicode="&#x12e;" horiz-adv-x="274" 
d="M127 -153l-9 -58c-22 -10 -50 -15 -79 -15c-53 0 -107 22 -107 79c0 53 41 104 121 148l119 756h72l-120 -760c-64 -29 -124 -68 -124 -123c0 -29 24 -45 57 -45c21 0 45 8 70 18z" />
    <glyph glyph-name="Ibreve" unicode="&#x12c;" horiz-adv-x="275" 
d="M125 0h-72l120 757h72zM343 985h68c-15 -72 -81 -165 -196 -165c-81 0 -144 57 -135 165h70c-3 -17 -8 -108 73 -108c98 0 119 100 120 108z" />
    <glyph glyph-name="Itilde" unicode="&#x128;" horiz-adv-x="275" 
d="M125 0h-72l120 757h72zM381 945l23 -46c-22 -21 -78 -67 -126 -67c-39 0 -70 48 -113 48c-28 0 -70 -33 -90 -49l-26 41c24 23 88 68 130 68c45 0 76 -48 111 -48c33 0 75 38 91 53z" />
    <glyph glyph-name="Jcircumflex" unicode="&#x134;" horiz-adv-x="274" 
d="M-108 -263l-17 64c124 48 161 91 190 276l108 680h71l-108 -685c-34 -214 -88 -271 -244 -335zM401 847l-40 -35l-134 67l-161 -68l-22 37l194 102h1z" />
    <glyph glyph-name="Jcircumflex.alt" horiz-adv-x="274" 
d="M-105 -278l-17 65c128 47 157 101 184 270l111 700h71l-112 -709c-34 -214 -95 -266 -237 -326zM402 847l-41 -35l-134 67l-160 -68l-23 37l194 102h1z" />
    <glyph glyph-name="Jcircumflex.semp" horiz-adv-x="454" 
d="M272 216l75 476h-167l10 64h240l-88 -553c-26 -165 -120 -216 -223 -216c-42 0 -94 18 -134 43l38 60c25 -16 68 -38 107 -38c74 0 125 59 142 164zM509 844l-41 -35l-133 67l-161 -68l-23 37l195 102h1z" />
    <glyph glyph-name="Jcircumflex.semp2" horiz-adv-x="437" 
d="M255 216l86 541h72l-88 -554c-25 -157 -120 -216 -224 -216c-39 0 -77 11 -116 35l38 61c21 -15 51 -31 91 -31c74 0 125 61 141 164zM566 844l-40 -35l-135 67l-160 -68l-23 37l195 102h1z" />
    <glyph glyph-name="Kcommaaccent" unicode="&#x136;" horiz-adv-x="623" 
d="M217 -233h-73l114 190h79zM593 0h-103l-310 350l-55 -350h-72l120 757h72l-53 -336l370 336h96l-414 -376z" />
    <glyph glyph-name="Ccaron" unicode="&#x10c;" horiz-adv-x="722" 
d="M691 929l-193 -101l-160 101l34 33l138 -69l150 67zM619 129l26 -48c-75 -62 -163 -95 -257 -95c-198 0 -326 146 -326 344c0 249 204 441 443 441c118 0 190 -47 232 -98l-48 -52c-38 50 -106 84 -194 84c-193 0 -357 -163 -357 -371c0 -170 110 -283 265 -283
c86 0 169 35 216 78z" />
    <glyph glyph-name="Lacute" unicode="&#x139;" horiz-adv-x="496" 
d="M431 1h-378l120 756h72l-110 -692h306zM387 881l-255 -45l-10 47l251 64z" />
    <glyph glyph-name="Lcaron" unicode="&#x13d;" horiz-adv-x="498" 
d="M431 1h-378l120 756h72l-110 -692h306zM435 615h-53l96 197h73z" />
    <glyph glyph-name="Ccircumflex" unicode="&#x108;" horiz-adv-x="722" 
d="M680 873l-40 -35l-134 67l-161 -68l-23 37l195 102h1zM619 129l26 -48c-75 -62 -163 -95 -257 -95c-198 0 -326 146 -326 344c0 249 204 441 443 441c118 0 190 -47 232 -98l-48 -52c-38 50 -106 84 -194 84c-193 0 -357 -163 -357 -371c0 -170 110 -283 265 -283
c86 0 169 35 216 78z" />
    <glyph glyph-name="Lcommaaccent" unicode="&#x13b;" horiz-adv-x="497" 
d="M431 1h-378l120 756h72l-110 -692h306zM167 -233h-72l114 190h78z" />
    <glyph glyph-name="Ldot" unicode="&#x13f;" horiz-adv-x="522" 
d="M431 1h-378l120 756h72l-110 -692h306zM491 391c0 -30 -28 -59 -61 -59c-26 0 -44 21 -44 45c0 32 29 59 61 59c26 0 44 -20 44 -45z" />
    <glyph glyph-name="uni1E40" unicode="&#x1e40;" horiz-adv-x="933" 
d="M578 762c0 -29 -25 -53 -55 -53c-22 0 -40 18 -40 41c0 29 28 54 55 54c24 0 40 -19 40 -42zM818 0h-76l36 516c0 5 3 28 4 32c-3 -4 -13 -23 -16 -27l-352 -549l-183 549c-3 8 -6 18 -8 27c0 -9 -3 -23 -6 -32l-125 -516h-75l203 778l210 -609c2 -6 9 -27 8 -37
c4 10 15 31 19 37l404 609z" />
    <glyph glyph-name="Nacute" unicode="&#x143;" horiz-adv-x="822" 
d="M652 865l-256 -45l-11 47l251 64zM669 -26l-452 617l-93 -591h-72l123 776l452 -618l95 599h72z" />
    <glyph glyph-name="Ncaron" unicode="&#x147;" horiz-adv-x="822" 
d="M695 901l-193 -101l-160 101l34 33l139 -69l150 67zM669 -26l-452 617l-93 -591h-72l123 776l452 -618l95 599h72z" />
    <glyph glyph-name="Ncommaaccent" unicode="&#x145;" horiz-adv-x="822" 
d="M295 -233h-72l114 190h78zM669 -26l-452 617l-93 -591h-72l123 776l452 -618l95 599h72z" />
    <glyph glyph-name="Ohungarumlaut" unicode="&#x150;" horiz-adv-x="873" 
d="M584 935l-196 -115l-23 31l178 133zM767 935l-196 -115l-23 31l178 133zM391 -14c-196 0 -330 145 -330 345c0 254 218 440 446 440c199 0 327 -142 327 -341c0 -263 -223 -444 -443 -444zM400 51c182 0 358 165 358 374c0 163 -106 280 -261 280
c-182 0 -359 -162 -359 -367c0 -154 99 -287 262 -287z" />
    <glyph glyph-name="Omacron" unicode="&#x14c;" horiz-adv-x="873" 
d="M700 867h-347l9 58h347zM391 -14c-196 0 -330 145 -330 345c0 254 218 440 446 440c199 0 327 -142 327 -341c0 -263 -223 -444 -443 -444zM400 51c182 0 358 165 358 374c0 163 -106 280 -261 280c-182 0 -359 -162 -359 -367c0 -154 99 -287 262 -287z" />
    <glyph glyph-name="Obreve" unicode="&#x14e;" horiz-adv-x="873" 
d="M641 980h67c-15 -72 -81 -165 -196 -165c-81 0 -144 57 -135 165h71c-2 -17 -9 -108 72 -108c98 0 120 100 121 108zM391 -14c-196 0 -330 145 -330 345c0 254 218 440 446 440c199 0 327 -142 327 -341c0 -263 -223 -444 -443 -444zM400 51c182 0 358 165 358 374
c0 163 -106 280 -261 280c-182 0 -359 -162 -359 -367c0 -154 99 -287 262 -287z" />
    <glyph glyph-name="Oslashacute" unicode="&#x1fe;" horiz-adv-x="873" 
d="M648 883l-260 -45l-14 47l252 64zM201 -147l-56 19l83 153c-103 56 -167 168 -167 306c0 254 218 440 446 440c42 0 81 -7 117 -19l72 133l56 -24l-73 -134c97 -56 155 -164 155 -297c0 -263 -223 -444 -443 -444c-39 0 -75 6 -109 16zM263 89l326 600
c-28 10 -59 16 -92 16c-182 0 -359 -162 -359 -367c0 -104 45 -199 125 -249zM643 662l-327 -598c26 -9 54 -13 84 -13c182 0 358 165 358 374c0 104 -43 189 -115 237z" />
    <glyph glyph-name="uni1E56" unicode="&#x1e56;" horiz-adv-x="550" 
d="M417 890c0 -29 -26 -53 -55 -53c-23 0 -40 18 -40 40c0 29 27 55 55 55c24 0 40 -19 40 -42zM125 0h-72l120 757h145c116 0 231 -43 231 -194c0 -136 -94 -265 -305 -265h-72zM182 363h61c140 0 228 80 228 192c0 96 -64 137 -145 137h-91z" />
    <glyph glyph-name="Racute" unicode="&#x154;" horiz-adv-x="583" 
d="M508 882l-255 -45l-11 47l251 64zM553 0h-97l-236 300h-47l-48 -300h-72l120 757h141c108 0 235 -35 235 -192c0 -137 -96 -243 -246 -262zM182 363h56c163 0 234 94 234 195c0 94 -61 134 -157 134h-80z" />
    <glyph glyph-name="Cdotaccent" unicode="&#x10a;" horiz-adv-x="722" 
d="M551 890c0 -29 -24 -53 -55 -53c-22 0 -39 18 -39 41c0 29 28 54 54 54c25 0 40 -19 40 -42zM619 129l26 -48c-75 -62 -163 -95 -257 -95c-198 0 -326 146 -326 344c0 249 204 441 443 441c118 0 190 -47 232 -98l-48 -52c-38 50 -106 84 -194 84
c-193 0 -357 -163 -357 -371c0 -170 110 -283 265 -283c86 0 169 35 216 78z" />
    <glyph glyph-name="Rcaron" unicode="&#x158;" horiz-adv-x="583" 
d="M550 938l-193 -101l-160 101l35 33l138 -69l150 67zM553 0h-97l-236 300h-47l-48 -300h-72l120 757h141c108 0 235 -35 235 -192c0 -137 -96 -243 -246 -262zM182 363h56c163 0 234 94 234 195c0 94 -61 134 -157 134h-80z" />
    <glyph glyph-name="Rcommaaccent" unicode="&#x156;" horiz-adv-x="584" 
d="M194 -233h-73l115 190h78zM553 0h-97l-236 300h-47l-48 -300h-72l120 757h141c108 0 235 -35 235 -192c0 -137 -96 -243 -246 -262zM182 363h56c163 0 234 94 234 195c0 94 -61 134 -157 134h-80z" />
    <glyph glyph-name="uni1E60" unicode="&#x1e60;" 
d="M421 890c0 -29 -24 -53 -55 -53c-22 0 -39 18 -39 41c0 29 28 54 54 54c25 0 40 -19 40 -42zM1 86l50 52c21 -32 75 -86 166 -86c100 0 176 64 176 161c0 181 -275 147 -275 355c0 139 123 205 236 205c101 0 153 -52 170 -76l-47 -51c-26 32 -66 62 -126 62
c-77 0 -156 -48 -156 -132c0 -157 276 -132 276 -349c0 -140 -116 -241 -261 -241c-109 0 -185 57 -209 100z" />
    <glyph glyph-name="Sacute" unicode="&#x15a;" 
d="M502 882l-255 -45l-11 47l252 64zM1 86l50 52c21 -32 75 -86 166 -86c100 0 176 64 176 161c0 181 -275 147 -275 355c0 139 123 205 236 205c101 0 153 -52 170 -76l-47 -51c-26 32 -66 62 -126 62c-77 0 -156 -48 -156 -132c0 -157 276 -132 276 -349
c0 -140 -116 -241 -261 -241c-109 0 -185 57 -209 100z" />
    <glyph glyph-name="Scedilla" unicode="&#x15e;" 
d="M166 -213h-64l101 164h75zM1 86l50 52c21 -32 75 -86 166 -86c100 0 176 64 176 161c0 181 -275 147 -275 355c0 139 123 205 236 205c101 0 153 -52 170 -76l-47 -51c-26 32 -66 62 -126 62c-77 0 -156 -48 -156 -132c0 -157 276 -132 276 -349
c0 -140 -116 -241 -261 -241c-109 0 -185 57 -209 100z" />
    <glyph glyph-name="Tcaron" unicode="&#x164;" horiz-adv-x="530" 
d="M251 0h-72l110 692h-209l10 64h490l-10 -64h-209zM540 921l-194 -101l-160 101l35 33l139 -69l150 67z" />
    <glyph glyph-name="Tcommaaccent" unicode="&#x162;" horiz-adv-x="530" 
d="M251 0h-72l110 692h-209l10 64h490l-10 -64h-209zM153 -233h-73l116 190h78z" />
    <glyph glyph-name="uni1E6A" unicode="&#x1e6a;" horiz-adv-x="530" 
d="M251 0h-72l110 692h-209l10 64h490l-10 -64h-209zM403 890c0 -29 -24 -53 -55 -53c-22 0 -39 18 -39 41c0 29 28 54 54 54c25 0 40 -19 40 -42z" />
    <glyph glyph-name="Tbar" unicode="&#x166;" horiz-adv-x="531" 
d="M252 0h-72l71 444h-140l9 58h140l30 190h-209l10 64h490l-10 -64h-209l-30 -190h142l-9 -58h-142z" />
    <glyph glyph-name="Uogonek" unicode="&#x172;" horiz-adv-x="728" 
d="M419 -158l-9 -58c-22 -10 -51 -15 -80 -15c-53 0 -106 22 -106 79c0 48 34 96 103 138h-15c-168 0 -253 96 -223 288l76 483h73l-72 -453c-29 -186 15 -253 178 -253c61 0 137 17 183 58l103 648h72l-107 -673c-41 -41 -106 -76 -192 -90c-51 -30 -111 -71 -111 -125
c0 -29 23 -45 57 -45c21 0 44 8 70 18z" />
    <glyph glyph-name="Uhungarumlaut" unicode="&#x170;" horiz-adv-x="728" 
d="M527 932l-197 -115l-23 31l178 133zM707 932l-197 -115l-23 31l178 133zM528 109l103 648h72l-107 -673c-56 -57 -160 -98 -276 -98c-179 0 -260 97 -230 288l76 483h73l-72 -453c-29 -183 18 -253 170 -253c77 0 145 18 191 58z" />
    <glyph glyph-name="Umacron" unicode="&#x16a;" horiz-adv-x="728" 
d="M626 867h-347l10 58h347zM528 109l103 648h72l-107 -673c-56 -57 -160 -98 -276 -98c-179 0 -260 97 -230 288l76 483h73l-72 -453c-29 -183 18 -253 170 -253c77 0 145 18 191 58z" />
    <glyph glyph-name="Uring" unicode="&#x16e;" horiz-adv-x="728" 
d="M565 923c0 -66 -59 -122 -123 -122c-54 0 -90 41 -90 93c0 68 59 124 124 124c52 0 89 -43 89 -95zM450 845c35 0 71 36 71 74c0 31 -22 56 -51 56c-36 0 -71 -34 -71 -73c0 -31 21 -57 51 -57zM528 109l103 648h72l-107 -673c-56 -57 -160 -98 -276 -98
c-179 0 -260 97 -230 288l76 483h73l-72 -453c-29 -183 18 -253 170 -253c77 0 145 18 191 58z" />
    <glyph glyph-name="Utilde" unicode="&#x168;" horiz-adv-x="728" 
d="M610 944l23 -46c-21 -21 -78 -67 -126 -67c-39 0 -70 48 -113 48c-28 0 -70 -33 -91 -49l-25 41c24 23 88 68 130 68c45 0 76 -48 111 -48c33 0 75 38 91 53zM528 109l103 648h72l-107 -673c-56 -57 -160 -98 -276 -98c-179 0 -260 97 -230 288l76 483h73l-72 -453
c-29 -183 18 -253 170 -253c77 0 145 18 191 58z" />
    <glyph glyph-name="Ubreve" unicode="&#x16c;" horiz-adv-x="728" 
d="M568 985h67c-14 -72 -80 -165 -196 -165c-80 0 -143 57 -134 165h70c-3 -17 -9 -108 72 -108c99 0 120 100 121 108zM528 109l103 648h72l-107 -673c-56 -57 -160 -98 -276 -98c-179 0 -260 97 -230 288l76 483h73l-72 -453c-29 -183 18 -253 170 -253
c77 0 145 18 191 58z" />
    <glyph glyph-name="Wcircumflex" unicode="&#x174;" horiz-adv-x="975" 
d="M751 849l-41 -35l-134 67l-160 -68l-23 37l194 102h1zM662 -31l-130 568c-4 18 -5 26 -4 44c-4 -18 -8 -26 -17 -44l-305 -567l-128 787h79l84 -563c1 -11 0 -25 -1 -36c3 11 7 25 12 36l307 587l126 -586c2 -12 -1 -28 -1 -40c3 12 8 29 13 40l258 562h79z" />
    <glyph glyph-name="Wgrave" unicode="&#x1e80;" horiz-adv-x="975" 
d="M667 837l-240 45l34 66l231 -64zM662 -31l-130 568c-4 18 -5 26 -4 44c-4 -18 -8 -26 -17 -44l-305 -567l-128 787h79l84 -563c1 -11 0 -25 -1 -36c3 11 7 25 12 36l307 587l126 -586c2 -12 -1 -28 -1 -40c3 12 8 29 13 40l258 562h79z" />
    <glyph glyph-name="Wacute" unicode="&#x1e82;" horiz-adv-x="975" 
d="M721 882l-255 -45l-11 47l251 64zM662 -31l-130 568c-4 18 -5 26 -4 44c-4 -18 -8 -26 -17 -44l-305 -567l-128 787h79l84 -563c1 -11 0 -25 -1 -36c3 11 7 25 12 36l307 587l126 -586c2 -12 -1 -28 -1 -40c3 12 8 29 13 40l258 562h79z" />
    <glyph glyph-name="Wdieresis" unicode="&#x1e84;" horiz-adv-x="975" 
d="M804 764c0 -28 -23 -52 -56 -52c-23 0 -38 17 -38 39c0 28 25 53 52 53s42 -18 42 -40zM405 763c0 -28 -27 -51 -55 -51c-23 0 -40 17 -40 39c0 29 27 53 54 53c24 0 41 -18 41 -41zM662 -31l-130 568c-4 18 -5 26 -4 44c-4 -18 -8 -26 -17 -44l-305 -567l-128 787h79
l84 -563c1 -11 0 -25 -1 -36c3 11 7 25 12 36l307 587l126 -586c2 -12 -1 -28 -1 -40c3 12 8 29 13 40l258 562h79z" />
    <glyph glyph-name="Ygrave" unicode="&#x1ef2;" horiz-adv-x="545" 
d="M408 770l-43 -27l-126 145l67 45zM257 0h-72l52 327l-172 430h80l135 -350c2 -5 3 -8 2 -16c2 8 5 11 9 16l252 350h78l-312 -430z" />
    <glyph glyph-name="Ygrave.alt" horiz-adv-x="545" 
d="M466 838l-241 45l35 66l231 -64zM257 0h-72l52 327l-172 430h80l135 -350c2 -5 3 -8 2 -16c2 8 5 11 9 16l252 350h78l-312 -430z" />
    <glyph glyph-name="Ycircumflex" unicode="&#x176;" horiz-adv-x="545" 
d="M539 855l-40 -35l-134 67l-161 -68l-22 37l194 102h1zM257 0h-72l52 327l-172 430h80l135 -350c2 -5 3 -8 2 -16c2 8 5 11 9 16l252 350h78l-312 -430z" />
    <glyph glyph-name="Yacute.alt" horiz-adv-x="545" 
d="M501 883l-255 -45l-11 47l250 64zM257 0h-72l52 327l-172 430h80l135 -350c2 -5 3 -8 2 -16c2 8 5 11 9 16l252 350h78l-312 -430z" />
    <glyph glyph-name="Zacute" unicode="&#x179;" horiz-adv-x="577" 
d="M543 882l-257 -45l-10 47l251 64zM497 1h-538l518 691h-336l11 64h459l-518 -691h414z" />
    <glyph glyph-name="Zdotaccent" unicode="&#x17b;" horiz-adv-x="577" 
d="M440 890c0 -29 -24 -53 -55 -53c-22 0 -39 18 -39 41c0 29 28 54 54 54c25 0 40 -19 40 -42zM497 1h-538l518 691h-336l11 64h459l-518 -691h414z" />
    <glyph glyph-name="AEacute" unicode="&#x1fc;" horiz-adv-x="884" 
d="M867 881l-256 -45l-10 47l251 64zM799 1h-406l35 217h-239l-160 -218h-84l558 756h386l-10 -64h-304l-41 -254h245l-10 -65h-245l-49 -308h334zM438 281l57 363l-258 -363h201z" />
    <glyph glyph-name="IJ" unicode="&#x132;" horiz-adv-x="549" 
d="M125 0h-72l120 757h72zM167 -263l-17 64c124 48 161 91 190 276l108 680h71l-108 -685c-34 -214 -88 -271 -244 -335z" />
    <glyph glyph-name="IJ.alt" horiz-adv-x="549" 
d="M125 0h-72l120 757h72zM169 -278l-17 65c128 47 158 101 185 270l111 700h71l-112 -709c-34 -214 -95 -266 -238 -326z" />
    <glyph glyph-name="IJ.semp" horiz-adv-x="730" 
d="M125 0h-72l120 757h72zM548 216l75 476h-167l10 64h240l-88 -553c-26 -161 -120 -216 -223 -216c-42 0 -94 18 -134 43l38 60c25 -16 68 -38 107 -38c74 0 125 59 142 164z" />
    <glyph glyph-name="IJ.semp2" horiz-adv-x="712" 
d="M125 0h-72l120 757h72zM530 216l86 541h72l-88 -554c-25 -155 -120 -216 -224 -216c-39 0 -77 11 -116 35l38 61c21 -15 51 -31 91 -31c74 0 125 61 141 164z" />
    <glyph glyph-name="Eng" unicode="&#x14a;" horiz-adv-x="823" 
d="M441 -263l-17 64c119 46 158 84 187 252l-395 538l-92 -591h-72l123 776l452 -618l95 599h71l-108 -685c-34 -214 -88 -271 -244 -335z" />
    <glyph glyph-name="a.alt" horiz-adv-x="557" 
d="M435 -2h-65l10 68c-34 -41 -100 -78 -170 -78c-111 0 -177 90 -177 216c0 194 155 290 295 290c61 0 121 -18 175 -61zM391 134l42 266c-21 17 -66 35 -116 35c-123 0 -215 -106 -215 -230c0 -104 64 -159 132 -159c65 0 132 51 157 88z" />
    <glyph glyph-name="f.alt" horiz-adv-x="309" 
d="M85 -245h-66l106 668h-77l9 57h77l21 134c10 66 26 113 60 152c37 42 85 52 123 52c48 0 80 -20 87 -26l-36 -56c-8 5 -33 21 -60 21c-64 0 -94 -62 -106 -136l-23 -141h115l-9 -57h-115z" />
    <glyph glyph-name="f.semp" horiz-adv-x="297" 
d="M55 -245h-66l136 859c9 57 24 112 60 152c38 42 85 52 119 52c53 0 84 -20 91 -26l-37 -56c-11 7 -31 21 -62 21c-59 0 -91 -54 -103 -128l-24 -150h134l-9 -57h-133z" />
    <glyph glyph-name="j.semp" horiz-adv-x="226" 
d="M58 -251l-68 -15l118 747h66zM158 577c-26 0 -43 18 -43 43c0 34 26 59 58 59c26 0 42 -19 42 -44c0 -32 -25 -58 -57 -58z" />
    <glyph glyph-name="m.alt" horiz-adv-x="804" 
d="M683 0h-66l47 294c16 99 -2 141 -84 141c-58 0 -106 -21 -141 -48c3 -22 3 -49 -2 -78l-49 -309h-66l47 294c15 95 -3 141 -87 141c-56 0 -100 -20 -127 -40l-63 -395h-66l68 431c53 35 119 63 198 63c59 0 100 -16 122 -49c49 28 107 49 174 49c111 0 164 -58 144 -185z
" />
    <glyph glyph-name="n.alt" 
d="M414 0h-66l47 294c16 100 -25 141 -107 141c-60 0 -109 -22 -133 -40l-63 -395h-66l68 431c53 35 125 63 202 63c119 0 186 -66 167 -185z" />
    <glyph glyph-name="longs" unicode="&#x17f;" horiz-adv-x="249" 
d="M124 0h-66l67 423h-77l9 57h77l21 134c10 66 26 113 60 152c37 42 85 52 123 52c48 0 80 -20 87 -26l-36 -56c-8 5 -33 21 -60 21c-64 0 -94 -62 -106 -136z" />
    <glyph glyph-name="longs.semp" horiz-adv-x="248" 
d="M85 -245h-66l106 667h-76l9 57h76l21 135c9 57 24 112 60 152c38 42 85 52 119 52c53 0 84 -20 91 -26l-37 -56c-11 7 -31 21 -62 21c-59 0 -91 -54 -103 -128z" />
    <glyph glyph-name="t.alt" horiz-adv-x="306" 
d="M231 43l-42 -53c-80 0 -133 28 -114 151l45 281h-82l9 58h82l27 172h66l-27 -172h113l-9 -58h-113l-43 -269c-17 -109 26 -109 88 -110z" />
    <glyph glyph-name="t.alt2" horiz-adv-x="321" 
d="M145 0h-66l67 423h-112l9 57h112l27 172h66l-27 -172h111l-9 -57h-111z" />
    <glyph glyph-name="t.semp" horiz-adv-x="293" 
d="M94 0h-66l104 659h66l-28 -179h134l-9 -57h-134z" />
    <glyph glyph-name="aacute.alt" horiz-adv-x="557" 
d="M457 728l-172 -145l-35 27l155 163zM435 -2h-65l10 68c-34 -41 -100 -78 -170 -78c-111 0 -177 90 -177 216c0 194 155 290 295 290c61 0 121 -18 175 -61zM391 134l42 266c-21 17 -66 35 -116 35c-123 0 -215 -106 -215 -230c0 -104 64 -159 132 -159
c65 0 132 51 157 88z" />
    <glyph glyph-name="uni1E57" unicode="&#x1e57;" horiz-adv-x="564" 
d="M378 637c0 -29 -25 -53 -55 -53c-23 0 -39 18 -39 40c0 29 26 55 54 55c24 0 40 -19 40 -42zM51 -255h-66l109 686c64 43 139 63 202 63c116 0 214 -69 214 -217c0 -159 -114 -290 -261 -290c-69 0 -119 29 -149 65zM154 395l-43 -270c22 -44 76 -80 138 -80
c98 0 190 91 190 221c0 108 -63 169 -154 169c-54 0 -104 -21 -131 -40z" />
    <glyph glyph-name="oslashacute" unicode="&#x1ff;" horiz-adv-x="583" 
d="M459 728l-173 -145l-35 27l155 163zM81 -146l-47 20l89 147c-57 38 -90 105 -90 189c0 171 140 284 285 284c30 0 58 -5 82 -15l89 147l48 -23l-90 -149c53 -39 82 -106 82 -182c0 -169 -139 -285 -284 -285c-27 0 -53 4 -76 12zM158 78l209 347c-17 7 -37 11 -59 11
c-111 0 -207 -101 -207 -224c0 -58 21 -104 57 -134zM411 395l-209 -342c16 -5 34 -8 53 -8c108 0 203 95 203 222c0 53 -17 98 -47 128z" />
    <glyph glyph-name="obreve" unicode="&#x14f;" horiz-adv-x="583" 
d="M456 729h67c-14 -72 -80 -165 -195 -165c-81 0 -144 57 -135 165h70c-3 -17 -8 -108 73 -108c98 0 119 100 120 108zM245 -13c-127 0 -212 90 -212 223c0 171 140 284 285 284c134 0 211 -97 211 -222c0 -169 -139 -285 -284 -285zM255 45c108 0 203 95 203 222
c0 99 -58 169 -150 169c-111 0 -207 -101 -207 -224c0 -99 63 -167 154 -167z" />
    <glyph glyph-name="omacron" unicode="&#x14d;" horiz-adv-x="583" 
d="M510 591h-347l9 58h347zM245 -13c-127 0 -212 90 -212 223c0 171 140 284 285 284c134 0 211 -97 211 -222c0 -169 -139 -285 -284 -285zM255 45c108 0 203 95 203 222c0 99 -58 169 -150 169c-111 0 -207 -101 -207 -224c0 -99 63 -167 154 -167z" />
    <glyph glyph-name="ohungarumlaut" unicode="&#x151;" horiz-adv-x="583" 
d="M381 694l-196 -115l-23 31l178 133zM564 694l-196 -115l-23 31l178 133zM245 -13c-127 0 -212 90 -212 223c0 171 140 284 285 284c134 0 211 -97 211 -222c0 -169 -139 -285 -284 -285zM255 45c108 0 203 95 203 222c0 99 -58 169 -150 169c-111 0 -207 -101 -207 -224
c0 -99 63 -167 154 -167z" />
    <glyph glyph-name="napostrophe.alt" horiz-adv-x="674" 
d="M136 467h-74l116 190h80zM554 0h-66l47 294c16 100 -25 141 -107 141c-60 0 -109 -22 -133 -40l-63 -395h-66l68 431c53 35 125 63 202 63c119 0 186 -66 167 -185z" />
    <glyph glyph-name="napostrophe" unicode="&#x149;" horiz-adv-x="673" 
d="M136 467h-74l116 190h80zM552 0h-66l45 284c14 91 10 148 -87 148c-71 0 -116 -30 -154 -64l-58 -368h-66l76 481h66l-8 -51c37 29 88 64 168 64c100 0 154 -55 134 -179z" />
    <glyph glyph-name="ntilde.alt" 
d="M466 690l18 -37c-14 -17 -64 -64 -112 -64c-38 0 -65 45 -105 45c-30 0 -66 -31 -85 -46l-23 36c23 22 80 66 120 66c41 0 71 -46 105 -46c35 0 69 33 82 46zM414 0h-66l47 294c16 100 -25 141 -107 141c-60 0 -109 -22 -133 -40l-63 -395h-66l68 431
c53 35 125 63 202 63c119 0 186 -66 167 -185z" />
    <glyph glyph-name="ncommaaccent.alt" horiz-adv-x="535" 
d="M140 -233h-73l114 190h79zM414 0h-66l47 294c16 100 -25 141 -107 141c-60 0 -109 -22 -133 -40l-63 -395h-66l68 431c53 35 125 63 202 63c119 0 186 -66 167 -185z" />
    <glyph glyph-name="ncommaaccent" unicode="&#x146;" horiz-adv-x="535" 
d="M142 -233h-73l114 190h79zM414 0h-66l45 284c14 91 10 148 -87 148c-71 0 -116 -30 -154 -64l-58 -368h-66l76 481h66l-8 -51c37 29 88 64 168 64c100 0 154 -55 134 -179z" />
    <glyph glyph-name="ncaron.alt" 
d="M479 712l-173 -134l-133 134l43 37l100 -96l133 96zM414 0h-66l47 294c16 100 -25 141 -107 141c-60 0 -109 -22 -133 -40l-63 -395h-66l68 431c53 35 125 63 202 63c119 0 186 -66 167 -185z" />
    <glyph glyph-name="ncaron" unicode="&#x148;" horiz-adv-x="535" 
d="M481 712l-173 -134l-133 134l43 37l100 -96l133 96zM414 0h-66l45 284c14 91 10 148 -87 148c-71 0 -116 -30 -154 -64l-58 -368h-66l76 481h66l-8 -51c37 29 88 64 168 64c100 0 154 -55 134 -179z" />
    <glyph glyph-name="nacute.alt" 
d="M451 728l-173 -145l-34 27l154 163zM414 0h-66l47 294c16 100 -25 141 -107 141c-60 0 -109 -22 -133 -40l-63 -395h-66l68 431c53 35 125 63 202 63c119 0 186 -66 167 -185z" />
    <glyph glyph-name="nacute" unicode="&#x144;" horiz-adv-x="535" 
d="M453 728l-173 -145l-34 27l154 163zM414 0h-66l45 284c14 91 10 148 -87 148c-71 0 -116 -30 -154 -64l-58 -368h-66l76 481h66l-8 -51c37 29 88 64 168 64c100 0 154 -55 134 -179z" />
    <glyph glyph-name="uni1E41.alt" horiz-adv-x="804" 
d="M500 637c0 -29 -25 -53 -55 -53c-22 0 -39 18 -39 40c0 29 27 55 55 55c24 0 39 -19 39 -42zM683 0h-66l47 294c16 99 -2 141 -84 141c-58 0 -106 -21 -141 -48c3 -22 3 -49 -2 -78l-49 -309h-66l47 294c15 95 -3 141 -87 141c-56 0 -100 -20 -127 -40l-63 -395h-66
l68 431c53 35 119 63 198 63c59 0 100 -16 122 -49c49 28 107 49 174 49c111 0 164 -58 144 -185z" />
    <glyph glyph-name="uni1E41" unicode="&#x1e41;" horiz-adv-x="806" 
d="M502 637c0 -29 -25 -53 -55 -53c-22 0 -39 18 -39 40c0 29 27 55 55 55c24 0 39 -19 39 -42zM685 0h-66l50 314c13 80 -4 118 -75 118c-72 0 -122 -40 -149 -65c0 -15 -2 -29 -4 -44l-51 -323h-66l50 315c14 85 -10 117 -76 117c-64 0 -109 -30 -146 -63l-58 -369h-66
l76 481h66l-8 -51c29 23 89 64 163 64c68 0 98 -36 112 -74c37 31 106 74 183 74c87 0 135 -54 116 -174z" />
    <glyph glyph-name="ldot" unicode="&#x140;" horiz-adv-x="365" 
d="M100 0h-66l130 820h66zM363 390c0 -30 -29 -59 -62 -59c-25 0 -44 21 -44 46c0 32 30 58 61 58c26 0 45 -20 45 -45z" />
    <glyph glyph-name="lcommaaccent" unicode="&#x13c;" horiz-adv-x="231" 
d="M100 0h-66l130 820h66zM23 -233h-73l114 190h79z" />
    <glyph glyph-name="lcaron" unicode="&#x13e;" horiz-adv-x="250" 
d="M100 0h-66l130 820h66zM309 570h-54l97 197h72z" />
    <glyph glyph-name="lacute" unicode="&#x13a;" horiz-adv-x="231" 
d="M100 0h-66l130 820h66zM360 1034l-172 -145l-35 27l155 163z" />
    <glyph glyph-name="kgreenlandic" unicode="&#x138;" horiz-adv-x="454" 
d="M409 0h-79l-196 245l-40 -245h-66l76 481h66l-30 -194l205 194h86l-235 -215z" />
    <glyph glyph-name="kcommaaccent" unicode="&#x137;" horiz-adv-x="452" 
d="M122 -233h-72l114 190h78zM409 0h-79l-196 245l-40 -245h-66l130 820h66l-84 -533l205 194h86l-235 -215z" />
    <glyph glyph-name="jcircumflex.semp" horiz-adv-x="226" 
d="M58 -251l-68 -15l118 747h66zM305 618l-43 -36l-93 96l-124 -96l-32 36l167 134h1z" />
    <glyph glyph-name="jcircumflex" unicode="&#x135;" horiz-adv-x="227" 
d="M-79 -268l-19 53c103 42 106 61 136 252l70 444h67l-70 -440c-32 -201 -47 -255 -184 -309zM302 618l-43 -36l-91 96l-120 -96l-32 36l164 134h1z" />
    <glyph glyph-name="dotlessj.semp" horiz-adv-x="226" 
d="M58 -251l-68 -15l118 747h66z" />
    <glyph glyph-name="dotlessj" unicode="&#x237;" horiz-adv-x="227" 
d="M-79 -268l-19 53c103 42 106 61 136 252l70 444h67l-70 -440c-32 -201 -48 -255 -184 -309z" />
    <glyph glyph-name="itilde" unicode="&#x129;" horiz-adv-x="226" 
d="M98 0h-66l76 481h66zM310 686l19 -37c-16 -17 -65 -64 -113 -64c-38 0 -65 45 -105 45c-29 0 -67 -31 -85 -46l-23 36c22 22 80 66 120 66c41 0 71 -46 104 -46c36 0 69 33 83 46z" />
    <glyph glyph-name="ibreve" unicode="&#x12d;" horiz-adv-x="226" 
d="M98 0h-66l76 481h66zM278 729h68c-15 -72 -81 -165 -196 -165c-81 0 -144 57 -135 165h70c-3 -17 -8 -108 73 -108c98 0 119 100 120 108z" />
    <glyph glyph-name="iogonek" unicode="&#x12f;" horiz-adv-x="226" 
d="M107 -153l-9 -58c-22 -10 -50 -15 -79 -15c-53 0 -107 22 -107 79c0 53 41 104 120 148l76 480h66l-77 -484c-57 -29 -117 -67 -117 -123c0 -29 24 -45 57 -45c21 0 45 8 70 18zM216 635c0 -32 -27 -58 -59 -58c-25 0 -43 19 -43 44c0 33 29 58 59 58c27 0 43 -18 43 -44
z" />
    <glyph glyph-name="imacron" unicode="&#x12b;" horiz-adv-x="227" 
d="M98 0h-66l77 481h66zM333 591h-347l9 58h347z" />
    <glyph glyph-name="ldot.sc" horiz-adv-x="433" 
d="M377 282c0 -27 -27 -51 -55 -51c-22 0 -37 18 -37 39c0 30 25 53 52 53c23 0 40 -17 40 -41zM337 1h-297l83 527h69l-73 -465c76 0 152 1 228 1z" />
    <glyph glyph-name="lcommaaccent.sc" horiz-adv-x="410" 
d="M123 -233h-72l114 190h78zM337 1h-297l83 527h69l-73 -465c76 0 152 1 228 1z" />
    <glyph glyph-name="lcaron.sc" horiz-adv-x="421" 
d="M328 350h-58l94 200h79zM337 1h-297l83 527h69l-73 -465l228 1z" />
    <glyph glyph-name="lacute.sc" horiz-adv-x="408" 
d="M329 748l-173 -145l-34 27l154 163zM336 1h-296l83 527h69l-73 -465c76 0 151 1 227 1z" />
    <glyph glyph-name="lslash.sc" horiz-adv-x="412" 
d="M343 1h-300l25 160l-62 -34l10 66l63 35l48 300h69l-42 -260l139 73l-11 -66l-138 -73l-22 -139l231 1z" />
    <glyph glyph-name="kcommaaccent.sc" horiz-adv-x="517" 
d="M166 -233h-73l114 190h79zM468 0h-92l-231 228l-36 -228h-69l84 528h69l-36 -223l260 223h92l-313 -262z" />
    <glyph glyph-name="jcircumflex.sc.semp" horiz-adv-x="362" 
d="M391 640l-41 -36l-102 96l-131 -96l-32 36l175 134zM209 221l39 244h-140l9 62h209l-54 -342c-24 -149 -84 -198 -189 -198c-46 0 -87 18 -112 39l27 58c18 -15 47 -35 85 -35c82 0 108 59 126 172z" />
    <glyph glyph-name="jcircumflex.sc" horiz-adv-x="247" 
d="M-73 -182l-16 59c94 32 120 61 139 184l74 467h70l-75 -471c-24 -149 -66 -192 -192 -239zM330 640l-43 -36l-102 96l-131 -96l-31 36l175 134z" />
    <glyph glyph-name="itilde.sc" horiz-adv-x="246" 
d="M109 0h-69l84 528h69zM324 707l19 -37c-14 -17 -65 -64 -113 -64c-38 0 -65 45 -105 45c-29 0 -66 -31 -85 -46l-23 36c22 22 80 66 120 66c41 0 71 -46 104 -46c36 0 69 33 83 46z" />
    <glyph glyph-name="ibreve.sc" horiz-adv-x="246" 
d="M109 0h-69l84 528h69zM275 734h57c-13 -62 -70 -144 -167 -144c-70 0 -123 50 -115 144h60c-2 -14 -7 -94 62 -94c82 0 102 87 103 94z" />
    <glyph glyph-name="iogonek.sc" horiz-adv-x="246" 
d="M117 -153l-9 -58c-22 -10 -50 -15 -79 -15c-53 0 -107 22 -107 79c0 52 40 104 118 148l83 527h70l-84 -533c-61 -29 -119 -65 -119 -121c0 -29 24 -45 57 -45c21 0 45 8 70 18z" />
    <glyph glyph-name="imacron.sc" horiz-adv-x="245" 
d="M109 0h-69l83 528h69zM336 596h-335l9 58h335z" />
    <glyph glyph-name="idotaccent.sc" horiz-adv-x="246" 
d="M109 0h-69l84 528h69zM222 637c0 -29 -24 -53 -55 -53c-21 0 -39 18 -39 41c0 29 28 54 55 54c24 0 39 -19 39 -42z" />
    <glyph glyph-name="igrave.sc" horiz-adv-x="246" 
d="M109 0h-69l84 528h69zM208 612l-44 -27l-79 147l68 45z" />
    <glyph glyph-name="idieresis.sc" horiz-adv-x="247" 
d="M145 638c0 -28 -27 -51 -55 -51c-22 0 -38 17 -38 39c0 29 27 53 53 53c23 0 40 -18 40 -41zM309 639c0 -29 -24 -52 -55 -52c-24 0 -39 17 -39 39c0 28 24 53 54 53c25 0 40 -18 40 -40zM110 0h-70l84 528h70z" />
    <glyph glyph-name="uni1E41.sc" horiz-adv-x="733" 
d="M623 0h-69l18 324c1 5 2 19 4 26c-4 -6 -10 -18 -15 -24l-247 -346l-137 345c-3 8 -6 16 -8 24c1 -7 0 -17 -3 -26l-84 -323h-70l150 542l169 -409c2 -6 4 -14 4 -20c1 6 4 14 9 20l301 409zM464 628c0 -27 -27 -51 -56 -51c-22 0 -38 18 -38 39c0 30 25 53 53 53
c24 0 41 -17 41 -41z" />
    <glyph glyph-name="nacute.sc" horiz-adv-x="647" 
d="M511 748l-172 -145l-35 27l155 163zM507 -19l-340 407l-59 -388h-69l87 543l340 -408l60 393h69z" />
    <glyph glyph-name="ncaron.sc" horiz-adv-x="647" 
d="M546 738l-174 -134l-133 134l43 36l100 -96l133 96zM507 -19l-340 407l-59 -388h-69l87 543l340 -408l60 393h69z" />
    <glyph glyph-name="ncommaaccent.sc" horiz-adv-x="647" 
d="M220 -233h-73l114 190h79zM507 -19l-340 407l-59 -388h-69l87 543l340 -408l60 393h69z" />
    <glyph glyph-name="ntilde.sc" horiz-adv-x="647" 
d="M519 705l18 -37c-15 -17 -64 -64 -113 -64c-37 0 -65 45 -105 45c-30 0 -67 -31 -84 -46l-24 36c23 22 81 66 121 66c41 0 70 -46 103 -46c35 0 70 33 84 46zM507 -19l-340 407l-59 -388h-69l87 543l340 -408l60 393h69z" />
    <glyph glyph-name="napostrophe.sc" horiz-adv-x="667" 
d="M19 489h-73l114 190h79zM527 -19l-340 407l-59 -388h-69l87 543l340 -408l60 393h69z" />
    <glyph glyph-name="oacute.sc" horiz-adv-x="660" 
d="M527 748l-173 -145l-34 27l154 163zM602 300c0 -180 -156 -311 -320 -311c-146 0 -238 104 -238 241c0 174 150 309 320 309c146 0 238 -100 238 -239zM292 51c127 0 237 109 237 243c0 106 -68 183 -176 183c-127 0 -237 -108 -237 -241c0 -100 63 -185 176 -185z" />
    <glyph glyph-name="ocircumflex.sc" horiz-adv-x="660" 
d="M535 640l-43 -36l-101 96l-132 -96l-30 36l174 134zM602 300c0 -180 -156 -311 -320 -311c-146 0 -238 104 -238 241c0 174 150 309 320 309c146 0 238 -100 238 -239zM292 51c127 0 237 109 237 243c0 106 -68 183 -176 183c-127 0 -237 -108 -237 -241
c0 -100 63 -185 176 -185z" />
    <glyph glyph-name="odieresis.sc" horiz-adv-x="660" 
d="M314 658c0 -27 -28 -51 -56 -51c-23 0 -38 18 -38 39c0 30 24 53 52 53c24 0 42 -17 42 -41zM528 659c0 -27 -23 -52 -55 -52c-23 0 -39 18 -39 39c0 29 25 53 53 53c26 0 41 -17 41 -40zM602 300c0 -180 -156 -311 -320 -311c-146 0 -238 104 -238 241
c0 174 150 309 320 309c146 0 238 -100 238 -239zM292 51c127 0 237 109 237 243c0 106 -68 183 -176 183c-127 0 -237 -108 -237 -241c0 -100 63 -185 176 -185z" />
    <glyph glyph-name="ograve.sc" horiz-adv-x="660" 
d="M444 630l-45 -27l-125 145l66 45zM602 300c0 -180 -156 -311 -320 -311c-146 0 -238 104 -238 241c0 174 150 309 320 309c146 0 238 -100 238 -239zM292 51c127 0 237 109 237 243c0 106 -68 183 -176 183c-127 0 -237 -108 -237 -241c0 -100 63 -185 176 -185z" />
    <glyph glyph-name="icircumflex.sc" horiz-adv-x="246" 
d="M109 0h-69l84 528h69zM290 645l-41 -36l-69 61l-96 -69l-23 38l130 108h1z" />
    <glyph glyph-name="iacute.sc" horiz-adv-x="246" 
d="M109 0h-69l84 528h69zM169 585l-34 28l110 165l54 -45z" />
    <glyph glyph-name="hbar.sc" horiz-adv-x="613" 
d="M467 0h-69l38 238h-278l-38 -238h-69l62 392h-74l9 56h74l13 80h69l-13 -80h278l13 80h69l-13 -80h73l-9 -56h-73zM446 301l14 91h-278l-14 -91h278z" />
    <glyph glyph-name="hcircumflex.sc" horiz-adv-x="593" 
d="M456 0h-69l38 238h-278l-38 -238h-69l84 528h69l-36 -227h278l36 227h69zM502 640l-42 -36l-102 96l-130 -96l-32 36l175 134z" />
    <glyph glyph-name="gdotaccent.sc" horiz-adv-x="634" 
d="M423 658c0 -27 -28 -51 -56 -51c-23 0 -38 18 -38 39c0 30 25 53 53 53c24 0 41 -17 41 -41zM502 206l-142 -1l10 62h215c-35 -207 -172 -278 -293 -278c-145 0 -248 102 -248 244c0 174 155 306 331 306c127 0 187 -69 190 -72l-44 -51c-4 5 -51 61 -154 61
c-149 0 -248 -116 -248 -238c0 -113 84 -189 183 -189c90 0 179 63 200 156z" />
    <glyph glyph-name="gcommaaccent.sc" horiz-adv-x="634" 
d="M238 -249h-73l114 190h79zM502 206l-142 -1l10 62h215c-35 -207 -172 -278 -293 -278c-145 0 -248 102 -248 244c0 174 155 306 331 306c127 0 187 -69 190 -72l-44 -51c-4 5 -51 61 -154 61c-149 0 -248 -116 -248 -238c0 -113 84 -189 183 -189c90 0 179 63 200 156z
" />
    <glyph glyph-name="gbreve.sc" horiz-adv-x="634" 
d="M471 734h58c-13 -62 -70 -144 -168 -144c-70 0 -123 50 -114 144h60c-2 -14 -8 -94 61 -94c83 0 102 87 103 94zM502 206l-142 -1l10 62h215c-35 -207 -172 -278 -293 -278c-145 0 -248 102 -248 244c0 174 155 306 331 306c127 0 187 -69 190 -72l-44 -51
c-4 5 -51 61 -154 61c-149 0 -248 -116 -248 -238c0 -113 84 -189 183 -189c90 0 179 63 200 156z" />
    <glyph glyph-name="ohungarumlaut.sc" horiz-adv-x="660" 
d="M419 713l-186 -115l-23 31l178 133zM599 713l-186 -115l-23 31l178 133zM602 300c0 -180 -156 -311 -320 -311c-146 0 -238 104 -238 241c0 174 150 309 320 309c146 0 238 -100 238 -239zM292 51c127 0 237 109 237 243c0 106 -68 183 -176 183
c-127 0 -237 -108 -237 -241c0 -100 63 -185 176 -185z" />
    <glyph glyph-name="omacron.sc" horiz-adv-x="660" 
d="M542 596h-335l9 58h335zM602 300c0 -180 -156 -311 -320 -311c-146 0 -238 104 -238 241c0 174 150 309 320 309c146 0 238 -100 238 -239zM292 51c127 0 237 109 237 243c0 106 -68 183 -176 183c-127 0 -237 -108 -237 -241c0 -100 63 -185 176 -185z" />
    <glyph glyph-name="otilde.sc" horiz-adv-x="660" 
d="M530 707l18 -37c-15 -17 -64 -64 -113 -64c-37 0 -65 45 -105 45c-30 0 -67 -31 -84 -46l-24 36c23 22 81 66 121 66c41 0 70 -46 103 -46c35 0 70 33 84 46zM602 300c0 -180 -156 -311 -320 -311c-146 0 -238 104 -238 241c0 174 150 309 320 309
c146 0 238 -100 238 -239zM292 51c127 0 237 109 237 243c0 106 -68 183 -176 183c-127 0 -237 -108 -237 -241c0 -100 63 -185 176 -185z" />
    <glyph glyph-name="obreve.sc" horiz-adv-x="660" 
d="M480 734h57c-12 -62 -70 -144 -167 -144c-70 0 -123 50 -115 144h61c-2 -14 -8 -94 61 -94c83 0 102 87 103 94zM602 300c0 -180 -156 -311 -320 -311c-146 0 -238 104 -238 241c0 174 150 309 320 309c146 0 238 -100 238 -239zM292 51c127 0 237 109 237 243
c0 106 -68 183 -176 183c-127 0 -237 -108 -237 -241c0 -100 63 -185 176 -185z" />
    <glyph glyph-name="oslash.sc" horiz-adv-x="659" 
d="M142 -111l-50 22l63 109c-69 39 -111 118 -111 207c0 178 148 312 323 312c28 0 55 -5 79 -12l58 100l52 -24l-57 -100c63 -39 103 -114 103 -202c0 -181 -154 -312 -322 -312c-26 0 -50 4 -73 10zM190 80l221 389c-16 5 -35 8 -55 8c-132 0 -240 -108 -240 -243
c0 -64 27 -123 74 -154zM463 442l-222 -386c14 -3 29 -5 45 -5c136 0 243 109 243 243c0 63 -25 117 -66 148z" />
    <glyph glyph-name="oslashacute.sc" horiz-adv-x="659" 
d="M516 748l-173 -145l-34 27l154 163zM142 -111l-50 22l63 109c-69 39 -111 118 -111 207c0 178 148 312 323 312c28 0 55 -5 79 -12l58 100l52 -24l-57 -100c63 -39 103 -114 103 -202c0 -181 -154 -312 -322 -312c-26 0 -50 4 -73 10zM190 80l221 389c-16 5 -35 8 -55 8
c-132 0 -240 -108 -240 -243c0 -64 27 -123 74 -154zM463 442l-222 -386c14 -3 29 -5 45 -5c136 0 243 109 243 243c0 63 -25 117 -66 148z" />
    <glyph glyph-name="uni1E57.sc" horiz-adv-x="452" 
d="M330 659c0 -28 -26 -52 -54 -52c-25 0 -40 18 -40 40c0 29 27 52 53 52c24 0 41 -18 41 -40zM109 0h-69l84 528h112c106 0 185 -32 185 -139c0 -106 -78 -193 -229 -193h-52zM150 259h43c97 0 155 53 155 124c0 57 -37 82 -104 82h-61z" />
    <glyph glyph-name="racute.sc" horiz-adv-x="490" 
d="M426 748l-171 -145l-35 27l155 163zM444 0h-90l-211 212l-34 -212h-69l84 528h114c107 0 183 -34 183 -137c0 -94 -64 -177 -185 -187zM150 259h39c107 0 159 55 159 123c0 58 -37 83 -102 83h-63z" />
    <glyph glyph-name="rcaron.sc" horiz-adv-x="490" 
d="M449 738l-174 -134l-133 134l43 36l100 -96l133 96zM444 0h-90l-211 212l-34 -212h-69l84 528h114c107 0 183 -34 183 -137c0 -94 -64 -177 -185 -187zM150 259h39c107 0 159 55 159 123c0 58 -37 83 -102 83h-63z" />
    <glyph glyph-name="rcommaaccent.sc" horiz-adv-x="489" 
d="M151 -233h-73l114 190h79zM444 0h-90l-211 212l-34 -212h-69l84 528h114c107 0 183 -34 183 -137c0 -94 -64 -177 -185 -187zM150 259h39c107 0 159 55 159 123c0 58 -37 83 -102 83h-63z" />
    <glyph glyph-name="uni1E61.sc" horiz-adv-x="443" 
d="M319 658c0 -27 -26 -51 -55 -51c-22 0 -39 18 -39 40c0 29 27 52 53 52c24 0 41 -17 41 -41zM1 66l46 47c18 -27 61 -63 126 -63s121 37 121 98c0 117 -208 99 -208 248c0 98 90 144 180 144c75 0 118 -32 137 -56l-41 -48c-22 24 -55 45 -99 45c-54 0 -103 -30 -103 -81
c0 -104 208 -85 208 -245c0 -105 -90 -166 -198 -166c-93 0 -149 45 -169 77z" />
    <glyph glyph-name="scaron.sc" horiz-adv-x="443" 
d="M439 715l-174 -134l-133 134l43 37l100 -96l133 96zM1 66l46 47c18 -27 61 -63 126 -63s121 37 121 98c0 117 -208 99 -208 248c0 98 90 144 180 144c75 0 118 -32 137 -56l-41 -48c-22 24 -55 45 -99 45c-54 0 -103 -30 -103 -81c0 -104 208 -85 208 -245
c0 -105 -90 -166 -198 -166c-93 0 -149 45 -169 77z" />
    <glyph glyph-name="sacute.sc" horiz-adv-x="443" 
d="M407 748l-172 -145l-35 27l155 163zM1 66l46 47c18 -27 61 -63 126 -63s121 37 121 98c0 117 -208 99 -208 248c0 98 90 144 180 144c75 0 118 -32 137 -56l-41 -48c-22 24 -55 45 -99 45c-54 0 -103 -30 -103 -81c0 -104 208 -85 208 -245c0 -105 -90 -166 -198 -166
c-93 0 -149 45 -169 77z" />
    <glyph glyph-name="scedilla.sc" horiz-adv-x="443" 
d="M128 -203h-64l101 164h75zM1 66l46 47c18 -27 61 -63 126 -63s121 37 121 98c0 117 -208 99 -208 248c0 98 90 144 180 144c75 0 118 -32 137 -56l-41 -48c-22 24 -55 45 -99 45c-54 0 -103 -30 -103 -81c0 -104 208 -85 208 -245c0 -105 -90 -166 -198 -166
c-93 0 -149 45 -169 77z" />
    <glyph glyph-name="tcaron.sc" horiz-adv-x="450" 
d="M449 738l-174 -134l-133 134l43 36l101 -96l132 96zM211 0h-70l74 466c-54 0 -109 -1 -163 -1l10 62h395l-10 -62c-54 0 -108 1 -162 1z" />
    <glyph glyph-name="tcommaaccent.sc" horiz-adv-x="451" 
d="M134 -233h-73l116 190h78zM212 0h-70l74 466l-163 -1l10 62h395l-10 -62l-162 1z" />
    <glyph glyph-name="uni1E6B.sc" horiz-adv-x="450" 
d="M326 658c0 -27 -28 -51 -56 -51c-23 0 -39 18 -39 40c0 29 27 52 54 52c24 0 41 -17 41 -41zM211 0h-70l74 466l-163 -1l10 62h395l-10 -62l-162 1z" />
    <glyph glyph-name="tbar.sc" horiz-adv-x="451" 
d="M212 0h-70l43 270h-110l9 58h110l22 138l-163 -1l10 62h395l-10 -62l-162 1l-22 -138h111l-9 -58h-111z" />
    <glyph glyph-name="uacute.sc" horiz-adv-x="582" 
d="M475 748l-172 -145l-34 27l154 163zM394 87l70 441h69l-75 -468c-43 -40 -116 -71 -218 -71c-131 0 -195 68 -174 203l53 336h69l-47 -298c-22 -141 11 -179 121 -179c45 0 98 10 132 36z" />
    <glyph glyph-name="ucircumflex.sc" horiz-adv-x="582" 
d="M394 87l70 441h69l-75 -468c-43 -40 -116 -71 -218 -71c-131 0 -195 68 -174 203l53 336h69l-47 -298c-22 -141 11 -179 121 -179c45 0 98 10 132 36zM498 640l-41 -36l-102 96l-131 -96l-32 36l176 134z" />
    <glyph glyph-name="udieresis.sc" horiz-adv-x="582" 
d="M281 658c0 -27 -28 -51 -56 -51c-23 0 -38 18 -38 39c0 30 25 53 53 53c24 0 41 -17 41 -41zM495 659c0 -27 -23 -52 -55 -52c-23 0 -38 18 -38 39c0 29 24 53 53 53c25 0 40 -17 40 -40zM394 87l70 441h69l-75 -468c-43 -40 -116 -71 -218 -71c-131 0 -195 68 -174 203
l53 336h69l-47 -298c-22 -141 11 -179 121 -179c45 0 98 10 132 36z" />
    <glyph glyph-name="ugrave.sc" horiz-adv-x="582" 
d="M406 630l-45 -27l-126 145l68 45zM394 87l70 441h69l-75 -468c-43 -40 -116 -71 -218 -71c-131 0 -195 68 -174 203l53 336h69l-47 -298c-22 -141 11 -179 121 -179c45 0 98 10 132 36z" />
    <glyph glyph-name="uogonek.sc" horiz-adv-x="582" 
d="M356 -156l-9 -58c-22 -10 -51 -15 -79 -15c-55 0 -108 22 -108 79c0 49 36 98 105 140c-9 0 -16 -1 -25 -1c-131 0 -195 68 -174 203l53 336h69l-47 -298c-21 -130 2 -179 121 -179c45 0 98 10 132 36l70 441h69l-75 -468c-24 -23 -58 -40 -100 -58
c-56 -23 -129 -71 -129 -131c0 -29 24 -45 56 -45c22 0 45 8 71 18z" />
    <glyph glyph-name="uhungarumlaut.sc" horiz-adv-x="582" 
d="M401 713l-185 -115l-23 31l178 133zM581 713l-185 -115l-23 31l178 133zM394 87l70 441h69l-75 -468c-43 -40 -116 -71 -218 -71c-131 0 -195 68 -174 203l53 336h69l-47 -298c-22 -141 11 -179 121 -179c45 0 98 10 132 36z" />
    <glyph glyph-name="umacron.sc" horiz-adv-x="582" 
d="M506 596h-335l10 58h335zM394 87l70 441h69l-75 -468c-43 -40 -116 -71 -218 -71c-131 0 -195 68 -174 203l53 336h69l-47 -298c-22 -141 11 -179 121 -179c45 0 98 10 132 36z" />
    <glyph glyph-name="uring.sc" horiz-adv-x="582" 
d="M461 712c0 -66 -58 -122 -124 -122c-53 0 -89 41 -89 93c0 68 59 124 124 124c53 0 89 -43 89 -95zM345 634c37 0 72 36 72 74c0 31 -21 56 -51 56c-36 0 -71 -34 -71 -73c0 -31 21 -57 50 -57zM394 87l70 441h69l-75 -468c-43 -40 -116 -71 -218 -71
c-131 0 -195 68 -174 203l53 336h69l-47 -298c-22 -141 11 -179 121 -179c45 0 98 10 132 36z" />
    <glyph glyph-name="ecaron.sc" horiz-adv-x="450" 
d="M357 1h-316l83 526h295l-10 -63c-75 0 -151 1 -226 1l-24 -153h181l-10 -63c-61 0 -120 1 -181 1l-29 -187c82 0 165 1 247 1zM462 738l-174 -134l-133 134l42 36l101 -96l132 96z" />
    <glyph glyph-name="edotaccent.sc" horiz-adv-x="451" 
d="M341 658c0 -27 -27 -51 -56 -51c-22 0 -38 18 -38 40c0 29 27 52 53 52c24 0 41 -17 41 -41zM358 1h-317l83 526h295l-10 -63l-226 1l-24 -153h181l-10 -63l-181 1l-29 -187l248 1z" />
    <glyph glyph-name="emacron.sc" horiz-adv-x="450" 
d="M357 1h-316l83 526h294l-10 -63c-75 0 -150 1 -225 1l-24 -153h181l-10 -63c-61 0 -121 1 -181 1l-29 -187c82 0 165 1 247 1zM449 596h-335l9 58h335z" />
    <glyph glyph-name="eogonek.sc" horiz-adv-x="451" 
d="M324 -153l-10 -58c-21 -10 -50 -15 -79 -15c-54 0 -107 22 -107 79c0 52 39 104 118 148h-205l83 526h295l-10 -63l-226 1l-24 -153h181l-10 -63l-181 1l-29 -187l248 1l-10 -63h-47c-52 -29 -115 -71 -115 -127c0 -29 24 -45 57 -45c22 0 45 8 71 18z" />
    <glyph glyph-name="uni1E1F.sc" horiz-adv-x="415" 
d="M109 0h-69l83 527h288l-9 -62c-73 0 -146 1 -219 1l-25 -159c59 0 119 1 177 1l-10 -63h-177zM340 658c0 -27 -28 -51 -57 -51c-22 0 -38 18 -38 40c0 29 27 52 53 52c24 0 42 -17 42 -41z" />
    <glyph glyph-name="gcircumflex.sc" horiz-adv-x="634" 
d="M527 640l-43 -36l-101 96l-132 -96l-31 36l175 134zM502 206l-142 -1l10 62h215c-35 -207 -172 -278 -293 -278c-145 0 -248 102 -248 244c0 174 155 306 331 306c127 0 187 -69 190 -72l-44 -51c-4 5 -51 61 -154 61c-149 0 -248 -116 -248 -238
c0 -113 84 -189 183 -189c90 0 179 63 200 156z" />
    <glyph glyph-name="utilde.sc" horiz-adv-x="582" 
d="M492 707l18 -37c-14 -17 -63 -64 -112 -64c-37 0 -65 45 -105 45c-30 0 -67 -31 -84 -46l-24 36c23 22 80 66 121 66s71 -46 104 -46c35 0 69 33 82 46zM394 87l70 441h69l-75 -468c-43 -40 -116 -71 -218 -71c-131 0 -195 68 -174 203l53 336h69l-47 -298
c-22 -141 11 -179 121 -179c45 0 98 10 132 36z" />
    <glyph glyph-name="ubreve.sc" horiz-adv-x="582" 
d="M444 734h57c-13 -62 -70 -144 -168 -144c-69 0 -122 50 -114 144h60c-2 -14 -8 -94 61 -94c83 0 103 87 104 94zM394 87l70 441h69l-75 -468c-43 -40 -116 -71 -218 -71c-131 0 -195 68 -174 203l53 336h69l-47 -298c-22 -141 11 -179 121 -179c45 0 98 10 132 36z" />
    <glyph glyph-name="wcircumflex.sc" horiz-adv-x="768" 
d="M592 640l-43 -36l-102 96l-131 -96l-31 36l175 134zM503 -24l-108 400l-235 -398l-112 550h75l70 -368c2 -8 0 -16 0 -25c1 9 4 17 8 25l221 386l99 -387c2 -8 1 -21 2 -21c3 10 4 14 7 21l183 369h72z" />
    <glyph glyph-name="wgrave.sc" horiz-adv-x="768" 
d="M521 630l-43 -27l-126 145l67 45zM503 -24l-108 400l-235 -398l-112 550h75l70 -368c2 -8 0 -16 0 -25c1 9 4 17 8 25l221 386l99 -387c2 -8 1 -21 2 -21c3 10 4 14 7 21l183 369h72z" />
    <glyph glyph-name="wacute.sc" horiz-adv-x="768" 
d="M559 748l-172 -145l-35 27l154 163zM503 -24l-108 400l-235 -398l-112 550h75l70 -368c2 -8 0 -16 0 -25c1 9 4 17 8 25l221 386l99 -387c2 -8 1 -21 2 -21c3 10 4 14 7 21l183 369h72z" />
    <glyph glyph-name="wdieresis.sc" horiz-adv-x="768" 
d="M595 659c0 -28 -24 -52 -54 -52c-24 0 -39 18 -39 39c0 29 24 53 53 53c25 0 40 -17 40 -40zM380 658c0 -27 -26 -51 -55 -51c-22 0 -39 18 -39 40c0 29 27 52 53 52c24 0 41 -17 41 -41zM503 -24l-108 400l-235 -398l-112 550h75l70 -368c2 -8 0 -16 0 -25
c1 9 4 17 8 25l221 386l99 -387c2 -8 1 -21 2 -21c3 10 4 14 7 21l183 369h72z" />
    <glyph glyph-name="ygrave.sc" horiz-adv-x="459" 
d="M339 630l-44 -27l-126 145l67 45zM213 0h-69l36 226l-137 302h81l98 -238l183 238h80l-237 -303z" />
    <glyph glyph-name="ycircumflex.sc" horiz-adv-x="459" 
d="M435 640l-43 -36l-102 96l-131 -96l-31 36l175 134zM213 0h-69l36 226l-137 302h81l98 -238l183 238h80l-237 -303z" />
    <glyph glyph-name="yacute.sc" horiz-adv-x="459" 
d="M438 734l-172 -145l-35 27l154 163zM213 0h-69l36 226l-137 302h81l98 -238l183 238h80l-237 -303z" />
    <glyph glyph-name="ydieresis.sc" horiz-adv-x="459" 
d="M213 644c0 -27 -24 -51 -54 -51c-21 0 -36 18 -36 39c0 29 25 52 51 52c24 0 39 -17 39 -40zM448 644c0 -27 -23 -51 -54 -51c-22 0 -35 18 -35 38c0 29 21 53 50 53c25 0 39 -17 39 -40zM213 0h-69l36 226l-137 302h81l98 -238l183 238h80l-237 -303z" />
    <glyph glyph-name="zcaron.sc" horiz-adv-x="491" 
d="M480 726l-174 -134l-133 134l43 37l100 -96l133 96zM399 1h-429l380 464l-243 -1l10 63h366l-381 -464l307 1z" />
    <glyph glyph-name="zacute.sc" horiz-adv-x="491" 
d="M452 748l-173 -145l-33 27l153 163zM399 1h-429l380 464l-243 -1l10 63h366l-381 -464l307 1z" />
    <glyph glyph-name="zdotaccent.sc" horiz-adv-x="491" 
d="M358 658c0 -27 -27 -51 -55 -51c-23 0 -39 18 -39 40c0 29 26 52 54 52c23 0 40 -17 40 -41zM399 1h-429l380 464l-243 -1l10 63h366l-381 -464l307 1z" />
    <glyph glyph-name="ae.sc" horiz-adv-x="714" 
d="M621 1h-317l20 126h-182l-98 -127h-87l417 526l308 1l-10 -63l-225 1l-25 -153h182l-10 -63l-181 1l-30 -187l248 1zM334 190l38 238l-181 -238h143z" />
    <glyph glyph-name="aeacute.sc" horiz-adv-x="714" 
d="M681 748l-172 -145l-35 27l155 163zM621 1h-317l20 126h-182l-98 -127h-87l417 526l308 1l-10 -63l-225 1l-25 -153h182l-10 -63l-181 1l-30 -187l248 1zM334 190l38 238l-181 -238h143z" />
    <glyph glyph-name="ij.sc" horiz-adv-x="493" 
d="M109 0h-69l84 528h69zM173 -182l-16 59c94 32 120 61 139 184l74 467h70l-75 -471c-24 -149 -66 -192 -192 -239z" />
    <glyph glyph-name="eng.sc" horiz-adv-x="647" 
d="M327 -182l-15 59c89 31 118 65 136 175l-281 333l-59 -385h-69l87 543l340 -407l59 392h69l-75 -471c-24 -149 -65 -192 -192 -239z" />
    <glyph glyph-name="oe.sc" horiz-adv-x="895" 
d="M802 1h-317l15 91c-61 -74 -143 -103 -221 -103c-143 0 -236 106 -236 238c0 168 148 312 323 312c81 0 154 -33 187 -102l15 90h295l-10 -63l-226 1l-24 -154l181 1l-10 -63l-181 1l-29 -187l248 1zM528 294c0 106 -69 183 -173 183c-132 0 -240 -108 -240 -241
c0 -100 66 -185 170 -185c136 0 243 109 243 243z" />
    <glyph glyph-name="ff.sc" horiz-adv-x="830" 
d="M109 0h-69l83 527h288l-9 -62l-219 1l-25 -159l177 1l-10 -63h-177zM524 0h-69l83 527h288l-9 -62l-219 1l-25 -159l177 1l-10 -63h-177z" />
    <glyph glyph-name="fi.sc" horiz-adv-x="661" 
d="M109 0h-69l83 527h288l-9 -62l-219 1l-25 -159l177 1l-10 -63h-177zM524 0h-69l84 528h69z" />
    <glyph glyph-name="ffi.sc" horiz-adv-x="1076" 
d="M109 0h-69l83 527h288l-9 -62l-219 1l-25 -159l177 1l-10 -63h-177zM524 0h-69l83 527h288l-9 -62l-219 1l-25 -159l177 1l-10 -63h-177zM939 0h-69l84 528h69z" />
    <glyph glyph-name="ffl.sc" horiz-adv-x="1239" 
d="M109 0h-69l83 527h288l-9 -62l-219 1l-25 -159l177 1l-10 -63h-177zM524 0h-69l83 527h288l-9 -62l-219 1l-25 -159l177 1l-10 -63h-177zM1167 1h-297l83 527h69l-73 -465l228 1z" />
    <glyph glyph-name="zero_slash" horiz-adv-x="645" 
d="M274 -13c-164 0 -199 148 -199 289c0 249 108 486 316 486c163 0 200 -145 200 -291c0 -252 -111 -484 -317 -484zM169 122l294 551c-19 17 -46 27 -80 27c-154 0 -236 -203 -236 -420c0 -54 5 -121 22 -158zM499 625l-297 -549c19 -18 45 -28 79 -28
c160 0 239 219 239 424c0 52 -5 118 -21 153z" />
    <glyph glyph-name="egrave.sc" horiz-adv-x="451" 
d="M353 630l-45 -27l-126 145l67 45zM358 1h-317l83 526h295l-10 -63l-226 1l-24 -153h181l-10 -63l-181 1l-29 -187l248 1z" />
    <glyph glyph-name="edieresis.sc" horiz-adv-x="450" 
d="M357 1h-316l83 526h294l-10 -63c-75 0 -151 1 -225 1l-24 -153h181l-10 -63c-61 0 -121 1 -181 1l-29 -187c82 0 165 1 247 1zM447 659c0 -28 -25 -52 -55 -52c-24 0 -38 18 -38 39c0 29 22 53 53 53c25 0 40 -17 40 -40zM232 658c0 -27 -28 -51 -56 -51
c-22 0 -38 18 -38 40c0 29 27 52 53 52c24 0 41 -17 41 -41z" />
    <glyph glyph-name="ecircumflex.sc" horiz-adv-x="451" 
d="M358 1h-317l83 526h295l-10 -63c-75 0 -151 1 -226 1l-24 -153h181l-10 -63c-60 0 -120 1 -181 1l-29 -187c83 0 165 1 248 1zM442 640l-42 -36l-102 96l-131 -96l-32 36l175 134z" />
    <glyph glyph-name="eacute.sc" horiz-adv-x="451" 
d="M433 748l-173 -145l-34 27l154 163zM358 1h-317l83 526h295l-10 -63l-226 1l-24 -153h181l-10 -63l-181 1l-29 -187l248 1z" />
    <glyph glyph-name="racute" unicode="&#x155;" horiz-adv-x="332" 
d="M368 728l-173 -145l-34 27l154 163zM94 0h-66l76 481h66l-11 -69c10 22 59 82 111 82c36 0 66 -16 75 -22l-40 -63c-9 7 -26 20 -51 20c-54 0 -102 -66 -109 -107z" />
    <glyph glyph-name="tcaron.alt2" horiz-adv-x="321" 
d="M350 575h-53l96 197h73zM145 0h-66l67 423h-112l9 57h112l27 172h66l-27 -172h111l-9 -57h-111z" />
    <glyph glyph-name="rcaron" unicode="&#x159;" horiz-adv-x="332" 
d="M94 0h-66l76 481h66l-11 -69c10 22 59 82 111 82c36 0 66 -16 75 -22l-40 -63c-9 7 -26 20 -51 20c-54 0 -102 -66 -109 -107zM400 712l-174 -134l-133 134l43 37l100 -96l133 96z" />
    <glyph glyph-name="tcaron.semp" horiz-adv-x="293" 
d="M319 575h-54l97 197h72zM94 0h-66l104 659h66l-28 -179h134l-9 -57h-134z" />
    <glyph glyph-name="tcommaaccent" unicode="&#x163;" horiz-adv-x="302" 
d="M35 -233h-73l115 190h78zM127 0h-66l67 423h-85l9 57h85l27 172h66l-27 -172h111l-9 -57h-111z" />
    <glyph glyph-name="tcommaaccent.alt" horiz-adv-x="304" 
d="M53 -233h-72l114 190h78zM231 43l-42 -53c-80 0 -133 28 -114 151l45 281h-82l9 58h82l27 172h66l-27 -172h113l-9 -58h-113l-43 -269c-17 -109 26 -109 88 -110z" />
    <glyph glyph-name="tcommaaccent.alt2" horiz-adv-x="319" 
d="M60 -233h-73l114 190h79zM144 0h-66l67 423h-112l9 57h112l27 172h66l-27 -172h111l-9 -57h-111z" />
    <glyph glyph-name="tcommaaccent.semp" horiz-adv-x="292" 
d="M10 -233h-73l114 190h79zM94 0h-66l104 659h66l-28 -179h134l-9 -57h-134z" />
    <glyph glyph-name="uni1E6B" unicode="&#x1e6b;" horiz-adv-x="302" 
d="M210 742c-23 0 -40 18 -40 40c0 29 27 55 55 55c24 0 40 -17 40 -40c0 -28 -24 -55 -55 -55zM126 0h-66l67 423h-85l9 57h85l27 172h66l-27 -172h111l-9 -57h-111z" />
    <glyph glyph-name="uni1E6B.alt" horiz-adv-x="306" 
d="M258 795c0 -29 -26 -53 -55 -53c-23 0 -41 18 -41 41c0 29 29 54 56 54c24 0 40 -19 40 -42zM231 43l-42 -53c-80 0 -133 28 -114 151l45 281h-82l9 58h82l27 172h66l-27 -172h113l-9 -58h-113l-43 -269c-17 -109 26 -109 88 -110z" />
    <glyph glyph-name="uni1E6B.alt2" horiz-adv-x="321" 
d="M283 795c0 -29 -25 -53 -54 -53c-23 0 -40 18 -40 40c0 29 27 55 55 55c24 0 39 -19 39 -42zM145 0h-66l67 423h-112l9 57h112l27 172h66l-27 -172h111l-9 -57h-111z" />
    <glyph glyph-name="uni1E6B.semp" horiz-adv-x="293" 
d="M233 795c0 -29 -25 -53 -55 -53c-22 0 -40 18 -40 41c0 29 28 54 55 54c24 0 40 -19 40 -42zM94 0h-66l104 659h66l-28 -179h134l-9 -57h-134z" />
    <glyph glyph-name="tbar" unicode="&#x167;" horiz-adv-x="303" 
d="M128 0h-66l43 274h-57l9 52h57l15 97h-85l9 57h85l27 172h66l-27 -172h111l-9 -57h-111l-15 -97h84l-9 -52h-84z" />
    <glyph glyph-name="tbar.alt" horiz-adv-x="307" 
d="M232 43l-42 -53c-80 0 -132 28 -113 151l21 133h-70l8 52h70l15 96h-82l10 58h82l27 172h66l-27 -172h113l-10 -58h-113l-15 -96h84l-8 -52h-84l-19 -121c-17 -108 26 -109 87 -110z" />
    <glyph glyph-name="rcommaaccent" unicode="&#x157;" horiz-adv-x="330" 
d="M37 -233h-73l114 190h79zM94 0h-66l76 481h66l-11 -69c10 22 59 82 111 82c36 0 66 -16 75 -22l-40 -63c-9 7 -26 20 -51 20c-54 0 -102 -66 -109 -107z" />
    <glyph glyph-name="tbar.alt2" horiz-adv-x="321" 
d="M146 0h-66l43 274h-84l9 52h84l15 97h-112l9 57h112l27 172h66l-27 -172h111l-9 -57h-111l-15 -97h84l-9 -52h-84z" />
    <glyph glyph-name="uni1E61" unicode="&#x1e61;" horiz-adv-x="398" 
d="M303 637c0 -29 -25 -53 -55 -53c-23 0 -39 18 -39 40c0 29 27 55 55 55c24 0 39 -19 39 -42zM-10 57l40 46c18 -26 54 -62 118 -62c74 0 111 48 111 96c0 107 -185 95 -185 223c0 79 70 135 161 135c70 0 114 -33 131 -56l-37 -48c-8 12 -41 50 -98 50
c-63 0 -88 -45 -88 -76c0 -83 185 -75 185 -217c0 -94 -80 -162 -186 -162c-83 0 -131 41 -152 71z" />
    <glyph glyph-name="sacute" unicode="&#x15b;" horiz-adv-x="398" 
d="M385 728l-173 -145l-33 27l153 163zM-10 57l40 46c18 -26 54 -62 118 -62c74 0 111 48 111 96c0 107 -185 95 -185 223c0 79 70 135 161 135c70 0 114 -33 131 -56l-37 -48c-8 12 -41 50 -98 50c-63 0 -88 -45 -88 -76c0 -83 185 -75 185 -217c0 -94 -80 -162 -186 -162
c-83 0 -131 41 -152 71z" />
    <glyph glyph-name="tbar.semp" horiz-adv-x="299" 
d="M101 0h-66l43 274h-68l8 52h68l53 333h66l-28 -179h134l-9 -57h-134l-16 -97h84l-8 -52h-84z" />
    <glyph glyph-name="uogonek" unicode="&#x173;" 
d="M336 -155l-9 -58c-22 -10 -52 -15 -80 -15c-54 0 -107 22 -107 79c0 48 32 95 98 137c-7 -1 -15 -1 -22 -1c-114 0 -184 62 -165 185l49 309h67l-47 -294c-16 -99 16 -142 109 -142c62 0 105 21 130 38l63 398h66l-67 -427c-27 -22 -55 -38 -87 -49
c-53 -30 -126 -73 -126 -133c0 -29 24 -45 57 -45c22 0 45 8 71 18z" />
    <glyph glyph-name="uhungarumlaut" unicode="&#x171;" 
d="M364 694l-196 -115l-23 31l178 133zM544 694l-196 -115l-23 31l178 133zM359 83l63 398h66l-67 -427c-55 -46 -128 -67 -199 -67c-117 0 -191 57 -171 185l49 309h67l-47 -294c-16 -99 16 -142 108 -142c64 0 106 21 131 38z" />
    <glyph glyph-name="umacron" unicode="&#x16b;" 
d="M483 591h-347l9 58h347zM359 83l63 398h66l-67 -427c-55 -46 -128 -67 -199 -67c-117 0 -191 57 -171 185l49 309h67l-47 -294c-16 -99 16 -142 108 -142c64 0 106 21 131 38z" />
    <glyph glyph-name="uring" unicode="&#x16f;" 
d="M431 704c0 -66 -60 -122 -124 -122c-53 0 -90 41 -90 93c0 68 60 124 125 124c52 0 89 -43 89 -95zM315 626c35 0 72 36 72 74c0 31 -22 56 -51 56c-36 0 -71 -34 -71 -73c0 -31 21 -57 50 -57zM359 83l63 398h66l-67 -427c-55 -46 -128 -67 -199 -67
c-117 0 -191 57 -171 185l49 309h67l-47 -294c-16 -99 16 -142 108 -142c64 0 106 21 131 38z" />
    <glyph glyph-name="utilde" unicode="&#x169;" 
d="M462 686l17 -37c-15 -17 -63 -64 -112 -64c-37 0 -65 45 -105 45c-30 0 -67 -31 -84 -46l-24 36c23 22 80 66 121 66s71 -46 104 -46c35 0 69 33 83 46zM359 83l63 398h66l-67 -427c-55 -46 -128 -67 -199 -67c-117 0 -191 57 -171 185l49 309h67l-47 -294
c-16 -99 16 -142 108 -142c64 0 106 21 131 38z" />
    <glyph glyph-name="ubreve" unicode="&#x16d;" 
d="M424 729h67c-15 -72 -80 -165 -196 -165c-80 0 -143 57 -134 165h70c-3 -17 -8 -108 73 -108c98 0 118 100 120 108zM359 83l63 398h66l-67 -427c-55 -46 -128 -67 -199 -67c-117 0 -191 57 -171 185l49 309h67l-47 -294c-16 -99 16 -142 108 -142c64 0 106 21 131 38z
" />
    <glyph glyph-name="wcircumflex" unicode="&#x175;" horiz-adv-x="699" 
d="M553 618l-43 -36l-102 96l-130 -96l-32 36l174 134h1zM450 -17h-19l-78 351l-189 -351h-19l-106 498h72l71 -353l195 366h8l77 -366l184 353h70z" />
    <glyph glyph-name="wgrave" unicode="&#x1e81;" horiz-adv-x="699" 
d="M458 610l-44 -27l-126 145l67 45zM450 -17h-19l-78 351l-189 -351h-19l-106 498h72l71 -353l195 366h8l77 -366l184 353h70z" />
    <glyph glyph-name="wacute" unicode="&#x1e83;" horiz-adv-x="699" 
d="M537 728l-172 -145l-35 27l154 163zM450 -17h-19l-78 351l-189 -351h-19l-106 498h72l71 -353l195 366h8l77 -366l184 353h70z" />
    <glyph glyph-name="wdieresis" unicode="&#x1e85;" horiz-adv-x="699" 
d="M556 642c0 -28 -22 -52 -56 -52c-22 0 -37 17 -37 39c0 28 24 53 52 53c27 0 41 -18 41 -40zM340 641c0 -28 -25 -51 -54 -51c-23 0 -40 17 -40 40c0 28 28 52 55 52c23 0 39 -18 39 -41zM450 -17h-19l-78 351l-189 -351h-19l-106 498h72l71 -353l195 366h8l77 -366
l184 353h70z" />
    <glyph glyph-name="scedilla" unicode="&#x15f;" horiz-adv-x="398" 
d="M98 -213h-64l100 164h75zM-10 57l40 46c18 -26 54 -62 118 -62c74 0 111 48 111 96c0 107 -185 95 -185 223c0 79 70 135 161 135c70 0 114 -33 131 -56l-37 -48c-8 12 -41 50 -98 50c-63 0 -88 -45 -88 -76c0 -83 185 -75 185 -217c0 -94 -80 -162 -186 -162
c-83 0 -131 41 -152 71z" />
    <glyph glyph-name="ygrave" unicode="&#x1ef3;" horiz-adv-x="480" 
d="M331 610l-45 -27l-126 145l67 45zM30 -259h-76l202 312l-120 428h74l95 -360l219 360h77z" />
    <glyph glyph-name="ycircumflex" unicode="&#x177;" horiz-adv-x="480" 
d="M437 618l-42 -36l-102 96l-131 -96l-32 36l175 134h1zM30 -259h-76l202 312l-120 428h74l95 -360l219 360h77z" />
    <glyph glyph-name="tcaron" unicode="&#x165;" horiz-adv-x="302" 
d="M331 575h-53l97 197h72zM126 0h-66l67 423h-85l9 57h85l27 172h66l-27 -172h111l-9 -57h-111z" />
    <glyph glyph-name="zacute" unicode="&#x17a;" horiz-adv-x="445" 
d="M426 728l-173 -145l-34 27l154 163zM357 1h-390l351 422h-238l9 57h353l-347 -422h271z" />
    <glyph glyph-name="zdotaccent" unicode="&#x17c;" horiz-adv-x="445" 
d="M317 637c0 -29 -24 -53 -55 -53c-21 0 -39 18 -39 41c0 29 28 54 54 54c25 0 40 -19 40 -42zM357 1h-390l351 422h-238l9 57h353l-347 -422h271z" />
    <glyph glyph-name="aeacute" unicode="&#x1fd;" horiz-adv-x="852" 
d="M625 728l-172 -145l-34 27l153 163zM734 107l24 -40c-37 -44 -114 -80 -201 -80c-69 0 -124 23 -161 70c-55 -46 -136 -70 -210 -70c-127 0 -176 70 -176 150c0 126 122 181 214 181c49 0 109 -16 136 -54l11 67c10 60 -16 106 -106 106c-62 0 -117 -22 -133 -29l-17 50
c35 16 90 36 159 36c91 0 145 -35 158 -90c40 56 121 90 198 90c146 0 191 -122 171 -240l-3 -18h-376c-20 -124 39 -192 152 -192c84 0 135 38 160 63zM369 103c-12 26 -19 63 -17 105c-22 26 -63 57 -124 57c-66 0 -148 -37 -148 -123c0 -65 47 -100 119 -100
c50 0 107 17 170 61zM434 289h305c4 80 -31 148 -120 148c-76 0 -158 -51 -185 -148z" />
    <glyph glyph-name="ff.semp2" horiz-adv-x="595" 
d="M457 422l-67 -422h-66l99 622c9 57 24 112 60 152c38 42 85 52 119 52c53 0 84 -20 91 -26l-37 -56c-11 7 -31 21 -62 21c-59 0 -91 -54 -103 -128l-25 -158h136l-9 -57h-136zM161 422l-67 -422h-66l91 575c9 57 25 112 61 152c38 42 85 52 119 52c53 0 84 -20 91 -26
l-37 -56c-11 7 -32 21 -63 21c-59 0 -90 -54 -102 -128l-18 -111h132l-9 -57h-132z" />
    <glyph glyph-name="ff.alt" horiz-adv-x="619" 
d="M88 -230h-66l103 653h-77l9 57h77l15 94c9 57 24 112 60 152c38 42 85 52 119 52c53 0 84 -20 91 -26l-37 -56c-11 7 -31 21 -62 21c-59 0 -91 -54 -103 -128l-17 -109h111l-9 -57h-111zM415 -122h-66l85 545h-73l9 57h74l22 142c9 57 23 112 59 152c38 42 85 52 120 52
c53 0 84 -20 90 -26l-36 -56c-11 7 -32 21 -63 21c-60 0 -90 -54 -102 -128l-25 -157h114l-9 -57h-114z" />
    <glyph glyph-name="ff.semp" horiz-adv-x="595" 
d="M58 -230h-66l127 805c9 57 25 112 61 152c38 42 85 52 119 52c53 0 84 -20 91 -26l-37 -56c-11 7 -32 21 -63 21c-59 0 -90 -54 -102 -128l-18 -111h132l-9 -57h-132zM371 -122h-66l118 744c9 57 24 112 60 152c38 42 85 52 119 52c53 0 84 -20 91 -26l-37 -56
c-11 7 -31 21 -62 21c-59 0 -91 -54 -103 -128l-25 -158h136l-9 -57h-136z" />
    <glyph glyph-name="fi.semp2" horiz-adv-x="523" 
d="M161 422l-67 -422h-66l98 614c9 57 24 112 60 152c38 42 85 52 119 52c53 0 84 -20 91 -26l-37 -56c-11 7 -32 21 -63 21c-59 0 -90 -54 -102 -128l-24 -150h133l-9 -57h-133zM394 0h-66l77 481h66zM513 635c0 -32 -30 -58 -59 -58c-25 0 -44 19 -44 44c0 32 29 58 60 58
c25 0 43 -20 43 -44z" />
    <glyph glyph-name="fi.alt" 
d="M407 0h-66l76 481h66zM524 629c0 -32 -29 -58 -59 -58c-23 0 -42 19 -42 44c0 32 28 58 59 58c25 0 42 -20 42 -44zM88 -230h-66l103 653h-77l9 57h77l21 134c9 57 24 112 60 152c38 42 86 52 120 52c53 0 83 -20 90 -26l-36 -56c-11 7 -32 21 -63 21
c-59 0 -90 -54 -102 -128l-24 -149h115l-9 -57h-115z" />
    <glyph glyph-name="fi.semp" horiz-adv-x="523" 
d="M394 0h-66l77 481h66zM513 635c0 -32 -30 -58 -59 -58c-25 0 -44 19 -44 44c0 32 29 58 60 58c25 0 43 -20 43 -44zM58 -230h-66l134 844c9 57 24 112 60 152c38 42 85 52 119 52c53 0 84 -20 91 -26l-37 -56c-11 7 -32 21 -63 21c-59 0 -90 -54 -102 -128l-24 -150h133
l-9 -57h-133z" />
    <glyph glyph-name="tcaron.alt" horiz-adv-x="306" 
d="M324 575h-53l96 197h73zM231 43l-42 -53c-80 0 -133 28 -114 151l45 281h-82l9 58h82l27 172h66l-27 -172h113l-9 -58h-113l-43 -269c-17 -109 26 -109 88 -110z" />
    <glyph glyph-name="f_j" horiz-adv-x="536" 
d="M124 0h-66l67 423h-77l9 57h77l21 134c9 57 24 112 60 152c38 42 86 52 120 52c53 0 83 -20 90 -26l-36 -56c-11 7 -32 21 -63 21c-59 0 -90 -54 -102 -128l-24 -149h115l-9 -57h-115zM231 -268l-19 53c103 42 106 61 136 252l70 444h66l-70 -440
c-32 -201 -46 -255 -183 -309zM466 571c-25 0 -42 19 -42 44c0 32 27 58 59 58c25 0 41 -19 41 -44c0 -32 -26 -58 -58 -58z" />
    <glyph glyph-name="fl.semp2" horiz-adv-x="528" 
d="M161 422l-67 -422h-66l96 602c9 57 24 112 60 152c38 42 85 52 119 52c53 0 84 -20 91 -26l-37 -56c-11 7 -32 21 -63 21c-59 0 -90 -54 -102 -128l-22 -138h132l-9 -57h-132zM397 0h-66l130 820h66z" />
    <glyph glyph-name="fl.alt" horiz-adv-x="540" 
d="M409 0h-66l130 820h66zM88 -230h-66l103 653h-77l9 57h77l19 121c9 57 24 112 60 152c38 42 86 52 120 52c53 0 83 -20 90 -26l-36 -56c-11 7 -32 21 -63 21c-59 0 -90 -54 -102 -128l-22 -136h110l-9 -57h-110z" />
    <glyph glyph-name="fl.semp" horiz-adv-x="528" 
d="M397 0h-66l130 820h66zM58 -230h-66l132 832c9 57 24 112 60 152c38 42 85 52 119 52c53 0 84 -20 91 -26l-37 -56c-11 7 -32 21 -63 21c-59 0 -90 -54 -102 -128l-22 -138h132l-9 -57h-132z" />
    <glyph glyph-name="f_t" horiz-adv-x="573" 
d="M396 0h-66l67 423h-206l-67 -423h-66l67 423h-77l9 57h77l21 134c9 57 24 112 60 152c38 42 86 52 120 52c53 0 83 -20 90 -26l-36 -56c-11 7 -32 21 -63 21c-59 0 -90 -54 -102 -128l-24 -149h206l27 172h66l-27 -172h112l-9 -57h-112z" />
    <glyph glyph-name="ffi.semp2" horiz-adv-x="820" 
d="M457 422l-67 -422h-66l99 622c9 57 24 112 60 152c38 42 85 52 119 52c53 0 84 -20 91 -26l-37 -56c-11 7 -31 21 -62 21c-59 0 -91 -54 -103 -128l-25 -158h134l-9 -57h-134zM161 422l-67 -422h-66l91 575c9 57 25 112 61 152c38 42 85 52 119 52c53 0 84 -20 91 -26
l-37 -56c-11 7 -32 21 -63 21c-59 0 -90 -54 -102 -128l-18 -111h133l-9 -57h-133zM691 0h-66l77 481h66zM810 635c0 -32 -28 -58 -59 -58c-25 0 -43 18 -43 44c0 33 28 58 59 58c26 0 43 -20 43 -44z" />
    <glyph glyph-name="ffi.alt" horiz-adv-x="842" 
d="M716 0h-66l76 481h66zM774 571c-25 0 -42 19 -42 44c0 31 28 58 59 58c24 0 41 -20 41 -44c0 -32 -28 -58 -58 -58zM88 -230h-66l103 653h-77l9 57h77l15 94c9 57 24 112 60 152c38 42 85 52 119 52c53 0 84 -20 91 -26l-37 -56c-11 7 -31 21 -62 21
c-59 0 -91 -54 -103 -128l-17 -109h111l-9 -57h-111zM415 -122h-66l85 545h-73l9 57h74l22 142c9 57 23 112 59 152c38 42 85 52 120 52c53 0 84 -20 90 -26l-36 -56c-11 7 -32 21 -63 21c-60 0 -90 -54 -102 -128l-25 -157h114l-9 -57h-114z" />
    <glyph glyph-name="ffi.semp" horiz-adv-x="820" 
d="M58 -230h-66l127 805c9 57 25 112 61 152c38 42 85 52 119 52c53 0 84 -20 91 -26l-37 -56c-11 7 -32 21 -63 21c-59 0 -90 -54 -102 -128l-18 -111h133l-9 -57h-133zM371 -122h-66l118 744c9 57 24 112 60 152c38 42 85 52 119 52c53 0 84 -20 91 -26l-37 -56
c-11 7 -31 21 -62 21c-59 0 -91 -54 -103 -128l-25 -158h134l-9 -57h-134zM691 0h-66l77 481h66zM810 635c0 -32 -28 -58 -59 -58c-25 0 -43 18 -43 44c0 33 28 58 59 58c26 0 43 -20 43 -44z" />
    <glyph glyph-name="ffl.semp2" horiz-adv-x="825" 
d="M458 422l-67 -422h-65l96 607c9 57 24 112 60 152c38 42 85 52 119 52c53 0 84 -20 91 -26l-37 -56c-11 7 -32 21 -63 21c-59 0 -90 -54 -102 -128l-23 -143h133l-9 -57h-133zM161 422l-67 -422h-66l91 570c9 57 24 112 60 152c38 42 85 52 119 52c53 0 84 -20 91 -26
l-37 -56c-11 7 -32 21 -63 21c-59 0 -90 -54 -102 -128l-17 -106h133l-9 -57h-133zM694 0h-66l130 820h66z" />
    <glyph glyph-name="ffl.alt" horiz-adv-x="849" 
d="M718 0h-66l130 820h66zM88 -230h-66l103 653h-77l9 57h77l14 90c9 57 24 112 60 152c38 42 86 52 120 52c53 0 83 -20 90 -26l-36 -56c-11 7 -32 21 -63 21c-59 0 -90 -54 -102 -128l-17 -105h111l-9 -57h-111zM415 -122h-66l85 545h-73l9 57h73l20 127
c9 57 23 112 59 152c38 42 85 52 120 52c53 0 84 -20 90 -26l-36 -56c-10 7 -31 21 -62 21c-60 0 -90 -54 -102 -128l-22 -142h110l-9 -57h-111z" />
    <glyph glyph-name="ffl.semp" horiz-adv-x="825" 
d="M694 0h-66l130 820h66zM58 -230h-66l127 800c9 57 24 112 60 152c38 42 85 52 119 52c53 0 84 -20 91 -26l-37 -56c-11 7 -32 21 -63 21c-59 0 -90 -54 -102 -128l-17 -106h133l-9 -57h-133zM372 -122h-65l115 729c9 57 24 112 60 152c38 42 85 52 119 52
c53 0 84 -20 91 -26l-37 -56c-11 7 -32 21 -63 21c-59 0 -90 -54 -102 -128l-23 -143h133l-9 -57h-133z" />
    <glyph glyph-name="ij" unicode="&#x133;" horiz-adv-x="453" 
d="M98 0h-66l76 481h66zM216 635c0 -32 -27 -58 -59 -58c-24 0 -42 19 -42 44c0 33 29 58 59 58c26 0 42 -18 42 -44zM147 -268l-19 53c103 42 106 61 136 252l70 444h67l-70 -440c-32 -201 -48 -255 -184 -309zM383 577c-26 0 -42 19 -42 43c0 34 26 59 59 59
c25 0 41 -19 41 -44c0 -32 -27 -58 -58 -58z" />
    <glyph glyph-name="ij.semp" horiz-adv-x="452" 
d="M98 0h-66l76 481h66zM216 635c0 -32 -27 -58 -59 -58c-24 0 -42 19 -42 44c0 33 29 58 59 58c26 0 42 -18 42 -44zM284 -251l-68 -15l118 747h66zM384 577c-26 0 -43 18 -43 43c0 34 26 59 58 59c26 0 42 -19 42 -44c0 -32 -25 -58 -57 -58z" />
    <glyph glyph-name="eng" unicode="&#x14b;" horiz-adv-x="535" 
d="M237 -268l-19 53c103 42 106 61 136 252l39 247c16 103 8 148 -97 148c-63 0 -120 -41 -144 -64l-58 -368h-66l76 481h66l-8 -51c30 24 87 64 164 64c106 0 158 -55 138 -179l-44 -274c-32 -201 -47 -255 -183 -309z" />
    <glyph glyph-name="eng.alt" 
d="M237 -268l-19 53c103 42 106 61 136 252l41 257c16 100 -25 141 -107 141c-60 0 -109 -22 -133 -40l-63 -395h-66l68 431c53 35 124 63 202 63c115 0 187 -62 167 -185l-43 -268c-32 -199 -46 -255 -183 -309z" />
    <glyph glyph-name="germandbls.alt" horiz-adv-x="532" 
d="M161 11l23 59c27 -14 46 -24 78 -24c64 0 143 40 143 122c0 50 -30 69 -75 97c-41 26 -86 58 -86 139c0 86 50 128 96 177c31 33 57 67 57 115c0 61 -42 75 -72 75c-60 0 -118 -55 -132 -144l-99 -627h-66l98 617c24 150 102 210 204 210c93 0 132 -49 132 -119
c0 -76 -47 -121 -98 -178c-28 -32 -55 -63 -55 -111c0 -56 38 -84 77 -109c48 -31 90 -59 90 -131c0 -106 -90 -191 -221 -191c-42 0 -64 9 -94 23z" />
    <glyph glyph-name="germandbls.semp" horiz-adv-x="532" 
d="M153 -246l11 57c94 15 225 105 225 245c0 63 -33 111 -105 111c-24 0 -53 -5 -85 -14l198 270h-206l-106 -667h-66l106 667h-73l9 57h73l21 134c9 57 24 112 60 152c38 42 85 52 120 52c52 0 84 -20 90 -26l-36 -56c-12 7 -32 21 -63 21c-59 0 -91 -54 -103 -128
l-24 -149h308l-208 -268c12 2 24 3 34 3c74 0 123 -63 123 -152c0 -197 -215 -296 -303 -309z" />
    <glyph glyph-name="a.sc.semp" horiz-adv-x="537" 
d="M482 0h-73l-29 96h-281l-60 -96h-77l346 546zM363 152l-77 251l-154 -251h231z" />
    <glyph glyph-name="b.sc" horiz-adv-x="489" 
d="M189 0h-149l84 528h117c91 0 167 -25 167 -108c0 -73 -58 -121 -104 -136c45 -8 109 -41 109 -124c0 -91 -78 -160 -224 -160zM157 301h38c92 0 140 39 140 102c0 50 -31 62 -108 62h-44zM119 63h70c103 0 151 38 151 96c0 52 -40 79 -102 79h-91z" />
    <glyph glyph-name="j.sc.semp" horiz-adv-x="362" 
d="M209 221l39 244h-140l9 62h209l-54 -342c-24 -149 -84 -198 -189 -198c-46 0 -87 18 -112 39l27 58c18 -15 47 -35 85 -35c82 0 108 59 126 172z" />
    <glyph glyph-name="k.sc" horiz-adv-x="520" 
d="M468 0h-92l-231 228l-36 -228h-69l84 528h69l-36 -223l260 223h92l-313 -262z" />
    <glyph glyph-name="p.sc" horiz-adv-x="452" 
d="M109 0h-69l84 528h112c106 0 185 -32 185 -139c0 -106 -78 -193 -229 -193h-52zM150 259h43c97 0 155 53 155 124c0 57 -37 82 -104 82h-61z" />
    <glyph glyph-name="v.sc" horiz-adv-x="514" 
d="M203 -25l-160 553h75l106 -388c1 -5 3 -12 2 -20c3 8 5 15 8 20l226 388h77z" />
    <glyph glyph-name="w.sc" horiz-adv-x="768" 
d="M503 -24l-108 400l-235 -398l-112 550h75l70 -368c2 -8 0 -16 0 -25c1 9 4 17 8 25l221 386l99 -387c2 -8 1 -21 2 -21c3 10 4 14 7 21l183 369h72z" />
    <glyph glyph-name="x.sc" horiz-adv-x="519" 
d="M444 0h-89l-109 217l-184 -217h-87l241 273l-143 255h88l103 -202l168 202h89l-229 -257z" />
    <glyph glyph-name="y.sc" horiz-adv-x="459" 
d="M213 0h-69l36 226l-137 302h81l98 -238l183 238h80l-237 -303z" />
    <glyph glyph-name="z.sc" horiz-adv-x="491" 
d="M399 1h-429l380 464l-243 -1l10 63h366l-381 -464l307 1z" />
    <glyph glyph-name="eth.sc" horiz-adv-x="579" 
d="M179 0h-136l37 234h-61l9 56h61l38 238h127c156 0 265 -78 265 -224c0 -197 -140 -304 -340 -304zM122 63h60c154 0 263 76 263 233c0 107 -79 169 -188 169h-71l-28 -175h139l-9 -56h-139z" />
    <glyph glyph-name="thorn.sc" horiz-adv-x="450" 
d="M109 0h-69l84 528h69l-16 -98h53c98 0 176 -32 176 -138s-77 -194 -228 -194h-53zM134 161h43c97 0 156 53 156 124c0 58 -40 82 -105 82h-61z" />
    <glyph glyph-name="aacute.sc" horiz-adv-x="537" 
d="M436 748l-172 -145l-35 27l155 163zM482 0h-73l-40 126h-252l-78 -126h-77l346 546zM349 189l-65 208l-128 -208h193z" />
    <glyph glyph-name="aacute.sc.semp" horiz-adv-x="537" 
d="M436 748l-172 -145l-35 27l155 163zM482 0h-73l-29 96h-281l-60 -96h-77l346 546zM363 152l-77 251l-154 -251h231z" />
    <glyph glyph-name="acircumflex.sc" horiz-adv-x="537" 
d="M477 640l-42 -36l-102 96l-131 -96l-32 36l176 134zM482 0h-73l-40 126h-252l-78 -126h-77l346 546zM349 189l-65 208l-128 -208h193z" />
    <glyph glyph-name="acircumflex.sc.semp" horiz-adv-x="537" 
d="M477 640l-42 -36l-102 96l-131 -96l-32 36l176 134zM482 0h-73l-29 96h-281l-60 -96h-77l346 546zM363 152l-77 251l-154 -251h231z" />
    <glyph glyph-name="adieresis.sc" horiz-adv-x="537" 
d="M264 658c0 -27 -28 -51 -56 -51c-22 0 -38 18 -38 40c0 29 27 52 53 52c24 0 41 -17 41 -41zM479 659c0 -28 -24 -52 -55 -52c-24 0 -38 18 -38 39c0 29 22 53 53 53c25 0 40 -17 40 -40zM482 0h-73l-40 126h-252l-78 -126h-77l346 546zM349 189l-65 208l-128 -208h193z
" />
    <glyph glyph-name="adieresis.sc.semp" horiz-adv-x="537" 
d="M264 658c0 -27 -26 -51 -56 -51c-22 0 -38 18 -38 40c0 29 27 52 53 52c24 0 41 -17 41 -41zM479 659c0 -28 -24 -52 -55 -52c-24 0 -38 18 -38 39c0 29 22 53 53 53c25 0 40 -17 40 -40zM482 0h-73l-29 96h-281l-60 -96h-77l346 546zM363 152l-77 251l-154 -251h231z
" />
    <glyph glyph-name="agrave.sc" horiz-adv-x="537" 
d="M387 629l-45 -27l-126 145l67 45zM482 0h-73l-40 126h-252l-78 -126h-77l346 546zM349 189l-65 208l-128 -208h193z" />
    <glyph glyph-name="agrave.sc.semp" horiz-adv-x="537" 
d="M387 629l-45 -27l-126 145l67 45zM482 0h-73l-29 96h-281l-60 -96h-77l346 546zM363 152l-77 251l-154 -251h231z" />
    <glyph glyph-name="aring.sc" horiz-adv-x="537" 
d="M442 716c0 -66 -60 -122 -124 -122c-54 0 -89 41 -89 93c0 68 58 124 123 124c52 0 90 -43 90 -95zM326 638c36 0 71 36 71 74c0 31 -21 56 -50 56c-37 0 -71 -34 -71 -73c0 -31 20 -57 50 -57zM482 0h-73l-40 126h-252l-78 -126h-77l346 546zM349 189l-65 208l-128 -208
h193z" />
    <glyph glyph-name="aring.sc.semp" horiz-adv-x="537" 
d="M442 716c0 -66 -60 -122 -124 -122c-53 0 -89 41 -89 93c0 68 59 124 123 124c53 0 90 -43 90 -95zM326 638c36 0 71 36 71 74c0 31 -21 56 -50 56c-37 0 -71 -34 -71 -73c0 -31 20 -57 50 -57zM482 0h-73l-29 96h-281l-60 -96h-77l346 546zM363 152l-77 251l-154 -251
h231z" />
    <glyph glyph-name="atilde.sc" horiz-adv-x="537" 
d="M470 707l18 -37c-14 -17 -64 -64 -112 -64c-38 0 -65 45 -105 45c-30 0 -67 -31 -85 -46l-23 36c23 22 80 66 121 66s70 -46 104 -46c35 0 69 33 82 46zM482 0h-73l-40 126h-252l-78 -126h-77l346 546zM349 189l-65 208l-128 -208h193z" />
    <glyph glyph-name="atilde.sc.semp" horiz-adv-x="537" 
d="M470 707l18 -37c-14 -17 -63 -64 -112 -64c-37 0 -65 45 -105 45c-30 0 -67 -31 -84 -46l-24 36c23 22 80 66 121 66s70 -46 104 -46c35 0 69 33 82 46zM482 0h-73l-29 96h-281l-60 -96h-77l346 546zM363 152l-77 251l-154 -251h231z" />
    <glyph glyph-name="aogonek.sc" horiz-adv-x="537" 
d="M488 -153l-9 -58c-22 -10 -52 -15 -80 -15c-54 0 -107 22 -107 79c0 52 41 105 117 147l-40 126h-252l-78 -126h-77l346 546l177 -554c-65 -29 -125 -61 -125 -118c0 -29 23 -45 57 -45c22 0 44 8 71 18zM349 189l-65 208l-128 -208h193z" />
    <glyph glyph-name="aogonek.sc.semp" horiz-adv-x="537" 
d="M488 -153l-9 -58c-22 -10 -52 -15 -80 -15c-54 0 -107 22 -107 79c0 52 41 105 117 147l-29 96h-281l-60 -96h-77l346 546l177 -554c-65 -29 -125 -61 -125 -118c0 -29 23 -45 57 -45c22 0 44 8 71 18zM363 152l-77 251l-154 -251h231z" />
    <glyph glyph-name="abreve.sc" horiz-adv-x="537" 
d="M422 734h58c-13 -62 -70 -144 -168 -144c-70 0 -123 50 -114 144h60c-2 -14 -8 -94 61 -94c83 0 102 87 103 94zM482 0h-73l-40 126h-252l-78 -126h-77l346 546zM349 189l-65 208l-128 -208h193z" />
    <glyph glyph-name="abreve.sc.semp" horiz-adv-x="537" 
d="M422 734h58c-13 -62 -70 -144 -168 -144c-70 0 -123 50 -114 144h60c-2 -14 -8 -94 61 -94c83 0 102 87 103 94zM482 0h-73l-29 96h-281l-60 -96h-77l346 546zM363 152l-77 251l-154 -251h231z" />
    <glyph glyph-name="amacron.sc" horiz-adv-x="537" 
d="M485 596h-335l10 58h335zM482 0h-73l-40 126h-252l-78 -126h-77l346 546zM349 189l-65 208l-128 -208h193z" />
    <glyph glyph-name="amacron.sc.semp" horiz-adv-x="537" 
d="M485 596h-335l10 58h335zM482 0h-73l-29 96h-281l-60 -96h-77l346 546zM363 152l-77 251l-154 -251h231z" />
    <glyph glyph-name="uni1E03.sc" horiz-adv-x="489" 
d="M327 658c0 -27 -28 -51 -56 -51c-23 0 -38 18 -38 39c0 30 25 53 53 53c24 0 41 -17 41 -41zM189 0h-149l84 528h117c91 0 167 -25 167 -108c0 -73 -58 -121 -104 -136c45 -8 109 -41 109 -124c0 -91 -78 -160 -224 -160zM157 301h38c92 0 140 39 140 102
c0 50 -31 62 -108 62h-44zM119 63h70c103 0 151 38 151 96c0 52 -40 79 -102 79h-91z" />
    <glyph glyph-name="ccedilla.sc" horiz-adv-x="575" 
d="M198 -248h-67l102 170h77zM466 102l24 -47c-49 -38 -114 -66 -193 -66c-154 0 -253 105 -253 244c0 170 150 306 329 306c100 0 155 -42 181 -71l-46 -48c-29 34 -78 57 -142 57c-138 0 -248 -107 -248 -239c0 -110 77 -187 191 -187c67 0 126 26 157 51z" />
    <glyph glyph-name="cacute.sc" horiz-adv-x="575" 
d="M485 748l-173 -145l-35 27l155 163zM466 102l24 -47c-49 -38 -114 -66 -193 -66c-154 0 -253 105 -253 244c0 170 150 306 329 306c100 0 155 -42 181 -71l-46 -48c-29 34 -78 57 -142 57c-138 0 -248 -107 -248 -239c0 -110 77 -187 191 -187c67 0 126 26 157 51z" />
    <glyph glyph-name="ccaron.sc" horiz-adv-x="575" 
d="M534 738l-174 -134l-132 134l42 36l101 -96l132 96zM466 102l24 -47c-49 -38 -114 -66 -193 -66c-154 0 -253 105 -253 244c0 170 150 306 329 306c100 0 155 -42 181 -71l-46 -48c-29 34 -78 57 -142 57c-138 0 -248 -107 -248 -239c0 -110 77 -187 191 -187
c67 0 126 26 157 51z" />
    <glyph glyph-name="ccircumflex.sc" horiz-adv-x="575" 
d="M509 640l-43 -36l-102 96l-131 -96l-31 36l175 134zM466 102l24 -47c-49 -38 -114 -66 -193 -66c-154 0 -253 105 -253 244c0 170 150 306 329 306c100 0 155 -42 181 -71l-46 -48c-29 34 -78 57 -142 57c-138 0 -248 -107 -248 -239c0 -110 77 -187 191 -187
c67 0 126 26 157 51z" />
    <glyph glyph-name="cdotaccent.sc" horiz-adv-x="575" 
d="M413 658c0 -27 -26 -51 -55 -51c-22 0 -39 18 -39 40c0 29 27 52 53 52c24 0 41 -17 41 -41zM466 102l24 -47c-49 -38 -114 -66 -193 -66c-154 0 -253 105 -253 244c0 170 150 306 329 306c100 0 155 -42 181 -71l-46 -48c-29 34 -78 57 -142 57
c-138 0 -248 -107 -248 -239c0 -110 77 -187 191 -187c67 0 126 26 157 51z" />
    <glyph glyph-name="dcaron.sc" horiz-adv-x="576" 
d="M492 736l-174 -134l-132 134l42 36l100 -96l132 96zM176 0h-136l84 528h127c156 0 265 -78 265 -224c0 -197 -140 -304 -340 -304zM119 63h60c154 0 263 76 263 233c0 107 -79 169 -188 169h-71z" />
    <glyph glyph-name="dcroat.sc" horiz-adv-x="579" 
d="M179 0h-136l37 234h-61l9 56h61l38 238h127c156 0 265 -78 265 -224c0 -197 -140 -304 -340 -304zM122 63h60c154 0 263 76 263 233c0 107 -79 169 -188 169h-71l-28 -175h139l-9 -56h-139z" />
    <glyph glyph-name="uni1E0B.sc" horiz-adv-x="576" 
d="M372 658c0 -27 -26 -51 -56 -51c-22 0 -38 18 -38 40c0 29 27 52 53 52c24 0 41 -17 41 -41zM176 0h-136l84 528h127c156 0 265 -78 265 -224c0 -197 -140 -304 -340 -304zM119 63h60c154 0 263 76 263 233c0 107 -79 169 -188 169h-71z" />
    <glyph glyph-name="four.sc" horiz-adv-x="482" 
d="M314 -5h-66l16 99h-271l4 17l383 436h22l-63 -396h73l-9 -57h-73zM276 149l39 241l-211 -241h172z" />
    <glyph glyph-name="three.sc" horiz-adv-x="429" 
d="M262 293v-1c62 -27 83 -79 83 -128c0 -93 -75 -174 -205 -174c-92 0 -135 41 -148 56l37 48c8 -16 49 -49 115 -49c89 0 135 60 135 117c0 58 -47 109 -137 109l5 37c92 2 152 52 152 105c0 36 -28 62 -76 62c-32 0 -70 -12 -94 -28l-14 47c17 14 72 39 126 39
c81 0 125 -56 125 -112c0 -44 -27 -95 -104 -128z" />
    <glyph glyph-name="two.sc" horiz-adv-x="464" 
d="M367 1h-382l1 27c45 23 356 223 356 369c0 47 -31 84 -81 84c-53 0 -99 -33 -122 -55l-26 42c26 23 86 71 163 71c84 0 135 -58 135 -134c0 -137 -164 -267 -292 -348c86 0 172 1 257 1z" />
    <glyph glyph-name="one.sc" horiz-adv-x="289" 
d="M153 -1h-67l72 454l-95 -34l-12 49l187 72z" />
    <glyph glyph-name="zero_slash.sc.alt" horiz-adv-x="662" 
d="M604 303c0 -173 -152 -314 -320 -314c-144 0 -238 104 -238 242c0 175 152 308 320 308c145 0 238 -100 238 -236zM174 92l258 370c-21 10 -47 15 -75 15c-129 0 -239 -108 -239 -241c0 -57 20 -112 56 -144zM477 434l-257 -370c20 -9 42 -13 68 -13
c136 0 243 109 243 244c0 57 -19 108 -54 139z" />
    <glyph glyph-name="zero.sc.alt" horiz-adv-x="662" 
d="M604 303c0 -173 -152 -314 -320 -314c-144 0 -238 104 -238 242c0 175 152 308 320 308c145 0 238 -100 238 -236zM294 51c127 0 237 109 237 243c0 106 -68 183 -176 183c-127 0 -237 -108 -237 -241c0 -100 63 -185 176 -185z" />
    <glyph glyph-name="zero_slash.sc" horiz-adv-x="522" 
d="M218 -9c-141 0 -171 109 -171 201c0 86 26 346 243 346c141 0 171 -109 171 -201c0 -81 -23 -346 -243 -346zM135 92l202 378c-14 7 -30 11 -50 11c-117 0 -172 -135 -172 -272c0 -41 5 -90 20 -117zM374 434l-203 -376c12 -7 29 -11 48 -11c121 0 174 148 174 275
c0 39 -5 85 -19 112z" />
    <glyph glyph-name="zero.sc" horiz-adv-x="522" 
d="M218 -9c-141 0 -171 109 -171 201c0 86 26 346 243 346c141 0 171 -109 171 -201c0 -81 -23 -346 -243 -346zM223 47c113 0 170 144 170 273c0 73 -18 161 -109 161c-113 0 -169 -137 -169 -269c0 -73 17 -165 108 -165z" />
    <glyph glyph-name="nine.osf" horiz-adv-x="540" 
d="M146 -266l-40 45c56 54 174 186 248 296c-31 -30 -81 -42 -122 -42c-115 0 -197 95 -197 213c0 148 129 268 278 268c135 0 204 -99 204 -200c0 -199 -268 -476 -371 -580zM250 94c108 0 195 99 195 205c0 86 -57 152 -145 152c-106 0 -191 -95 -191 -204
c0 -82 49 -153 141 -153z" />
    <glyph glyph-name="eight.osf" horiz-adv-x="589" 
d="M406 363c50 -26 92 -71 92 -148c0 -131 -124 -229 -251 -229c-114 0 -192 80 -192 183c0 106 84 170 148 195c-49 24 -88 73 -88 150c0 142 133 219 246 219c106 0 187 -67 187 -172c0 -94 -64 -170 -142 -198zM425 209c0 69 -52 127 -128 127c-87 0 -170 -76 -170 -164
c0 -69 52 -126 127 -126c88 0 171 77 171 163zM474 550c0 69 -49 123 -122 123c-85 0 -167 -74 -167 -159c0 -67 50 -122 126 -122c85 0 163 70 163 158z" />
    <glyph glyph-name="six.osf" horiz-adv-x="587" 
d="M415 766l40 -45c-56 -54 -174 -186 -248 -296c31 30 81 42 122 42c116 0 197 -95 197 -211c0 -142 -122 -270 -272 -270c-132 0 -210 98 -210 203c0 197 276 480 371 577zM262 49c106 0 192 95 192 203c0 83 -50 154 -142 154c-107 0 -195 -98 -195 -205
c0 -86 57 -152 145 -152z" />
    <glyph glyph-name="four.osf" horiz-adv-x="627" 
d="M375 -236h-66l38 239h-369l-3 19l520 530h5l-78 -489c43 0 87 1 129 1l-10 -61h-128zM356 62l51 319l-311 -321z" />
    <glyph glyph-name="zero_slash.osf" horiz-adv-x="633" 
d="M264 -18c-126 0 -215 101 -215 230c0 165 144 304 300 304c127 0 217 -102 217 -231c0 -165 -146 -303 -302 -303zM449 406l-241 -345c20 -9 43 -14 68 -14c117 0 224 104 224 228c0 52 -19 100 -51 131zM162 90l241 345c-19 9 -40 14 -64 14c-116 0 -223 -105 -223 -231
c0 -51 17 -99 46 -128z" />
    <glyph glyph-name="nine.tab" horiz-adv-x="624" 
d="M208 -18l-40 45c56 54 174 186 248 296c-31 -30 -81 -42 -122 -42c-115 0 -197 95 -197 213c0 148 129 268 278 268c135 0 204 -99 204 -200c0 -199 -268 -476 -371 -580zM312 342c108 0 195 99 195 205c0 86 -57 152 -145 152c-106 0 -191 -95 -191 -204
c0 -82 49 -153 141 -153z" />
    <glyph glyph-name="eight.tab" horiz-adv-x="625" 
d="M427 378c48 -26 90 -72 90 -152c0 -137 -125 -240 -252 -240c-113 0 -191 81 -191 189c0 111 83 177 150 204c-55 29 -88 83 -88 155c0 145 134 229 249 229c105 0 185 -70 185 -178c0 -102 -71 -177 -143 -207zM273 46c88 0 172 81 172 173c0 72 -51 132 -127 132
c-88 0 -172 -80 -172 -173c0 -73 52 -132 127 -132zM332 408c86 0 164 74 164 166c0 73 -48 129 -121 129c-86 0 -168 -78 -168 -168c0 -69 49 -127 125 -127z" />
    <glyph glyph-name="seven.tab" horiz-adv-x="623" 
d="M141 -7h-79l439 694l-342 -1l10 63h449z" />
    <glyph glyph-name="six.tab" horiz-adv-x="624" 
d="M437 766l40 -45c-56 -54 -174 -186 -248 -296c31 30 81 42 122 42c116 0 197 -95 197 -211c0 -142 -122 -270 -272 -270c-132 0 -210 98 -210 203c0 197 276 480 371 577zM284 49c106 0 192 95 192 203c0 83 -50 154 -142 154c-107 0 -195 -98 -195 -205
c0 -86 57 -152 145 -152z" />
    <glyph glyph-name="five.tab" horiz-adv-x="623" 
d="M40 45l36 58c40 -34 92 -54 144 -54c145 0 219 113 219 215c0 80 -48 154 -162 154c-34 0 -69 -6 -116 -21l148 352h264l-27 -60h-200l-90 -220c20 3 37 4 56 4c118 0 202 -79 202 -196c0 -141 -102 -290 -294 -290c-88 0 -161 41 -180 58z" />
    <glyph glyph-name="four.tab" horiz-adv-x="623" 
d="M423 -4h-67l24 151h-359l-2 19l521 609h6l-89 -566h96l-10 -62h-96zM390 209l60 377l-307 -377h247z" />
    <glyph glyph-name="three.tab" horiz-adv-x="624" 
d="M39 65l40 54c10 -21 60 -72 153 -72c126 0 196 93 196 183c0 85 -62 167 -181 169l6 36c131 7 208 91 208 168c0 53 -37 95 -107 95c-43 0 -92 -16 -128 -41l-15 50c20 19 91 55 163 55c103 0 157 -74 157 -152c0 -68 -40 -144 -143 -189v-2c74 -34 111 -107 111 -186
c0 -132 -104 -246 -272 -246c-117 0 -170 55 -188 78z" />
    <glyph glyph-name="two.tab" horiz-adv-x="623" 
d="M497 0h-489l-3 14c30 32 485 345 485 556c0 72 -42 131 -113 131s-135 -51 -164 -83l-29 47c33 31 109 97 208 97c108 0 171 -78 171 -182c0 -197 -214 -371 -412 -519l356 2z" />
    <glyph glyph-name="one.tab" horiz-adv-x="623" 
d="M510 1h-480l10 64h212l97 609l-158 -69l-13 54l255 110l-112 -704h199z" />
    <glyph glyph-name="zero_slash.tab" horiz-adv-x="624" 
d="M263 -13c-164 0 -199 148 -199 289c0 249 108 486 316 486c163 0 200 -145 200 -291c0 -252 -111 -484 -317 -484zM158 122l294 551c-19 17 -46 27 -80 27c-154 0 -236 -203 -236 -420c0 -54 5 -121 22 -158zM488 625l-297 -549c19 -18 45 -28 79 -28
c160 0 239 219 239 424c0 52 -5 118 -21 153z" />
    <glyph glyph-name="zero.tab" horiz-adv-x="624" 
d="M263 -13c-164 0 -199 148 -199 289c0 249 108 486 316 486c163 0 200 -145 200 -291c0 -252 -111 -484 -317 -484zM274 48c151 0 234 217 234 418c0 115 -27 234 -140 234c-150 0 -232 -209 -232 -415c0 -105 21 -237 138 -237z" />
    <glyph glyph-name="five.alt" horiz-adv-x="527" 
d="M-14 65l42 57c11 -13 82 -72 169 -72c103 0 196 84 196 195c0 118 -104 193 -258 217l145 279h249l-28 -64h-182l-90 -175c134 -26 237 -100 237 -244c0 -159 -124 -270 -277 -270c-114 0 -191 61 -203 77z" />
    <glyph glyph-name="question.sc" horiz-adv-x="365" 
d="M276 258l26 -32c-19 -26 -80 -75 -150 -75c-52 0 -103 34 -103 91c0 66 58 101 103 127c49 29 99 60 99 98c0 22 -17 39 -41 39c-34 0 -65 -19 -82 -31l-20 37c22 16 66 43 118 43c59 0 85 -40 85 -82c0 -66 -79 -108 -123 -138c-39 -26 -79 -43 -79 -86
c0 -27 22 -49 54 -49c50 0 95 39 113 58zM181 50c0 -32 -29 -60 -61 -60c-25 0 -43 21 -43 45c0 34 29 61 60 61c26 0 44 -20 44 -46z" />
    <glyph glyph-name="questiondown.sc" horiz-adv-x="364" 
d="M224 57l20 -37c-21 -16 -66 -43 -118 -43c-59 0 -85 40 -85 82c0 66 79 108 123 138c39 26 79 43 79 86c0 27 -22 49 -54 49c-50 0 -95 -39 -112 -58l-27 32c19 26 80 75 151 75c52 0 102 -34 102 -91c0 -66 -58 -101 -103 -127c-49 -29 -98 -60 -98 -98
c0 -22 16 -39 40 -39c34 0 66 19 82 31zM276 496c0 -33 -30 -60 -61 -60c-26 0 -44 20 -44 46c0 32 29 60 61 60c25 0 44 -21 44 -46z" />
    <glyph glyph-name="exclam.sc" horiz-adv-x="243" 
d="M119 152h-46l49 396h80zM133 49c0 -31 -29 -59 -60 -59c-26 0 -44 21 -44 45c0 34 29 61 61 61c24 0 43 -20 43 -47z" />
    <glyph glyph-name="exclamdown.sc" horiz-adv-x="245" 
d="M114 -10h-80l77 396h46zM145 442c-24 0 -44 20 -44 47c0 31 29 59 60 59c26 0 45 -21 45 -45c0 -34 -29 -61 -61 -61z" />
    <glyph glyph-name="commaaccent" horiz-adv-x="301" 
d="M85 -233h-73l114 190h79z" />
    <glyph glyph-name="periodcentered.sc" horiz-adv-x="256" 
d="M176 280c0 -32 -29 -58 -61 -58c-27 0 -45 20 -45 44c0 33 29 59 61 59c27 0 45 -19 45 -45z" />
    <glyph glyph-name="plus.sc" horiz-adv-x="466" 
d="M405 224h-156l-25 -158h-59l25 158h-156l9 56h156l25 159h59l-25 -159h156z" />
    <glyph glyph-name="plus.dnom" horiz-adv-x="403" 
d="M346 169h-140l-20 -127h-54l20 127h-139l8 51h139l21 132h54l-21 -132h140z" />
    <glyph glyph-name="plus.sup" horiz-adv-x="405" 
d="M403 516h-141l-20 -127h-53l20 127h-141l8 51h141l21 132h53l-21 -132h141z" />
    <glyph glyph-name="plus.sinf" horiz-adv-x="406" 
d="M320 -11h-141l-20 -127h-53l20 127h-141l8 51h141l21 132h53l-21 -132h141z" />
    <glyph glyph-name="minus.sc" horiz-adv-x="523" 
d="M434 224h-371l9 56h371z" />
    <glyph glyph-name="minus.dnom" horiz-adv-x="448" 
d="M369 169h-333l8 51h333z" />
    <glyph glyph-name="minus.sup" horiz-adv-x="448" 
d="M424 516h-333l8 51h333z" />
    <glyph glyph-name="minus.sinf" horiz-adv-x="449" 
d="M341 -11h-333l8 51h333z" />
    <glyph glyph-name="multiply.sc" horiz-adv-x="466" 
d="M374 124l-50 -38l-102 135l-148 -135l-39 37l152 135l-109 138l50 39l107 -140l144 140l38 -39l-148 -137z" />
    <glyph glyph-name="multiply.dnom" horiz-adv-x="394" 
d="M313 87l-45 -32l-95 103l-125 -102l-37 30l131 106l-96 105l45 32l94 -103l126 103l34 -32l-128 -105z" />
    <glyph glyph-name="multiply.sup" horiz-adv-x="393" 
d="M368 434l-45 -32l-95 103l-125 -102l-37 30l131 106l-96 105l45 32l94 -103l126 103l34 -32l-128 -105z" />
    <glyph glyph-name="multiply.sinf" horiz-adv-x="392" 
d="M284 -93l-45 -32l-95 103l-125 -102l-37 30l131 106l-96 105l45 32l94 -103l126 103l34 -32l-128 -105z" />
    <glyph glyph-name="divide.sc" horiz-adv-x="503" 
d="M424 223h-371l9 56h371zM310 398c0 -24 -24 -49 -52 -49c-20 0 -36 19 -36 39c0 25 26 50 50 50c25 0 38 -19 38 -40zM266 115c0 -24 -25 -50 -53 -50c-20 0 -35 20 -35 39c0 25 25 50 49 50c25 0 39 -19 39 -39z" />
    <glyph glyph-name="divide.dnom" horiz-adv-x="428" 
d="M359 169h-333l8 52h333zM216 91c0 -19 -19 -39 -43 -39c-17 0 -30 15 -30 31c0 19 22 39 42 39s31 -15 31 -31zM250 305c0 -19 -19 -38 -42 -38c-18 0 -31 15 -31 31c0 19 21 38 41 38s32 -15 32 -31z" />
    <glyph glyph-name="divide.sup" horiz-adv-x="429" 
d="M414 516h-333l8 52h333zM271 438c0 -19 -19 -39 -43 -39c-17 0 -30 15 -30 31c0 19 22 39 42 39s31 -15 31 -31zM305 652c0 -19 -19 -38 -42 -38c-18 0 -31 15 -31 31c0 19 21 38 41 38s32 -15 32 -31z" />
    <glyph glyph-name="divide.sinf" horiz-adv-x="429" 
d="M331 -11h-333l8 52h333zM188 -89c0 -19 -18 -39 -43 -39c-17 0 -30 15 -30 31c0 19 22 39 42 39s31 -15 31 -31zM222 125c0 -19 -19 -38 -42 -38c-18 0 -31 15 -31 31c0 19 21 38 41 38s32 -15 32 -31z" />
    <glyph glyph-name="equal.sc" horiz-adv-x="523" 
d="M447 304h-371l9 57h371zM422 148h-371l9 56h371z" />
    <glyph glyph-name="equal.dnom" horiz-adv-x="448" 
d="M358 100h-333l8 52h333zM380 237h-333l8 51h333z" />
    <glyph glyph-name="equal.sup" horiz-adv-x="449" 
d="M413 447h-333l8 52h333zM435 584h-333l8 51h333z" />
    <glyph glyph-name="equal.sinf" horiz-adv-x="449" 
d="M330 -80h-333l8 52h333zM352 57h-333l8 51h333z" />
    <glyph glyph-name="notequal" unicode="&#x2260;" horiz-adv-x="644" 
d="M554 214h-256l-93 -215l-58 7l91 208h-184l10 61h204l71 165h-249l10 62h269l94 205l53 -10l-87 -195h171l-10 -62h-192l-69 -165h235z" />
    <glyph glyph-name="notequal.sc" horiz-adv-x="475" 
d="M396 138h-182l-81 -195l-52 16l74 179h-130l9 55h144l44 107h-171l9 57h185l82 198l51 -20l-74 -178h127l-9 -57h-141l-44 -107h168z" />
    <glyph glyph-name="plusminus.sc" horiz-adv-x="501" 
d="M390 1h-371l9 54h371zM431 261h-156l-25 -159h-59l25 159h-156l9 56h156l25 159h59l-25 -159h156z" />
    <glyph glyph-name="approxequal" unicode="&#x2248;" horiz-adv-x="670" 
d="M512 273l68 -7c-24 -105 -78 -130 -127 -130c-140 0 -166 102 -260 102c-31 0 -56 -31 -63 -81l-65 6c13 81 67 132 130 132c124 0 150 -103 258 -103c29 0 50 24 59 81zM551 518l68 -7c-25 -105 -78 -130 -127 -130c-140 0 -166 102 -260 102c-31 0 -56 -31 -63 -81
l-65 6c13 81 67 132 130 132c124 0 149 -103 257 -103c29 0 51 24 60 81z" />
    <glyph glyph-name="less.sc" horiz-adv-x="472" 
d="M335 46l-303 190l5 33l361 177l24 -48l-302 -147l253 -158z" />
    <glyph glyph-name="greater.sc" horiz-adv-x="473" 
d="M419 235l-361 -177l-24 47l303 147l-255 159l39 46l303 -188z" />
    <glyph glyph-name="lessequal" unicode="&#x2264;" horiz-adv-x="628" 
d="M478 101l-389 274l6 37l474 257l23 -52l-414 -224l340 -242zM520 1h-500l9 59h500z" />
    <glyph glyph-name="greaterequal" unicode="&#x2265;" horiz-adv-x="621" 
d="M563 375l-475 -274l-24 50l416 242l-341 224l38 52l392 -257zM513 1h-500l9 59h500z" />
    <glyph glyph-name="section.alt" horiz-adv-x="388" 
d="M165 -156l51 864c18 22 96 62 155 62c28 0 44 -18 44 -40c0 -27 -25 -54 -51 -54c-30 0 -40 29 -38 47c-16 -4 -54 -20 -59 -27l-51 -863c-27 -45 -130 -101 -196 -101c-24 0 -39 17 -39 39c0 30 28 53 52 53c28 0 38 -28 37 -44c32 9 76 33 95 64zM125 -100l-46 -26
l46 777l45 31z" />
    <glyph glyph-name="partialdiff" unicode="&#x2202;" horiz-adv-x="607" 
d="M272 775l65 31c92 -103 201 -348 201 -522c0 -164 -136 -298 -287 -298c-136 0 -211 102 -211 215c0 145 127 286 287 286c35 0 91 -11 126 -61c-26 103 -103 274 -181 349zM259 43c98 0 206 84 206 223c0 89 -49 164 -146 164c-132 0 -211 -111 -211 -222
c0 -80 49 -165 151 -165z" />
    <glyph glyph-name="Delta" unicode="&#x2206;" horiz-adv-x="760" 
d="M671 0h-674l462 778zM574 65l-141 563l-320 -563h461z" />
    <glyph glyph-name="product" unicode="&#x220f;" horiz-adv-x="756" 
d="M597 0h-72l110 692h-391l-110 -692h-72l120 757h535z" />
    <glyph glyph-name="pi" unicode="&#x3c0;" horiz-adv-x="546" 
d="M416 0h-69l66 417h-245l-66 -417h-69l76 480h383z" />
    <glyph glyph-name="summation" unicode="&#x2211;" horiz-adv-x="635" 
d="M528 1h-524l348 377l-228 378h494l-10 -63h-362l197 -315l-297 -314h392z" />
    <glyph glyph-name="radical" unicode="&#x221a;" horiz-adv-x="648" 
d="M133 -278l-126 560h73l84 -388l490 934h75z" />
    <glyph glyph-name="infinity" unicode="&#x221e;" horiz-adv-x="894" 
d="M418 181c-54 -78 -118 -144 -204 -144c-95 0 -156 91 -156 189c0 147 115 261 227 261c95 0 127 -94 158 -189c59 95 124 189 242 189c79 0 138 -68 138 -178c0 -170 -134 -272 -230 -272c-92 0 -140 66 -175 144zM463 244c28 -78 63 -144 144 -144c75 0 156 54 156 194
c0 75 -36 132 -102 132c-79 0 -137 -89 -198 -182zM399 228c-36 98 -62 198 -132 198c-63 0 -149 -70 -149 -191c0 -100 59 -135 118 -135c70 0 118 57 163 128z" />
    <glyph glyph-name="integral" unicode="&#x222b;" horiz-adv-x="441" 
d="M135 -24l101 638c10 66 26 113 61 152c38 42 83 52 121 52c47 0 81 -20 87 -26l-36 -56c-7 5 -32 21 -59 21c-65 0 -94 -54 -106 -128l-101 -638c-10 -66 -27 -113 -62 -152c-38 -42 -83 -52 -121 -52c-47 0 -80 20 -87 26l37 56c6 -5 33 -21 60 -21c64 0 93 54 105 128z
" />
    <glyph glyph-name="estimated" unicode="&#x212e;" horiz-adv-x="840" 
d="M652 145l32 -53c-6 -6 -118 -106 -285 -106c-190 0 -323 141 -323 337c0 246 201 448 431 448c178 0 329 -118 285 -414h-638c-18 -175 74 -305 257 -305c137 0 235 87 241 93zM166 423h561c19 197 -94 283 -229 283c-156 0 -288 -126 -332 -283z" />
    <glyph glyph-name="schwa" unicode="&#x259;" horiz-adv-x="531" 
d="M29 227l3 18h375c19 120 -42 192 -154 192c-78 0 -131 -38 -156 -63l-24 40c36 44 112 80 204 80c120 0 201 -85 201 -211c0 -167 -119 -296 -279 -296c-143 0 -190 118 -170 240zM396 192h-304c-6 -80 30 -148 118 -148c77 0 157 51 186 148z" />
    <glyph glyph-name="lozenge" unicode="&#x25ca;" horiz-adv-x="569" 
d="M234 -30h-1l-163 439l303 440h1l158 -440zM257 105l202 304l-106 305l-206 -305z" />
    <glyph glyph-name="five.sc" horiz-adv-x="431" 
d="M-6 33l32 53c27 -22 66 -39 107 -39c99 0 153 69 153 137c0 53 -34 101 -115 101c-27 0 -55 -4 -93 -16l111 254h209l-26 -54h-148l-61 -139c14 2 28 3 41 3c88 0 153 -59 153 -142c0 -98 -76 -201 -222 -201c-69 0 -125 30 -141 43z" />
    <glyph glyph-name="two.dnom" horiz-adv-x="388" 
d="M303 0h-331c75 56 298 193 298 304c0 36 -27 65 -65 65c-43 0 -81 -26 -101 -45l-24 40c24 19 74 56 140 56c72 0 115 -48 115 -108c0 -105 -130 -203 -226 -262l202 2z" />
    <glyph glyph-name="six.sc" horiz-adv-x="464" 
d="M302 536l39 -40c-34 -29 -136 -135 -179 -194c23 16 56 26 90 26c84 0 144 -62 144 -146c0 -109 -102 -192 -211 -192c-103 0 -159 72 -159 146c0 142 205 334 276 400zM330 175c0 59 -44 100 -103 100c-68 0 -134 -55 -134 -128c0 -52 34 -100 100 -100
c72 0 137 56 137 128z" />
    <glyph glyph-name="three.dnom" horiz-adv-x="359" 
d="M218 230v-1c49 -19 70 -60 70 -102c0 -69 -72 -137 -182 -137c-74 0 -114 32 -125 45l35 45c9 -12 45 -37 98 -37c74 0 111 43 111 85c0 46 -44 81 -120 81l5 34c78 0 128 38 128 78c0 28 -22 47 -63 47c-27 0 -61 -11 -79 -23l-14 45c15 12 62 31 112 31
c71 0 109 -43 109 -87c0 -36 -19 -77 -85 -104z" />
    <glyph glyph-name="four.dnom" horiz-adv-x="401" 
d="M260 -5h-62l13 85h-221l7 44l285 290h44l-45 -283h63l-8 -51h-63zM221 129l31 196l-186 -196h155z" />
    <glyph glyph-name="five.dnom" horiz-adv-x="358" 
d="M-18 27l31 51c22 -16 55 -32 90 -32c80 0 122 48 122 99c0 40 -27 76 -94 76c-23 0 -47 -3 -81 -13l91 205h183l-24 -50h-124l-47 -100c12 1 22 2 34 2c75 0 130 -48 130 -114c0 -79 -62 -159 -188 -159c-60 0 -109 24 -123 35z" />
    <glyph glyph-name="six.dnom" horiz-adv-x="386" 
d="M250 460l37 -39c-31 -27 -118 -112 -153 -160c16 13 42 21 77 21c70 0 123 -52 123 -125c0 -94 -89 -166 -185 -166c-82 0 -140 61 -140 131c0 128 216 315 241 338zM270 151c0 48 -38 81 -87 81c-52 0 -108 -45 -108 -104c0 -43 34 -83 84 -83c57 0 111 46 111 106z" />
    <glyph glyph-name="seven.dnom" horiz-adv-x="351" 
d="M60 -5h-70l262 362h-209l9 55h303z" />
    <glyph glyph-name="eight.dnom" horiz-adv-x="395" 
d="M261 216c30 -14 60 -44 60 -86c0 -76 -84 -139 -173 -139c-77 0 -134 49 -134 112c0 57 54 96 92 112c-33 14 -57 50 -57 85c0 84 90 135 169 135c74 0 130 -42 130 -109c0 -49 -44 -95 -87 -110zM254 126c0 35 -32 66 -76 66c-51 0 -98 -38 -98 -82c0 -37 32 -66 75 -66
c52 0 99 38 99 82zM283 317c0 38 -31 65 -74 65c-51 0 -96 -36 -96 -79c0 -34 30 -64 75 -64c50 0 95 36 95 78z" />
    <glyph glyph-name="nine.dnom" horiz-adv-x="387" 
d="M110 -42l-37 38c53 45 108 98 152 154c-19 -15 -53 -21 -72 -21c-75 0 -132 57 -132 129c0 85 86 163 186 163c85 0 140 -60 140 -129c0 -122 -193 -295 -237 -334zM281 287c0 44 -35 80 -83 80c-63 0 -110 -50 -110 -105c0 -44 30 -82 82 -82c64 0 111 49 111 107z" />
    <glyph glyph-name="zero.sinf" unicode="&#x2080;" horiz-adv-x="418" 
d="M129 -189c-106 0 -132 89 -132 164c0 57 15 266 200 266c108 0 136 -85 136 -162c0 -69 -20 -268 -204 -268zM137 -138c89 0 129 109 129 213c0 50 -14 115 -77 115c-86 0 -127 -101 -127 -211c0 -49 15 -117 75 -117z" />
    <glyph glyph-name="zero_slash.sinf" horiz-adv-x="418" 
d="M129 -189c-106 0 -132 89 -132 164c0 57 15 266 200 266c108 0 136 -85 136 -162c0 -69 -20 -268 -204 -268zM64 -80l179 251c-13 12 -29 19 -54 19c-86 0 -127 -101 -127 -219c0 -13 1 -39 2 -51zM264 132l-178 -251c11 -12 28 -19 51 -19c89 0 130 109 130 219
c0 14 -1 39 -3 51z" />
    <glyph glyph-name="one.sinf" unicode="&#x2081;" horiz-adv-x="238" 
d="M96 -181h-64l55 348l-75 -30l-14 49l165 59z" />
    <glyph glyph-name="two.sinf" unicode="&#x2082;" horiz-adv-x="390" 
d="M276 -180h-331c75 56 298 193 298 304c0 36 -27 65 -65 65c-43 0 -81 -26 -101 -45l-24 40c24 19 74 56 140 56c72 0 115 -48 115 -108c0 -105 -130 -203 -226 -262l202 2z" />
    <glyph glyph-name="seven.sc" horiz-adv-x="414" 
d="M77 -6h-77l325 472l-253 -1l9 57h351z" />
    <glyph glyph-name="three.sinf" unicode="&#x2083;" horiz-adv-x="360" 
d="M190 50v-1c49 -19 70 -60 70 -102c0 -69 -72 -137 -182 -137c-74 0 -114 32 -125 45l35 45c9 -12 45 -37 98 -37c74 0 111 43 111 85c0 46 -44 81 -120 81l5 34c78 0 128 38 128 78c0 28 -22 47 -63 47c-28 0 -61 -11 -79 -23l-14 45c15 12 62 31 112 31
c71 0 109 -43 109 -87c0 -36 -19 -77 -85 -104z" />
    <glyph glyph-name="eight.sc" horiz-adv-x="462" 
d="M308 264c35 -17 68 -52 68 -105c0 -101 -95 -169 -194 -169c-84 0 -148 58 -148 134c0 72 57 122 107 140c-37 18 -64 60 -64 104c0 110 102 164 191 164c81 0 142 -49 142 -129c0 -63 -48 -122 -102 -139zM306 154c0 46 -36 85 -85 85c-62 0 -119 -50 -119 -109
c0 -47 36 -86 88 -86c70 0 116 53 116 110zM342 394c0 48 -34 84 -83 84c-71 0 -115 -50 -115 -106c0 -44 34 -82 85 -82c59 0 113 48 113 104z" />
    <glyph glyph-name="nine.sc" horiz-adv-x="462" 
d="M146 -15l-38 41c51 47 126 119 181 195c-22 -20 -60 -27 -88 -27c-86 0 -148 66 -148 152c0 107 98 187 209 187c100 0 161 -65 161 -143c0 -144 -208 -340 -277 -405zM221 246c73 0 134 61 134 135c0 61 -42 95 -100 95c-75 0 -133 -58 -133 -129c0 -55 35 -101 99 -101
z" />
    <glyph glyph-name="four.sinf" unicode="&#x2084;" horiz-adv-x="401" 
d="M232 -185h-62l13 85h-221l7 44l285 290h44l-45 -283h63l-8 -51h-63zM193 -51l31 196l-186 -196h155z" />
    <glyph glyph-name="five.sinf" unicode="&#x2085;" horiz-adv-x="359" 
d="M-46 -153l31 51c22 -16 55 -32 90 -32c80 0 122 48 122 99c0 40 -27 76 -94 76c-23 0 -47 -3 -81 -13l91 205h183l-24 -50h-124l-47 -100c12 1 22 2 34 2c75 0 130 -48 130 -114c0 -79 -62 -159 -188 -159c-60 0 -109 24 -123 35z" />
    <glyph glyph-name="six.sinf" unicode="&#x2086;" horiz-adv-x="385" 
d="M225 280l37 -39c-29 -27 -121 -112 -157 -160c16 13 42 21 77 21c69 0 123 -52 123 -125c0 -94 -89 -166 -185 -166c-82 0 -140 61 -140 131c0 129 225 315 245 338zM241 -29c0 48 -38 81 -87 81c-52 0 -108 -45 -108 -104c0 -43 34 -83 84 -83c57 0 111 46 111 106z" />
    <glyph glyph-name="seven.sinf" unicode="&#x2087;" horiz-adv-x="351" 
d="M32 -185h-70l262 362h-209l9 55h303z" />
    <glyph glyph-name="eight.sinf" unicode="&#x2088;" horiz-adv-x="394" 
d="M232 36c30 -14 60 -44 60 -86c0 -76 -84 -139 -173 -139c-77 0 -134 49 -134 112c0 57 54 96 92 112c-33 14 -57 50 -57 85c0 84 90 135 169 135c74 0 130 -42 130 -109c0 -49 -44 -95 -87 -110zM225 -54c0 35 -32 66 -76 66c-51 0 -98 -38 -98 -82c0 -37 32 -66 75 -66
c52 0 99 38 99 82zM254 137c0 38 -31 65 -74 65c-51 0 -96 -36 -96 -79c0 -34 30 -64 75 -64c49 0 95 36 95 78z" />
    <glyph glyph-name="nine.sinf" unicode="&#x2089;" horiz-adv-x="388" 
d="M80 -222l-37 38c54 45 109 98 153 154c-19 -15 -53 -21 -72 -21c-75 0 -132 57 -132 129c0 85 86 163 186 163c86 0 140 -60 140 -129c0 -122 -196 -295 -238 -334zM252 107c0 44 -35 80 -83 80c-63 0 -110 -50 -110 -105c0 -44 29 -82 82 -82c63 0 111 49 111 107z" />
    <glyph glyph-name="zero.sup" horiz-adv-x="418" 
d="M212 337c-106 0 -132 89 -132 164c0 57 15 266 200 266c108 0 136 -85 136 -162c0 -69 -20 -268 -204 -268zM220 388c89 0 129 109 129 213c0 50 -14 115 -77 115c-86 0 -127 -101 -127 -211c0 -49 15 -117 75 -117z" />
    <glyph glyph-name="zero_slash.sup" horiz-adv-x="418" 
d="M212 338c-106 0 -132 89 -132 164c0 57 15 266 200 266c108 0 136 -85 136 -162c0 -69 -20 -268 -204 -268zM147 447l179 251c-13 12 -29 19 -54 19c-86 0 -127 -101 -127 -219c0 -13 1 -39 2 -51zM347 659l-178 -251c11 -12 28 -19 51 -19c89 0 130 109 130 219
c0 14 -1 39 -3 51z" />
    <glyph glyph-name="one.sup" horiz-adv-x="238" 
d="M180 345h-64l55 348l-75 -30l-14 49l165 59z" />
    <glyph glyph-name="two.sup" horiz-adv-x="391" 
d="M360 347h-331c75 56 298 193 298 304c0 36 -27 65 -65 65c-43 0 -81 -26 -101 -45l-24 40c24 19 74 56 140 56c72 0 115 -48 115 -108c0 -105 -130 -203 -226 -262l202 2z" />
    <glyph glyph-name="three.sup" horiz-adv-x="359" 
d="M273 577v-1c49 -19 70 -60 70 -102c0 -69 -72 -137 -182 -137c-74 0 -114 32 -125 45l35 45c9 -12 45 -37 98 -37c74 0 111 43 111 85c0 46 -44 81 -120 81l5 34c78 0 128 38 128 78c0 28 -22 47 -63 47c-27 0 -61 -11 -79 -23l-14 45c15 12 62 31 112 31
c71 0 109 -43 109 -87c0 -36 -19 -77 -85 -104z" />
    <glyph glyph-name="four.sup" horiz-adv-x="401" 
d="M315 342h-62l13 85h-221l7 44l285 290h44l-45 -283h63l-8 -51h-63zM276 476l31 196l-186 -196h155z" />
    <glyph glyph-name="zero.dnom" horiz-adv-x="417" 
d="M157 -9c-106 0 -132 89 -132 164c0 57 15 266 200 266c108 0 136 -85 136 -162c0 -69 -20 -268 -204 -268zM165 42c89 0 129 109 129 213c0 50 -14 115 -77 115c-86 0 -127 -101 -127 -211c0 -49 15 -117 75 -117z" />
    <glyph glyph-name="five.sup" horiz-adv-x="359" 
d="M38 374l31 51c22 -16 55 -32 90 -32c80 0 122 48 122 99c0 40 -27 76 -94 76c-23 0 -47 -3 -81 -13l91 205h183l-24 -50h-124l-47 -100c12 1 22 2 34 2c75 0 130 -48 130 -114c0 -79 -62 -159 -188 -159c-60 0 -109 24 -123 35z" />
    <glyph glyph-name="six.sup" horiz-adv-x="387" 
d="M309 807l37 -39c-29 -27 -121 -112 -157 -160c16 13 42 21 77 21c70 0 123 -52 123 -125c0 -94 -89 -166 -185 -166c-82 0 -140 61 -140 131c0 129 225 315 245 338zM325 498c0 48 -38 81 -87 81c-53 0 -108 -45 -108 -104c0 -43 34 -83 84 -83c57 0 111 46 111 106z" />
    <glyph glyph-name="zero_slash.dnom" horiz-adv-x="417" 
d="M157 -9c-106 0 -132 89 -132 164c0 57 15 266 200 266c108 0 136 -85 136 -162c0 -69 -20 -268 -204 -268zM92 100l179 251c-13 12 -29 19 -54 19c-86 0 -127 -101 -127 -219c0 -13 1 -39 2 -51zM292 312l-178 -251c11 -12 28 -19 51 -19c89 0 130 109 130 219
c0 14 -1 39 -3 51z" />
    <glyph glyph-name="seven.sup" horiz-adv-x="348" 
d="M116 342h-70l262 362h-209l9 55h303z" />
    <glyph glyph-name="eight.sup" horiz-adv-x="394" 
d="M316 563c30 -14 60 -44 60 -86c0 -76 -84 -139 -173 -139c-77 0 -134 49 -134 112c0 57 54 96 92 112c-33 14 -57 50 -57 85c0 84 90 135 169 135c74 0 130 -42 130 -109c0 -49 -44 -95 -87 -110zM309 473c0 35 -32 66 -76 66c-51 0 -98 -38 -98 -82c0 -37 32 -66 75 -66
c52 0 99 38 99 82zM338 664c0 38 -31 65 -74 65c-51 0 -96 -36 -96 -79c0 -34 30 -64 75 -64c49 0 95 36 95 78z" />
    <glyph glyph-name="nine.sup" horiz-adv-x="387" 
d="M163 305l-37 38c54 45 109 98 153 154c-19 -15 -53 -21 -72 -21c-75 0 -132 57 -132 129c0 85 86 163 186 163c85 0 140 -60 140 -129c0 -122 -196 -295 -238 -334zM335 634c0 44 -35 80 -83 80c-63 0 -110 -50 -110 -105c0 -44 29 -82 82 -82c63 0 111 49 111 107z" />
    <glyph glyph-name="percent.sc" horiz-adv-x="632" 
d="M161 -20l-43 14l326 554l42 -15zM279 445c0 -70 -63 -128 -128 -128c-54 0 -92 43 -92 97c0 71 61 130 128 130c54 0 92 -44 92 -99zM158 361c38 0 75 38 75 78c0 32 -22 61 -53 61c-37 0 -75 -39 -75 -79c0 -32 22 -60 53 -60zM434 -11c-54 0 -93 44 -93 99
c0 70 63 128 129 128c54 0 91 -43 91 -97c0 -71 -62 -130 -127 -130zM441 33c37 0 75 38 75 79c0 32 -23 60 -53 60c-39 0 -76 -38 -76 -78c0 -33 23 -61 54 -61z" />
    <glyph glyph-name="perthousand.sc" horiz-adv-x="937" 
d="M166 -20l-42 14l325 554l44 -15zM279 445c0 -70 -63 -128 -128 -128c-54 0 -92 43 -92 97c0 71 61 130 128 130c54 0 92 -44 92 -99zM158 361c38 0 75 38 75 78c0 32 -22 61 -53 61c-37 0 -75 -39 -75 -79c0 -32 22 -60 53 -60zM434 -11c-54 0 -93 44 -93 99
c0 70 63 128 129 128c54 0 91 -43 91 -97c0 -71 -62 -130 -127 -130zM441 33c37 0 75 38 75 79c0 32 -23 60 -53 60c-39 0 -76 -38 -76 -78c0 -33 23 -61 54 -61zM739 -11c-55 0 -93 43 -93 98c0 71 61 129 129 129c54 0 92 -43 92 -98c0 -70 -63 -129 -128 -129zM746 33
c36 0 75 38 75 78c0 33 -24 61 -53 61c-38 0 -75 -38 -75 -78c0 -33 22 -61 53 -61z" />
    <glyph glyph-name="dollar.alt" horiz-adv-x="487" 
d="M209 -98h-49l16 101c-89 4 -151 60 -168 107l42 44c19 -33 59 -90 135 -95l49 312c-62 37 -123 90 -123 174c0 116 86 180 181 191l16 97h49l-16 -96c69 -6 114 -52 133 -76l-39 -43c-15 22 -48 58 -102 64l-43 -267c62 -35 134 -94 134 -196c0 -111 -84 -194 -198 -213z
M279 346l-45 -285c68 12 126 68 126 155c0 64 -34 102 -81 130zM245 441l38 239c-56 -10 -109 -55 -109 -132c0 -52 33 -82 71 -107z" />
    <glyph glyph-name="dollar.sc" horiz-adv-x="457" 
d="M185 -78l-51 2l17 75c-66 5 -123 45 -140 76l46 47c16 -25 52 -57 108 -62l42 191c-53 27 -109 64 -109 131c0 94 82 144 171 148l17 78h51l-18 -80c38 -9 77 -34 94 -53l-42 -48c-18 20 -38 35 -65 41l-37 -169c47 -28 101 -65 101 -140c0 -76 -59 -148 -169 -159z
M223 322l34 149c-49 -4 -87 -28 -87 -77c0 -31 21 -57 53 -72zM251 227l-36 -165c49 10 83 37 83 86c0 32 -19 61 -47 79z" />
    <glyph glyph-name="dollar.dnom" horiz-adv-x="344" 
d="M123 -53h-44l10 43c-48 8 -90 35 -103 57l39 42c11 -17 40 -38 78 -45l38 157c-42 24 -88 48 -88 104c0 79 71 125 145 126l8 31h43l-10 -36c37 -10 62 -33 67 -43l-37 -43c-11 13 -26 25 -43 32l-31 -127c41 -21 84 -50 84 -116c0 -70 -52 -133 -146 -140zM179 179
l-34 -136c42 6 68 34 68 74c0 28 -15 47 -34 62zM156 263l28 115c-34 -3 -66 -25 -66 -63c0 -25 16 -40 38 -52z" />
    <glyph glyph-name="dollar.sup" horiz-adv-x="347" 
d="M181 294h-44l10 43c-48 7 -90 35 -103 57l39 42c11 -17 40 -38 78 -45l38 157c-42 24 -88 48 -88 104c0 79 71 125 145 126l8 31h43l-10 -36c37 -10 62 -33 67 -43l-37 -43c-11 13 -26 25 -43 32l-31 -127c41 -21 84 -50 84 -116c0 -70 -52 -133 -146 -141zM237 526
l-34 -136c42 6 68 34 68 73c0 29 -14 48 -34 63zM214 610l28 115c-34 -3 -66 -25 -66 -63c0 -25 16 -40 38 -52z" />
    <glyph glyph-name="dollar.sinf" horiz-adv-x="345" 
d="M95 -233h-44l10 43c-48 8 -90 36 -103 57l39 42c11 -16 40 -38 78 -45l38 157c-42 24 -88 48 -88 104c0 79 71 125 145 126l8 31h43l-10 -36c37 -10 62 -33 67 -43l-37 -43c-11 13 -26 25 -43 32l-31 -127c41 -21 84 -50 84 -116c0 -69 -52 -133 -146 -140zM151 0
l-34 -137c42 6 68 35 68 73c0 29 -14 49 -34 64zM128 83l28 115c-34 -3 -66 -25 -66 -63c0 -25 16 -40 38 -52z" />
    <glyph glyph-name="one.dnom" horiz-adv-x="238" 
d="M125 -1h-64l55 348l-75 -30l-14 49l165 59z" />
    <glyph glyph-name="cent.sc" horiz-adv-x="425" 
d="M200 -19h-53l18 104c-69 12 -123 66 -123 149c0 102 68 185 179 204l15 103h52l-16 -101c53 -4 92 -35 110 -53l-39 -41c-8 9 -37 36 -80 39l-39 -248c45 2 81 21 108 46l25 -37c-42 -43 -93 -61 -142 -63zM175 140l39 242c-69 -13 -114 -76 -114 -144
c0 -57 38 -88 75 -98z" />
    <glyph glyph-name="cent.dnom" horiz-adv-x="343" 
d="M156 -14h-42l10 64c-65 10 -110 58 -110 123c0 87 75 145 154 155l14 83h42l-13 -82c47 -3 83 -31 90 -40l-31 -37c-7 7 -34 29 -67 31l-29 -188c38 0 70 19 89 34l13 -36c-20 -22 -60 -39 -110 -43zM132 97l29 184c-46 -8 -94 -43 -94 -105c0 -43 26 -72 65 -79z" />
    <glyph glyph-name="cent.sup" horiz-adv-x="344" 
d="M212 333h-42l10 64c-65 10 -110 58 -110 123c0 87 75 145 154 155l14 83h42l-13 -82c47 -3 83 -31 90 -40l-31 -37c-7 7 -34 29 -67 31l-29 -188c38 0 70 19 89 34l13 -36c-20 -22 -60 -39 -110 -43zM188 444l29 184c-46 -8 -94 -43 -94 -105c0 -43 26 -72 65 -79z" />
    <glyph glyph-name="cent.sinf" horiz-adv-x="343" 
d="M127 -194h-42l10 64c-65 10 -110 58 -110 123c0 87 75 145 154 155l14 83h42l-13 -82c47 -3 83 -31 90 -40l-31 -37c-7 7 -34 29 -67 31l-29 -188c38 0 70 19 89 34l13 -36c-20 -22 -60 -39 -110 -43zM103 -83l29 184c-46 -8 -94 -43 -94 -105c0 -43 26 -72 65 -79z" />
    <glyph glyph-name="sterling.sc" horiz-adv-x="458" 
d="M372 52l-1 -54c-15 -5 -58 -12 -82 -12c-54 0 -82 22 -128 22c-56 0 -141 -36 -149 -41l-14 51c7 4 62 23 106 31l26 164h-61l8 54h61l21 131c17 109 74 139 144 139c35 0 65 -17 73 -22l-38 -50c-7 5 -26 16 -47 16c-39 0 -61 -34 -68 -80l-21 -134h104l-8 -54h-106
l-25 -155c6 1 11 1 17 1c38 0 72 -20 110 -20c31 0 59 7 78 13z" />
    <glyph glyph-name="sterling.dnom" horiz-adv-x="370" 
d="M303 53l-3 -49c-14 -4 -45 -10 -84 -10c-31 0 -63 15 -99 15c-42 0 -118 -27 -126 -31l-12 45c4 2 50 21 88 29l17 108h-46l7 44h45l15 92c14 88 60 121 127 121c35 0 59 -16 67 -22l-35 -42c-4 4 -16 15 -37 15c-36 0 -53 -28 -59 -68l-15 -96h82l-7 -44h-82l-17 -103
h19c37 0 56 -16 90 -16c22 0 50 8 65 12z" />
    <glyph glyph-name="sterling.sup" horiz-adv-x="371" 
d="M357 400l-3 -49c-14 -4 -45 -10 -84 -10c-31 0 -63 15 -99 15c-42 0 -118 -27 -126 -31l-12 45c4 2 50 21 88 29l17 108h-46l7 44h45l15 92c14 88 60 121 127 121c35 0 59 -16 67 -22l-35 -42c-4 4 -16 15 -37 15c-36 0 -53 -28 -59 -68l-15 -96h82l-7 -44h-82l-17 -103
h19c37 0 56 -16 90 -16c22 0 50 8 65 12z" />
    <glyph glyph-name="sterling.sinf" horiz-adv-x="371" 
d="M275 -127l-3 -49c-14 -4 -45 -10 -84 -10c-31 0 -63 15 -99 15c-42 0 -118 -27 -126 -31l-12 45c4 2 50 21 88 29l17 108h-46l7 44h45l15 92c14 88 60 121 127 121c35 0 59 -16 67 -22l-35 -42c-4 4 -16 15 -37 15c-36 0 -53 -28 -59 -68l-15 -96h82l-7 -44h-82l-17 -103
h19c37 0 56 -16 90 -16c22 0 50 8 65 12z" />
    <glyph glyph-name="Euro" unicode="&#x20ac;" horiz-adv-x="673" 
d="M549 80l18 -59c-7 -5 -64 -34 -165 -34c-111 0 -259 70 -265 280h-89l22 56h69c2 36 9 70 18 107h-72l21 55h68c51 149 160 277 342 277c78 0 131 -22 160 -43l-40 -53c-12 7 -66 33 -138 33c-131 0 -214 -97 -258 -214h288l-22 -55h-284c-10 -33 -16 -66 -18 -107h288
l-22 -56h-267c7 -177 131 -219 209 -219c81 0 132 28 137 32z" />
    <glyph glyph-name="Euro.alt" horiz-adv-x="613" 
d="M500 82l18 -50c-6 -4 -68 -45 -163 -45c-181 0 -290 148 -290 336c0 249 191 447 407 447c81 0 138 -28 164 -49l-43 -49c-10 6 -63 37 -135 37c-116 0 -228 -80 -287 -211h298l-9 -55h-313c-11 -34 -16 -67 -19 -103h316l-9 -55h-306c12 -133 96 -237 239 -237
c69 0 113 24 132 34z" />
    <glyph glyph-name="Euro.sc" horiz-adv-x="526" 
d="M416 69l13 -50c-7 -3 -52 -29 -124 -29c-124 0 -196 76 -202 193h-79l23 49h55c2 24 5 45 12 71h-62l21 48h56c39 115 132 190 256 190c59 0 99 -17 123 -32l-34 -45c-11 4 -56 23 -104 23c-75 0 -146 -47 -180 -136l214 2l-21 -50h-209c-4 -14 -10 -43 -10 -71l214 1
l-22 -50h-189c6 -94 57 -140 146 -140c55 0 97 22 103 26z" />
    <glyph glyph-name="Euro.alt.sc" horiz-adv-x="491" 
d="M378 69l16 -43c-6 -4 -53 -36 -129 -36c-131 0 -217 108 -217 241c0 192 144 312 301 312c64 0 107 -23 129 -40l-39 -44c-8 4 -48 27 -103 27c-75 0 -158 -40 -203 -135h230l-7 -47h-240c-7 -18 -10 -43 -10 -57h241l-8 -48h-232c11 -92 78 -154 168 -154
c51 0 92 20 103 24z" />
    <glyph glyph-name="Euro.dnom" horiz-adv-x="417" 
d="M323 62l12 -44c-7 -4 -44 -26 -108 -26c-97 0 -160 61 -166 154h-58l20 42h39c0 8 1 18 2 25l5 24h-46l19 42h40c36 92 112 152 209 152c50 0 86 -15 107 -29l-33 -42c-7 4 -45 20 -87 20c-58 0 -104 -34 -134 -101c56 0 119 1 169 1l-19 -43h-168c-2 -6 -4 -18 -5 -26
c-1 -4 -2 -15 -2 -23l173 1l-19 -43h-150c11 -65 48 -104 113 -104c48 0 82 17 87 20z" />
    <glyph glyph-name="Euro.sup" horiz-adv-x="417" 
d="M378 409l12 -44c-7 -4 -44 -26 -107 -26c-98 0 -161 61 -167 154h-58l20 42h39c0 8 1 18 2 25l5 24h-46l19 42h40c36 92 112 152 209 152c50 0 86 -15 107 -29l-33 -42c-7 4 -45 20 -86 20c-59 0 -105 -34 -135 -101c56 0 119 1 169 1l-19 -43h-168c-2 -6 -4 -18 -5 -26
c-1 -4 -2 -15 -2 -23l173 1l-19 -43h-150c11 -65 48 -104 113 -104c47 0 82 17 87 20z" />
    <glyph glyph-name="Euro.sinf" horiz-adv-x="417" 
d="M294 -118l12 -44c-7 -4 -44 -26 -107 -26c-98 0 -161 61 -167 154h-58l20 42h39c0 8 1 18 2 25l5 24h-46l19 42h40c36 92 112 152 209 152c50 0 86 -15 107 -29l-33 -42c-7 4 -45 20 -86 20c-59 0 -105 -34 -135 -101c56 0 119 1 169 1l-19 -43h-168c-2 -6 -4 -18 -5 -26
c-1 -4 -2 -15 -2 -23l173 1l-19 -43h-150c11 -65 48 -104 113 -104c47 0 82 17 87 20z" />
    <glyph glyph-name="yen.sc" horiz-adv-x="526" 
d="M401 74h-144l-11 -74h-69l12 74h-142l8 48h142l10 67h-142l8 48h135l-132 291h81l98 -236l183 236h80l-228 -291h137l-8 -48h-144l-10 -67h144z" />
    <glyph glyph-name="yen.dnom" horiz-adv-x="437" 
d="M343 64h-132l-10 -64h-65l10 64h-131l6 40h131l8 47h-131l6 41h119l-109 214h71l91 -180l146 180h68l-178 -214h120l-6 -41h-132l-8 -47h132z" />
    <glyph glyph-name="yen.sup" horiz-adv-x="436" 
d="M397 411h-132l-10 -64h-65l10 64h-131l6 40h131l8 47h-131l6 41h119l-109 214h71l91 -180l146 180h68l-178 -214h120l-6 -41h-132l-8 -47h132z" />
    <glyph glyph-name="yen.sinf" horiz-adv-x="438" 
d="M315 -116h-132l-10 -64h-65l10 64h-131l6 40h131l8 47h-131l6 41h119l-109 214h71l91 -180l146 180h68l-178 -214h120l-6 -41h-132l-8 -47h132z" />
    <glyph glyph-name="florin.sc" horiz-adv-x="302" 
d="M-64 -162l10 44c10 -2 18 -4 29 -4c34 0 55 50 60 80l63 332h-61l10 51h60l9 42c23 114 44 202 149 202c17 0 39 -7 46 -12l-15 -47c-9 3 -20 6 -34 6c-69 0 -79 -127 -91 -191h78l-10 -51h-75l-64 -327c-13 -71 -50 -136 -125 -136c-14 0 -32 7 -39 11z" />
    <glyph glyph-name="currency.sc" horiz-adv-x="538" 
d="M439 77l-42 -32l-50 61c-32 -22 -73 -39 -117 -39s-79 17 -103 39l-70 -62l-29 34l69 64c-15 24 -24 58 -24 94c0 60 26 106 61 141l-49 66l39 34l52 -64c34 24 73 41 116 41c45 0 80 -17 104 -40l70 63l31 -34l-70 -66c14 -21 23 -53 23 -88c0 -60 -23 -107 -63 -147z
M399 279c0 68 -51 122 -116 122c-73 0 -157 -72 -157 -158c0 -69 51 -123 113 -123c78 0 160 74 160 159z" />
    <glyph glyph-name="quotesingle.sc" horiz-adv-x="215" 
d="M141 361h-52l23 203h70z" />
    <glyph glyph-name="quotedbl.sc" horiz-adv-x="327" 
d="M141 361h-52l23 203h70zM253 361h-52l23 203h70z" />
    <glyph glyph-name="quoteleft.sc" horiz-adv-x="260" 
d="M149 400h-74l117 197h53z" />
    <glyph glyph-name="quoteright.sc" horiz-adv-x="258" 
d="M131 400h-53l97 197h73z" />
    <glyph glyph-name="quotedblleft.sc" horiz-adv-x="408" 
d="M143 400h-68l117 197h53zM299 400h-69l110 197h53z" />
    <glyph glyph-name="quotedblright.sc" horiz-adv-x="407" 
d="M280 400h-53l102 197h68zM132 400h-53l94 197h69z" />
    <glyph glyph-name="guilsinglleft.sc" horiz-adv-x="313" 
d="M210 49h-67l-92 210l154 210h68l-155 -210z" />
    <glyph glyph-name="guilsinglright.sc" horiz-adv-x="313" 
d="M90 49h-68l159 210l-89 210h69l86 -210z" />
    <glyph glyph-name="parenleft.sc" horiz-adv-x="255" 
d="M129 -116l-53 -21c-13 55 -20 147 -20 225c0 225 74 417 141 544l47 -21c-42 -85 -128 -285 -128 -511c0 -70 5 -155 13 -216z" />
    <glyph glyph-name="parenright.sc" horiz-adv-x="252" 
d="M38 -137l-46 21c70 163 127 296 127 516c0 85 -6 174 -13 211l53 21c11 -48 18 -138 18 -218c0 -215 -59 -405 -139 -551z" />
    <glyph glyph-name="parenleft.dnom" horiz-adv-x="186" 
d="M85 -104l-50 -18c-12 46 -19 121 -19 185c0 172 58 321 115 420l44 -18c-35 -66 -102 -220 -102 -390c0 -59 5 -127 12 -179z" />
    <glyph glyph-name="parenright.dnom" horiz-adv-x="184" 
d="M15 -122l-43 18c57 127 102 232 102 399c0 68 -6 140 -13 170l50 18c10 -40 16 -115 16 -183c0 -166 -48 -311 -112 -422z" />
    <glyph glyph-name="parenleft.sup" horiz-adv-x="186" 
d="M140 243l-50 -18c-12 46 -19 121 -19 185c0 172 58 321 115 420l44 -18c-35 -66 -102 -220 -102 -390c0 -59 5 -127 12 -179z" />
    <glyph glyph-name="parenright.sup" horiz-adv-x="184" 
d="M70 225l-43 18c57 127 102 232 102 399c0 68 -6 140 -13 170l50 18c10 -40 16 -115 16 -183c0 -166 -48 -311 -112 -422z" />
    <glyph glyph-name="parenleft.sinf" unicode="&#x208d;" horiz-adv-x="185" 
d="M56 -284l-50 -18c-12 46 -19 121 -19 185c0 172 58 321 115 420l44 -18c-35 -66 -102 -220 -102 -390c0 -59 5 -127 12 -179z" />
    <glyph glyph-name="parenright.sinf" unicode="&#x208e;" horiz-adv-x="183" 
d="M-14 -302l-43 18c57 127 102 232 102 399c0 68 -6 140 -13 170l50 18c10 -40 16 -115 16 -183c0 -166 -48 -311 -112 -422z" />
    <glyph glyph-name="bracketleft.sc" horiz-adv-x="369" 
d="M246 -123h-142l115 725h142l-8 -51c-29 0 -57 1 -86 1l-99 -625l86 2zM108 248c0 -30 -26 -55 -56 -55c-24 0 -41 19 -41 42c0 30 26 55 56 55c24 0 41 -18 41 -42z" />
    <glyph glyph-name="bracketright.sc" horiz-adv-x="370" 
d="M131 -121h-142l8 51l84 -1l99 624l-85 -2l9 51h142zM339 248c0 -30 -28 -55 -57 -55c-24 0 -41 19 -41 42c0 30 26 55 56 55c24 0 42 -18 42 -42z" />
    <glyph glyph-name="bracketleft.dnom" horiz-adv-x="219" 
d="M123 -96h-125l90 571h125l-7 -46h-72l-76 -481h72z" />
    <glyph glyph-name="bracketright.dnom" horiz-adv-x="218" 
d="M94 -96h-125l7 45h71l76 481h-71l7 45h125z" />
    <glyph glyph-name="bracketleft.sup" horiz-adv-x="220" 
d="M178 251h-125l90 571h125l-7 -46h-72l-76 -481h72z" />
    <glyph glyph-name="bracketright.sup" horiz-adv-x="218" 
d="M149 251h-125l7 45h71l76 481h-71l7 45h125z" />
    <glyph glyph-name="bracketleft.sinf" horiz-adv-x="219" 
d="M94 -276h-125l90 571h125l-7 -46h-72l-76 -481h72z" />
    <glyph glyph-name="bracketright.sinf" horiz-adv-x="219" 
d="M66 -276h-125l7 45h71l76 481h-71l7 45h125z" />
    <glyph glyph-name="braceleft.sc" horiz-adv-x="281" 
d="M175 -92l-17 -38c-90 7 -109 61 -98 132l16 100c9 56 -2 97 -58 128c66 31 89 72 98 128l16 100c11 71 48 125 140 132l5 -38c-71 -10 -81 -59 -90 -116l-14 -86c-8 -52 -31 -85 -74 -120c31 -35 44 -68 36 -120l-14 -86c-9 -57 -13 -106 54 -116z" />
    <glyph glyph-name="braceright.sc" horiz-adv-x="282" 
d="M-14 -130l-5 38c71 10 80 59 89 116l14 86c8 52 32 85 74 120c-30 35 -44 68 -36 120l14 86c9 57 14 106 -53 116l17 38c90 -7 109 -61 98 -132l-16 -100c-9 -56 2 -97 58 -128c-66 -31 -89 -72 -98 -128l-16 -100c-11 -71 -48 -125 -140 -132z" />
    <glyph glyph-name="braceleft.dnom" horiz-adv-x="235" 
d="M149 -51l-20 -42c-78 5 -98 51 -89 107l12 77c7 43 -2 75 -50 100c56 25 75 57 82 100l12 77c9 56 43 102 123 107l6 -42c-60 -9 -70 -39 -76 -81l-10 -68c-6 -41 -20 -66 -54 -93c26 -27 30 -52 24 -93l-10 -68c-6 -42 -8 -72 50 -81z" />
    <glyph glyph-name="braceright.dnom" horiz-adv-x="234" 
d="M-21 -93l-6 42c59 9 69 39 76 81l11 68c7 41 19 66 53 93c-25 27 -31 52 -24 93l11 68c7 42 6 72 -50 81l19 42c79 -5 98 -51 89 -107l-12 -77c-7 -43 1 -75 50 -100c-57 -25 -75 -57 -82 -100l-12 -77c-9 -56 -43 -102 -123 -107z" />
    <glyph glyph-name="braceleft.sup" horiz-adv-x="235" 
d="M203 296l-20 -42c-78 5 -98 51 -89 107l12 77c7 43 -2 75 -50 100c56 25 75 57 82 100l12 77c9 56 43 102 123 107l6 -42c-60 -9 -68 -39 -75 -81l-11 -68c-7 -41 -20 -66 -54 -93c26 -27 30 -52 24 -93l-10 -68c-6 -42 -8 -72 50 -81z" />
    <glyph glyph-name="braceright.sup" horiz-adv-x="233" 
d="M34 254l-6 42c59 9 69 39 76 81l11 68c7 41 19 66 53 93c-25 27 -31 52 -24 93l11 68c7 42 6 72 -50 81l19 42c79 -5 98 -51 89 -107l-12 -77c-7 -43 1 -75 50 -100c-57 -25 -75 -57 -82 -100l-12 -77c-9 -56 -43 -102 -123 -107z" />
    <glyph glyph-name="braceleft.sinf" horiz-adv-x="235" 
d="M120 -231l-20 -42c-78 5 -98 51 -89 107l12 77c7 43 -2 75 -50 100c56 25 75 57 82 100l12 77c9 56 43 102 123 107l6 -42c-60 -9 -68 -39 -75 -81l-11 -68c-7 -41 -20 -66 -54 -93c26 -27 30 -52 24 -93l-10 -68c-6 -42 -8 -72 50 -81z" />
    <glyph glyph-name="braceright.sinf" horiz-adv-x="234" 
d="M-49 -273l-6 42c59 9 69 39 76 81l11 68c7 41 19 66 53 93c-25 27 -31 52 -24 93l11 68c7 42 6 72 -50 81l19 42c79 -5 98 -51 89 -107l-12 -77c-7 -43 1 -75 50 -100c-57 -25 -74 -57 -81 -100l-13 -77c-9 -56 -43 -102 -123 -107z" />
    <glyph glyph-name="grave.cap" horiz-adv-x="494" 
d="M541 838l-240 45l34 66l231 -64z" />
    <glyph glyph-name="acute.cap" horiz-adv-x="494" 
d="M559 883l-255 -45l-11 47l251 64z" />
    <glyph glyph-name="circumflex.cap" horiz-adv-x="494" 
d="M595 844l-41 -35l-134 67l-160 -68l-23 37l194 102h1z" />
    <glyph glyph-name="caron.cap" horiz-adv-x="494" 
d="M603 914l-193 -101l-160 101l35 33l138 -69l151 67z" />
    <glyph glyph-name="tilde.cap" horiz-adv-x="792" 
d="M688 943l23 -46c-22 -21 -78 -67 -126 -67c-39 0 -70 48 -113 48c-28 0 -70 -33 -90 -49l-26 41c24 23 88 68 130 68c45 0 76 -48 111 -48c33 0 75 38 91 53z" />
    <glyph glyph-name="apple" horiz-adv-x="1193" 
d="M718 0h-243l-121 607l242 238l243 -238zM414 0h-206l-158 206l103 197l201 -99zM985 0h-206l60 304l201 99l103 -197z" />
    <glyph glyph-name="paragraph.sc" horiz-adv-x="527" 
d="M353 531l-83 -522c-148 0 -234 96 -234 220c0 158 134 302 317 302zM371 -138h-67l106 672h67z" />
    <glyph glyph-name="brokenbar.sc" horiz-adv-x="255" 
d="M93 -95h-59l45 286h59zM160 325h-59l45 284h59z" />
    <glyph glyph-name="bar.sc" horiz-adv-x="253" 
d="M95 -95h-64l112 704h64z" />
    <glyph glyph-name="ampersand.alt.sc" horiz-adv-x="565" 
d="M524 0h-86l-61 85c-15 -26 -85 -95 -179 -95c-95 0 -170 70 -170 169c0 115 101 185 157 196c-18 24 -26 49 -26 73c0 57 48 109 121 109c60 0 92 -36 99 -47l-46 -37c-7 11 -28 32 -57 32c-32 0 -53 -25 -53 -55c0 -25 15 -50 27 -67zM348 127l-131 184
c-27 -3 -121 -50 -121 -146c0 -74 56 -120 117 -120c71 0 125 63 135 82z" />
    <glyph glyph-name="ampersand.alt" horiz-adv-x="694" 
d="M670 0h-89l-83 129c-18 -32 -109 -142 -245 -142c-131 0 -217 101 -217 230c0 152 121 261 217 287c-15 24 -39 63 -39 115c0 84 64 151 162 151c76 0 112 -40 130 -58l-50 -43c-12 14 -47 42 -90 42c-45 0 -88 -30 -88 -90c0 -43 22 -78 41 -106zM466 177l-182 279
c-26 -3 -182 -64 -182 -228c0 -111 70 -180 163 -180c113 0 188 100 201 129z" />
    <glyph glyph-name="numbersign.alt.sc" horiz-adv-x="943" 
d="M898 354c0 -84 -71 -143 -144 -143c-65 0 -105 48 -105 113c0 87 71 144 141 144c65 0 108 -48 108 -114zM759 261c46 0 87 40 87 92c0 34 -18 65 -58 65c-47 0 -86 -42 -86 -93c0 -34 17 -64 57 -64zM825 79h-185l16 53h186zM507 -19l-340 407l-59 -388h-69l87 543
l340 -408l60 393h69z" />
    </font>
</defs>
</svg>
