<?xml version="1.0" standalone="no"?>
<!DOCTYPE svg PUBLIC "-//W3C//DTD SVG 1.1//EN" "http://www.w3.org/Graphics/SVG/1.1/DTD/svg11.dtd" >
<svg>
<metadata>
Created by FontForge 20120731 at Mon Aug 19 06:47:38 2019
 By www-data
Copyright (c) 2011 Canada Type. Designed by Patrick Griffin &#38; Bill Troop. All rights reserved.
</metadata>
<defs>
<font id="SemplicitaPro-SemibdIt" horiz-adv-x="562" >
  <font-face 
    font-family="SemplicitaPro"
    font-weight="600"
    font-style="italic"
    font-stretch="normal"
    units-per-em="1000"
    panose-1="2 0 7 3 0 0 0 0 0 0"
    ascent="800"
    descent="-200"
    x-height="504"
    cap-height="757"
    bbox="-205 -334 1290 1108"
    underline-thickness="50"
    underline-position="-100"
    unicode-range="U+0020-FB04"
  />
<missing-glyph horiz-adv-x="571" 
d="M532 0h-489l120 758h489zM456 87l92 584h-309l-92 -584h309z" />
    <glyph glyph-name=".notdef" horiz-adv-x="571" 
d="M532 0h-489l120 758h489zM456 87l92 584h-309l-92 -584h309z" />
    <glyph glyph-name="space" unicode=" " horiz-adv-x="240" 
 />
    <glyph glyph-name="exclam" unicode="!" horiz-adv-x="282" 
d="M176 219h-98l66 538h134zM89 -14c-37 0 -62 32 -62 65c0 45 41 84 86 84c38 0 61 -29 61 -64c0 -43 -40 -85 -85 -85z" />
    <glyph glyph-name="quotedbl" unicode="&#x22;" horiz-adv-x="444" 
d="M198 461h-98l29 300h136zM390 461h-97l29 300h134z" />
    <glyph glyph-name="numbersign" unicode="#" horiz-adv-x="642" 
d="M377 -7l-95 13l59 213h-102l-64 -226l-95 13l59 213h-98l18 98h108l27 100h-99l18 97h108l60 217l97 -8l-57 -209h102l59 217l99 -8l-58 -209h96l-16 -97h-108l-27 -100h96l-17 -98h-107zM369 317l26 100h-102l-27 -100h103z" />
    <glyph glyph-name="dollar" unicode="$" horiz-adv-x="591" 
d="M196 -125l-85 4l39 116c-72 19 -119 63 -139 92l81 92c20 -25 53 -55 95 -70l76 229c-80 54 -137 101 -137 195c0 130 111 213 234 213c12 0 25 0 37 -2l38 115l86 -4l-43 -129c50 -22 77 -57 84 -68l-77 -95c-15 19 -30 35 -46 47l-59 -180c101 -69 137 -125 137 -206
c0 -158 -135 -240 -261 -240c-7 0 -15 0 -22 1zM335 295l-63 -194c66 7 106 50 106 108c0 39 -18 65 -43 86zM308 469l52 160c-56 3 -98 -35 -98 -88c0 -35 19 -54 46 -72z" />
    <glyph glyph-name="percent" unicode="%" horiz-adv-x="753" 
d="M208 -26l-73 31l412 743l74 -32zM393 626c0 -97 -85 -177 -177 -177c-74 0 -126 59 -126 134c0 97 84 179 176 179c75 0 127 -60 127 -136zM231 535c39 0 75 36 75 80c0 34 -21 61 -53 61c-39 0 -74 -38 -74 -82c0 -33 21 -59 52 -59zM506 -11c-74 0 -126 59 -126 134
c0 98 85 180 175 180c76 0 128 -60 128 -136c0 -98 -85 -178 -177 -178zM520 74c40 0 74 38 74 82c0 34 -20 60 -52 60c-40 0 -74 -37 -74 -82c0 -33 20 -60 52 -60z" />
    <glyph glyph-name="ampersand" unicode="&#x26;" horiz-adv-x="720" 
d="M694 0h-141l-70 108c-37 -45 -117 -120 -231 -120c-135 0 -223 105 -223 236c0 138 98 242 195 281c-22 33 -31 68 -31 99c0 91 77 166 182 166c89 0 132 -53 152 -73l-80 -71c-14 16 -44 47 -80 47c-29 0 -64 -21 -64 -68c0 -26 11 -49 28 -75h257l-37 -95h-155z
M431 187l-158 242c-33 -8 -139 -64 -139 -189c0 -96 63 -153 138 -153c82 0 142 69 159 100z" />
    <glyph glyph-name="quoteright" unicode="&#x2019;" horiz-adv-x="275" 
d="M161 525h-81l114 232h126z" />
    <glyph glyph-name="parenleft" unicode="(" horiz-adv-x="282" 
d="M157 -225l-97 -37c-18 81 -28 215 -28 325c0 314 103 589 201 773l87 -38c-59 -121 -180 -401 -180 -720c0 -98 7 -218 17 -303z" />
    <glyph glyph-name="parenright" unicode=")" horiz-adv-x="281" 
d="M41 -262l-85 37c101 234 178 428 178 734c0 114 -8 238 -17 289l99 38c15 -72 25 -206 25 -324c0 -300 -83 -563 -200 -774z" />
    <glyph glyph-name="plus" unicode="+" horiz-adv-x="652" 
d="M601 314h-215l-33 -210h-118l33 210h-216l16 99h216l33 211h118l-33 -211h215z" />
    <glyph glyph-name="comma" unicode="," horiz-adv-x="274" 
d="M27 -110h-81l117 232h125z" />
    <glyph glyph-name="hyphen" unicode="-" horiz-adv-x="422" 
d="M324 196h-275l29 98h275z" />
    <glyph glyph-name="period" unicode="." horiz-adv-x="254" 
d="M162 70c0 -41 -39 -84 -85 -84c-36 0 -62 33 -62 66c0 44 42 82 85 82c38 0 62 -28 62 -64z" />
    <glyph glyph-name="slash" unicode="/" horiz-adv-x="544" 
d="M38 -216l-79 30l544 1006l79 -37z" />
    <glyph glyph-name="zero" unicode="0" horiz-adv-x="667" 
d="M290 -16c-183 0 -224 145 -224 295c0 246 110 484 334 484c178 0 223 -149 223 -281c0 -118 -36 -498 -333 -498zM302 87c120 0 193 191 193 373c0 100 -22 201 -111 201c-120 0 -191 -185 -191 -372c0 -91 17 -202 109 -202z" />
    <glyph glyph-name="one" unicode="1" horiz-adv-x="390" 
d="M245 -4h-124l99 620l-120 -53l-30 94l298 115z" />
    <glyph glyph-name="two" unicode="2" horiz-adv-x="603" 
d="M500 0h-515l11 72c161 76 437 301 437 481c0 59 -29 108 -93 108c-63 0 -126 -48 -159 -82l-47 80c41 36 129 104 236 104c120 0 193 -86 193 -193c0 -183 -217 -385 -359 -472l312 6z" />
    <glyph glyph-name="three" unicode="3" horiz-adv-x="549" 
d="M378 418v-1c73 -34 100 -113 100 -180c0 -142 -119 -253 -290 -253c-127 0 -187 62 -202 82l66 87c15 -24 73 -67 151 -67c101 0 157 72 157 148c0 81 -65 144 -166 144c-13 0 -12 -1 -15 -1l12 72c4 -1 8 -1 12 -1c101 0 180 64 180 136c0 43 -27 73 -82 73
c-42 0 -94 -18 -122 -36l-23 87c30 19 104 55 179 55c112 0 171 -80 171 -163c0 -52 -24 -129 -128 -182z" />
    <glyph glyph-name="four" unicode="4" horiz-adv-x="637" 
d="M438 -5h-125l20 127h-336l12 73l476 588h78l-89 -558h102l-16 -103h-102zM357 225l49 311l-244 -311h195z" />
    <glyph glyph-name="five" unicode="5" horiz-adv-x="566" 
d="M-8 49l56 100c31 -30 79 -59 144 -59c112 0 178 85 178 178c0 68 -36 128 -142 128c-30 0 -72 -5 -134 -24l156 376h311l-47 -101h-194l-70 -170c18 3 33 4 46 4c120 0 207 -82 207 -207c0 -136 -103 -290 -303 -290c-108 0 -182 45 -208 65z" />
    <glyph glyph-name="six" unicode="6" horiz-adv-x="622" 
d="M430 768l72 -75c-39 -36 -150 -140 -218 -232c31 11 60 16 87 16c109 0 190 -78 190 -210c0 -170 -135 -282 -295 -282c-131 0 -227 75 -227 216c0 266 338 520 391 567zM277 88c88 0 153 79 153 168c0 66 -36 125 -112 125c-89 0 -151 -82 -151 -171
c0 -69 38 -122 110 -122z" />
    <glyph glyph-name="seven" unicode="7" horiz-adv-x="566" 
d="M136 -9h-143l432 651h-321l17 105h508z" />
    <glyph glyph-name="eight" unicode="8" horiz-adv-x="604" 
d="M444 379c40 -24 81 -71 81 -149c0 -133 -119 -246 -267 -246c-130 0 -212 87 -212 195c0 101 72 169 137 199c-36 22 -76 71 -76 152c0 152 140 234 266 234c122 0 201 -78 201 -187c0 -90 -53 -169 -130 -198zM264 85c72 0 134 68 134 142c0 57 -36 105 -94 105
c-67 0 -132 -64 -132 -143c0 -53 30 -104 92 -104zM322 423c66 0 128 61 128 139c0 51 -26 100 -89 100c-73 0 -133 -64 -133 -135c0 -55 35 -104 94 -104z" />
    <glyph glyph-name="nine" unicode="9" horiz-adv-x="623" 
d="M217 -26l-73 76c34 36 147 145 215 237c-31 -11 -62 -16 -89 -16c-109 0 -188 77 -188 211c0 184 150 281 300 281c126 0 223 -68 223 -210c0 -140 -93 -324 -388 -579zM322 367c88 0 154 82 154 170c0 72 -44 123 -115 123c-87 0 -148 -78 -148 -167
c0 -67 35 -126 109 -126z" />
    <glyph glyph-name="colon" unicode=":" horiz-adv-x="280" 
d="M174 70c0 -41 -40 -84 -85 -84c-36 0 -62 33 -62 66c0 44 42 83 86 83c37 0 61 -29 61 -65zM225 397c0 -43 -39 -84 -84 -84c-37 0 -62 31 -62 65c0 45 41 83 85 83c37 0 61 -28 61 -64z" />
    <glyph glyph-name="less" unicode="&#x3c;" horiz-adv-x="627" 
d="M465 28l-414 309l11 68l510 289l39 -101l-401 -224l327 -243z" />
    <glyph glyph-name="equal" unicode="=" horiz-adv-x="708" 
d="M646 399h-556l16 102h556zM613 190h-556l16 102h556z" />
    <glyph glyph-name="greater" unicode="&#x3e;" horiz-adv-x="626" 
d="M584 335l-511 -289l-38 101l399 224l-325 243l69 98l417 -309z" />
    <glyph glyph-name="question" unicode="?" horiz-adv-x="472" 
d="M373 381l50 -59c-31 -41 -116 -114 -208 -114c-75 0 -150 48 -150 134c0 102 94 146 140 179c53 37 111 78 111 122c0 18 -10 40 -42 40c-38 0 -75 -30 -91 -42l-35 65c33 25 95 68 168 68c85 0 121 -62 121 -120c0 -78 -58 -130 -154 -193c-44 -29 -98 -65 -98 -110
c0 -26 14 -51 50 -51c54 0 117 54 138 81zM174 -14c-37 0 -61 32 -61 67c0 43 40 81 84 81c35 0 59 -29 59 -63c0 -41 -40 -85 -82 -85z" />
    <glyph glyph-name="at" unicode="@" horiz-adv-x="984" 
d="M663 -89l21 -81c-106 -43 -186 -52 -245 -52c-230 0 -395 183 -395 415c0 294 260 543 543 543c228 0 354 -149 354 -349c0 -186 -164 -410 -424 -410c-160 0 -231 89 -231 182c0 100 82 203 222 203c39 0 79 -14 104 -39l6 35c10 57 -20 75 -87 75
c-66 0 -112 -19 -129 -26l-22 74c42 19 110 46 175 46c152 0 176 -92 159 -197l-25 -160h-32c-26 86 -116 100 -159 100c-73 0 -112 -46 -112 -94c0 -51 46 -106 147 -106c184 0 312 154 312 301c0 111 -60 270 -276 270c-226 0 -430 -200 -430 -440
c0 -173 130 -330 312 -330c60 0 123 2 212 40z" />
    <glyph glyph-name="A" unicode="A" horiz-adv-x="720" 
d="M684 0h-143l-42 148h-325l-87 -148h-146l498 788zM468 264l-73 264l-153 -264h226z" />
    <glyph glyph-name="B" unicode="B" horiz-adv-x="639" 
d="M247 0h-209l120 757h173c135 0 243 -41 243 -162c0 -108 -87 -164 -133 -184c65 -19 135 -61 135 -176c0 -145 -110 -235 -329 -235zM238 454h57c85 0 139 35 139 107c0 54 -30 80 -97 80h-69zM184 116h104c103 0 154 58 154 126c0 63 -44 102 -123 102h-99z" />
    <glyph glyph-name="C" unicode="C" horiz-adv-x="736" 
d="M621 167l46 -83c-76 -66 -168 -101 -271 -101c-211 0 -343 148 -343 351c0 250 200 440 450 440c157 0 234 -75 252 -107l-82 -89c-43 52 -112 80 -186 80c-177 0 -296 -158 -296 -317c0 -136 86 -243 232 -243c88 0 167 39 198 69z" />
    <glyph glyph-name="D" unicode="D" horiz-adv-x="743" 
d="M231 0h-193l120 757h213c192 0 336 -101 336 -336c0 -275 -198 -421 -476 -421zM184 116h84c158 0 302 98 302 297c0 148 -79 228 -203 228h-99z" />
    <glyph glyph-name="E" unicode="E" horiz-adv-x="578" 
d="M489 1h-451l120 755h421l-19 -116h-293l-28 -180h236l-19 -116h-236l-36 -227h323z" />
    <glyph glyph-name="F" unicode="F" horiz-adv-x="531" 
d="M166 0h-128l120 756h415l-19 -116h-287l-29 -184h232l-18 -117h-232z" />
    <glyph glyph-name="G" unicode="G" horiz-adv-x="822" 
d="M649 289h-176l17 109h316c-53 -309 -233 -416 -412 -416c-207 0 -341 142 -341 349c0 260 213 443 455 443c175 0 257 -95 262 -101l-80 -96c-4 8 -69 81 -193 81c-177 0 -307 -150 -307 -318c0 -126 74 -242 216 -242c119 0 217 81 243 191z" />
    <glyph glyph-name="H" unicode="H" horiz-adv-x="763" 
d="M627 0h-127l52 328h-334l-52 -328h-128l120 757h128l-50 -313h334l50 313h127z" />
    <glyph glyph-name="I" unicode="I" horiz-adv-x="302" 
d="M166 0h-128l120 757h128z" />
    <glyph glyph-name="J" unicode="J" horiz-adv-x="302" 
d="M-108 -258l-29 109c130 43 165 82 191 248l104 658h128l-105 -663c-34 -214 -98 -279 -289 -352z" />
    <glyph glyph-name="K" unicode="K" horiz-adv-x="690" 
d="M664 0h-178l-271 317l-49 -317h-128l120 757h128l-47 -299l318 299h160l-402 -370z" />
    <glyph glyph-name="L" unicode="L" horiz-adv-x="529" 
d="M466 1h-428l120 756h128l-102 -640h300z" />
    <glyph glyph-name="M" unicode="M" horiz-adv-x="951" 
d="M851 0h-137l25 374c1 11 1 19 3 30c-5 -10 -15 -25 -18 -29l-301 -404l-167 405c-3 7 -13 27 -16 36c0 -8 -6 -37 -6 -37l-95 -375h-137l219 777l230 -540c5 -12 7 -20 7 -29c3 9 8 16 18 29l403 540z" />
    <glyph glyph-name="N" unicode="N" horiz-adv-x="831" 
d="M691 -28l-452 507l-74 -479h-128l124 778l450 -518l77 497h128z" />
    <glyph glyph-name="O" unicode="O" horiz-adv-x="877" 
d="M847 429c0 -252 -212 -446 -450 -446c-212 0 -344 153 -344 351c0 258 224 440 455 440c207 0 339 -146 339 -345zM409 98c151 0 301 144 301 322c0 137 -90 238 -218 238c-150 0 -301 -140 -301 -315c0 -129 83 -245 218 -245z" />
    <glyph glyph-name="P" unicode="P" horiz-adv-x="587" 
d="M166 0h-128l120 757h158c165 0 272 -51 272 -208s-106 -289 -330 -289h-51zM226 376h48c117 0 177 72 177 163c0 62 -28 101 -118 101h-66z" />
    <glyph glyph-name="Q" unicode="Q" horiz-adv-x="877" 
d="M803 -15l-107 -92l-112 134c-57 -30 -132 -44 -193 -44c-199 0 -338 149 -338 351c0 258 225 440 454 440c206 0 341 -146 341 -341c0 -141 -70 -261 -164 -343zM409 98c151 0 302 144 302 322c0 137 -90 238 -218 238c-151 0 -301 -140 -301 -315
c0 -131 83 -245 217 -245z" />
    <glyph glyph-name="R" unicode="R" horiz-adv-x="610" 
d="M595 0h-166l-197 280h-22l-44 -280h-128l120 757h154c125 0 276 -32 276 -197c0 -126 -87 -239 -221 -265zM228 391h52c115 0 171 67 171 151c0 63 -31 98 -131 98h-53z" />
    <glyph glyph-name="S" unicode="S" horiz-adv-x="579" 
d="M-7 90l83 92c30 -36 88 -83 170 -83c85 0 134 49 134 114c0 151 -266 135 -266 350c0 149 134 211 257 211c127 0 184 -66 197 -85l-76 -95c-31 38 -73 66 -124 66c-55 0 -118 -31 -118 -91c0 -125 269 -108 269 -343c0 -160 -130 -243 -280 -243
c-133 0 -214 65 -246 107z" />
    <glyph glyph-name="T" unicode="T" horiz-adv-x="585" 
d="M309 0h-128l101 640h-212l18 116h551l-18 -116h-211z" />
    <glyph glyph-name="U" unicode="U" horiz-adv-x="753" 
d="M514 140l98 617h128l-105 -666c-65 -60 -167 -108 -312 -108c-187 0 -277 98 -246 295l76 479h128l-65 -409c-33 -208 0 -252 146 -252c59 0 113 16 152 44z" />
    <glyph glyph-name="V" unicode="V" horiz-adv-x="686" 
d="M287 -40l-232 797h143l131 -498c2 -9 1 -20 -1 -35c3 15 8 27 12 35l285 498h143z" />
    <glyph glyph-name="W" unicode="W" horiz-adv-x="1030" 
d="M690 -37l-152 507l-308 -505l-167 792h142l87 -453c1 -10 1 -19 0 -33c2 14 6 23 12 33l287 484l128 -484c2 -10 2 -21 1 -36c3 15 6 25 12 36l230 453h140z" />
    <glyph glyph-name="X" unicode="X" horiz-adv-x="701" 
d="M648 0h-160l-139 285l-237 -285h-160l340 395l-201 362h160l130 -262l218 262h160l-323 -372z" />
    <glyph glyph-name="Y" unicode="Y" horiz-adv-x="634" 
d="M328 0h-128l50 313l-196 444h142l129 -311c3 -7 4 -12 2 -24c3 12 6 16 12 24l238 311h142l-341 -444z" />
    <glyph glyph-name="Z" unicode="Z" horiz-adv-x="665" 
d="M580 1h-626l498 639h-312l19 116h542l-497 -639h394z" />
    <glyph glyph-name="bracketleft" unicode="[" horiz-adv-x="337" 
d="M218 -216h-224l164 1036h224l-15 -93h-121l-135 -853h121z" />
    <glyph glyph-name="backslash" unicode="\" horiz-adv-x="538" 
d="M426 -186l-89 -31l-227 1001l90 36z" />
    <glyph glyph-name="bracketright" unicode="]" horiz-adv-x="336" 
d="M176 -216h-224l15 93h118l135 853h-118l14 90h224z" />
    <glyph glyph-name="asciicircum" unicode="^" horiz-adv-x="676" 
d="M669 404h-138l-89 262l-171 -262h-137l283 410h97z" />
    <glyph glyph-name="underscore" unicode="_" horiz-adv-x="623" 
d="M502 -49h-493l16 98h493z" />
    <glyph glyph-name="quoteleft" unicode="&#x2018;" horiz-adv-x="281" 
d="M201 525h-126l160 232h81z" />
    <glyph glyph-name="a" unicode="a" horiz-adv-x="526" 
d="M325 106l14 88c-18 21 -60 43 -106 43c-66 0 -106 -45 -106 -88c0 -35 27 -70 93 -70c38 0 80 12 105 27zM470 318l-42 -265c-41 -36 -132 -68 -223 -68c-144 0 -201 79 -201 159c0 93 76 185 213 185c52 0 109 -13 136 -45l9 59c7 48 -9 78 -90 78
c-63 0 -111 -18 -140 -29l-22 86c46 21 109 41 190 41c160 0 189 -79 170 -201z" />
    <glyph glyph-name="b" unicode="b" horiz-adv-x="583" 
d="M23 48l122 772h118l-55 -346c36 22 89 45 149 45c124 0 182 -100 182 -223c0 -195 -145 -311 -315 -311c-67 0 -145 18 -201 63zM192 371l-42 -264c17 -14 49 -24 86 -24c110 0 177 91 177 202c0 76 -32 135 -99 135c-43 0 -96 -25 -122 -49z" />
    <glyph glyph-name="c" unicode="c" horiz-adv-x="503" 
d="M414 140l24 -82c-25 -26 -103 -73 -190 -73c-118 0 -222 87 -222 235c0 181 155 299 303 299c91 0 146 -44 159 -59l-59 -89c-12 14 -49 49 -107 49c-85 0 -173 -75 -173 -195c0 -84 44 -143 125 -143c66 0 123 39 140 58z" />
    <glyph glyph-name="d" unicode="d" horiz-adv-x="584" 
d="M369 109l43 267c-19 27 -58 45 -99 45c-93 0 -161 -94 -161 -197c0 -89 50 -141 123 -141c23 0 61 5 94 26zM429 485l53 335h118l-122 -772c-74 -44 -154 -63 -219 -63c-126 0 -232 71 -232 229c0 177 132 305 295 305c45 0 79 -10 107 -34z" />
    <glyph glyph-name="e" unicode="e" horiz-adv-x="567" 
d="M449 136l24 -84c-30 -24 -112 -67 -215 -67c-143 0 -231 84 -231 228c0 175 129 306 297 306c162 0 221 -121 198 -262l-8 -49h-367c-6 -61 26 -125 142 -125c78 0 126 29 160 53zM163 303h244c9 66 -24 123 -97 123c-65 0 -129 -44 -147 -123z" />
    <glyph glyph-name="f" unicode="f" horiz-adv-x="365" 
d="M175 0h-117l65 408h-81l15 96h81l16 99c10 63 34 119 69 154c43 43 105 60 158 60c70 0 119 -30 125 -36l-59 -91c-11 8 -38 27 -76 27c-56 0 -89 -42 -100 -112l-16 -101h121l-15 -96h-121z" />
    <glyph glyph-name="g" unicode="g" horiz-adv-x="576" 
d="M338 -40l13 85c-38 -37 -92 -60 -141 -60c-92 0 -183 79 -183 228c0 192 150 306 322 306c91 0 156 -32 187 -52l-78 -491c-35 -220 -162 -247 -265 -247c-120 0 -185 36 -217 61l62 90c19 -20 84 -53 156 -53c67 0 128 29 144 133zM367 145l41 256c-18 9 -45 21 -81 21
c-86 0 -175 -69 -175 -196c0 -67 20 -142 102 -142c49 0 92 30 113 61z" />
    <glyph glyph-name="h" unicode="h" 
d="M450 0h-118l44 275c13 81 9 140 -61 140c-56 0 -104 -37 -123 -58l-57 -357h-118l130 820h118l-58 -367c35 28 89 66 169 66c97 0 147 -56 127 -182z" />
    <glyph glyph-name="i" unicode="i" horiz-adv-x="258" 
d="M139 0h-118l80 505h118zM174 592c-38 0 -63 26 -63 64c0 51 39 88 87 88c40 0 64 -27 64 -64c0 -51 -40 -88 -88 -88z" />
    <glyph glyph-name="j" unicode="j" horiz-adv-x="259" 
d="M-85 -268l-31 89c112 33 117 50 143 217l74 467h118l-74 -469c-29 -183 -59 -254 -230 -304zM175 592c-37 0 -64 26 -64 65c0 51 42 87 88 87c41 0 64 -27 64 -64c0 -51 -40 -88 -88 -88z" />
    <glyph glyph-name="k" unicode="k" horiz-adv-x="515" 
d="M468 0h-141l-155 239l-37 -239h-118l130 820h118l-82 -515l183 200h145l-230 -232z" />
    <glyph glyph-name="l" unicode="l" horiz-adv-x="254" 
d="M137 0h-118l130 820h118z" />
    <glyph glyph-name="m" unicode="m" horiz-adv-x="845" 
d="M732 0h-118l51 320c10 65 -9 95 -56 95c-48 0 -95 -32 -118 -56l-57 -359h-118l51 325c10 64 -14 90 -63 90c-42 0 -93 -36 -112 -56l-57 -359h-118l80 505h118l-8 -53c24 22 88 67 161 67c77 0 99 -46 107 -76c44 31 111 76 185 76c98 0 146 -55 126 -180z" />
    <glyph glyph-name="n" unicode="n" 
d="M450 0h-118l44 275c14 88 9 140 -68 140c-44 0 -98 -37 -116 -58l-57 -357h-118l80 505h118l-8 -52c29 24 90 66 164 66c104 0 152 -55 132 -182z" />
    <glyph glyph-name="o" unicode="o" horiz-adv-x="598" 
d="M254 -15c-144 0 -228 101 -228 233c0 177 150 301 304 301c141 0 224 -104 224 -233c0 -162 -131 -301 -300 -301zM264 83c93 0 165 82 165 198c0 83 -36 139 -111 139c-91 0 -170 -84 -170 -199c0 -82 40 -138 116 -138z" />
    <glyph glyph-name="p" unicode="p" horiz-adv-x="582" 
d="M93 -255h-118l114 717c74 39 158 57 220 57c125 0 228 -72 228 -225s-102 -309 -270 -309c-63 0 -100 22 -128 49zM196 396l-40 -256c16 -32 63 -56 104 -56c76 0 151 82 151 194c0 84 -43 142 -123 142c-31 0 -70 -9 -92 -24z" />
    <glyph glyph-name="q" unicode="q" horiz-adv-x="589" 
d="M435 -255h-118l46 289c-40 -29 -92 -49 -142 -49c-105 0 -194 88 -194 234c0 199 165 300 328 300c73 0 143 -20 193 -57zM381 148l39 249c-17 12 -48 25 -85 25c-100 0 -185 -93 -185 -208c0 -82 43 -131 107 -131c46 0 91 25 124 65z" />
    <glyph glyph-name="r" unicode="r" horiz-adv-x="383" 
d="M135 0h-118l80 505h118l-12 -78c14 24 63 92 119 92c43 0 66 -14 83 -25l-59 -110c-13 10 -31 24 -61 24c-54 0 -94 -58 -105 -127z" />
    <glyph glyph-name="s" unicode="s" horiz-adv-x="430" 
d="M411 464l-57 -82c-5 9 -44 49 -92 49c-38 0 -71 -24 -71 -57c0 -75 172 -79 172 -227c0 -99 -77 -162 -199 -162c-91 0 -150 35 -182 66l56 84c25 -29 77 -61 126 -61c47 0 77 30 77 65c0 84 -175 95 -175 230c0 83 67 152 186 152c88 0 141 -38 159 -57z" />
    <glyph glyph-name="t" unicode="t" horiz-adv-x="364" 
d="M182 0h-118l65 408h-91l15 96h91l28 173h118l-28 -173h118l-15 -96h-118z" />
    <glyph glyph-name="u" unicode="u" 
d="M348 110l62 395h118l-71 -450c-65 -50 -138 -70 -227 -70c-128 0 -208 65 -187 196l51 324h118l-47 -295c-18 -110 34 -127 93 -127c43 0 74 16 90 27z" />
    <glyph glyph-name="v" unicode="v" horiz-adv-x="507" 
d="M224 -23h-44l-152 528h131l59 -253c8 -36 12 -52 13 -75h2c5 23 14 39 34 75l145 253h129z" />
    <glyph glyph-name="w" unicode="w" horiz-adv-x="739" 
d="M487 -23h-48l-78 277l-167 -277h-47l-115 528h125l57 -268s5 -29 4 -38c2 10 14 33 18 40l153 250h21l73 -252c3 -9 5 -28 4 -37c3 12 10 25 17 38l142 267h124z" />
    <glyph glyph-name="x" unicode="x" horiz-adv-x="531" 
d="M478 0h-140l-89 182l-151 -182h-141l235 275l-132 230h143l70 -153l122 153h138l-206 -241z" />
    <glyph glyph-name="y" unicode="y" horiz-adv-x="541" 
d="M74 -256h-134l218 334l-129 427h131l85 -306l194 306h136z" />
    <glyph glyph-name="z" unicode="z" horiz-adv-x="503" 
d="M419 1h-458l327 407h-212l16 96h412l-320 -407h250z" />
    <glyph glyph-name="braceleft" unicode="{" horiz-adv-x="373" 
d="M274 -126l-38 -87c-151 15 -178 86 -157 220l19 121c12 74 -2 128 -86 176c100 48 130 102 142 176l19 121c21 134 72 205 227 220l10 -87c-93 -14 -114 -47 -130 -146l-19 -120c-11 -72 -30 -117 -79 -164c35 -47 38 -92 27 -164l-19 -120c-16 -99 -5 -132 84 -146z" />
    <glyph glyph-name="bar" unicode="|" horiz-adv-x="262" 
d="M94 -260h-106l171 1080h106z" />
    <glyph glyph-name="braceright" unicode="}" horiz-adv-x="372" 
d="M-29 -213l-10 87c93 14 114 47 130 146l19 120c11 72 30 117 80 164c-35 47 -39 92 -28 164l19 120c16 99 5 132 -84 146l38 87c151 -15 178 -86 157 -220l-19 -121c-12 -74 2 -128 86 -176c-99 -48 -130 -102 -142 -176l-19 -121c-21 -134 -71 -205 -227 -220z" />
    <glyph glyph-name="asciitilde" unicode="~" horiz-adv-x="539" 
d="M495 574l24 -99c-21 -18 -82 -59 -142 -59c-51 0 -97 52 -155 52c-39 0 -92 -32 -117 -48l-27 97c27 22 97 64 150 64c59 0 108 -53 154 -53c51 0 95 33 113 46z" />
    <glyph glyph-name="exclamdown" unicode="&#xa1;" horiz-adv-x="264" 
d="M117 -211h-134l102 538h98zM234 495c0 -45 -40 -84 -85 -84c-38 0 -62 29 -62 64c0 43 40 85 85 85c37 0 62 -32 62 -65z" />
    <glyph glyph-name="cent" unicode="&#xa2;" horiz-adv-x="568" 
d="M298 -26h-80l17 111c-105 19 -176 107 -176 225c0 162 132 267 257 284l24 152h80l-24 -150c73 -7 139 -61 152 -79l-67 -73c-14 14 -63 55 -100 58l-51 -323c56 0 120 47 137 66l26 -78c-29 -34 -91 -74 -177 -80zM251 186l49 306c-53 -21 -118 -75 -118 -174
c0 -70 33 -116 69 -132z" />
    <glyph glyph-name="sterling" unicode="&#xa3;" horiz-adv-x="636" 
d="M550 103l-4 -101c-35 -9 -109 -20 -135 -20c-69 0 -121 28 -171 28c-67 0 -198 -52 -210 -58l-24 91c8 5 85 40 146 54l29 183h-67l14 91h66l25 155c30 187 103 225 216 225c57 0 97 -31 113 -45l-63 -85c-12 6 -31 27 -61 27c-47 0 -67 -33 -78 -102l-28 -175h130
l-14 -91h-130l-28 -171c43 -2 96 -26 150 -26c43 0 72 7 124 20z" />
    <glyph glyph-name="fraction" unicode="&#x2044;" horiz-adv-x="163" 
d="M-116 -39l-89 45l499 765l90 -45z" />
    <glyph glyph-name="yen" unicode="&#xa5;" horiz-adv-x="758" 
d="M613 99h-207l-16 -99h-128l16 99h-203l14 91h203l14 86h-203l14 91h170l-171 390h142l129 -310c3 -7 3 -12 2 -27c3 14 6 19 12 27l238 310h142l-299 -390h173l-14 -91h-207l-14 -86h207z" />
    <glyph glyph-name="florin" unicode="&#x192;" horiz-adv-x="349" 
d="M-89 -244l15 94c13 -3 33 -10 49 -10c41 0 60 53 75 137l78 432h-86l16 95h91l13 79c27 155 73 268 206 268c16 0 70 -13 76 -15l-23 -93c-11 3 -36 5 -49 5c-69 0 -87 -107 -110 -244h100l-16 -95h-101l-88 -479c-21 -114 -94 -193 -177 -193c-35 0 -62 15 -69 19z" />
    <glyph glyph-name="section" unicode="&#xa7;" horiz-adv-x="569" 
d="M290 -124l-234 522c28 55 100 109 171 140c-17 39 -39 85 -55 125c16 51 256 156 308 153l9 -111c-38 0 -161 -21 -205 -34l217 -491c-27 -56 -95 -104 -166 -137c19 -49 49 -111 69 -158c-26 -53 -248 -166 -323 -166l-7 111c39 -1 172 29 216 46zM386 166l-122 283
c-37 0 -77 -25 -95 -36l127 -287c5 -3 68 23 90 40z" />
    <glyph glyph-name="currency" unicode="&#xa4;" horiz-adv-x="698" 
d="M605 155l-102 -67l-58 70c-37 -21 -81 -37 -127 -37s-86 16 -117 37l-83 -71l-73 68l84 73c-13 26 -21 61 -21 98c0 66 25 115 60 159l-60 74l95 69l60 -74c39 24 84 40 130 40s86 -16 116 -39l81 71l80 -67l-85 -75c11 -23 17 -55 17 -88c0 -67 -22 -120 -60 -167
c24 -26 49 -56 63 -74zM334 224c71 0 145 71 145 152c0 65 -45 114 -103 114c-67 0 -144 -67 -144 -150c0 -65 46 -116 102 -116z" />
    <glyph glyph-name="quotesingle" unicode="'" horiz-adv-x="253" 
d="M198 461h-98l29 300h136z" />
    <glyph glyph-name="quotedblleft" unicode="&#x201c;" horiz-adv-x="458" 
d="M385 525h-110l135 232h81zM185 525h-111l162 232h81z" />
    <glyph glyph-name="guillemotleft" unicode="&#xab;" horiz-adv-x="600" 
d="M267 25h-130l-107 213l173 212h128l-183 -213zM515 25h-127l-109 213l173 212h125l-183 -212z" />
    <glyph glyph-name="guilsinglleft" unicode="&#x2039;" horiz-adv-x="351" 
d="M264 26h-127l-107 212l173 212h125l-184 -213z" />
    <glyph glyph-name="guilsinglright" unicode="&#x203a;" horiz-adv-x="350" 
d="M123 25h-127l187 211l-116 213h125l106 -211z" />
    <glyph glyph-name="fi" unicode="&#xfb01;" horiz-adv-x="621" 
d="M175 0h-117l65 408h-81l15 96h81l18 113c23 144 117 214 227 214c46 0 83 -15 106 -26l-60 -89c-15 8 -33 15 -55 15c-57 0 -90 -41 -101 -112l-18 -115h121l-15 -96h-121zM504 0h-118l80 505h118zM537 572c-38 0 -63 26 -63 64c0 51 39 88 88 88c40 0 63 -27 63 -64
c0 -51 -39 -88 -88 -88z" />
    <glyph glyph-name="fl" unicode="&#xfb02;" horiz-adv-x="619" 
d="M175 0h-117l65 408h-81l15 96h81l16 98c9 59 32 116 69 154c43 43 105 60 157 60c40 0 70 -10 93 -19l-45 -96c-12 8 -33 15 -56 15c-57 0 -90 -41 -101 -112l-16 -100h121l-15 -96h-121zM502 0h-118l130 820h118z" />
    <glyph glyph-name="dagger" unicode="&#x2020;" horiz-adv-x="495" 
d="M265 56h-117l75 476h-140l15 97h140l30 186h117l-30 -186h143l-15 -97h-143z" />
    <glyph glyph-name="daggerdbl" unicode="&#x2021;" horiz-adv-x="521" 
d="M277 57h-117l28 176h-140l15 97h140l36 225h-140l15 96h140l27 169h117l-27 -169h143l-15 -96h-143l-36 -225h143l-15 -97h-143z" />
    <glyph glyph-name="paragraph" unicode="&#xb6;" horiz-adv-x="573" 
d="M397 -155h-117l144 912h117zM367 754l-79 -495c-141 -5 -217 100 -217 208c0 131 125 287 296 287z" />
    <glyph glyph-name="quotesinglbase" unicode="&#x201a;" horiz-adv-x="269" 
d="M27 -113h-81l114 232h126z" />
    <glyph glyph-name="quotedblbase" unicode="&#x201e;" horiz-adv-x="456" 
d="M33 -112h-81l106 232h110zM207 -112h-81l132 232h111z" />
    <glyph glyph-name="quotedblright" unicode="&#x201d;" horiz-adv-x="452" 
d="M162 525h-81l106 232h110zM336 525h-81l132 232h111z" />
    <glyph glyph-name="guillemotright" unicode="&#xbb;" horiz-adv-x="593" 
d="M123 24h-125l188 212l-117 213h125l106 -211zM367 24h-122l187 213l-117 212h122l104 -211z" />
    <glyph glyph-name="perthousand" unicode="&#x2030;" horiz-adv-x="1114" 
d="M209 -26l-73 31l412 743l74 -32zM394 626c0 -97 -85 -177 -177 -177c-74 0 -126 59 -126 134c0 97 84 179 176 179c75 0 127 -60 127 -136zM232 535c39 0 75 36 75 80c0 34 -21 61 -53 61c-39 0 -74 -38 -74 -82c0 -33 21 -59 52 -59zM507 -11c-74 0 -126 59 -126 134
c0 98 85 180 175 180c76 0 128 -60 128 -136c0 -98 -85 -178 -177 -178zM521 74c40 0 74 38 74 82c0 34 -20 60 -52 60c-40 0 -74 -37 -74 -82c0 -33 20 -60 52 -60zM869 -11c-74 0 -126 59 -126 134c0 98 85 180 175 180c76 0 128 -60 128 -136c0 -98 -84 -178 -177 -178z
M883 74c40 0 74 38 74 82c0 34 -20 60 -52 60c-39 0 -73 -37 -73 -82c0 -33 20 -60 51 -60z" />
    <glyph glyph-name="grave" unicode="`" horiz-adv-x="357" 
d="M401 628l-75 -45l-162 163l102 68z" />
    <glyph glyph-name="acute" unicode="&#xb4;" horiz-adv-x="357" 
d="M428 746l-213 -163l-70 50l195 186z" />
    <glyph glyph-name="circumflex" unicode="&#x2c6;" horiz-adv-x="457" 
d="M511 643l-73 -71l-105 93l-131 -93l-53 71l204 136z" />
    <glyph glyph-name="tilde" unicode="&#x2dc;" horiz-adv-x="522" 
d="M530 740l38 -79c-34 -28 -95 -78 -149 -78c-58 0 -81 49 -123 49c-31 0 -60 -28 -93 -50l-46 73c31 25 107 78 158 78c50 0 75 -51 114 -51c36 0 83 40 101 58z" />
    <glyph glyph-name="macron" unicode="&#xaf;" horiz-adv-x="500" 
d="M551 600h-412l16 99h412z" />
    <glyph glyph-name="breve" unicode="&#x2d8;" horiz-adv-x="441" 
d="M404 755h109c-17 -76 -86 -172 -204 -172c-85 0 -151 59 -142 172h112c-2 -14 -7 -83 43 -83c64 0 81 76 82 83z" />
    <glyph glyph-name="dotaccent" unicode="&#x2d9;" horiz-adv-x="231" 
d="M292 664c0 -43 -38 -81 -84 -81c-34 0 -61 29 -61 63c0 44 43 82 84 82c37 0 61 -28 61 -64z" />
    <glyph glyph-name="dieresis" unicode="&#xa8;" horiz-adv-x="479" 
d="M296 654c0 -39 -38 -72 -81 -72c-33 0 -58 25 -58 56c0 41 39 73 78 73c36 0 61 -24 61 -57zM526 655c0 -39 -34 -73 -80 -73c-35 0 -58 25 -58 56c0 40 35 73 78 73c38 0 60 -24 60 -56z" />
    <glyph glyph-name="ring" unicode="&#x2da;" horiz-adv-x="332" 
d="M395 719c0 -73 -67 -136 -141 -136c-60 0 -102 46 -102 105c0 76 68 137 141 137c60 0 102 -48 102 -106zM265 652c29 0 57 28 57 59c0 25 -17 46 -40 46c-28 0 -55 -29 -55 -60c0 -25 16 -45 38 -45z" />
    <glyph glyph-name="cedilla" unicode="&#xb8;" horiz-adv-x="259" 
d="M88 -244h-99l100 205h140z" />
    <glyph glyph-name="hungarumlaut" unicode="&#x2dd;" horiz-adv-x="586" 
d="M420 713l-233 -131l-38 57l213 164zM651 713l-234 -131l-37 57l213 164z" />
    <glyph glyph-name="ogonek" unicode="&#x2db;" horiz-adv-x="408" 
d="M391 -115l-12 -78c-45 -24 -87 -34 -123 -34c-67 0 -99 37 -99 85c0 54 43 119 140 166h77c-94 -64 -114 -112 -114 -140c0 -18 15 -24 36 -24c33 0 78 14 95 25z" />
    <glyph glyph-name="caron" unicode="&#x2c7;" horiz-adv-x="455" 
d="M522 714l-202 -136l-160 136l75 71l103 -93l133 93z" />
    <glyph glyph-name="emdash" unicode="&#x2014;" horiz-adv-x="906" 
d="M805 196h-756l32 98h755z" />
    <glyph glyph-name="AE" unicode="&#xc6;" horiz-adv-x="973" 
d="M884 1h-451l23 147h-244l-110 -148h-167l600 756h439l-19 -116h-293l-28 -180h236l-19 -116h-236l-35 -227h323zM475 264l46 290l-220 -290h174z" />
    <glyph glyph-name="ordfeminine" unicode="&#xaa;" horiz-adv-x="446" 
d="M299 458l9 59c-12 10 -34 20 -58 20c-33 0 -64 -19 -64 -51c0 -25 18 -42 53 -42c21 0 43 6 60 14zM430 593l-28 -177c-51 -38 -120 -49 -174 -49c-116 0 -158 51 -158 114c0 93 92 127 170 127c38 0 61 -8 78 -16l4 25c4 27 -6 46 -56 46c-41 0 -84 -13 -102 -19l-21 65
c40 17 89 31 151 31c122 0 151 -53 136 -147z" />
    <glyph glyph-name="Lslash" unicode="&#x141;" horiz-adv-x="536" 
d="M472 1h-427l31 196l-81 -46l20 124l81 47l69 435h128l-57 -361l165 92l-19 -124l-166 -93l-24 -154h299z" />
    <glyph glyph-name="Oslash" unicode="&#xd8;" horiz-adv-x="877" 
d="M229 -143l-107 33l81 146c-95 62 -150 170 -150 298c0 258 224 440 455 440c35 0 67 -4 98 -12l68 122l105 -41l-71 -127c88 -61 139 -164 139 -287c0 -252 -212 -446 -450 -446c-33 0 -64 4 -92 11zM268 152l277 500c-17 4 -35 6 -53 6c-150 0 -301 -140 -301 -315
c0 -75 27 -145 77 -191zM642 597l-277 -495c14 -3 29 -4 44 -4c151 0 301 144 301 322c0 72 -26 135 -68 177z" />
    <glyph glyph-name="OE" unicode="&#x152;" horiz-adv-x="1187" 
d="M1098 1h-452l15 90c-88 -95 -187 -108 -273 -108c-197 0 -336 154 -336 344c0 266 222 447 462 447c89 0 181 -38 235 -125l17 107h421l-19 -116h-293l-28 -180h237l-18 -116h-237l-36 -227h324zM400 98c162 0 309 144 309 320c0 139 -91 240 -214 240
c-156 0 -305 -140 -305 -314c0 -130 87 -246 210 -246z" />
    <glyph glyph-name="ordmasculine" unicode="&#xba;" horiz-adv-x="490" 
d="M485 573c0 -110 -93 -206 -225 -206c-114 0 -179 72 -179 167c0 125 111 206 227 206c112 0 177 -75 177 -167zM272 451c57 0 96 51 96 117c0 51 -24 88 -70 88c-56 0 -100 -55 -100 -119c0 -47 24 -86 74 -86z" />
    <glyph glyph-name="ae" unicode="&#xe6;" horiz-adv-x="875" 
d="M758 136l22 -84c-29 -24 -111 -67 -214 -67c-67 0 -121 19 -161 52c-47 -29 -124 -52 -200 -52c-144 0 -201 80 -201 158c0 95 76 186 215 186c49 0 107 -13 134 -45l9 59c7 48 -9 78 -91 78c-62 0 -110 -18 -139 -29l-22 86c46 21 109 41 190 41c84 0 126 -15 156 -74
c40 50 111 74 178 74c158 0 220 -122 197 -262l-8 -49h-368c-1 -7 -2 -14 -2 -21c0 -63 40 -104 146 -104c77 0 129 33 159 53zM347 119c-4 17 -7 34 -7 54c0 6 0 13 1 20c-14 20 -60 44 -107 44c-66 0 -107 -45 -107 -87c0 -36 28 -71 92 -71c37 0 90 12 128 40zM470 303
h244c9 66 -23 123 -96 123c-64 0 -128 -44 -148 -123z" />
    <glyph glyph-name="lslash" unicode="&#x142;" horiz-adv-x="315" 
d="M160 0h-118l34 218l-74 -45l19 120l74 45l76 482h118l-64 -406l84 53l-20 -122l-83 -52z" />
    <glyph glyph-name="oslash" unicode="&#xf8;" horiz-adv-x="598" 
d="M95 -147l-85 34l92 149c-50 42 -76 107 -76 182c0 177 150 301 304 301c23 0 44 -3 64 -8l79 128l87 -38l-83 -133c50 -43 77 -108 77 -182c0 -162 -131 -301 -300 -301c-26 0 -50 4 -71 10zM412 363l-173 -278c8 -2 16 -2 25 -2c93 0 165 82 165 198c0 32 -6 60 -17 82z
M165 139l172 279c-6 1 -12 2 -19 2c-91 0 -170 -84 -170 -199c0 -32 6 -60 17 -82z" />
    <glyph glyph-name="oe" unicode="&#x153;" horiz-adv-x="962" 
d="M844 136l24 -84c-30 -24 -112 -67 -215 -67c-86 0 -151 30 -190 85c-54 -53 -127 -85 -209 -85c-144 0 -228 101 -228 233c0 177 150 301 304 301c80 0 141 -34 179 -86c53 54 127 86 210 86c162 0 221 -121 198 -262l-8 -49h-367c-6 -61 26 -125 142 -125
c78 0 126 29 160 53zM264 83c93 0 165 82 165 198c0 83 -36 139 -111 139c-91 0 -170 -84 -170 -199c0 -82 40 -138 116 -138zM558 303h244c9 66 -24 123 -97 123c-65 0 -129 -44 -147 -123z" />
    <glyph glyph-name="germandbls" unicode="&#xdf;" horiz-adv-x="608" 
d="M215 -242l15 97c114 11 174 117 174 197c0 54 -29 100 -94 100c-24 0 -47 -6 -71 -17l176 273h-175l-65 -408h-117l65 408h-81l15 96h81l16 99c9 59 31 116 68 154c43 43 105 60 159 60c71 0 119 -30 125 -36l-59 -91c-10 8 -37 27 -76 27c-56 0 -89 -42 -100 -112
l-16 -101h343l-199 -291c9 2 18 3 26 3c68 0 104 -66 104 -146c0 -126 -96 -283 -314 -312z" />
    <glyph glyph-name="logicalnot" unicode="&#xac;" horiz-adv-x="691" 
d="M579 110h-128l31 193h-419l18 111h547z" />
    <glyph glyph-name="trademark" unicode="&#x2122;" horiz-adv-x="1006" 
d="M314 370h-110l45 287h-124l16 101h358l-16 -101h-124zM950 370h-112l6 166l-142 -181l-81 180l-46 -165h-111l128 399l139 -239l214 238z" />
    <glyph glyph-name="Eth" unicode="&#xd0;" horiz-adv-x="758" 
d="M247 0h-193l51 323h-90l18 112h90l51 322h213c192 0 336 -101 336 -336c0 -275 -198 -421 -476 -421zM200 116h84c158 0 302 98 302 297c0 148 -79 228 -203 228h-99l-33 -206h163l-18 -112h-163z" />
    <glyph glyph-name="onehalf" unicode="&#xbd;" horiz-adv-x="943" 
d="M211 -39l-89 45l499 765l90 -45zM267 328h-110l51 324l-76 -28l-29 85l237 81zM841 0h-391c80 51 301 214 301 315c0 32 -23 48 -50 48c-35 0 -78 -28 -99 -48l-42 73c32 24 97 66 172 66c86 0 138 -54 138 -122c0 -113 -141 -214 -193 -251l178 10z" />
    <glyph glyph-name="plusminus" unicode="&#xb1;" horiz-adv-x="685" 
d="M627 362h-215l-33 -210h-118l33 210h-216l16 99h216l33 211h118l-33 -211h215zM570 1h-549l16 99h549z" />
    <glyph glyph-name="Thorn" unicode="&#xde;" horiz-adv-x="589" 
d="M166 0h-128l120 757h128l-21 -129h30c165 0 273 -52 273 -209s-107 -288 -330 -288h-51zM205 247h48c117 0 178 73 178 161c0 64 -32 103 -113 103h-71z" />
    <glyph glyph-name="onequarter" unicode="&#xbc;" horiz-adv-x="882" 
d="M211 -39l-89 45l499 765l90 -45zM267 328h-110l51 324l-76 -28l-29 85l237 81zM793 70h-70l-12 -75h-105l12 75h-229l11 69l309 312h74l-46 -294h70zM635 151l22 145l-138 -145h116z" />
    <glyph glyph-name="divide" unicode="&#xf7;" horiz-adv-x="674" 
d="M382 166c0 -39 -34 -74 -79 -74c-33 0 -56 26 -56 57c0 39 37 72 76 72c37 0 59 -25 59 -55zM445 566c0 -39 -33 -72 -78 -72c-33 0 -56 25 -56 55c0 38 36 72 76 72c38 0 58 -24 58 -55zM612 314h-549l16 99h549z" />
    <glyph glyph-name="brokenbar" unicode="&#xa6;" horiz-adv-x="267" 
d="M96 -260h-106l70 439h106zM198 381h-106l69 439h106z" />
    <glyph glyph-name="degree" unicode="&#xb0;" horiz-adv-x="425" 
d="M431 654c0 -98 -92 -177 -193 -177c-85 0 -143 59 -143 137c0 97 90 178 193 178c83 0 143 -61 143 -138zM249 553c44 0 82 43 82 94c0 38 -22 68 -56 68c-42 0 -80 -43 -80 -94c0 -38 22 -68 54 -68z" />
    <glyph glyph-name="thorn" unicode="&#xfe;" horiz-adv-x="583" 
d="M95 -255h-118l170 1075h118l-49 -314c27 9 71 13 99 13c121 0 224 -74 224 -225c0 -153 -107 -309 -271 -309c-60 0 -98 21 -127 49zM198 396l-40 -256c16 -32 63 -56 104 -56c76 0 151 82 151 194c0 84 -43 142 -123 142c-31 0 -70 -9 -92 -24z" />
    <glyph glyph-name="threequarters" unicode="&#xbe;" horiz-adv-x="967" 
d="M880 70h-70l-12 -75h-106l12 75h-228l11 69l309 312h74l-47 -294h70zM297 -39l-88 45l499 765l90 -45zM51 369l61 77c13 -16 57 -37 97 -37c53 0 79 36 79 67c0 40 -43 62 -102 62c-7 0 -12 0 -18 -1c3 21 5 42 9 63c5 0 3 -1 13 -1c52 0 103 23 103 62
c0 22 -16 33 -41 33c-29 0 -63 -15 -75 -23l-20 80c21 16 76 33 127 33c81 0 126 -42 126 -100c0 -28 -10 -74 -75 -107c44 -20 62 -67 62 -106c0 -83 -85 -153 -202 -153c-83 0 -129 35 -144 51zM605 151h115c8 48 16 97 23 145z" />
    <glyph glyph-name="registered" unicode="&#xae;" horiz-adv-x="693" 
d="M332 200c-141 0 -241 111 -241 251c0 179 162 330 327 330c142 0 241 -111 241 -251c0 -179 -162 -330 -327 -330zM344 277c119 0 236 114 236 245c0 101 -70 184 -173 184c-116 0 -234 -107 -234 -242c0 -104 69 -187 171 -187zM481 337h-82l-51 134l-22 -134h-76
l51 320h88c61 0 118 -20 118 -93c0 -51 -28 -84 -86 -100zM354 510h17c53 0 68 23 68 48s-14 39 -49 39h-22z" />
    <glyph glyph-name="minus" unicode="&#x2212;" horiz-adv-x="704" 
d="M626 314h-549l16 99h549z" />
    <glyph glyph-name="eth" unicode="&#xf0;" horiz-adv-x="598" 
d="M569 714l-108 -62c51 -88 88 -213 88 -325c0 -202 -120 -342 -296 -342c-153 0 -227 107 -227 228c0 179 160 285 283 285c45 0 83 -14 114 -46c-6 37 -27 89 -61 146l-83 -49l-39 68l79 46c-45 64 -94 123 -141 157h161c28 -29 53 -64 79 -103l121 68zM262 83
c85 0 160 76 160 181c0 73 -37 136 -116 136c-98 0 -157 -97 -157 -184c0 -66 34 -133 113 -133z" />
    <glyph glyph-name="multiply" unicode="&#xd7;" horiz-adv-x="654" 
d="M568 176l-94 -65l-151 172l-204 -174l-77 61l219 184l-158 182l93 65l150 -180l204 181l71 -66l-210 -183z" />
    <glyph glyph-name="copyright" unicode="&#xa9;" horiz-adv-x="877" 
d="M402 67c173 0 337 160 337 350c0 146 -98 262 -246 262c-172 0 -336 -158 -336 -349c0 -147 98 -263 245 -263zM388 -25c-195 0 -326 152 -326 343c0 246 217 452 445 452c195 0 328 -151 328 -342c0 -246 -219 -453 -447 -453zM569 270l37 -66
c-50 -41 -113 -58 -172 -58c-136 0 -219 91 -219 202c0 133 119 258 279 258c100 0 147 -48 159 -64l-62 -71c-28 31 -72 43 -111 43c-100 0 -157 -78 -157 -155c0 -69 45 -122 130 -122c57 0 107 24 116 33z" />
    <glyph glyph-name="Aacute" unicode="&#xc1;" horiz-adv-x="720" 
d="M626 879l-316 -49l-18 84l304 69zM684 0h-143l-42 148h-325l-87 -148h-146l498 788zM468 264l-73 264l-153 -264h226z" />
    <glyph glyph-name="Acircumflex" unicode="&#xc2;" horiz-adv-x="720" 
d="M660 876l-69 -68l-144 63l-170 -71l-36 72l225 109zM684 0h-143l-42 148h-325l-87 -148h-146l498 788zM468 264l-73 264l-153 -264h226z" />
    <glyph glyph-name="Adieresis" unicode="&#xc4;" horiz-adv-x="720" 
d="M652 922c0 -42 -36 -79 -88 -79c-39 0 -64 28 -64 61c0 42 38 77 85 77c43 0 67 -26 67 -59zM401 921c0 -42 -41 -78 -88 -78c-37 0 -65 28 -65 61c0 43 43 77 86 77c40 0 67 -26 67 -60zM684 0h-143l-42 148h-325l-87 -148h-146l498 788zM468 264l-73 264l-153 -264h226
z" />
    <glyph glyph-name="Agrave" unicode="&#xc0;" horiz-adv-x="720" 
d="M585 825l-302 49l65 105l281 -69zM684 0h-143l-42 148h-325l-87 -148h-146l498 788zM468 264l-73 264l-153 -264h226z" />
    <glyph glyph-name="Aring" unicode="&#xc5;" horiz-adv-x="720" 
d="M581 938c0 -73 -67 -136 -140 -136c-61 0 -103 46 -103 105c0 76 68 137 141 137c60 0 102 -48 102 -106zM452 871c27 0 57 28 57 59c0 25 -18 46 -40 46c-29 0 -56 -29 -56 -60c0 -25 16 -45 39 -45zM684 0h-143l-42 148h-325l-87 -148h-146l498 788zM468 264l-73 264
l-153 -264h226z" />
    <glyph glyph-name="Atilde" unicode="&#xc3;" horiz-adv-x="720" 
d="M622 980l43 -84c-32 -25 -99 -73 -153 -73c-58 0 -79 49 -121 49c-32 0 -71 -28 -103 -50l-42 77c31 25 113 74 163 74c51 0 74 -51 113 -51c36 0 81 40 100 58zM684 0h-143l-42 148h-325l-87 -148h-146l498 788zM468 264l-73 264l-153 -264h226z" />
    <glyph glyph-name="Ccedilla" unicode="&#xc7;" horiz-adv-x="736" 
d="M315 -267h-98l100 205h140zM621 167l46 -83c-76 -66 -168 -101 -271 -101c-211 0 -343 148 -343 351c0 250 200 440 450 440c157 0 234 -75 252 -107l-82 -89c-43 52 -112 80 -186 80c-177 0 -296 -158 -296 -317c0 -136 86 -243 232 -243c88 0 167 39 198 69z" />
    <glyph glyph-name="Eacute" unicode="&#xc9;" horiz-adv-x="578" 
d="M489 1h-451l120 755h421l-19 -116h-293l-28 -180h236l-19 -116h-236l-36 -227h323zM568 878l-317 -49l-18 84l303 69z" />
    <glyph glyph-name="Ecircumflex" unicode="&#xca;" horiz-adv-x="578" 
d="M489 1h-451l120 755h421l-19 -116h-293l-28 -180h236l-19 -116h-236l-36 -227h323zM539 820l-144 65l-168 -65l-36 72l224 101l192 -105z" />
    <glyph glyph-name="Edieresis" unicode="&#xcb;" horiz-adv-x="578" 
d="M489 1h-451l120 755h421l-19 -116h-293l-28 -180h236l-19 -116h-236l-36 -227h323zM349 892c0 -39 -39 -72 -81 -72c-34 0 -58 25 -58 56c0 41 38 73 78 73c36 0 61 -24 61 -57zM573 893c0 -39 -34 -73 -80 -73c-35 0 -58 25 -58 56c0 40 35 73 78 73c38 0 60 -24 60 -56
z" />
    <glyph glyph-name="Egrave" unicode="&#xc8;" horiz-adv-x="578" 
d="M489 1h-451l120 755h421l-19 -116h-293l-28 -180h236l-19 -116h-236l-36 -227h323zM518 826l-301 49l62 105l282 -69z" />
    <glyph glyph-name="Iacute" unicode="&#xcd;" horiz-adv-x="275" 
d="M136 0h-100l123 757h104zM434 878l-353 -49l-22 84l338 69z" />
    <glyph glyph-name="Icircumflex" unicode="&#xce;" horiz-adv-x="302" 
d="M166 0h-128l120 757h128zM464 886l-69 -68l-155 64l-180 -64l-36 72l235 101z" />
    <glyph glyph-name="Idieresis" unicode="&#xcf;" horiz-adv-x="302" 
d="M211 893c0 -40 -37 -73 -80 -73c-34 0 -58 25 -58 56c0 41 37 73 78 73c35 0 60 -24 60 -56zM409 893c0 -39 -34 -73 -80 -73c-34 0 -57 25 -57 56c0 40 35 73 77 73c38 0 60 -24 60 -56zM166 0h-128l120 757h128z" />
    <glyph glyph-name="Igrave" unicode="&#xcc;" horiz-adv-x="302" 
d="M166 0h-128l120 757h128zM371 823l-310 49l64 105l292 -69z" />
    <glyph glyph-name="Ntilde" unicode="&#xd1;" horiz-adv-x="831" 
d="M691 -28l-452 507l-74 -479h-128l124 778l450 -518l77 497h128zM664 977l42 -84c-31 -25 -98 -73 -152 -73c-58 0 -79 49 -121 49c-32 0 -71 -28 -103 -50l-42 77c31 25 114 74 164 74s73 -51 113 -51c35 0 80 40 99 58z" />
    <glyph glyph-name="Oacute" unicode="&#xd3;" horiz-adv-x="877" 
d="M700 879l-315 -49l-19 84l304 69zM847 429c0 -252 -212 -446 -450 -446c-212 0 -344 153 -344 351c0 258 224 440 455 440c207 0 339 -146 339 -345zM409 98c151 0 301 144 301 322c0 137 -90 238 -218 238c-150 0 -301 -140 -301 -315c0 -129 83 -245 218 -245z" />
    <glyph glyph-name="Ocircumflex" unicode="&#xd4;" horiz-adv-x="877" 
d="M737 876l-69 -68l-144 62l-168 -62l-36 72l223 101zM847 429c0 -252 -212 -446 -450 -446c-212 0 -344 153 -344 351c0 258 224 440 455 440c207 0 339 -146 339 -345zM409 98c151 0 301 144 301 322c0 137 -90 238 -218 238c-150 0 -301 -140 -301 -315
c0 -129 83 -245 218 -245z" />
    <glyph glyph-name="Odieresis" unicode="&#xd6;" horiz-adv-x="877" 
d="M395 892c0 -42 -38 -77 -83 -77c-34 0 -59 26 -59 59c0 43 40 78 81 78c37 0 61 -26 61 -60zM808 892c0 -43 -39 -77 -83 -77c-34 0 -60 26 -60 59c0 43 41 78 82 78c36 0 61 -26 61 -60zM847 429c0 -252 -212 -446 -450 -446c-212 0 -344 153 -344 351
c0 258 224 440 455 440c207 0 339 -146 339 -345zM409 98c151 0 301 144 301 322c0 137 -90 238 -218 238c-150 0 -301 -140 -301 -315c0 -129 83 -245 218 -245z" />
    <glyph glyph-name="Ograve" unicode="&#xd2;" horiz-adv-x="877" 
d="M664 829l-301 49l65 105l282 -69zM847 429c0 -252 -212 -446 -450 -446c-212 0 -344 153 -344 351c0 258 224 440 455 440c207 0 339 -146 339 -345zM409 98c151 0 301 144 301 322c0 137 -90 238 -218 238c-150 0 -301 -140 -301 -315c0 -129 83 -245 218 -245z" />
    <glyph glyph-name="Otilde" unicode="&#xd5;" horiz-adv-x="877" 
d="M698 980l43 -84c-31 -25 -99 -73 -153 -73c-58 0 -79 49 -121 49c-32 0 -70 -28 -102 -50l-43 77c31 25 114 74 164 74s74 -51 113 -51c35 0 81 40 99 58zM847 429c0 -252 -212 -446 -450 -446c-212 0 -344 153 -344 351c0 258 224 440 455 440c207 0 339 -146 339 -345z
M409 98c151 0 301 144 301 322c0 137 -90 238 -218 238c-150 0 -301 -140 -301 -315c0 -129 83 -245 218 -245z" />
    <glyph glyph-name="Scaron" unicode="&#x160;" horiz-adv-x="579" 
d="M607 912l-227 -105l-192 109l58 72l149 -68l165 60zM-7 90l83 92c30 -36 88 -83 170 -83c85 0 134 49 134 114c0 151 -266 135 -266 350c0 149 134 211 257 211c127 0 184 -66 197 -85l-76 -95c-31 38 -73 66 -124 66c-55 0 -118 -31 -118 -91c0 -125 269 -108 269 -343
c0 -160 -130 -243 -280 -243c-133 0 -214 65 -246 107z" />
    <glyph glyph-name="Uacute" unicode="&#xda;" horiz-adv-x="753" 
d="M642 872l-315 -49l-19 84l304 69zM514 140l98 617h128l-105 -666c-65 -60 -167 -108 -312 -108c-187 0 -277 98 -246 295l76 479h128l-65 -409c-33 -208 0 -252 146 -252c59 0 113 16 152 44z" />
    <glyph glyph-name="Ucircumflex" unicode="&#xdb;" horiz-adv-x="753" 
d="M684 887l-69 -68l-144 64l-169 -64l-36 72l224 101zM514 140l98 617h128l-105 -666c-65 -60 -167 -108 -312 -108c-187 0 -277 98 -246 295l76 479h128l-65 -409c-33 -208 0 -252 146 -252c59 0 113 16 152 44z" />
    <glyph glyph-name="Udieresis" unicode="&#xdc;" horiz-adv-x="753" 
d="M308 893c0 -40 -37 -73 -80 -73c-34 0 -58 25 -58 56c0 41 37 73 78 73c35 0 60 -24 60 -56zM763 894c0 -40 -32 -74 -79 -74c-35 0 -58 25 -58 56c0 40 35 73 78 73c38 0 59 -24 59 -55zM514 140l98 617h128l-105 -666c-65 -60 -167 -108 -312 -108
c-187 0 -277 98 -246 295l76 479h128l-65 -409c-33 -208 0 -252 146 -252c59 0 113 16 152 44z" />
    <glyph glyph-name="Ugrave" unicode="&#xd9;" horiz-adv-x="753" 
d="M601 824l-301 49l64 105l282 -69zM514 140l98 617h128l-105 -666c-65 -60 -167 -108 -312 -108c-187 0 -277 98 -246 295l76 479h128l-65 -409c-33 -208 0 -252 146 -252c59 0 113 16 152 44z" />
    <glyph glyph-name="Yacute" unicode="&#xdd;" horiz-adv-x="634" 
d="M580 901l-212 -163l-69 50l192 186zM328 0h-128l50 313l-196 444h142l129 -311c3 -7 4 -12 2 -24c3 12 6 16 12 24l238 311h142l-341 -444z" />
    <glyph glyph-name="Ydieresis" unicode="&#x178;" horiz-adv-x="634" 
d="M729 892c0 -39 -34 -73 -80 -73c-35 0 -59 25 -59 56c0 40 36 73 79 73c38 0 60 -24 60 -56zM217 891c0 -39 -39 -72 -81 -72c-34 0 -58 25 -58 56c0 41 38 73 78 73c36 0 61 -24 61 -57zM328 0h-128l50 313l-196 444h142l129 -311c3 -7 4 -12 2 -24c3 12 6 16 12 24
l238 311h142l-341 -444z" />
    <glyph glyph-name="Zcaron" unicode="&#x17d;" horiz-adv-x="665" 
d="M659 921l-227 -105l-193 103l58 72l151 -62l163 60zM580 1h-626l498 639h-312l19 116h542l-497 -639h394z" />
    <glyph glyph-name="aacute" unicode="&#xe1;" horiz-adv-x="526" 
d="M325 106l14 88c-18 21 -60 43 -106 43c-66 0 -106 -45 -106 -88c0 -35 27 -70 93 -70c38 0 80 12 105 27zM470 318l-42 -265c-41 -36 -132 -68 -223 -68c-144 0 -201 79 -201 159c0 93 76 185 213 185c52 0 109 -13 136 -45l9 59c7 48 -9 78 -90 78
c-63 0 -111 -18 -140 -29l-22 86c46 21 109 41 190 41c160 0 189 -79 170 -201zM508 746l-213 -163l-70 50l195 186z" />
    <glyph glyph-name="acircumflex" unicode="&#xe2;" horiz-adv-x="526" 
d="M470 318l-42 -265c-41 -36 -132 -68 -223 -68c-144 0 -201 79 -201 159c0 93 76 185 213 185c52 0 109 -13 136 -45l9 59c7 48 -9 78 -90 78c-63 0 -111 -18 -140 -29l-22 86c46 21 109 41 190 41c160 0 189 -79 170 -201zM507 640l-73 -71l-106 83l-130 -83l-52 71
l203 135zM325 106l14 88c-18 21 -60 43 -106 43c-66 0 -106 -45 -106 -88c0 -35 27 -70 93 -70c38 0 80 12 105 27z" />
    <glyph glyph-name="adieresis" unicode="&#xe4;" horiz-adv-x="526" 
d="M325 106l14 88c-18 21 -60 43 -106 43c-66 0 -106 -45 -106 -88c0 -35 27 -70 93 -70c38 0 80 12 105 27zM470 318l-42 -265c-41 -36 -132 -68 -223 -68c-144 0 -201 79 -201 159c0 93 76 185 213 185c52 0 109 -13 136 -45l9 59c7 48 -9 78 -90 78
c-63 0 -111 -18 -140 -29l-22 86c46 21 109 41 190 41c160 0 189 -79 170 -201zM260 661c0 -39 -39 -72 -79 -72c-35 0 -59 25 -59 57c0 40 39 72 78 72c35 0 60 -25 60 -57zM490 662c0 -39 -34 -73 -78 -73c-38 0 -60 25 -60 56c0 40 36 73 79 73c37 0 59 -24 59 -56z" />
    <glyph glyph-name="agrave" unicode="&#xe0;" horiz-adv-x="526" 
d="M325 106l14 88c-18 21 -61 43 -105 43c-67 0 -107 -45 -107 -87c0 -36 27 -71 93 -71c38 0 80 12 105 27zM470 318l-42 -265c-41 -36 -132 -68 -223 -68c-144 0 -201 80 -201 158c0 95 76 186 215 186c49 0 107 -13 134 -45l9 59c7 48 -9 78 -91 78
c-62 0 -110 -18 -139 -29l-22 86c46 21 109 41 190 41c160 0 189 -79 170 -201zM412 627l-74 -44l-162 163l100 67z" />
    <glyph glyph-name="aring" unicode="&#xe5;" horiz-adv-x="526" 
d="M325 106l14 88c-18 21 -60 43 -106 43c-66 0 -106 -45 -106 -88c0 -35 27 -70 93 -70c38 0 80 12 105 27zM470 318l-42 -265c-41 -36 -132 -68 -223 -68c-144 0 -201 79 -201 159c0 93 76 185 213 185c52 0 109 -13 136 -45l9 59c7 48 -9 78 -90 78
c-63 0 -111 -18 -140 -29l-22 86c46 21 109 41 190 41c160 0 189 -79 170 -201zM442 699c0 -73 -67 -136 -140 -136c-62 0 -103 46 -103 105c0 76 69 137 139 137c63 0 104 -48 104 -106zM313 632c28 0 56 28 56 59c0 25 -17 46 -41 46c-28 0 -54 -29 -54 -61
c0 -24 15 -44 39 -44z" />
    <glyph glyph-name="atilde" unicode="&#xe3;" horiz-adv-x="526" 
d="M325 106l14 88c-18 21 -60 43 -106 43c-66 0 -106 -45 -106 -88c0 -35 27 -70 93 -70c38 0 80 12 105 27zM470 318l-42 -265c-41 -36 -132 -68 -223 -68c-144 0 -201 79 -201 159c0 93 76 185 213 185c52 0 109 -13 136 -45l9 59c7 48 -9 78 -90 78
c-63 0 -111 -18 -140 -29l-22 86c46 21 109 41 190 41c160 0 189 -79 170 -201zM487 740l38 -79c-40 -32 -96 -78 -150 -78c-56 0 -80 49 -122 49c-31 0 -60 -28 -92 -50l-47 73c31 25 107 78 158 78s75 -51 114 -51c36 0 82 40 101 58z" />
    <glyph glyph-name="ccedilla" unicode="&#xe7;" horiz-adv-x="503" 
d="M180 -264h-99l100 205h140zM414 140l24 -82c-25 -26 -103 -73 -190 -73c-118 0 -222 87 -222 235c0 181 155 299 303 299c91 0 146 -44 159 -59l-59 -89c-12 14 -49 49 -107 49c-85 0 -173 -75 -173 -195c0 -84 44 -143 125 -143c66 0 123 39 140 58z" />
    <glyph glyph-name="eacute" unicode="&#xe9;" horiz-adv-x="567" 
d="M535 746l-212 -163l-70 50l194 186zM449 136l24 -84c-30 -24 -112 -67 -215 -67c-143 0 -231 84 -231 228c0 175 129 306 297 306c162 0 221 -121 198 -262l-8 -49h-367c-6 -61 26 -125 142 -125c78 0 126 29 160 53zM163 303h244c9 66 -24 123 -97 123
c-65 0 -129 -44 -147 -123z" />
    <glyph glyph-name="ecircumflex" unicode="&#xea;" horiz-adv-x="567" 
d="M527 643l-74 -71l-104 93l-132 -93l-52 71l203 136zM449 136l24 -84c-30 -24 -112 -67 -215 -67c-143 0 -231 84 -231 228c0 175 129 306 297 306c162 0 221 -121 198 -262l-8 -49h-367c-6 -61 26 -125 142 -125c78 0 126 29 160 53zM163 303h244c9 66 -24 123 -97 123
c-65 0 -129 -44 -147 -123z" />
    <glyph glyph-name="edieresis" unicode="&#xeb;" horiz-adv-x="567" 
d="M296 654c0 -39 -37 -72 -81 -72c-33 0 -58 25 -58 56c0 41 39 73 78 73c37 0 61 -24 61 -57zM526 655c0 -39 -34 -73 -80 -73c-35 0 -58 25 -58 56c0 40 35 73 78 73c38 0 60 -24 60 -56zM449 136l24 -84c-30 -24 -112 -67 -215 -67c-143 0 -231 84 -231 228
c0 175 129 306 297 306c162 0 221 -121 198 -262l-8 -49h-367c-6 -61 26 -125 142 -125c78 0 126 29 160 53zM163 303h244c9 66 -24 123 -97 123c-65 0 -129 -44 -147 -123z" />
    <glyph glyph-name="egrave" unicode="&#xe8;" horiz-adv-x="567" 
d="M441 628l-76 -45l-162 163l101 68zM449 136l24 -84c-30 -24 -112 -67 -215 -67c-143 0 -231 84 -231 228c0 175 129 306 297 306c162 0 221 -121 198 -262l-8 -49h-367c-6 -61 26 -125 142 -125c78 0 126 29 160 53zM163 303h244c9 66 -24 123 -97 123
c-65 0 -129 -44 -147 -123z" />
    <glyph glyph-name="iacute" unicode="&#xed;" horiz-adv-x="257" 
d="M138 0h-117l80 505h117zM374 746l-213 -163l-70 50l196 186z" />
    <glyph glyph-name="icircumflex" unicode="&#xee;" horiz-adv-x="258" 
d="M139 0h-118l80 505h118zM364 643l-73 -71l-105 93l-131 -93l-53 71l204 136z" />
    <glyph glyph-name="idieresis" unicode="&#xef;" horiz-adv-x="258" 
d="M139 0h-118l80 505h118zM134 654c0 -39 -38 -72 -81 -72c-33 0 -58 25 -58 56c0 41 39 73 78 73c36 0 61 -24 61 -57zM372 655c0 -39 -34 -73 -80 -73c-35 0 -59 25 -59 56c0 40 36 73 79 73c38 0 60 -24 60 -56z" />
    <glyph glyph-name="igrave" unicode="&#xec;" horiz-adv-x="257" 
d="M138 0h-117l80 505h117zM260 628l-75 -45l-162 163l102 68z" />
    <glyph glyph-name="ntilde" unicode="&#xf1;" 
d="M450 0h-118l44 275c13 81 9 140 -61 140c-56 0 -104 -37 -123 -58l-57 -357h-118l80 505h118l-8 -52c35 28 89 66 169 66c97 0 147 -56 127 -182zM496 740l38 -79c-40 -32 -96 -78 -150 -78c-56 0 -80 49 -122 49c-31 0 -60 -28 -92 -50l-47 73c32 25 107 78 158 78
s75 -51 114 -51c36 0 82 40 101 58z" />
    <glyph glyph-name="oacute" unicode="&#xf3;" horiz-adv-x="598" 
d="M526 746l-213 -163l-70 50l196 186zM254 -15c-144 0 -228 101 -228 233c0 177 150 301 304 301c141 0 224 -104 224 -233c0 -162 -131 -301 -300 -301zM264 83c93 0 165 82 165 198c0 83 -36 139 -111 139c-91 0 -170 -84 -170 -199c0 -82 40 -138 116 -138z" />
    <glyph glyph-name="ocircumflex" unicode="&#xf4;" horiz-adv-x="598" 
d="M531 633l-73 -71l-104 93l-132 -93l-52 71l203 136zM254 -15c-144 0 -228 101 -228 233c0 177 150 301 304 301c141 0 224 -104 224 -233c0 -162 -131 -301 -300 -301zM264 83c93 0 165 82 165 198c0 83 -36 139 -111 139c-91 0 -170 -84 -170 -199
c0 -82 40 -138 116 -138z" />
    <glyph glyph-name="odieresis" unicode="&#xf6;" horiz-adv-x="598" 
d="M308 661c0 -39 -37 -72 -81 -72c-33 0 -58 25 -58 56c0 41 40 73 79 73c36 0 60 -24 60 -57zM538 662c0 -39 -34 -73 -80 -73c-34 0 -58 25 -58 56c0 40 37 73 79 73c37 0 59 -24 59 -56zM254 -15c-144 0 -228 101 -228 233c0 177 150 301 304 301
c141 0 224 -104 224 -233c0 -162 -131 -301 -300 -301zM264 83c93 0 165 82 165 198c0 83 -36 139 -111 139c-91 0 -170 -84 -170 -199c0 -82 40 -138 116 -138z" />
    <glyph glyph-name="ograve" unicode="&#xf2;" horiz-adv-x="598" 
d="M435 628l-76 -45l-162 163l102 68zM254 -15c-144 0 -228 101 -228 233c0 177 150 301 304 301c141 0 224 -104 224 -233c0 -162 -131 -301 -300 -301zM264 83c93 0 165 82 165 198c0 83 -36 139 -111 139c-91 0 -170 -84 -170 -199c0 -82 40 -138 116 -138z" />
    <glyph glyph-name="otilde" unicode="&#xf5;" horiz-adv-x="598" 
d="M523 740l37 -79c-34 -28 -95 -78 -149 -78c-58 0 -80 49 -122 49c-32 0 -61 -28 -93 -50l-46 73c30 25 107 78 157 78c51 0 75 -51 115 -51c35 0 82 40 101 58zM254 -15c-144 0 -228 101 -228 233c0 177 150 301 304 301c141 0 224 -104 224 -233
c0 -162 -131 -301 -300 -301zM264 83c93 0 165 82 165 198c0 83 -36 139 -111 139c-91 0 -170 -84 -170 -199c0 -82 40 -138 116 -138z" />
    <glyph glyph-name="scaron" unicode="&#x161;" horiz-adv-x="430" 
d="M462 708l-201 -136l-160 136l75 71l103 -93l132 93zM262 572h-1h1zM411 464l-57 -82c-5 9 -44 49 -92 49c-38 0 -71 -24 -71 -57c0 -75 172 -79 172 -227c0 -99 -77 -162 -199 -162c-91 0 -150 35 -182 66l56 84c25 -29 77 -61 126 -61c47 0 77 30 77 65
c0 84 -175 95 -175 230c0 83 67 152 186 152c88 0 141 -38 159 -57z" />
    <glyph glyph-name="uacute" unicode="&#xfa;" 
d="M555 746l-213 -163l-70 50l196 186zM348 110l62 395h118l-71 -450c-65 -50 -138 -70 -227 -70c-128 0 -208 65 -187 196l51 324h118l-47 -295c-18 -110 34 -127 93 -127c43 0 74 16 90 27z" />
    <glyph glyph-name="ucircumflex" unicode="&#xfb;" 
d="M516 643l-73 -71l-105 93l-131 -93l-53 71l203 136zM348 110l62 395h118l-71 -450c-65 -50 -138 -70 -227 -70c-128 0 -208 65 -187 196l51 324h118l-47 -295c-18 -110 34 -127 93 -127c43 0 74 16 90 27z" />
    <glyph glyph-name="udieresis" unicode="&#xfc;" 
d="M290 654c0 -39 -38 -72 -81 -72c-33 0 -57 25 -57 56c0 41 38 73 78 73c35 0 60 -24 60 -57zM520 655c0 -39 -34 -73 -80 -73c-35 0 -58 25 -58 56c0 40 36 73 79 73c37 0 59 -24 59 -56zM348 110l62 395h118l-71 -450c-65 -50 -138 -70 -227 -70
c-128 0 -208 65 -187 196l51 324h118l-47 -295c-18 -110 34 -127 93 -127c43 0 74 16 90 27z" />
    <glyph glyph-name="ugrave" unicode="&#xf9;" 
d="M422 628l-76 -45l-162 163l102 68zM348 110l62 395h118l-71 -450c-65 -50 -138 -70 -227 -70c-128 0 -208 65 -187 196l51 324h118l-47 -295c-18 -110 34 -127 93 -127c43 0 74 16 90 27z" />
    <glyph glyph-name="yacute" unicode="&#xfd;" horiz-adv-x="541" 
d="M532 746l-213 -163l-70 50l195 186zM74 -256h-134l218 334l-129 427h131l85 -306l194 306h136z" />
    <glyph glyph-name="ydieresis" unicode="&#xff;" horiz-adv-x="541" 
d="M279 654c0 -39 -39 -72 -81 -72c-34 0 -58 25 -58 56c0 41 38 73 78 73c36 0 61 -24 61 -57zM508 656c0 -40 -33 -74 -80 -74c-35 0 -58 25 -58 56c0 40 36 73 78 73c39 0 60 -24 60 -55zM74 -256h-134l218 334l-129 427h131l85 -306l194 306h136z" />
    <glyph glyph-name="zcaron" unicode="&#x17e;" horiz-adv-x="503" 
d="M487 714l-202 -136l-160 136l75 71l102 -93l134 93zM419 1h-458l327 407h-212l16 96h412l-320 -407h250z" />
    <glyph glyph-name="ff" unicode="&#xfb00;" horiz-adv-x="733" 
d="M175 0h-116l65 408h-82l15 96h83l11 72c9 59 31 116 68 154c43 43 105 60 158 60c71 0 119 -30 126 -36l-61 -91c-9 8 -36 27 -75 27c-55 0 -89 -42 -100 -112l-12 -74h122l-15 -96h-122zM540 0h-117l65 408h-82l15 96h82l19 119c9 59 33 116 70 154c43 43 103 60 156 60
c72 0 120 -30 126 -36l-59 -91c-11 8 -38 27 -76 27c-56 0 -89 -42 -100 -112l-19 -121h121l-15 -96h-121z" />
    <glyph glyph-name="ffi" unicode="&#xfb03;" horiz-adv-x="986" 
d="M175 0h-116l65 408h-82l15 96h83l11 72c9 59 31 116 68 154c43 43 105 60 158 60c71 0 119 -30 126 -36l-61 -91c-9 8 -36 27 -75 27c-55 0 -89 -42 -100 -112l-12 -74h122l-15 -96h-122zM540 0h-117l65 408h-82l15 96h82l19 118c9 59 32 116 69 154c43 43 104 60 157 60
c48 0 85 -15 108 -26l-60 -89c-13 8 -33 15 -56 15c-57 0 -90 -41 -101 -112l-19 -120h121l-15 -96h-121zM869 0h-118l80 505h118zM902 572c-37 0 -63 26 -63 65c0 50 40 87 88 87c39 0 63 -27 63 -64c0 -51 -39 -88 -88 -88z" />
    <glyph glyph-name="ffl" unicode="&#xfb04;" horiz-adv-x="984" 
d="M175 0h-116l65 408h-82l15 96h82l11 67c10 59 31 116 68 154c43 43 105 60 158 60c71 0 119 -30 126 -36l-60 -91c-10 8 -37 27 -76 27c-55 0 -89 -42 -100 -112l-11 -69h122l-15 -96h-122zM540 0h-117l65 408h-82l15 96h83l16 103c9 59 32 116 69 154
c43 43 104 60 156 60c39 0 70 -10 92 -19l-43 -96c-14 8 -33 15 -56 15c-57 0 -90 -41 -101 -112l-17 -105h122l-15 -96h-122zM867 0h-118l130 820h118z" />
    <glyph glyph-name="g.sc" horiz-adv-x="649" 
d="M469 202l-130 -1l17 105h259c-41 -245 -182 -321 -319 -321c-157 0 -261 101 -261 250c0 182 155 316 342 316c129 0 197 -63 200 -69l-74 -91c-3 6 -40 52 -129 52c-118 0 -211 -81 -211 -193c0 -84 52 -156 152 -156c88 0 143 56 154 108z" />
    <glyph glyph-name="ldot" unicode="&#x140;" horiz-adv-x="397" 
d="M137 0h-118l130 820h118zM417 411c0 -41 -41 -78 -88 -78c-37 0 -64 28 -64 61c0 44 42 79 86 79c39 0 66 -26 66 -62z" />
    <glyph glyph-name="Gbreve" unicode="&#x11e;" horiz-adv-x="822" 
d="M598 1007h109c-17 -76 -86 -172 -204 -172c-85 0 -151 59 -142 172h112c-2 -14 -7 -83 43 -83c64 0 81 76 82 83zM649 289h-176l17 109h316c-53 -309 -233 -416 -412 -416c-207 0 -341 142 -341 349c0 260 213 443 455 443c175 0 257 -95 262 -101l-80 -96
c-4 8 -69 81 -193 81c-177 0 -307 -150 -307 -318c0 -126 74 -242 216 -242c119 0 217 81 243 191z" />
    <glyph glyph-name="Gcircumflex" unicode="&#x11c;" horiz-adv-x="822" 
d="M746 885l-69 -68l-143 65l-170 -65l-35 72l224 101zM649 289h-176l17 109h316c-53 -309 -233 -416 -412 -416c-207 0 -341 142 -341 349c0 260 213 443 455 443c175 0 257 -95 262 -101l-80 -96c-4 8 -69 81 -193 81c-177 0 -307 -150 -307 -318c0 -126 74 -242 216 -242
c119 0 217 81 243 191z" />
    <glyph glyph-name="uni1E1E" unicode="&#x1e1e;" horiz-adv-x="531" 
d="M166 0h-128l120 756h415l-19 -116h-287l-29 -184h232l-18 -117h-232zM469 901c0 -43 -38 -81 -84 -81c-34 0 -61 29 -61 63c0 44 43 82 84 82c37 0 61 -28 61 -64z" />
    <glyph glyph-name="Eogonek" unicode="&#x118;" horiz-adv-x="577" 
d="M431 -115l-13 -78c-44 -24 -87 -34 -122 -34c-68 0 -99 37 -99 84c0 46 29 99 95 144h-254l120 755h421l-19 -116h-293l-28 -180h236l-19 -116h-236l-36 -227h323l-18 -116h-109c-66 -53 -81 -93 -81 -117c0 -18 16 -24 36 -24c34 0 79 14 96 25z" />
    <glyph glyph-name="Emacron" unicode="&#x112;" horiz-adv-x="578" 
d="M489 1h-451l120 755h421l-19 -116h-293l-28 -180h236l-19 -116h-236l-36 -227h323zM589 852h-411l15 99h411z" />
    <glyph glyph-name="Edotaccent" unicode="&#x116;" horiz-adv-x="578" 
d="M489 1h-451l120 755h421l-19 -116h-293l-28 -180h236l-19 -116h-236l-36 -227h323zM472 901c0 -43 -38 -81 -84 -81c-35 0 -61 29 -61 63c0 44 42 82 84 82c38 0 61 -28 61 -64z" />
    <glyph glyph-name="Ecaron" unicode="&#x11a;" horiz-adv-x="578" 
d="M489 1h-451l120 755h421l-19 -116h-293l-28 -180h236l-19 -116h-236l-36 -227h323zM607 923l-228 -105l-191 103l57 72l151 -68l164 66z" />
    <glyph glyph-name="uni1E0A" unicode="&#x1e0a;" horiz-adv-x="743" 
d="M529 901c0 -43 -39 -81 -84 -81c-35 0 -62 29 -62 63c0 44 43 82 85 82c37 0 61 -28 61 -64zM231 0h-193l120 757h213c192 0 336 -101 336 -336c0 -275 -198 -421 -476 -421zM184 116h84c158 0 302 98 302 297c0 148 -79 228 -203 228h-99z" />
    <glyph glyph-name="Dcroat" unicode="&#x110;" horiz-adv-x="758" 
d="M247 0h-193l51 323h-90l18 112h90l51 322h213c192 0 336 -101 336 -336c0 -275 -198 -421 -476 -421zM200 116h84c158 0 302 98 302 297c0 148 -79 228 -203 228h-99l-33 -206h163l-18 -112h-163z" />
    <glyph glyph-name="Dcaron" unicode="&#x10e;" horiz-adv-x="743" 
d="M643 922l-228 -105l-191 103l57 72l151 -68l164 66zM231 0h-193l120 757h213c192 0 336 -101 336 -336c0 -275 -198 -421 -476 -421zM184 116h84c158 0 302 98 302 297c0 148 -79 228 -203 228h-99z" />
    <glyph glyph-name="Cdotaccent" unicode="&#x10a;" horiz-adv-x="736" 
d="M580 902c0 -43 -38 -81 -84 -81c-34 0 -60 29 -60 63c0 44 43 82 83 82c38 0 61 -28 61 -64zM621 167l46 -83c-76 -66 -168 -101 -271 -101c-211 0 -343 148 -343 351c0 250 200 440 450 440c157 0 234 -75 252 -107l-82 -89c-43 52 -112 80 -186 80
c-177 0 -296 -158 -296 -317c0 -136 86 -243 232 -243c88 0 167 39 198 69z" />
    <glyph glyph-name="Ccircumflex" unicode="&#x108;" horiz-adv-x="736" 
d="M724 889l-69 -68l-144 65l-169 -65l-36 72l224 101zM621 167l46 -83c-76 -66 -168 -101 -271 -101c-211 0 -343 148 -343 351c0 250 200 440 450 440c157 0 234 -75 252 -107l-82 -89c-43 52 -112 80 -186 80c-177 0 -296 -158 -296 -317c0 -136 86 -243 232 -243
c88 0 167 39 198 69z" />
    <glyph glyph-name="Ccaron" unicode="&#x10c;" horiz-adv-x="736" 
d="M726 925l-228 -105l-193 103l59 72l150 -68l164 66zM621 167l46 -83c-76 -66 -168 -101 -271 -101c-211 0 -343 148 -343 351c0 250 200 440 450 440c157 0 234 -75 252 -107l-82 -89c-43 52 -112 80 -186 80c-177 0 -296 -158 -296 -317c0 -136 86 -243 232 -243
c88 0 167 39 198 69z" />
    <glyph glyph-name="Cacute" unicode="&#x106;" horiz-adv-x="736" 
d="M669 878l-316 -49l-18 84l304 69zM621 167l46 -83c-76 -66 -168 -101 -271 -101c-211 0 -343 148 -343 351c0 250 200 440 450 440c157 0 234 -75 252 -107l-82 -89c-43 52 -112 80 -186 80c-177 0 -296 -158 -296 -317c0 -136 86 -243 232 -243c88 0 167 39 198 69z" />
    <glyph glyph-name="uni1E02" unicode="&#x1e02;" horiz-adv-x="639" 
d="M470 900c0 -43 -39 -81 -84 -81c-35 0 -61 29 -61 63c0 44 42 82 84 82c37 0 61 -28 61 -64zM247 0h-209l120 757h173c135 0 243 -41 243 -162c0 -108 -87 -164 -133 -184c65 -19 135 -61 135 -176c0 -145 -110 -235 -329 -235zM238 454h57c85 0 139 35 139 107
c0 54 -30 80 -97 80h-69zM184 116h104c103 0 154 58 154 126c0 63 -44 102 -123 102h-99z" />
    <glyph glyph-name="Amacron.semp" horiz-adv-x="720" 
d="M653 852h-412l16 99h412zM684 0h-143l-33 120h-350l-69 -120h-148l498 788zM475 236l-81 291l-167 -291h248z" />
    <glyph glyph-name="Amacron" unicode="&#x100;" horiz-adv-x="720" 
d="M653 852h-412l16 99h412zM684 0h-143l-42 148h-325l-87 -148h-146l498 788zM468 264l-73 264l-153 -264h226z" />
    <glyph glyph-name="Abreve.semp" horiz-adv-x="720" 
d="M536 1007h108c-17 -76 -85 -172 -203 -172c-85 0 -150 59 -142 172h112c-2 -14 -8 -83 43 -83c64 0 81 76 82 83zM684 0h-143l-33 120h-350l-69 -120h-148l498 788zM475 236l-81 291l-167 -291h248z" />
    <glyph glyph-name="Abreve" unicode="&#x102;" horiz-adv-x="720" 
d="M536 1007h108c-17 -76 -85 -172 -203 -172c-85 0 -150 59 -142 172h112c-2 -14 -8 -83 43 -83c64 0 81 76 82 83zM684 0h-143l-42 148h-325l-87 -148h-146l498 788zM468 264l-73 264l-153 -264h226z" />
    <glyph glyph-name="Aogonek.semp" horiz-adv-x="719" 
d="M684 -115l-13 -78c-44 -24 -87 -34 -123 -34c-67 0 -99 37 -99 85c0 45 30 97 92 142l-33 120h-350l-69 -120h-148l498 788l246 -793c-129 -43 -133 -93 -133 -111s15 -24 36 -24c33 0 78 14 96 25zM475 236l-81 291l-167 -291h248z" />
    <glyph glyph-name="Aogonek" unicode="&#x104;" horiz-adv-x="719" 
d="M684 -115l-13 -78c-44 -24 -87 -34 -123 -34c-67 0 -99 37 -99 85c0 45 30 97 92 142l-42 148h-325l-87 -148h-146l498 788l246 -793c-129 -43 -133 -93 -133 -111s15 -24 36 -24c33 0 78 14 96 25zM468 264l-73 264l-153 -264h226z" />
    <glyph glyph-name="Atilde.semp" horiz-adv-x="720" 
d="M622 980l43 -84c-32 -25 -99 -73 -153 -73c-58 0 -79 49 -121 49c-32 0 -71 -28 -103 -50l-42 77c31 25 113 74 163 74c51 0 74 -51 113 -51c36 0 81 40 100 58zM684 0h-143l-33 120h-350l-69 -120h-148l498 788zM475 236l-81 291l-167 -291h248z" />
    <glyph glyph-name="Aring.semp" horiz-adv-x="720" 
d="M581 938c0 -73 -67 -136 -140 -136c-61 0 -103 46 -103 105c0 76 68 137 141 137c60 0 102 -48 102 -106zM452 871c27 0 57 28 57 59c0 25 -18 46 -40 46c-29 0 -56 -29 -56 -60c0 -25 16 -45 39 -45zM684 0h-143l-33 120h-350l-69 -120h-148l498 788zM475 236l-81 291
l-167 -291h248z" />
    <glyph glyph-name="Agrave.semp" horiz-adv-x="720" 
d="M585 825l-302 49l65 105l281 -69zM684 0h-143l-33 120h-350l-69 -120h-148l498 788zM475 236l-81 291l-167 -291h248z" />
    <glyph glyph-name="Adieresis.semp" horiz-adv-x="720" 
d="M652 922c0 -42 -36 -79 -88 -79c-39 0 -64 28 -64 61c0 42 38 77 85 77c43 0 67 -26 67 -59zM401 921c0 -42 -41 -78 -88 -78c-37 0 -65 28 -65 61c0 43 43 77 86 77c40 0 67 -26 67 -60zM684 0h-143l-33 120h-350l-69 -120h-148l498 788zM475 236l-81 291l-167 -291h248
z" />
    <glyph glyph-name="Acircumflex.semp" horiz-adv-x="720" 
d="M660 876l-69 -68l-144 62l-170 -70l-36 72l225 109zM684 0h-143l-33 120h-350l-69 -120h-148l498 788zM475 236l-81 291l-167 -291h248z" />
    <glyph glyph-name="Aacute.semp" horiz-adv-x="720" 
d="M626 879l-316 -49l-18 84l304 69zM684 0h-143l-33 120h-350l-69 -120h-148l498 788zM475 236l-81 291l-167 -291h248z" />
    <glyph glyph-name="J.semp2" horiz-adv-x="476" 
d="M252 225l84 532h129l-87 -548c-29 -181 -143 -226 -250 -226c-56 0 -100 12 -154 46l66 103c20 -13 56 -38 99 -38c55 0 99 42 113 131z" />
    <glyph glyph-name="J.semp" horiz-adv-x="501" 
d="M278 227l65 413h-167l18 116h296l-87 -547c-27 -171 -139 -226 -258 -226c-54 0 -110 20 -163 53l67 105c29 -20 74 -45 114 -45c60 0 102 47 115 131z" />
    <glyph glyph-name="J.alt" horiz-adv-x="301" 
d="M-127 -270l-7 111c131 45 161 93 184 237l108 679h127l-109 -687c-34 -215 -110 -270 -303 -340z" />
    <glyph glyph-name="A.semp" horiz-adv-x="720" 
d="M684 0h-143l-33 120h-350l-69 -120h-148l498 788zM475 236l-81 291l-167 -291h248z" />
    <glyph glyph-name="itilde" unicode="&#x129;" horiz-adv-x="258" 
d="M139 0h-118l80 505h118zM354 740l38 -79c-34 -28 -95 -78 -149 -78c-58 0 -81 49 -123 49c-31 0 -60 -28 -93 -50l-46 73c31 25 107 78 158 78c50 0 75 -51 114 -51c36 0 83 40 101 58z" />
    <glyph glyph-name="ibreve" unicode="&#x12d;" horiz-adv-x="257" 
d="M138 0h-117l80 505h117zM264 746h109c-17 -76 -86 -172 -204 -172c-85 0 -151 59 -142 172h112c-2 -14 -7 -83 43 -83c64 0 81 76 82 83z" />
    <glyph glyph-name="iogonek" unicode="&#x12f;" horiz-adv-x="258" 
d="M161 -115l-12 -78c-45 -24 -87 -34 -123 -34c-67 0 -99 37 -99 85c0 44 28 97 94 142l80 505h118l-81 -510c-87 -40 -108 -77 -108 -111c0 -18 15 -24 36 -24c33 0 78 14 95 25zM263 680c0 -51 -41 -88 -89 -88c-38 0 -63 26 -63 64c0 51 39 88 88 88c40 0 64 -27 64 -64
z" />
    <glyph glyph-name="imacron" unicode="&#x12b;" horiz-adv-x="258" 
d="M139 0h-118l80 505h118zM383 600h-412l16 99h412z" />
    <glyph glyph-name="i.sc" horiz-adv-x="275" 
d="M150 0h-123l85 538h123z" />
    <glyph glyph-name="hbar" unicode="&#x127;" horiz-adv-x="563" 
d="M451 0h-118l44 275c13 81 9 140 -61 140c-56 0 -104 -37 -123 -58l-57 -357h-118l99 627h-67l27 88h54l17 105h118l-17 -105h185l-27 -88h-172l-27 -174c35 28 89 66 169 66c97 0 147 -56 127 -182z" />
    <glyph glyph-name="hcircumflex" unicode="&#x125;" 
d="M450 0h-118l44 275c13 81 9 140 -61 140c-56 0 -104 -37 -123 -58l-57 -357h-118l130 820h118l-58 -367c35 28 90 66 170 66c96 0 146 -55 126 -182zM403 917l-73 -71l-104 93l-132 -93l-53 71l204 136z" />
    <glyph glyph-name="gdotaccent" unicode="&#x121;" horiz-adv-x="576" 
d="M416 664c0 -43 -39 -81 -84 -81c-35 0 -62 29 -62 63c0 44 43 82 85 82c36 0 61 -28 61 -64zM338 -40l13 85c-38 -37 -92 -60 -141 -60c-92 0 -183 79 -183 228c0 192 150 306 322 306c91 0 156 -32 187 -52l-78 -491c-35 -220 -162 -247 -265 -247
c-120 0 -185 36 -217 61l62 90c19 -20 84 -53 156 -53c67 0 128 29 144 133zM367 145l41 256c-18 9 -45 21 -81 21c-86 0 -175 -69 -175 -196c0 -67 20 -142 102 -142c49 0 92 30 113 61z" />
    <glyph glyph-name="gcommaaccent" unicode="&#x123;" horiz-adv-x="576" 
d="M382 583h-140l139 205h103zM338 -40l13 85c-38 -37 -92 -60 -141 -60c-92 0 -183 79 -183 228c0 192 150 306 322 306c91 0 156 -32 187 -52l-78 -491c-35 -220 -162 -247 -265 -247c-120 0 -185 36 -217 61l62 90c19 -20 84 -53 156 -53c67 0 128 29 144 133zM367 145
l41 256c-18 9 -45 21 -81 21c-86 0 -175 -69 -175 -196c0 -67 20 -142 102 -142c49 0 92 30 113 61z" />
    <glyph glyph-name="gbreve" unicode="&#x11f;" horiz-adv-x="576" 
d="M423 755h108c-17 -76 -85 -172 -203 -172c-85 0 -151 59 -142 172h112c-2 -14 -8 -83 43 -83c64 0 81 76 82 83zM338 -40l13 85c-38 -37 -92 -60 -141 -60c-92 0 -183 79 -183 228c0 192 150 306 322 306c91 0 156 -32 187 -52l-78 -491c-35 -220 -162 -247 -265 -247
c-120 0 -185 36 -217 61l62 90c19 -20 84 -53 156 -53c67 0 128 29 144 133zM367 145l41 256c-18 9 -45 21 -81 21c-86 0 -175 -69 -175 -196c0 -67 20 -142 102 -142c49 0 92 30 113 61z" />
    <glyph glyph-name="gcircumflex" unicode="&#x11d;" horiz-adv-x="576" 
d="M521 643l-73 -71l-104 93l-132 -93l-52 71l203 135zM338 -40l13 85c-38 -37 -92 -60 -141 -60c-92 0 -183 79 -183 228c0 192 150 306 322 306c91 0 156 -32 187 -52l-78 -491c-35 -220 -162 -247 -265 -247c-120 0 -185 36 -217 61l62 90c19 -20 84 -53 156 -53
c67 0 128 29 144 133zM367 145l41 256c-18 9 -45 21 -81 21c-86 0 -175 -69 -175 -196c0 -67 20 -142 102 -142c49 0 92 30 113 61z" />
    <glyph glyph-name="dotlessj" unicode="&#x237;" horiz-adv-x="259" 
d="M-85 -268l-31 89c112 33 117 50 143 217l74 467h118l-74 -469c-29 -183 -59 -254 -230 -304z" />
    <glyph glyph-name="dotlessj.semp" horiz-adv-x="257" 
d="M100 -241l-121 -26l122 772h117z" />
    <glyph glyph-name="jcircumflex" unicode="&#x135;" horiz-adv-x="259" 
d="M-85 -268l-31 89c112 33 117 50 143 217l74 467h118l-74 -469c-29 -183 -58 -254 -230 -304zM359 643l-73 -71l-104 93l-132 -93l-53 71l204 136z" />
    <glyph glyph-name="jcircumflex.semp" horiz-adv-x="257" 
d="M100 -241l-121 -26l122 772h117zM359 643l-73 -71l-104 93l-132 -93l-53 71l204 136z" />
    <glyph glyph-name="kcommaaccent" unicode="&#x137;" horiz-adv-x="513" 
d="M157 -244h-101l102 205h140zM468 0h-141l-155 239l-37 -239h-118l130 820h118l-82 -515l183 200h145l-230 -232z" />
    <glyph glyph-name="kgreenlandic" unicode="&#x138;" horiz-adv-x="515" 
d="M468 0h-141l-155 239l-37 -239h-118l80 505h118l-32 -200l183 200h145l-230 -232z" />
    <glyph glyph-name="lacute" unicode="&#x13a;" horiz-adv-x="254" 
d="M137 0h-118l130 820h118zM419 1035l-213 -163l-70 50l195 186z" />
    <glyph glyph-name="lcaron" unicode="&#x13e;" horiz-adv-x="290" 
d="M373 563h-81l114 232h125zM137 0h-118l130 820h118z" />
    <glyph glyph-name="lcommaaccent" unicode="&#x13c;" horiz-adv-x="254" 
d="M137 0h-118l130 820h118zM37 -244h-102l102 205h140z" />
    <glyph glyph-name="uni1E1F.semp" horiz-adv-x="322" 
d="M96 -245h-117l134 848c9 59 32 116 69 154c43 43 103 60 157 60c72 0 119 -30 127 -36l-61 -91c-10 8 -36 27 -75 27c-56 0 -88 -42 -99 -112l-16 -101h118l-16 -96h-118zM409 969c0 -43 -40 -81 -86 -81c-33 0 -60 29 -60 63c0 44 43 82 83 82c38 0 63 -28 63 -64z" />
    <glyph glyph-name="uni1E1F.semp2" horiz-adv-x="322" 
d="M134 0h-117l96 603c9 59 31 116 68 154c43 43 103 60 157 60c72 0 120 -30 127 -36l-61 -91c-9 8 -35 27 -74 27c-56 0 -89 -42 -100 -112l-16 -101h118l-15 -96h-118zM408 969c0 -43 -39 -81 -85 -81c-34 0 -61 29 -61 63c0 44 43 82 84 82c37 0 62 -28 62 -64z" />
    <glyph glyph-name="uni1E1F" unicode="&#x1e1f;" horiz-adv-x="365" 
d="M175 0h-117l65 408h-81l15 96h81l16 99c9 59 32 116 69 154c43 43 105 60 157 60c72 0 120 -30 126 -36l-59 -91c-11 8 -38 27 -76 27c-56 0 -89 -42 -100 -112l-16 -101h121l-15 -96h-121zM450 956c0 -43 -39 -81 -85 -81c-34 0 -61 29 -61 63c0 44 43 82 84 82
c38 0 62 -28 62 -64z" />
    <glyph glyph-name="eogonek" unicode="&#x119;" horiz-adv-x="567" 
d="M426 -124l-12 -78c-45 -24 -88 -34 -123 -34c-67 0 -99 37 -99 84c0 43 26 94 89 138c-9 -1 -16 -1 -23 -1c-143 0 -231 84 -231 228c0 174 129 306 297 306c161 0 221 -120 198 -262l-8 -49h-367c-8 -70 38 -125 143 -125c75 0 124 28 159 53l24 -84
c-13 -11 -37 -24 -65 -41c-96 -59 -114 -109 -114 -133c0 -21 14 -27 36 -27c33 0 78 14 96 25zM163 303h244c9 66 -24 123 -97 123c-65 0 -129 -44 -147 -123z" />
    <glyph glyph-name="emacron" unicode="&#x113;" horiz-adv-x="567" 
d="M543 600h-412l15 99h412zM449 136l24 -84c-30 -24 -112 -67 -215 -67c-143 0 -231 84 -231 228c0 175 129 306 297 306c162 0 221 -121 198 -262l-8 -49h-367c-6 -61 26 -125 142 -125c78 0 126 29 160 53zM163 303h244c9 66 -24 123 -97 123c-65 0 -129 -44 -147 -123z
" />
    <glyph glyph-name="edotaccent" unicode="&#x117;" horiz-adv-x="567" 
d="M417 664c0 -43 -38 -81 -84 -81c-34 0 -60 29 -60 63c0 44 43 82 83 82c38 0 61 -28 61 -64zM449 136l24 -84c-30 -24 -112 -67 -215 -67c-143 0 -231 84 -231 228c0 175 129 306 297 306c162 0 221 -121 198 -262l-8 -49h-367c-6 -61 26 -125 142 -125
c78 0 126 29 160 53zM163 303h244c9 66 -24 123 -97 123c-65 0 -129 -44 -147 -123z" />
    <glyph glyph-name="ecaron" unicode="&#x11b;" horiz-adv-x="567" 
d="M536 714l-202 -136l-159 136l74 71l102 -93l134 93zM449 136l24 -84c-30 -24 -112 -67 -215 -67c-143 0 -231 84 -231 228c0 175 129 306 297 306c162 0 221 -121 198 -262l-8 -49h-367c-6 -61 26 -125 142 -125c78 0 126 29 160 53zM163 303h244c9 66 -24 123 -97 123
c-65 0 -129 -44 -147 -123z" />
    <glyph glyph-name="dcroat" unicode="&#x111;" horiz-adv-x="584" 
d="M637 627h-68l-91 -579c-74 -44 -154 -63 -219 -63c-126 0 -232 71 -232 229c0 177 132 305 295 305c45 0 79 -10 107 -34l22 142h-171l27 88h158l17 105h118l-17 -105h81zM369 109l43 267c-19 27 -58 45 -99 45c-93 0 -161 -94 -161 -197c0 -89 50 -141 123 -141
c23 0 61 5 94 26z" />
    <glyph glyph-name="uni1E0B" unicode="&#x1e0b;" horiz-adv-x="584" 
d="M351 694c0 -43 -38 -81 -84 -81c-34 0 -60 29 -60 63c0 44 43 82 83 82c38 0 61 -28 61 -64zM369 109l43 267c-19 27 -58 45 -99 45c-93 0 -161 -94 -161 -197c0 -89 50 -141 123 -141c23 0 61 5 94 26zM429 485l53 335h118l-122 -772c-74 -44 -154 -63 -219 -63
c-126 0 -232 71 -232 229c0 177 132 305 295 305c45 0 79 -10 107 -34z" />
    <glyph glyph-name="dcaron" unicode="&#x10f;" horiz-adv-x="621" 
d="M706 563h-81l114 232h125zM369 109l43 267c-19 27 -58 45 -99 45c-93 0 -161 -94 -161 -197c0 -89 50 -141 123 -141c23 0 61 5 94 26zM429 485l53 335h118l-122 -772c-74 -44 -154 -63 -219 -63c-126 0 -232 71 -232 229c0 177 132 305 295 305c45 0 79 -10 107 -34z
" />
    <glyph glyph-name="cdotaccent" unicode="&#x10b;" horiz-adv-x="503" 
d="M395 664c0 -43 -39 -81 -84 -81c-35 0 -61 29 -61 63c0 44 42 82 84 82c37 0 61 -28 61 -64zM414 140l24 -82c-25 -26 -103 -73 -190 -73c-118 0 -222 87 -222 235c0 181 155 299 303 299c91 0 146 -44 159 -59l-59 -89c-12 14 -49 49 -107 49c-85 0 -173 -75 -173 -195
c0 -84 44 -143 125 -143c66 0 123 39 140 58z" />
    <glyph glyph-name="ccircumflex" unicode="&#x109;" horiz-adv-x="503" 
d="M511 643l-74 -71l-103 93l-132 -93l-52 71l203 136zM414 140l24 -82c-25 -26 -103 -73 -190 -73c-118 0 -222 87 -222 235c0 181 155 299 303 299c91 0 146 -44 159 -59l-59 -89c-12 14 -49 49 -107 49c-85 0 -173 -75 -173 -195c0 -84 44 -143 125 -143
c66 0 123 39 140 58z" />
    <glyph glyph-name="ccaron" unicode="&#x10d;" horiz-adv-x="503" 
d="M519 714l-202 -136l-159 136l74 71l102 -93l134 93zM414 140l24 -82c-25 -26 -103 -73 -190 -73c-118 0 -222 87 -222 235c0 181 155 299 303 299c91 0 146 -44 159 -59l-59 -89c-12 14 -49 49 -107 49c-85 0 -173 -75 -173 -195c0 -84 44 -143 125 -143
c66 0 123 39 140 58z" />
    <glyph glyph-name="Gcommaaccent" unicode="&#x122;" horiz-adv-x="822" 
d="M330 -259h-102l102 205h140zM649 289h-176l17 109h316c-53 -309 -233 -416 -412 -416c-207 0 -341 142 -341 349c0 260 213 443 455 443c175 0 257 -95 262 -101l-80 -96c-4 8 -69 81 -193 81c-177 0 -307 -150 -307 -318c0 -126 74 -242 216 -242c119 0 217 81 243 191z
" />
    <glyph glyph-name="Itilde" unicode="&#x128;" horiz-adv-x="301" 
d="M165 0h-127l120 757h127zM411 976l43 -84c-31 -25 -99 -73 -153 -73c-58 0 -79 49 -121 49c-32 0 -71 -28 -103 -50l-42 77c31 25 114 74 164 74s73 -51 113 -51c35 0 80 40 99 58z" />
    <glyph glyph-name="Gdotaccent" unicode="&#x120;" horiz-adv-x="822" 
d="M590 916c0 -43 -39 -81 -84 -81c-34 0 -61 29 -61 63c0 44 42 82 84 82c37 0 61 -28 61 -64zM649 289h-176l17 109h316c-53 -309 -233 -416 -412 -416c-207 0 -341 142 -341 349c0 260 213 443 455 443c175 0 257 -95 262 -101l-80 -96c-4 8 -69 81 -193 81
c-177 0 -307 -150 -307 -318c0 -126 74 -242 216 -242c119 0 217 81 243 191z" />
    <glyph glyph-name="Jcircumflex" unicode="&#x134;" horiz-adv-x="302" 
d="M-108 -258l-29 109c130 43 165 82 191 248l104 658h128l-105 -663c-34 -214 -98 -279 -289 -352zM422 895l-73 -71l-104 93l-132 -93l-53 71l204 136z" />
    <glyph glyph-name="Jcircumflex.alt" horiz-adv-x="301" 
d="M-127 -270l-7 111c131 45 161 93 184 237l108 679h127l-109 -687c-34 -215 -110 -270 -303 -340zM417 896l-73 -71l-99 95l-127 -95l-53 71l200 138z" />
    <glyph glyph-name="Jcircumflex.semp" horiz-adv-x="501" 
d="M278 227l65 413h-167l18 116h296l-87 -547c-27 -171 -139 -226 -258 -226c-54 0 -110 20 -163 53l67 105c29 -20 74 -45 114 -45c60 0 102 47 115 131zM580 876l-69 -68l-143 64l-170 -64l-35 72l224 101z" />
    <glyph glyph-name="Jcircumflex.semp2" horiz-adv-x="473" 
d="M249 225l84 532h129l-87 -548c-29 -181 -143 -226 -250 -226c-56 0 -100 12 -154 46l66 103c20 -13 56 -38 99 -38c55 0 99 42 113 131zM623 876l-69 -68l-143 64l-170 -64l-35 72l224 101z" />
    <glyph glyph-name="Kcommaaccent" unicode="&#x136;" horiz-adv-x="689" 
d="M254 -244h-102l103 205h140zM664 0h-178l-271 317l-49 -317h-128l120 757h128l-47 -299l318 299h160l-402 -370z" />
    <glyph glyph-name="Lacute" unicode="&#x139;" horiz-adv-x="529" 
d="M466 1h-428l120 756h128l-102 -640h300zM436 871l-316 -49l-19 84l304 69z" />
    <glyph glyph-name="Lcaron" unicode="&#x13d;" horiz-adv-x="532" 
d="M466 1h-428l120 756h128l-102 -640h300zM459 588h-81l114 232h126z" />
    <glyph glyph-name="Lcommaaccent" unicode="&#x13b;" horiz-adv-x="528" 
d="M466 1h-428l120 756h128l-102 -640h300zM184 -244h-102l103 205h140z" />
    <glyph glyph-name="Ldot" unicode="&#x13f;" horiz-adv-x="558" 
d="M466 1h-428l120 756h128l-102 -640h300zM532 413c0 -41 -43 -78 -88 -78c-37 0 -65 28 -65 61c0 45 43 79 87 79c39 0 66 -26 66 -62z" />
    <glyph glyph-name="uni1E40" unicode="&#x1e40;" horiz-adv-x="951" 
d="M620 766c0 -43 -39 -81 -85 -81c-35 0 -60 29 -60 63c0 44 42 82 83 82c38 0 62 -28 62 -64zM851 0h-137l25 374c1 11 1 19 3 30c-5 -10 -15 -25 -18 -29l-301 -404l-167 405c-3 7 -13 27 -16 36c0 -8 -6 -37 -6 -37l-95 -375h-137l219 777l230 -540c5 -12 7 -20 7 -29
c3 9 8 16 18 29l403 540z" />
    <glyph glyph-name="Hcircumflex" unicode="&#x124;" horiz-adv-x="763" 
d="M627 0h-127l52 328h-334l-52 -328h-128l120 757h128l-50 -313h334l50 313h127zM684 889l-69 -68l-144 64l-169 -64l-36 72l224 101z" />
    <glyph glyph-name="Nacute" unicode="&#x143;" horiz-adv-x="831" 
d="M691 -28l-452 507l-74 -479h-128l124 778l450 -518l77 497h128zM681 872l-317 -49l-18 84l304 69z" />
    <glyph glyph-name="Hbar" unicode="&#x126;" horiz-adv-x="763" 
d="M627 0h-128l52 328h-334l-52 -328h-127l88 553h-53l15 99h53l17 105h127l-17 -105h334l17 105h128l-17 -105h51l-15 -99h-51zM569 444l18 109h-334l-18 -109h334z" />
    <glyph glyph-name="Idotaccent" unicode="&#x130;" horiz-adv-x="302" 
d="M166 0h-128l120 757h128zM315 901c0 -43 -38 -81 -84 -81c-34 0 -61 29 -61 63c0 44 43 82 84 82c37 0 61 -28 61 -64z" />
    <glyph glyph-name="Ncaron" unicode="&#x147;" horiz-adv-x="831" 
d="M691 -28l-452 507l-74 -479h-128l124 778l450 -518l77 497h128zM718 919l-227 -105l-193 103l59 72l150 -67l163 65z" />
    <glyph glyph-name="Ncommaaccent" unicode="&#x145;" horiz-adv-x="831" 
d="M691 -28l-452 507l-74 -479h-128l124 778l450 -518l77 497h128zM324 -244h-101l102 205h140z" />
    <glyph glyph-name="Ohungarumlaut" unicode="&#x150;" horiz-adv-x="877" 
d="M580 949l-233 -131l-38 57l214 164zM810 949l-232 -131l-38 57l213 164zM847 429c0 -252 -212 -446 -450 -446c-212 0 -344 153 -344 351c0 258 224 440 455 440c207 0 339 -146 339 -345zM409 98c151 0 301 144 301 322c0 137 -90 238 -218 238
c-150 0 -301 -140 -301 -315c0 -129 83 -245 218 -245z" />
    <glyph glyph-name="Omacron" unicode="&#x14c;" horiz-adv-x="877" 
d="M731 852h-411l16 99h411zM847 429c0 -252 -212 -446 -450 -446c-212 0 -344 153 -344 351c0 258 224 440 455 440c207 0 339 -146 339 -345zM409 98c151 0 301 144 301 322c0 137 -90 238 -218 238c-150 0 -301 -140 -301 -315c0 -129 83 -245 218 -245z" />
    <glyph glyph-name="Obreve" unicode="&#x14e;" horiz-adv-x="877" 
d="M615 1007h109c-17 -76 -87 -172 -205 -172c-85 0 -150 59 -141 172h112c-3 -14 -8 -83 42 -83c64 0 81 76 83 83zM847 429c0 -252 -212 -446 -450 -446c-212 0 -344 153 -344 351c0 258 224 440 455 440c207 0 339 -146 339 -345zM409 98c151 0 301 144 301 322
c0 137 -90 238 -218 238c-150 0 -301 -140 -301 -315c0 -129 83 -245 218 -245z" />
    <glyph glyph-name="Oslashacute" unicode="&#x1fe;" horiz-adv-x="877" 
d="M616 867l-228 -37l-20 84l234 54zM229 -143l-107 33l81 146c-95 62 -150 170 -150 298c0 258 224 440 455 440c35 0 67 -4 98 -12l68 122l105 -41l-71 -127c88 -61 139 -164 139 -287c0 -252 -212 -446 -450 -446c-33 0 -64 4 -92 11zM268 152l277 500c-17 4 -35 6 -53 6
c-150 0 -301 -140 -301 -315c0 -75 27 -145 77 -191zM642 597l-277 -495c14 -3 29 -4 44 -4c151 0 301 144 301 322c0 72 -26 135 -68 177z" />
    <glyph glyph-name="uni1E56" unicode="&#x1e56;" horiz-adv-x="587" 
d="M471 911c0 -43 -38 -81 -85 -81c-33 0 -60 29 -60 63c0 44 43 82 83 82c38 0 62 -28 62 -64zM166 0h-128l120 757h158c165 0 272 -51 272 -208s-106 -289 -330 -289h-51zM226 376h48c117 0 177 72 177 163c0 62 -28 101 -118 101h-66z" />
    <glyph glyph-name="Racute" unicode="&#x154;" horiz-adv-x="610" 
d="M551 879l-316 -49l-18 84l304 69zM595 0h-166l-197 280h-22l-44 -280h-128l120 757h154c125 0 276 -32 276 -197c0 -126 -87 -239 -221 -265zM228 391h52c115 0 171 67 171 151c0 63 -31 98 -131 98h-53z" />
    <glyph glyph-name="Rcaron" unicode="&#x158;" horiz-adv-x="610" 
d="M603 922l-227 -105l-192 103l58 72l150 -62l164 60zM595 0h-166l-197 280h-22l-44 -280h-128l120 757h154c125 0 276 -32 276 -197c0 -126 -87 -239 -221 -265zM228 391h52c115 0 171 67 171 151c0 63 -31 98 -131 98h-53z" />
    <glyph glyph-name="Rcommaaccent" unicode="&#x156;" horiz-adv-x="611" 
d="M228 -244h-102l103 205h140zM595 0h-166l-197 280h-22l-44 -280h-128l120 757h154c125 0 276 -32 276 -197c0 -126 -87 -239 -221 -265zM228 391h52c115 0 171 67 171 151c0 63 -31 98 -131 98h-53z" />
    <glyph glyph-name="uni1E60" unicode="&#x1e60;" horiz-adv-x="579" 
d="M466 902c0 -43 -39 -81 -85 -81c-34 0 -61 29 -61 63c0 44 44 82 84 82c38 0 62 -28 62 -64zM-7 90l83 92c30 -36 88 -83 170 -83c85 0 134 49 134 114c0 151 -266 135 -266 350c0 149 134 211 257 211c127 0 184 -66 197 -85l-76 -95c-31 38 -73 66 -124 66
c-55 0 -118 -31 -118 -91c0 -125 269 -108 269 -343c0 -160 -130 -243 -280 -243c-133 0 -214 65 -246 107z" />
    <glyph glyph-name="Imacron" unicode="&#x12a;" horiz-adv-x="301" 
d="M165 0h-127l120 757h127zM442 852h-412l16 99h412z" />
    <glyph glyph-name="Sacute" unicode="&#x15a;" horiz-adv-x="579" 
d="M565 877l-316 -49l-19 84l304 69zM-7 90l83 92c30 -36 88 -83 170 -83c85 0 134 49 134 114c0 151 -266 135 -266 350c0 149 134 211 257 211c127 0 184 -66 197 -85l-76 -95c-31 38 -73 66 -124 66c-55 0 -118 -31 -118 -91c0 -125 269 -108 269 -343
c0 -160 -130 -243 -280 -243c-133 0 -214 65 -246 107z" />
    <glyph glyph-name="Scedilla" unicode="&#x15e;" horiz-adv-x="579" 
d="M197 -254h-99l100 205h140zM-7 90l83 92c30 -36 88 -83 170 -83c85 0 134 49 134 114c0 151 -266 135 -266 350c0 149 134 211 257 211c127 0 184 -66 197 -85l-76 -95c-31 38 -73 66 -124 66c-55 0 -118 -31 -118 -91c0 -125 269 -108 269 -343
c0 -160 -130 -243 -280 -243c-133 0 -214 65 -246 107z" />
    <glyph glyph-name="Iogonek" unicode="&#x12e;" horiz-adv-x="302" 
d="M176 -115l-12 -78c-45 -24 -87 -34 -123 -34c-67 0 -99 37 -99 85c0 45 29 98 96 143l120 756h128l-121 -762c-96 -35 -120 -78 -120 -111c0 -18 15 -24 36 -24c33 0 78 14 95 25z" />
    <glyph glyph-name="Tcaron" unicode="&#x164;" horiz-adv-x="585" 
d="M309 0h-128l101 640h-212l18 116h551l-18 -116h-211zM598 920l-227 -105l-192 103l57 72l152 -62l163 60z" />
    <glyph glyph-name="Tcommaaccent" unicode="&#x162;" horiz-adv-x="583" 
d="M308 0h-128l101 640h-212l18 116h551l-18 -116h-211zM203 -244h-102l102 205h140z" />
    <glyph glyph-name="uni1E6A" unicode="&#x1e6a;" horiz-adv-x="585" 
d="M309 0h-128l101 640h-212l18 116h551l-18 -116h-211zM461 916c0 -43 -39 -81 -85 -81c-34 0 -61 29 -61 63c0 44 44 82 84 82c38 0 62 -28 62 -64z" />
    <glyph glyph-name="Tbar" unicode="&#x166;" horiz-adv-x="585" 
d="M310 0h-128l62 393h-142l16 99h142l23 148h-212l18 116h551l-18 -116h-211l-23 -148h141l-16 -99h-141z" />
    <glyph glyph-name="Uogonek" unicode="&#x172;" horiz-adv-x="753" 
d="M498 -130l-13 -78c-45 -24 -87 -34 -123 -34c-67 0 -99 37 -99 85c0 45 31 98 97 142c-11 -1 -25 -2 -37 -2c-187 0 -277 98 -246 295l76 479h128l-65 -409c-33 -208 0 -252 146 -252c59 0 113 16 152 44l98 617h128l-105 -666c-41 -37 -102 -71 -166 -89
c-29 -10 -111 -84 -111 -128c0 -18 10 -29 44 -29c33 0 78 14 96 25z" />
    <glyph glyph-name="Uhungarumlaut" unicode="&#x170;" horiz-adv-x="753" 
d="M539 949l-232 -131l-38 57l213 164zM770 949l-232 -131l-38 57l213 164zM514 140l98 617h128l-105 -666c-65 -60 -167 -108 -312 -108c-187 0 -277 98 -246 295l76 479h128l-65 -409c-33 -208 0 -252 146 -252c59 0 113 16 152 44z" />
    <glyph glyph-name="Umacron" unicode="&#x16a;" horiz-adv-x="753" 
d="M669 852h-412l16 99h412zM514 140l98 617h128l-105 -666c-65 -60 -167 -108 -312 -108c-187 0 -277 98 -246 295l76 479h128l-65 -409c-33 -208 0 -252 146 -252c59 0 113 16 152 44z" />
    <glyph glyph-name="Uring" unicode="&#x16e;" horiz-adv-x="753" 
d="M589 905c0 -73 -67 -136 -140 -136c-61 0 -103 46 -103 105c0 76 67 137 141 137c60 0 102 -48 102 -106zM460 838c27 0 57 28 57 59c0 25 -17 46 -40 46c-29 0 -56 -29 -56 -60c0 -25 16 -45 39 -45zM514 140l98 617h128l-105 -666c-65 -60 -167 -108 -312 -108
c-187 0 -277 98 -246 295l76 479h128l-65 -409c-33 -208 0 -252 146 -252c59 0 113 16 152 44z" />
    <glyph glyph-name="Utilde" unicode="&#x168;" horiz-adv-x="753" 
d="M635 978l36 -79c-32 -28 -92 -78 -146 -78c-58 0 -79 49 -121 49c-32 0 -59 -28 -91 -50l-46 73c31 25 105 78 156 78c50 0 73 -51 113 -51c35 0 80 40 99 58zM514 140l98 617h128l-105 -666c-65 -60 -167 -108 -312 -108c-187 0 -277 98 -246 295l76 479h128l-65 -409
c-33 -208 0 -252 146 -252c59 0 113 16 152 44z" />
    <glyph glyph-name="Ubreve" unicode="&#x16c;" horiz-adv-x="753" 
d="M549 973h109c-17 -76 -85 -172 -203 -172c-85 0 -152 59 -142 172h111c-2 -14 -7 -83 44 -83c63 0 80 76 81 83zM514 140l98 617h128l-105 -666c-65 -60 -167 -108 -312 -108c-187 0 -277 98 -246 295l76 479h128l-65 -409c-33 -208 0 -252 146 -252c59 0 113 16 152 44z
" />
    <glyph glyph-name="Wcircumflex" unicode="&#x174;" horiz-adv-x="1030" 
d="M746 811l-144 64l-169 -64l-36 72l224 101l193 -105zM690 -37l-152 507l-308 -505l-167 792h142l87 -453c1 -10 1 -19 0 -33c2 14 6 23 12 33l287 484l128 -484c2 -10 2 -21 1 -36c3 15 6 25 12 36l230 453h140z" />
    <glyph glyph-name="Wgrave" unicode="&#x1e80;" horiz-adv-x="1030" 
d="M737 830l-301 49l64 105l282 -69zM690 -37l-152 507l-308 -505l-167 792h142l87 -453c1 -10 1 -19 0 -33c2 14 6 23 12 33l287 484l128 -484c2 -10 2 -21 1 -36c3 15 6 25 12 36l230 453h140z" />
    <glyph glyph-name="Ibreve" unicode="&#x12c;" horiz-adv-x="302" 
d="M166 0h-128l120 757h128zM323 991h109c-17 -76 -86 -172 -204 -172c-85 0 -151 59 -142 172h112c-2 -14 -7 -83 43 -83c64 0 81 76 82 83z" />
    <glyph glyph-name="Wacute" unicode="&#x1e82;" horiz-adv-x="1030" 
d="M774 883l-316 -49l-19 84l304 69zM690 -37l-152 507l-308 -505l-167 792h142l87 -453c1 -10 1 -19 0 -33c2 14 6 23 12 33l287 484l128 -484c2 -10 2 -21 1 -36c3 15 6 25 12 36l230 453h140z" />
    <glyph glyph-name="Wdieresis" unicode="&#x1e84;" horiz-adv-x="1030" 
d="M853 767c0 -39 -34 -73 -80 -73c-35 0 -58 25 -58 56c0 40 35 73 78 73c38 0 60 -24 60 -56zM455 766c0 -39 -39 -72 -81 -72c-34 0 -58 25 -58 56c0 41 37 73 78 73c35 0 61 -24 61 -57zM690 -37l-152 507l-308 -505l-167 792h142l87 -453c1 -10 1 -19 0 -33
c2 14 6 23 12 33l287 484l128 -484c2 -10 2 -21 1 -36c3 15 6 25 12 36l230 453h140z" />
    <glyph glyph-name="Ygrave" unicode="&#x1ef2;" horiz-adv-x="634" 
d="M475 783l-75 -45l-161 163l101 68zM328 0h-128l50 313l-196 444h142l129 -311c3 -7 4 -12 2 -24c3 12 6 16 12 24l238 311h142l-341 -444z" />
    <glyph glyph-name="Ygrave.alt" horiz-adv-x="634" 
d="M537 824l-302 49l65 105l281 -69zM328 0h-128l50 313l-196 444h142l129 -311c3 -7 4 -12 2 -24c3 12 6 16 12 24l238 311h142l-341 -444z" />
    <glyph glyph-name="Ycircumflex" unicode="&#x176;" horiz-adv-x="634" 
d="M548 818l-144 64l-169 -64l-36 72l224 101l193 -105zM328 0h-128l50 313l-196 444h142l129 -311c3 -7 4 -12 2 -24c3 12 6 16 12 24l238 311h142l-341 -444z" />
    <glyph glyph-name="Yacute.alt" horiz-adv-x="634" 
d="M571 873l-315 -49l-19 85l304 69zM328 0h-128l50 313l-196 444h142l129 -311c3 -7 4 -12 2 -24c3 12 6 16 12 24l238 311h142l-341 -444z" />
    <glyph glyph-name="Zacute" unicode="&#x179;" horiz-adv-x="665" 
d="M614 878l-316 -49l-19 84l304 69zM580 1h-626l498 639h-312l19 116h542l-497 -639h394z" />
    <glyph glyph-name="Zdotaccent" unicode="&#x17b;" horiz-adv-x="665" 
d="M506 901c0 -43 -38 -81 -84 -81c-35 0 -61 29 -61 63c0 44 42 82 84 82c38 0 61 -28 61 -64zM580 1h-626l498 639h-312l19 116h542l-497 -639h394z" />
    <glyph glyph-name="AEacute" unicode="&#x1fc;" horiz-adv-x="973" 
d="M963 868l-315 -49l-19 84l304 69zM884 1h-451l23 147h-244l-110 -148h-167l600 756h439l-19 -116h-293l-28 -180h236l-19 -116h-236l-35 -227h323zM475 264l46 290l-220 -290h174z" />
    <glyph glyph-name="IJ" unicode="&#x132;" horiz-adv-x="604" 
d="M166 0h-128l120 757h128zM194 -258l-29 109c130 43 165 82 191 248l104 658h128l-105 -663c-34 -214 -98 -279 -289 -352z" />
    <glyph glyph-name="IJ.alt" horiz-adv-x="603" 
d="M166 0h-128l120 757h128zM175 -270l-7 111c131 45 161 93 184 237l108 679h127l-109 -687c-34 -215 -110 -270 -303 -340z" />
    <glyph glyph-name="IJ.semp" horiz-adv-x="803" 
d="M166 0h-128l120 757h128zM580 227l65 413h-167l18 116h296l-87 -547c-27 -171 -139 -226 -258 -226c-54 0 -110 20 -163 53l67 105c29 -20 74 -45 114 -45c60 0 102 47 115 131z" />
    <glyph glyph-name="IJ.semp2" horiz-adv-x="778" 
d="M166 0h-128l120 757h128zM554 225l84 532h129l-87 -548c-29 -181 -143 -226 -250 -226c-56 0 -100 12 -154 46l66 103c20 -13 56 -38 99 -38c55 0 99 42 113 131z" />
    <glyph glyph-name="Eng" unicode="&#x14a;" horiz-adv-x="832" 
d="M421 -258l-29 109c127 42 163 80 190 235l-343 393l-74 -479h-128l124 778l449 -515l78 494h128l-105 -663c-34 -214 -98 -279 -290 -352z" />
    <glyph glyph-name="a.alt" horiz-adv-x="578" 
d="M464 -2h-98l-3 58c-45 -50 -105 -71 -150 -71c-82 0 -185 68 -185 233c0 200 151 301 318 301c84 0 154 -26 192 -52zM369 145l41 256c-18 11 -45 21 -80 21c-86 0 -177 -62 -177 -200c0 -65 20 -138 102 -138c50 0 89 28 114 61z" />
    <glyph glyph-name="f.semp2" horiz-adv-x="322" 
d="M134 0h-117l96 603c9 59 31 116 68 154c43 43 104 60 157 60c72 0 120 -30 127 -36l-61 -91c-9 8 -36 27 -74 27c-56 0 -89 -42 -100 -112l-16 -101h118l-15 -96h-118z" />
    <glyph glyph-name="f.alt" horiz-adv-x="365" 
d="M136 -245h-117l104 653h-81l15 96h81l16 99c10 63 34 119 69 154c43 43 105 60 158 60c70 0 119 -30 125 -36l-59 -91c-11 8 -38 27 -76 27c-56 0 -89 -42 -100 -112l-16 -101h121l-15 -96h-121z" />
    <glyph glyph-name="f.semp" horiz-adv-x="322" 
d="M96 -245h-117l134 848c9 59 32 116 69 154c43 43 103 60 157 60c72 0 119 -30 127 -36l-61 -91c-10 8 -36 27 -75 27c-56 0 -88 -42 -99 -112l-16 -101h118l-16 -96h-118z" />
    <glyph glyph-name="j.semp" horiz-adv-x="257" 
d="M100 -241l-121 -26l122 772h117zM174 592c-39 0 -64 26 -64 64c0 51 39 88 88 88c41 0 64 -27 64 -64c0 -51 -39 -88 -88 -88z" />
    <glyph glyph-name="m.alt" horiz-adv-x="843" 
d="M731 0h-118l47 294c16 100 -20 126 -81 126c-40 0 -65 -11 -93 -30c2 -21 2 -42 -2 -68l-51 -322h-118l47 294c16 99 -21 126 -82 126c-44 0 -68 -14 -83 -25l-63 -395h-118l73 462c61 30 136 57 212 57c53 0 99 -13 130 -47c53 31 109 47 171 47c126 0 201 -66 180 -197
z" />
    <glyph glyph-name="n.alt" 
d="M450 0h-118l47 294c16 100 -26 126 -91 126c-48 0 -77 -14 -91 -25l-63 -395h-118l73 462c61 30 137 57 221 57c132 0 212 -66 191 -197z" />
    <glyph glyph-name="longs" unicode="&#x17f;" horiz-adv-x="291" 
d="M175 0h-117l65 408h-81l15 96h81l16 99c9 59 31 116 68 154c43 43 105 60 159 60c71 0 119 -30 125 -36l-59 -91c-10 8 -37 27 -76 27c-56 0 -89 -42 -100 -112z" />
    <glyph glyph-name="longs.semp" horiz-adv-x="290" 
d="M136 -245h-116l103 653h-82l16 96h81l16 99c9 59 32 116 69 154c43 43 103 60 157 60c71 0 119 -30 127 -36l-61 -91c-10 8 -37 27 -76 27c-55 0 -88 -42 -99 -112z" />
    <glyph glyph-name="t.alt" horiz-adv-x="367" 
d="M296 78l-61 -91c-118 0 -178 35 -155 179l38 242h-84l15 96h84l28 173h118l-28 -173h124l-15 -96h-124l-36 -227c-16 -98 1 -101 96 -103z" />
    <glyph glyph-name="t.alt2" horiz-adv-x="383" 
d="M201 0h-118l65 408h-118l15 96h118l28 173h118l-28 -173h119l-15 -96h-119z" />
    <glyph glyph-name="t.semp" horiz-adv-x="326" 
d="M135 0h-118l107 675h118l-27 -171h126l-15 -96h-126z" />
    <glyph glyph-name="aacute.alt" horiz-adv-x="578" 
d="M530 746l-213 -163l-70 50l195 186zM464 -2h-98l-3 58c-45 -50 -105 -71 -150 -71c-82 0 -185 68 -185 233c0 200 151 301 318 301c84 0 154 -26 192 -52zM369 145l41 256c-18 11 -45 21 -80 21c-86 0 -177 -62 -177 -200c0 -65 20 -138 102 -138c50 0 89 28 114 61z" />
    <glyph glyph-name="acircumflex.alt" horiz-adv-x="578" 
d="M523 643l-73 -71l-104 93l-132 -93l-52 71l203 135zM464 -2h-98l-3 58c-45 -50 -105 -71 -150 -71c-82 0 -185 68 -185 233c0 200 151 301 318 301c84 0 154 -26 192 -52zM369 145l41 256c-18 11 -45 21 -80 21c-86 0 -177 -62 -177 -200c0 -65 20 -138 102 -138
c50 0 89 28 114 61z" />
    <glyph glyph-name="adieresis.alt" horiz-adv-x="578" 
d="M310 654c0 -39 -39 -72 -81 -72c-34 0 -58 25 -58 56c0 41 37 73 78 73c35 0 61 -24 61 -57zM539 656c0 -40 -32 -74 -79 -74c-35 0 -59 25 -59 56c0 40 36 73 79 73c37 0 59 -24 59 -55zM464 -2h-98l-3 58c-45 -50 -105 -71 -150 -71c-82 0 -185 68 -185 233
c0 200 151 301 318 301c84 0 154 -26 192 -52zM369 145l41 256c-18 11 -45 21 -80 21c-86 0 -177 -62 -177 -200c0 -65 20 -138 102 -138c50 0 89 28 114 61z" />
    <glyph glyph-name="agrave.alt" horiz-adv-x="578" 
d="M453 628l-76 -45l-161 163l101 68zM464 -2h-98l-3 58c-45 -50 -105 -71 -150 -71c-82 0 -185 68 -185 233c0 200 151 301 318 301c84 0 154 -26 192 -52zM369 145l41 256c-18 11 -45 21 -80 21c-86 0 -177 -62 -177 -200c0 -65 20 -138 102 -138c50 0 89 28 114 61z" />
    <glyph glyph-name="aring.alt" horiz-adv-x="578" 
d="M475 719c0 -73 -66 -136 -139 -136c-62 0 -104 46 -104 105c0 76 69 137 139 137c63 0 104 -48 104 -106zM347 652c28 0 56 28 56 59c0 25 -18 46 -41 46c-28 0 -54 -29 -54 -61c0 -24 15 -44 39 -44zM464 -2h-98l-3 58c-45 -50 -105 -71 -150 -71
c-82 0 -185 68 -185 233c0 200 151 301 318 301c84 0 154 -26 192 -52zM369 145l41 256c-18 11 -45 21 -80 21c-86 0 -177 -62 -177 -200c0 -65 20 -138 102 -138c50 0 89 28 114 61z" />
    <glyph glyph-name="atilde.alt" horiz-adv-x="578" 
d="M512 740l37 -79c-39 -32 -96 -78 -150 -78c-56 0 -81 49 -122 49c-31 0 -60 -28 -92 -50l-47 73c31 25 107 78 158 78c50 0 74 -51 114 -51c35 0 83 40 102 58zM464 -2h-98l-3 58c-45 -50 -105 -71 -150 -71c-82 0 -185 68 -185 233c0 200 151 301 318 301
c84 0 154 -26 192 -52zM369 145l41 256c-18 11 -45 21 -80 21c-86 0 -177 -62 -177 -200c0 -65 20 -138 102 -138c50 0 89 28 114 61z" />
    <glyph glyph-name="aogonek" unicode="&#x105;" horiz-adv-x="526" 
d="M400 -107l-12 -78c-45 -24 -88 -34 -123 -34c-68 0 -99 37 -99 83c0 43 26 83 72 123c-11 -1 -21 -2 -37 -2c-140 0 -197 80 -197 159c0 92 76 185 214 185c51 0 108 -13 135 -45l9 59c7 48 -9 78 -90 78c-63 0 -111 -18 -140 -29l-22 86c46 21 109 41 190 41
c160 0 189 -79 170 -201l-42 -265c-18 -17 -51 -32 -82 -44c-31 -14 -79 -68 -79 -110c0 -17 8 -31 39 -31c30 0 76 14 94 25zM325 106l14 88c-18 21 -60 43 -106 43c-66 0 -106 -45 -106 -88c0 -35 27 -70 93 -70c38 0 80 12 105 27z" />
    <glyph glyph-name="aogonek.alt" horiz-adv-x="578" 
d="M489 -115l-12 -78c-45 -24 -88 -34 -124 -34c-67 0 -98 36 -98 86c0 38 18 97 110 141l-2 56c-45 -50 -105 -71 -150 -71c-82 0 -185 68 -185 233c0 200 151 301 318 301c84 0 154 -26 192 -52l-74 -472c-91 -37 -106 -88 -106 -109c0 -20 13 -26 35 -26
c34 0 78 14 96 25zM369 145l41 256c-18 11 -45 21 -80 21c-86 0 -177 -62 -177 -200c0 -65 20 -138 102 -138c50 0 89 28 114 61z" />
    <glyph glyph-name="abreve" unicode="&#x103;" horiz-adv-x="526" 
d="M325 106l14 88c-18 21 -60 43 -106 43c-66 0 -106 -45 -106 -88c0 -35 27 -70 93 -70c38 0 80 12 105 27zM470 318l-42 -265c-41 -36 -132 -68 -223 -68c-144 0 -201 79 -201 159c0 93 76 185 213 185c52 0 109 -13 136 -45l9 59c7 48 -9 78 -90 78
c-63 0 -111 -18 -140 -29l-22 86c46 21 109 41 190 41c160 0 189 -79 170 -201zM396 755h109c-17 -76 -88 -172 -202 -172c-89 0 -153 59 -144 172h112c-2 -12 -11 -83 45 -83c59 0 80 77 80 83z" />
    <glyph glyph-name="abreve.alt" horiz-adv-x="578" 
d="M429 755h108c-17 -76 -85 -172 -203 -172c-85 0 -151 59 -142 172h112c-2 -14 -8 -83 43 -83c64 0 81 76 82 83zM464 -2h-98l-3 58c-45 -50 -105 -71 -150 -71c-82 0 -185 68 -185 233c0 200 151 301 318 301c84 0 154 -26 192 -52zM369 145l41 256c-18 11 -45 21 -80 21
c-86 0 -177 -62 -177 -200c0 -65 20 -138 102 -138c50 0 89 28 114 61z" />
    <glyph glyph-name="amacron" unicode="&#x101;" horiz-adv-x="526" 
d="M325 106l14 88c-18 21 -60 43 -106 43c-66 0 -106 -45 -106 -88c0 -35 27 -70 93 -70c38 0 80 12 105 27zM470 318l-42 -265c-41 -36 -132 -68 -223 -68c-144 0 -201 79 -201 159c0 93 76 185 213 185c52 0 109 -13 136 -45l9 59c7 48 -9 78 -90 78
c-63 0 -111 -18 -140 -29l-22 86c46 21 109 41 190 41c160 0 189 -79 170 -201zM513 600h-412l16 99h412z" />
    <glyph glyph-name="amacron.alt" horiz-adv-x="578" 
d="M541 600h-411l16 99h411zM464 -2h-98l-3 58c-45 -50 -105 -71 -150 -71c-82 0 -185 68 -185 233c0 200 151 301 318 301c84 0 154 -26 192 -52zM369 145l41 256c-18 11 -45 21 -80 21c-86 0 -177 -62 -177 -200c0 -65 20 -138 102 -138c50 0 89 28 114 61z" />
    <glyph glyph-name="uni1E03" unicode="&#x1e03;" horiz-adv-x="583" 
d="M487 693c0 -43 -40 -81 -85 -81c-34 0 -61 29 -61 63c0 44 43 82 84 82c37 0 62 -28 62 -64zM23 48l122 772h118l-55 -346c36 22 89 45 149 45c124 0 182 -100 182 -223c0 -195 -145 -311 -315 -311c-67 0 -145 18 -201 63zM192 371l-42 -264c17 -14 49 -24 86 -24
c110 0 177 91 177 202c0 76 -32 135 -99 135c-43 0 -96 -25 -122 -49z" />
    <glyph glyph-name="cacute" unicode="&#x107;" horiz-adv-x="503" 
d="M494 746l-213 -163l-69 50l194 186zM414 140l24 -82c-25 -26 -103 -73 -190 -73c-118 0 -222 87 -222 235c0 181 155 299 303 299c91 0 146 -44 159 -59l-59 -89c-12 14 -49 49 -107 49c-85 0 -173 -75 -173 -195c0 -84 44 -143 125 -143c66 0 123 39 140 58z" />
    <glyph glyph-name="uni1E6B" unicode="&#x1e6b;" horiz-adv-x="363" 
d="M322 814c0 -43 -39 -81 -85 -81c-35 0 -60 29 -60 63c0 44 42 82 83 82c38 0 62 -28 62 -64zM181 0h-118l65 408h-87l15 96h87l28 173h118l-28 -173h118l-15 -96h-118z" />
    <glyph glyph-name="tcommaaccent.semp" horiz-adv-x="324" 
d="M31 -244h-102l102 205h140zM135 0h-118l107 675h118l-28 -171h126l-15 -96h-126z" />
    <glyph glyph-name="tcommaaccent.alt2" horiz-adv-x="381" 
d="M101 -244h-102l102 205h140zM201 0h-118l64 408h-118l15 96h118l28 173h118l-28 -173h119l-15 -96h-119z" />
    <glyph glyph-name="tcommaaccent.alt" horiz-adv-x="367" 
d="M95 -244h-101l101 205h140zM296 78l-61 -91c-118 0 -178 35 -155 179l38 242h-84l15 96h84l28 173h118l-28 -173h124l-15 -96h-124l-36 -227c-16 -98 1 -101 96 -103z" />
    <glyph glyph-name="tcommaaccent" unicode="&#x163;" horiz-adv-x="362" 
d="M80 -244h-101l101 205h140zM181 0h-118l64 408h-87l15 96h87l28 173h118l-28 -173h118l-15 -96h-118z" />
    <glyph glyph-name="tcaron.semp" horiz-adv-x="326" 
d="M375 575h-81l114 232h125zM135 0h-118l107 675h118l-27 -171h126l-15 -96h-126z" />
    <glyph glyph-name="tcaron.alt2" horiz-adv-x="383" 
d="M445 575h-81l114 232h125zM201 0h-118l65 408h-118l15 96h118l28 173h118l-28 -173h119l-15 -96h-119z" />
    <glyph glyph-name="tcaron.alt" horiz-adv-x="367" 
d="M414 575h-81l114 232h126zM296 78l-61 -91c-118 0 -178 35 -155 179l38 242h-84l15 96h84l28 173h118l-28 -173h124l-15 -96h-124l-36 -227c-16 -98 1 -101 96 -103z" />
    <glyph glyph-name="tcaron" unicode="&#x165;" horiz-adv-x="363" 
d="M424 575h-81l115 232h125zM181 0h-118l65 408h-87l15 96h87l28 173h118l-28 -173h118l-15 -96h-118z" />
    <glyph glyph-name="scedilla" unicode="&#x15f;" horiz-adv-x="430" 
d="M118 -255h-98l100 205h140zM411 464l-57 -82c-5 9 -44 49 -92 49c-38 0 -71 -24 -71 -57c0 -75 172 -79 172 -227c0 -99 -77 -162 -199 -162c-91 0 -150 35 -182 66l56 84c25 -29 77 -61 126 -61c47 0 77 30 77 65c0 84 -175 95 -175 230c0 83 67 152 186 152
c88 0 141 -38 159 -57z" />
    <glyph glyph-name="sacute" unicode="&#x15b;" horiz-adv-x="430" 
d="M460 746l-213 -163l-70 50l195 186zM411 464l-57 -82c-5 9 -44 49 -92 49c-38 0 -71 -24 -71 -57c0 -75 172 -79 172 -227c0 -99 -77 -162 -199 -162c-91 0 -150 35 -182 66l56 84c25 -29 77 -61 126 -61c47 0 77 30 77 65c0 84 -175 95 -175 230c0 83 67 152 186 152
c88 0 141 -38 159 -57z" />
    <glyph glyph-name="uni1E61" unicode="&#x1e61;" horiz-adv-x="430" 
d="M344 664c0 -43 -39 -81 -85 -81c-34 0 -60 29 -60 63c0 44 41 82 83 82c38 0 62 -28 62 -64zM411 464l-57 -82c-5 9 -44 49 -92 49c-38 0 -71 -24 -71 -57c0 -75 172 -79 172 -227c0 -99 -77 -162 -199 -162c-91 0 -150 35 -182 66l56 84c25 -29 77 -61 126 -61
c47 0 77 30 77 65c0 84 -175 95 -175 230c0 83 67 152 186 152c88 0 141 -38 159 -57z" />
    <glyph glyph-name="rcommaaccent" unicode="&#x157;" horiz-adv-x="384" 
d="M63 -244h-102l102 205h140zM135 0h-118l80 505h118l-12 -78c14 24 63 92 119 92c43 0 66 -14 83 -25l-59 -110c-13 10 -31 24 -61 24c-54 0 -94 -58 -105 -127z" />
    <glyph glyph-name="rcaron" unicode="&#x159;" horiz-adv-x="383" 
d="M447 714l-201 -136l-161 136l75 71l103 -93l133 93zM135 0h-118l80 505h118l-12 -78c14 24 63 92 119 92c43 0 66 -14 83 -25l-59 -110c-13 10 -31 24 -61 24c-54 0 -94 -58 -105 -127z" />
    <glyph glyph-name="racute" unicode="&#x155;" horiz-adv-x="383" 
d="M426 746l-212 -163l-70 50l195 186zM135 0h-118l80 505h118l-12 -78c14 24 63 92 119 92c43 0 66 -14 83 -25l-59 -110c-13 10 -31 24 -61 24c-54 0 -94 -58 -105 -127z" />
    <glyph glyph-name="uni1E57" unicode="&#x1e57;" horiz-adv-x="582" 
d="M415 664c0 -43 -39 -81 -84 -81c-35 0 -62 29 -62 63c0 44 43 82 85 82c36 0 61 -28 61 -64zM93 -255h-118l114 717c74 39 158 57 220 57c125 0 228 -72 228 -225s-102 -309 -270 -309c-63 0 -100 22 -128 49zM196 396l-40 -256c16 -32 63 -56 104 -56
c76 0 151 82 151 194c0 84 -43 142 -123 142c-31 0 -70 -9 -92 -24z" />
    <glyph glyph-name="oslashacute" unicode="&#x1ff;" horiz-adv-x="598" 
d="M503 746l-213 -163l-70 50l196 186zM95 -147l-85 34l92 149c-50 42 -76 107 -76 182c0 177 150 301 304 301c23 0 44 -3 64 -8l79 128l87 -38l-83 -133c50 -43 77 -108 77 -182c0 -162 -131 -301 -300 -301c-26 0 -50 4 -71 10zM412 363l-173 -278c8 -2 16 -2 25 -2
c93 0 165 82 165 198c0 32 -6 60 -17 82zM165 139l172 279c-6 1 -12 2 -19 2c-91 0 -170 -84 -170 -199c0 -32 6 -60 17 -82z" />
    <glyph glyph-name="obreve" unicode="&#x14f;" horiz-adv-x="598" 
d="M433 755h109c-17 -76 -86 -172 -204 -172c-85 0 -151 59 -142 172h112c-2 -14 -7 -83 43 -83c64 0 81 76 82 83zM254 -15c-144 0 -228 101 -228 233c0 177 150 301 304 301c141 0 224 -104 224 -233c0 -162 -131 -301 -300 -301zM264 83c93 0 165 82 165 198
c0 83 -36 139 -111 139c-91 0 -170 -84 -170 -199c0 -82 40 -138 116 -138z" />
    <glyph glyph-name="omacron" unicode="&#x14d;" horiz-adv-x="598" 
d="M551 600h-411l15 99h411zM254 -15c-144 0 -228 101 -228 233c0 177 150 301 304 301c141 0 224 -104 224 -233c0 -162 -131 -301 -300 -301zM264 83c93 0 165 82 165 198c0 83 -36 139 -111 139c-91 0 -170 -84 -170 -199c0 -82 40 -138 116 -138z" />
    <glyph glyph-name="ohungarumlaut" unicode="&#x151;" horiz-adv-x="598" 
d="M408 713l-233 -131l-38 57l213 164zM639 713l-234 -131l-38 57l214 164zM254 -15c-144 0 -228 101 -228 233c0 177 150 301 304 301c141 0 224 -104 224 -233c0 -162 -131 -301 -300 -301zM264 83c93 0 165 82 165 198c0 83 -36 139 -111 139c-91 0 -170 -84 -170 -199
c0 -82 40 -138 116 -138z" />
    <glyph glyph-name="napostrophe.alt" horiz-adv-x="598" 
d="M486 0h-118l47 294c16 100 -25 126 -91 126c-48 0 -76 -14 -91 -25l-63 -395h-118l73 462c62 30 137 57 221 57c133 0 212 -66 191 -197zM30 467h-102l102 205h140z" />
    <glyph glyph-name="napostrophe" unicode="&#x149;" horiz-adv-x="597" 
d="M485 0h-118l44 275c13 81 9 140 -61 140c-56 0 -104 -37 -123 -58l-57 -357h-118l80 505h118l-8 -52c35 28 90 66 170 66c96 0 146 -55 126 -182zM30 467h-102l102 205h140z" />
    <glyph glyph-name="ntilde.alt" 
d="M481 740l38 -79c-35 -28 -96 -78 -150 -78c-58 0 -80 49 -122 49c-31 0 -60 -28 -93 -50l-46 73c31 25 107 78 158 78c50 0 75 -51 114 -51c36 0 82 40 101 58zM450 0h-118l47 294c16 100 -26 126 -91 126c-48 0 -77 -14 -91 -25l-63 -395h-118l73 462
c61 30 137 57 221 57c132 0 212 -66 191 -197z" />
    <glyph glyph-name="ncommaaccent.alt" 
d="M160 -244h-101l102 205h140zM450 0h-118l47 294c16 100 -26 126 -91 126c-48 0 -77 -14 -91 -25l-63 -395h-118l73 462c61 30 137 57 221 57c132 0 212 -66 191 -197z" />
    <glyph glyph-name="ncommaaccent" unicode="&#x146;" 
d="M450 0h-118l44 275c13 81 9 140 -61 140c-56 0 -104 -37 -123 -58l-57 -357h-118l80 505h118l-8 -52c35 28 89 66 169 66c97 0 147 -56 127 -182zM195 -244h-102l103 205h139z" />
    <glyph glyph-name="ncaron.alt" 
d="M504 714l-201 -136l-161 136l75 71l103 -93l133 93zM450 0h-118l47 294c16 100 -26 126 -91 126c-48 0 -77 -14 -91 -25l-63 -395h-118l73 462c61 30 137 57 221 57c132 0 212 -66 191 -197z" />
    <glyph glyph-name="ncaron" unicode="&#x148;" 
d="M450 0h-118l44 275c13 81 9 140 -61 140c-56 0 -104 -37 -123 -58l-57 -357h-118l80 505h118l-8 -52c35 28 89 66 169 66c97 0 147 -56 127 -182zM530 714l-201 -136l-161 136l75 71l103 -93l133 93z" />
    <glyph glyph-name="nacute.alt" 
d="M491 746l-213 -163l-70 50l196 186zM450 0h-118l47 294c16 100 -26 126 -91 126c-48 0 -77 -14 -91 -25l-63 -395h-118l73 462c61 30 137 57 221 57c132 0 212 -66 191 -197z" />
    <glyph glyph-name="nacute" unicode="&#x144;" 
d="M450 0h-118l44 275c13 81 9 140 -61 140c-56 0 -104 -37 -123 -58l-57 -357h-118l80 505h118l-8 -52c35 28 89 66 169 66c97 0 147 -56 127 -182zM519 746l-213 -163l-69 50l195 186z" />
    <glyph glyph-name="uni1E41.alt" horiz-adv-x="843" 
d="M549 664c0 -43 -40 -81 -85 -81c-35 0 -61 29 -61 63c0 44 43 82 84 82c37 0 62 -28 62 -64zM731 0h-118l47 294c16 100 -20 126 -81 126c-40 0 -65 -11 -93 -30c2 -21 2 -42 -2 -68l-51 -322h-118l47 294c16 99 -21 126 -82 126c-44 0 -68 -14 -83 -25l-63 -395h-118
l73 462c61 30 136 57 212 57c53 0 99 -13 130 -47c53 31 109 47 171 47c126 0 201 -66 180 -197z" />
    <glyph glyph-name="uni1E41" unicode="&#x1e41;" horiz-adv-x="845" 
d="M732 0h-118l51 320c10 65 -9 95 -56 95c-48 0 -95 -32 -118 -56l-57 -359h-118l51 325c10 64 -16 90 -59 90c-49 0 -95 -35 -116 -56l-57 -359h-118l80 505h118l-8 -53c24 22 87 67 162 67s98 -46 106 -76c53 37 112 76 189 76c92 0 142 -55 122 -180zM550 665
c0 -44 -40 -82 -83 -82c-38 0 -63 29 -63 63c0 44 43 82 85 82c36 0 61 -29 61 -63z" />
    <glyph glyph-name="ncaron.sc" horiz-adv-x="656" 
d="M528 -20l-334 325l-46 -305h-123l90 554l334 -328l47 312h121zM564 734l-200 -136l-161 136l75 71l103 -93l133 93z" />
    <glyph glyph-name="nacute.sc" horiz-adv-x="656" 
d="M528 -20l-334 325l-46 -305h-123l90 554l334 -328l47 312h121zM561 766l-212 -163l-69 50l194 186z" />
    <glyph glyph-name="uni1E41.sc" horiz-adv-x="758" 
d="M506 664c0 -43 -40 -81 -85 -81c-35 0 -61 29 -61 63c0 44 43 82 84 82c37 0 62 -28 62 -64zM662 0h-124l8 232c0 12 5 25 7 37c-3 -10 -12 -23 -24 -38l-204 -252l-125 251c-5 10 -8 19 -10 28c0 -8 -1 -17 -4 -27l-65 -231h-124l165 552l195 -368l313 368z" />
    <glyph glyph-name="ldot.sc" horiz-adv-x="500" 
d="M377 1h-350l85 537h123l-68 -427h227zM472 342c0 -43 -38 -81 -84 -81c-33 0 -59 29 -59 63c0 44 43 82 82 82c38 0 61 -28 61 -64z" />
    <glyph glyph-name="lcommaaccent.sc" horiz-adv-x="446" 
d="M377 1h-350l85 537h123l-68 -427h227zM146 -244h-101l102 205h140z" />
    <glyph glyph-name="lcaron.sc" horiz-adv-x="483" 
d="M377 1h-350l85 537h123l-68 -427h227zM404 386h-101l101 205h140z" />
    <glyph glyph-name="lacute.sc" horiz-adv-x="447" 
d="M377 1h-350l85 537h123l-68 -427h227zM403 766l-212 -163l-69 50l194 186z" />
    <glyph glyph-name="lslash.sc" horiz-adv-x="454" 
d="M383 1h-349l22 139l-62 -31l19 118l62 32l44 279h123l-33 -210l120 60l-19 -118l-120 -61l-16 -98h226z" />
    <glyph glyph-name="kcommaaccent.sc" horiz-adv-x="587" 
d="M188 -244h-102l103 205h140zM546 0h-166l-196 208l-33 -208h-124l85 538h124l-31 -194l209 194h160l-305 -262z" />
    <glyph glyph-name="jcircumflex.sc.semp" horiz-adv-x="414" 
d="M212 207l35 220h-152l18 111h274l-62 -390c-20 -124 -114 -162 -205 -162c-62 0 -117 18 -152 41l55 103c21 -16 57 -38 96 -38c50 0 80 35 93 115zM453 673l-72 -71l-104 93l-132 -93l-53 71l204 136z" />
    <glyph glyph-name="jcircumflex.sc" horiz-adv-x="275" 
d="M-76 -181l-28 103c102 27 127 52 144 160l72 456h124l-73 -459c-24 -152 -76 -203 -239 -260zM373 643l-73 -71l-104 93l-132 -93l-53 71l204 136z" />
    <glyph glyph-name="itilde.sc" horiz-adv-x="274" 
d="M149 0h-122l85 538h122zM360 740l38 -79c-34 -28 -94 -78 -148 -78c-59 0 -81 49 -124 49c-31 0 -60 -28 -92 -50l-47 73c32 25 107 78 158 78s75 -51 114 -51c36 0 83 40 101 58z" />
    <glyph glyph-name="ibreve.sc" horiz-adv-x="274" 
d="M149 0h-123l86 538h123zM271 755h109c-17 -76 -86 -172 -204 -172c-85 0 -151 59 -142 172h112c-2 -14 -7 -83 43 -83c64 0 81 76 82 83z" />
    <glyph glyph-name="iogonek.sc" horiz-adv-x="274" 
d="M166 -115l-12 -78c-45 -24 -88 -34 -124 -34c-69 0 -102 37 -102 85c0 46 30 98 99 143l85 537h123l-86 -543c-102 -39 -117 -88 -117 -109c0 -20 14 -26 35 -26c37 0 82 14 99 25z" />
    <glyph glyph-name="imacron.sc" horiz-adv-x="275" 
d="M150 0h-123l85 538h123zM370 600h-372l16 99h372z" />
    <glyph glyph-name="ncommaaccent.sc" horiz-adv-x="656" 
d="M528 -20l-334 325l-46 -305h-123l90 554l334 -328l47 312h121zM238 -244h-102l103 205h140z" />
    <glyph glyph-name="ntilde.sc" horiz-adv-x="656" 
d="M531 752l31 -62c-14 -19 -74 -89 -140 -89c-43 0 -67 40 -105 40c-36 0 -72 -34 -91 -51l-46 64c32 27 105 85 156 85c44 0 67 -42 104 -42c33 0 76 40 91 55zM528 -20l-334 325l-46 -305h-123l90 554l334 -328l47 312h121z" />
    <glyph glyph-name="napostrophe.sc" horiz-adv-x="722" 
d="M594 -20l-333 325l-46 -305h-123l89 554l333 -328l49 312h121zM52 482h-102l102 205h140z" />
    <glyph glyph-name="oacute.sc" horiz-adv-x="665" 
d="M593 765l-215 -163l-70 52l193 184zM618 306c0 -174 -155 -320 -331 -320c-154 0 -252 112 -252 252c0 180 164 314 332 314c149 0 251 -105 251 -246zM297 96c102 0 193 87 193 200c0 80 -46 146 -135 146c-103 0 -192 -88 -192 -199c0 -78 44 -147 134 -147z" />
    <glyph glyph-name="ocircumflex.sc" horiz-adv-x="665" 
d="M570 669l-73 -70l-106 83l-130 -83l-52 70l202 136zM618 306c0 -174 -155 -320 -331 -320c-154 0 -252 112 -252 252c0 180 164 314 332 314c149 0 251 -105 251 -246zM297 96c102 0 193 87 193 200c0 80 -46 146 -135 146c-103 0 -192 -88 -192 -199
c0 -78 44 -147 134 -147z" />
    <glyph glyph-name="odieresis.sc" horiz-adv-x="665" 
d="M343 689c0 -39 -38 -72 -80 -72c-34 0 -58 25 -58 56c0 41 37 73 78 73c35 0 60 -24 60 -57zM573 691c0 -40 -33 -74 -80 -74c-35 0 -58 25 -58 56c0 40 36 73 78 73c38 0 60 -24 60 -55zM618 306c0 -174 -155 -320 -331 -320c-154 0 -252 112 -252 252
c0 180 164 314 332 314c149 0 251 -105 251 -246zM297 96c102 0 193 87 193 200c0 80 -46 146 -135 146c-103 0 -192 -88 -192 -199c0 -78 44 -147 134 -147z" />
    <glyph glyph-name="ograve.sc" horiz-adv-x="665" 
d="M497 646l-79 -44l-161 163l107 67zM618 306c0 -174 -155 -320 -331 -320c-154 0 -252 112 -252 252c0 180 164 314 332 314c149 0 251 -105 251 -246zM297 96c102 0 193 87 193 200c0 80 -46 146 -135 146c-103 0 -192 -88 -192 -199c0 -78 44 -147 134 -147z" />
    <glyph glyph-name="ohungarumlaut.sc" horiz-adv-x="665" 
d="M442 733l-230 -131l-36 57l210 164zM668 733l-230 -131l-36 57l210 164zM618 306c0 -174 -155 -320 -331 -320c-154 0 -252 112 -252 252c0 180 164 314 332 314c149 0 251 -105 251 -246zM297 96c102 0 193 87 193 200c0 80 -46 146 -135 146c-103 0 -192 -88 -192 -199
c0 -78 44 -147 134 -147z" />
    <glyph glyph-name="omacron.sc" horiz-adv-x="665" 
d="M568 620h-372l16 99h372zM618 306c0 -174 -155 -320 -331 -320c-154 0 -252 112 -252 252c0 180 164 314 332 314c149 0 251 -105 251 -246zM297 96c102 0 193 87 193 200c0 80 -46 146 -135 146c-103 0 -192 -88 -192 -199c0 -78 44 -147 134 -147z" />
    <glyph glyph-name="otilde.sc" horiz-adv-x="665" 
d="M552 759l31 -62c-15 -19 -75 -89 -140 -89c-44 0 -69 40 -106 40c-36 0 -72 -34 -91 -51l-46 64c32 27 106 85 156 85c44 0 67 -42 104 -42c34 0 76 40 92 55zM618 306c0 -174 -155 -320 -331 -320c-154 0 -252 112 -252 252c0 180 164 314 332 314
c149 0 251 -105 251 -246zM297 96c102 0 193 87 193 200c0 80 -46 146 -135 146c-103 0 -192 -88 -192 -199c0 -78 44 -147 134 -147z" />
    <glyph glyph-name="idotaccent.sc" horiz-adv-x="275" 
d="M150 0h-123l85 538h123zM266 682c0 -43 -39 -81 -84 -81c-35 0 -61 29 -61 63c0 44 42 82 84 82c37 0 61 -28 61 -64z" />
    <glyph glyph-name="igrave.sc" horiz-adv-x="275" 
d="M150 0h-123l85 538h123zM282 628l-74 -45l-161 163l101 68z" />
    <glyph glyph-name="idieresis.sc" horiz-adv-x="275" 
d="M150 0h-123l85 538h123zM176 654c0 -39 -38 -72 -81 -72c-33 0 -57 25 -57 56c0 41 37 73 78 73c35 0 60 -24 60 -57zM345 655c0 -39 -34 -73 -80 -73c-35 0 -57 25 -57 56c0 40 35 73 78 73c38 0 59 -24 59 -56z" />
    <glyph glyph-name="icircumflex.sc" horiz-adv-x="275" 
d="M150 0h-123l85 538h123zM371 643l-73 -71l-105 93l-131 -93l-53 71l204 136z" />
    <glyph glyph-name="iacute.sc" horiz-adv-x="275" 
d="M150 0h-123l85 538h123zM378 746l-212 -163l-69 50l194 186z" />
    <glyph glyph-name="hbar.sc" horiz-adv-x="632" 
d="M504 0h-123l35 220h-228l-35 -220h-123l63 394h-54l13 84h54l9 60h123l-9 -60h228l9 60h123l-9 -60h53l-13 -84h-53zM433 330l11 64h-228l-11 -64h228z" />
    <glyph glyph-name="hcircumflex.sc" horiz-adv-x="626" 
d="M501 0h-123l35 220h-228l-35 -220h-123l85 538h123l-33 -208h228l33 208h123zM549 663l-73 -71l-105 93l-131 -93l-53 71l204 136z" />
    <glyph glyph-name="obreve.sc" horiz-adv-x="665" 
d="M470 775h109c-17 -76 -87 -172 -204 -172c-85 0 -151 59 -142 172h112c-3 -14 -8 -83 43 -83c63 0 80 76 82 83zM618 306c0 -174 -155 -320 -331 -320c-154 0 -252 112 -252 252c0 180 164 314 332 314c149 0 251 -105 251 -246zM297 96c102 0 193 87 193 200
c0 80 -46 146 -135 146c-103 0 -192 -88 -192 -199c0 -78 44 -147 134 -147z" />
    <glyph glyph-name="oslash.sc" horiz-adv-x="665" 
d="M158 -121l-95 42l66 115c-60 46 -94 119 -94 202c0 180 164 314 332 314c20 0 39 -3 57 -6l66 114l95 -46l-64 -110c61 -44 97 -115 97 -198c0 -174 -155 -320 -331 -320c-22 0 -44 3 -63 7zM284 96h13c102 0 193 87 193 200c0 38 -11 74 -32 100zM192 145l172 297h-9
c-103 0 -192 -88 -192 -199c0 -37 9 -72 29 -98z" />
    <glyph glyph-name="oslashacute.sc" horiz-adv-x="665" 
d="M539 765l-214 -163l-69 52l192 184zM158 -121l-95 42l66 115c-60 46 -94 119 -94 202c0 180 164 314 332 314c20 0 39 -3 57 -6l66 114l95 -46l-64 -110c61 -44 97 -115 97 -198c0 -174 -155 -320 -331 -320c-22 0 -44 3 -63 7zM284 96h13c102 0 193 87 193 200
c0 38 -11 74 -32 100zM192 145l172 297h-9c-103 0 -192 -88 -192 -199c0 -37 9 -72 29 -98z" />
    <glyph glyph-name="uni1E57.sc" horiz-adv-x="493" 
d="M375 684c0 -43 -39 -81 -85 -81c-34 0 -61 29 -61 63c0 44 43 82 83 82c38 0 63 -28 63 -64zM150 0h-123l85 538h127c139 0 229 -40 229 -159c0 -117 -89 -211 -259 -211h-32zM194 278h32c70 0 109 37 109 92c0 29 -11 58 -81 58h-36z" />
    <glyph glyph-name="racute.sc" horiz-adv-x="547" 
d="M487 766l-211 -163l-70 50l194 186zM523 0h-156l-184 211l-33 -211h-123l85 538h127c134 0 230 -43 230 -149c0 -96 -79 -160 -158 -174zM194 278h31c76 0 111 48 111 98c0 32 -15 62 -78 62h-39z" />
    <glyph glyph-name="rcaron.sc" horiz-adv-x="547" 
d="M492 734l-201 -136l-161 136l75 71l103 -93l133 93zM523 0h-156l-184 211l-33 -211h-123l85 538h127c134 0 230 -43 230 -149c0 -96 -79 -160 -158 -174zM194 278h31c76 0 111 48 111 98c0 32 -15 62 -78 62h-39z" />
    <glyph glyph-name="rcommaaccent.sc" horiz-adv-x="545" 
d="M186 -244h-102l103 205h140zM523 0h-156l-184 211l-33 -211h-123l85 538h127c134 0 230 -43 230 -149c0 -96 -79 -160 -158 -174zM194 278h31c76 0 111 48 111 98c0 32 -15 62 -78 62h-39z" />
    <glyph glyph-name="uni1E61.sc" horiz-adv-x="491" 
d="M367 684c0 -43 -40 -81 -85 -81c-34 0 -61 29 -61 63c0 44 42 82 84 82c37 0 62 -28 62 -64zM457 485l-70 -84c-26 29 -61 49 -104 49c-44 0 -69 -20 -69 -49c0 -84 210 -67 210 -233c0 -110 -93 -182 -225 -182c-113 0 -180 52 -206 91l74 82c24 -29 72 -66 134 -66
c46 0 88 21 88 61c0 91 -210 73 -210 236c0 114 104 161 210 161c92 0 141 -35 168 -66z" />
    <glyph glyph-name="scaron.sc" horiz-adv-x="491" 
d="M499 725l-202 -136l-160 136l75 71l102 -93l134 93zM457 485l-70 -84c-26 29 -61 49 -104 49c-44 0 -69 -20 -69 -49c0 -84 210 -67 210 -233c0 -110 -93 -182 -225 -182c-113 0 -180 52 -206 91l74 82c24 -29 72 -66 134 -66c46 0 88 21 88 61c0 91 -210 73 -210 236
c0 114 104 161 210 161c92 0 141 -35 168 -66z" />
    <glyph glyph-name="sacute.sc" horiz-adv-x="491" 
d="M477 766l-213 -163l-68 50l193 186zM457 485l-70 -84c-26 29 -61 49 -104 49c-44 0 -69 -20 -69 -49c0 -84 210 -67 210 -233c0 -110 -93 -182 -225 -182c-113 0 -180 52 -206 91l74 82c24 -29 72 -66 134 -66c46 0 88 21 88 61c0 91 -210 73 -210 236
c0 114 104 161 210 161c92 0 141 -35 168 -66z" />
    <glyph glyph-name="scedilla.sc" horiz-adv-x="491" 
d="M153 -254h-99l100 205h140zM457 485l-70 -84c-26 29 -61 49 -104 49c-44 0 -69 -20 -69 -49c0 -84 210 -67 210 -233c0 -110 -93 -182 -225 -182c-113 0 -180 52 -206 91l74 82c24 -29 72 -66 134 -66c46 0 88 21 88 61c0 91 -210 73 -210 236c0 114 104 161 210 161
c92 0 141 -35 168 -66z" />
    <glyph glyph-name="tcaron.sc" horiz-adv-x="497" 
d="M261 0h-122l68 427h-165l17 110h451l-17 -110h-164zM495 724l-202 -136l-160 136l75 71l103 -93l133 93z" />
    <glyph glyph-name="tcommaaccent.sc" horiz-adv-x="499" 
d="M262 0h-122l68 427h-165l17 110h451l-17 -110h-164zM159 -244h-102l102 205h140z" />
    <glyph glyph-name="uni1E6B.sc" horiz-adv-x="497" 
d="M261 0h-122l68 427h-165l17 110h451l-17 -110h-164zM379 684c0 -43 -39 -81 -85 -81c-34 0 -61 29 -61 63c0 44 43 82 84 82c38 0 62 -28 62 -64z" />
    <glyph glyph-name="tbar.sc" horiz-adv-x="497" 
d="M261 0h-122l36 223h-124l15 99h124l17 105h-165l17 110h451l-17 -110h-164l-17 -105h122l-15 -99h-122z" />
    <glyph glyph-name="uacute.sc" horiz-adv-x="608" 
d="M553 765l-214 -163l-69 52l192 184zM382 122l66 416h123l-75 -474c-56 -48 -139 -78 -241 -78c-156 0 -224 71 -201 214l54 338h123l-41 -256c-24 -151 -19 -187 77 -187c51 0 88 10 115 27z" />
    <glyph glyph-name="ucircumflex.sc" horiz-adv-x="608" 
d="M543 669l-73 -70l-106 83l-130 -83l-53 70l203 136zM382 122l66 416h123l-75 -474c-56 -48 -139 -78 -241 -78c-156 0 -224 71 -201 214l54 338h123l-41 -256c-24 -151 -19 -187 77 -187c51 0 88 10 115 27z" />
    <glyph glyph-name="udieresis.sc" horiz-adv-x="608" 
d="M313 689c0 -39 -38 -72 -81 -72c-33 0 -58 25 -58 56c0 41 39 73 78 73c36 0 61 -24 61 -57zM543 690c0 -39 -34 -73 -80 -73c-34 0 -58 25 -58 56c0 40 36 73 78 73c38 0 60 -24 60 -56zM382 122l66 416h123l-75 -474c-56 -48 -139 -78 -241 -78
c-156 0 -224 71 -201 214l54 338h123l-41 -256c-24 -151 -19 -187 77 -187c51 0 88 10 115 27z" />
    <glyph glyph-name="ugrave.sc" horiz-adv-x="608" 
d="M441 646l-80 -44l-160 163l106 67zM382 122l66 416h123l-75 -474c-56 -48 -139 -78 -241 -78c-156 0 -224 71 -201 214l54 338h123l-41 -256c-24 -151 -19 -187 77 -187c51 0 88 10 115 27z" />
    <glyph glyph-name="uogonek.sc" horiz-adv-x="608" 
d="M416 -123l-12 -78c-45 -24 -87 -34 -122 -34c-68 0 -100 37 -100 85c0 43 27 94 88 136h-19c-150 0 -220 71 -197 214l54 338h123l-41 -256c-24 -151 -19 -187 77 -187c51 0 88 10 115 27l66 416h123l-75 -474c-31 -27 -72 -49 -122 -63c-79 -58 -93 -103 -93 -122
c0 -21 17 -27 39 -27c34 0 79 14 96 25z" />
    <glyph glyph-name="uhungarumlaut.sc" horiz-adv-x="608" 
d="M425 733l-230 -131l-36 57l210 164zM651 733l-230 -131l-36 57l210 164zM382 122l66 416h123l-75 -474c-56 -48 -139 -78 -241 -78c-156 0 -224 71 -201 214l54 338h123l-41 -256c-24 -151 -19 -187 77 -187c51 0 88 10 115 27z" />
    <glyph glyph-name="umacron.sc" horiz-adv-x="608" 
d="M540 620h-372l16 99h372zM382 122l66 416h123l-75 -474c-56 -48 -139 -78 -241 -78c-156 0 -224 71 -201 214l54 338h123l-41 -256c-24 -151 -19 -187 77 -187c51 0 88 10 115 27z" />
    <glyph glyph-name="uring.sc" horiz-adv-x="608" 
d="M492 739c0 -73 -67 -136 -140 -136c-61 0 -103 46 -103 105c0 76 68 137 142 137c59 0 101 -48 101 -106zM363 672c27 0 57 28 57 59c0 25 -17 46 -40 46c-29 0 -55 -29 -55 -60c0 -25 15 -45 38 -45zM382 122l66 416h123l-75 -474c-56 -48 -139 -78 -241 -78
c-156 0 -224 71 -201 214l54 338h123l-41 -256c-24 -151 -19 -187 77 -187c51 0 88 10 115 27z" />
    <glyph glyph-name="utilde.sc" horiz-adv-x="608" 
d="M531 760l38 -79c-34 -28 -95 -78 -149 -78c-58 0 -80 49 -122 49c-32 0 -60 -28 -93 -50l-47 73c32 25 108 78 158 78c51 0 75 -51 115 -51c35 0 82 40 100 58zM382 122l66 416h123l-75 -474c-56 -48 -139 -78 -241 -78c-156 0 -224 71 -201 214l54 338h123l-41 -256
c-24 -151 -19 -187 77 -187c51 0 88 10 115 27z" />
    <glyph glyph-name="ubreve.sc" horiz-adv-x="608" 
d="M443 775h108c-16 -76 -86 -172 -204 -172c-85 0 -150 59 -141 172h112c-2 -14 -7 -83 43 -83c64 0 81 76 82 83zM382 122l66 416h123l-75 -474c-56 -48 -139 -78 -241 -78c-156 0 -224 71 -201 214l54 338h123l-41 -256c-24 -151 -19 -187 77 -187c51 0 88 10 115 27z
" />
    <glyph glyph-name="wcircumflex.sc" horiz-adv-x="826" 
d="M648 663l-73 -71l-105 93l-131 -93l-53 71l203 136zM536 -30l-125 331l-230 -329l-148 566h136l68 -313l216 336l108 -335l167 312h132z" />
    <glyph glyph-name="eogonek.sc" horiz-adv-x="484" 
d="M352 -115l-13 -78c-45 -24 -88 -34 -124 -34c-69 0 -102 37 -102 85c0 46 30 99 98 143h-184l85 536h343l-18 -110h-220l-15 -98l177 1l-17 -110l-177 1l-18 -110h241l-17 -110h-91c-67 -53 -82 -93 -82 -116c0 -19 16 -25 37 -25c34 0 79 14 97 25z" />
    <glyph glyph-name="uni1E1F.sc" horiz-adv-x="448" 
d="M150 0h-123l85 537h336l-17 -110h-213l-17 -107l173 1l-17 -109l-173 1zM370 684c0 -43 -39 -81 -85 -81c-34 0 -61 29 -61 63c0 44 43 82 83 82c38 0 63 -28 63 -64z" />
    <glyph glyph-name="gcircumflex.sc" horiz-adv-x="649" 
d="M536 663l-73 -71l-104 93l-132 -93l-52 71l203 136zM469 202l-130 -1l17 105h259c-41 -245 -182 -321 -319 -321c-157 0 -261 101 -261 250c0 182 155 316 342 316c129 0 197 -63 200 -69l-74 -91c-3 6 -40 52 -129 52c-118 0 -211 -81 -211 -193c0 -84 52 -156 152 -156
c88 0 143 56 154 108z" />
    <glyph glyph-name="gbreve.sc" horiz-adv-x="649" 
d="M439 765h108c-17 -76 -86 -172 -204 -172c-85 0 -150 59 -141 172h112c-3 -14 -9 -83 42 -83c64 0 82 76 83 83zM469 202l-130 -1l17 105h259c-41 -245 -182 -321 -319 -321c-157 0 -261 101 -261 250c0 182 155 316 342 316c129 0 197 -63 200 -69l-74 -91
c-3 6 -40 52 -129 52c-118 0 -211 -81 -211 -193c0 -84 52 -156 152 -156c88 0 143 56 154 108z" />
    <glyph glyph-name="gcommaaccent.sc" horiz-adv-x="649" 
d="M241 -254h-102l103 205h140zM469 202l-130 -1l17 105h259c-41 -245 -182 -321 -319 -321c-157 0 -261 101 -261 250c0 182 155 316 342 316c129 0 197 -63 200 -69l-74 -91c-3 6 -40 52 -129 52c-118 0 -211 -81 -211 -193c0 -84 52 -156 152 -156c88 0 143 56 154 108z
" />
    <glyph glyph-name="gdotaccent.sc" horiz-adv-x="649" 
d="M432 684c0 -43 -38 -81 -84 -81c-35 0 -61 29 -61 63c0 44 42 82 84 82c37 0 61 -28 61 -64zM469 202l-130 -1l17 105h259c-41 -245 -182 -321 -319 -321c-157 0 -261 101 -261 250c0 182 155 316 342 316c129 0 197 -63 200 -69l-74 -91c-3 6 -40 52 -129 52
c-118 0 -211 -81 -211 -193c0 -84 52 -156 152 -156c88 0 143 56 154 108z" />
    <glyph glyph-name="wgrave.sc" horiz-adv-x="826" 
d="M589 648l-74 -45l-161 163l101 68zM536 -30l-125 331l-230 -329l-148 566h136l68 -313l216 336l108 -335l167 312h132z" />
    <glyph glyph-name="wacute.sc" horiz-adv-x="826" 
d="M612 766l-212 -163l-69 50l194 186zM536 -30l-125 331l-230 -329l-148 566h136l68 -313l216 336l108 -335l167 312h132z" />
    <glyph glyph-name="wdieresis.sc" horiz-adv-x="826" 
d="M422 674c0 -39 -37 -72 -81 -72c-33 0 -57 25 -57 56c0 41 38 73 78 73c36 0 60 -24 60 -57zM652 675c0 -39 -34 -73 -80 -73c-34 0 -58 25 -58 56c0 40 37 73 79 73c37 0 59 -24 59 -56zM536 -30l-125 331l-230 -329l-148 566h136l68 -313l216 336l108 -335l167 312h132
z" />
    <glyph glyph-name="ygrave.sc" horiz-adv-x="533" 
d="M402 647l-74 -44l-160 163l101 67zM277 0h-123l34 217l-162 321h151l87 -216l159 216h152l-264 -321z" />
    <glyph glyph-name="ycircumflex.sc" horiz-adv-x="533" 
d="M501 663l-73 -71l-105 93l-131 -93l-53 71l203 136zM277 0h-123l34 217l-162 321h151l87 -216l159 216h152l-264 -321z" />
    <glyph glyph-name="yacute.sc" horiz-adv-x="533" 
d="M513 766l-212 -163l-68 50l193 186zM277 0h-123l34 217l-162 321h151l87 -216l159 216h152l-264 -321z" />
    <glyph glyph-name="ydieresis.sc" horiz-adv-x="533" 
d="M278 674c0 -39 -38 -72 -82 -72c-33 0 -58 25 -58 57c0 40 39 72 79 72c36 0 61 -24 61 -57zM501 675c0 -39 -33 -73 -81 -73c-35 0 -59 25 -59 56c0 40 37 73 80 73c38 0 60 -24 60 -56zM277 0h-123l34 217l-162 321h151l87 -216l159 216h152l-264 -321z" />
    <glyph glyph-name="zcaron.sc" horiz-adv-x="579" 
d="M541 734l-201 -136l-161 136l75 71l103 -93l133 93zM487 1h-524l363 426h-220l18 110h451l-364 -426h293z" />
    <glyph glyph-name="zacute.sc" horiz-adv-x="579" 
d="M528 766l-213 -163l-68 50l193 186zM487 1h-524l363 426h-220l18 110h451l-364 -426h293z" />
    <glyph glyph-name="zdotaccent.sc" horiz-adv-x="579" 
d="M420 684c0 -43 -40 -81 -86 -81c-33 0 -60 29 -60 63c0 44 43 82 83 82c38 0 63 -28 63 -64zM487 1h-524l363 426h-220l18 110h451l-364 -426h293z" />
    <glyph glyph-name="ae.sc" horiz-adv-x="780" 
d="M685 1h-364l13 82h-181l-64 -83h-145l428 537h377l-17 -110h-220l-16 -98l177 1l-17 -110l-177 1l-17 -110h241zM350 186l31 191l-148 -191h117z" />
    <glyph glyph-name="aeacute.sc" horiz-adv-x="780" 
d="M765 766l-212 -163l-69 50l194 186zM685 1h-364l13 82h-181l-64 -83h-145l428 537h377l-17 -110h-220l-16 -98l177 1l-17 -110l-177 1l-17 -110h241zM350 186l31 191l-148 -191h117z" />
    <glyph glyph-name="ij.sc" horiz-adv-x="550" 
d="M150 0h-123l85 538h123zM199 -181l-28 103c102 27 127 52 144 160l72 456h124l-73 -459c-24 -152 -76 -203 -239 -260z" />
    <glyph glyph-name="eng.sc" horiz-adv-x="657" 
d="M306 -181l-27 103c100 27 126 52 142 154l-227 229l-46 -305h-123l90 554l330 -326l49 310h124l-73 -459c-24 -152 -76 -203 -239 -260z" />
    <glyph glyph-name="oe.sc" horiz-adv-x="904" 
d="M810 1h-364l6 42c-54 -44 -113 -57 -165 -57c-154 0 -252 112 -252 251c0 178 161 315 333 315c59 0 113 -16 155 -65l8 50h342l-18 -110h-219l-15 -98l177 1l-17 -110l-177 1l-18 -110h241zM297 96c102 0 193 87 193 199c0 81 -47 147 -136 147
c-102 0 -191 -88 -191 -199c0 -78 44 -147 134 -147z" />
    <glyph glyph-name="ff.sc" horiz-adv-x="896" 
d="M150 0h-123l85 537h336l-17 -110h-213l-17 -107l173 1l-17 -109l-173 1zM598 0h-123l85 537h336l-17 -110h-213l-17 -107l173 1l-17 -109l-173 1z" />
    <glyph glyph-name="fi.sc" horiz-adv-x="723" 
d="M150 0h-123l85 537h336l-17 -110h-213l-17 -107l173 1l-17 -109l-173 1zM598 0h-123l85 538h123z" />
    <glyph glyph-name="f_j.sc" horiz-adv-x="723" 
d="M150 0h-123l85 537h336l-17 -110h-213l-17 -107l173 1l-17 -109l-173 1zM372 -181l-28 103c102 27 127 52 144 160l72 456h124l-73 -459c-24 -152 -76 -203 -239 -260z" />
    <glyph glyph-name="fl.sc" horiz-adv-x="895" 
d="M150 0h-123l85 537h336l-17 -110h-213l-17 -107l173 1l-17 -109l-173 1zM825 1h-350l85 537h123l-68 -427h227z" />
    <glyph glyph-name="f_t.sc" horiz-adv-x="945" 
d="M150 0h-123l85 537h336l-17 -110h-213l-17 -107l173 1l-17 -109l-173 1zM709 0h-122l68 427h-165l17 110h451l-17 -110h-164z" />
    <glyph glyph-name="ffi.sc" horiz-adv-x="1171" 
d="M150 0h-123l85 537h336l-17 -110h-213l-17 -107l173 1l-17 -109l-173 1zM598 0h-123l85 537h336l-17 -110h-213l-17 -107l173 1l-17 -109l-173 1zM1046 0h-123l85 538h123z" />
    <glyph glyph-name="ffl.sc" horiz-adv-x="1343" 
d="M150 0h-123l85 537h336l-17 -110h-213l-17 -107l173 1l-17 -109l-173 1zM598 0h-123l85 537h336l-17 -110h-213l-17 -107l173 1l-17 -109l-173 1zM1273 1h-350l85 537h123l-68 -427h227z" />
    <glyph glyph-name="zero_slash" horiz-adv-x="667" 
d="M290 -16c-183 0 -224 145 -224 295c0 246 110 484 334 484c178 0 223 -149 223 -281c0 -118 -36 -498 -333 -498zM193 177l253 472c-16 11 -34 17 -58 17c-129 0 -202 -180 -202 -387c0 -34 2 -79 7 -102zM497 565l-252 -468c14 -10 31 -15 52 -15c136 0 204 193 204 396
c0 25 -1 68 -4 87z" />
    <glyph glyph-name="emacron.sc" horiz-adv-x="486" 
d="M392 1h-365l85 536h343l-18 -110h-220l-15 -98c59 0 119 1 177 1l-17 -110c-58 0 -118 1 -177 1l-18 -110h242zM482 620h-372l16 99h372z" />
    <glyph glyph-name="edotaccent.sc" horiz-adv-x="485" 
d="M391 1h-364l85 536h343l-18 -110h-220l-15 -98c59 0 118 1 177 1l-17 -110c-59 0 -118 1 -177 1l-18 -110h241zM382 684c0 -43 -38 -81 -85 -81c-34 0 -61 29 -61 63c0 44 42 82 84 82c38 0 62 -28 62 -64z" />
    <glyph glyph-name="ecaron.sc" horiz-adv-x="486" 
d="M392 1h-365l85 536h343l-18 -110h-220l-15 -98c59 0 119 1 177 1l-17 -110c-58 0 -118 1 -177 1l-18 -110h242zM495 734l-201 -136l-161 136l75 71l103 -93l133 93z" />
    <glyph glyph-name="egrave.sc" horiz-adv-x="485" 
d="M394 647l-79 -45l-161 163l107 68zM391 1h-364l85 536h343l-18 -110h-220l-15 -98l177 1l-17 -110l-177 1l-18 -110h241z" />
    <glyph glyph-name="uni1E6B.alt" horiz-adv-x="367" 
d="M312 814c0 -43 -40 -81 -85 -81c-35 0 -61 29 -61 63c0 44 43 82 84 82c37 0 62 -28 62 -64zM296 78l-61 -91c-118 0 -178 35 -155 179l38 242h-84l15 96h84l28 173h118l-28 -173h124l-15 -96h-124l-36 -227c-16 -98 1 -101 96 -103z" />
    <glyph glyph-name="uhungarumlaut" unicode="&#x171;" 
d="M395 713l-233 -131l-38 57l213 164zM626 713l-234 -131l-37 57l213 164zM348 110l62 395h118l-71 -450c-65 -50 -138 -70 -227 -70c-128 0 -208 65 -187 196l51 324h118l-47 -295c-18 -110 34 -127 93 -127c43 0 74 16 90 27z" />
    <glyph glyph-name="uni1E6B.alt2" horiz-adv-x="383" 
d="M343 814c0 -43 -40 -81 -86 -81c-34 0 -60 29 -60 63c0 44 43 82 83 82c38 0 63 -28 63 -64zM201 0h-118l65 408h-118l15 96h118l28 173h118l-28 -173h119l-15 -96h-119z" />
    <glyph glyph-name="umacron" unicode="&#x16b;" 
d="M528 600h-412l16 99h412zM348 110l62 395h118l-71 -450c-65 -50 -138 -70 -227 -70c-128 0 -208 65 -187 196l51 324h118l-47 -295c-18 -110 34 -127 93 -127c43 0 74 16 90 27z" />
    <glyph glyph-name="uring" unicode="&#x16f;" 
d="M470 719c0 -73 -67 -136 -140 -136c-61 0 -103 46 -103 105c0 76 68 137 142 137c59 0 101 -48 101 -106zM341 652c27 0 57 28 57 59c0 25 -17 46 -40 46c-29 0 -55 -29 -55 -60c0 -25 15 -45 38 -45zM348 110l62 395h118l-71 -450c-65 -50 -138 -70 -227 -70
c-128 0 -208 65 -187 196l51 324h118l-47 -295c-18 -110 34 -127 93 -127c43 0 74 16 90 27z" />
    <glyph glyph-name="utilde" unicode="&#x169;" 
d="M499 740l38 -79c-35 -28 -96 -78 -150 -78c-58 0 -80 49 -122 49c-31 0 -60 -28 -93 -50l-46 73c31 25 107 78 158 78c50 0 75 -51 114 -51c36 0 82 40 101 58zM348 110l62 395h118l-71 -450c-65 -50 -138 -70 -227 -70c-128 0 -208 65 -187 196l51 324h118l-47 -295
c-18 -110 34 -127 93 -127c43 0 74 16 90 27z" />
    <glyph glyph-name="ubreve" unicode="&#x16d;" 
d="M412 755h108c-17 -76 -86 -172 -204 -172c-85 0 -150 59 -141 172h112c-3 -14 -8 -83 43 -83c64 0 81 76 82 83zM348 110l62 395h118l-71 -450c-65 -50 -138 -70 -227 -70c-128 0 -208 65 -187 196l51 324h118l-47 -295c-18 -110 34 -127 93 -127c43 0 74 16 90 27z" />
    <glyph glyph-name="wcircumflex" unicode="&#x175;" horiz-adv-x="739" 
d="M603 643l-73 -71l-105 93l-131 -93l-52 71l202 136zM487 -23h-48l-78 277l-167 -277h-47l-115 528h125l57 -268s5 -29 4 -38c2 10 14 33 18 40l153 250h21l73 -252c3 -9 5 -28 4 -37c3 12 10 25 17 38l142 267h124z" />
    <glyph glyph-name="wgrave" unicode="&#x1e81;" horiz-adv-x="739" 
d="M499 628l-76 -45l-161 163l102 68zM487 -23h-48l-78 277l-167 -277h-47l-115 528h125l57 -268s5 -29 4 -38c2 10 14 33 18 40l153 250h21l73 -252c3 -9 5 -28 4 -37c3 12 10 25 17 38l142 267h124z" />
    <glyph glyph-name="wacute" unicode="&#x1e83;" horiz-adv-x="739" 
d="M602 746l-213 -163l-69 50l195 186zM487 -23h-48l-78 277l-167 -277h-47l-115 528h125l57 -268s5 -29 4 -38c2 10 14 33 18 40l153 250h21l73 -252c3 -9 5 -28 4 -37c3 12 10 25 17 38l142 267h124z" />
    <glyph glyph-name="wdieresis" unicode="&#x1e85;" horiz-adv-x="739" 
d="M378 654c0 -39 -38 -72 -82 -72c-33 0 -57 25 -57 56c0 41 38 73 78 73c36 0 61 -24 61 -57zM607 656c0 -40 -32 -74 -80 -74c-34 0 -57 25 -57 56c0 40 36 73 78 73c38 0 59 -24 59 -55zM487 -23h-48l-78 277l-167 -277h-47l-115 528h125l57 -268s5 -29 4 -38
c2 10 14 33 18 40l153 250h21l73 -252c3 -9 5 -28 4 -37c3 12 10 25 17 38l142 267h124z" />
    <glyph glyph-name="ygrave" unicode="&#x1ef3;" horiz-adv-x="541" 
d="M406 628l-76 -45l-161 163l101 68zM74 -256h-134l218 334l-129 427h131l85 -306l194 306h136z" />
    <glyph glyph-name="ycircumflex" unicode="&#x177;" horiz-adv-x="541" 
d="M504 643l-73 -71l-104 93l-132 -93l-52 71l203 135zM74 -256h-134l218 334l-129 427h131l85 -306l194 306h136z" />
    <glyph glyph-name="uni1E6B.semp" horiz-adv-x="326" 
d="M275 814c0 -43 -38 -81 -84 -81c-34 0 -60 29 -60 63c0 44 43 82 83 82c38 0 61 -28 61 -64zM135 0h-118l107 675h118l-27 -171h126l-15 -96h-126z" />
    <glyph glyph-name="zacute" unicode="&#x17a;" horiz-adv-x="503" 
d="M488 746l-213 -163l-70 50l196 186zM419 1h-458l327 407h-212l16 96h412l-320 -407h250z" />
    <glyph glyph-name="tbar" unicode="&#x167;" horiz-adv-x="365" 
d="M182 0h-118l37 232h-59l13 84h59l15 92h-87l15 96h87l28 173h118l-28 -173h118l-15 -96h-118l-15 -92h91l-13 -84h-91z" />
    <glyph glyph-name="tbar.alt" horiz-adv-x="367" 
d="M296 78l-61 -91c-118 0 -177 35 -155 179l10 66h-59l13 84h59l15 92h-84l15 96h84l27 173h118l-27 -173h124l-15 -96h-124l-15 -92h92l-13 -84h-92l-8 -51c-15 -98 1 -101 96 -103z" />
    <glyph glyph-name="zdotaccent" unicode="&#x17c;" horiz-adv-x="503" 
d="M370 664c0 -43 -39 -81 -84 -81c-35 0 -61 29 -61 63c0 44 43 82 84 82c37 0 61 -28 61 -64zM419 1h-458l327 407h-212l16 96h412l-320 -407h250z" />
    <glyph glyph-name="aeacute" unicode="&#x1fd;" horiz-adv-x="875" 
d="M691 746l-213 -163l-70 50l196 186zM758 136l22 -84c-29 -24 -111 -67 -214 -67c-67 0 -121 19 -161 52c-47 -29 -124 -52 -200 -52c-144 0 -201 80 -201 158c0 95 76 186 215 186c49 0 107 -13 134 -45l9 59c7 48 -9 78 -91 78c-62 0 -110 -18 -139 -29l-22 86
c46 21 109 41 190 41c84 0 126 -15 156 -74c40 50 111 74 178 74c158 0 220 -122 197 -262l-8 -49h-368c-1 -7 -2 -14 -2 -21c0 -63 40 -104 146 -104c77 0 129 33 159 53zM347 119c-4 17 -7 34 -7 54c0 6 0 13 1 20c-14 20 -60 44 -107 44c-66 0 -107 -45 -107 -87
c0 -36 28 -71 92 -71c37 0 90 12 128 40zM470 303h244c9 66 -23 123 -96 123c-64 0 -128 -44 -148 -123z" />
    <glyph glyph-name="ff.semp2" horiz-adv-x="647" 
d="M521 408l-65 -408h-116l99 623c9 59 32 116 69 154c43 43 103 60 157 60c72 0 119 -30 126 -36l-60 -91c-10 8 -37 27 -76 27c-55 0 -89 -42 -100 -112l-19 -121h119l-15 -96h-119zM199 408l-65 -408h-117l92 576c9 59 31 116 68 154c43 43 104 60 158 60
c72 0 119 -30 126 -36l-61 -91c-9 8 -35 27 -74 27c-56 0 -89 -42 -100 -112l-12 -74h118l-15 -96h-118z" />
    <glyph glyph-name="ff.alt" horiz-adv-x="733" 
d="M139 -230h-116l101 638h-82l15 96h83l11 72c9 59 31 116 68 154c43 43 105 60 158 60c71 0 119 -30 126 -36l-61 -91c-9 8 -36 27 -75 27c-55 0 -89 -42 -100 -112l-12 -74h122l-15 -96h-122zM521 -121h-117l84 529h-82l15 96h82l19 119c9 59 33 116 70 154
c43 43 103 60 156 60c72 0 120 -30 126 -36l-59 -91c-11 8 -38 27 -76 27c-56 0 -89 -42 -100 -112l-19 -121h121l-15 -96h-121z" />
    <glyph glyph-name="ff.semp" horiz-adv-x="647" 
d="M98 -230h-117l128 806c9 59 31 116 68 154c43 43 104 60 158 60c72 0 119 -30 126 -36l-61 -91c-9 8 -35 27 -74 27c-56 0 -89 -42 -100 -112l-12 -74h118l-15 -96h-118zM437 -121h-116l118 744c9 59 32 116 69 154c43 43 103 60 157 60c72 0 119 -30 126 -36l-60 -91
c-10 8 -37 27 -76 27c-55 0 -89 -42 -100 -112l-19 -121h119l-15 -96h-119z" />
    <glyph glyph-name="fi.semp2" horiz-adv-x="578" 
d="M199 408l-65 -408h-117l98 617c23 144 117 214 226 214c47 0 82 -15 105 -26l-59 -89c-14 8 -33 15 -55 15c-56 0 -89 -42 -100 -112l-18 -115h119l-15 -96h-119zM461 0h-118l80 505h118zM494 572c-38 0 -64 26 -64 64c0 51 40 88 88 88c41 0 64 -27 64 -64
c0 -51 -39 -88 -88 -88z" />
    <glyph glyph-name="fi.alt" horiz-adv-x="621" 
d="M139 -230h-117l101 638h-81l15 96h81l18 113c23 144 117 214 227 214c46 0 83 -15 106 -26l-60 -89c-15 8 -33 15 -55 15c-57 0 -90 -41 -101 -112l-18 -115h121l-15 -96h-121zM504 0h-118l80 505h118zM537 572c-38 0 -63 26 -63 64c0 51 39 88 88 88c40 0 63 -27 63 -64
c0 -51 -39 -88 -88 -88z" />
    <glyph glyph-name="fi.semp" horiz-adv-x="578" 
d="M95 -246h-117l137 863c23 144 117 214 226 214c47 0 82 -15 105 -26l-59 -89c-14 8 -33 15 -55 15c-56 0 -89 -42 -100 -112l-18 -115h119l-15 -96h-119zM461 0h-118l80 505h118zM494 572c-38 0 -64 26 -64 64c0 51 40 88 88 88c41 0 64 -27 64 -64
c0 -51 -39 -88 -88 -88z" />
    <glyph glyph-name="f_j" horiz-adv-x="621" 
d="M175 0h-117l65 408h-81l15 96h81l18 113c23 144 115 214 226 214c47 0 84 -15 107 -26l-60 -89c-15 8 -34 15 -55 15c-57 0 -90 -41 -101 -112l-18 -115h121l-15 -96h-121zM537 572c-38 0 -63 26 -63 65c0 50 40 87 88 87c40 0 63 -27 63 -64c0 -51 -40 -88 -88 -88z
M280 -268l-31 89c112 33 117 50 143 217l74 467h118l-74 -469c-29 -183 -59 -254 -230 -304z" />
    <glyph glyph-name="tbar.alt2" horiz-adv-x="385" 
d="M202 0h-118l37 232h-87l13 84h87l15 92h-118l15 96h118l28 173h118l-28 -173h119l-15 -96h-119l-15 -92h92l-13 -84h-92z" />
    <glyph glyph-name="f_j.semp" horiz-adv-x="576" 
d="M96 -244h-117l136 861c23 144 117 214 226 214c47 0 83 -15 106 -26l-59 -89c-15 8 -34 15 -56 15c-56 0 -88 -42 -99 -112l-18 -115h118l-15 -96h-119zM540 505l-118 -746l-121 -26l122 772h117zM493 572c-38 0 -63 26 -63 64c0 51 39 88 87 88c41 0 64 -27 64 -64
c0 -51 -39 -88 -88 -88z" />
    <glyph glyph-name="tbar.semp" horiz-adv-x="356" 
d="M165 0h-118l37 232h-83l13 84h83l57 359h118l-27 -171h126l-15 -96h-126l-15 -92h91l-13 -84h-91z" />
    <glyph glyph-name="fl.semp2" horiz-adv-x="576" 
d="M199 408l-65 -408h-116l95 602c9 59 32 116 69 154c43 43 103 60 157 60c39 0 70 -10 93 -19l-45 -96c-13 8 -33 15 -57 15c-56 0 -89 -42 -100 -112l-16 -100h121l-16 -96h-120zM459 0h-118l130 820h118z" />
    <glyph glyph-name="fl.alt" horiz-adv-x="619" 
d="M139 -230h-117l101 638h-81l15 96h81l16 98c9 59 32 116 69 154c43 43 105 60 157 60c40 0 70 -10 93 -19l-45 -96c-12 8 -33 15 -56 15c-57 0 -90 -41 -101 -112l-16 -100h121l-15 -96h-121zM502 0h-118l130 820h118z" />
    <glyph glyph-name="fl.semp" horiz-adv-x="576" 
d="M96 -245h-117l134 847c9 59 32 116 69 154c43 43 103 60 157 60c39 0 70 -10 93 -19l-45 -96c-13 8 -33 15 -57 15c-56 0 -89 -42 -100 -112l-16 -100h121l-16 -96h-120zM459 0h-118l130 820h118z" />
    <glyph glyph-name="f_t" horiz-adv-x="662" 
d="M480 0h-118l65 408h-187l-65 -408h-117l65 408h-81l15 96h81l18 113c23 144 120 214 227 214c46 0 83 -15 106 -26l-60 -89c-15 8 -33 15 -55 15c-57 0 -90 -41 -101 -112l-18 -115h187l28 173h118l-28 -173h118l-15 -96h-118z" />
    <glyph glyph-name="f_t.semp" horiz-adv-x="648" 
d="M95 -245h-117l137 862c9 59 31 116 68 154c43 43 103 60 157 60c47 0 83 -15 106 -26l-59 -89c-15 8 -33 15 -55 15c-56 0 -89 -42 -100 -112l-18 -115h119l-16 -96h-119zM457 0h-118l107 677h118l-27 -173h126l-16 -96h-126z" />
    <glyph glyph-name="ffi.semp2" horiz-adv-x="901" 
d="M522 408l-65 -408h-116l99 622c23 144 116 214 226 214c49 0 86 -15 108 -26l-59 -89c-13 8 -34 15 -59 15c-55 0 -89 -42 -100 -112l-19 -120h119l-15 -96h-119zM199 408l-65 -408h-117l92 576c23 144 117 214 226 214c72 0 119 -30 126 -36l-61 -91c-9 8 -35 27 -74 27
c-56 0 -89 -42 -100 -112l-12 -74h118l-15 -96h-118zM783 0h-118l80 505h118zM905 660c0 -51 -40 -88 -89 -88c-37 0 -62 26 -62 64c0 51 39 88 86 88c41 0 65 -27 65 -64z" />
    <glyph glyph-name="ffi.alt" horiz-adv-x="986" 
d="M139 -230h-116l101 638h-82l15 96h83l11 72c9 59 31 116 68 154c43 43 105 60 158 60c71 0 119 -30 126 -36l-61 -91c-9 8 -36 27 -75 27c-55 0 -89 -42 -100 -112l-12 -74h122l-15 -96h-122zM521 -121h-117l84 529h-82l15 96h82l19 118c9 59 32 116 69 154
c43 43 104 60 157 60c48 0 85 -15 108 -26l-60 -89c-13 8 -33 15 -56 15c-57 0 -90 -41 -101 -112l-19 -120h121l-15 -96h-121zM869 0h-118l80 505h118zM902 572c-37 0 -63 26 -63 65c0 50 40 87 88 87c39 0 63 -27 63 -64c0 -51 -39 -88 -88 -88z" />
    <glyph glyph-name="ffi.semp" horiz-adv-x="901" 
d="M98 -230h-117l128 806c23 144 117 214 226 214c72 0 119 -30 126 -36l-61 -91c-9 8 -35 27 -74 27c-56 0 -89 -42 -100 -112l-12 -74h118l-15 -96h-118zM438 -121h-116l118 743c23 144 116 214 226 214c49 0 86 -15 108 -26l-59 -89c-13 8 -34 15 -59 15
c-55 0 -89 -42 -100 -112l-19 -120h119l-15 -96h-119zM783 0h-118l80 505h118zM905 660c0 -51 -40 -88 -89 -88c-37 0 -62 26 -62 64c0 51 39 88 86 88c41 0 65 -27 65 -64z" />
    <glyph glyph-name="ffl.semp2" horiz-adv-x="898" 
d="M521 408l-65 -408h-115l96 607c9 59 31 116 68 154c43 43 103 60 157 60c39 0 71 -10 92 -19l-44 -96c-13 8 -32 15 -57 15c-55 0 -89 -42 -100 -112l-17 -105h121l-15 -96h-121zM199 408l-65 -408h-117l91 571c9 59 31 116 68 154c43 43 104 60 158 60
c72 0 119 -30 126 -36l-60 -91c-10 8 -36 27 -75 27c-56 0 -89 -42 -100 -112l-11 -69h118l-15 -96h-118zM781 0h-118l130 820h118z" />
    <glyph glyph-name="ffl.alt" horiz-adv-x="984" 
d="M139 -230h-116l101 638h-82l15 96h82l11 67c10 59 31 116 68 154c43 43 105 60 158 60c71 0 119 -30 126 -36l-60 -91c-10 8 -37 27 -76 27c-55 0 -89 -42 -100 -112l-11 -69h122l-15 -96h-122zM521 -121h-117l84 529h-82l15 96h83l16 103c9 59 32 116 69 154
c43 43 104 60 156 60c39 0 70 -10 92 -19l-43 -96c-14 8 -33 15 -56 15c-57 0 -90 -41 -101 -112l-17 -105h122l-15 -96h-122zM867 0h-118l130 820h118z" />
    <glyph glyph-name="uogonek" unicode="&#x173;" 
d="M406 -126l-12 -78c-45 -24 -88 -34 -123 -34c-67 0 -99 37 -99 85c0 44 28 94 90 139c-10 -1 -21 -1 -32 -1c-128 0 -208 65 -187 196l51 324h118l-47 -295c-18 -111 34 -127 93 -127c43 0 74 16 90 27l62 395h118l-71 -450c-24 -20 -49 -34 -73 -45
c-89 -62 -110 -108 -110 -137c0 -18 16 -24 36 -24c34 0 79 14 96 25z" />
    <glyph glyph-name="ffl.semp" horiz-adv-x="898" 
d="M98 -230h-117l127 801c9 59 31 116 68 154c43 43 104 60 158 60c72 0 119 -30 126 -36l-60 -91c-10 8 -36 27 -75 27c-56 0 -89 -42 -100 -112l-11 -69h118l-15 -96h-118zM437 -122h-115l115 729c9 59 31 116 68 154c43 43 103 60 157 60c39 0 71 -10 92 -19l-44 -96
c-13 8 -32 15 -57 15c-55 0 -89 -42 -100 -112l-17 -105h121l-15 -96h-121zM781 0h-118l130 820h118z" />
    <glyph glyph-name="ij" unicode="&#x133;" horiz-adv-x="517" 
d="M139 0h-118l80 505h118zM174 592c-38 0 -63 26 -63 64c0 51 39 88 87 88c40 0 64 -27 64 -64c0 -51 -40 -88 -88 -88zM173 -268l-31 89c112 33 117 50 143 217l74 467h118l-74 -469c-29 -183 -59 -254 -230 -304zM433 592c-37 0 -64 26 -64 65c0 51 42 87 88 87
c41 0 64 -27 64 -64c0 -51 -40 -88 -88 -88z" />
    <glyph glyph-name="ij.semp" horiz-adv-x="515" 
d="M139 0h-118l80 505h118zM174 592c-38 0 -63 26 -63 64c0 51 39 88 87 88c40 0 64 -27 64 -64c0 -51 -40 -88 -88 -88zM358 -241l-121 -26l122 772h117zM432 592c-39 0 -64 26 -64 64c0 51 39 88 88 88c41 0 64 -27 64 -64c0 -51 -39 -88 -88 -88z" />
    <glyph glyph-name="eng" unicode="&#x14b;" 
d="M226 -268l-31 89c112 33 116 50 143 217l38 237c13 81 9 140 -61 140c-56 0 -104 -37 -123 -58l-57 -357h-118l80 505h118l-8 -52c35 28 89 66 169 66c95 0 147 -53 127 -182l-47 -301c-28 -178 -58 -254 -230 -304z" />
    <glyph glyph-name="eng.alt" 
d="M226 -268l-31 89c111 33 116 50 143 217l41 256c16 100 -26 126 -91 126c-48 0 -77 -14 -91 -25l-63 -395h-118l73 462c61 30 137 57 221 57c132 0 212 -66 191 -197l-45 -286c-29 -183 -60 -254 -230 -304z" />
    <glyph glyph-name="germandbls.alt" horiz-adv-x="576" 
d="M175 19l39 101c22 -15 51 -33 91 -33c49 0 98 28 98 93c0 96 -147 82 -147 218c0 146 152 180 152 277c0 31 -19 55 -61 55c-60 0 -103 -47 -114 -117l-97 -613h-118l96 612c22 141 109 214 238 214c120 0 162 -62 162 -128c0 -149 -148 -189 -148 -274
c0 -72 160 -100 160 -232c0 -121 -86 -206 -226 -206c-60 0 -98 17 -125 33z" />
    <glyph glyph-name="germandbls.semp" horiz-adv-x="564" 
d="M170 -242l16 97c112 11 174 116 174 196c0 55 -30 101 -94 101c-24 0 -48 -6 -73 -17l177 273h-175l-103 -653h-117l134 848c26 160 138 214 226 214c72 0 119 -30 127 -36l-61 -91c-10 8 -36 27 -75 27c-56 0 -88 -42 -99 -112l-16 -101h343l-199 -291c9 2 16 3 25 3
c68 0 105 -66 105 -146c0 -126 -96 -283 -315 -312z" />
    <glyph glyph-name="a.sc" horiz-adv-x="581" 
d="M539 0h-133l-26 83h-247l-52 -83h-133l385 564zM347 186l-49 156l-99 -156h148z" />
    <glyph glyph-name="a.sc.semp" horiz-adv-x="581" 
d="M539 0h-133l-21 67h-262l-42 -67h-133l385 564zM352 170l-54 172l-110 -172h164z" />
    <glyph glyph-name="b.sc" horiz-adv-x="527" 
d="M205 0h-178l85 538h144c110 0 202 -29 202 -119c0 -74 -63 -111 -94 -124c43 -15 98 -46 98 -125c0 -99 -88 -170 -257 -170zM201 321h42c65 0 83 30 83 63c0 38 -24 50 -74 50h-33zM166 104h81c55 0 85 31 85 69c0 35 -26 55 -74 55h-72z" />
    <glyph glyph-name="c.sc" horiz-adv-x="594" 
d="M477 150l43 -87c-44 -36 -115 -77 -216 -77c-165 0 -268 109 -268 253c0 174 151 313 343 313c139 0 201 -72 200 -81l-77 -84c-33 36 -79 55 -135 55c-124 0 -205 -92 -205 -195c0 -88 58 -151 158 -151c73 0 134 34 157 54z" />
    <glyph glyph-name="d.sc" horiz-adv-x="605" 
d="M196 0h-169l85 538h156c177 0 286 -74 286 -236c0 -182 -136 -302 -358 -302zM168 111h59c107 0 194 57 194 178c0 90 -49 138 -127 138h-76z" />
    <glyph glyph-name="e.sc" horiz-adv-x="485" 
d="M391 1h-364l85 536h343l-18 -110h-220l-15 -98l177 1l-17 -110l-177 1l-18 -110h241z" />
    <glyph glyph-name="f.sc" horiz-adv-x="448" 
d="M150 0h-123l85 537h336l-17 -110h-213l-17 -107l173 1l-17 -109l-173 1z" />
    <glyph glyph-name="h.sc" horiz-adv-x="626" 
d="M501 0h-123l35 220h-228l-35 -220h-123l85 538h123l-33 -208h228l33 208h123z" />
    <glyph glyph-name="j.sc" horiz-adv-x="275" 
d="M-76 -181l-28 103c102 27 127 52 144 160l72 456h124l-73 -459c-24 -152 -76 -203 -239 -260z" />
    <glyph glyph-name="j.sc.semp" horiz-adv-x="414" 
d="M212 207l35 220h-152l18 111h274l-62 -390c-20 -124 -114 -162 -205 -162c-62 0 -117 18 -152 41l55 103c21 -16 57 -38 96 -38c50 0 80 35 93 115z" />
    <glyph glyph-name="k.sc" horiz-adv-x="589" 
d="M546 0h-166l-196 208l-33 -208h-124l85 538h124l-31 -194l209 194h160l-305 -262z" />
    <glyph glyph-name="l.sc" horiz-adv-x="447" 
d="M377 1h-350l85 537h123l-68 -427h227z" />
    <glyph glyph-name="m.sc" horiz-adv-x="758" 
d="M662 0h-124l8 232c0 12 5 25 7 37c-3 -10 -12 -23 -24 -38l-204 -252l-125 251c-5 10 -8 19 -10 28c0 -8 -1 -17 -4 -27l-65 -231h-124l165 552l195 -368l313 368z" />
    <glyph glyph-name="n.sc" horiz-adv-x="656" 
d="M528 -20l-334 325l-46 -305h-123l90 554l334 -328l47 312h121z" />
    <glyph glyph-name="o.sc" horiz-adv-x="665" 
d="M618 306c0 -174 -155 -320 -331 -320c-154 0 -252 112 -252 252c0 180 164 314 332 314c149 0 251 -105 251 -246zM297 96c102 0 193 87 193 200c0 80 -46 146 -135 146c-103 0 -192 -88 -192 -199c0 -78 44 -147 134 -147z" />
    <glyph glyph-name="p.sc" horiz-adv-x="493" 
d="M150 0h-123l85 538h127c139 0 229 -40 229 -159c0 -117 -89 -211 -259 -211h-32zM194 278h32c70 0 109 37 109 92c0 29 -11 58 -81 58h-36z" />
    <glyph glyph-name="q.sc" horiz-adv-x="665" 
d="M593 2l-102 -87l-75 100c-40 -19 -91 -29 -134 -29c-145 0 -247 110 -247 252c0 178 162 314 331 314c150 0 252 -106 252 -249c0 -98 -48 -176 -108 -228zM297 96c102 0 193 87 193 200c0 81 -47 146 -135 146c-103 0 -192 -88 -192 -199c0 -78 44 -147 134 -147z" />
    <glyph glyph-name="r.sc" horiz-adv-x="547" 
d="M523 0h-156l-184 211l-33 -211h-123l85 538h127c134 0 230 -43 230 -149c0 -96 -79 -160 -158 -174zM194 278h31c76 0 111 48 111 98c0 32 -15 62 -78 62h-39z" />
    <glyph glyph-name="s.sc" horiz-adv-x="491" 
d="M457 485l-70 -84c-26 29 -61 49 -104 49c-44 0 -69 -20 -69 -49c0 -84 210 -67 210 -233c0 -110 -93 -182 -225 -182c-113 0 -180 52 -206 91l74 82c24 -29 72 -66 134 -66c46 0 88 21 88 61c0 91 -210 73 -210 236c0 114 104 161 210 161c92 0 141 -35 168 -66z" />
    <glyph glyph-name="t.sc" horiz-adv-x="497" 
d="M261 0h-122l68 427h-165l17 110h451l-17 -110h-164z" />
    <glyph glyph-name="u.sc" horiz-adv-x="608" 
d="M382 122l66 416h123l-75 -474c-56 -48 -139 -78 -241 -78c-156 0 -224 71 -201 214l54 338h123l-41 -256c-24 -151 -19 -187 77 -187c51 0 88 10 115 27z" />
    <glyph glyph-name="v.sc" horiz-adv-x="577" 
d="M233 -33l-205 571h137l104 -323c1 -4 2 -10 2 -18c2 8 5 14 8 18l200 323h138z" />
    <glyph glyph-name="w.sc" horiz-adv-x="826" 
d="M536 -30l-125 331l-230 -329l-148 566h136l68 -313l216 336l108 -335l167 312h132z" />
    <glyph glyph-name="x.sc" horiz-adv-x="611" 
d="M547 0h-158l-103 180l-164 -180h-158l264 280l-165 258h159l93 -162l152 162h158l-253 -265z" />
    <glyph glyph-name="y.sc" horiz-adv-x="533" 
d="M277 0h-123l34 217l-162 321h151l87 -216l159 216h152l-264 -321z" />
    <glyph glyph-name="z.sc" horiz-adv-x="579" 
d="M487 1h-524l363 426h-220l18 110h451l-364 -426h293z" />
    <glyph glyph-name="eth.sc" horiz-adv-x="623" 
d="M214 0h-169l35 220h-74l16 99h73l35 219h156c177 0 286 -74 286 -236c0 -182 -136 -302 -358 -302zM307 220h-104l-17 -109h59c107 0 194 57 194 178c0 90 -49 138 -127 138h-76l-17 -108h104z" />
    <glyph glyph-name="thorn.sc" horiz-adv-x="494" 
d="M150 0h-123l85 538h123l-13 -84h4c138 0 229 -39 229 -159c0 -118 -89 -211 -260 -211h-32zM181 194h32c70 0 109 37 109 93c0 28 -10 57 -77 57h-41z" />
    <glyph glyph-name="aacute.sc" horiz-adv-x="581" 
d="M521 765l-215 -163l-68 52l191 184zM539 0h-133l-26 83h-247l-52 -83h-133l385 564zM347 186l-49 156l-99 -156h148z" />
    <glyph glyph-name="aacute.sc.semp" horiz-adv-x="581" 
d="M491 765l-214 -163l-69 52l192 184zM539 0h-133l-21 67h-262l-42 -67h-133l385 564zM352 170l-54 172l-110 -172h164z" />
    <glyph glyph-name="acircumflex.sc" horiz-adv-x="581" 
d="M528 669l-73 -70l-106 83l-130 -83l-52 70l202 136zM539 0h-133l-26 83h-247l-52 -83h-133l385 564zM347 186l-49 156l-99 -156h148z" />
    <glyph glyph-name="acircumflex.sc.semp" horiz-adv-x="581" 
d="M531 669l-73 -70l-106 83l-130 -83l-53 70l203 136zM539 0h-133l-21 67h-262l-42 -67h-133l385 564zM352 170l-54 172l-110 -172h164z" />
    <glyph glyph-name="adieresis.sc" horiz-adv-x="581" 
d="M535 690c0 -39 -34 -73 -80 -73c-35 0 -58 25 -58 56c0 40 35 73 78 73c38 0 60 -24 60 -56zM305 689c0 -39 -38 -72 -81 -72c-33 0 -58 25 -58 56c0 41 39 73 78 73c36 0 61 -24 61 -57zM539 0h-133l-26 83h-247l-52 -83h-133l385 564zM347 186l-49 156l-99 -156h148z
" />
    <glyph glyph-name="adieresis.sc.semp" horiz-adv-x="581" 
d="M537 690c0 -39 -34 -73 -80 -73c-34 0 -58 25 -58 56c0 40 36 73 78 73c38 0 60 -24 60 -56zM307 689c0 -39 -38 -72 -81 -72c-33 0 -58 25 -58 56c0 41 39 73 78 73c36 0 61 -24 61 -57zM539 0h-133l-21 67h-262l-42 -67h-133l385 564zM352 170l-54 172l-110 -172h164z
" />
    <glyph glyph-name="agrave.sc" horiz-adv-x="581" 
d="M442 647l-79 -45l-161 163l107 68zM539 0h-133l-26 83h-247l-52 -83h-133l385 564zM347 186l-49 156l-99 -156h148z" />
    <glyph glyph-name="agrave.sc.semp" horiz-adv-x="581" 
d="M462 647l-80 -45l-161 163l107 68zM539 0h-133l-21 67h-262l-42 -67h-133l385 564zM352 170l-54 172l-110 -172h164z" />
    <glyph glyph-name="aring.sc" horiz-adv-x="581" 
d="M474 719c0 -73 -67 -136 -140 -136c-60 0 -102 46 -102 105c0 75 67 137 141 137c59 0 101 -48 101 -106zM345 652c27 0 57 28 57 59c0 25 -18 46 -40 46c-29 0 -55 -29 -55 -60c0 -25 15 -45 38 -45zM539 0h-133l-26 83h-247l-52 -83h-133l385 564zM347 186l-49 156
l-99 -156h148z" />
    <glyph glyph-name="aring.sc.semp" horiz-adv-x="581" 
d="M474 719c0 -73 -67 -136 -140 -136c-60 0 -102 46 -102 105c0 75 67 137 141 137c59 0 101 -48 101 -106zM345 652c27 0 57 28 57 59c0 25 -18 46 -40 46c-29 0 -55 -29 -55 -60c0 -25 15 -45 38 -45zM539 0h-133l-21 67h-262l-42 -67h-133l385 564zM352 170l-54 172
l-110 -172h164z" />
    <glyph glyph-name="atilde.sc" horiz-adv-x="581" 
d="M509 759l31 -62c-15 -19 -75 -89 -140 -89c-44 0 -68 40 -105 40c-36 0 -73 -34 -91 -51l-46 64c31 27 105 85 155 85c44 0 68 -42 105 -42c34 0 75 40 91 55zM539 0h-133l-26 83h-247l-52 -83h-133l385 564zM347 186l-49 156l-99 -156h148z" />
    <glyph glyph-name="atilde.sc.semp" horiz-adv-x="581" 
d="M505 759l31 -62c-14 -19 -74 -89 -140 -89c-43 0 -67 40 -105 40c-36 0 -72 -34 -90 -51l-47 64c32 27 105 85 156 85c44 0 68 -42 105 -42c33 0 75 40 90 55zM539 0h-133l-21 67h-262l-42 -67h-133l385 564zM352 170l-54 172l-110 -172h164z" />
    <glyph glyph-name="aogonek.sc" horiz-adv-x="582" 
d="M548 -115l-13 -78c-44 -24 -88 -34 -124 -34c-69 0 -102 37 -102 85c0 45 31 99 97 142l-26 83h-247l-52 -83h-133l385 564l208 -566c-110 -39 -128 -90 -128 -112c0 -20 15 -26 36 -26c37 0 81 14 99 25zM347 186l-49 156l-99 -156h148z" />
    <glyph glyph-name="aogonek.sc.semp" horiz-adv-x="581" 
d="M548 -115l-13 -78c-44 -24 -88 -34 -124 -34c-69 0 -102 37 -102 85c0 45 31 99 97 142l-21 67h-262l-42 -67h-133l385 564l206 -564c-114 -41 -126 -94 -126 -114s14 -26 36 -26c37 0 81 14 99 25zM352 170l-54 172l-110 -172h164z" />
    <glyph glyph-name="abreve.sc" horiz-adv-x="581" 
d="M427 755h109c-17 -76 -87 -172 -204 -172c-85 0 -151 59 -141 172h111c-3 -14 -8 -83 43 -83c63 0 80 76 82 83zM539 0h-133l-26 83h-247l-52 -83h-133l385 564zM347 186l-49 156l-99 -156h148z" />
    <glyph glyph-name="abreve.sc.semp" horiz-adv-x="581" 
d="M427 755h109c-17 -76 -87 -172 -204 -172c-85 0 -151 59 -141 172h111c-3 -14 -8 -83 43 -83c63 0 80 76 82 83zM539 0h-133l-21 67h-262l-42 -67h-133l385 564zM352 170l-54 172l-110 -172h164z" />
    <glyph glyph-name="amacron.sc" horiz-adv-x="581" 
d="M524 600h-372l16 99h372zM539 0h-133l-26 83h-247l-52 -83h-133l385 564zM347 186l-49 156l-99 -156h148z" />
    <glyph glyph-name="amacron.sc.semp" horiz-adv-x="581" 
d="M546 600h-417l16 99h417zM539 0h-133l-21 67h-262l-42 -67h-133l385 564zM352 170l-54 172l-110 -172h164z" />
    <glyph glyph-name="uni1E03.sc" horiz-adv-x="527" 
d="M364 684c0 -43 -39 -81 -85 -81c-34 0 -61 29 -61 63c0 44 43 82 83 82c38 0 63 -28 63 -64zM205 0h-178l85 538h144c110 0 202 -29 202 -119c0 -74 -63 -111 -94 -124c43 -15 98 -46 98 -125c0 -99 -88 -170 -257 -170zM201 321h42c65 0 83 30 83 63c0 38 -24 50 -74 50
h-33zM166 104h81c55 0 85 31 85 69c0 35 -26 55 -74 55h-72z" />
    <glyph glyph-name="ccedilla.sc" horiz-adv-x="594" 
d="M225 -252h-126l129 199h140zM477 150l43 -87c-44 -36 -115 -77 -216 -77c-165 0 -268 109 -268 253c0 174 151 313 343 313c139 0 201 -72 200 -81l-77 -84c-33 36 -79 55 -135 55c-124 0 -205 -92 -205 -195c0 -88 58 -151 158 -151c73 0 134 34 157 54z" />
    <glyph glyph-name="cacute.sc" horiz-adv-x="594" 
d="M521 766l-212 -163l-69 50l193 186zM477 150l43 -87c-44 -36 -115 -77 -216 -77c-165 0 -268 109 -268 253c0 174 151 313 343 313c139 0 201 -72 200 -81l-77 -84c-33 36 -79 55 -135 55c-124 0 -205 -92 -205 -195c0 -88 58 -151 158 -151c73 0 134 34 157 54z" />
    <glyph glyph-name="ccaron.sc" horiz-adv-x="594" 
d="M552 734l-202 -136l-159 136l74 71l102 -93l134 93zM477 150l43 -87c-44 -36 -115 -77 -216 -77c-165 0 -268 109 -268 253c0 174 151 313 343 313c139 0 201 -72 200 -81l-77 -84c-33 36 -79 55 -135 55c-124 0 -205 -92 -205 -195c0 -88 58 -151 158 -151
c73 0 134 34 157 54z" />
    <glyph glyph-name="ccircumflex.sc" horiz-adv-x="594" 
d="M539 663l-74 -71l-104 93l-132 -93l-52 71l203 136zM477 150l43 -87c-44 -36 -115 -77 -216 -77c-165 0 -268 109 -268 253c0 174 151 313 343 313c139 0 201 -72 200 -81l-77 -84c-33 36 -79 55 -135 55c-124 0 -205 -92 -205 -195c0 -88 58 -151 158 -151
c73 0 134 34 157 54z" />
    <glyph glyph-name="cdotaccent.sc" horiz-adv-x="594" 
d="M445 684c0 -43 -38 -81 -84 -81c-35 0 -61 29 -61 63c0 44 42 82 84 82c38 0 61 -28 61 -64zM477 150l43 -87c-44 -36 -115 -77 -216 -77c-165 0 -268 109 -268 253c0 174 151 313 343 313c139 0 201 -72 200 -81l-77 -84c-33 36 -79 55 -135 55
c-124 0 -205 -92 -205 -195c0 -88 58 -151 158 -151c73 0 134 34 157 54z" />
    <glyph glyph-name="dcaron.sc" horiz-adv-x="605" 
d="M517 732l-201 -136l-160 136l75 71l102 -93l134 93zM196 0h-169l85 538h156c177 0 286 -74 286 -236c0 -182 -136 -302 -358 -302zM168 111h59c107 0 194 57 194 178c0 90 -49 138 -127 138h-76z" />
    <glyph glyph-name="dcroat.sc" horiz-adv-x="623" 
d="M214 0h-169l35 220h-74l16 99h73l35 219h156c177 0 286 -74 286 -236c0 -182 -136 -302 -358 -302zM307 220h-104l-17 -109h59c107 0 194 57 194 178c0 90 -49 138 -127 138h-76l-17 -108h104z" />
    <glyph glyph-name="uni1E0B.sc" horiz-adv-x="605" 
d="M407 684c0 -43 -38 -81 -84 -81c-35 0 -61 29 -61 63c0 44 42 82 83 82c38 0 62 -28 62 -64zM196 0h-169l85 538h156c177 0 286 -74 286 -236c0 -182 -136 -302 -358 -302zM168 111h59c107 0 194 57 194 178c0 90 -49 138 -127 138h-76z" />
    <glyph glyph-name="eacute.sc" horiz-adv-x="485" 
d="M391 1h-364l85 536h343l-18 -110h-220l-15 -98c59 0 118 1 177 1l-17 -110c-59 0 -118 1 -177 1l-18 -110h241zM477 765l-215 -163l-69 52l192 184z" />
    <glyph glyph-name="ecircumflex.sc" horiz-adv-x="485" 
d="M391 1h-364l85 536h342l-18 -110h-219l-15 -98c58 0 118 1 177 1l-17 -110c-59 0 -119 1 -177 1l-18 -110h241zM480 668l-73 -70l-106 83l-130 -83l-53 70l203 136z" />
    <glyph glyph-name="edieresis.sc" horiz-adv-x="486" 
d="M392 1h-365l85 536h343l-18 -110h-220l-15 -98l177 1l-17 -110l-177 1l-18 -110h242zM258 689c0 -39 -39 -72 -81 -72c-34 0 -58 25 -58 56c0 41 37 73 78 73c35 0 61 -24 61 -57zM491 691c0 -40 -32 -74 -79 -74c-35 0 -59 25 -59 56c0 40 36 73 79 73
c37 0 59 -24 59 -55z" />
    <glyph glyph-name="triagup" unicode="&#x25b2;" horiz-adv-x="635" 
d="M645 0h-655l412 578z" />
    <glyph glyph-name="four.sc" horiz-adv-x="515" 
d="M441 80h-79l-13 -84h-119l13 84h-256l10 63l360 419h81l-62 -391h79zM265 168l33 194l-165 -194h132z" />
    <glyph glyph-name="three.sc" horiz-adv-x="448" 
d="M-19 47l63 81c13 -19 64 -46 116 -46c68 0 105 47 105 91c0 48 -46 85 -114 85c-11 0 -19 -1 -29 -2l11 70c5 0 3 -1 14 -1c57 0 128 25 128 78c0 30 -22 43 -55 43c-37 0 -76 -16 -93 -24l-20 82c22 18 87 40 143 40c94 0 144 -62 144 -125c0 -68 -57 -103 -94 -123
c57 -25 79 -75 79 -124c0 -103 -96 -185 -233 -185c-97 0 -148 42 -165 60z" />
    <glyph glyph-name="two.sc" horiz-adv-x="488" 
d="M393 0h-408l14 72c100 36 314 193 314 315c0 42 -25 67 -65 67c-46 0 -93 -33 -120 -57l-43 74c35 28 106 79 192 79c97 0 158 -65 158 -150c0 -133 -150 -241 -252 -314l225 10z" />
    <glyph glyph-name="one.sc" horiz-adv-x="333" 
d="M208 -4h-123l65 410l-80 -27l-30 90l257 88z" />
    <glyph glyph-name="zero_slash.sc.alt" horiz-adv-x="695" 
d="M646 303c0 -172 -155 -317 -343 -317c-166 0 -266 113 -266 253c0 183 169 313 345 313c158 0 264 -106 264 -249zM200 149l229 282c-17 7 -36 11 -58 11c-104 0 -201 -86 -201 -196c0 -36 10 -70 30 -97zM487 385l-229 -280c16 -6 34 -9 55 -9c106 0 200 88 200 198
c0 34 -9 66 -26 91z" />
    <glyph glyph-name="zero.sc.alt" horiz-adv-x="695" 
d="M646 303c0 -172 -155 -317 -343 -317c-166 0 -266 113 -266 253c0 183 169 313 345 313c158 0 264 -106 264 -249zM513 294c0 81 -50 148 -142 148c-104 0 -201 -86 -201 -196c0 -77 47 -150 143 -150c106 0 200 88 200 198z" />
    <glyph glyph-name="zero_slash.sc" horiz-adv-x="535" 
d="M224 -8c-154 0 -186 114 -186 209c0 86 26 348 260 348c153 0 186 -113 186 -209c0 -94 -31 -348 -260 -348zM147 163l191 287c-12 9 -27 14 -47 14c-96 0 -145 -113 -145 -260c0 -9 0 -32 1 -41zM374 374l-190 -285c11 -8 26 -13 45 -13c99 0 146 125 146 263
c0 8 0 29 -1 35z" />
    <glyph glyph-name="zero.sc" horiz-adv-x="535" 
d="M224 -8c-154 0 -186 114 -186 209c0 86 26 348 260 348c153 0 186 -113 186 -209c0 -94 -31 -348 -260 -348zM234 86c83 0 128 127 128 238c0 64 -15 130 -76 130c-81 0 -127 -119 -127 -236c0 -57 11 -132 75 -132z" />
    <glyph glyph-name="nine.osf" horiz-adv-x="581" 
d="M167 -269l-73 76c34 36 147 145 215 237c-31 -11 -62 -16 -89 -16c-109 0 -188 77 -188 211c0 184 150 281 300 281c126 0 223 -68 223 -210c0 -140 -93 -324 -388 -579zM272 124c88 0 154 82 154 170c0 72 -44 123 -115 123c-87 0 -148 -78 -148 -167
c0 -67 35 -126 109 -126z" />
    <glyph glyph-name="eight.osf" horiz-adv-x="606" 
d="M443 364c44 -24 82 -70 82 -143c0 -127 -117 -237 -265 -237c-130 0 -214 85 -214 190c0 99 75 164 137 190c-43 24 -77 74 -77 146c0 146 137 224 263 224c123 0 203 -75 203 -181c0 -89 -56 -164 -129 -189zM266 85c71 0 132 64 132 133c0 53 -36 100 -94 100
c-66 0 -131 -59 -131 -133c0 -51 30 -100 93 -100zM322 408c66 0 125 58 125 131c0 49 -27 95 -89 95c-72 0 -132 -61 -132 -127c0 -52 36 -99 96 -99z" />
    <glyph glyph-name="seven.osf" horiz-adv-x="542" 
d="M90 -212h-141l423 629h-303l16 105h490z" />
    <glyph glyph-name="six.osf" horiz-adv-x="622" 
d="M430 768l72 -75c-39 -36 -150 -140 -218 -232c31 11 60 16 87 16c109 0 190 -78 190 -210c0 -170 -135 -282 -295 -282c-131 0 -227 75 -227 216c0 266 338 520 391 567zM277 88c88 0 153 79 153 168c0 66 -36 125 -112 125c-89 0 -151 -82 -151 -171
c0 -69 38 -122 110 -122z" />
    <glyph glyph-name="five.osf" horiz-adv-x="520" 
d="M-53 -158l63 93c13 -27 78 -80 148 -80c73 0 148 58 148 147c0 101 -95 163 -229 195l144 308h269l-42 -105h-176l-61 -135c115 -32 211 -112 211 -249c0 -166 -140 -264 -282 -264c-113 0 -177 63 -193 90z" />
    <glyph glyph-name="four.osf" horiz-adv-x="674" 
d="M431 -211h-116l34 212h-385l3 18l580 581h13l-79 -496h118l-16 -103h-118zM365 104l35 215l-208 -215h173z" />
    <glyph glyph-name="three.osf" horiz-adv-x="538" 
d="M-54 -151l66 87c15 -24 74 -67 149 -67c103 0 159 79 159 151c0 77 -64 141 -166 141c-12 0 -11 -1 -15 -1l12 72c4 -1 8 -1 12 -1c103 0 180 64 180 136c0 43 -28 73 -80 73c-45 0 -96 -18 -124 -36l-23 87c30 19 104 55 180 55c111 0 171 -80 171 -163
c0 -54 -26 -130 -129 -182c73 -36 100 -114 100 -180c0 -133 -117 -254 -292 -254c-120 0 -183 59 -200 82z" />
    <glyph glyph-name="two.osf" horiz-adv-x="547" 
d="M448 0h-470l8 52c163 80 365 182 365 311c0 43 -23 88 -82 88c-61 0 -125 -49 -156 -81l-51 75c37 34 132 111 239 111s171 -76 171 -168c0 -146 -165 -253 -269 -299l261 14z" />
    <glyph glyph-name="one.osf" horiz-adv-x="466" 
d="M386 0h-383l17 99l136 -1l48 303l-94 -35l-21 90l253 89l-69 -446l129 1z" />
    <glyph glyph-name="zero_slash.osf" horiz-adv-x="645" 
d="M278 -18c-146 0 -234 106 -234 245c0 186 156 312 310 312c142 0 232 -106 232 -243c0 -170 -137 -314 -308 -314zM452 369l-216 -266c16 -7 34 -10 52 -10c97 0 186 86 186 191c0 31 -8 62 -22 85zM178 149l215 266c-15 6 -32 10 -52 10c-94 0 -184 -86 -184 -190
c0 -32 8 -64 21 -86z" />
    <glyph glyph-name="zero.osf" horiz-adv-x="645" 
d="M278 -18c-146 0 -234 106 -234 245c0 186 156 312 310 312c142 0 232 -106 232 -243c0 -170 -137 -314 -308 -314zM288 93c97 0 186 84 186 192c0 76 -45 140 -130 140c-97 0 -187 -84 -187 -191c0 -76 45 -141 131 -141z" />
    <glyph glyph-name="nine.tab" horiz-adv-x="660" 
d="M228 -26l-73 76c34 36 147 145 215 237c-31 -11 -62 -16 -89 -16c-109 0 -188 77 -188 211c0 184 150 281 300 281c126 0 223 -68 223 -210c0 -140 -93 -324 -388 -579zM333 367c88 0 154 82 154 170c0 72 -44 123 -115 123c-87 0 -148 -78 -148 -167
c0 -67 35 -126 109 -126z" />
    <glyph glyph-name="eight.tab" horiz-adv-x="660" 
d="M471 379c40 -24 81 -71 81 -149c0 -133 -119 -246 -267 -246c-130 0 -212 87 -212 195c0 101 72 169 137 199c-36 22 -76 71 -76 152c0 152 140 234 266 234c122 0 201 -78 201 -187c0 -90 -53 -169 -130 -198zM291 85c72 0 134 68 134 142c0 57 -36 105 -94 105
c-67 0 -132 -64 -132 -143c0 -53 30 -104 92 -104zM349 423c66 0 128 61 128 139c0 51 -26 100 -89 100c-73 0 -133 -64 -133 -135c0 -55 35 -104 94 -104z" />
    <glyph glyph-name="seven.tab" horiz-adv-x="660" 
d="M179 -9h-143l432 651h-321l17 105h508z" />
    <glyph glyph-name="six.tab" horiz-adv-x="660" 
d="M456 768l72 -75c-39 -36 -150 -140 -218 -232c31 11 60 16 87 16c109 0 190 -78 190 -210c0 -170 -135 -282 -295 -282c-131 0 -227 75 -227 216c0 266 338 520 391 567zM303 88c88 0 153 79 153 168c0 66 -36 125 -112 125c-89 0 -151 -82 -151 -171
c0 -69 38 -122 110 -122z" />
    <glyph glyph-name="five.tab" horiz-adv-x="660" 
d="M40 49l56 100c31 -30 78 -59 146 -59c110 0 176 85 176 179c0 66 -36 127 -142 127c-30 0 -72 -5 -134 -24l156 376h311l-47 -101h-194l-70 -170c18 3 33 4 45 4c121 0 208 -82 208 -206c0 -137 -103 -291 -303 -291c-108 0 -182 45 -208 65z" />
    <glyph glyph-name="four.tab" horiz-adv-x="660" 
d="M456 -5h-125l20 127h-336l12 73l476 588h78l-89 -558h102l-16 -103h-102zM375 225l49 311l-244 -311h195z" />
    <glyph glyph-name="three.tab" horiz-adv-x="660" 
d="M433 418v-1c73 -34 100 -113 100 -180c0 -142 -119 -253 -290 -253c-127 0 -187 62 -202 82l66 87c15 -24 73 -67 151 -67c101 0 157 72 157 148c0 81 -65 144 -166 144c-13 0 -12 -1 -15 -1l12 72c4 -1 8 -1 12 -1c101 0 180 64 180 136c0 43 -27 73 -82 73
c-42 0 -94 -18 -122 -36l-23 87c30 19 104 55 179 55c112 0 171 -80 171 -163c0 -52 -24 -129 -128 -182z" />
    <glyph glyph-name="two.tab" horiz-adv-x="660" 
d="M531 0h-515l11 72c161 76 437 301 437 481c0 59 -29 108 -93 108c-63 0 -126 -48 -159 -82l-47 80c41 36 129 104 236 104c120 0 193 -86 193 -193c0 -183 -217 -385 -359 -472l312 6z" />
    <glyph glyph-name="one.tab" horiz-adv-x="660" 
d="M566 1h-555l18 116h224l79 499l-159 -71l-30 94l338 133l-104 -655h207z" />
    <glyph glyph-name="zero_slash.tab" horiz-adv-x="660" 
d="M286 -16c-183 0 -224 145 -224 295c0 246 110 484 334 484c178 0 223 -149 223 -281c0 -118 -36 -498 -333 -498zM189 177l253 472c-16 11 -34 17 -58 17c-129 0 -202 -180 -202 -387c0 -34 2 -79 7 -102zM493 565l-252 -468c14 -10 31 -15 52 -15c136 0 204 193 204 396
c0 25 -1 68 -4 87z" />
    <glyph glyph-name="zero.tab" horiz-adv-x="660" 
d="M286 -16c-183 0 -224 145 -224 295c0 246 110 484 334 484c178 0 223 -149 223 -281c0 -118 -36 -498 -333 -498zM298 87c120 0 193 191 193 373c0 100 -22 201 -111 201c-120 0 -191 -185 -191 -372c0 -91 17 -202 109 -202z" />
    <glyph glyph-name="five.alt" horiz-adv-x="560" 
d="M-20 80l70 91c13 -13 87 -80 171 -80c85 0 152 70 152 158c0 104 -93 177 -249 202l155 290h295l-50 -105h-177l-66 -126c133 -33 221 -112 221 -245c0 -161 -129 -276 -291 -276c-124 0 -210 68 -231 91z" />
    <glyph glyph-name="question.sc" horiz-adv-x="378" 
d="M284 319l43 -54c-26 -31 -90 -87 -165 -87c-59 0 -116 38 -116 99c0 124 184 132 184 203c0 11 -7 20 -22 20c-25 0 -63 -19 -80 -32l-32 59c27 19 83 53 138 53c70 0 102 -47 102 -93c0 -63 -88 -111 -121 -132c-16 -10 -64 -42 -64 -69c0 -14 9 -27 24 -27
c44 0 93 43 109 60zM216 73c0 -45 -42 -83 -86 -83c-36 0 -61 28 -61 64c0 46 40 85 84 85c36 0 63 -29 63 -66z" />
    <glyph glyph-name="questiondown.sc" horiz-adv-x="379" 
d="M238 78l34 -59c-28 -19 -85 -53 -140 -53c-69 0 -101 47 -101 93c0 63 88 111 121 132c16 10 64 42 64 68c0 14 -10 28 -25 28c-44 0 -93 -43 -107 -60l-45 54c26 31 91 87 167 87c58 0 115 -38 115 -99c0 -123 -185 -132 -185 -203c0 -11 7 -20 23 -20c26 0 63 19 79 32
zM299 492c0 -46 -42 -85 -86 -85c-36 0 -63 29 -63 66c0 45 43 83 87 83c36 0 62 -28 62 -64z" />
    <glyph glyph-name="exclam.sc" horiz-adv-x="270" 
d="M173 205h-109l42 353h137zM169 74c0 -45 -41 -84 -85 -84c-36 0 -62 29 -62 65c0 45 42 83 86 83c35 0 61 -28 61 -64z" />
    <glyph glyph-name="exclamdown.sc" horiz-adv-x="267" 
d="M152 -10h-137l70 353h109zM235 493c0 -45 -43 -83 -84 -83c-37 0 -63 28 -63 64c0 45 41 84 86 84c34 0 61 -29 61 -65z" />
    <glyph glyph-name="periodcentered.sc" horiz-adv-x="272" 
d="M213 334c0 -42 -40 -78 -86 -78c-38 0 -65 28 -65 60c0 44 41 79 87 79c38 0 64 -26 64 -61z" />
    <glyph glyph-name="commaaccent" horiz-adv-x="313" 
d="M128 -244h-102l102 205h140z" />
    <glyph glyph-name="plus.sc" horiz-adv-x="508" 
d="M446 194h-163l-23 -145h-96l23 145h-161l15 94h161l23 146h96l-23 -146h163z" />
    <glyph glyph-name="plus.dnom" horiz-adv-x="461" 
d="M406 159h-152l-21 -134h-95l21 134h-152l14 90h152l22 137h95l-22 -137h152z" />
    <glyph glyph-name="plus.sup" horiz-adv-x="460" 
d="M458 489h-152l-21 -134h-95l21 134h-152l14 90h152l22 137h95l-22 -137h152z" />
    <glyph glyph-name="plus.sinf" horiz-adv-x="460" 
d="M376 -31h-152l-21 -134h-95l21 134h-152l14 90h152l22 137h95l-22 -137h152z" />
    <glyph glyph-name="minus.sc" horiz-adv-x="554" 
d="M469 194h-420l15 94h420z" />
    <glyph glyph-name="minus.dnom" horiz-adv-x="507" 
d="M429 159h-399l14 90h399z" />
    <glyph glyph-name="minus.sup" horiz-adv-x="508" 
d="M482 489h-399l14 90h399z" />
    <glyph glyph-name="minus.sinf" horiz-adv-x="507" 
d="M399 -31h-399l14 90h399z" />
    <glyph glyph-name="multiply.sc" horiz-adv-x="497" 
d="M416 123l-82 -62l-102 133l-146 -133l-65 61l154 135l-109 139l83 64l105 -138l144 139l62 -64l-152 -138z" />
    <glyph glyph-name="multiply.dnom" horiz-adv-x="430" 
d="M356 86l-74 -52l-94 103l-124 -102l-62 50l132 107l-95 106l74 53l93 -103l126 102l57 -52l-130 -106z" />
    <glyph glyph-name="multiply.sup" horiz-adv-x="430" 
d="M408 416l-74 -52l-94 103l-124 -102l-62 50l132 107l-95 106l74 53l93 -103l126 102l57 -52l-130 -106z" />
    <glyph glyph-name="multiply.sinf" horiz-adv-x="430" 
d="M326 -104l-74 -52l-94 103l-124 -102l-62 50l132 107l-95 106l74 53l93 -103l126 102l57 -52l-130 -106z" />
    <glyph glyph-name="divide.sc" horiz-adv-x="514" 
d="M449 194h-420l15 93h420zM328 399c0 -33 -30 -67 -68 -67c-28 0 -50 26 -50 52c0 34 35 67 69 67c33 0 49 -24 49 -52zM280 99c0 -33 -29 -68 -68 -68c-28 0 -49 26 -49 53c0 33 34 66 68 66c33 0 49 -24 49 -51z" />
    <glyph glyph-name="divide.dnom" horiz-adv-x="471" 
d="M411 159h-399l14 90h399zM256 77c0 -31 -29 -59 -68 -59c-28 0 -49 21 -49 47c0 32 34 58 65 58c33 0 52 -21 52 -46zM298 344c0 -30 -29 -58 -68 -58c-27 0 -48 21 -48 46c0 31 32 59 65 59s51 -21 51 -47z" />
    <glyph glyph-name="divide.sup" horiz-adv-x="470" 
d="M463 489h-399l14 90h399zM308 407c0 -31 -29 -59 -68 -59c-28 0 -49 21 -49 47c0 32 34 58 65 58c33 0 52 -21 52 -46zM350 674c0 -30 -29 -58 -68 -58c-27 0 -48 21 -48 46c0 31 32 59 65 59s51 -21 51 -47z" />
    <glyph glyph-name="divide.sinf" horiz-adv-x="471" 
d="M381 -31h-399l14 90h399zM226 -113c0 -31 -29 -59 -68 -59c-28 0 -49 21 -49 47c0 32 34 58 65 58c33 0 52 -21 52 -46zM268 154c0 -30 -29 -58 -68 -58c-28 0 -48 21 -48 46c0 31 32 59 65 59s51 -21 51 -47z" />
    <glyph glyph-name="equal.sc" horiz-adv-x="555" 
d="M450 73h-420l15 95h420zM485 291h-420l15 95h420z" />
    <glyph glyph-name="equal.dnom" horiz-adv-x="508" 
d="M416 75h-399l14 91h399zM443 243h-399l14 90h399z" />
    <glyph glyph-name="equal.sup" horiz-adv-x="508" 
d="M469 405h-399l14 91h399zM496 573h-399l14 90h399z" />
    <glyph glyph-name="equal.sinf" horiz-adv-x="508" 
d="M386 -115h-399l14 91h399zM413 53h-399l14 90h399z" />
    <glyph glyph-name="notequal" unicode="&#x2260;" horiz-adv-x="671" 
d="M592 190h-269l-121 -234l-81 25l106 209h-190l16 102h230l51 107h-264l16 102h303l124 236l78 -32l-106 -204h156l-16 -102h-196l-50 -107h229z" />
    <glyph glyph-name="notequal.sc" horiz-adv-x="511" 
d="M429 74h-192l-71 -184l-92 27l61 157h-126l15 94h149l47 123h-177l15 95h199l71 181l92 -24l-61 -157h119l-15 -95h-141l-49 -123h171z" />
    <glyph glyph-name="plusminus.sc" horiz-adv-x="533" 
d="M429 1h-420l15 93h420zM472 275h-163l-23 -146h-96l23 146h-161l15 93h161l24 150h96l-24 -150h163z" />
    <glyph glyph-name="approxequal" unicode="&#x2248;" horiz-adv-x="698" 
d="M495 269l124 -10c-30 -121 -94 -162 -162 -162c-144 0 -178 92 -247 92c-19 0 -33 -20 -43 -76l-119 10c16 99 83 164 162 164c121 0 158 -93 248 -93c21 0 27 14 37 75zM536 529l124 -10c-29 -121 -94 -162 -162 -162c-144 0 -177 92 -246 92c-19 0 -34 -20 -43 -76
l-120 10c16 99 83 164 162 164c121 0 158 -93 248 -93c21 0 28 14 37 75z" />
    <glyph glyph-name="less.sc" horiz-adv-x="527" 
d="M371 28l-346 186l9 54l403 175l41 -83l-285 -121l248 -131z" />
    <glyph glyph-name="greater.sc" horiz-adv-x="526" 
d="M471 213l-403 -175l-42 82l287 121l-248 131l69 81l345 -185z" />
    <glyph glyph-name="lessequal" unicode="&#x2264;" horiz-adv-x="677" 
d="M516 130l-426 267l9 59l511 251l42 -88l-393 -194l329 -209zM570 1h-562l16 99h562z" />
    <glyph glyph-name="greaterequal" unicode="&#x2265;" horiz-adv-x="675" 
d="M616 397l-511 -267l-44 86l394 209l-329 194l70 88l429 -251zM573 1h-563l16 99h563z" />
    <glyph glyph-name="section.alt" horiz-adv-x="428" 
d="M170 -143l50 838c18 22 134 75 193 75c28 0 44 -18 44 -40c0 -27 -25 -54 -51 -54c-29 0 -40 29 -38 47c-16 -4 -55 -33 -60 -40l-48 -837c-28 -45 -169 -114 -235 -114c-24 0 -39 17 -39 39c0 30 28 53 52 53c28 0 39 -28 38 -44c31 9 75 46 94 77zM173 672l-45 -777
s-61 -26 -60 -26s46 772 46 772s58 31 59 31z" />
    <glyph glyph-name="partialdiff" unicode="&#x2202;" horiz-adv-x="621" 
d="M251 768l102 51c89 -104 206 -294 206 -505c0 -192 -138 -332 -302 -332c-141 0 -221 107 -221 222c0 163 160 291 283 291c45 0 82 -14 113 -46c-11 77 -96 226 -181 319zM271 80c87 0 161 76 161 182c0 72 -40 135 -111 135c-106 0 -162 -97 -162 -186
c0 -64 35 -131 112 -131z" />
    <glyph glyph-name="Delta" unicode="&#x2206;" horiz-adv-x="815" 
d="M730 0h-743l498 788zM552 116l-103 383c-2 9 -6 29 -5 38c-4 -9 -14 -28 -20 -38l-222 -383h350z" />
    <glyph glyph-name="product" unicode="&#x220f;" horiz-adv-x="781" 
d="M636 0h-127l101 640h-334l-101 -640h-128l120 756h589z" />
    <glyph glyph-name="pi" unicode="&#x3c0;" horiz-adv-x="596" 
d="M472 0h-116l65 408h-213l-65 -408h-117l80 504h446z" />
    <glyph glyph-name="summation" unicode="&#x2211;" horiz-adv-x="679" 
d="M572 1h-576l355 377l-235 378h546l-19 -115h-302l165 -263l-249 -262h333z" />
    <glyph glyph-name="radical" unicode="&#x221a;" horiz-adv-x="704" 
d="M161 -291l-157 590h125l75 -322l456 819h130z" />
    <glyph glyph-name="infinity" unicode="&#x221e;" horiz-adv-x="936" 
d="M429 151c-55 -63 -118 -114 -203 -114c-94 0 -175 64 -175 193c0 162 128 257 246 257c102 0 143 -72 176 -149c58 77 123 149 234 149c93 0 163 -50 163 -182c0 -187 -141 -268 -259 -268c-94 0 -145 51 -182 114zM512 250c28 -60 61 -100 125 -100c75 0 120 56 120 129
c0 62 -33 97 -81 97c-63 0 -112 -58 -164 -126zM387 229c-32 77 -58 147 -112 147c-39 0 -113 -35 -113 -128c0 -73 46 -98 92 -98c54 0 95 33 133 79z" />
    <glyph glyph-name="integral" unicode="&#x222b;" horiz-adv-x="532" 
d="M152 -39l102 642c9 59 31 116 68 154c43 43 104 60 158 60c71 0 120 -30 126 -36l-60 -91c-9 8 -36 27 -75 27c-56 0 -89 -42 -100 -112l-102 -642c-9 -59 -31 -116 -68 -154c-43 -43 -104 -60 -158 -60c-72 0 -119 30 -126 36l60 91c10 -8 37 -27 76 -27
c55 0 88 42 99 112z" />
    <glyph glyph-name="estimated" unicode="&#x212e;" horiz-adv-x="854" 
d="M806 318h-601c6 -128 83 -220 214 -220c132 0 216 74 222 81l50 -96c-7 -6 -119 -101 -294 -101c-196 0 -329 152 -329 344c0 244 207 448 450 448c178 0 338 -121 288 -456zM220 427h470c15 150 -69 231 -191 231c-140 0 -243 -112 -279 -231z" />
    <glyph glyph-name="schwa" unicode="&#x259;" horiz-adv-x="566" 
d="M26 247l8 49h368c3 64 -37 125 -146 125c-73 0 -126 -32 -157 -53l-22 84c28 24 110 67 213 67c144 0 232 -87 232 -222c0 -175 -129 -312 -300 -312c-157 0 -219 122 -196 262zM386 201h-243c-11 -66 23 -123 95 -123c65 0 129 44 148 123z" />
    <glyph glyph-name="lozenge" unicode="&#x25ca;" horiz-adv-x="614" 
d="M252 -52l-191 446l333 445l186 -446zM286 161l165 233l-91 232l-165 -232z" />
    <glyph glyph-name="five.sc" horiz-adv-x="455" 
d="M-15 37l50 93c14 -13 52 -44 111 -44c70 0 116 44 116 105c0 43 -23 79 -97 79c-21 0 -54 -3 -106 -19l118 280h252l-43 -89h-147l-43 -98c14 2 23 2 38 2c88 0 155 -63 155 -153c0 -96 -77 -206 -236 -206c-88 0 -147 34 -168 50z" />
    <glyph glyph-name="two.dnom" horiz-adv-x="440" 
d="M358 0h-391c80 52 301 214 301 315c0 32 -23 48 -50 48c-35 0 -78 -28 -99 -48l-42 73c32 24 97 66 173 66c86 0 137 -54 137 -122c0 -113 -139 -213 -193 -251l178 10z" />
    <glyph glyph-name="six.sc" horiz-adv-x="489" 
d="M313 554l69 -69c-21 -21 -126 -103 -173 -160c16 13 41 16 59 16c84 0 161 -66 161 -153c0 -105 -110 -201 -233 -201c-110 0 -180 76 -180 156c0 153 259 378 297 411zM211 83c53 0 94 45 94 98c0 40 -24 75 -70 75c-53 0 -98 -47 -98 -100c0 -43 30 -73 74 -73z" />
    <glyph glyph-name="three.dnom" horiz-adv-x="386" 
d="M-25 39l61 77c13 -16 57 -37 97 -37c53 0 79 36 79 67c0 40 -43 62 -102 62c-7 0 -12 0 -18 -1c3 21 5 42 9 63c5 0 3 -1 13 -1c49 0 103 22 103 62c0 22 -16 33 -41 33c-29 0 -63 -15 -75 -23l-20 80c21 16 76 33 127 33c81 0 126 -42 126 -100c0 -28 -10 -74 -75 -107
c44 -20 62 -67 62 -106c0 -83 -85 -153 -202 -153c-83 0 -129 35 -144 51z" />
    <glyph glyph-name="four.dnom" horiz-adv-x="453" 
d="M388 70h-70l-12 -75h-106l12 75h-228l11 69l309 312h74l-46 -294h70zM229 151l23 145l-138 -145h115z" />
    <glyph glyph-name="five.dnom" horiz-adv-x="395" 
d="M326 357h-125l-30 -67c10 1 18 2 29 2c77 0 135 -54 135 -131c0 -81 -63 -172 -203 -172c-78 0 -133 29 -153 43l48 91c15 -14 46 -39 96 -39c54 0 90 29 90 76c0 33 -18 60 -77 60c-19 0 -47 -3 -98 -17l104 241h227z" />
    <glyph glyph-name="six.dnom" horiz-adv-x="412" 
d="M259 474l65 -62c-51 -36 -126 -103 -145 -128c19 9 39 13 58 13c70 0 128 -54 128 -130c0 -97 -92 -179 -204 -179c-97 0 -154 62 -154 140c0 157 234 335 252 346zM174 80c40 0 74 34 74 75c0 30 -19 57 -56 57c-42 0 -74 -36 -74 -76c0 -33 23 -56 56 -56z" />
    <glyph glyph-name="seven.dnom" horiz-adv-x="419" 
d="M107 -7h-130l273 353h-202l15 95h370z" />
    <glyph glyph-name="eight.dnom" horiz-adv-x="437" 
d="M315 232c23 -13 53 -43 53 -89c0 -83 -95 -154 -198 -154c-91 0 -160 57 -160 123c0 59 57 103 87 118c-3 4 -50 36 -50 92c0 77 90 145 196 145c92 0 155 -51 155 -118c0 -60 -50 -105 -83 -117zM252 142c0 24 -21 47 -54 47c-36 0 -71 -27 -71 -60c0 -26 23 -49 54 -49
c37 0 71 31 71 62zM282 329c0 25 -21 47 -53 47c-37 0 -71 -27 -71 -58c0 -24 21 -48 55 -48c37 0 69 28 69 59z" />
    <glyph glyph-name="nine.dnom" horiz-adv-x="412" 
d="M124 -32l-65 62c48 36 125 103 145 128c-21 -9 -40 -13 -59 -13c-70 0 -126 53 -126 129c0 98 92 180 203 180c97 0 156 -62 156 -136c0 -149 -236 -339 -254 -350zM191 230c41 0 75 35 75 76c0 33 -23 56 -56 56c-40 0 -74 -34 -74 -75c0 -30 19 -57 55 -57z" />
    <glyph glyph-name="zero.sinf" unicode="&#x2080;" horiz-adv-x="459" 
d="M151 -202c-131 0 -159 99 -159 180c0 53 12 286 225 286c131 0 162 -88 162 -182c0 -145 -73 -284 -228 -284zM164 -110c62 0 97 97 97 186c0 47 -10 98 -56 98c-61 0 -95 -92 -95 -184c0 -47 9 -100 54 -100z" />
    <glyph glyph-name="zero_slash.sinf" horiz-adv-x="459" 
d="M151 -202c-131 0 -159 99 -159 180c0 53 12 286 225 286c131 0 162 -88 162 -182c0 -145 -73 -284 -228 -284zM108 -64l123 237c-8 4 -14 6 -24 6c-68 0 -103 -90 -103 -190c0 -17 1 -40 4 -53zM263 125l-121 -236c5 -3 11 -4 19 -4c72 0 106 96 106 189
c0 16 -1 38 -4 51z" />
    <glyph glyph-name="one.sinf" unicode="&#x2081;" horiz-adv-x="296" 
d="M155 -192h-110l51 324l-76 -28l-29 85l237 81z" />
    <glyph glyph-name="two.sinf" unicode="&#x2082;" horiz-adv-x="438" 
d="M326 -190h-391c80 52 301 214 301 315c0 32 -23 48 -50 48c-35 0 -78 -28 -99 -48l-42 73c32 24 97 66 173 66c86 0 137 -54 137 -122c0 -113 -139 -213 -193 -251l178 10z" />
    <glyph glyph-name="seven.sc" horiz-adv-x="464" 
d="M118 -7h-133l319 440h-237l15 97h412z" />
    <glyph glyph-name="three.sinf" unicode="&#x2083;" horiz-adv-x="385" 
d="M-56 -151l61 77c13 -16 57 -37 97 -37c53 0 79 36 79 67c0 40 -43 62 -102 62c-7 0 -12 0 -18 -1c3 21 5 42 9 63c5 0 3 -1 13 -1c49 0 103 22 103 62c0 22 -16 33 -41 33c-29 0 -63 -15 -75 -23l-20 80c21 16 76 33 127 33c81 0 126 -42 126 -100
c0 -28 -10 -74 -75 -107c44 -20 62 -67 62 -106c0 -83 -85 -153 -202 -153c-83 0 -129 35 -144 51z" />
    <glyph glyph-name="eight.sc" horiz-adv-x="480" 
d="M346 270c29 -18 59 -53 59 -104c0 -97 -106 -179 -213 -179c-96 0 -168 65 -168 142c0 72 64 121 98 139c-27 17 -54 56 -54 105c0 92 97 170 209 170c95 0 161 -57 161 -136c0 -69 -51 -121 -92 -137zM204 82c41 0 81 40 81 82c0 32 -24 62 -60 62
c-42 0 -81 -39 -81 -81c0 -33 25 -63 60 -63zM320 389c0 33 -23 60 -59 60c-42 0 -79 -38 -79 -78c0 -31 22 -61 59 -61c42 0 79 37 79 79z" />
    <glyph glyph-name="nine.sc" horiz-adv-x="488" 
d="M161 -23l-69 69c21 21 127 103 173 160c-16 -13 -42 -16 -60 -16c-84 0 -160 67 -160 154c0 104 110 200 233 200c109 0 180 -76 180 -156c0 -141 -218 -341 -297 -411zM239 275c53 0 98 47 98 100c0 42 -29 73 -73 73c-54 0 -95 -45 -95 -98c0 -40 24 -75 70 -75z" />
    <glyph glyph-name="four.sinf" unicode="&#x2084;" horiz-adv-x="454" 
d="M359 -120h-70l-12 -75h-106l12 75h-228l11 69l309 312h74l-46 -294h70zM200 -39l23 145l-138 -145h115z" />
    <glyph glyph-name="five.sinf" unicode="&#x2085;" horiz-adv-x="394" 
d="M295 167h-125l-30 -67c10 1 18 2 29 2c77 0 135 -54 135 -131c0 -81 -63 -172 -203 -172c-78 0 -133 29 -153 43l48 91c15 -14 46 -39 96 -39c54 0 90 29 90 76c0 33 -18 60 -77 60c-19 0 -47 -3 -98 -17l104 241h227z" />
    <glyph glyph-name="six.sinf" unicode="&#x2086;" horiz-adv-x="412" 
d="M229 284l65 -62c-51 -36 -126 -103 -145 -128c19 9 39 13 58 13c70 0 128 -54 128 -130c0 -97 -92 -179 -204 -179c-97 0 -154 62 -154 140c0 157 234 335 252 346zM144 -110c40 0 74 34 74 75c0 30 -19 57 -56 57c-42 0 -74 -36 -74 -76c0 -33 23 -56 56 -56z" />
    <glyph glyph-name="seven.sinf" unicode="&#x2087;" horiz-adv-x="420" 
d="M78 -197h-130l273 353h-202l15 95h370z" />
    <glyph glyph-name="eight.sinf" unicode="&#x2088;" horiz-adv-x="437" 
d="M285 42c23 -13 53 -43 53 -89c0 -83 -95 -154 -198 -154c-91 0 -160 57 -160 123c0 60 57 103 87 118c-3 4 -50 36 -50 92c0 77 90 145 196 145c92 0 155 -51 155 -118c0 -60 -50 -105 -83 -117zM222 -48c0 24 -20 47 -54 47c-37 0 -71 -27 -71 -59c0 -27 23 -50 54 -50
c37 0 71 31 71 62zM252 139c0 25 -21 47 -53 47c-37 0 -71 -27 -71 -58c0 -24 21 -48 55 -48c37 0 69 28 69 59z" />
    <glyph glyph-name="nine.sinf" unicode="&#x2089;" horiz-adv-x="412" 
d="M94 -222l-65 62c48 36 125 103 145 128c-21 -9 -40 -13 -59 -13c-70 0 -126 53 -126 129c0 98 92 180 203 180c97 0 156 -62 156 -136c0 -149 -236 -339 -254 -350zM161 40c41 0 75 35 75 76c0 33 -23 56 -56 56c-40 0 -74 -34 -74 -75c0 -30 19 -57 55 -57z" />
    <glyph glyph-name="zero.sup" horiz-adv-x="460" 
d="M234 318c-131 0 -159 99 -159 180c0 53 12 286 225 286c131 0 162 -88 162 -182c0 -145 -73 -284 -228 -284zM247 410c62 0 97 97 97 186c0 47 -10 98 -56 98c-61 0 -95 -92 -95 -184c0 -47 9 -100 54 -100z" />
    <glyph glyph-name="zero_slash.sup" horiz-adv-x="460" 
d="M234 318c-131 0 -159 99 -159 180c0 53 12 286 225 286c131 0 162 -88 162 -182c0 -145 -73 -284 -228 -284zM191 456l123 237c-8 4 -14 6 -24 6c-68 0 -103 -90 -103 -190c0 -17 1 -40 4 -53zM346 645l-121 -236c5 -3 11 -4 19 -4c72 0 106 96 106 189c0 16 -1 38 -4 51
z" />
    <glyph glyph-name="one.sup" horiz-adv-x="296" 
d="M237 328h-110l51 324l-76 -28l-29 85l237 81z" />
    <glyph glyph-name="two.sup" horiz-adv-x="444" 
d="M413 330h-391c80 52 301 214 301 315c0 32 -23 48 -50 48c-35 0 -78 -28 -99 -48l-42 73c32 24 97 66 173 66c86 0 137 -54 137 -122c0 -113 -139 -213 -193 -251l178 10z" />
    <glyph glyph-name="three.sup" horiz-adv-x="386" 
d="M27 369l61 77c13 -16 57 -37 97 -37c53 0 79 36 79 67c0 40 -43 62 -102 62c-7 0 -12 0 -18 -1c3 21 5 42 9 63c5 0 3 -1 13 -1c52 0 103 23 103 62c0 22 -16 33 -41 33c-29 0 -63 -15 -75 -23l-20 80c21 16 76 33 127 33c81 0 126 -42 126 -100c0 -28 -10 -74 -75 -107
c44 -20 62 -67 62 -106c0 -83 -85 -153 -202 -153c-83 0 -129 35 -144 51z" />
    <glyph glyph-name="four.sup" horiz-adv-x="455" 
d="M442 400h-70l-12 -75h-106l12 75h-228l11 69l309 312h74l-46 -294h70zM283 481l23 145l-138 -145h115z" />
    <glyph glyph-name="zero.dnom" horiz-adv-x="459" 
d="M181 -12c-131 0 -159 99 -159 180c0 53 12 286 225 286c131 0 162 -88 162 -182c0 -145 -73 -284 -228 -284zM194 80c62 0 97 97 97 186c0 47 -10 98 -56 98c-61 0 -95 -92 -95 -184c0 -47 9 -100 54 -100z" />
    <glyph glyph-name="five.sup" horiz-adv-x="394" 
d="M378 687h-125l-30 -67c10 1 18 2 29 2c77 0 135 -54 135 -131c0 -81 -63 -172 -203 -172c-78 0 -133 29 -153 43l48 91c15 -14 46 -39 96 -39c54 0 90 29 90 76c0 33 -18 60 -77 60c-19 0 -47 -3 -98 -17l104 241h227z" />
    <glyph glyph-name="six.sup" horiz-adv-x="412" 
d="M311 804l65 -62c-51 -36 -126 -103 -145 -128c19 9 39 13 58 13c70 0 128 -54 128 -130c0 -97 -92 -179 -204 -179c-97 0 -154 62 -154 140c0 157 234 335 252 346zM226 410c40 0 74 34 74 75c0 30 -19 57 -55 57c-43 0 -75 -36 -75 -76c0 -33 23 -56 56 -56z" />
    <glyph glyph-name="zero_slash.dnom" horiz-adv-x="459" 
d="M181 -12c-131 0 -159 99 -159 180c0 53 12 286 225 286c131 0 162 -88 162 -182c0 -145 -73 -284 -228 -284zM138 126l123 237c-8 4 -14 6 -24 6c-68 0 -103 -90 -103 -190c0 -17 1 -40 4 -53zM293 315l-121 -236c5 -3 11 -4 19 -4c72 0 106 96 106 189c0 16 -1 38 -4 51
z" />
    <glyph glyph-name="seven.sup" horiz-adv-x="417" 
d="M162 323h-130l273 353h-202l15 95h370z" />
    <glyph glyph-name="eight.sup" horiz-adv-x="438" 
d="M368 562c23 -13 53 -43 53 -89c0 -83 -95 -154 -198 -154c-91 0 -160 57 -160 123c0 59 57 103 87 118c-3 4 -50 36 -50 92c0 77 90 145 196 145c92 0 155 -51 155 -118c0 -60 -50 -105 -83 -117zM305 472c0 24 -21 47 -54 47c-36 0 -71 -27 -71 -60c0 -26 23 -49 54 -49
c37 0 71 31 71 62zM335 659c0 25 -21 47 -53 47c-37 0 -71 -27 -71 -58c0 -24 21 -48 55 -48c37 0 69 28 69 59z" />
    <glyph glyph-name="nine.sup" horiz-adv-x="413" 
d="M177 298l-65 62c48 36 125 103 145 128c-21 -9 -40 -13 -59 -13c-70 0 -126 53 -126 129c0 98 92 180 203 180c97 0 156 -62 156 -136c0 -149 -236 -339 -254 -350zM244 560c41 0 75 35 75 76c0 33 -23 56 -56 56c-40 0 -74 -34 -74 -75c0 -30 19 -57 55 -57z" />
    <glyph glyph-name="percent.sc" horiz-adv-x="703" 
d="M212 -20l-72 22l326 556l73 -22zM160 314c-61 0 -104 48 -104 109c0 78 70 143 142 143c61 0 103 -48 103 -109c0 -78 -70 -143 -141 -143zM170 383c30 0 60 32 60 66c0 25 -17 48 -43 48c-30 0 -60 -31 -60 -64c0 -26 18 -50 43 -50zM494 -12c-62 0 -104 49 -104 109
c0 78 70 143 142 143c62 0 104 -48 104 -109c0 -78 -70 -143 -142 -143zM505 57c30 0 60 31 60 64c0 26 -18 50 -44 50c-30 0 -60 -32 -60 -65c0 -26 18 -49 44 -49z" />
    <glyph glyph-name="perthousand.sc" horiz-adv-x="1030" 
d="M229 -20l-71 22l326 556l74 -22zM160 314c-61 0 -104 48 -104 109c0 78 70 143 142 143c61 0 103 -48 103 -109c0 -78 -70 -143 -141 -143zM170 383c30 0 60 32 60 66c0 25 -17 48 -43 48c-30 0 -60 -31 -60 -64c0 -26 18 -50 43 -50zM494 -12c-62 0 -104 49 -104 109
c0 78 70 143 142 143c62 0 104 -48 104 -109c0 -78 -70 -143 -142 -143zM505 57c30 0 60 31 60 64c0 26 -18 50 -44 50c-30 0 -60 -32 -60 -65c0 -26 18 -49 44 -49zM821 -12c-62 0 -104 48 -104 109c0 78 69 143 142 143c62 0 105 -48 105 -109c0 -78 -71 -143 -143 -143z
M832 57c29 0 60 31 60 64c0 26 -18 50 -43 50c-28 0 -60 -31 -60 -65c0 -25 18 -49 43 -49z" />
    <glyph glyph-name="dollar.alt" horiz-adv-x="592" 
d="M293 -104h-107l14 90c-105 13 -170 67 -198 104l83 92c30 -36 88 -83 170 -83c85 0 134 49 134 114c0 136 -266 105 -266 320c0 124 93 188 195 205l14 82h107l-13 -79c95 -13 139 -66 151 -82l-76 -95c-31 38 -73 66 -124 66c-55 0 -118 -31 -118 -91
c0 -125 269 -93 269 -313c0 -138 -97 -219 -220 -238z" />
    <glyph glyph-name="dollar.sc" horiz-adv-x="485" 
d="M147 -98l-56 4l31 91c-52 15 -97 47 -116 68l73 88c18 -19 48 -39 81 -49l44 125c-62 34 -112 75 -112 147c0 103 103 169 196 169c11 0 20 -1 28 -2l27 77l56 -4l-31 -88c41 -18 67 -45 71 -51l-68 -89c-11 12 -25 24 -41 33l-34 -97c85 -48 111 -89 111 -145
c0 -104 -91 -190 -229 -190zM254 203l-38 -105c44 4 67 27 67 57c0 22 -12 38 -29 48zM247 348l31 91h-3c-30 0 -64 -16 -64 -45c0 -20 16 -35 36 -46z" />
    <glyph glyph-name="dollar.dnom" horiz-adv-x="395" 
d="M99 -89l-64 4l34 85c-42 13 -72 38 -88 57l67 76c13 -14 33 -29 58 -39l44 114c-49 30 -95 61 -95 125c0 84 79 142 164 142c11 0 24 -1 36 -4l31 78l63 -3l-36 -92c30 -16 47 -37 51 -42l-62 -80c-9 10 -17 19 -28 26l-32 -85c52 -36 95 -67 95 -134
c0 -89 -75 -152 -173 -152c-11 0 -23 0 -35 2zM203 176l-36 -92c44 2 53 27 53 49c0 20 -7 32 -17 43zM189 304l29 74c-23 -1 -48 -15 -48 -40c0 -13 7 -24 19 -34z" />
    <glyph glyph-name="dollar.sup" horiz-adv-x="396" 
d="M152 241l-64 4l34 85c-42 13 -72 38 -88 57l67 76c13 -14 33 -29 58 -39l44 114c-49 30 -95 61 -95 125c0 84 79 142 164 142c11 0 24 -1 36 -4l31 78l63 -3l-36 -92c30 -16 47 -37 51 -42l-62 -80c-9 10 -17 19 -28 26l-32 -85c52 -36 95 -67 95 -134
c0 -89 -75 -152 -173 -152c-11 0 -23 0 -35 2zM256 506l-36 -92c44 2 53 27 53 49c0 20 -7 32 -17 43zM242 634l29 74c-23 -1 -48 -15 -48 -40c0 -13 7 -24 19 -34z" />
    <glyph glyph-name="dollar.sinf" horiz-adv-x="394" 
d="M69 -279l-64 4l34 85c-42 13 -72 38 -88 57l67 76c13 -14 33 -29 58 -39l44 114c-49 30 -95 61 -95 125c0 84 79 142 164 142c11 0 24 -1 36 -4l31 78l63 -3l-36 -92c30 -16 47 -37 51 -42l-62 -80c-9 10 -17 19 -28 26l-32 -85c52 -36 95 -67 95 -134
c0 -89 -75 -152 -173 -152c-11 0 -23 0 -35 2zM173 -14l-36 -92c44 2 53 27 53 49c0 20 -7 32 -17 43zM159 114l29 74c-23 -1 -48 -15 -48 -40c0 -13 7 -24 19 -34z" />
    <glyph glyph-name="one.dnom" horiz-adv-x="297" 
d="M186 -2h-110l51 324l-76 -28l-29 85l237 81z" />
    <glyph glyph-name="cent.sc" horiz-adv-x="449" 
d="M226 -19h-86l20 101c-71 18 -123 76 -123 159c0 105 84 188 180 197l12 103h86l-19 -101c57 -9 106 -46 116 -61l-60 -71c-9 12 -39 31 -69 36l-29 -173c31 2 68 17 92 38l35 -64c-51 -46 -95 -62 -140 -67zM177 175l27 166c-35 -10 -76 -41 -76 -91c0 -39 25 -66 49 -75
z" />
    <glyph glyph-name="cent.dnom" horiz-adv-x="387" 
d="M200 1h-71l8 54c-68 14 -123 64 -123 145c0 101 84 164 172 168l15 91h71l-15 -92c42 -7 87 -36 97 -47l-49 -67c-10 9 -38 31 -61 32l-22 -145c28 0 61 15 76 26l20 -65c-13 -12 -47 -34 -109 -43zM151 142l23 144c-37 -4 -70 -40 -70 -86c0 -30 14 -54 47 -58z" />
    <glyph glyph-name="cent.sup" horiz-adv-x="386" 
d="M252 330h-71l8 54c-68 14 -123 64 -123 145c0 101 84 164 172 168l15 91h71l-15 -92c42 -7 87 -36 97 -47l-49 -67c-10 9 -38 31 -61 32l-22 -145c28 0 61 15 76 26l20 -65c-13 -12 -47 -34 -109 -43zM203 471l23 144c-37 -4 -70 -40 -70 -86c0 -30 14 -54 47 -58z" />
    <glyph glyph-name="cent.sinf" horiz-adv-x="385" 
d="M169 -190h-71l8 54c-68 14 -123 64 -123 145c0 101 84 164 172 168l15 91h71l-15 -92c42 -7 87 -36 97 -47l-49 -67c-10 9 -38 31 -61 32l-22 -145c28 0 61 15 76 26l20 -65c-13 -12 -47 -34 -109 -43zM120 -49l23 144c-37 -4 -70 -40 -70 -86c0 -30 14 -54 47 -58z" />
    <glyph glyph-name="sterling.sc" horiz-adv-x="502" 
d="M422 95l-4 -91c-19 -6 -74 -17 -105 -17c-41 0 -88 20 -125 20c-56 0 -155 -44 -164 -49l-26 87c12 7 71 29 113 40l19 120h-61l15 92h61l13 83c16 102 66 163 162 163c55 0 85 -20 107 -36l-59 -81c-8 8 -28 23 -52 23c-28 0 -44 -22 -49 -52l-16 -100h105l-15 -92h-108
l-18 -111c5 0 5 1 13 1c31 0 65 -17 104 -17c27 0 62 8 90 17z" />
    <glyph glyph-name="sterling.dnom" horiz-adv-x="443" 
d="M377 98l-5 -86c-19 -9 -66 -22 -112 -22c-38 0 -68 17 -107 17s-138 -36 -148 -40l-23 81c8 4 61 26 98 34l12 82h-62l12 76h62l13 79c15 92 75 132 154 132c64 0 97 -30 109 -43l-61 -69c-4 7 -17 26 -40 26c-25 0 -41 -17 -46 -47l-12 -78h105l-12 -76h-106l-11 -71
c6 1 12 1 17 1c38 0 57 -17 89 -17c22 0 58 14 74 21z" />
    <glyph glyph-name="sterling.sup" horiz-adv-x="443" 
d="M428 428l-5 -86c-19 -9 -66 -22 -112 -22c-38 0 -68 17 -107 17s-138 -36 -148 -40l-23 81c8 4 61 26 98 34l12 82h-62l12 76h62l13 79c15 92 75 132 154 132c64 0 97 -30 109 -43l-61 -69c-4 7 -17 26 -40 26c-25 0 -41 -17 -46 -47l-12 -78h105l-12 -76h-106l-11 -71
c6 1 12 1 17 1c38 0 57 -17 89 -17c22 0 58 14 74 21z" />
    <glyph glyph-name="sterling.sinf" horiz-adv-x="442" 
d="M346 -92l-5 -86c-19 -9 -66 -22 -112 -22c-38 0 -68 17 -107 17s-138 -36 -148 -40l-23 81c8 4 61 26 98 34l12 82h-62l12 76h62l13 79c15 92 75 132 154 132c64 0 97 -30 109 -43l-61 -69c-4 7 -17 26 -40 26c-25 0 -41 -17 -46 -47l-12 -78h105l-12 -76h-106l-11 -71
c6 1 12 1 17 1c38 0 57 -17 89 -17c22 0 58 14 74 21z" />
    <glyph glyph-name="Euro" unicode="&#x20ac;" horiz-adv-x="700" 
d="M571 128l30 -96c-10 -7 -95 -46 -184 -46c-114 0 -263 65 -279 259h-99l35 92h66c1 24 6 51 12 76h-76l35 91h68c48 145 163 257 341 257c90 0 149 -29 190 -57l-69 -86c-14 8 -78 38 -141 38c-65 0 -151 -31 -200 -152h262l-33 -91h-260c-7 -23 -13 -49 -14 -76h268
l-35 -92h-227c5 -88 61 -156 163 -156c74 0 139 35 147 39z" />
    <glyph glyph-name="Euro.alt" horiz-adv-x="631" 
d="M511 121l30 -76c-11 -7 -86 -57 -189 -57c-176 0 -289 143 -289 341c0 262 199 441 403 441c93 0 158 -37 188 -62l-67 -79c-9 7 -67 41 -137 41c-92 0 -186 -59 -234 -157h296l-14 -88h-317c-7 -22 -11 -50 -11 -67h317l-13 -88h-304c17 -111 69 -182 197 -182
c53 0 93 12 144 33z" />
    <glyph glyph-name="Euro.sc" horiz-adv-x="543" 
d="M430 110l24 -87c-10 -5 -69 -34 -148 -34c-118 0 -190 71 -204 184h-84l35 78h48c0 8 4 32 8 49h-61l32 78h54c50 128 136 181 260 181c58 0 107 -23 138 -42l-52 -73c-13 5 -63 29 -108 29c-58 0 -108 -20 -140 -95l204 2l-35 -80h-196c-4 -14 -8 -39 -8 -49l213 1
l-36 -79h-174c10 -73 58 -98 120 -98c48 0 104 31 110 35z" />
    <glyph glyph-name="Euro.alt.sc" horiz-adv-x="517" 
d="M400 108l26 -69c-17 -10 -76 -48 -157 -48c-137 0 -226 110 -226 255c0 191 155 317 309 317c75 0 130 -30 157 -52l-63 -73c-26 14 -62 31 -112 31c-41 0 -116 -11 -160 -89h171l-11 -70h-189c-4 -9 -8 -33 -8 -50h189l-11 -69h-173c16 -79 76 -108 142 -108
c51 0 95 17 116 25z" />
    <glyph glyph-name="Euro.dnom" horiz-adv-x="471" 
d="M368 107l28 -81c-9 -5 -71 -36 -140 -36c-105 0 -172 62 -185 156h-73l34 66h37c0 12 3 27 7 40h-56l34 66h44c45 106 125 154 229 154c55 0 103 -22 135 -43l-61 -73c-9 5 -56 27 -92 27c-38 0 -79 -11 -103 -65h170l-32 -66h-165c-3 -8 -7 -26 -7 -40h175l-31 -66h-137
c9 -50 46 -67 91 -67c40 0 94 26 98 28z" />
    <glyph glyph-name="Euro.sup" horiz-adv-x="473" 
d="M420 437l28 -81c-9 -5 -71 -36 -140 -36c-105 0 -172 62 -185 156h-73l34 66h37c0 12 3 27 7 40h-56l34 66h44c45 106 125 154 229 154c55 0 103 -22 135 -43l-61 -73c-9 5 -56 27 -92 27c-38 0 -79 -11 -103 -65h170l-32 -66h-165c-3 -8 -7 -26 -7 -40h175l-31 -66h-137
c9 -50 46 -67 91 -67c40 0 94 26 98 28z" />
    <glyph glyph-name="Euro.sinf" horiz-adv-x="471" 
d="M338 -83l28 -81c-9 -5 -71 -36 -140 -36c-105 0 -172 62 -185 156h-73l34 66h37c0 12 3 27 7 40h-56l34 66h44c45 106 125 154 229 154c55 0 103 -22 135 -43l-61 -73c-9 5 -56 27 -92 27c-38 0 -79 -11 -103 -65h170l-32 -66h-165c-3 -8 -7 -26 -7 -40h175l-31 -66h-137
c9 -50 46 -67 91 -67c40 0 94 26 98 28z" />
    <glyph glyph-name="yen.sc" horiz-adv-x="599" 
d="M476 60h-160l-8 -51h-113l8 51h-162l12 74h162l8 51h-162l12 74h135l-134 270h138l88 -213l155 213h138l-219 -270h134l-12 -74h-160l-8 -51h160z" />
    <glyph glyph-name="yen.dnom" horiz-adv-x="523" 
d="M409 41h-136l-7 -45h-113l7 45h-132l11 72h132l7 43h-132l12 72h93l-109 205h128l83 -173l137 173h127l-176 -205h98l-12 -72h-136l-7 -43h136z" />
    <glyph glyph-name="yen.sup" horiz-adv-x="518" 
d="M459 371h-136l-7 -45h-113l7 45h-132l11 72h132l7 43h-132l12 72h93l-109 205h128l83 -173l137 173h127l-176 -205h98l-12 -72h-136l-7 -43h136z" />
    <glyph glyph-name="yen.sinf" horiz-adv-x="521" 
d="M378 -149h-136l-7 -45h-113l7 45h-132l11 72h132l7 43h-132l12 72h93l-109 205h128l83 -173l137 173h127l-176 -205h98l-12 -72h-136l-7 -43h136z" />
    <glyph glyph-name="florin.sc" horiz-adv-x="350" 
d="M-70 -147l18 75c14 -5 30 -9 48 -9c19 0 32 40 36 61l55 286h-60l21 93h61l5 39c17 106 61 190 168 190c32 0 68 -16 80 -23l-26 -83c-14 6 -30 14 -47 14c-43 0 -56 -68 -67 -137h78l-20 -93h-77c-29 -165 -43 -224 -61 -305c-19 -84 -72 -130 -145 -130
c-24 0 -56 16 -67 22z" />
    <glyph glyph-name="currency.sc" horiz-adv-x="540" 
d="M452 90l-74 -57l-47 58c-29 -18 -64 -30 -102 -30c-39 0 -68 12 -93 30l-67 -60l-50 62l65 60c-11 21 -17 51 -17 81c0 53 20 95 49 130l-45 62l69 61l49 -61c32 19 65 31 103 31c39 0 70 -12 93 -30l65 59l56 -58l-67 -65c9 -18 14 -47 14 -75c0 -53 -18 -96 -49 -135z
M243 152c60 0 119 57 119 122c0 51 -36 92 -85 92c-54 0 -118 -55 -118 -120c0 -52 38 -94 84 -94z" />
    <glyph glyph-name="quotesingle.sc" horiz-adv-x="243" 
d="M175 414h-77l18 233h115z" />
    <glyph glyph-name="quotedbl.sc" horiz-adv-x="396" 
d="M177 424h-77l18 233h115zM329 424h-77l18 233h115z" />
    <glyph glyph-name="quoteleft.sc" horiz-adv-x="283" 
d="M178 337h-126l160 232h81z" />
    <glyph glyph-name="quoteright.sc" horiz-adv-x="272" 
d="M137 337h-81l116 232h125z" />
    <glyph glyph-name="quotedblleft.sc" horiz-adv-x="442" 
d="M163 337h-111l160 232h81zM327 337h-110l160 232h81z" />
    <glyph glyph-name="quotedblright.sc" horiz-adv-x="435" 
d="M300 337h-81l130 232h111zM135 337h-81l131 232h110z" />
    <glyph glyph-name="guilsinglleft.sc" horiz-adv-x="370" 
d="M278 47h-131l-108 213l172 212h131l-172 -212z" />
    <glyph glyph-name="guilsinglright.sc" horiz-adv-x="371" 
d="M141 47h-132l177 213l-106 212h132l104 -212z" />
    <glyph glyph-name="parenleft.sc" horiz-adv-x="270" 
d="M158 -106l-93 -35c-17 65 -27 167 -27 251c0 214 77 398 150 528l83 -37c-44 -83 -130 -271 -130 -476c0 -74 7 -163 17 -231z" />
    <glyph glyph-name="parenright.sc" horiz-adv-x="269" 
d="M61 -141l-80 35c72 157 128 286 128 484c0 87 -9 182 -18 223l95 37c15 -58 24 -159 24 -248c0 -204 -61 -383 -149 -531z" />
    <glyph glyph-name="parenleft.dnom" horiz-adv-x="222" 
d="M125 -112l-89 -32c-17 60 -27 147 -27 220c0 169 65 321 129 429l80 -34c-38 -69 -110 -223 -110 -385c0 -63 7 -138 17 -198z" />
    <glyph glyph-name="parenright.dnom" horiz-adv-x="221" 
d="M43 -144l-79 32c62 128 108 234 108 386c0 77 -9 160 -17 197l92 34c14 -52 23 -139 23 -217c0 -165 -51 -308 -127 -432z" />
    <glyph glyph-name="parenleft.sup" horiz-adv-x="223" 
d="M178 218l-89 -32c-17 60 -27 147 -27 220c0 169 65 321 129 429l80 -34c-38 -69 -110 -223 -110 -385c0 -63 7 -138 17 -198z" />
    <glyph glyph-name="parenright.sup" horiz-adv-x="221" 
d="M95 186l-79 32c62 128 108 234 108 386c0 77 -9 160 -17 197l92 34c14 -52 23 -139 23 -217c0 -165 -51 -308 -127 -432z" />
    <glyph glyph-name="parenleft.sinf" unicode="&#x208d;" horiz-adv-x="222" 
d="M95 -302l-89 -32c-17 60 -27 147 -27 220c0 169 65 321 129 429l80 -34c-38 -69 -110 -223 -110 -385c0 -63 7 -138 17 -198z" />
    <glyph glyph-name="parenright.sinf" unicode="&#x208e;" horiz-adv-x="221" 
d="M13 -334l-79 32c62 128 108 234 108 386c0 77 -9 160 -17 197l92 34c14 -52 23 -139 23 -217c0 -165 -51 -308 -127 -432z" />
    <glyph glyph-name="bracketleft.sc" horiz-adv-x="429" 
d="M321 -134h-197l117 737h197l-14 -85h-99l-90 -567h99zM138 248c0 -41 -38 -77 -81 -77c-34 0 -60 27 -60 59c0 44 40 78 82 78c35 0 59 -25 59 -60z" />
    <glyph glyph-name="bracketright.sc" horiz-adv-x="430" 
d="M165 -133h-196l13 85h94l90 568l-94 -1l14 84h196zM411 248c0 -42 -41 -77 -83 -77c-36 0 -61 27 -61 59c0 44 39 78 83 78c35 0 61 -25 61 -60z" />
    <glyph glyph-name="bracketleft.dnom" horiz-adv-x="273" 
d="M172 -120h-181l97 615h181l-12 -81h-88l-72 -454h88z" />
    <glyph glyph-name="bracketright.dnom" horiz-adv-x="271" 
d="M145 -120h-181l13 80h84l72 456h-84l12 79h181z" />
    <glyph glyph-name="bracketleft.sup" horiz-adv-x="272" 
d="M224 210h-181l97 615h181l-12 -81h-88l-72 -454h88z" />
    <glyph glyph-name="bracketright.sup" horiz-adv-x="271" 
d="M197 210h-181l13 80h84l72 456h-84l12 79h181z" />
    <glyph glyph-name="bracketleft.sinf" horiz-adv-x="272" 
d="M142 -310h-181l97 615h181l-12 -81h-88l-72 -454h88z" />
    <glyph glyph-name="bracketright.sinf" horiz-adv-x="271" 
d="M115 -310h-181l13 80h84l72 456h-84l12 79h181z" />
    <glyph glyph-name="braceleft.sc" horiz-adv-x="336" 
d="M243 -60l-36 -80c-111 11 -159 42 -141 161l13 87c7 46 -6 81 -76 117c82 36 106 71 113 117l14 87c19 119 78 150 193 161l10 -80c-76 -11 -94 -46 -101 -89l-14 -87c-7 -47 -23 -79 -53 -109c20 -30 26 -62 19 -109l-14 -87c-7 -43 1 -78 73 -89z" />
    <glyph glyph-name="braceright.sc" horiz-adv-x="340" 
d="M-13 -140l-10 80c76 11 94 46 101 89l14 87c7 47 23 79 53 109c-20 30 -26 62 -19 109l14 87c7 43 0 78 -73 89l36 80c112 -11 159 -42 141 -161l-13 -87c-7 -46 6 -81 76 -117c-82 -36 -106 -71 -113 -117l-14 -87c-19 -119 -77 -150 -193 -161z" />
    <glyph glyph-name="braceleft.dnom" horiz-adv-x="296" 
d="M215 -34l-37 -80c-95 9 -150 33 -134 130l13 79c6 35 -8 63 -74 96c76 33 98 61 104 96l13 79c16 97 77 121 174 130l13 -80c-75 -10 -86 -33 -91 -65l-11 -71c-6 -39 -15 -63 -52 -89c29 -26 30 -50 24 -89l-11 -71c-5 -32 -2 -55 69 -65z" />
    <glyph glyph-name="braceright.dnom" horiz-adv-x="299" 
d="M-17 -114l-11 80c75 10 85 33 90 65l12 71c6 39 15 63 52 89c-29 26 -30 50 -24 89l11 71c5 32 2 55 -70 65l37 80c95 -9 149 -33 134 -130l-12 -79c-6 -35 8 -63 74 -96c-77 -33 -99 -61 -105 -96l-12 -79c-15 -97 -78 -121 -176 -130z" />
    <glyph glyph-name="braceleft.sup" horiz-adv-x="299" 
d="M270 296l-37 -80c-95 9 -150 33 -134 130l13 79c6 35 -8 63 -74 96c76 33 98 61 104 96l13 79c16 97 77 121 174 130l13 -80c-75 -10 -86 -33 -91 -65l-11 -71c-6 -39 -15 -63 -52 -89c29 -26 30 -50 24 -89l-11 -71c-5 -32 -2 -55 69 -65z" />
    <glyph glyph-name="braceright.sup" horiz-adv-x="299" 
d="M35 216l-11 80c75 10 85 33 90 65l12 71c6 39 15 63 52 89c-29 26 -30 50 -24 89l11 71c5 32 2 55 -70 65l37 80c95 -9 149 -33 134 -130l-12 -79c-6 -35 8 -63 74 -96c-77 -33 -99 -61 -105 -96l-12 -79c-15 -97 -78 -121 -176 -130z" />
    <glyph glyph-name="braceleft.sinf" horiz-adv-x="299" 
d="M188 -224l-37 -80c-95 9 -150 33 -134 130l13 79c6 35 -8 63 -74 96c76 33 98 61 104 96l13 79c16 97 77 121 174 130l13 -80c-75 -10 -86 -33 -91 -65l-11 -71c-6 -39 -15 -63 -52 -89c29 -26 30 -50 24 -89l-11 -71c-5 -32 -2 -55 69 -65z" />
    <glyph glyph-name="braceright.sinf" horiz-adv-x="300" 
d="M-47 -304l-11 80c75 10 85 33 90 65l12 71c6 39 15 63 52 89c-29 26 -30 50 -24 89l11 71c5 32 2 55 -70 65l37 80c95 -9 149 -33 134 -130l-12 -79c-6 -35 8 -63 74 -96c-77 -33 -99 -61 -105 -96l-12 -79c-15 -97 -78 -121 -176 -130z" />
    <glyph glyph-name="grave.cap" horiz-adv-x="436" 
d="M487 829l-300 49l64 105l282 -69z" />
    <glyph glyph-name="acute.cap" horiz-adv-x="436" 
d="M527 879l-315 -49l-19 84l304 69z" />
    <glyph glyph-name="circumflex.cap" horiz-adv-x="514" 
d="M536 808l-144 65l-169 -65l-36 72l224 101l193 -105z" />
    <glyph glyph-name="caron.cap" horiz-adv-x="498" 
d="M610 903l-226 -105l-193 103l58 72l151 -68l163 66z" />
    <glyph glyph-name="tilde.cap" horiz-adv-x="514" 
d="M566 980l43 -84c-31 -25 -99 -73 -153 -73c-58 0 -79 49 -121 49c-32 0 -71 -28 -103 -50l-42 77c31 25 114 74 164 74s73 -51 113 -51c35 0 80 40 99 58z" />
    <glyph glyph-name="apple" horiz-adv-x="1193" 
d="M718 0h-243l-121 607l242 238l243 -238zM414 0h-206l-158 206l103 197l201 -99zM985 0h-206l60 304l201 99l103 -197z" />
    <glyph glyph-name="paragraph.sc" horiz-adv-x="563" 
d="M349 531l-83 -522c-148 0 -234 96 -234 220c0 158 134 302 317 302zM416 -138h-116l106 672h116z" />
    <glyph glyph-name="brokenbar.sc" horiz-adv-x="265" 
d="M118 -95h-100l45 286h100zM185 325h-100l45 284h100z" />
    <glyph glyph-name="bar.sc" horiz-adv-x="262" 
d="M116 -95h-99l112 704h99z" />
    <glyph glyph-name="ampersand.alt.sc" horiz-adv-x="607" 
d="M577 0h-154l-46 69c-40 -41 -104 -78 -178 -78c-112 0 -181 84 -181 174c0 105 93 179 156 203c-14 21 -21 43 -21 64c0 61 57 115 146 115c94 0 120 -59 123 -65l-76 -58c-5 12 -24 39 -49 39c-20 0 -40 -18 -40 -43c0 -14 7 -25 15 -36zM327 142l-107 158
c-38 -11 -85 -59 -85 -121c0 -60 43 -96 88 -96c42 0 86 32 104 59z" />
    <glyph glyph-name="ampersand.sc" horiz-adv-x="613" 
d="M577 0h-154l-46 69c-40 -41 -104 -78 -178 -78c-112 0 -181 84 -181 174c0 105 93 179 156 203c-14 21 -21 43 -21 64c0 61 57 115 146 115c94 0 120 -59 123 -65l-76 -58c-5 12 -24 39 -49 39c-20 0 -40 -18 -40 -43c0 -14 6 -26 15 -36h208l-39 -88h-99zM327 142
l-107 158c-38 -11 -85 -59 -85 -121c0 -60 43 -96 88 -96c42 0 86 32 104 59z" />
    <glyph glyph-name="ampersand.alt" horiz-adv-x="716" 
d="M694 0h-141l-70 108c-38 -46 -117 -120 -232 -120c-133 0 -222 105 -222 235c0 141 100 244 195 282c-22 34 -32 70 -32 102c0 90 77 163 185 163c88 0 134 -57 150 -73l-80 -71c-14 16 -44 47 -80 47c-29 0 -64 -21 -64 -69c0 -25 11 -48 28 -74zM431 187l-158 242
c-31 -8 -139 -60 -139 -192c0 -92 63 -150 139 -150c80 0 141 69 158 100z" />
    <glyph glyph-name="numbersign.alt.sc" horiz-adv-x="987" 
d="M529 -20l-334 325l-46 -305h-123l90 554l334 -328l47 312h121zM948 358c0 -87 -73 -162 -167 -162c-81 0 -128 56 -128 127c0 94 81 162 168 162c79 0 127 -57 127 -127zM791 275c33 0 58 33 58 79c0 28 -9 53 -35 53c-32 0 -62 -36 -62 -81c0 -29 12 -51 39 -51zM848 47
h-203l28 84h203z" />
    </font>
</defs>
</svg>
