<?xml version="1.0" standalone="no"?>
<!DOCTYPE svg PUBLIC "-//W3C//DTD SVG 1.1//EN" "http://www.w3.org/Graphics/SVG/1.1/DTD/svg11.dtd" >
<svg>
<metadata>
Created by FontForge 20120731 at Mon Aug 19 06:46:57 2019
 By www-data
Copyright (c) 2011 Canada Type. Designed by Patrick Griffin &#38; Bill Troop. All rights reserved.
</metadata>
<defs>
<font id="SemplicitaPro-Light" horiz-adv-x="537" >
  <font-face 
    font-family="SemplicitaPro"
    font-weight="300"
    font-stretch="normal"
    units-per-em="1000"
    panose-1="2 0 3 3 0 0 0 0 0 0"
    ascent="800"
    descent="-200"
    x-height="470"
    cap-height="757"
    bbox="-152 -293 1257 1042"
    underline-thickness="50"
    underline-position="-100"
    stemh="41"
    stemv="44"
    unicode-range="U+0020-FB04"
  />
<missing-glyph horiz-adv-x="570" 
d="M520 0h-470v757h470v-757zM475 41v675h-380v-675h380z" />
    <glyph glyph-name=".notdef" horiz-adv-x="570" 
d="M520 0h-470v757h470v-757zM475 41v675h-380v-675h380z" />
    <glyph glyph-name="space" unicode=" " horiz-adv-x="240" 
 />
    <glyph glyph-name="exclam" unicode="!" horiz-adv-x="245" 
d="M141 188h-37l-16 569h69zM168 33c0 -24 -20 -44 -46 -44c-24 0 -44 20 -44 44c0 26 20 46 44 46c28 0 46 -20 46 -46z" />
    <glyph glyph-name="quotedbl" unicode="&#x22;" horiz-adv-x="336" 
d="M116 488h-36l-9 273h54zM256 488h-36l-9 273h54z" />
    <glyph glyph-name="numbersign" unicode="#" horiz-adv-x="653" 
d="M401 -12l-41 3l32 257h-165l-32 -260l-41 3l32 257h-130l7 41h128l21 172h-128l7 41h126l33 260l42 -3l-33 -257h165l33 260l42 -3l-33 -257h131l-6 -41h-130l-22 -172h129l-4 -41h-130zM397 289l22 172h-165l-22 -172h165z" />
    <glyph glyph-name="dollar" unicode="$" horiz-adv-x="550" 
d="M306 -101h-39v92c-100 0 -185 53 -212 94l30 35c25 -34 81 -83 182 -84v337c-81 40 -173 87 -173 192c0 109 80 171 173 179v99h39v-99c75 -5 129 -43 152 -67l-29 -33c-27 26 -64 52 -123 56v-292c110 -58 176 -97 176 -223c0 -86 -64 -174 -176 -191v-95zM306 353v-314
c72 13 124 66 124 145c0 80 -28 117 -124 169zM267 428v272c-66 -8 -123 -49 -123 -128c0 -83 59 -112 123 -144z" />
    <glyph glyph-name="percent" unicode="%" horiz-adv-x="832" 
d="M259 -20l-30 12l325 778l31 -13zM343 616c0 -81 -65 -145 -146 -145s-145 64 -145 145s64 146 145 146s146 -65 146 -146zM198 506c61 0 108 49 108 110s-47 110 -108 110s-108 -49 -108 -110s47 -110 108 -110zM780 133c0 -81 -65 -145 -146 -145s-145 64 -145 145
s64 146 145 146s146 -65 146 -146zM635 23c61 0 108 49 108 110s-47 110 -108 110s-108 -49 -108 -110s47 -110 108 -110z" />
    <glyph glyph-name="ampersand" unicode="&#x26;" horiz-adv-x="723" 
d="M739 0l-68 -1l-114 139c-8 -29 -88 -151 -243 -151c-150 0 -264 119 -264 261s103 237 191 256c-12 14 -60 64 -60 124c0 82 56 142 143 142c76 0 107 -37 123 -51l-31 -32c-14 13 -42 40 -92 40c-47 0 -97 -26 -97 -95c0 -49 34 -88 64 -123l259 1l-10 -38l-216 -1z
M525 172l-254 295c-22 -2 -171 -55 -171 -214c0 -136 113 -222 215 -222c141 0 202 115 210 141z" />
    <glyph glyph-name="quoteright" unicode="&#x2019;" horiz-adv-x="214" 
d="M99 575h-42l63 182h51z" />
    <glyph glyph-name="parenleft" unicode="(" horiz-adv-x="232" 
d="M184 -252l-36 -16c-49 136 -79 329 -79 543c0 240 37 438 79 561l36 -15c-29 -92 -74 -304 -74 -544c0 -207 33 -367 74 -529z" />
    <glyph glyph-name="parenright" unicode=")" horiz-adv-x="231" 
d="M84 -268l-36 16c41 162 74 322 74 529c0 240 -45 452 -74 544l36 15c42 -123 78 -321 78 -561c0 -214 -29 -407 -78 -543z" />
    <glyph glyph-name="asterisk" unicode="*" horiz-adv-x="494" 
d="M198 635l-129 40l11 40l127 -50zM262 680h-29l-6 142h41zM369 503l-31 -27l-79 114l24 19zM158 476l-33 23l84 107l22 -14zM425 676l-130 -41l-10 29l127 52z" />
    <glyph glyph-name="plus" unicode="+" horiz-adv-x="620" 
d="M333 104h-46v238h-227v44h227v238h46v-238h227v-44h-227v-238z" />
    <glyph glyph-name="comma" unicode="," horiz-adv-x="217" 
d="M64 -106h-42l71 182h53z" />
    <glyph glyph-name="hyphen" unicode="-" horiz-adv-x="394" 
d="M317 227h-245l5 40h245z" />
    <glyph glyph-name="period" unicode="." horiz-adv-x="228" 
d="M158 33c0 -23 -19 -43 -44 -43c-24 0 -44 20 -44 43c0 26 20 45 44 45c25 0 44 -19 44 -45z" />
    <glyph glyph-name="slash" unicode="/" horiz-adv-x="534" 
d="M82 -216l-40 15l411 1021l40 -18z" />
    <glyph glyph-name="zero" unicode="0" horiz-adv-x="648" 
d="M324 -12c-212 0 -249 224 -249 386c0 158 36 388 248 388c213 0 251 -220 251 -388c0 -165 -39 -386 -250 -386zM324 32c184 0 202 226 202 342c0 124 -22 343 -203 343c-178 0 -200 -211 -200 -343c0 -115 24 -342 201 -342z" />
    <glyph glyph-name="one" unicode="1" horiz-adv-x="329" 
d="M215 -4h-46v706l-122 -60l-15 39l183 87v-772z" />
    <glyph glyph-name="two" unicode="2" horiz-adv-x="584" 
d="M524 0h-502c88 75 183 161 275 257c67 70 156 186 156 294c0 90 -65 167 -157 167c-76 0 -136 -52 -159 -83l-28 32c26 29 91 95 191 95c121 0 201 -92 201 -211c0 -128 -106 -256 -167 -320c-74 -76 -158 -151 -210 -188l400 3v-46z" />
    <glyph glyph-name="three" unicode="3" horiz-adv-x="553" 
d="M40 65l21 39c14 -19 71 -73 174 -73c133 0 196 82 196 170c0 97 -78 200 -224 207l1 21c136 14 198 93 198 164c0 65 -51 123 -143 123c-46 0 -95 -16 -131 -43l-18 34c15 17 82 55 155 55c115 0 184 -83 184 -170c0 -66 -39 -133 -127 -170v-2
c103 -41 154 -129 154 -215c0 -110 -83 -217 -244 -217c-114 0 -180 59 -196 77z" />
    <glyph glyph-name="four" unicode="4" horiz-adv-x="611" 
d="M460 -4h-46v159h-387l433 617v-573h99v-44h-99v-159zM414 199v432l-302 -432h302z" />
    <glyph glyph-name="five" unicode="5" horiz-adv-x="550" 
d="M41 43l23 41c52 -36 108 -52 160 -52c148 0 213 103 213 203c0 97 -69 192 -214 192c-34 0 -70 -6 -109 -19l95 342h258l-12 -44h-213l-64 -241c20 3 40 5 59 5c140 0 248 -90 248 -226c0 -134 -87 -256 -257 -256c-88 0 -166 40 -187 55z" />
    <glyph glyph-name="six" unicode="6" horiz-adv-x="591" 
d="M353 766l31 -33c-59 -62 -163 -204 -224 -323c34 39 106 53 146 53c141 0 240 -112 240 -243c0 -123 -103 -233 -240 -233c-141 0 -243 111 -243 233c0 187 209 455 290 546zM496 220c0 105 -74 199 -192 199c-115 0 -193 -88 -193 -199c0 -104 88 -187 195 -187
c114 0 190 88 190 187z" />
    <glyph glyph-name="seven" unicode="7" horiz-adv-x="506" 
d="M124 -6h-49l347 712l-374 -1v45h445z" />
    <glyph glyph-name="eight" unicode="8" horiz-adv-x="597" 
d="M392 378c63 -29 128 -82 128 -179c0 -116 -102 -212 -222 -212c-122 0 -222 94 -222 212c0 97 71 150 131 180c-76 33 -125 97 -125 175c0 132 112 209 217 209c116 0 217 -80 217 -209c0 -78 -54 -143 -124 -176zM470 194c0 90 -77 165 -172 165
c-96 0 -173 -74 -173 -165s77 -165 173 -165s172 75 172 165zM465 554c0 95 -72 166 -166 166c-93 0 -168 -72 -168 -163c0 -84 73 -156 169 -156c93 0 165 69 165 153z" />
    <glyph glyph-name="nine" unicode="9" horiz-adv-x="592" 
d="M240 -15l-31 33c59 62 162 202 223 321c-34 -39 -106 -52 -146 -52c-141 0 -240 111 -240 242c0 123 103 233 240 233c141 0 243 -111 243 -233c0 -187 -208 -453 -289 -544zM288 331c115 0 193 87 193 198c0 104 -88 187 -195 187c-114 0 -190 -88 -190 -187
c0 -105 74 -198 192 -198z" />
    <glyph glyph-name="colon" unicode=":" horiz-adv-x="232" 
d="M160 33c0 -22 -19 -43 -45 -43c-23 0 -43 21 -43 43c0 27 20 46 43 46c26 0 45 -19 45 -46zM160 402c0 -24 -19 -42 -45 -42c-23 0 -43 18 -43 42c0 27 20 45 43 45c26 0 45 -18 45 -45z" />
    <glyph glyph-name="semicolon" unicode=";" horiz-adv-x="257" 
d="M181 403c0 -24 -18 -42 -45 -42c-23 0 -42 18 -42 42c0 26 19 44 43 44c26 0 44 -18 44 -44zM80 -106h-42l71 182h53z" />
    <glyph glyph-name="less" unicode="&#x3c;" horiz-adv-x="597" 
d="M489 79l-436 277v28l436 260l20 -37l-406 -237l406 -256z" />
    <glyph glyph-name="equal" unicode="=" horiz-adv-x="674" 
d="M587 224h-500v44h500v-44zM587 458h-500v44h500v-44z" />
    <glyph glyph-name="greater" unicode="&#x3e;" horiz-adv-x="595" 
d="M542 356l-436 -260l-20 37l406 237l-406 256l20 35l436 -277v-28z" />
    <glyph glyph-name="question" unicode="?" horiz-adv-x="469" 
d="M382 305l26 -27c-18 -33 -89 -97 -185 -97c-74 0 -156 54 -156 141c0 86 62 128 115 165c69 48 138 95 138 157c0 49 -37 85 -87 85c-54 0 -95 -29 -114 -44l-20 34c20 19 70 53 139 53c85 0 126 -64 126 -127c0 -87 -91 -141 -153 -187c-55 -41 -102 -63 -102 -135
c0 -56 54 -101 119 -101c78 0 131 54 154 83zM256 33c0 -23 -19 -43 -44 -43c-24 0 -44 20 -44 43c0 26 20 45 44 45c25 0 44 -19 44 -45z" />
    <glyph glyph-name="at" unicode="@" horiz-adv-x="1067" 
d="M805 -178l13 -37c-87 -37 -169 -45 -234 -45c-284 0 -519 230 -519 514s215 516 499 516s449 -189 449 -438c0 -157 -138 -362 -397 -362c-171 0 -263 112 -263 213c0 83 62 158 192 158c68 0 114 -22 158 -57v68c0 67 -51 118 -143 118c-63 0 -118 -22 -132 -28l-20 35
c29 14 80 34 150 34c151 0 189 -71 189 -172v-157h-13c-48 98 -127 118 -188 118c-102 0 -149 -55 -149 -117c0 -80 79 -172 220 -172c221 0 356 166 356 330c0 144 -92 389 -412 389c-260 0 -455 -211 -455 -489c0 -238 216 -461 475 -461c76 0 149 8 224 42z" />
    <glyph glyph-name="A" unicode="A" horiz-adv-x="671" 
d="M673 0h-50l-97 224h-381l-97 -224h-51l339 777zM507 268l-151 352c-7 14 -18 42 -20 50l-20 -50l-152 -352h343z" />
    <glyph glyph-name="B" unicode="B" horiz-adv-x="600" 
d="M291 0h-185v757h139c133 0 234 -40 234 -187c0 -78 -63 -146 -128 -167c80 -8 193 -72 193 -195c0 -128 -89 -208 -253 -208zM154 410h61c131 0 215 70 215 161c0 106 -74 142 -178 142h-98v-303zM154 44h138c136 0 202 66 202 163c0 90 -84 159 -194 159h-146v-322z" />
    <glyph glyph-name="C" unicode="C" horiz-adv-x="746" 
d="M675 113l23 -33c-69 -60 -154 -93 -248 -93c-227 0 -395 176 -395 391c0 216 168 392 395 392c94 0 179 -33 248 -94l-29 -36c-42 44 -112 85 -228 85c-188 0 -336 -143 -336 -352c0 -194 157 -342 346 -342c90 0 170 31 224 82z" />
    <glyph glyph-name="D" unicode="D" horiz-adv-x="727" 
d="M271 0h-165v757h155c223 0 408 -131 408 -379c0 -233 -165 -378 -398 -378zM154 44h92c219 0 373 110 373 337c0 228 -171 332 -371 332h-94v-669z" />
    <glyph glyph-name="E" unicode="E" horiz-adv-x="547" 
d="M512 1h-406v755h373v-43h-325v-284h261v-44h-261v-341h358v-43z" />
    <glyph glyph-name="F" unicode="F" horiz-adv-x="500" 
d="M154 0h-48v756h366v-43h-318v-284h256v-44h-256v-385z" />
    <glyph glyph-name="G" unicode="G" horiz-adv-x="831" 
d="M741 299h-214v43h263c-2 -240 -171 -355 -348 -355c-212 0 -387 177 -387 389c0 219 166 394 396 394c172 0 273 -103 277 -108l-30 -35c-5 6 -100 98 -245 98c-214 0 -348 -152 -348 -350c0 -171 137 -344 338 -344c149 0 283 91 298 268z" />
    <glyph glyph-name="H" unicode="H" horiz-adv-x="749" 
d="M643 0h-48v363h-441v-363h-48v757h48v-350h441v350h48v-757z" />
    <glyph glyph-name="I" unicode="I" horiz-adv-x="260" 
d="M154 0h-48v757h48v-757z" />
    <glyph glyph-name="J" unicode="J" horiz-adv-x="260" 
d="M-25 -265l-19 44c119 51 150 96 150 289v689h48v-694c0 -214 -43 -268 -179 -328z" />
    <glyph glyph-name="K" unicode="K" horiz-adv-x="617" 
d="M630 0h-80l-396 355v-355h-48v757h48v-358l354 358h70l-383 -379z" />
    <glyph glyph-name="L" unicode="L" horiz-adv-x="505" 
d="M480 1h-374v756h48v-713h326v-43z" />
    <glyph glyph-name="M" unicode="M" horiz-adv-x="963" 
d="M892 0h-49l-55 588l-1 26l-8 -20l-298 -622l-298 622l-8 20c0 -8 0 -20 -1 -26l-54 -588h-49l76 778l319 -661c3 -6 14 -29 16 -40c2 11 13 34 16 40l317 661z" />
    <glyph glyph-name="N" unicode="N" horiz-adv-x="847" 
d="M742 -25l-588 672v-647h-48v775l588 -669v651h48v-782z" />
    <glyph glyph-name="O" unicode="O" horiz-adv-x="903" 
d="M848 375c0 -216 -179 -388 -395 -388c-223 0 -398 174 -398 391c0 218 175 392 398 392c221 0 395 -166 395 -395zM798 376c0 204 -156 349 -345 349c-194 0 -348 -145 -348 -343c0 -187 151 -351 341 -351c200 0 352 149 352 345z" />
    <glyph glyph-name="P" unicode="P" horiz-adv-x="544" 
d="M154 0h-48v757h134c135 0 265 -59 265 -214c0 -132 -89 -234 -281 -234h-70v-309zM154 353h72c141 0 230 67 230 189c0 113 -86 171 -206 171h-96v-360z" />
    <glyph glyph-name="Q" unicode="Q" horiz-adv-x="903" 
d="M811 -90l-152 134c-60 -36 -131 -57 -206 -57c-223 0 -398 174 -398 391c0 218 175 392 398 392c221 0 395 -166 395 -395c0 -124 -59 -233 -150 -304l148 -121zM798 376c0 204 -156 349 -345 349c-194 0 -348 -145 -348 -343c0 -187 151 -351 341 -351
c200 0 352 149 352 345z" />
    <glyph glyph-name="R" unicode="R" horiz-adv-x="579" 
d="M586 0h-71l-318 309h-43v-309h-48v757h145c114 0 254 -51 254 -214c0 -132 -94 -226 -250 -233zM154 353h60c155 0 242 67 242 189c0 114 -89 171 -205 171h-97v-360z" />
    <glyph glyph-name="S" unicode="S" horiz-adv-x="533" 
d="M37 84l31 35c27 -35 85 -87 194 -87c95 0 170 60 170 155c0 225 -354 175 -354 398c0 122 97 187 204 187c88 0 151 -43 177 -71l-30 -33c-30 30 -74 60 -147 60c-79 0 -154 -44 -154 -136c0 -193 356 -138 356 -404c0 -98 -82 -201 -226 -201c-104 0 -193 55 -221 97z
" />
    <glyph glyph-name="T" unicode="T" horiz-adv-x="530" 
d="M289 0h-48v713h-219v43h486v-43h-219v-713z" />
    <glyph glyph-name="U" unicode="U" horiz-adv-x="740" 
d="M590 95v662h48v-676c-44 -52 -135 -94 -270 -94c-166 0 -269 95 -269 285v485h48v-472c0 -185 82 -254 244 -254c67 0 154 18 199 64z" />
    <glyph glyph-name="V" unicode="V" horiz-adv-x="615" 
d="M308 -28l-308 785h59l245 -637c4 -10 5 -25 6 -35c1 10 2 25 6 35l240 637h58z" />
    <glyph glyph-name="W" unicode="W" horiz-adv-x="991" 
d="M737 -28l-241 663l-238 -663l-246 785h56l189 -617c4 -12 5 -24 6 -34c1 10 3 22 7 34l228 638l231 -638c4 -12 5 -24 6 -34c1 10 3 23 6 34l183 617h54z" />
    <glyph glyph-name="X" unicode="X" horiz-adv-x="589" 
d="M569 0h-55l-220 345l-224 -345h-55l254 391l-234 366h55l207 -324l208 324h55l-239 -366z" />
    <glyph glyph-name="Y" unicode="Y" horiz-adv-x="523" 
d="M285 0h-48v328l-240 429h57l204 -365c2 -3 4 -5 5 -15c1 10 3 12 5 15l206 365h54l-243 -429v-328z" />
    <glyph glyph-name="Z" unicode="Z" horiz-adv-x="557" 
d="M527 1h-523l429 712h-358v43h441l-429 -712h440v-43z" />
    <glyph glyph-name="bracketleft" unicode="[" horiz-adv-x="275" 
d="M237 -216h-150v1036h150v-42h-108v-955h108v-39z" />
    <glyph glyph-name="backslash" unicode="\" horiz-adv-x="532" 
d="M491 -202l-40 -14l-410 1019l40 17z" />
    <glyph glyph-name="bracketright" unicode="]" horiz-adv-x="276" 
d="M189 -216h-150v42h108v955h-108v39h150v-1036z" />
    <glyph glyph-name="asciicircum" unicode="^" horiz-adv-x="605" 
d="M517 413h-51l-164 354l-164 -354h-50l190 401h48z" />
    <glyph glyph-name="underscore" unicode="_" horiz-adv-x="609" 
d="M552 -20h-495v40h495v-40z" />
    <glyph glyph-name="quoteleft" unicode="&#x2018;" horiz-adv-x="215" 
d="M106 575h-51l72 182h42z" />
    <glyph glyph-name="a" unicode="a" horiz-adv-x="503" 
d="M391 76v133c-30 28 -80 64 -157 64c-66 0 -152 -35 -152 -115c0 -87 73 -129 153 -129c70 0 122 20 156 47zM391 254v70c0 67 -51 118 -143 118c-63 0 -118 -22 -132 -28l-20 35c29 14 80 34 150 34c151 0 189 -71 189 -172v-254c-47 -45 -118 -69 -202 -69
c-135 0 -197 81 -197 170c0 105 115 155 196 155c62 0 120 -21 159 -59z" />
    <glyph glyph-name="b" unicode="b" horiz-adv-x="573" 
d="M76 53v767h44v-413c25 28 97 76 180 76c156 0 225 -115 225 -245c0 -167 -125 -250 -256 -250c-68 0 -137 21 -193 65zM120 354v-279c25 -21 93 -46 149 -46c113 0 210 71 210 210c0 113 -64 203 -184 203c-70 0 -146 -49 -175 -88z" />
    <glyph glyph-name="c" unicode="c" horiz-adv-x="511" 
d="M457 97l23 -27c-44 -58 -116 -82 -189 -82c-138 0 -244 103 -244 246c0 144 102 249 247 249c92 0 151 -50 163 -65l-26 -30c-11 12 -61 54 -141 54c-93 0 -197 -65 -197 -208c0 -131 94 -205 202 -205c80 0 126 30 162 68z" />
    <glyph glyph-name="d" unicode="d" horiz-adv-x="573" 
d="M453 76v287c-26 46 -94 79 -165 79c-116 0 -194 -78 -194 -214c0 -134 98 -199 210 -199c44 0 100 12 149 47zM453 423v397h44v-767c-55 -44 -124 -65 -193 -65c-131 0 -256 75 -256 240c0 156 99 255 240 255c62 0 126 -22 165 -60z" />
    <glyph glyph-name="e" unicode="e" 
d="M455 100l25 -26c-37 -51 -106 -86 -194 -86c-136 0 -238 99 -238 244c0 149 91 251 237 251c143 0 207 -115 207 -230v-9h-398c0 -13 1 -26 1 -31c9 -122 98 -184 200 -184c85 0 137 41 160 71zM97 284h348c-10 85 -63 158 -164 158c-97 0 -160 -60 -179 -132
c-2 -8 -4 -16 -5 -26z" />
    <glyph glyph-name="f" unicode="f" horiz-adv-x="285" 
d="M149 0h-44v429h-80v41h80v149c0 68 14 117 40 149c26 31 67 47 109 47c37 0 65 -12 73 -18l-21 -42c-7 5 -29 16 -58 16c-67 0 -99 -56 -99 -142v-159h117v-41h-117v-429z" />
    <glyph glyph-name="g" unicode="g" horiz-adv-x="574" 
d="M453 -27v101c-41 -52 -110 -86 -176 -86c-112 0 -229 88 -229 245c0 164 125 250 256 250c96 0 166 -39 193 -65v-446c0 -179 -112 -232 -217 -232c-58 0 -120 14 -182 54l23 36c51 -34 113 -48 163 -48c69 0 169 24 169 191zM453 129v270c-16 11 -69 43 -151 43
c-106 0 -208 -69 -208 -209c0 -92 58 -203 196 -203c56 0 131 43 163 99z" />
    <glyph glyph-name="h" unicode="h" horiz-adv-x="538" 
d="M463 0h-44v288c0 109 -42 151 -141 151c-76 0 -132 -42 -155 -66v-373h-44v820h44v-400c27 24 80 63 162 63c113 0 178 -55 178 -177v-306z" />
    <glyph glyph-name="i" unicode="i" horiz-adv-x="210" 
d="M127 0h-44v471h44v-471zM145 610c0 -21 -17 -39 -40 -39c-22 0 -40 18 -40 39c0 24 18 41 40 41c23 0 40 -17 40 -41z" />
    <glyph glyph-name="j" unicode="j" horiz-adv-x="210" 
d="M8 -268l-19 38c94 45 94 65 94 267v434h44v-428c0 -209 -1 -255 -119 -311zM146 610c0 -21 -17 -39 -40 -39c-22 0 -40 18 -40 39c0 24 18 41 40 41c23 0 40 -17 40 -41z" />
    <glyph glyph-name="k" unicode="k" horiz-adv-x="443" 
d="M445 0h-71l-251 249v-249h-44v820h44v-551l201 202h61l-213 -208z" />
    <glyph glyph-name="l" unicode="l" horiz-adv-x="218" 
d="M131 0h-44v820h44v-820z" />
    <glyph glyph-name="m" unicode="m" horiz-adv-x="818" 
d="M743 0h-44v308c0 89 -32 131 -121 131c-63 0 -116 -36 -151 -70c4 -16 6 -34 6 -54v-315h-44v308c0 89 -32 131 -121 131c-66 0 -122 -42 -145 -66v-373h-44v471h44v-51c27 24 90 63 152 63c64 0 115 -22 140 -76c48 44 115 76 170 76c93 0 158 -46 158 -168v-315z" />
    <glyph glyph-name="n" unicode="n" horiz-adv-x="538" 
d="M463 0h-44v288c0 109 -42 151 -141 151c-76 0 -132 -42 -155 -66v-373h-44v471h44v-51c27 24 80 63 162 63c113 0 178 -55 178 -177v-306z" />
    <glyph glyph-name="o" unicode="o" horiz-adv-x="593" 
d="M546 235c0 -138 -109 -247 -249 -247s-250 107 -250 247c0 141 110 248 250 248s249 -110 249 -248zM500 235c0 119 -95 206 -205 206c-121 0 -203 -88 -203 -209c0 -117 97 -202 203 -202c121 0 205 83 205 205z" />
    <glyph glyph-name="p" unicode="p" horiz-adv-x="573" 
d="M121 -255h-44v673c55 45 125 65 193 65c131 0 256 -83 256 -250c0 -130 -84 -245 -230 -245c-71 0 -140 34 -175 71v-314zM121 399v-280c33 -49 100 -90 175 -90c100 0 184 74 184 203c0 120 -81 210 -216 210c-56 0 -118 -23 -143 -43z" />
    <glyph glyph-name="q" unicode="q" horiz-adv-x="574" 
d="M497 -255h-44v329c-41 -52 -110 -86 -176 -86c-112 0 -229 88 -229 245c0 164 125 250 256 250c96 0 166 -39 193 -65v-673zM453 129v270c-16 11 -69 43 -151 43c-106 0 -208 -69 -208 -209c0 -92 58 -203 196 -203c56 0 131 43 163 99z" />
    <glyph glyph-name="r" unicode="r" horiz-adv-x="310" 
d="M123 0h-44v471h44v-65c3 21 46 77 100 77c33 0 70 -17 77 -21l-26 -42c-9 6 -28 18 -52 18c-55 0 -93 -60 -99 -95v-343z" />
    <glyph glyph-name="s" unicode="s" horiz-adv-x="393" 
d="M29 60l29 30c21 -25 57 -63 131 -63c66 0 114 36 114 105c0 114 -235 92 -235 230c0 69 54 122 138 122c52 0 106 -27 130 -56l-23 -33c-12 14 -56 50 -110 50c-70 0 -92 -45 -92 -78c0 -103 238 -90 238 -235c0 -87 -70 -145 -161 -145c-79 0 -134 39 -159 73z" />
    <glyph glyph-name="t" unicode="t" horiz-adv-x="280" 
d="M152 0h-44v429h-87v41h87v171h44v-171h114v-41h-114v-429z" />
    <glyph glyph-name="u" unicode="u" horiz-adv-x="536" 
d="M416 73v398h44v-417c-45 -43 -106 -66 -192 -66c-114 0 -194 60 -194 180v303h44v-293c0 -99 57 -149 149 -149c75 0 121 24 149 44z" />
    <glyph glyph-name="v" unicode="v" horiz-adv-x="447" 
d="M224 -22h-2l-212 493h49l139 -326c9 -20 23 -56 27 -76h1c3 20 17 51 27 75l136 327h48z" />
    <glyph glyph-name="w" unicode="w" horiz-adv-x="707" 
d="M503 -22h-1l-149 404l-148 -404h-1l-191 493h49l144 -377l146 402h1l151 -402l144 377h46z" />
    <glyph glyph-name="x" unicode="x" horiz-adv-x="451" 
d="M438 0h-54l-159 216l-160 -216h-51l186 254l-159 217h54l131 -179l133 179h51l-159 -216z" />
    <glyph glyph-name="y" unicode="y" horiz-adv-x="466" 
d="M101 -260h-46l146 297l-192 434h49l168 -389l186 389h48z" />
    <glyph glyph-name="z" unicode="z" horiz-adv-x="432" 
d="M392 1h-377l309 428h-264v41h343l-308 -428h297v-41z" />
    <glyph glyph-name="braceleft" unicode="{" horiz-adv-x="291" 
d="M255 -186l-8 -31c-104 27 -126 75 -126 194v132c0 102 -17 136 -88 193c70 40 88 101 88 193v132c0 109 20 186 126 194l8 -31c-70 -11 -90 -60 -90 -120v-188c0 -79 -17 -127 -78 -180c53 -40 78 -90 78 -180v-181c0 -96 47 -120 90 -127z" />
    <glyph glyph-name="bar" unicode="|" horiz-adv-x="214" 
d="M128 -260h-42v1080h42v-1080z" />
    <glyph glyph-name="braceright" unicode="}" horiz-adv-x="291" 
d="M44 -217l-8 31c43 7 90 31 90 127v181c0 90 25 140 78 180c-61 53 -78 101 -78 180v188c0 60 -20 109 -90 120l8 31c106 -8 126 -85 126 -194v-132c0 -92 18 -153 88 -193c-71 -57 -88 -91 -88 -193v-132c0 -119 -22 -167 -126 -194z" />
    <glyph glyph-name="asciitilde" unicode="~" horiz-adv-x="582" 
d="M494 554l25 -29c-19 -18 -77 -59 -140 -59c-54 0 -111 52 -172 52c-41 0 -92 -32 -116 -48l-26 27c25 22 92 64 147 64c62 0 122 -53 171 -53c54 0 95 33 111 46z" />
    <glyph glyph-name="exclamdown" unicode="&#xa1;" horiz-adv-x="243" 
d="M156 -211h-69l16 569h37zM122 467c-28 0 -46 20 -46 46c0 24 20 44 46 44c24 0 44 -20 44 -44c0 -26 -20 -46 -44 -46z" />
    <glyph glyph-name="cent" unicode="&#xa2;" horiz-adv-x="554" 
d="M314 -13h-38v135c-122 15 -211 112 -211 244s85 231 211 247v146h38v-144c91 -1 149 -50 161 -65l-26 -30c-11 11 -59 52 -135 54v-415c79 0 125 32 161 70l23 -27c-43 -57 -113 -81 -184 -82v-133zM276 162v409c-84 -13 -165 -79 -165 -205c0 -116 73 -189 165 -204z
" />
    <glyph glyph-name="sterling" unicode="&#xa3;" horiz-adv-x="580" 
d="M525 33l5 -41c-15 -5 -58 -12 -83 -12c-75 0 -126 31 -194 31c-80 0 -180 -43 -189 -48l-14 38c4 3 73 31 138 45v248h-75v41h75v214c0 68 14 117 40 149c27 32 68 47 109 47c37 0 65 -12 73 -18l-21 -42c-7 5 -30 16 -57 16c-69 0 -100 -56 -100 -142v-224h137v-41h-137
v-242c7 1 13 1 20 1c66 -3 127 -33 195 -33c36 0 57 8 78 13z" />
    <glyph glyph-name="fraction" unicode="&#x2044;" horiz-adv-x="125" 
d="M-124 -15l-28 15l398 765l29 -15z" />
    <glyph glyph-name="yen" unicode="&#xa5;" horiz-adv-x="639" 
d="M538 173h-196v-173h-48v173h-196v36h196v84h-196v36h195l-239 428h55l206 -370c2 -3 4 -5 5 -13c1 8 3 10 5 13l208 370h52l-243 -428h196v-36h-196v-84h196v-36z" />
    <glyph glyph-name="florin" unicode="&#x192;" horiz-adv-x="287" 
d="M-95 -263l5 37c4 -1 16 -4 27 -4c71 0 95 88 111 174l89 493h-87l7 39h87l15 85c26 150 54 284 186 284c8 0 30 -4 33 -5l-6 -41c-3 0 -23 3 -32 3c-114 0 -121 -154 -152 -326h87l-7 -39h-87l-88 -496c-16 -93 -50 -210 -156 -210c-12 0 -28 4 -32 6z" />
    <glyph glyph-name="section" unicode="&#xa7;" horiz-adv-x="545" 
d="M386 -129l-339 530c22 58 141 117 169 118l-91 147c10 32 171 125 293 127l-16 -57c-62 0 -221 -52 -225 -59l314 -500c-22 -59 -136 -117 -165 -118l112 -177c-16 -44 -197 -137 -304 -137l17 57c62 1 231 62 235 69zM439 161l-194 311c-53 0 -123 -32 -146 -55
l197 -311c61 1 120 32 143 55z" />
    <glyph glyph-name="currency" unicode="&#xa4;" horiz-adv-x="694" 
d="M607 143l-30 -27l-79 78c-40 -31 -90 -54 -152 -54s-113 24 -151 54l-80 -78l-27 27l79 80c-34 41 -59 91 -59 154c0 65 25 113 58 150l-80 82l28 28l81 -81c41 33 90 57 151 57c62 0 113 -24 152 -56l80 80l30 -28l-79 -82c32 -37 56 -85 56 -150
c0 -64 -24 -114 -59 -154zM543 377c0 106 -93 190 -197 190c-99 0 -194 -84 -194 -190c0 -105 94 -192 194 -192c104 0 197 88 197 192z" />
    <glyph glyph-name="quotesingle" unicode="'" horiz-adv-x="196" 
d="M116 488h-36l-9 273h54z" />
    <glyph glyph-name="quotedblleft" unicode="&#x201c;" horiz-adv-x="360" 
d="M106 575h-51l72 182h42zM251 575h-51l72 182h42z" />
    <glyph glyph-name="guillemotleft" unicode="&#xab;" horiz-adv-x="435" 
d="M219 25h-41l-124 209l121 209h40l-121 -209zM382 25h-41l-125 209l122 209h40l-122 -209z" />
    <glyph glyph-name="guilsinglleft" unicode="&#x2039;" horiz-adv-x="273" 
d="M219 26h-41l-124 208l121 209h40l-121 -209z" />
    <glyph glyph-name="guilsinglright" unicode="&#x203a;" horiz-adv-x="273" 
d="M95 26h-41l125 208l-121 209h40l121 -209z" />
    <glyph glyph-name="fi" unicode="&#xfb01;" horiz-adv-x="496" 
d="M412 0h-44v471h44v-471zM431 611c0 -22 -17 -40 -40 -40c-22 0 -40 17 -40 40s18 40 40 40c23 0 40 -18 40 -40zM149 0h-44v429h-80v41h80v149c0 68 14 117 40 149c27 32 68 47 109 47c37 0 65 -12 73 -18l-21 -42c-7 5 -29 16 -58 16c-67 0 -99 -56 -99 -142v-159h117
v-41h-117v-429z" />
    <glyph glyph-name="fl" unicode="&#xfb02;" horiz-adv-x="503" 
d="M416 0h-44v820h44v-820zM149 0h-44v429h-80v41h80v134c0 68 14 117 40 149c27 32 68 47 109 47c37 0 65 -12 73 -18l-21 -42c-7 5 -29 16 -58 16c-67 0 -99 -56 -99 -142v-144h117v-41h-117v-429z" />
    <glyph glyph-name="endash" unicode="&#x2013;" horiz-adv-x="594" 
d="M517 227h-445l5 40h445z" />
    <glyph glyph-name="dagger" unicode="&#x2020;" horiz-adv-x="455" 
d="M245 63h-39v498h-147v39h147v215h39v-215h151v-39h-151v-498z" />
    <glyph glyph-name="daggerdbl" unicode="&#x2021;" horiz-adv-x="477" 
d="M256 63h-39v195h-147v39h147v289h-147v39h147v195h39v-195h151v-39h-151v-289h151v-39h-151v-195z" />
    <glyph glyph-name="periodcentered" unicode="&#xb7;" horiz-adv-x="230" 
d="M115 339c-24 0 -44 20 -44 44s20 44 44 44s44 -20 44 -44c0 -23 -19 -44 -44 -44z" />
    <glyph glyph-name="paragraph" unicode="&#xb6;" horiz-adv-x="540" 
d="M316 754v-495c-164 -5 -265 118 -265 237c0 123 101 258 265 258zM421 -155h-46v912h46v-912z" />
    <glyph glyph-name="quotesinglbase" unicode="&#x201a;" horiz-adv-x="217" 
d="M78 -60h-42l63 182h51z" />
    <glyph glyph-name="quotedblbase" unicode="&#x201e;" horiz-adv-x="362" 
d="M223 -62h-42l63 182h51zM78 -62h-42l63 182h51z" />
    <glyph glyph-name="quotedblright" unicode="&#x201d;" horiz-adv-x="359" 
d="M244 575h-42l63 182h51zM99 575h-42l63 182h51z" />
    <glyph glyph-name="guillemotright" unicode="&#xbb;" horiz-adv-x="434" 
d="M94 25h-41l125 209l-121 209h40l121 -209zM257 25h-40l124 209l-121 209h40l120 -209z" />
    <glyph glyph-name="perthousand" unicode="&#x2030;" horiz-adv-x="1232" 
d="M1182 133c0 -81 -65 -145 -146 -145s-145 64 -145 145s64 146 145 146s146 -65 146 -146zM1037 23c61 0 108 49 108 110s-47 110 -108 110s-108 -49 -108 -110s47 -110 108 -110zM259 -20l-30 12l325 778l31 -13zM343 616c0 -81 -65 -145 -146 -145s-145 64 -145 145
s64 146 145 146s146 -65 146 -146zM198 506c61 0 108 49 108 110s-47 110 -108 110s-108 -49 -108 -110s47 -110 108 -110zM780 133c0 -81 -65 -145 -146 -145s-145 64 -145 145s64 146 145 146s146 -65 146 -146zM635 23c61 0 108 49 108 110s-47 110 -108 110
s-108 -49 -108 -110s47 -110 108 -110z" />
    <glyph glyph-name="questiondown" unicode="&#xbf;" horiz-adv-x="457" 
d="M344 -159l20 -34c-20 -19 -70 -53 -139 -53c-85 0 -126 64 -126 127c0 87 91 141 153 187c55 41 102 63 102 135c0 56 -54 101 -119 101c-78 0 -131 -54 -154 -83l-26 27c18 33 89 97 185 97c74 0 156 -54 156 -141c0 -86 -62 -128 -115 -165c-69 -48 -138 -95 -138 -157
c0 -49 37 -85 87 -85c54 0 95 29 114 44zM251 448c-25 0 -44 19 -44 45c0 23 19 43 44 43c24 0 44 -20 44 -43c0 -26 -20 -45 -44 -45z" />
    <glyph glyph-name="grave" unicode="`" horiz-adv-x="329" 
d="M247 600l-21 -17l-138 138l41 33z" />
    <glyph glyph-name="acute" unicode="&#xb4;" horiz-adv-x="335" 
d="M247 721l-139 -138l-20 17l118 154z" />
    <glyph glyph-name="circumflex" unicode="&#x2c6;" horiz-adv-x="445" 
d="M374 608l-26 -22l-122 102l-122 -102l-26 22l148 133h1z" />
    <glyph glyph-name="tilde" unicode="&#x2dc;" horiz-adv-x="371" 
d="M343 665l17 -27c-13 -16 -53 -53 -96 -53c-37 0 -76 47 -118 47c-28 0 -63 -29 -79 -43l-18 24c17 20 63 58 101 58c42 0 83 -48 117 -48c37 0 65 30 76 42z" />
    <glyph glyph-name="macron" unicode="&#xaf;" horiz-adv-x="525" 
d="M437 596h-349v41h349v-41z" />
    <glyph glyph-name="breve" unicode="&#x2d8;" horiz-adv-x="409" 
d="M321 729h43c-4 -67 -53 -152 -165 -152c-78 0 -147 52 -154 152h45c0 -18 10 -113 108 -113c116 0 123 104 123 113z" />
    <glyph glyph-name="dotaccent" unicode="&#x2d9;" horiz-adv-x="250" 
d="M163 630c0 -20 -17 -37 -39 -37c-20 0 -37 17 -37 37c0 22 17 39 37 39c22 0 39 -17 39 -39z" />
    <glyph glyph-name="dieresis" unicode="&#xa8;" horiz-adv-x="355" 
d="M111 630c0 -20 -17 -37 -39 -37c-20 0 -37 17 -37 37c0 22 17 39 37 39c22 0 39 -17 39 -39zM330 630c0 -20 -15 -37 -39 -37c-21 0 -36 17 -36 37c0 22 15 39 36 39c24 0 39 -17 39 -39z" />
    <glyph glyph-name="ring" unicode="&#x2da;" horiz-adv-x="384" 
d="M296 695c0 -57 -46 -103 -104 -103s-104 46 -104 103c0 58 47 104 104 104c58 0 104 -48 104 -104zM263 696c0 39 -31 70 -70 70c-38 0 -69 -31 -69 -70c0 -37 31 -70 69 -70c39 0 70 33 70 70z" />
    <glyph glyph-name="cedilla" unicode="&#xb8;" horiz-adv-x="585" 
d="M316 -196h-42l68 157h51z" />
    <glyph glyph-name="hungarumlaut" unicode="&#x2dd;" horiz-adv-x="502" 
d="M267 691l-169 -108l-20 17l148 124zM424 691l-169 -108l-20 17l148 124z" />
    <glyph glyph-name="ogonek" unicode="&#x2db;" horiz-adv-x="599" 
d="M389 -172v-39c-18 -10 -42 -15 -66 -15c-56 0 -114 28 -114 89c0 51 34 100 112 140h30c-50 -22 -101 -69 -101 -125c0 -42 35 -64 78 -64c23 0 41 6 61 14z" />
    <glyph glyph-name="caron" unicode="&#x2c7;" horiz-adv-x="445" 
d="M369 709l-147 -133h-1l-148 133l26 22l122 -102l122 102z" />
    <glyph glyph-name="emdash" unicode="&#x2014;" horiz-adv-x="854" 
d="M777 227h-705l5 40h705z" />
    <glyph glyph-name="AE" unicode="&#xc6;" horiz-adv-x="881" 
d="M847 1h-407v223h-268l-131 -224h-51l440 756h383v-43h-325v-284h261v-44h-261v-341h359v-43zM440 268v414l-243 -414h243z" />
    <glyph glyph-name="ordfeminine" unicode="&#xaa;" horiz-adv-x="419" 
d="M311 455v88c-21 18 -57 40 -111 40c-47 0 -107 -23 -107 -73c0 -56 50 -84 108 -84c49 0 86 12 110 29zM352 614v-175c-36 -32 -90 -48 -153 -48c-102 0 -149 56 -149 119c0 73 85 107 147 107c53 0 83 -15 114 -36v46c0 41 -37 75 -103 75c-44 0 -86 -15 -97 -20l-17 30
c23 10 62 24 115 24c114 0 143 -50 143 -122z" />
    <glyph glyph-name="Lslash" unicode="&#x141;" horiz-adv-x="506" 
d="M481 1h-374v248l-78 -51v47l78 51v461h48v-429l147 96v-47l-147 -96v-237h326v-43z" />
    <glyph glyph-name="Oslash" unicode="&#xd8;" horiz-adv-x="903" 
d="M267 -149l-37 13l62 155c-141 60 -237 198 -237 359c0 218 175 392 398 392c47 0 91 -8 133 -22l55 137l37 -16l-55 -135c134 -61 225 -194 225 -359c0 -216 -179 -388 -395 -388c-44 0 -85 7 -124 19zM309 61l260 645c-37 12 -76 19 -116 19c-194 0 -348 -145 -348 -343
c0 -139 83 -266 204 -321zM606 690l-260 -643c30 -11 62 -16 100 -16c200 0 352 149 352 345c0 145 -79 260 -192 314z" />
    <glyph glyph-name="OE" unicode="&#x152;" horiz-adv-x="1239" 
d="M1204 1h-406v199c-62 -136 -201 -213 -345 -213c-223 0 -398 174 -398 391c0 218 175 392 398 392c148 0 280 -75 345 -216v202h373v-43h-325v-284h261v-44h-261v-341h358v-43zM798 376c0 204 -156 349 -345 349c-194 0 -348 -145 -348 -343c0 -187 151 -351 341 -351
c200 0 352 149 352 345z" />
    <glyph glyph-name="ordmasculine" unicode="&#xba;" horiz-adv-x="477" 
d="M426 563c0 -96 -82 -172 -187 -172s-188 75 -188 172c0 98 83 173 188 173s187 -77 187 -173zM382 563c0 79 -67 137 -144 137c-86 0 -144 -59 -144 -139c0 -78 69 -134 143 -134c86 0 145 55 145 136z" />
    <glyph glyph-name="ae" unicode="&#xe6;" horiz-adv-x="871" 
d="M789 100l25 -26c-37 -51 -106 -86 -194 -86c-89 0 -151 40 -193 103c-28 -47 -103 -103 -194 -103c-135 0 -197 81 -197 170c0 105 115 155 196 155c73 0 115 -23 159 -56v67c0 67 -51 118 -143 118c-63 0 -118 -22 -132 -28l-20 35c29 14 80 34 150 34
c110 0 162 -36 181 -104c40 65 101 104 192 104c143 0 207 -115 207 -230v-9h-391v-13c0 -140 92 -202 194 -202c85 0 137 41 160 71zM407 138c-7 18 -13 47 -15 72c-30 28 -82 63 -158 63c-66 0 -152 -35 -152 -115c0 -87 73 -129 153 -129c81 0 172 73 172 109zM438 284
h342c-10 85 -64 158 -165 158c-108 0 -167 -74 -177 -158z" />
    <glyph glyph-name="dotlessi" unicode="&#x131;" horiz-adv-x="210" 
d="M127 0h-44v471h44v-471z" />
    <glyph glyph-name="lslash" unicode="&#x142;" horiz-adv-x="238" 
d="M139 0h-44v254l-70 -52v47l70 52v519h44v-487l79 60v-47l-79 -60v-286z" />
    <glyph glyph-name="oslash" unicode="&#xf8;" horiz-adv-x="593" 
d="M148 -146l-34 14l68 146c-81 40 -135 123 -135 221c0 141 110 248 250 248c33 0 65 -7 94 -18l73 156l34 -17l-73 -156c73 -43 121 -122 121 -213c0 -138 -109 -247 -249 -247c-28 0 -56 5 -81 12zM200 53l173 372c-25 10 -51 16 -78 16c-121 0 -203 -88 -203 -209
c0 -80 45 -146 108 -179zM406 408l-172 -369c20 -6 40 -9 61 -9c121 0 205 83 205 205c0 75 -38 137 -94 173z" />
    <glyph glyph-name="oe" unicode="&#x153;" horiz-adv-x="989" 
d="M907 100l25 -26c-37 -51 -106 -86 -194 -86c-99 0 -181 52 -217 137c-40 -82 -124 -137 -224 -137c-140 0 -250 107 -250 247c0 141 110 248 250 248c100 0 184 -56 224 -138c34 85 111 138 216 138c143 0 207 -115 207 -230v-9h-398c0 -19 1 -27 1 -31
c9 -122 98 -184 200 -184c85 0 137 41 160 71zM295 30c118 0 205 79 205 213c0 115 -98 198 -205 198c-121 0 -203 -88 -203 -209c0 -117 97 -202 203 -202zM549 284h348c-10 85 -63 158 -164 158c-92 0 -171 -58 -184 -158z" />
    <glyph glyph-name="germandbls" unicode="&#xdf;" horiz-adv-x="516" 
d="M216 -246l2 37c83 14 218 97 218 239c0 79 -41 139 -139 139c-26 0 -57 -4 -91 -13l173 273h-231v-429h-44v429h-76v41h76v149c0 68 14 117 40 149c27 32 68 47 109 47c37 0 65 -12 73 -18l-21 -42c-7 5 -29 16 -58 16c-67 0 -99 -56 -99 -142v-159h310l-177 -261
c11 2 22 3 33 3c100 0 167 -80 167 -185c0 -172 -179 -261 -265 -273z" />
    <glyph glyph-name="onesuperior" unicode="&#xb9;" horiz-adv-x="243" 
d="M164 350h-40v359l-74 -31l-14 33l128 50v-411z" />
    <glyph glyph-name="logicalnot" unicode="&#xac;" horiz-adv-x="676" 
d="M587 104h-45v238h-455v44h500v-282z" />
    <glyph glyph-name="mu" unicode="&#xb5;" horiz-adv-x="552" 
d="M482 0h-44v63c-30 -57 -87 -75 -150 -75c-51 0 -109 12 -148 43v-286h-44v726h44v-398c28 -20 74 -44 149 -44c89 0 149 47 149 141v301h44v-471z" />
    <glyph glyph-name="trademark" unicode="&#x2122;" horiz-adv-x="933" 
d="M236 394h-40v328l-121 -1v36h282v-36l-121 1v-328zM845 394h-40l-32 256l-152 -270l-153 270l-27 -256h-40l43 374l179 -313l176 312z" />
    <glyph glyph-name="Eth" unicode="&#xd0;" horiz-adv-x="727" 
d="M271 0h-165v358h-70v39h70v360h155c223 0 408 -131 408 -379c0 -233 -165 -378 -398 -378zM154 44h92c219 0 373 110 373 337c0 228 -171 332 -371 332h-94v-316h209v-39h-209v-314z" />
    <glyph glyph-name="onehalf" unicode="&#xbd;" horiz-adv-x="748" 
d="M181 350h-40v359l-74 -31l-14 33l128 50v-411zM140 -15l-28 15l398 765l29 -15zM690 0h-318c52 37 118 90 170 139c44 41 92 96 92 150c0 45 -38 83 -91 83c-45 0 -81 -27 -96 -44l-22 26c18 16 59 52 122 52c77 0 129 -52 129 -117c0 -69 -64 -135 -101 -168
c-40 -35 -87 -70 -116 -89l231 3v-35z" />
    <glyph glyph-name="plusminus" unicode="&#xb1;" horiz-adv-x="666" 
d="M356 111h-46v238h-227v44h227v238h46v-238h227v-44h-227v-238zM583 1h-500v42h500v-42z" />
    <glyph glyph-name="Thorn" unicode="&#xde;" horiz-adv-x="542" 
d="M154 0h-48v757h48v-154h86c135 0 265 -59 265 -214c0 -132 -89 -234 -281 -234h-70v-155zM154 199h72c141 0 230 67 230 189c0 113 -86 171 -206 171h-96v-360z" />
    <glyph glyph-name="onequarter" unicode="&#xbc;" horiz-adv-x="709" 
d="M181 350h-40v359l-74 -31l-14 33l128 50v-411zM140 -15l-28 15l398 765l29 -15zM586 -3h-43v90h-229v33l242 281h30v-278h64v-36h-64v-90zM544 122l1 218l-184 -218h183z" />
    <glyph glyph-name="divide" unicode="&#xf7;" horiz-adv-x="691" 
d="M384 173c0 -20 -15 -37 -38 -37c-19 0 -35 17 -35 37c0 19 15 38 35 38c23 0 38 -17 38 -38zM384 549c0 -19 -15 -36 -38 -36c-19 0 -35 17 -35 36c0 21 16 38 35 38c24 0 38 -17 38 -38zM596 342h-500v42h500v-42z" />
    <glyph glyph-name="brokenbar" unicode="&#xa6;" horiz-adv-x="224" 
d="M133 -260h-42v439h42v-439zM133 381h-42v439h42v-439z" />
    <glyph glyph-name="degree" unicode="&#xb0;" horiz-adv-x="397" 
d="M344 619c0 -81 -65 -145 -146 -145s-145 64 -145 145s64 146 145 146s146 -65 146 -146zM199 509c61 0 108 49 108 110s-47 110 -108 110s-108 -49 -108 -110s47 -110 108 -110z" />
    <glyph glyph-name="thorn" unicode="&#xfe;" horiz-adv-x="575" 
d="M123 -255h-44v1075h44v-374c46 25 97 37 149 37c131 0 256 -83 256 -250c0 -130 -84 -245 -230 -245c-71 0 -140 34 -175 71v-314zM123 398v-279c33 -49 100 -90 175 -90c100 0 184 74 184 203c0 120 -81 210 -216 210c-56 0 -116 -23 -143 -44z" />
    <glyph glyph-name="threequarters" unicode="&#xbe;" horiz-adv-x="840" 
d="M717 -3h-43v90h-229v33l242 281h30v-278h64v-36h-64v-90zM248 574v-1c65 -21 96 -68 96 -115c0 -58 -56 -116 -160 -116c-75 0 -119 31 -130 42l19 32c9 -11 48 -38 110 -38c80 0 118 40 118 82c0 52 -51 100 -142 101v22c83 2 125 41 125 78c0 33 -30 59 -86 59
c-28 0 -61 -9 -82 -22l-15 30c11 10 55 30 104 30c76 0 121 -47 121 -93c0 -35 -22 -70 -78 -91zM271 -15l-28 15l398 765l29 -15zM675 122l1 218l-184 -218h183z" />
    <glyph glyph-name="twosuperior" unicode="&#xb2;" horiz-adv-x="436" 
d="M370 352h-318c52 37 118 90 170 139c44 41 92 96 92 150c0 45 -38 83 -91 83c-45 0 -81 -27 -96 -44l-22 26c18 16 59 52 122 52c77 0 129 -52 129 -117c0 -69 -64 -135 -101 -168c-40 -35 -87 -70 -116 -89l231 3v-35z" />
    <glyph glyph-name="registered" unicode="&#xae;" horiz-adv-x="710" 
d="M355 220c-151 0 -275 125 -275 276s124 274 275 274s275 -123 275 -274s-124 -276 -275 -276zM355 251c130 0 242 114 242 245c0 130 -112 243 -242 243c-131 0 -242 -113 -242 -243c0 -131 111 -245 242 -245zM505 353h-54l-145 124h-19v-124h-35v313h75
c62 0 130 -23 130 -92c0 -51 -43 -90 -112 -95zM287 507h29c69 0 104 25 104 67c0 36 -35 60 -87 60h-46v-127z" />
    <glyph glyph-name="minus" unicode="&#x2212;" horiz-adv-x="674" 
d="M587 342h-500v44h500v-44z" />
    <glyph glyph-name="eth" unicode="&#xf0;" horiz-adv-x="599" 
d="M487 736l-120 -71c83 -129 179 -304 179 -430c0 -134 -104 -247 -248 -247c-152 0 -251 118 -251 247c0 131 101 248 251 248c40 0 115 -8 167 -81c-36 82 -97 185 -136 241l-118 -72l-21 30l122 72c-46 69 -91 128 -115 147h60c10 -12 48 -60 90 -126l121 72zM297 30
c107 0 203 74 203 205c0 111 -89 206 -204 206c-129 0 -204 -94 -204 -208c0 -96 79 -203 205 -203z" />
    <glyph glyph-name="multiply" unicode="&#xd7;" horiz-adv-x="642" 
d="M558 159l-33 -31l-203 205l-205 -205l-33 31l210 205l-207 205l30 32l207 -205l201 205l30 -32l-203 -204z" />
    <glyph glyph-name="threesuperior" unicode="&#xb3;" horiz-adv-x="394" 
d="M243 574v-1c65 -21 96 -68 96 -115c0 -58 -56 -116 -160 -116c-75 0 -119 31 -130 42l19 32c9 -11 48 -38 110 -38c80 0 118 40 118 82c0 52 -51 100 -142 101v22c83 2 125 41 125 78c0 33 -30 59 -86 59c-28 0 -61 -9 -82 -22l-15 30c11 10 55 30 104 30
c76 0 121 -47 121 -93c0 -35 -22 -70 -78 -91z" />
    <glyph glyph-name="copyright" unicode="&#xa9;" horiz-adv-x="918" 
d="M459 20c200 0 355 160 355 359c0 201 -155 359 -355 359c-201 0 -355 -158 -355 -359c0 -199 154 -359 355 -359zM459 -13c-219 0 -392 176 -392 392c0 218 173 392 392 392s392 -174 392 -392c0 -216 -173 -392 -392 -392zM621 218l18 -32c-46 -38 -103 -52 -168 -52
c-153 0 -260 107 -260 241s106 252 259 252c70 0 128 -22 169 -55l-24 -34c-29 28 -75 48 -151 48c-122 0 -203 -86 -203 -210c0 -115 89 -201 211 -201c63 0 115 15 149 43z" />
    <glyph glyph-name="Aacute" unicode="&#xc1;" horiz-adv-x="671" 
d="M673 0h-50l-97 224h-381l-97 -224h-51l339 777zM507 268l-151 352c-7 14 -18 42 -20 50l-20 -50l-152 -352h343zM459 885l-238 -43l-12 31l227 61z" />
    <glyph glyph-name="Acircumflex" unicode="&#xc2;" horiz-adv-x="671" 
d="M673 0h-50l-97 224h-381l-97 -224h-51l339 777zM507 268l-151 352c-7 14 -18 42 -20 50l-20 -50l-152 -352h343zM484 818l-149 62l-153 -69l-15 23l168 98h1l167 -92z" />
    <glyph glyph-name="Adieresis" unicode="&#xc4;" horiz-adv-x="671" 
d="M673 0h-50l-97 224h-381l-97 -224h-51l339 777zM507 268l-151 352c-7 14 -18 42 -20 50l-20 -50l-152 -352h343zM505 886c0 -20 -15 -37 -39 -37c-21 0 -36 17 -36 37c0 22 15 39 36 39c24 0 39 -17 39 -39zM241 886c0 -20 -17 -37 -39 -37c-20 0 -37 17 -37 37
c0 22 17 39 37 39c22 0 39 -17 39 -39z" />
    <glyph glyph-name="Agrave" unicode="&#xc0;" horiz-adv-x="671" 
d="M673 0h-50l-97 224h-381l-97 -224h-51l339 777zM507 268l-151 352c-7 14 -18 42 -20 50l-20 -50l-152 -352h343zM432 842l-238 43l23 49l227 -61z" />
    <glyph glyph-name="Aring" unicode="&#xc5;" horiz-adv-x="671" 
d="M673 0h-50l-97 224h-381l-97 -224h-51l339 777zM507 268l-151 352c-7 14 -18 42 -20 50l-20 -50l-152 -352h343zM439 900c0 -57 -46 -103 -104 -103s-104 46 -104 103c0 58 47 104 104 104c58 0 104 -48 104 -104zM406 901c0 39 -31 70 -70 70c-38 0 -69 -31 -69 -70
c0 -37 31 -70 69 -70c39 0 70 33 70 70z" />
    <glyph glyph-name="Atilde" unicode="&#xc3;" horiz-adv-x="671" 
d="M673 0h-50l-97 224h-381l-97 -224h-51l339 777zM507 268l-151 352c-7 14 -18 42 -20 50l-20 -50l-152 -352h343zM489 923l18 -30c-14 -17 -63 -61 -105 -61c-39 0 -81 50 -126 50c-30 0 -68 -31 -85 -46l-19 27c18 21 68 62 108 62c46 0 89 -51 125 -51c35 0 72 36 84 49
z" />
    <glyph glyph-name="Ccedilla" unicode="&#xc7;" horiz-adv-x="746" 
d="M675 113l23 -33c-69 -60 -154 -93 -248 -93c-227 0 -395 176 -395 391c0 216 168 392 395 392c94 0 179 -33 248 -94l-29 -36c-42 44 -112 85 -228 85c-188 0 -336 -143 -336 -352c0 -194 157 -342 346 -342c90 0 170 31 224 82zM388 -226h-42l68 157h51z" />
    <glyph glyph-name="Eacute" unicode="&#xc9;" horiz-adv-x="547" 
d="M420 885l-238 -43l-12 31l227 61zM512 1h-406v755h373v-43h-325v-284h261v-44h-261v-341h358v-43z" />
    <glyph glyph-name="Ecircumflex" unicode="&#xca;" horiz-adv-x="547" 
d="M512 1h-406v755h373v-43h-325v-284h261v-44h-261v-341h358v-43zM441 812l-149 68l-153 -69l-15 23l168 98h1l167 -98z" />
    <glyph glyph-name="Edieresis" unicode="&#xcb;" horiz-adv-x="547" 
d="M195 876c0 -20 -17 -37 -39 -37c-20 0 -37 17 -37 37c0 22 17 39 37 39c22 0 39 -17 39 -39zM449 876c0 -20 -15 -37 -39 -37c-21 0 -36 17 -36 37c0 22 15 39 36 39c24 0 39 -17 39 -39zM512 1h-406v755h373v-43h-325v-284h261v-44h-261v-341h358v-43z" />
    <glyph glyph-name="Egrave" unicode="&#xc8;" horiz-adv-x="547" 
d="M408 847l-238 33l23 49l227 -51zM512 1h-406v755h373v-43h-325v-284h261v-44h-261v-341h358v-43z" />
    <glyph glyph-name="Iacute" unicode="&#xcd;" horiz-adv-x="260" 
d="M228 880l-188 -33l-12 31l177 51zM154 0h-48v757h48v-757z" />
    <glyph glyph-name="Icircumflex" unicode="&#xce;" horiz-adv-x="260" 
d="M212 814l-83 66l-88 -69l-15 23l103 98h1l101 -96zM154 0h-48v757h48v-757z" />
    <glyph glyph-name="Idieresis" unicode="&#xcf;" horiz-adv-x="260" 
d="M101 846c0 -20 -17 -37 -39 -37c-20 0 -37 17 -37 37c0 22 17 39 37 39c22 0 39 -17 39 -39zM235 846c0 -20 -15 -37 -39 -37c-21 0 -36 17 -36 37c0 22 15 39 36 39c24 0 39 -17 39 -39zM154 0h-48v757h48v-757z" />
    <glyph glyph-name="Igrave" unicode="&#xcc;" horiz-adv-x="260" 
d="M216 847l-188 33l23 49l177 -51zM154 0h-48v757h48v-757z" />
    <glyph glyph-name="Ntilde" unicode="&#xd1;" horiz-adv-x="847" 
d="M581 923l18 -30c-14 -17 -63 -61 -105 -61c-39 0 -81 50 -126 50c-30 0 -68 -31 -85 -46l-19 27c18 21 68 62 108 62c46 0 89 -51 125 -51c35 0 72 36 84 49zM742 -25l-588 672v-647h-48v775l588 -669v651h48v-782z" />
    <glyph glyph-name="Oacute" unicode="&#xd3;" horiz-adv-x="903" 
d="M573 885l-238 -43l-12 31l227 61zM848 375c0 -216 -179 -388 -395 -388c-223 0 -398 174 -398 391c0 218 175 392 398 392c221 0 395 -166 395 -395zM798 376c0 204 -156 349 -345 349c-194 0 -348 -145 -348 -343c0 -187 151 -351 341 -351c200 0 352 149 352 345z" />
    <glyph glyph-name="Ocircumflex" unicode="&#xd4;" horiz-adv-x="903" 
d="M848 375c0 -216 -179 -388 -395 -388c-223 0 -398 174 -398 391c0 218 175 392 398 392c221 0 395 -166 395 -395zM798 376c0 204 -156 349 -345 349c-194 0 -348 -145 -348 -343c0 -187 151 -351 341 -351c200 0 352 149 352 345zM598 818l-149 62l-153 -69l-15 23
l168 98h1l167 -92z" />
    <glyph glyph-name="Odieresis" unicode="&#xd6;" horiz-adv-x="903" 
d="M272 882c0 -20 -17 -37 -39 -37c-20 0 -37 17 -37 37c0 22 17 39 37 39c22 0 39 -17 39 -39zM691 882c0 -20 -15 -37 -39 -37c-21 0 -36 17 -36 37c0 22 15 39 36 39c24 0 39 -17 39 -39zM848 375c0 -216 -179 -388 -395 -388c-223 0 -398 174 -398 391
c0 218 175 392 398 392c221 0 395 -166 395 -395zM798 376c0 204 -156 349 -345 349c-194 0 -348 -145 -348 -343c0 -187 151 -351 341 -351c200 0 352 149 352 345z" />
    <glyph glyph-name="Ograve" unicode="&#xd2;" horiz-adv-x="903" 
d="M536 842l-238 43l23 49l227 -61zM848 375c0 -216 -179 -388 -395 -388c-223 0 -398 174 -398 391c0 218 175 392 398 392c221 0 395 -166 395 -395zM798 376c0 204 -156 349 -345 349c-194 0 -348 -145 -348 -343c0 -187 151 -351 341 -351c200 0 352 149 352 345z" />
    <glyph glyph-name="Otilde" unicode="&#xd5;" horiz-adv-x="903" 
d="M602 923l18 -30c-14 -17 -63 -61 -105 -61c-39 0 -81 50 -126 50c-30 0 -68 -31 -85 -46l-19 27c18 21 68 62 108 62c46 0 89 -51 125 -51c35 0 72 36 84 49zM848 375c0 -216 -179 -388 -395 -388c-223 0 -398 174 -398 391c0 218 175 392 398 392
c221 0 395 -166 395 -395zM798 376c0 204 -156 349 -345 349c-194 0 -348 -145 -348 -343c0 -187 151 -351 341 -351c200 0 352 149 352 345z" />
    <glyph glyph-name="Scaron" unicode="&#x160;" horiz-adv-x="533" 
d="M449 916l-168 -100l-168 98l15 23l157 -70l145 71zM37 84l31 35c27 -35 85 -87 194 -87c95 0 170 60 170 155c0 225 -354 175 -354 398c0 122 97 187 204 187c88 0 151 -43 177 -71l-30 -33c-30 30 -74 60 -147 60c-79 0 -154 -44 -154 -136c0 -193 356 -138 356 -404
c0 -98 -82 -201 -226 -201c-104 0 -193 55 -221 97z" />
    <glyph glyph-name="Uacute" unicode="&#xda;" horiz-adv-x="740" 
d="M509 885l-238 -43l-12 31l227 61zM590 95v662h48v-676c-44 -52 -135 -94 -270 -94c-166 0 -269 95 -269 285v485h48v-472c0 -185 82 -254 244 -254c67 0 154 18 199 64z" />
    <glyph glyph-name="Ucircumflex" unicode="&#xdb;" horiz-adv-x="740" 
d="M590 95v662h48v-676c-44 -52 -135 -94 -270 -94c-166 0 -269 95 -269 285v485h48v-472c0 -185 82 -254 244 -254c67 0 154 18 199 64zM521 818l-149 62l-153 -69l-15 23l168 98h1l167 -92z" />
    <glyph glyph-name="Udieresis" unicode="&#xdc;" horiz-adv-x="740" 
d="M172 881c0 -20 -17 -37 -39 -37c-20 0 -37 17 -37 37c0 22 17 39 37 39c22 0 39 -17 39 -39zM643 881c0 -20 -15 -37 -39 -37c-21 0 -36 17 -36 37c0 22 15 39 36 39c24 0 39 -17 39 -39zM590 95v662h48v-676c-44 -52 -135 -94 -270 -94c-166 0 -269 95 -269 285v485h48
v-472c0 -185 82 -254 244 -254c67 0 154 18 199 64z" />
    <glyph glyph-name="Ugrave" unicode="&#xd9;" horiz-adv-x="740" 
d="M467 842l-238 43l23 49l227 -61zM590 95v662h48v-676c-44 -52 -135 -94 -270 -94c-166 0 -269 95 -269 285v485h48v-472c0 -185 82 -254 244 -254c67 0 154 18 199 64z" />
    <glyph glyph-name="Yacute" unicode="&#xdd;" horiz-adv-x="523" 
d="M386 872l-139 -138l-20 17l118 154zM285 0h-48v328l-240 429h57l204 -365c2 -3 4 -5 5 -15c1 10 3 12 5 15l206 365h54l-243 -429v-328z" />
    <glyph glyph-name="Ydieresis" unicode="&#x178;" horiz-adv-x="523" 
d="M483 882c0 -20 -15 -37 -39 -37c-21 0 -36 17 -36 37c0 22 15 39 36 39c24 0 39 -17 39 -39zM118 882c0 -20 -17 -37 -39 -37c-20 0 -37 17 -37 37c0 22 17 39 37 39c22 0 39 -17 39 -39zM285 0h-48v328l-240 429h57l204 -365c2 -3 4 -5 5 -15c1 10 3 12 5 15l206 365h54
l-243 -429v-328z" />
    <glyph glyph-name="Zcaron" unicode="&#x17d;" horiz-adv-x="557" 
d="M452 916l-168 -100l-168 98l15 23l157 -70l145 71zM527 1h-523l429 712h-358v43h441l-429 -712h440v-43z" />
    <glyph glyph-name="aacute" unicode="&#xe1;" horiz-adv-x="503" 
d="M391 76v133c-30 28 -80 64 -157 64c-66 0 -152 -35 -152 -115c0 -87 73 -129 153 -129c70 0 122 20 156 47zM391 254v70c0 67 -51 118 -143 118c-63 0 -118 -22 -132 -28l-20 35c29 14 80 34 150 34c151 0 189 -71 189 -172v-254c-47 -45 -118 -69 -202 -69
c-135 0 -197 81 -197 170c0 105 115 155 196 155c62 0 120 -21 159 -59zM359 721l-139 -138l-20 17l118 154z" />
    <glyph glyph-name="acircumflex" unicode="&#xe2;" horiz-adv-x="503" 
d="M391 254v70c0 67 -51 118 -143 118c-63 0 -118 -22 -132 -28l-20 35c29 14 80 34 150 34c151 0 189 -71 189 -172v-254c-47 -45 -118 -69 -202 -69c-135 0 -197 81 -197 170c0 105 115 155 196 155c62 0 120 -21 159 -59zM391 76v133c-30 28 -80 64 -157 64
c-66 0 -152 -35 -152 -115c0 -87 73 -129 153 -129c70 0 122 20 156 47zM403 598l-26 -22l-122 102l-122 -102l-26 22l148 133h1z" />
    <glyph glyph-name="adieresis" unicode="&#xe4;" horiz-adv-x="503" 
d="M391 76v133c-30 28 -80 64 -157 64c-66 0 -152 -35 -152 -115c0 -87 73 -129 153 -129c70 0 122 20 156 47zM391 254v70c0 67 -51 118 -143 118c-63 0 -118 -22 -132 -28l-20 35c29 14 80 34 150 34c151 0 189 -71 189 -172v-254c-47 -45 -118 -69 -202 -69
c-135 0 -197 81 -197 170c0 105 115 155 196 155c62 0 120 -21 159 -59zM165 630c0 -20 -17 -37 -39 -37c-20 0 -37 17 -37 37c0 22 17 39 37 39c22 0 39 -17 39 -39zM384 630c0 -20 -15 -37 -39 -37c-21 0 -36 17 -36 37c0 22 15 39 36 39c24 0 39 -17 39 -39z" />
    <glyph glyph-name="agrave" unicode="&#xe0;" horiz-adv-x="503" 
d="M391 76v133c-30 28 -80 64 -157 64c-66 0 -152 -35 -152 -115c0 -87 73 -129 153 -129c70 0 122 20 156 47zM391 254v70c0 67 -51 118 -143 118c-63 0 -118 -22 -132 -28l-20 35c29 14 80 34 150 34c151 0 189 -71 189 -172v-254c-47 -45 -118 -69 -202 -69
c-135 0 -197 81 -197 170c0 105 115 155 196 155c62 0 120 -21 159 -59zM319 600l-21 -17l-138 138l41 33z" />
    <glyph glyph-name="aring" unicode="&#xe5;" horiz-adv-x="503" 
d="M391 76v133c-30 28 -80 64 -157 64c-66 0 -152 -35 -152 -115c0 -87 73 -129 153 -129c70 0 122 20 156 47zM391 254v70c0 67 -51 118 -143 118c-63 0 -118 -22 -132 -28l-20 35c29 14 80 34 150 34c151 0 189 -71 189 -172v-254c-47 -45 -118 -69 -202 -69
c-135 0 -197 81 -197 170c0 105 115 155 196 155c62 0 120 -21 159 -59zM355 655c0 -57 -46 -103 -104 -103s-104 46 -104 103c0 58 47 104 104 104c58 0 104 -48 104 -104zM322 656c0 39 -31 70 -70 70c-38 0 -69 -31 -69 -70c0 -37 31 -70 69 -70c39 0 70 33 70 70z" />
    <glyph glyph-name="atilde" unicode="&#xe3;" horiz-adv-x="503" 
d="M391 76v133c-30 28 -80 64 -157 64c-66 0 -152 -35 -152 -115c0 -87 73 -129 153 -129c70 0 122 20 156 47zM391 254v70c0 67 -51 118 -143 118c-63 0 -118 -22 -132 -28l-20 35c29 14 80 34 150 34c151 0 189 -71 189 -172v-254c-47 -45 -118 -69 -202 -69
c-135 0 -197 81 -197 170c0 105 115 155 196 155c62 0 120 -21 159 -59zM388 665l17 -27c-13 -16 -53 -53 -96 -53c-37 0 -76 47 -118 47c-28 0 -63 -29 -79 -43l-18 24c17 20 63 58 101 58c42 0 83 -48 117 -48c37 0 65 30 76 42z" />
    <glyph glyph-name="ccedilla" unicode="&#xe7;" horiz-adv-x="511" 
d="M457 97l23 -27c-44 -58 -116 -82 -189 -82c-138 0 -244 103 -244 246c0 144 102 249 247 249c92 0 151 -50 163 -65l-26 -30c-11 12 -61 54 -141 54c-93 0 -197 -65 -197 -208c0 -131 94 -205 202 -205c80 0 126 30 162 68zM237 -216h-42l68 157h51z" />
    <glyph glyph-name="eacute" unicode="&#xe9;" 
d="M455 100l25 -26c-37 -51 -106 -86 -194 -86c-136 0 -238 99 -238 244c0 149 91 251 237 251c143 0 207 -115 207 -230v-9h-398c0 -13 1 -26 1 -31c9 -122 98 -184 200 -184c85 0 137 41 160 71zM97 284h348c-10 85 -63 158 -164 158c-97 0 -160 -60 -179 -132
c-2 -8 -4 -16 -5 -26zM362 721l-139 -138l-20 17l118 154z" />
    <glyph glyph-name="ecircumflex" unicode="&#xea;" 
d="M455 100l25 -26c-37 -51 -106 -86 -194 -86c-136 0 -238 99 -238 244c0 149 91 251 237 251c143 0 207 -115 207 -230v-9h-398c0 -13 1 -26 1 -31c9 -122 98 -184 200 -184c85 0 137 41 160 71zM97 284h348c-10 85 -63 158 -164 158c-97 0 -160 -60 -179 -132
c-2 -8 -4 -16 -5 -26zM420 598l-26 -22l-122 102l-122 -102l-26 22l148 133h1z" />
    <glyph glyph-name="edieresis" unicode="&#xeb;" 
d="M455 100l25 -26c-37 -51 -106 -86 -194 -86c-136 0 -238 99 -238 244c0 149 91 251 237 251c143 0 207 -115 207 -230v-9h-398c0 -13 1 -26 1 -31c9 -122 98 -184 200 -184c85 0 137 41 160 71zM97 284h348c-10 85 -63 158 -164 158c-97 0 -160 -60 -179 -132
c-2 -8 -4 -16 -5 -26zM201 630c0 -20 -17 -37 -39 -37c-20 0 -37 17 -37 37c0 22 17 39 37 39c22 0 39 -17 39 -39zM420 630c0 -20 -15 -37 -39 -37c-21 0 -36 17 -36 37c0 22 15 39 36 39c24 0 39 -17 39 -39z" />
    <glyph glyph-name="egrave" unicode="&#xe8;" 
d="M455 100l25 -26c-37 -51 -106 -86 -194 -86c-136 0 -238 99 -238 244c0 149 91 251 237 251c143 0 207 -115 207 -230v-9h-398c0 -13 1 -26 1 -31c9 -122 98 -184 200 -184c85 0 137 41 160 71zM97 284h348c-10 85 -63 158 -164 158c-97 0 -160 -60 -179 -132
c-2 -8 -4 -16 -5 -26zM322 600l-21 -17l-138 138l41 33z" />
    <glyph glyph-name="iacute" unicode="&#xed;" horiz-adv-x="210" 
d="M127 0h-44v471h44v-471zM207 721l-139 -138l-20 17l118 154z" />
    <glyph glyph-name="icircumflex" unicode="&#xee;" horiz-adv-x="210" 
d="M127 0h-44v471h44v-471zM233 608l-26 -22l-102 102l-102 -102l-26 22l128 133h1z" />
    <glyph glyph-name="idieresis" unicode="&#xef;" horiz-adv-x="210" 
d="M127 0h-44v471h44v-471zM64 630c0 -20 -17 -37 -39 -37c-20 0 -37 17 -37 37c0 22 17 39 37 39c22 0 39 -17 39 -39zM223 630c0 -20 -15 -37 -39 -37c-21 0 -36 17 -36 37c0 22 15 39 36 39c24 0 39 -17 39 -39z" />
    <glyph glyph-name="igrave" unicode="&#xec;" horiz-adv-x="210" 
d="M127 0h-44v471h44v-471zM163 600l-21 -17l-138 138l41 33z" />
    <glyph glyph-name="ntilde" unicode="&#xf1;" horiz-adv-x="538" 
d="M463 0h-44v288c0 109 -42 151 -141 151c-76 0 -132 -42 -155 -66v-373h-44v471h44v-51c27 24 80 63 162 63c113 0 178 -55 178 -177v-306zM402 665l17 -27c-13 -16 -53 -53 -96 -53c-37 0 -76 47 -118 47c-28 0 -63 -29 -79 -43l-18 24c17 20 63 58 101 58
c42 0 83 -48 117 -48c37 0 65 30 76 42z" />
    <glyph glyph-name="oacute" unicode="&#xf3;" horiz-adv-x="593" 
d="M546 235c0 -138 -109 -247 -249 -247s-250 107 -250 247c0 141 110 248 250 248s249 -110 249 -248zM500 235c0 119 -95 206 -205 206c-121 0 -203 -88 -203 -209c0 -117 97 -202 203 -202c121 0 205 83 205 205zM396 721l-139 -138l-20 17l118 154z" />
    <glyph glyph-name="ocircumflex" unicode="&#xf4;" horiz-adv-x="593" 
d="M546 235c0 -138 -109 -247 -249 -247s-250 107 -250 247c0 141 110 248 250 248s249 -110 249 -248zM500 235c0 119 -95 206 -205 206c-121 0 -203 -88 -203 -209c0 -117 97 -202 203 -202c121 0 205 83 205 205zM446 598l-26 -22l-122 102l-122 -102l-26 22l148 133h1z
" />
    <glyph glyph-name="odieresis" unicode="&#xf6;" horiz-adv-x="593" 
d="M546 235c0 -138 -109 -247 -249 -247s-250 107 -250 247c0 141 110 248 250 248s249 -110 249 -248zM500 235c0 119 -95 206 -205 206c-121 0 -203 -88 -203 -209c0 -117 97 -202 203 -202c121 0 205 83 205 205zM225 630c0 -20 -17 -37 -39 -37c-20 0 -37 17 -37 37
c0 22 17 39 37 39c22 0 39 -17 39 -39zM444 630c0 -20 -15 -37 -39 -37c-21 0 -36 17 -36 37c0 22 15 39 36 39c24 0 39 -17 39 -39z" />
    <glyph glyph-name="ograve" unicode="&#xf2;" horiz-adv-x="593" 
d="M546 235c0 -138 -109 -247 -249 -247s-250 107 -250 247c0 141 110 248 250 248s249 -110 249 -248zM500 235c0 119 -95 206 -205 206c-121 0 -203 -88 -203 -209c0 -117 97 -202 203 -202c121 0 205 83 205 205zM354 600l-21 -17l-138 138l41 33z" />
    <glyph glyph-name="otilde" unicode="&#xf5;" horiz-adv-x="593" 
d="M546 235c0 -138 -109 -247 -249 -247s-250 107 -250 247c0 141 110 248 250 248s249 -110 249 -248zM500 235c0 119 -95 206 -205 206c-121 0 -203 -88 -203 -209c0 -117 97 -202 203 -202c121 0 205 83 205 205zM435 665l17 -27c-13 -16 -53 -53 -96 -53
c-37 0 -76 47 -118 47c-28 0 -63 -29 -79 -43l-18 24c17 20 63 58 101 58c42 0 83 -48 117 -48c37 0 65 30 76 42z" />
    <glyph glyph-name="scaron" unicode="&#x161;" horiz-adv-x="393" 
d="M29 60l29 30c21 -25 57 -63 131 -63c66 0 114 36 114 105c0 114 -235 92 -235 230c0 69 54 122 138 122c52 0 106 -27 130 -56l-23 -33c-12 14 -56 50 -110 50c-70 0 -92 -45 -92 -78c0 -103 238 -90 238 -235c0 -87 -70 -145 -161 -145c-79 0 -134 39 -159 73zM350 709
l-147 -133h-1l-148 133l26 22l122 -102l122 102z" />
    <glyph glyph-name="uacute" unicode="&#xfa;" horiz-adv-x="538" 
d="M417 73v398h44v-417c-45 -43 -106 -66 -192 -66c-114 0 -194 60 -194 180v303h44v-293c0 -99 57 -149 149 -149c75 0 121 24 149 44zM370 721l-139 -138l-20 17l118 154z" />
    <glyph glyph-name="ucircumflex" unicode="&#xfb;" horiz-adv-x="538" 
d="M417 73v398h44v-417c-45 -43 -106 -66 -192 -66c-114 0 -194 60 -194 180v303h44v-293c0 -99 57 -149 149 -149c75 0 121 24 149 44zM420 598l-26 -22l-122 102l-122 -102l-26 22l148 133h1z" />
    <glyph glyph-name="udieresis" unicode="&#xfc;" horiz-adv-x="538" 
d="M417 73v398h44v-417c-45 -43 -106 -66 -192 -66c-114 0 -194 60 -194 180v303h44v-293c0 -99 57 -149 149 -149c75 0 121 24 149 44zM197 630c0 -20 -17 -37 -39 -37c-20 0 -37 17 -37 37c0 22 17 39 37 39c22 0 39 -17 39 -39zM416 630c0 -20 -15 -37 -39 -37
c-21 0 -36 17 -36 37c0 22 15 39 36 39c24 0 39 -17 39 -39z" />
    <glyph glyph-name="ugrave" unicode="&#xf9;" horiz-adv-x="538" 
d="M417 73v398h44v-417c-45 -43 -106 -66 -192 -66c-114 0 -194 60 -194 180v303h44v-293c0 -99 57 -149 149 -149c75 0 121 24 149 44zM328 600l-21 -17l-138 138l41 33z" />
    <glyph glyph-name="yacute" unicode="&#xfd;" horiz-adv-x="466" 
d="M101 -260h-46l146 297l-192 434h49l168 -389l186 389h48zM365 721l-139 -138l-20 17l118 154z" />
    <glyph glyph-name="ydieresis" unicode="&#xff;" horiz-adv-x="466" 
d="M101 -260h-46l146 297l-192 434h49l168 -389l186 389h48zM155 630c0 -20 -17 -37 -39 -37c-20 0 -37 17 -37 37c0 22 17 39 37 39c22 0 39 -17 39 -39zM374 630c0 -20 -15 -37 -39 -37c-21 0 -36 17 -36 37c0 22 15 39 36 39c24 0 39 -17 39 -39z" />
    <glyph glyph-name="zcaron" unicode="&#x17e;" horiz-adv-x="432" 
d="M392 1h-377l309 428h-264v41h343l-308 -428h297v-41zM370 709l-147 -133h-1l-148 133l26 22l122 -102l122 102z" />
    <glyph glyph-name="ff" unicode="&#xfb00;" horiz-adv-x="570" 
d="M149 0h-44v429h-80v41h80v108c0 68 14 117 40 149c27 32 68 47 109 47c37 0 65 -12 73 -18l-21 -42c-7 5 -29 16 -58 16c-67 0 -99 -56 -99 -142v-118h112v-41h-112v-429zM434 0h-44v429h-75v41h75v155c0 68 14 117 40 149c27 32 68 47 109 47c37 0 65 -12 73 -18
l-21 -42c-7 5 -29 16 -58 16c-67 0 -99 -56 -99 -142v-165h117v-41h-117v-429z" />
    <glyph glyph-name="ffi" unicode="&#xfb03;" horiz-adv-x="781" 
d="M697 0h-44v471h44v-471zM716 611c0 -22 -17 -40 -40 -40c-22 0 -40 17 -40 40s18 40 40 40c23 0 40 -18 40 -40zM149 0h-44v429h-80v41h80v108c0 68 14 117 40 149c27 32 68 47 109 47c37 0 65 -12 73 -18l-21 -42c-7 5 -29 16 -58 16c-67 0 -99 -56 -99 -142v-118h112
v-41h-112v-429zM434 0h-44v429h-75v41h75v155c0 68 14 117 40 149c27 32 68 47 109 47c37 0 65 -12 73 -18l-21 -42c-7 5 -29 16 -58 16c-67 0 -99 -56 -99 -142v-165h117v-41h-117v-429z" />
    <glyph glyph-name="ffl" unicode="&#xfb04;" horiz-adv-x="788" 
d="M701 0h-44v820h44v-820zM149 0h-44v429h-80v41h80v103c0 68 14 117 40 149c27 32 68 47 109 47c37 0 65 -12 73 -18l-21 -42c-7 5 -29 16 -58 16c-67 0 -99 -56 -99 -142v-113h112v-41h-112v-429zM434 0h-44v429h-75v41h75v140c0 68 14 117 40 149c27 32 68 47 109 47
c37 0 65 -12 73 -18l-21 -42c-7 5 -29 16 -58 16c-67 0 -99 -56 -99 -142v-150h112v-41h-112v-429z" />
    <glyph glyph-name="wacute" unicode="&#x1e83;" horiz-adv-x="707" 
d="M503 -22h-1l-149 404l-148 -404h-1l-191 493h49l144 -377l146 402h1l151 -402l144 377h46zM435 721l-139 -138l-20 17l118 154z" />
    <glyph glyph-name="Wacute" unicode="&#x1e82;" horiz-adv-x="991" 
d="M635 885l-238 -43l-12 31l227 61zM737 -28l-241 663l-238 -663l-246 785h56l189 -617c4 -12 5 -24 6 -34c1 10 3 22 7 34l228 638l231 -638c4 -12 5 -24 6 -34c1 10 3 23 6 34l183 617h54z" />
    <glyph glyph-name="wgrave.sc" horiz-adv-x="772" 
d="M454 620l-21 -17l-139 138l41 33zM565 -21l-179 439l-177 -438l-189 544h53l137 -406c3 -8 3 -16 4 -24c1 8 2 16 5 24l168 422l170 -422c3 -8 4 -16 5 -23c0 7 2 16 4 23l132 406h53z" />
    <glyph glyph-name="wgrave" unicode="&#x1e81;" horiz-adv-x="707" 
d="M429 600l-21 -17l-138 138l41 33zM503 -22h-1l-149 404l-148 -404h-1l-191 493h49l144 -377l146 402h1l151 -402l144 377h46z" />
    <glyph glyph-name="Wgrave" unicode="&#x1e80;" horiz-adv-x="991" 
d="M610 843l-238 43l23 49l227 -61zM737 -28l-241 663l-238 -663l-246 785h56l189 -617c4 -12 5 -24 6 -34c1 10 3 22 7 34l228 638l231 -638c4 -12 5 -24 6 -34c1 10 3 23 6 34l183 617h54z" />
    <glyph glyph-name="uni1E6B.sc" horiz-adv-x="444" 
d="M245 0h-45v484l-172 -1v39h388v-39l-171 1v-484zM260 640c0 -20 -18 -37 -40 -37c-19 0 -36 17 -36 37c0 22 17 39 36 39c22 0 40 -17 40 -39z" />
    <glyph glyph-name="uni1E6B.semp" horiz-adv-x="280" 
d="M139 794c0 -20 -17 -37 -39 -37c-20 0 -37 17 -37 37c0 22 17 39 37 39c22 0 39 -17 39 -39zM123 0h-44v659h44v-189h146v-41h-146v-429z" />
    <glyph glyph-name="uni1E6B.alt2" horiz-adv-x="300" 
d="M188 794c0 -20 -17 -37 -39 -37c-20 0 -37 17 -37 37c0 22 17 39 37 39c22 0 39 -17 39 -39zM172 0h-44v429h-114v41h114v171h44v-171h114v-41h-114v-429z" />
    <glyph glyph-name="uni1E6B.alt" horiz-adv-x="286" 
d="M166 794c0 -20 -17 -37 -39 -37c-20 0 -37 17 -37 37c0 22 17 39 37 39c22 0 39 -17 39 -39zM257 31l-30 -40c-71 0 -121 29 -121 143v295h-87v41h87v171h44v-171h114v-41h-114v-286c0 -97 38 -112 107 -112z" />
    <glyph glyph-name="uni1E6B" unicode="&#x1e6b;" horiz-adv-x="280" 
d="M168 794c0 -20 -17 -37 -39 -37c-20 0 -37 17 -37 37c0 22 17 39 37 39c22 0 39 -17 39 -39zM152 0h-44v429h-87v41h87v171h44v-171h114v-41h-114v-429z" />
    <glyph glyph-name="uni1E6A" unicode="&#x1e6a;" horiz-adv-x="530" 
d="M289 0h-48v713h-219v43h486v-43h-219v-713zM303 879c0 -20 -17 -37 -39 -37c-20 0 -37 17 -37 37c0 22 17 39 37 39c22 0 39 -17 39 -39z" />
    <glyph glyph-name="uni1E61.sc" horiz-adv-x="436" 
d="M42 61l29 33c21 -26 68 -62 143 -62c67 0 121 38 121 99c0 157 -261 114 -261 272c0 87 75 132 157 132c66 0 114 -30 135 -52l-26 -32c-23 22 -60 43 -109 43c-56 0 -109 -28 -109 -87c0 -127 263 -86 263 -276c0 -69 -64 -141 -174 -141c-77 0 -146 40 -169 71z
M256 640c0 -20 -17 -37 -39 -37c-20 0 -37 17 -37 37c0 22 17 39 37 39c22 0 39 -17 39 -39z" />
    <glyph glyph-name="uni1E61" unicode="&#x1e61;" horiz-adv-x="393" 
d="M29 60l29 30c21 -25 57 -63 131 -63c66 0 114 36 114 105c0 114 -235 92 -235 230c0 69 54 122 138 122c52 0 106 -27 130 -56l-23 -33c-12 14 -56 50 -110 50c-70 0 -92 -45 -92 -78c0 -103 238 -90 238 -235c0 -87 -70 -145 -161 -145c-79 0 -134 39 -159 73zM237 630
c0 -20 -17 -37 -39 -37c-20 0 -37 17 -37 37c0 22 17 39 37 39c22 0 39 -17 39 -39z" />
    <glyph glyph-name="uni1E60" unicode="&#x1e60;" horiz-adv-x="533" 
d="M37 84l31 35c27 -35 85 -87 194 -87c95 0 170 60 170 155c0 225 -354 175 -354 398c0 122 97 187 204 187c88 0 151 -43 177 -71l-30 -33c-30 30 -74 60 -147 60c-79 0 -154 -44 -154 -136c0 -193 356 -138 356 -404c0 -98 -82 -201 -226 -201c-104 0 -193 55 -221 97z
M306 879c0 -20 -17 -37 -39 -37c-20 0 -37 17 -37 37c0 22 17 39 37 39c22 0 39 -17 39 -39z" />
    <glyph glyph-name="uni1E57.sc" horiz-adv-x="443" 
d="M139 0h-46v524h110c93 0 197 -38 197 -151c0 -93 -75 -163 -209 -163h-52v-210zM139 248l50 1c101 2 164 45 164 124c0 73 -59 111 -139 112h-75v-237zM260 640c0 -20 -17 -37 -39 -37c-20 0 -37 17 -37 37c0 22 17 39 37 39c22 0 39 -17 39 -39z" />
    <glyph glyph-name="uni1E57" unicode="&#x1e57;" horiz-adv-x="573" 
d="M121 -255h-44v673c55 45 125 65 193 65c131 0 256 -83 256 -250c0 -130 -84 -245 -230 -245c-71 0 -140 34 -175 71v-314zM121 399v-280c33 -49 100 -90 175 -90c100 0 184 74 184 203c0 120 -81 210 -216 210c-56 0 -118 -23 -143 -43zM321 630c0 -20 -17 -37 -39 -37
c-20 0 -37 17 -37 37c0 22 17 39 37 39c22 0 39 -17 39 -39z" />
    <glyph glyph-name="uni1E56" unicode="&#x1e56;" horiz-adv-x="544" 
d="M154 0h-48v757h134c135 0 265 -59 265 -214c0 -132 -89 -234 -281 -234h-70v-309zM154 353h72c141 0 230 67 230 189c0 113 -86 171 -206 171h-96v-360zM315 879c0 -20 -17 -37 -39 -37c-20 0 -37 17 -37 37c0 22 17 39 37 39c22 0 39 -17 39 -39z" />
    <glyph glyph-name="uni1E41.sc" horiz-adv-x="749" 
d="M413 580c0 -19 -17 -37 -39 -37c-20 0 -37 18 -37 37c0 22 17 39 37 39c22 0 39 -17 39 -39zM683 0h-47l-39 376v21l-8 -18l-215 -399l-215 399l-8 18v-21l-38 -376h-47l59 538l250 -460l248 460z" />
    <glyph glyph-name="uni1E41.alt" horiz-adv-x="816" 
d="M446 630c0 -20 -17 -37 -39 -37c-20 0 -37 17 -37 37c0 22 17 39 37 39c22 0 39 -17 39 -39zM741 0h-44v293c0 99 -35 149 -127 149c-55 0 -119 -25 -153 -52c9 -24 14 -54 14 -87v-303h-44v293c0 99 -35 149 -127 149c-56 0 -112 -23 -139 -43v-399h-44v418
c44 36 110 65 182 65c64 0 110 -19 138 -57c44 32 105 57 172 57c114 0 172 -60 172 -180v-303z" />
    <glyph glyph-name="uni1E41" unicode="&#x1e41;" horiz-adv-x="818" 
d="M448 630c0 -20 -17 -37 -39 -37c-20 0 -37 17 -37 37c0 22 17 39 37 39c22 0 39 -17 39 -39zM743 0h-44v308c0 89 -32 131 -121 131c-63 0 -116 -36 -151 -70c4 -16 6 -34 6 -54v-315h-44v308c0 89 -32 131 -121 131c-66 0 -122 -42 -145 -66v-373h-44v471h44v-51
c27 24 90 63 152 63c64 0 115 -22 140 -76c48 44 115 76 170 76c93 0 158 -46 158 -168v-315z" />
    <glyph glyph-name="uni1E40" unicode="&#x1e40;" horiz-adv-x="963" 
d="M520 757c0 -20 -17 -37 -39 -37c-20 0 -37 17 -37 37c0 22 17 39 37 39c22 0 39 -17 39 -39zM892 0h-49l-55 588l-1 26l-8 -20l-298 -622l-298 622l-8 20c0 -8 0 -20 -1 -26l-54 -588h-49l76 778l319 -661c3 -6 14 -29 16 -40c2 11 13 34 16 40l317 661z" />
    <glyph glyph-name="uni1E1F.sc" horiz-adv-x="410" 
d="M139 0h-46v522h281v-39l-235 1v-184l189 1v-41l-189 1v-261zM271 640c0 -20 -17 -37 -39 -37c-20 0 -37 17 -37 37c0 22 17 39 37 39c22 0 39 -17 39 -39z" />
    <glyph glyph-name="uni1E1F.semp2" horiz-adv-x="284" 
d="M228 905c0 -21 -17 -38 -38 -38s-38 16 -38 38c0 21 17 38 38 38c20 0 38 -17 38 -38zM123 0h-44v619c0 68 14 117 40 149c27 32 68 47 109 47c37 0 65 -12 73 -18l-21 -42c-7 5 -29 16 -58 16c-67 0 -99 -56 -99 -142v-159h142v-41h-142v-429z" />
    <glyph glyph-name="uni1E1F.semp" horiz-adv-x="284" 
d="M228 905c0 -21 -17 -38 -38 -38s-38 16 -38 38c0 21 17 38 38 38c20 0 38 -17 38 -38zM123 -245h-44v864c0 68 14 117 40 149c27 32 68 47 109 47c37 0 65 -12 73 -18l-21 -42c-7 5 -29 16 -58 16c-67 0 -99 -56 -99 -142v-159h142v-41h-142v-674z" />
    <glyph glyph-name="uni1E1F" unicode="&#x1e1f;" horiz-adv-x="285" 
d="M149 0h-44v429h-80v41h80v149c0 68 14 117 40 149c27 32 68 47 109 47c37 0 65 -12 73 -18l-21 -42c-7 5 -29 16 -58 16c-67 0 -99 -56 -99 -142v-159h117v-41h-117v-429zM254 905c0 -21 -17 -38 -38 -38s-38 16 -38 38c0 21 17 38 38 38c20 0 38 -17 38 -38z" />
    <glyph glyph-name="uni1E1E" unicode="&#x1e1e;" horiz-adv-x="500" 
d="M154 0h-48v756h366v-43h-318v-284h256v-44h-256v-385zM325 878c0 -20 -17 -37 -39 -37c-20 0 -37 17 -37 37c0 22 17 39 37 39c22 0 39 -17 39 -39z" />
    <glyph glyph-name="uni1E0B.sc" horiz-adv-x="578" 
d="M220 0h-127v524h120c170 0 307 -91 307 -262c0 -163 -123 -262 -300 -262zM139 40h60c164 0 274 72 274 224c0 147 -123 221 -266 221h-68v-445zM288 640c0 -20 -18 -37 -40 -37c-20 0 -36 17 -36 37c0 22 16 39 36 39c22 0 40 -17 40 -39z" />
    <glyph glyph-name="uni1E0B" unicode="&#x1e0b;" horiz-adv-x="573" 
d="M453 76v287c-26 46 -94 79 -165 79c-116 0 -194 -78 -194 -214c0 -134 98 -199 210 -199c44 0 100 12 149 47zM453 423v397h44v-767c-55 -44 -124 -65 -193 -65c-131 0 -256 75 -256 240c0 156 99 255 240 255c62 0 126 -22 165 -60zM276 630c0 -20 -17 -37 -39 -37
c-20 0 -37 17 -37 37c0 22 17 39 37 39c22 0 39 -17 39 -39z" />
    <glyph glyph-name="uni1E0A" unicode="&#x1e0a;" horiz-adv-x="727" 
d="M271 0h-165v757h155c223 0 408 -131 408 -379c0 -233 -165 -378 -398 -378zM154 44h92c219 0 373 110 373 337c0 228 -171 332 -371 332h-94v-669zM380 879c0 -20 -17 -37 -39 -37c-20 0 -37 17 -37 37c0 22 17 39 37 39c22 0 39 -17 39 -39z" />
    <glyph glyph-name="uni1E03.sc" horiz-adv-x="483" 
d="M236 0h-143v524h109c101 0 179 -28 179 -131c0 -52 -46 -99 -93 -113c59 -6 141 -51 141 -133c0 -92 -66 -147 -193 -147zM139 287l43 1c99 2 152 43 152 104c0 69 -52 93 -128 93h-67v-198zM139 38l100 2c96 1 142 42 142 106c0 59 -59 103 -137 103h-105v-211zM253 640
c0 -20 -18 -37 -40 -37c-20 0 -36 17 -36 37c0 22 16 39 36 39c22 0 40 -17 40 -39z" />
    <glyph glyph-name="uni1E03" unicode="&#x1e03;" horiz-adv-x="573" 
d="M76 53v767h44v-413c25 28 97 76 180 76c156 0 225 -115 225 -245c0 -167 -125 -250 -256 -250c-68 0 -137 21 -193 65zM120 354v-279c25 -21 93 -46 149 -46c113 0 210 71 210 210c0 113 -64 203 -184 203c-70 0 -146 -49 -175 -88zM358 630c0 -20 -17 -37 -39 -37
c-20 0 -37 17 -37 37c0 22 17 39 37 39c22 0 39 -17 39 -39z" />
    <glyph glyph-name="wacute.sc" horiz-adv-x="772" 
d="M475 741l-139 -138l-20 17l118 154zM565 -21l-179 439l-177 -438l-189 544h53l137 -406c3 -8 3 -16 4 -24c1 8 2 16 5 24l168 422l170 -422c3 -8 4 -16 5 -23c0 7 2 16 4 23l132 406h53z" />
    <glyph glyph-name="quoteleft.sc" horiz-adv-x="227" 
d="M119 372h-51l72 182h42z" />
    <glyph glyph-name="Wdieresis" unicode="&#x1e84;" horiz-adv-x="991" 
d="M305 757c0 -20 -17 -37 -39 -37c-20 0 -37 17 -37 37c0 22 17 39 37 39c22 0 39 -17 39 -39zM764 757c0 -20 -15 -37 -39 -37c-21 0 -36 17 -36 37c0 22 15 39 36 39c24 0 39 -17 39 -39zM737 -28l-241 663l-238 -663l-246 785h56l189 -617c4 -12 5 -24 6 -34
c1 10 3 22 7 34l228 638l231 -638c4 -12 5 -24 6 -34c1 10 3 23 6 34l183 617h54z" />
    <glyph glyph-name="quoteright.sc" horiz-adv-x="224" 
d="M111 372h-42l63 182h51z" />
    <glyph glyph-name="quotedblleft.sc" horiz-adv-x="372" 
d="M119 372h-51l72 182h42zM264 372h-51l72 182h42z" />
    <glyph glyph-name="quotedblright.sc" horiz-adv-x="369" 
d="M256 372h-42l63 182h51zM111 372h-42l63 182h51z" />
    <glyph glyph-name="perthousand.sc" horiz-adv-x="934" 
d="M195 -20l-32 11l250 553l32 -12zM150 318c-60 0 -108 48 -108 108s48 108 108 108s108 -48 108 -108s-49 -108 -108 -108zM150 351c39 0 73 36 73 75s-34 75 -73 75s-73 -36 -73 -75s34 -75 73 -75zM476 -10c-60 0 -108 48 -108 108s48 108 108 108s108 -48 108 -108
s-49 -108 -108 -108zM476 23c39 0 73 36 73 75s-34 75 -73 75s-73 -36 -73 -75s34 -75 73 -75zM786 -10c-60 0 -108 48 -108 108s48 108 108 108s108 -48 108 -108s-49 -108 -108 -108zM786 23c39 0 73 36 73 75s-34 75 -73 75s-73 -36 -73 -75s34 -75 73 -75z" />
    <glyph glyph-name="minute" unicode="&#x2032;" horiz-adv-x="214" 
d="M99 575h-42l63 182h51z" />
    <glyph glyph-name="second" unicode="&#x2033;" horiz-adv-x="359" 
d="M244 575h-42l63 182h51zM99 575h-42l63 182h51z" />
    <glyph glyph-name="wdieresis" unicode="&#x1e85;" horiz-adv-x="707" 
d="M503 -22h-1l-149 404l-148 -404h-1l-191 493h49l144 -377l146 402h1l151 -402l144 377h46zM282 630c0 -20 -17 -37 -39 -37c-20 0 -37 17 -37 37c0 22 17 39 37 39c22 0 39 -17 39 -39zM501 630c0 -20 -15 -37 -39 -37c-21 0 -36 17 -36 37c0 22 15 39 36 39
c24 0 39 -17 39 -39z" />
    <glyph glyph-name="guilsinglleft.sc" horiz-adv-x="291" 
d="M225 50h-40l-123 209l120 209h40l-121 -209z" />
    <glyph glyph-name="wdieresis.sc" horiz-adv-x="772" 
d="M313 640c0 -20 -17 -37 -39 -37c-20 0 -37 17 -37 37c0 22 17 39 37 39c22 0 39 -17 39 -39zM532 640c0 -20 -15 -37 -38 -37c-22 0 -37 17 -37 37c0 22 15 39 37 39c23 0 38 -17 38 -39zM565 -21l-179 439l-177 -438l-189 544h53l137 -406c3 -8 3 -16 4 -24
c1 8 2 16 5 24l168 422l170 -422c3 -8 4 -16 5 -23c0 7 2 16 4 23l132 406h53z" />
    <glyph glyph-name="Ygrave" unicode="&#x1ef2;" horiz-adv-x="523" 
d="M324 751l-20 -17l-139 138l41 33zM285 0h-48v328l-240 429h57l204 -365c2 -3 4 -5 5 -15c1 10 3 12 5 15l206 365h54l-243 -429v-328z" />
    <glyph glyph-name="guilsinglright.sc" horiz-adv-x="291" 
d="M106 50h-40l124 209l-121 209h40l120 -209z" />
    <glyph glyph-name="zero.sinf" unicode="&#x2080;" horiz-adv-x="407" 
d="M203 -188c-133 0 -157 122 -157 207s23 208 157 208s158 -118 158 -208c0 -87 -25 -207 -158 -207zM203 -154c105 0 116 115 116 173c0 63 -12 174 -116 174c-102 0 -115 -107 -115 -174c0 -58 14 -173 115 -173z" />
    <glyph glyph-name="one.sinf" unicode="&#x2081;" horiz-adv-x="216" 
d="M151 -181h-40v359l-74 -31l-14 33l128 50v-411z" />
    <glyph glyph-name="two.sinf" unicode="&#x2082;" horiz-adv-x="379" 
d="M339 -180h-318c52 37 118 90 170 139c44 41 92 96 92 150c0 45 -38 83 -91 83c-45 0 -81 -27 -96 -44l-22 26c18 16 59 52 122 52c77 0 129 -52 129 -117c0 -69 -64 -135 -101 -168c-40 -35 -87 -70 -116 -89l231 3v-35z" />
    <glyph glyph-name="Ygrave.alt" horiz-adv-x="523" 
d="M365 842l-238 43l23 49l227 -61zM285 0h-48v328l-240 429h57l204 -365c2 -3 4 -5 5 -15c1 10 3 12 5 15l206 365h54l-243 -429v-328z" />
    <glyph glyph-name="three.sinf" unicode="&#x2083;" horiz-adv-x="359" 
d="M220 45v-1c65 -21 96 -68 96 -115c0 -58 -56 -116 -160 -116c-75 0 -119 31 -130 42l19 32c9 -11 48 -38 110 -38c80 0 118 40 118 82c0 52 -51 100 -142 101v22c83 2 125 41 125 78c0 33 -30 59 -86 59c-28 0 -61 -9 -82 -22l-15 30c11 10 55 30 104 30
c76 0 121 -47 121 -93c0 -35 -22 -70 -78 -91z" />
    <glyph glyph-name="four.sinf" unicode="&#x2084;" horiz-adv-x="394" 
d="M299 -183h-43v90h-229v33l242 281h30v-278h64v-36h-64v-90zM257 -58l1 218l-184 -218h183z" />
    <glyph glyph-name="ygrave" unicode="&#x1ef3;" horiz-adv-x="466" 
d="M101 -260h-46l146 297l-192 434h49l168 -389l186 389h48zM290 600l-21 -17l-138 138l41 33z" />
    <glyph glyph-name="five.sinf" unicode="&#x2085;" horiz-adv-x="352" 
d="M27 -155l18 34c30 -17 66 -29 99 -29c86 0 126 48 126 97c0 48 -40 94 -126 94c-22 0 -45 -3 -73 -11l60 190h171l-11 -35h-131l-37 -114c12 2 23 2 36 2c86 0 153 -50 153 -122c0 -73 -52 -138 -162 -138c-57 0 -108 22 -123 32z" />
    <glyph glyph-name="six.sinf" unicode="&#x2086;" horiz-adv-x="387" 
d="M203 242l29 -29c-35 -40 -91 -107 -114 -148c19 16 50 26 90 26c83 0 149 -64 149 -144c0 -81 -71 -141 -158 -141c-90 0 -160 66 -160 142c0 95 111 234 164 294zM315 -51c0 62 -54 106 -120 106c-60 0 -114 -45 -114 -106c0 -54 54 -105 119 -105c63 0 115 43 115 105z
" />
    <glyph glyph-name="seven.sinf" unicode="&#x2087;" horiz-adv-x="331" 
d="M92 -184h-44l210 366h-223v38h285z" />
    <glyph glyph-name="eight.sinf" unicode="&#x2088;" horiz-adv-x="386" 
d="M260 23c39 -16 79 -46 79 -97c0 -66 -67 -120 -146 -120c-81 0 -147 53 -147 119c0 51 45 82 81 98c-45 17 -77 54 -77 94c0 75 73 118 143 118c77 0 143 -45 143 -118c0 -40 -34 -78 -76 -94zM295 -76c0 44 -46 83 -103 83c-56 0 -102 -38 -102 -83s46 -82 102 -82
c57 0 103 38 103 82zM292 116c0 48 -43 83 -99 83c-55 0 -100 -36 -100 -81c0 -41 43 -78 101 -78c55 0 98 35 98 76z" />
    <glyph glyph-name="nine.sinf" unicode="&#x2089;" horiz-adv-x="387" 
d="M174 -202l-28 25c46 45 81 91 122 155c-19 -18 -58 -24 -79 -24c-93 0 -160 66 -160 144c0 74 68 141 159 141c93 0 160 -67 160 -141c0 -109 -123 -249 -174 -300zM304 98c0 57 -52 103 -116 103c-69 0 -114 -49 -114 -103c0 -57 44 -108 115 -108c69 0 115 47 115 108z
" />
    <glyph glyph-name="parenleft.sinf" unicode="&#x208d;" horiz-adv-x="167" 
d="M129 -281l-30 -12c-32 74 -52 177 -52 288c0 126 24 232 52 299l30 -11c-18 -50 -46 -162 -46 -286c0 -107 21 -191 46 -278z" />
    <glyph glyph-name="parenright.sinf" unicode="&#x208e;" horiz-adv-x="166" 
d="M68 -293l-30 12c25 87 45 171 45 278c0 124 -27 236 -46 286l31 11c27 -66 50 -173 50 -299c0 -111 -19 -214 -50 -288z" />
    <glyph glyph-name="Euro" unicode="&#x20ac;" horiz-adv-x="688" 
d="M604 59l19 -43c-6 -4 -51 -29 -156 -29c-171 0 -292 116 -322 290h-90l10 40h74c-2 20 -3 40 -3 61c0 20 1 39 3 59h-74l10 40h69c32 170 144 285 313 285c83 0 135 -19 162 -37l-21 -38c-12 6 -69 30 -149 30c-133 0 -221 -89 -253 -240l309 2l-10 -42h-307
c-3 -21 -4 -42 -4 -64c0 -14 0 -28 4 -56l307 2l-10 -42h-290c36 -148 128 -246 273 -246c90 0 131 25 136 28z" />
    <glyph glyph-name="Euro.dnom" horiz-adv-x="412" 
d="M358 43l15 -32c-4 -2 -35 -18 -91 -18c-108 0 -179 61 -198 153h-54l8 32h42c-1 9 -2 17 -2 27c0 9 1 17 2 26h-44l8 31h40c19 91 85 151 188 151c46 0 81 -12 99 -23l-17 -29c-7 4 -44 18 -87 18c-75 0 -123 -42 -142 -117l179 2l-8 -33h-178c-1 -9 -1 -18 -1 -29
c0 -6 0 -12 1 -24l181 1l-8 -33h-166c22 -75 72 -120 154 -120c47 0 76 15 79 17z" />
    <glyph glyph-name="Euro.sup" horiz-adv-x="413" 
d="M359 386l15 -32c-4 -2 -34 -18 -97 -18c-101 0 -173 61 -192 153h-54l8 32h42c-1 9 -2 17 -2 27c0 9 1 17 2 26h-44l8 31h40c19 91 86 151 186 151c49 0 83 -12 101 -23l-17 -29c-7 4 -43 18 -89 18c-72 0 -121 -42 -140 -117l179 2l-8 -33h-178c-1 -9 -1 -18 -1 -29
c0 -6 0 -12 1 -24l181 1l-8 -33h-166c21 -73 72 -120 151 -120c52 0 79 15 82 17z" />
    <glyph glyph-name="Euro.sinf" horiz-adv-x="412" 
d="M359 -144l15 -32c-4 -2 -34 -18 -97 -18c-101 0 -173 61 -192 153h-54l8 32h42c-1 9 -2 17 -2 27c0 9 1 17 2 26h-44l8 31h40c19 91 86 151 186 151c49 0 83 -12 101 -23l-17 -29c-7 4 -43 18 -89 18c-72 0 -121 -42 -140 -117l179 2l-8 -33h-178c-1 -9 -1 -18 -1 -29
c0 -6 0 -12 1 -24l181 1l-8 -33h-166c21 -73 72 -120 151 -120c52 0 79 15 82 17z" />
    <glyph glyph-name="Euro.alt" horiz-adv-x="626" 
d="M551 65l21 -38c-6 -4 -53 -40 -158 -40c-206 0 -359 176 -359 391c0 216 153 392 359 392c83 0 140 -26 167 -44l-26 -36c-12 6 -69 35 -149 35c-136 0 -249 -91 -289 -233h325v-41h-335c-4 -25 -6 -51 -6 -78c0 -14 1 -28 2 -41h339v-41h-333c29 -133 126 -229 245 -254
c20 -4 40 -6 61 -6c80 0 128 29 136 34z" />
    <glyph glyph-name="ygrave.sc" horiz-adv-x="435" 
d="M240 0h-46l1 226l-183 298h54l153 -258l153 258h53l-186 -298zM275 620l-20 -17l-139 138l41 33z" />
    <glyph glyph-name="Euro.alt.sc" horiz-adv-x="501" 
d="M424 53l18 -33c-4 -3 -42 -30 -119 -30c-152 0 -265 126 -265 279c0 154 113 265 265 265c60 0 105 -20 126 -34l-23 -32c-9 4 -52 25 -109 25c-96 0 -175 -60 -205 -155h198v-37h-207c-3 -13 -4 -27 -4 -40c0 -7 1 -13 1 -20h210v-38h-204c26 -104 115 -174 217 -174
c58 0 94 21 101 24z" />
    <glyph glyph-name="Euro.sc" 
d="M468 51l17 -39c-5 -3 -42 -22 -121 -22c-127 0 -217 79 -241 197h-78l10 37h63c-1 11 -2 22 -2 37s1 27 2 43h-65l9 36h61c27 116 104 194 239 194c57 0 99 -15 121 -28l-20 -34c-10 4 -54 22 -112 22c-91 0 -156 -55 -180 -154c75 0 150 0 227 2l-9 -38h-226
c-2 -13 -3 -26 -3 -39s1 -27 3 -41l228 1l-10 -38h-210c26 -94 92 -158 194 -158c65 0 99 19 103 22z" />
    <glyph glyph-name="uni2117" unicode="&#x2117;" horiz-adv-x="918" 
d="M459 -13c-219 0 -392 176 -392 392c0 218 173 392 392 392s392 -174 392 -392c0 -216 -173 -392 -392 -392zM459 20c200 0 355 160 355 359c0 201 -155 359 -355 359c-201 0 -355 -158 -355 -359c0 -199 154 -359 355 -359zM399 108h-46v524h110c94 0 197 -38 197 -151
c0 -93 -75 -163 -209 -163h-52v-210zM399 356l50 1c101 2 164 45 164 124c0 73 -59 111 -139 112h-75v-237z" />
    <glyph glyph-name="Omega" unicode="&#x2126;" horiz-adv-x="926" 
d="M839 0h-300v41c121 29 265 149 265 345c0 189 -150 339 -341 339s-341 -150 -341 -339c0 -196 144 -316 265 -345v-41h-300v42h201c-116 51 -216 181 -216 341c0 226 181 387 391 387s391 -161 391 -387c0 -160 -100 -290 -216 -341h201v-42z" />
    <glyph glyph-name="estimated" unicode="&#x212e;" horiz-adv-x="862" 
d="M711 130l30 -35c-4 -5 -105 -108 -277 -108c-220 0 -396 175 -396 394c0 212 175 389 387 389c177 0 346 -111 348 -405h-685c8 -190 150 -333 348 -333c145 0 240 92 245 98zM119 408h635c-15 231 -149 318 -298 318c-199 0 -325 -162 -337 -318z" />
    <glyph glyph-name="arrowleft" unicode="&#x2190;" horiz-adv-x="861" 
d="M811 353h-696l80 -122l-39 -15l-106 160l106 160l39 -15l-80 -122h696v-46z" />
    <glyph glyph-name="arrowup" unicode="&#x2191;" horiz-adv-x="420" 
d="M233 -4h-46v696l-122 -80l-15 39l160 106l160 -106l-15 -39l-122 80v-696z" />
    <glyph glyph-name="arrowright" unicode="&#x2192;" horiz-adv-x="861" 
d="M705 216l-39 15l80 122h-696v46h696l-80 122l39 15l106 -160z" />
    <glyph glyph-name="arrowdown" unicode="&#x2193;" horiz-adv-x="420" 
d="M370 102l-160 -106l-160 106l15 39l122 -80v696h46v-696l122 80z" />
    <glyph glyph-name="arrowboth" unicode="&#x2194;" horiz-adv-x="881" 
d="M725 216l-39 15l80 122h-651l80 -122l-39 -15l-106 160l106 160l39 -15l-80 -122h651l-80 122l39 15l106 -160z" />
    <glyph glyph-name="arrowupdn" unicode="&#x2195;" horiz-adv-x="420" 
d="M370 91l-160 -106l-160 106l15 39l122 -80v651l-122 -80l-15 39l160 106l160 -106l-15 -39l-122 80v-651l122 80z" />
    <glyph glyph-name="uni2196" unicode="&#x2196;" horiz-adv-x="714" 
d="M631 91l-492 492l-30 -142l-38 17l38 188l188 38l17 -38l-142 -30l492 -492z" />
    <glyph glyph-name="uni2197" unicode="&#x2197;" horiz-adv-x="714" 
d="M664 458l-38 -17l-30 142l-492 -492l-33 33l492 492l-142 30l17 38l188 -38z" />
    <glyph glyph-name="uni2198" unicode="&#x2198;" horiz-adv-x="714" 
d="M626 129l-188 -38l-17 38l142 30l-492 492l33 33l492 -492l30 142l38 -17z" />
    <glyph glyph-name="minus.dnom" horiz-adv-x="433" 
d="M375 173h-317v35h317v-35z" />
    <glyph glyph-name="minus.sup" horiz-adv-x="433" 
d="M375 525h-317v34h317v-34z" />
    <glyph glyph-name="minus.sinf" horiz-adv-x="433" 
d="M375 -6h-317v34h317v-34z" />
    <glyph glyph-name="minus.sc" horiz-adv-x="522" 
d="M444 237h-366v40h366v-40z" />
    <glyph glyph-name="radical" unicode="&#x221a;" horiz-adv-x="652" 
d="M225 -273l-209 548h50l163 -417l368 984h53z" />
    <glyph glyph-name="infinity" unicode="&#x221e;" horiz-adv-x="935" 
d="M461 190c-48 -82 -102 -153 -194 -153c-113 0 -198 108 -198 220c0 135 93 230 198 230c100 0 149 -99 197 -200c45 101 99 200 224 200c96 0 177 -84 177 -219c0 -145 -106 -231 -199 -231c-100 0 -158 71 -205 153zM485 240c44 -85 93 -160 185 -160
c91 0 157 62 157 182c0 92 -51 184 -155 184c-88 0 -134 -103 -187 -206zM439 231c-56 106 -99 215 -182 215c-82 0 -149 -78 -149 -175c0 -129 78 -191 171 -191c82 0 123 70 160 151z" />
    <glyph glyph-name="integral" unicode="&#x222b;" horiz-adv-x="421" 
d="M188 -9v635c0 138 67 189 149 189c37 0 65 -12 73 -18l-21 -42c-7 5 -30 16 -57 16c-69 0 -100 -56 -100 -132v-635c0 -138 -67 -189 -149 -189c-37 0 -65 12 -73 18l21 42c7 -5 30 -16 57 -16c69 0 100 56 100 132z" />
    <glyph glyph-name="approxequal" unicode="&#x2248;" horiz-adv-x="691" 
d="M552 286l44 -5c-7 -99 -57 -117 -98 -117c-145 0 -186 107 -298 107c-38 0 -63 -36 -62 -84l-42 4c0 74 44 119 101 119c133 0 172 -107 294 -107c35 0 61 28 61 83zM552 516l44 -5c-7 -99 -57 -117 -98 -117c-145 0 -186 107 -298 107c-38 0 -63 -36 -62 -84l-42 4
c0 74 44 119 101 119c133 0 172 -107 294 -107c35 0 61 28 61 83z" />
    <glyph glyph-name="notequal" unicode="&#x2260;" horiz-adv-x="655" 
d="M576 224h-263l-60 -224h-47l61 224h-191v44h203l53 190h-256v44h268l53 192h43l-52 -192h188v-44h-200l-51 -190h251v-44z" />
    <glyph glyph-name="notequal.sc" horiz-adv-x="480" 
d="M423 165h-187l-56 -200l-38 9l53 191h-138v39h149l28 100h-177v40h188l56 200l38 -12l-53 -188h137v-40h-148l-28 -100h176v-39z" />
    <glyph glyph-name="lessequal" unicode="&#x2264;" horiz-adv-x="609" 
d="M494 88l-436 277v28l436 260l20 -37l-406 -237l406 -256zM550 1h-500v42h500v-42z" />
    <glyph glyph-name="greaterequal" unicode="&#x2265;" horiz-adv-x="609" 
d="M551 365l-436 -277l-20 35l406 256l-406 237l20 37l436 -260v-28zM559 1h-500v42h500v-42z" />
    <glyph glyph-name="triagup" unicode="&#x25b2;" horiz-adv-x="669" 
d="M679 0h-689l337 578z" />
    <glyph glyph-name="triagrt" unicode="&#x25ba;" horiz-adv-x="632" 
d="M632 360l-533 -365v724z" />
    <glyph glyph-name="triagdn" unicode="&#x25bc;" horiz-adv-x="669" 
d="M327 10l-337 579h689z" />
    <glyph glyph-name="triaglf" unicode="&#x25c4;" horiz-adv-x="632" 
d="M533 -5l-533 365l533 359v-724z" />
    <glyph glyph-name="lozenge" unicode="&#x25ca;" horiz-adv-x="569" 
d="M287 -21h-1l-231 437l231 437h1l227 -437zM288 81l176 335l-176 335l-180 -335z" />
    <glyph glyph-name="commaaccent" horiz-adv-x="317" 
d="M119 -233h-51l77 178h56z" />
    <glyph glyph-name="f.semp2" horiz-adv-x="284" 
d="M123 0h-44v619c0 68 14 117 40 149c27 32 68 47 109 47c37 0 65 -12 73 -18l-21 -42c-7 5 -29 16 -58 16c-67 0 -99 -56 -99 -142v-159h142v-41h-142v-429z" />
    <glyph glyph-name="f.sc" horiz-adv-x="409" 
d="M139 0h-46v523h280v-40l-234 1v-184l189 1v-41l-189 1v-261z" />
    <glyph glyph-name="grave.cap" horiz-adv-x="520" 
d="M418 842l-238 43l23 49l227 -61z" />
    <glyph glyph-name="acute.cap" horiz-adv-x="520" 
d="M430 885l-238 -43l-12 31l227 61z" />
    <glyph glyph-name="circumflex.cap" horiz-adv-x="520" 
d="M445 811l-149 69l-153 -69l-15 23l168 98h1l167 -99z" />
    <glyph glyph-name="caron.cap" horiz-adv-x="520" 
d="M464 916l-168 -100l-168 98l15 23l157 -70l145 71z" />
    <glyph glyph-name="tilde.cap" horiz-adv-x="834" 
d="M564 923l18 -30c-14 -17 -63 -61 -105 -61c-39 0 -81 50 -126 50c-30 0 -68 -31 -85 -46l-19 27c18 21 68 62 108 62c46 0 89 -51 125 -51c35 0 72 36 84 49z" />
    <glyph glyph-name="zero_slash.sc.alt" horiz-adv-x="679" 
d="M621 260c0 -150 -120 -270 -281 -270c-166 0 -283 122 -283 272s117 272 283 272c165 0 281 -116 281 -274zM201 73l239 399c-30 13 -64 20 -100 20c-139 0 -236 -97 -236 -228c0 -77 37 -148 97 -191zM478 451l-239 -399c28 -13 61 -20 96 -20c143 0 239 99 239 228
c0 82 -37 150 -96 191z" />
    <glyph glyph-name="idotaccent.sc" horiz-adv-x="232" 
d="M139 0h-46v524h46v-524zM154 630c0 -20 -17 -37 -39 -37c-20 0 -37 17 -37 37c0 22 17 39 37 39c22 0 39 -17 39 -39z" />
    <glyph glyph-name="uni2199" unicode="&#x2199;" horiz-adv-x="714" 
d="M297 91l-188 38l-38 188l38 17l30 -142l492 492l33 -33l-492 -492l142 -30z" />
    <glyph glyph-name="partialdiff" unicode="&#x2202;" horiz-adv-x="609" 
d="M143 776l18 30c234 -63 378 -298 378 -518c0 -184 -82 -301 -244 -301c-131 0 -239 102 -239 243c0 116 94 232 246 232c33 0 127 -13 190 -96c-40 197 -154 338 -349 410zM498 308c-59 88 -142 110 -204 110c-111 0 -188 -88 -188 -192c0 -122 95 -193 188 -193
c140 0 207 116 207 238c0 15 -1 22 -3 37z" />
    <glyph glyph-name="Delta" unicode="&#x2206;" horiz-adv-x="762" 
d="M719 0h-676l339 777zM650 44l-268 622l-269 -622h537z" />
    <glyph glyph-name="product" unicode="&#x220f;" horiz-adv-x="767" 
d="M652 0h-48v713h-441v-713h-48v757h537v-757z" />
    <glyph glyph-name="summation" unicode="&#x2211;" horiz-adv-x="638" 
d="M577 1h-523l280 377l-280 378h491v-43h-403l253 -335l-253 -334h435v-43z" />
    <glyph glyph-name="hyphen.sinf" horiz-adv-x="271" 
d="M208 -24h-150l5 37h150z" />
    <glyph glyph-name="hyphen.sup" horiz-adv-x="271" 
d="M208 507h-150l5 37h150z" />
    <glyph glyph-name="hyphen.dnom" horiz-adv-x="271" 
d="M208 156h-150l5 37h150z" />
    <glyph glyph-name="comma.sinf" horiz-adv-x="176" 
d="M61 -237h-32l46 106h43z" />
    <glyph glyph-name="comma.sup" horiz-adv-x="177" 
d="M61 294h-32l46 106h43z" />
    <glyph glyph-name="comma.dnom" horiz-adv-x="176" 
d="M61 -57h-32l46 106h43z" />
    <glyph glyph-name="plus.sc" horiz-adv-x="470" 
d="M256 73h-42v164h-162v40h162v164h42v-164h162v-40h-162v-164z" />
    <glyph glyph-name="plus.sinf" horiz-adv-x="381" 
d="M343 -5h-132v-125h-40v125h-133v38h133v126h40v-126h132v-38z" />
    <glyph glyph-name="plus.sup" horiz-adv-x="381" 
d="M343 526h-132v-125h-40v125h-133v38h133v126h40v-126h132v-38z" />
    <glyph glyph-name="plus.dnom" horiz-adv-x="395" 
d="M356 173h-140v-124h-36v124h-141v35h141v130h36v-130h140v-35z" />
    <glyph glyph-name="parenright.sc" horiz-adv-x="245" 
d="M100 -135l-33 15c30 112 55 222 55 362c0 163 -34 309 -56 373l34 14c33 -87 60 -224 60 -388c0 -146 -22 -280 -60 -376z" />
    <glyph glyph-name="parenright.sup" horiz-adv-x="166" 
d="M68 238l-30 12c25 87 45 171 45 278c0 124 -27 236 -46 286l31 11c27 -66 50 -173 50 -299c0 -111 -19 -214 -50 -288z" />
    <glyph glyph-name="parenright.dnom" horiz-adv-x="166" 
d="M68 -113l-30 12c25 87 45 171 45 278c0 124 -27 236 -46 286l31 11c27 -66 50 -173 50 -299c0 -111 -19 -214 -50 -288z" />
    <glyph glyph-name="parenleft.sc" horiz-adv-x="245" 
d="M178 -120l-33 -15c-38 96 -61 230 -61 376c0 164 28 301 60 388l35 -14c-22 -64 -56 -210 -56 -373c0 -140 24 -250 55 -362z" />
    <glyph glyph-name="parenleft.sup" horiz-adv-x="167" 
d="M129 250l-30 -12c-32 74 -52 177 -52 288c0 126 24 232 52 299l30 -11c-18 -50 -46 -162 -46 -286c0 -107 21 -191 46 -278z" />
    <glyph glyph-name="parenleft.dnom" horiz-adv-x="167" 
d="M129 -101l-30 -12c-32 74 -52 177 -52 288c0 126 24 232 52 299l30 -11c-18 -50 -46 -162 -46 -286c0 -107 21 -191 46 -278z" />
    <glyph glyph-name="quotesingle.sc" horiz-adv-x="200" 
d="M116 361h-32l-9 203h50z" />
    <glyph glyph-name="ampersand.sc" horiz-adv-x="577" 
d="M573 0h-62l-81 92c-12 -22 -75 -102 -173 -102c-119 0 -205 89 -205 179c0 119 108 168 141 180c-11 13 -44 43 -44 83c0 54 53 100 110 100c60 0 84 -29 95 -39l-28 -27c-11 10 -27 28 -66 28c-36 0 -68 -32 -68 -65c0 -31 24 -52 45 -75l194 1l-10 -35l-152 1zM402 122
l-186 196c-17 -1 -118 -40 -118 -142c0 -90 88 -147 153 -147c99 0 145 74 151 93z" />
    <glyph glyph-name="ampersand.alt.sc" horiz-adv-x="574" 
d="M573 0h-62l-80 89c-12 -22 -76 -99 -174 -99c-119 0 -205 89 -205 179c0 119 106 170 139 182c-11 13 -42 41 -42 81c0 54 53 100 110 100c60 0 84 -29 95 -39l-28 -27c-11 10 -27 28 -66 28c-36 0 -68 -32 -68 -65c0 -31 25 -51 46 -74zM402 122l-186 196
c-17 -1 -118 -40 -118 -142c0 -90 88 -147 153 -147c99 0 145 74 151 93z" />
    <glyph glyph-name="ampersand.alt" horiz-adv-x="719" 
d="M739 0h-68l-114 138c-8 -29 -88 -151 -243 -151c-150 0 -264 119 -264 261s103 237 191 256c-12 14 -60 64 -60 124c0 83 56 142 143 142c76 0 107 -37 123 -51l-31 -32c-14 13 -42 40 -92 40c-47 0 -97 -26 -97 -95c0 -49 34 -88 64 -123zM525 172l-254 295
c-22 -2 -171 -55 -171 -214c0 -136 113 -222 215 -222c141 0 202 115 210 141z" />
    <glyph glyph-name="percent.sc" horiz-adv-x="625" 
d="M195 -20l-32 11l250 553l32 -12zM150 318c-60 0 -108 48 -108 108s48 108 108 108s108 -48 108 -108s-49 -108 -108 -108zM150 351c39 0 73 36 73 75s-34 75 -73 75s-73 -36 -73 -75s34 -75 73 -75zM476 -10c-60 0 -108 48 -108 108s48 108 108 108s108 -48 108 -108
s-49 -108 -108 -108zM476 23c39 0 73 36 73 75s-34 75 -73 75s-73 -36 -73 -75s34 -75 73 -75z" />
    <glyph glyph-name="dollar.sc" horiz-adv-x="439" 
d="M243 -69l-32 1v71h-1c-74 0 -139 38 -160 66l27 33c19 -24 62 -57 134 -58v217l-3 2c-61 29 -128 62 -128 135c0 76 61 120 131 126v80h32v-80c58 -4 99 -32 115 -48l-25 -32c-21 19 -49 37 -90 40v-188c87 -42 133 -71 133 -157c0 -61 -49 -121 -133 -134v-74zM243 246
v-200c50 10 86 44 86 93c0 52 -23 75 -86 107zM211 311v173c-45 -6 -84 -32 -84 -81c0 -52 41 -72 84 -92z" />
    <glyph glyph-name="dollar.alt" horiz-adv-x="487" 
d="M268 -101h-39v103c-92 3 -166 58 -189 103l25 33c24 -33 71 -91 164 -94v339c-79 42 -156 84 -156 186c0 105 70 165 156 175v99h39v-98c73 -4 129 -52 151 -75l-26 -32c-24 25 -66 61 -125 66v-289c83 -43 170 -92 170 -224c0 -86 -63 -171 -170 -186v-106zM268 361
v-315c72 11 124 63 124 144c0 89 -53 136 -124 171zM229 435v268c-61 -9 -110 -51 -110 -128c0 -72 49 -107 110 -140z" />
    <glyph glyph-name="dollar.sinf" horiz-adv-x="323" 
d="M182 -223h-31v54c-57 2 -102 32 -118 56l21 24c16 -17 46 -48 97 -51v168c-48 22 -97 45 -97 99c0 56 45 89 97 94v52h31v-52c44 -2 77 -28 92 -40l-19 -23c-14 11 -38 31 -73 34v-143c50 -22 104 -48 104 -117c0 -45 -39 -90 -104 -99v-56zM182 13v-152
c38 7 67 32 67 71c0 42 -28 64 -67 81zM151 64v127c-32 -5 -60 -25 -60 -61c0 -34 28 -51 60 -66z" />
    <glyph glyph-name="dollar.sup" horiz-adv-x="317" 
d="M178 308h-31v54c-57 2 -102 32 -118 56l21 24c16 -17 46 -48 97 -51v168c-48 22 -97 45 -97 99c0 56 45 89 97 94v52h31v-52c44 -2 77 -28 92 -40l-19 -23c-14 11 -38 31 -73 34v-143c50 -22 104 -48 104 -117c0 -45 -39 -90 -104 -99v-56zM178 544v-152
c38 7 67 32 67 71c0 42 -28 64 -67 81zM147 595v127c-32 -5 -60 -25 -60 -61c0 -34 28 -51 60 -66z" />
    <glyph glyph-name="dollar.dnom" horiz-adv-x="323" 
d="M182 -43h-31v54c-57 2 -102 32 -118 56l21 24c16 -17 46 -48 97 -51v168c-48 22 -97 45 -97 99c0 56 45 89 97 94v52h31v-52c44 -2 77 -28 92 -40l-19 -23c-14 11 -38 31 -73 34v-143c50 -22 104 -48 104 -117c0 -45 -39 -90 -104 -99v-56zM182 193v-152
c38 7 67 32 67 71c0 42 -28 64 -67 81zM151 244v127c-32 -5 -60 -25 -60 -61c0 -34 28 -51 60 -66z" />
    <glyph glyph-name="numbersign.sc" horiz-adv-x="520" 
d="M327 -5l-38 5l23 176h-128l-24 -181l-38 5l23 176h-98l5 37h98l15 115h-100l5 37h100l22 173l40 -5l-23 -168h128l22 173l38 -5l-22 -168h99l-5 -37h-99l-15 -115h100l-5 -37h-100zM317 213l15 115h-128l-15 -115h128z" />
    <glyph glyph-name="numbersign.alt.sc" horiz-adv-x="958" 
d="M570 -19l-434 446l2 -427h-46v539l434 -446l-2 431h46v-543zM781 206c-68 0 -123 55 -123 124c0 67 55 123 123 123s124 -56 124 -123c0 -69 -56 -124 -124 -124zM782 240c48 0 88 41 88 89s-40 90 -88 90s-87 -42 -87 -90s39 -89 87 -89zM883 88h-195l5 34h195z" />
    <glyph glyph-name="numbersign.alt" horiz-adv-x="1217" 
d="M1174 472c0 -96 -72 -172 -177 -172s-178 75 -178 172c0 98 73 173 178 173s177 -77 177 -173zM995 336c86 0 135 55 135 136c0 79 -57 137 -134 137c-86 0 -134 -59 -134 -139c0 -78 59 -134 133 -134zM1116 138h-245l5 41h245zM730 -25l-588 672v-647h-48v775l588 -669
v651h48v-782z" />
    <glyph glyph-name="quotedbl.sc" horiz-adv-x="295" 
d="M116 361h-32l-9 203h50zM211 361h-32l-9 203h50z" />
    <glyph glyph-name="exclam.sc" horiz-adv-x="240" 
d="M138 144h-37l-11 400h59zM165 33c0 -24 -20 -44 -46 -44c-24 0 -44 20 -44 44c0 26 20 46 44 46c28 0 46 -20 46 -46z" />
    <glyph glyph-name="multiply.sinf" horiz-adv-x="394" 
d="M343 -93l-28 -23l-117 106l-116 -105l-30 22l123 105l-122 105l29 23l117 -106l116 106l27 -23l-118 -104z" />
    <glyph glyph-name="multiply.sc" horiz-adv-x="470" 
d="M400 124l-32 -27l-132 135l-134 -135l-32 26l138 135l-138 138l32 28l136 -140l130 140l32 -28l-134 -137z" />
    <glyph glyph-name="Yacute.alt" horiz-adv-x="523" 
d="M387 885l-238 -43l-12 31l227 61zM285 0h-48v328l-240 429h57l204 -365c2 -3 4 -5 5 -15c1 10 3 12 5 15l206 365h54l-243 -429v-328z" />
    <glyph glyph-name="germandbls.alt" horiz-adv-x="525" 
d="M209 8l10 40c34 -13 49 -20 87 -20c62 0 139 38 139 123c0 67 -54 90 -108 120s-107 66 -107 163c0 67 42 106 76 150c23 29 42 60 42 101c0 88 -67 103 -96 103c-67 0 -129 -53 -129 -155v-633h-44v618c0 121 59 209 182 209c76 0 132 -53 132 -134
c0 -70 -43 -115 -77 -160c-23 -30 -42 -59 -42 -94c0 -81 54 -111 109 -142c54 -31 109 -62 109 -144c0 -96 -75 -164 -196 -164c-35 0 -57 7 -87 19z" />
    <glyph glyph-name="germandbls.semp" horiz-adv-x="516" 
d="M216 -246l2 37c83 14 218 97 218 239c0 79 -41 139 -139 139c-26 0 -57 -4 -91 -13l173 273h-231v-674h-44v674h-75v41h75v149c0 68 14 117 40 149c27 32 68 47 109 47c37 0 65 -12 73 -18l-21 -42c-7 5 -29 16 -58 16c-67 0 -99 -56 -99 -142v-159h310l-177 -261
c11 2 22 3 33 3c100 0 167 -80 167 -185c0 -172 -179 -261 -265 -273z" />
    <glyph glyph-name="agrave.alt" horiz-adv-x="564" 
d="M337 600l-21 -17l-138 138l41 33zM487 -2h-44v91c-31 -52 -90 -101 -171 -101c-107 0 -224 87 -224 246c0 163 124 249 254 249c87 0 158 -39 185 -65v-420zM443 144v255c-16 11 -71 43 -142 43c-105 0 -207 -70 -207 -204c0 -118 79 -208 182 -208c82 0 138 58 167 114z
" />
    <glyph glyph-name="agrave.sc.semp" 
d="M341 620l-21 -17l-138 138l41 33zM525 0h-48l-49 103h-319l-48 -103h-49l257 539zM409 144l-140 297l-140 -297h280z" />
    <glyph glyph-name="agrave.sc" 
d="M342 620l-21 -17l-138 138l41 33zM525 0h-48l-68 143h-280l-68 -143h-49l257 539zM391 185l-122 257l-121 -257h243z" />
    <glyph glyph-name="period.dnom" horiz-adv-x="170" 
d="M116 22c0 -15 -13 -29 -31 -29c-17 0 -30 14 -30 29c0 17 13 30 30 30c18 0 31 -13 31 -30z" />
    <glyph glyph-name="equal.sc" horiz-adv-x="522" 
d="M444 304h-366v40h366v-40zM444 165h-366v39h366v-39z" />
    <glyph glyph-name="period.sup" horiz-adv-x="175" 
d="M118 373c0 -15 -13 -29 -31 -29c-17 0 -30 14 -30 29c0 17 13 30 30 30c18 0 31 -13 31 -30z" />
    <glyph glyph-name="greater.sc" horiz-adv-x="464" 
d="M420 244l-330 -178l-20 33l299 158l-299 170l20 32l330 -190v-25z" />
    <glyph glyph-name="question.sc" horiz-adv-x="365" 
d="M291 232l23 -23c-14 -24 -67 -70 -139 -70c-56 0 -118 38 -118 99c0 60 46 88 85 114c49 32 98 63 98 103c0 30 -26 53 -59 53c-40 0 -68 -19 -83 -30l-18 28c16 14 54 39 106 39c65 0 96 -46 96 -90c0 -59 -67 -97 -111 -128c-38 -26 -74 -42 -74 -88
c0 -35 37 -64 82 -64c56 0 96 37 112 57zM211 33c0 -23 -19 -43 -44 -43c-24 0 -44 20 -44 43c0 26 20 45 44 45c25 0 44 -19 44 -45z" />
    <glyph glyph-name="A.semp" horiz-adv-x="666" 
d="M668 0h-51l-74 170h-423l-71 -170h-51l332 778zM525 214l-195 461l-192 -461h387z" />
    <glyph glyph-name="J.alt" horiz-adv-x="260" 
d="M-32 -282l-9 46c125 48 147 105 147 284v709h48v-718c0 -214 -50 -265 -186 -321z" />
    <glyph glyph-name="J.semp" horiz-adv-x="448" 
d="M300 208v505h-177v43h225v-557c0 -142 -81 -212 -183 -212c-37 0 -94 18 -133 39l19 40c26 -15 75 -35 115 -35c86 0 134 64 134 177z" />
    <glyph glyph-name="J.semp2" horiz-adv-x="434" 
d="M286 208v549h48v-558c0 -142 -81 -212 -183 -212c-37 0 -74 10 -113 31l19 40c26 -15 55 -27 95 -27c90 0 134 71 134 177z" />
    <glyph glyph-name="bracketleft.dnom" horiz-adv-x="198" 
d="M165 -86h-104v552h104v-31h-68v-492h68v-29z" />
    <glyph glyph-name="bracketleft.sup" horiz-adv-x="198" 
d="M165 265h-104v552h104v-31h-68v-492h68v-29z" />
    <glyph glyph-name="bracketleft.sinf" horiz-adv-x="198" 
d="M165 -266h-104v552h104v-31h-68v-492h68v-29z" />
    <glyph glyph-name="bracketleft.sc" horiz-adv-x="347" 
d="M289 -118h-122v720h122v-37l-83 2v-650l83 2v-37zM107 242c0 -21 -18 -39 -40 -39s-40 18 -40 39c0 23 18 41 40 41s40 -18 40 -41z" />
    <glyph glyph-name="backslash.sc" horiz-adv-x="356" 
d="M316 -25l-37 -13l-239 584l37 16z" />
    <glyph glyph-name="period.sinf" horiz-adv-x="170" 
d="M116 -158c0 -15 -13 -29 -31 -29c-17 0 -30 14 -30 29c0 17 13 30 30 30c18 0 31 -13 31 -30z" />
    <glyph glyph-name="bracketright.dnom" horiz-adv-x="198" 
d="M137 -86h-104v30h68v492h-68v30h104v-552z" />
    <glyph glyph-name="slash.sc" horiz-adv-x="356" 
d="M77 -38l-37 13l239 587l37 -16z" />
    <glyph glyph-name="less.sc" horiz-adv-x="463" 
d="M373 54l-330 191v24l330 178l20 -33l-298 -158l298 -170z" />
    <glyph glyph-name="bracketright.sup" horiz-adv-x="198" 
d="M137 265h-104v30h68v492h-68v30h104v-552z" />
    <glyph glyph-name="bracketright.sinf" horiz-adv-x="198" 
d="M137 -266h-104v30h68v492h-68v30h104v-552z" />
    <glyph glyph-name="bracketright.sc" horiz-adv-x="347" 
d="M180 -116h-122v37l83 -2v648l-83 -2v37h122v-718zM320 242c0 -21 -18 -39 -40 -39s-40 18 -40 39c0 23 18 41 40 41s40 -18 40 -41z" />
    <glyph glyph-name="grave.sc" horiz-adv-x="269" 
d="M215 620l-21 -17l-139 138l41 33z" />
    <glyph glyph-name="a.alt" horiz-adv-x="564" 
d="M487 -2h-44v91c-31 -52 -90 -101 -171 -101c-107 0 -224 87 -224 246c0 163 124 249 254 249c87 0 158 -39 185 -65v-420zM443 144v255c-16 11 -71 43 -142 43c-105 0 -207 -70 -207 -204c0 -118 79 -208 182 -208c82 0 138 58 167 114z" />
    <glyph glyph-name="a.sc.semp" 
d="M525 0h-48l-49 103h-319l-48 -103h-49l257 539zM409 144l-140 297l-140 -297h280z" />
    <glyph glyph-name="a.sc" 
d="M525 0h-48l-68 143h-280l-68 -143h-49l257 539zM391 185l-122 257l-121 -257h243z" />
    <glyph glyph-name="b.sc" horiz-adv-x="483" 
d="M236 0h-143v524h109c101 0 179 -28 179 -131c0 -52 -46 -99 -93 -113c59 -6 141 -51 141 -133c0 -92 -67 -147 -193 -147zM139 287l43 1c99 2 152 43 152 104c0 69 -52 93 -128 93h-67v-198zM139 39l100 1c96 1 142 43 142 106c0 59 -59 103 -137 103h-105v-210z" />
    <glyph glyph-name="e.sc" horiz-adv-x="446" 
d="M403 1h-310v522h286v-40l-240 1v-184l193 1v-40l-193 1v-222l264 1v-40z" />
    <glyph glyph-name="f_j" horiz-adv-x="495" 
d="M149 0h-44v429h-80v41h80v149c0 68 14 117 40 149c27 32 68 47 109 47c37 0 65 -12 73 -18l-21 -42c-7 5 -29 16 -58 16c-67 0 -99 -56 -99 -142v-159h117v-41h-117v-429zM293 -268l-19 38c94 45 94 65 94 267v434h44v-428c0 -209 -1 -255 -119 -311zM431 611
c0 -22 -17 -40 -40 -40c-22 0 -40 17 -40 40s18 40 40 40c23 0 40 -18 40 -40z" />
    <glyph glyph-name="equal.dnom" horiz-adv-x="433" 
d="M375 111h-317v35h317v-35zM375 234h-317v35h317v-35z" />
    <glyph glyph-name="f_t" horiz-adv-x="547" 
d="M419 0h-44v429h-226v-429h-44v429h-80v41h80v149c0 68 14 117 40 149c27 32 68 47 109 47c37 0 65 -12 73 -18l-21 -42c-7 5 -29 16 -58 16c-67 0 -99 -56 -99 -142v-159h226v171h44v-171h114v-41h-114v-429z" />
    <glyph glyph-name="equal.sup" horiz-adv-x="433" 
d="M375 462h-317v36h317v-36zM375 585h-317v35h317v-35z" />
    <glyph glyph-name="f.alt" horiz-adv-x="285" 
d="M149 -245h-44v674h-80v41h80v149c0 68 14 117 40 149c26 31 67 47 109 47c37 0 65 -12 73 -18l-21 -42c-7 5 -29 16 -58 16c-67 0 -99 -56 -99 -142v-159h117v-41h-117v-674z" />
    <glyph glyph-name="f.semp" horiz-adv-x="284" 
d="M123 -245h-44v864c0 68 14 117 40 149c27 32 68 47 109 47c37 0 65 -12 73 -18l-21 -42c-7 5 -29 16 -58 16c-67 0 -99 -56 -99 -142v-159h142v-41h-142v-674z" />
    <glyph glyph-name="i.sc" horiz-adv-x="232" 
d="M139 0h-46v524h46v-524z" />
    <glyph glyph-name="j.semp" horiz-adv-x="210" 
d="M127 -255l-44 -10v736h44v-726zM146 610c0 -21 -17 -39 -40 -39c-22 0 -40 18 -40 39c0 24 18 41 40 41c23 0 40 -17 40 -41z" />
    <glyph glyph-name="j.sc.semp" horiz-adv-x="347" 
d="M228 199v285h-147v39h193v-339c0 -142 -49 -197 -151 -197c-37 0 -84 18 -113 39l19 36c21 -15 55 -35 95 -35c86 0 104 59 104 172z" />
    <glyph glyph-name="j.sc" horiz-adv-x="232" 
d="M-2 -182l-17 40c90 34 112 64 112 194v472h46v-476c0 -148 -33 -187 -141 -230z" />
    <glyph glyph-name="k.sc" horiz-adv-x="505" 
d="M498 0h-77l-282 239v-239h-46v524h46v-240l251 240h70l-285 -262z" />
    <glyph glyph-name="l.sc" horiz-adv-x="410" 
d="M380 1h-287v523h46v-484l241 1v-40z" />
    <glyph glyph-name="m.alt" horiz-adv-x="816" 
d="M741 0h-44v293c0 99 -35 149 -127 149c-55 0 -119 -25 -153 -52c9 -24 14 -54 14 -87v-303h-44v293c0 99 -35 149 -127 149c-56 0 -112 -23 -139 -43v-399h-44v418c44 36 110 65 182 65c64 0 110 -19 138 -57c44 32 105 57 172 57c114 0 172 -60 172 -180v-303z" />
    <glyph glyph-name="r.sc" horiz-adv-x="481" 
d="M472 0h-72l-231 210h-30v-210h-46v524h114c88 0 193 -37 193 -151c0 -89 -69 -154 -182 -162zM139 249h40c113 0 174 45 174 124c0 75 -62 112 -142 112h-72v-236z" />
    <glyph glyph-name="equal.sinf" horiz-adv-x="433" 
d="M375 -69h-317v36h317v-36zM375 54h-317v35h317v-35z" />
    <glyph glyph-name="s.sc" horiz-adv-x="435" 
d="M41 61l29 32c21 -25 67 -61 143 -61c67 0 121 38 121 99c0 157 -261 114 -261 272c0 86 75 132 157 132c66 0 114 -30 135 -52l-26 -32c-23 22 -60 43 -109 43c-56 0 -109 -28 -109 -87c0 -126 263 -86 263 -276c0 -69 -64 -141 -174 -141c-77 0 -146 40 -169 71z" />
    <glyph glyph-name="t.alt" horiz-adv-x="286" 
d="M257 31l-30 -40c-71 0 -121 29 -121 143v295h-87v41h87v171h44v-171h114v-41h-114v-286c0 -97 38 -112 107 -112z" />
    <glyph glyph-name="t.alt2" horiz-adv-x="300" 
d="M172 0h-44v429h-114v41h114v171h44v-171h114v-41h-114v-429z" />
    <glyph glyph-name="t.semp" horiz-adv-x="280" 
d="M123 0h-44v659h44v-189h146v-41h-146v-429z" />
    <glyph glyph-name="t.sc" horiz-adv-x="444" 
d="M245 0h-46v484l-171 -1v40h388v-40l-171 1v-484z" />
    <glyph glyph-name="u.sc" horiz-adv-x="586" 
d="M450 72v452h46v-466c-34 -38 -103 -68 -205 -68c-127 0 -204 67 -204 199v335h46v-316c0 -128 55 -176 175 -176c48 0 109 11 142 40z" />
    <glyph glyph-name="v.sc" horiz-adv-x="499" 
d="M250 -21l-237 545h57l176 -422c3 -6 5 -13 6 -20c1 7 3 14 5 20l172 422h56z" />
    <glyph glyph-name="w.sc" horiz-adv-x="772" 
d="M565 -21l-179 439l-177 -438l-189 544h53l137 -406c3 -8 3 -16 4 -24c1 8 2 16 5 24l168 422l170 -422c3 -8 4 -16 5 -23c0 7 2 16 4 23l132 406h53z" />
    <glyph glyph-name="x.sc" horiz-adv-x="488" 
d="M459 0h-55l-160 234l-163 -234h-55l197 270l-182 254h55l150 -220l151 220h55l-185 -254z" />
    <glyph glyph-name="y.sc" horiz-adv-x="435" 
d="M240 0h-46l1 226l-183 298h54l153 -258l153 258h53l-186 -298z" />
    <glyph glyph-name="braceleft.sinf" horiz-adv-x="209" 
d="M178 -238l-8 -26c-70 4 -87 47 -87 104v71c0 46 -12 78 -59 100c47 22 59 54 59 100v71c0 57 17 100 87 104l8 -26c-58 -8 -58 -41 -58 -88v-68c0 -41 -11 -66 -46 -93c35 -27 46 -52 46 -93v-68c0 -47 0 -80 58 -88z" />
    <glyph glyph-name="braceleft.sc" horiz-adv-x="274" 
d="M218 -106l-6 -20c-83 6 -102 57 -102 131v96c0 61 -14 102 -69 131c55 29 69 70 69 131v96c0 74 19 125 102 131l6 -20c-67 -10 -67 -65 -67 -127v-89c0 -53 -23 -86 -66 -122c43 -36 66 -69 66 -122v-89c0 -62 0 -117 67 -127z" />
    <glyph glyph-name="bar.sc" horiz-adv-x="241" 
d="M141 -95h-41v704h41v-704z" />
    <glyph glyph-name="braceright.dnom" horiz-adv-x="209" 
d="M39 -84l-8 26c58 8 58 41 58 88v68c0 41 11 66 46 93c-35 27 -46 52 -46 93v68c0 47 0 80 -58 88l8 26c70 -4 87 -47 87 -104v-71c0 -46 12 -78 59 -100c-47 -22 -59 -54 -59 -100v-71c0 -57 -17 -100 -87 -104z" />
    <glyph glyph-name="braceright.sup" horiz-adv-x="208" 
d="M39 267l-8 26c58 8 58 41 58 88v68c0 41 11 66 46 93c-35 27 -46 52 -46 93v68c0 47 0 80 -58 88l8 26c70 -4 87 -47 87 -104v-71c0 -46 12 -78 59 -100c-47 -22 -59 -54 -59 -100v-71c0 -57 -17 -100 -87 -104z" />
    <glyph glyph-name="braceright.sinf" horiz-adv-x="209" 
d="M39 -264l-8 26c58 8 58 41 58 88v68c0 41 11 66 46 93c-35 27 -46 52 -46 93v68c0 47 0 80 -58 88l8 26c70 -4 87 -47 87 -104v-71c0 -46 12 -78 59 -100c-47 -22 -59 -54 -59 -100v-71c0 -57 -17 -100 -87 -104z" />
    <glyph glyph-name="braceright.sc" horiz-adv-x="274" 
d="M62 -126l-6 20c67 10 67 65 67 127v89c0 53 23 86 66 122c-43 36 -66 69 -66 122v89c0 62 0 117 -67 127l6 20c83 -6 102 -57 102 -131v-96c0 -61 14 -102 69 -131c-55 -29 -69 -70 -69 -131v-96c0 -74 -19 -125 -102 -131z" />
    <glyph glyph-name="exclamdown.sc" horiz-adv-x="239" 
d="M149 -11h-59l11 400h37zM120 454c-28 0 -46 20 -46 46c0 24 20 44 46 44c24 0 44 -20 44 -44c0 -26 -20 -46 -44 -46z" />
    <glyph glyph-name="cent.dnom" horiz-adv-x="336" 
d="M191 -14h-29v68c-76 9 -131 61 -131 133c0 71 55 123 131 132v78h29v-78c53 -1 92 -28 100 -36l-21 -24c-7 6 -38 28 -79 30v-206c46 0 75 20 94 37l16 -24c-22 -26 -64 -41 -110 -43v-67zM162 85v201c-47 -8 -93 -39 -93 -100c0 -56 42 -92 93 -101z" />
    <glyph glyph-name="cent.sup" horiz-adv-x="337" 
d="M192 337h-29v68c-76 9 -131 61 -131 133c0 71 55 123 131 132v78h29v-78c53 -1 92 -28 100 -36l-21 -24c-7 6 -38 28 -79 30v-206c46 0 75 20 94 37l16 -24c-22 -26 -64 -41 -110 -43v-67zM163 436v201c-47 -8 -93 -39 -93 -100c0 -56 42 -92 93 -101z" />
    <glyph glyph-name="cent.sinf" horiz-adv-x="336" 
d="M191 -194h-29v68c-76 9 -131 61 -131 133c0 71 55 123 131 132v78h29v-78c53 -1 92 -28 100 -36l-21 -24c-7 6 -38 28 -79 30v-206c46 0 75 20 94 37l16 -24c-22 -26 -64 -41 -110 -43v-67zM162 -95v201c-47 -8 -93 -39 -93 -100c0 -56 42 -92 93 -101z" />
    <glyph glyph-name="cent.sc" horiz-adv-x="431" 
d="M247 -19h-37c0 35 1 70 1 105c-90 12 -158 81 -158 175s65 163 158 177c0 34 -1 69 -1 103h37c0 -34 -1 -67 -1 -101c67 -3 113 -38 123 -50l-26 -28c-9 8 -46 38 -97 40v-281c55 2 90 24 116 51l24 -26c-34 -41 -88 -60 -140 -61c0 -35 1 -69 1 -104zM211 124v275
c-57 -11 -114 -55 -114 -138c0 -76 52 -125 114 -137z" />
    <glyph glyph-name="sterling.dnom" horiz-adv-x="354" 
d="M325 34l4 -32c-11 -3 -36 -7 -73 -7c-24 0 -66 15 -103 15c-47 0 -112 -24 -118 -27l-12 29c3 1 45 18 84 26v120h-45v31h45v91c0 87 31 122 96 122c27 0 48 -9 55 -13l-18 -30c-5 3 -20 10 -39 10c-45 0 -55 -32 -55 -76v-104h84v-31h-84v-117h16c33 -1 65 -16 101 -16
c24 0 49 5 62 9z" />
    <glyph glyph-name="sterling.sup" horiz-adv-x="354" 
d="M325 385l4 -32c-11 -3 -36 -7 -73 -7c-24 0 -66 15 -103 15c-47 0 -112 -24 -118 -27l-12 29c3 1 45 18 84 26v120h-45v31h45v91c0 87 31 122 96 122c27 0 48 -9 55 -13l-18 -30c-5 3 -20 10 -39 10c-45 0 -55 -32 -55 -76v-104h84v-31h-84v-117h16c33 -1 65 -16 101 -16
c24 0 49 5 62 9z" />
    <glyph glyph-name="sterling.sinf" horiz-adv-x="354" 
d="M325 -146l4 -32c-11 -3 -36 -7 -73 -7c-24 0 -66 15 -103 15c-47 0 -112 -24 -118 -27l-12 29c3 1 45 18 84 26v120h-45v31h45v91c0 87 31 122 96 122c27 0 48 -9 55 -13l-18 -30c-5 3 -20 10 -39 10c-45 0 -55 -32 -55 -76v-104h84v-31h-84v-117h16
c33 -1 65 -16 101 -16c24 0 49 5 62 9z" />
    <glyph glyph-name="sterling.sc" horiz-adv-x="449" 
d="M404 34l5 -39c-12 -4 -50 -9 -71 -9c-47 0 -91 22 -140 22c-58 0 -136 -32 -143 -37l-14 35c4 3 56 24 104 35v175h-64v38h64v137c0 102 45 143 114 143c30 0 56 -11 65 -16l-22 -37c-7 4 -27 13 -48 13c-48 0 -67 -39 -67 -92v-148h110v-38h-110v-173c6 1 14 2 20 2
c36 0 90 -23 123 -23c35 0 58 7 74 12z" />
    <glyph glyph-name="guillemotleft.sc" horiz-adv-x="454" 
d="M225 50h-40l-123 209l120 209h40l-121 -209zM389 50h-41l-124 209l121 209h40l-121 -209z" />
    <glyph glyph-name="macron.sc" horiz-adv-x="563" 
d="M426 616h-289v41h289v-41z" />
    <glyph glyph-name="degree.sc" horiz-adv-x="370" 
d="M185 422c-68 0 -123 55 -123 124c0 67 55 123 123 123s124 -56 124 -123c0 -69 -56 -124 -124 -124zM186 456c48 0 88 41 88 89s-40 90 -88 90s-87 -42 -87 -90s39 -89 87 -89z" />
    <glyph glyph-name="plusminus.sc" horiz-adv-x="506" 
d="M436 1h-366v38h366v-38zM274 91h-42v164h-162v40h162v164h42v-164h162v-40h-162v-164z" />
    <glyph glyph-name="acute.sc" horiz-adv-x="268" 
d="M75 603l-20 17l118 154l40 -33z" />
    <glyph glyph-name="paragraph.sc" horiz-adv-x="525" 
d="M330 531v-522c-173 0 -285 113 -285 256s112 266 285 266zM436 -138h-46v672h46v-672z" />
    <glyph glyph-name="periodcentered.sc" horiz-adv-x="245" 
d="M166 250c0 -23 -19 -43 -44 -43c-24 0 -44 20 -44 43c0 26 20 45 44 45c25 0 44 -19 44 -45z" />
    <glyph glyph-name="guillemotright.sc" horiz-adv-x="454" 
d="M106 50h-41l125 209l-121 209h40l121 -209zM269 50h-40l124 209l-121 209h40l120 -209z" />
    <glyph glyph-name="questiondown.sc" horiz-adv-x="366" 
d="M267 48l18 -28c-16 -14 -54 -39 -106 -39c-65 0 -96 46 -96 90c0 59 67 97 111 128c38 26 74 42 74 88c0 35 -37 64 -82 64c-56 0 -96 -37 -112 -57l-23 23c14 24 67 70 139 70c56 0 118 -38 118 -99c0 -60 -46 -88 -85 -114c-49 -32 -98 -63 -98 -103
c0 -30 26 -53 59 -53c40 0 68 19 83 30zM198 448c-25 0 -44 19 -44 45c0 23 19 43 44 43c24 0 44 -20 44 -43c0 -26 -20 -45 -44 -45z" />
    <glyph glyph-name="Agrave.semp" horiz-adv-x="666" 
d="M429 842l-238 43l23 49l227 -61zM668 0h-51l-74 170h-423l-71 -170h-51l332 778zM525 214l-195 461l-192 -461h387z" />
    <glyph glyph-name="Aacute.semp" horiz-adv-x="666" 
d="M456 885l-238 -43l-12 31l227 61zM668 0h-51l-74 170h-423l-71 -170h-51l332 778zM525 214l-195 461l-192 -461h387z" />
    <glyph glyph-name="Atilde.semp" horiz-adv-x="666" 
d="M486 923l18 -30c-14 -17 -63 -61 -105 -61c-39 0 -81 50 -126 50c-30 0 -68 -31 -85 -46l-19 27c18 21 68 62 108 62c46 0 89 -51 125 -51c35 0 72 36 84 49zM668 0h-51l-74 170h-423l-71 -170h-51l332 778zM525 214l-195 461l-192 -461h387z" />
    <glyph glyph-name="Adieresis.semp" horiz-adv-x="666" 
d="M238 886c0 -20 -17 -37 -39 -37c-20 0 -37 17 -37 37c0 22 17 39 37 39c22 0 39 -17 39 -39zM502 886c0 -20 -15 -37 -39 -37c-21 0 -36 17 -36 37c0 22 15 39 36 39c24 0 39 -17 39 -39zM668 0h-51l-74 170h-423l-71 -170h-51l332 778zM525 214l-195 461l-192 -461h387z
" />
    <glyph glyph-name="Aring.semp" horiz-adv-x="666" 
d="M436 900c0 -57 -46 -103 -104 -103s-104 46 -104 103c0 58 47 104 104 104c58 0 104 -48 104 -104zM403 901c0 39 -31 70 -70 70c-38 0 -69 -31 -69 -70c0 -37 31 -70 69 -70c39 0 70 33 70 70zM668 0h-51l-74 170h-423l-71 -170h-51l332 778zM525 214l-195 461
l-192 -461h387z" />
    <glyph glyph-name="uni1E02" unicode="&#x1e02;" horiz-adv-x="600" 
d="M291 0h-185v757h139c133 0 234 -40 234 -187c0 -78 -63 -146 -128 -167c80 -8 193 -72 193 -195c0 -128 -89 -208 -253 -208zM154 410h61c131 0 215 70 215 161c0 106 -74 142 -178 142h-98v-303zM154 44h138c136 0 202 66 202 163c0 90 -84 159 -194 159h-146v-322z
M301 879c0 -20 -17 -37 -39 -37c-20 0 -37 17 -37 37c0 22 17 39 37 39c22 0 39 -17 39 -39z" />
    <glyph glyph-name="divide.sup" horiz-adv-x="431" 
d="M244 636c0 -12 -12 -26 -29 -26c-14 0 -27 14 -27 26c0 14 13 28 27 28c17 0 29 -14 29 -28zM374 524h-317v36h317v-36zM244 443c0 -12 -12 -26 -29 -26c-14 0 -27 14 -27 26c0 14 13 28 27 28c17 0 29 -14 29 -28z" />
    <glyph glyph-name="divide.dnom" horiz-adv-x="433" 
d="M245 285c0 -12 -12 -26 -29 -26c-14 0 -27 14 -27 26c0 14 13 28 27 28c17 0 29 -14 29 -28zM375 173h-317v36h317v-36zM245 92c0 -12 -12 -26 -29 -26c-14 0 -27 14 -27 26c0 14 13 28 27 28c17 0 29 -14 29 -28z" />
    <glyph glyph-name="odieresis.sc" horiz-adv-x="680" 
d="M624 260c0 -150 -122 -270 -283 -270c-166 0 -285 122 -285 272s119 272 285 272c165 0 283 -116 283 -274zM576 260c0 135 -100 232 -235 232c-139 0 -237 -97 -237 -228c0 -123 96 -232 232 -232c143 0 240 99 240 228zM253 640c0 -20 -17 -37 -39 -37
c-20 0 -37 17 -37 37c0 22 17 39 37 39c22 0 39 -17 39 -39zM472 640c0 -20 -15 -37 -39 -37c-21 0 -36 17 -36 37c0 22 15 39 36 39c24 0 39 -17 39 -39z" />
    <glyph glyph-name="ograve.sc" horiz-adv-x="680" 
d="M624 260c0 -150 -122 -270 -283 -270c-166 0 -285 122 -285 272s119 272 285 272c165 0 283 -116 283 -274zM576 260c0 135 -100 232 -235 232c-139 0 -237 -97 -237 -228c0 -123 96 -232 232 -232c143 0 240 99 240 228zM406 620l-21 -17l-138 138l41 33z" />
    <glyph glyph-name="apple" horiz-adv-x="1312" 
d="M790 0h-268l-133 668l267 262l267 -262zM455 0h-226l-174 227l113 216l221 -109zM1083 0h-226l66 334l221 109l113 -216z" />
    <glyph glyph-name="ntilde.sc" horiz-adv-x="662" 
d="M464 685l17 -27c-13 -16 -53 -53 -96 -53c-37 0 -76 47 -118 47c-28 0 -63 -29 -79 -43l-18 24c17 20 63 58 101 58c42 0 83 -48 117 -48c37 0 65 30 76 42zM570 -19l-434 446l2 -427h-46v539l434 -446l-2 431h46v-543z" />
    <glyph glyph-name="ntilde.alt" 
d="M400 665l17 -27c-13 -16 -53 -53 -96 -53c-37 0 -76 47 -118 47c-28 0 -63 -29 -79 -43l-18 24c17 20 63 58 101 58c42 0 83 -48 117 -48c37 0 65 30 76 42zM463 0h-44v293c0 99 -57 149 -149 149c-66 0 -122 -23 -149 -43v-399h-44v418c44 36 110 65 192 65
c114 0 194 -60 194 -180v-303z" />
    <glyph glyph-name="eth.sc" horiz-adv-x="578" 
d="M220 0h-127v244h-56v37h56v243h120c170 0 307 -91 307 -262c0 -163 -123 -262 -300 -262zM139 40h60c164 0 273 72 273 224c0 147 -122 221 -265 221h-68v-204h143v-37h-143v-204z" />
    <glyph glyph-name="idieresis.sc" horiz-adv-x="232" 
d="M77 625c0 -20 -17 -37 -39 -37c-20 0 -37 17 -37 37c0 22 17 39 37 39c22 0 39 -17 39 -39zM240 625c0 -20 -15 -37 -39 -37c-21 0 -36 17 -36 37c0 22 15 39 36 39c24 0 39 -17 39 -39zM139 0h-46v524h46v-524z" />
    <glyph glyph-name="icircumflex.sc" horiz-adv-x="232" 
d="M139 0h-46v524h46v-524zM210 611l-94 72l-98 -79l-15 23l113 108h1l112 -102z" />
    <glyph glyph-name="iacute.sc" horiz-adv-x="232" 
d="M139 0h-46v524h46v-524zM90 583l-20 17l113 154l41 -33z" />
    <glyph glyph-name="igrave.sc" horiz-adv-x="232" 
d="M139 0h-46v524h46v-524zM158 600l-21 -17l-133 138l41 33z" />
    <glyph glyph-name="edieresis.sc" horiz-adv-x="446" 
d="M403 1h-310v522h286v-40l-240 1v-184l193 1v-40l-193 1v-222l264 1v-40zM162 640c0 -20 -17 -37 -39 -37c-20 0 -37 17 -37 37c0 22 17 39 37 39c22 0 39 -17 39 -39zM381 640c0 -20 -15 -37 -39 -37c-21 0 -36 17 -36 37c0 22 15 39 36 39c24 0 39 -17 39 -39z" />
    <glyph glyph-name="ecircumflex.sc" horiz-adv-x="446" 
d="M403 1h-310v522h286v-40l-240 1v-184l193 1v-40l-193 1v-222l264 1v-40zM378 628l-26 -22l-122 102l-122 -102l-26 22l149 133z" />
    <glyph glyph-name="eacute.sc" horiz-adv-x="446" 
d="M336 741l-139 -138l-20 17l118 154zM403 1h-310v522h286v-40l-240 1v-184l193 1v-40l-193 1v-222l264 1v-40z" />
    <glyph glyph-name="egrave.sc" horiz-adv-x="446" 
d="M280 620l-21 -17l-138 138l41 33zM403 1h-310v522h286v-40l-240 1v-184l193 1v-40l-193 1v-222l264 1v-40z" />
    <glyph glyph-name="ccedilla.sc" horiz-adv-x="588" 
d="M283 -246h-42l68 157h51zM518 86l20 -33c-51 -42 -114 -63 -186 -63c-170 0 -296 123 -296 272s125 272 295 272c78 0 142 -30 188 -67l-27 -33c-32 31 -84 58 -168 58c-135 0 -239 -96 -239 -234c0 -128 112 -226 248 -226c70 0 128 23 165 54z" />
    <glyph glyph-name="ae.sc" horiz-adv-x="706" 
d="M663 1h-311v148h-196l-97 -149h-53l343 523h289v-39l-240 1v-184h193v-39h-193v-222l265 1v-40zM352 191v261l-171 -261h171z" />
    <glyph glyph-name="aring.sc" 
d="M372 695c0 -57 -46 -103 -104 -103s-104 46 -104 103c0 58 47 104 104 104c58 0 104 -48 104 -104zM339 696c0 39 -31 70 -70 70c-38 0 -69 -31 -69 -70c0 -37 31 -70 69 -70c39 0 70 33 70 70zM525 0h-48l-68 143h-280l-68 -143h-49l257 539zM391 185l-122 257
l-121 -257h243z" />
    <glyph glyph-name="aring.sc.semp" 
d="M371 695c0 -57 -46 -103 -104 -103s-104 46 -104 103c0 58 47 104 104 104c58 0 104 -48 104 -104zM338 696c0 39 -31 70 -70 70c-38 0 -69 -31 -69 -70c0 -37 31 -70 69 -70c39 0 70 33 70 70zM525 0h-48l-49 103h-319l-48 -103h-49l257 539zM409 144l-140 297
l-140 -297h280z" />
    <glyph glyph-name="aring.alt" horiz-adv-x="564" 
d="M374 695c0 -57 -46 -103 -104 -103s-104 46 -104 103c0 58 47 104 104 104c58 0 104 -48 104 -104zM341 696c0 39 -31 70 -70 70c-38 0 -69 -31 -69 -70c0 -37 31 -70 69 -70c39 0 70 33 70 70zM487 -2h-44v91c-31 -52 -90 -101 -171 -101c-107 0 -224 87 -224 246
c0 163 124 249 254 249c87 0 158 -39 185 -65v-420zM443 144v255c-16 11 -71 43 -142 43c-105 0 -207 -70 -207 -204c0 -118 79 -208 182 -208c82 0 138 58 167 114z" />
    <glyph glyph-name="adieresis.sc" 
d="M195 640c0 -20 -17 -37 -39 -37c-20 0 -37 17 -37 37c0 22 17 39 37 39c22 0 39 -17 39 -39zM414 640c0 -20 -15 -37 -39 -37c-21 0 -36 17 -36 37c0 22 15 39 36 39c24 0 39 -17 39 -39zM525 0h-48l-68 143h-280l-68 -143h-49l257 539zM391 185l-122 257l-121 -257h243z
" />
    <glyph glyph-name="adieresis.sc.semp" 
d="M194 640c0 -20 -17 -37 -39 -37c-20 0 -37 17 -37 37c0 22 17 39 37 39c22 0 39 -17 39 -39zM413 640c0 -20 -15 -37 -39 -37c-21 0 -36 17 -36 37c0 22 15 39 36 39c24 0 39 -17 39 -39zM525 0h-48l-49 103h-319l-48 -103h-49l257 539zM409 144l-140 297l-140 -297h280z
" />
    <glyph glyph-name="adieresis.alt" horiz-adv-x="564" 
d="M202 630c0 -20 -17 -37 -39 -37c-20 0 -37 17 -37 37c0 22 17 39 37 39c22 0 39 -17 39 -39zM421 630c0 -20 -15 -37 -39 -37c-21 0 -36 17 -36 37c0 22 15 39 36 39c24 0 39 -17 39 -39zM487 -2h-44v91c-31 -52 -90 -101 -171 -101c-107 0 -224 87 -224 246
c0 163 124 249 254 249c87 0 158 -39 185 -65v-420zM443 144v255c-16 11 -71 43 -142 43c-105 0 -207 -70 -207 -204c0 -118 79 -208 182 -208c82 0 138 58 167 114z" />
    <glyph glyph-name="atilde.sc" 
d="M407 685l17 -27c-13 -16 -53 -53 -96 -53c-37 0 -76 47 -118 47c-28 0 -63 -29 -79 -43l-18 24c17 20 63 58 101 58c42 0 83 -48 117 -48c37 0 65 30 76 42zM525 0h-48l-68 143h-280l-68 -143h-49l257 539zM391 185l-122 257l-121 -257h243z" />
    <glyph glyph-name="atilde.sc.semp" 
d="M406 685l17 -27c-13 -16 -53 -53 -96 -53c-37 0 -76 47 -118 47c-28 0 -63 -29 -79 -43l-18 24c17 20 63 58 101 58c42 0 83 -48 117 -48c37 0 65 30 76 42zM525 0h-48l-49 103h-319l-48 -103h-49l257 539zM409 144l-140 297l-140 -297h280z" />
    <glyph glyph-name="atilde.alt" horiz-adv-x="564" 
d="M407 665l17 -27c-13 -16 -53 -53 -96 -53c-37 0 -76 47 -118 47c-28 0 -63 -29 -79 -43l-18 24c17 20 63 58 101 58c42 0 83 -48 117 -48c37 0 65 30 76 42zM487 -2h-44v91c-31 -52 -90 -101 -171 -101c-107 0 -224 87 -224 246c0 163 124 249 254 249
c87 0 158 -39 185 -65v-420zM443 144v255c-16 11 -71 43 -142 43c-105 0 -207 -70 -207 -204c0 -118 79 -208 182 -208c82 0 138 58 167 114z" />
    <glyph glyph-name="acircumflex.sc" 
d="M416 628l-26 -22l-122 102l-122 -102l-26 22l149 133zM525 0h-48l-68 143h-280l-68 -143h-49l257 539zM391 185l-122 257l-121 -257h243z" />
    <glyph glyph-name="acircumflex.sc.semp" 
d="M415 628l-26 -22l-122 102l-122 -102l-26 22l149 133zM525 0h-48l-49 103h-319l-48 -103h-49l257 539zM409 144l-140 297l-140 -297h280z" />
    <glyph glyph-name="aacute.sc.semp" 
d="M347 741l-139 -138l-20 17l118 154zM525 0h-48l-49 103h-319l-48 -103h-49l257 539zM409 144l-140 297l-140 -297h280z" />
    <glyph glyph-name="aacute.alt" horiz-adv-x="564" 
d="M384 721l-139 -138l-20 17l118 154zM487 -2h-44v91c-31 -52 -90 -101 -171 -101c-107 0 -224 87 -224 246c0 163 124 249 254 249c87 0 158 -39 185 -65v-420zM443 144v255c-16 11 -71 43 -142 43c-105 0 -207 -70 -207 -204c0 -118 79 -208 182 -208
c82 0 138 58 167 114z" />
    <glyph glyph-name="pi" unicode="&#x3c0;" horiz-adv-x="539" 
d="M455 0h-44v430h-283v-430h-44v470h371v-470z" />
    <glyph glyph-name="tcaron.alt" horiz-adv-x="286" 
d="M259 575h-42l63 182h51zM257 31l-30 -40c-71 0 -121 29 -121 143v295h-87v41h87v171h44v-171h114v-41h-114v-286c0 -97 38 -112 107 -112z" />
    <glyph glyph-name="tcaron" unicode="&#x165;" horiz-adv-x="280" 
d="M261 575h-42l63 182h51zM152 0h-44v429h-87v41h87v171h44v-171h114v-41h-114v-429z" />
    <glyph glyph-name="Tcaron" unicode="&#x164;" horiz-adv-x="530" 
d="M432 940l-168 -97l-168 98l15 23l157 -70l145 68zM289 0h-48v713h-219v43h486v-43h-219v-713z" />
    <glyph glyph-name="tcommaaccent" unicode="&#x163;" horiz-adv-x="278" 
d="M113 -233h-51l77 178h56zM151 0h-44v429h-87v41h87v171h44v-171h114v-41h-114v-429z" />
    <glyph glyph-name="Tcommaaccent" unicode="&#x162;" horiz-adv-x="530" 
d="M289 0h-48v713h-219v43h486v-43h-219v-713zM249 -233h-51l77 178h56z" />
    <glyph glyph-name="scaron.sc" horiz-adv-x="436" 
d="M42 61l29 32c21 -25 67 -61 143 -61c67 0 121 38 121 99c0 160 -261 114 -261 272c0 86 75 132 157 132c66 0 114 -30 135 -52l-26 -32c-23 22 -60 43 -109 43c-56 0 -109 -28 -109 -87c0 -129 263 -86 263 -276c0 -69 -64 -141 -174 -141c-77 0 -146 40 -169 71z
M361 709l-147 -133h-1l-148 133l26 22l122 -102l122 102z" />
    <glyph glyph-name="scedilla.sc" horiz-adv-x="436" 
d="M42 61l29 33c21 -26 68 -62 143 -62c67 0 121 38 121 99c0 157 -261 114 -261 272c0 87 75 132 157 132c66 0 114 -30 135 -52l-26 -32c-23 22 -60 43 -109 43c-56 0 -109 -28 -109 -87c0 -127 263 -86 263 -276c0 -69 -64 -141 -174 -141c-77 0 -146 40 -169 71z
M190 -207h-42l69 157h50z" />
    <glyph glyph-name="scedilla" unicode="&#x15f;" horiz-adv-x="393" 
d="M29 60l29 30c21 -25 57 -63 131 -63c66 0 114 36 114 105c0 114 -235 92 -235 230c0 69 54 122 138 122c52 0 106 -27 130 -56l-23 -33c-12 14 -56 50 -110 50c-70 0 -92 -45 -92 -78c0 -103 238 -90 238 -235c0 -87 -70 -145 -161 -145c-79 0 -134 39 -159 73zM167 -206
h-42l68 157h51z" />
    <glyph glyph-name="Scedilla" unicode="&#x15e;" horiz-adv-x="533" 
d="M37 84l31 35c27 -35 85 -87 194 -87c95 0 170 60 170 155c0 225 -354 175 -354 398c0 122 97 187 204 187c88 0 151 -43 177 -71l-30 -33c-30 30 -74 60 -147 60c-79 0 -154 -44 -154 -136c0 -193 356 -138 356 -404c0 -98 -82 -201 -226 -201c-104 0 -193 55 -221 97z
M228 -206h-42l68 157h51z" />
    <glyph glyph-name="scircumflex.sc" horiz-adv-x="436" 
d="M42 61l29 33c21 -26 68 -62 143 -62c67 0 121 38 121 99c0 157 -261 114 -261 272c0 87 75 132 157 132c66 0 114 -30 135 -52l-26 -32c-23 22 -60 43 -109 43c-56 0 -109 -28 -109 -87c0 -127 263 -86 263 -276c0 -69 -64 -141 -174 -141c-77 0 -146 40 -169 71z
M366 628l-26 -22l-122 102l-122 -102l-26 22l149 133z" />
    <glyph glyph-name="scircumflex" unicode="&#x15d;" horiz-adv-x="393" 
d="M29 60l29 30c21 -25 57 -63 131 -63c66 0 114 36 114 105c0 114 -235 92 -235 230c0 69 54 122 138 122c52 0 106 -27 130 -56l-23 -33c-12 14 -56 50 -110 50c-70 0 -92 -45 -92 -78c0 -103 238 -90 238 -235c0 -87 -70 -145 -161 -145c-79 0 -134 39 -159 73zM348 608
l-26 -22l-122 102l-122 -102l-26 22l148 133h1z" />
    <glyph glyph-name="Scircumflex" unicode="&#x15c;" horiz-adv-x="533" 
d="M423 845l-149 62l-153 -69l-15 23l168 98h1l167 -92zM37 84l31 35c27 -35 85 -87 194 -87c95 0 170 60 170 155c0 225 -354 175 -354 398c0 122 97 187 204 187c88 0 151 -43 177 -71l-30 -33c-30 30 -74 60 -147 60c-79 0 -154 -44 -154 -136c0 -193 356 -138 356 -404
c0 -98 -82 -201 -226 -201c-104 0 -193 55 -221 97z" />
    <glyph glyph-name="sacute.sc" horiz-adv-x="436" 
d="M42 61l29 33c21 -26 68 -62 143 -62c67 0 121 38 121 99c0 157 -261 114 -261 272c0 87 75 132 157 132c66 0 114 -30 135 -52l-26 -32c-23 22 -60 43 -109 43c-56 0 -109 -28 -109 -87c0 -127 263 -86 263 -276c0 -69 -64 -141 -174 -141c-77 0 -146 40 -169 71z
M319 741l-139 -138l-20 17l118 154z" />
    <glyph glyph-name="tcaron.alt2" horiz-adv-x="300" 
d="M281 575h-42l63 182h51zM172 0h-44v429h-114v41h114v171h44v-171h114v-41h-114v-429z" />
    <glyph glyph-name="tcaron.semp" horiz-adv-x="280" 
d="M252 575h-42l63 182h51zM123 0h-44v659h44v-189h146v-41h-146v-429z" />
    <glyph glyph-name="tcaron.sc" horiz-adv-x="444" 
d="M245 0h-45v484l-172 -1v39h388v-39l-171 1v-484zM369 739l-149 -133l-147 133l26 22l123 -102l122 102z" />
    <glyph glyph-name="Tbar" unicode="&#x166;" horiz-adv-x="530" 
d="M289 0h-48v452h-126v41h126v220h-219v43h486v-43h-219v-220h126v-41h-126v-452z" />
    <glyph glyph-name="tbar" unicode="&#x167;" horiz-adv-x="281" 
d="M152 0h-44v279h-63v41h63v109h-87v41h87v171h44v-171h114v-41h-114v-109h91v-41h-91v-279z" />
    <glyph glyph-name="tbar.alt" horiz-adv-x="289" 
d="M259 31l-30 -40c-71 0 -121 29 -121 143v145h-80v41h80v109h-87v41h87v171h44v-171h114v-41h-114v-109h91v-41h-91v-136c0 -97 38 -112 107 -112z" />
    <glyph glyph-name="tbar.alt2" horiz-adv-x="302" 
d="M173 0h-44v279h-91v41h91v109h-114v41h114v171h44v-171h114v-41h-114v-109h91v-41h-91v-279z" />
    <glyph glyph-name="tbar.semp" horiz-adv-x="299" 
d="M142 0h-44v279h-90v41h90v339h44v-189h146v-41h-146v-109h91v-41h-91v-279z" />
    <glyph glyph-name="tbar.sc" horiz-adv-x="443" 
d="M244 0h-45v287l-119 -1v41l119 -1v158l-172 -1v39h388v-39l-171 1v-158l118 1v-41l-118 1v-287z" />
    <glyph glyph-name="uhungarumlaut" unicode="&#x171;" horiz-adv-x="538" 
d="M417 73v398h44v-417c-45 -43 -106 -66 -192 -66c-114 0 -194 60 -194 180v303h44v-293c0 -99 57 -149 149 -149c75 0 121 24 149 44zM354 691l-169 -108l-20 17l148 124zM511 691l-169 -108l-20 17l148 124z" />
    <glyph glyph-name="sacute" unicode="&#x15b;" horiz-adv-x="393" 
d="M29 60l29 30c21 -25 57 -63 131 -63c66 0 114 36 114 105c0 114 -235 92 -235 230c0 69 54 122 138 122c52 0 106 -27 130 -56l-23 -33c-12 14 -56 50 -110 50c-70 0 -92 -45 -92 -78c0 -103 238 -90 238 -235c0 -87 -70 -145 -161 -145c-79 0 -134 39 -159 73zM295 721
l-139 -138l-20 17l118 154z" />
    <glyph glyph-name="Sacute" unicode="&#x15a;" horiz-adv-x="533" 
d="M409 886l-238 -43l-12 31l227 61zM37 84l31 35c27 -35 85 -87 194 -87c95 0 170 60 170 155c0 225 -354 175 -354 398c0 122 97 187 204 187c88 0 151 -43 177 -71l-30 -33c-30 30 -74 60 -147 60c-79 0 -154 -44 -154 -136c0 -193 356 -138 356 -404
c0 -98 -82 -201 -226 -201c-104 0 -193 55 -221 97z" />
    <glyph glyph-name="obreve" unicode="&#x14f;" horiz-adv-x="593" 
d="M546 235c0 -138 -109 -247 -249 -247s-250 107 -250 247c0 141 110 248 250 248s249 -110 249 -248zM500 235c0 119 -95 206 -205 206c-121 0 -203 -88 -203 -209c0 -117 97 -202 203 -202c121 0 205 83 205 205zM413 729h43c-4 -67 -53 -152 -165 -152
c-78 0 -147 52 -154 152h45c0 -18 10 -113 108 -113c116 0 123 104 123 113z" />
    <glyph glyph-name="Obreve" unicode="&#x14e;" horiz-adv-x="903" 
d="M848 375c0 -216 -179 -388 -395 -388c-223 0 -398 174 -398 391c0 218 175 392 398 392c221 0 395 -166 395 -395zM798 376c0 204 -156 349 -345 349c-194 0 -348 -145 -348 -343c0 -187 151 -351 341 -351c200 0 352 149 352 345zM568 985h43c-4 -67 -53 -152 -165 -152
c-78 0 -147 52 -154 152h45c0 -18 10 -113 108 -113c116 0 123 104 123 113z" />
    <glyph glyph-name="omacron.sc" horiz-adv-x="681" 
d="M624 260c0 -150 -122 -270 -283 -270c-167 0 -285 122 -285 272c0 151 118 271 285 271c165 0 283 -115 283 -273zM576 260c0 135 -100 232 -235 232c-139 0 -237 -97 -237 -228c0 -123 96 -232 232 -232c143 0 240 99 240 228zM481 616h-282v41h282v-41z" />
    <glyph glyph-name="omacron" unicode="&#x14d;" horiz-adv-x="593" 
d="M546 235c0 -138 -109 -247 -249 -247s-250 107 -250 247c0 141 110 248 250 248s249 -110 249 -248zM500 235c0 119 -95 206 -205 206c-121 0 -203 -88 -203 -209c0 -117 97 -202 203 -202c121 0 205 83 205 205zM471 596h-349v41h349v-41z" />
    <glyph glyph-name="Omacron" unicode="&#x14c;" horiz-adv-x="903" 
d="M848 375c0 -216 -179 -388 -395 -388c-223 0 -398 174 -398 391c0 218 175 392 398 392c221 0 395 -166 395 -395zM798 376c0 204 -156 349 -345 349c-194 0 -348 -145 -348 -343c0 -187 151 -351 341 -351c200 0 352 149 352 345zM626 852h-349v41h349v-41z" />
    <glyph glyph-name="uhungarumlaut.sc" horiz-adv-x="587" 
d="M451 71v453h46v-466c-34 -38 -102 -68 -205 -68c-127 0 -204 67 -204 199v335h46v-316c0 -128 55 -176 175 -176c48 0 109 11 142 39zM343 712l-170 -108l-19 16l147 125zM499 712l-168 -108l-20 16l147 125z" />
    <glyph glyph-name="Uogonek" unicode="&#x172;" horiz-adv-x="740" 
d="M524 -170v-39c-18 -10 -42 -15 -66 -15c-56 0 -114 28 -114 89c0 45 26 88 85 125c-19 -2 -40 -3 -61 -3c-166 0 -269 95 -269 285v485h48v-472c0 -185 82 -254 244 -254c67 0 154 18 199 64v662h48v-676c-32 -38 -90 -71 -171 -85c-43 -25 -82 -67 -82 -116
c0 -42 35 -64 78 -64c23 0 41 6 61 14z" />
    <glyph glyph-name="uogonek" unicode="&#x173;" horiz-adv-x="536" 
d="M415 -171v-39c-18 -10 -42 -15 -66 -15c-56 0 -114 28 -114 89c0 46 27 91 90 128c-18 -2 -37 -4 -57 -4c-114 0 -194 60 -194 180v303h44v-293c0 -99 57 -149 149 -149c75 0 121 24 149 44v398h44v-417c-24 -23 -53 -41 -87 -52c-49 -22 -97 -68 -97 -123
c0 -42 35 -64 78 -64c23 0 41 6 61 14z" />
    <glyph glyph-name="uogonek.sc" horiz-adv-x="586" 
d="M443 -169v-40c-19 -10 -43 -14 -66 -14c-56 0 -114 27 -114 88c0 47 27 91 91 129c-19 -2 -40 -4 -63 -4c-127 0 -204 67 -204 199v335h46v-316c0 -128 55 -176 175 -176c48 0 109 11 142 39v453h46v-466c-21 -23 -53 -43 -97 -55c-47 -23 -96 -68 -96 -123
c0 -42 35 -64 78 -64c24 0 41 6 62 15z" />
    <glyph glyph-name="Wcircumflex" unicode="&#x174;" horiz-adv-x="991" 
d="M646 849l-149 62l-153 -69l-15 23l168 98h1l167 -92zM737 -28l-241 663l-238 -663l-246 785h56l189 -617c4 -12 5 -24 6 -34c1 10 3 22 7 34l228 638l231 -638c4 -12 5 -24 6 -34c1 10 3 23 6 34l183 617h54z" />
    <glyph glyph-name="wcircumflex" unicode="&#x175;" horiz-adv-x="707" 
d="M503 -22h-1l-149 404l-148 -404h-1l-191 493h49l144 -377l146 402h1l151 -402l144 377h46zM501 608l-26 -22l-122 102l-122 -102l-26 22l148 133h1z" />
    <glyph glyph-name="wcircumflex.sc" horiz-adv-x="772" 
d="M534 628l-26 -22l-122 102l-122 -102l-26 22l149 133zM565 -21l-179 439l-177 -438l-189 544h53l137 -406c3 -8 3 -16 4 -24c1 8 2 16 5 24l168 422l170 -422c3 -8 4 -16 5 -23c0 7 2 16 4 23l132 406h53z" />
    <glyph glyph-name="Ycircumflex" unicode="&#x176;" horiz-adv-x="523" 
d="M413 851l-149 62l-153 -69l-15 23l168 98h1l167 -92zM285 0h-48v328l-240 429h57l204 -365c2 -3 4 -5 5 -15c1 10 3 12 5 15l206 365h54l-243 -429v-328z" />
    <glyph glyph-name="ycircumflex" unicode="&#x177;" horiz-adv-x="466" 
d="M101 -260h-46l146 297l-192 434h49l168 -389l186 389h48zM376 608l-26 -22l-122 102l-122 -102l-26 22l148 133h1z" />
    <glyph glyph-name="ycircumflex.sc" horiz-adv-x="435" 
d="M240 0h-46l1 226l-183 298h54l153 -258l153 258h53l-186 -298zM367 628l-27 -22l-122 102l-122 -102l-25 22l148 133z" />
    <glyph glyph-name="Zacute" unicode="&#x179;" horiz-adv-x="557" 
d="M413 886l-238 -43l-12 31l227 61zM527 1h-523l429 712h-358v43h441l-429 -712h440v-43z" />
    <glyph glyph-name="zacute" unicode="&#x17a;" horiz-adv-x="432" 
d="M392 1h-377l309 428h-264v41h343l-308 -428h297v-41zM332 721l-139 -138l-20 17l118 154z" />
    <glyph glyph-name="zacute.sc" horiz-adv-x="464" 
d="M422 1h-405l325 483l-263 -1v39h343l-326 -482l326 1v-40zM208 603l-20 17l117 154l41 -33z" />
    <glyph glyph-name="Zdotaccent" unicode="&#x17b;" horiz-adv-x="557" 
d="M333 878c0 -20 -17 -37 -39 -37c-20 0 -37 17 -37 37c0 22 17 39 37 39c22 0 39 -17 39 -39zM527 1h-523l429 712h-358v43h441l-429 -712h440v-43z" />
    <glyph glyph-name="zdotaccent" unicode="&#x17c;" horiz-adv-x="432" 
d="M392 1h-377l309 428h-264v41h343l-308 -428h297v-41zM269 630c0 -20 -17 -37 -39 -37c-20 0 -37 17 -37 37c0 22 17 39 37 39c22 0 39 -17 39 -39z" />
    <glyph glyph-name="zdotaccent.sc" horiz-adv-x="464" 
d="M422 1h-405l325 483l-263 -1v39h343l-326 -482l326 1v-40zM277 640c0 -20 -18 -37 -40 -37c-20 0 -36 17 -36 37c0 22 16 39 36 39c22 0 40 -17 40 -39z" />
    <glyph glyph-name="zcaron.sc" horiz-adv-x="464" 
d="M385 730l-147 -133h-1l-148 133l26 22l122 -102l122 102zM422 1h-405l325 483l-263 -1v40h343l-326 -483l326 1v-40z" />
    <glyph glyph-name="longs" unicode="&#x17f;" horiz-adv-x="228" 
d="M149 0h-44v429h-80v41h80v149c0 68 14 117 40 149c27 32 68 47 109 47c37 0 65 -12 73 -18l-21 -42c-7 5 -29 16 -58 16c-67 0 -99 -56 -99 -142v-629z" />
    <glyph glyph-name="longs.semp" horiz-adv-x="228" 
d="M149 -245h-44v674h-80v41h80v149c0 68 14 117 40 149c27 32 68 47 109 47c37 0 65 -12 73 -18l-21 -42c-7 5 -29 16 -58 16c-67 0 -99 -56 -99 -142v-874z" />
    <glyph glyph-name="longs.semp2" horiz-adv-x="228" 
d="M149 0h-44v429h-80v41h80v149c0 68 14 117 40 149c27 32 68 47 109 47c37 0 65 -12 73 -18l-21 -42c-7 5 -29 16 -58 16c-67 0 -99 -56 -99 -142v-629z" />
    <glyph glyph-name="florin.sc" horiz-adv-x="324" 
d="M-59 -168l7 31c6 -1 12 -2 20 -2c44 0 68 54 75 88l69 351h-65l7 33h64l9 43c24 114 41 208 148 208c12 0 28 -4 33 -7l-10 -32c-7 1 -18 3 -30 3c-85 0 -96 -153 -107 -215h80l-6 -33h-80l-66 -336c-13 -66 -41 -138 -121 -138c-10 0 -22 3 -27 6z" />
    <glyph glyph-name="uni01C0" unicode="&#x1c0;" horiz-adv-x="232" 
d="M140 0h-48v757h48v-757z" />
    <glyph glyph-name="napostrophe.alt" horiz-adv-x="667" 
d="M80 471h-42l63 182h51zM593 0h-44v293c0 99 -57 149 -149 149c-66 0 -122 -23 -149 -43v-399h-44v418c44 36 110 65 192 65c114 0 194 -60 194 -180v-303z" />
    <glyph glyph-name="napostrophe.sc" horiz-adv-x="715" 
d="M623 -19l-435 446l2 -427h-46v539l435 -445l-3 430h47v-543zM10 493h-51l77 178h56z" />
    <glyph glyph-name="Eng" unicode="&#x14a;" horiz-adv-x="848" 
d="M563 -265l-19 44c111 48 145 91 149 252l-539 616v-647h-48v775l588 -669v651h48v-694c0 -214 -43 -268 -179 -328z" />
    <glyph glyph-name="eng" unicode="&#x14b;" horiz-adv-x="538" 
d="M344 -268l-19 38c94 45 94 65 94 267v251c0 109 -42 151 -141 151c-76 0 -132 -42 -155 -66v-373h-44v471h44v-51c27 24 80 63 162 63c113 0 178 -55 178 -177v-263c0 -209 -1 -255 -119 -311z" />
    <glyph glyph-name="eng.alt" 
d="M344 -268l-19 38c94 45 94 65 94 267v256c0 99 -57 149 -149 149c-66 0 -122 -23 -149 -43v-399h-44v418c44 36 110 65 192 65c114 0 194 -60 194 -180v-260c0 -209 -1 -255 -119 -311z" />
    <glyph glyph-name="eng.sc" horiz-adv-x="663" 
d="M430 -182l-17 40c84 32 109 61 112 170l-389 399l2 -427h-46v539l433 -444l-1 429h46v-476c0 -148 -33 -187 -140 -230z" />
    <glyph glyph-name="uni01C1" unicode="&#x1c1;" horiz-adv-x="379" 
d="M140 0h-48v757h48v-757zM287 0h-48v757h48v-757z" />
    <glyph glyph-name="uni01C2" unicode="&#x1c2;" horiz-adv-x="578" 
d="M318 0h-47v282h-218v43h218v141h-218v44h218v247h47v-247h208v-44h-208v-141h208v-43h-208v-282z" />
    <glyph glyph-name="uni01C3" unicode="&#x1c3;" horiz-adv-x="226" 
d="M137 263h-49v494h49v-494zM158 33c0 -24 -20 -44 -46 -44c-24 0 -44 20 -44 44c0 26 20 46 44 46c28 0 46 -20 46 -46z" />
    <glyph glyph-name="AEacute" unicode="&#x1fc;" horiz-adv-x="881" 
d="M745 886l-238 -43l-12 31l227 61zM847 1h-407v223h-268l-131 -224h-51l440 756h383v-43h-325v-284h261v-44h-261v-341h359v-43zM440 268v414l-243 -414h243z" />
    <glyph glyph-name="aeacute" unicode="&#x1fd;" horiz-adv-x="871" 
d="M789 100l25 -26c-37 -51 -106 -86 -194 -86c-89 0 -151 40 -193 103c-28 -47 -103 -103 -194 -103c-135 0 -197 81 -197 170c0 105 115 155 196 155c73 0 115 -23 159 -56v67c0 67 -51 118 -143 118c-63 0 -118 -22 -132 -28l-20 35c29 14 80 34 150 34
c110 0 162 -36 181 -104c40 65 101 104 192 104c143 0 207 -115 207 -230v-9h-391v-13c0 -140 92 -202 194 -202c85 0 137 41 160 71zM407 138c-7 18 -13 47 -15 72c-30 28 -82 63 -158 63c-66 0 -152 -35 -152 -115c0 -87 73 -129 153 -129c81 0 172 73 172 109zM438 284
h342c-10 85 -64 158 -165 158c-108 0 -167 -74 -177 -158zM574 721l-139 -138l-20 17l118 154z" />
    <glyph glyph-name="aeacute.sc" horiz-adv-x="706" 
d="M587 741l-139 -138l-20 17l118 154zM663 1h-311v148h-196l-97 -149h-53l343 523h289v-39l-240 1v-184h193v-39h-193v-222l265 1v-40zM352 191v261l-171 -261h171z" />
    <glyph glyph-name="Oslashacute" unicode="&#x1fe;" horiz-adv-x="903" 
d="M573 885l-238 -43l-12 31l227 61zM267 -149l-37 13l62 155c-141 60 -237 198 -237 359c0 218 175 392 398 392c47 0 91 -8 133 -22l55 137l37 -16l-55 -135c134 -61 225 -194 225 -359c0 -216 -179 -388 -395 -388c-44 0 -85 7 -124 19zM309 61l260 645
c-37 12 -76 19 -116 19c-194 0 -348 -145 -348 -343c0 -139 83 -266 204 -321zM606 690l-260 -643c30 -11 62 -16 100 -16c200 0 352 149 352 345c0 145 -79 260 -192 314z" />
    <glyph glyph-name="oslashacute" unicode="&#x1ff;" horiz-adv-x="593" 
d="M396 721l-139 -138l-20 17l118 154zM148 -146l-34 14l68 146c-81 40 -135 123 -135 221c0 141 110 248 250 248c33 0 65 -7 94 -18l73 156l34 -17l-73 -156c73 -43 121 -122 121 -213c0 -138 -109 -247 -249 -247c-28 0 -56 5 -81 12zM200 53l173 372
c-25 10 -51 16 -78 16c-121 0 -203 -88 -203 -209c0 -80 45 -146 108 -179zM406 408l-172 -369c20 -6 40 -9 61 -9c121 0 205 83 205 205c0 75 -38 137 -94 173z" />
    <glyph glyph-name="oslashacute.sc" horiz-adv-x="680" 
d="M444 741l-139 -138l-21 17l119 154zM208 -102l-35 14l46 102c-99 43 -163 138 -163 248c0 151 118 271 285 271c35 0 68 -5 98 -15l44 100l36 -15l-44 -99c91 -44 149 -134 149 -244c0 -150 -122 -270 -283 -270c-31 0 -61 4 -88 12zM235 54l187 425c-25 8 -52 13 -81 13
c-139 0 -237 -97 -237 -228c0 -90 51 -172 131 -210zM457 464l-187 -423c21 -6 43 -9 66 -9c143 0 240 99 240 228c0 92 -46 166 -119 204z" />
    <glyph glyph-name="dotlessj" unicode="&#x237;" horiz-adv-x="210" 
d="M8 -268l-19 38c94 45 94 65 94 267v434h44v-428c0 -209 -1 -255 -119 -311z" />
    <glyph glyph-name="dotlessj.semp" horiz-adv-x="210" 
d="M127 -255l-44 -10v736h44v-726z" />
    <glyph glyph-name="dotlessj.sc" horiz-adv-x="232" 
d="M-2 -182l-17 40c90 34 112 64 112 194v472h46v-476c0 -148 -33 -187 -141 -230z" />
    <glyph glyph-name="schwa" unicode="&#x259;" 
d="M45 218v9h398c0 14 -1 26 -1 31c-9 122 -98 184 -200 184c-85 0 -137 -41 -160 -71l-25 26c37 51 106 86 194 86c136 0 238 -99 238 -244c0 -149 -91 -251 -237 -251c-143 0 -207 115 -207 230zM440 187h-348c10 -85 63 -158 164 -158c108 0 174 74 184 158z" />
    <glyph glyph-name="circumflex.sc" horiz-adv-x="406" 
d="M351 628l-27 -22l-122 102l-122 -102l-25 22l149 133z" />
    <glyph glyph-name="breve.sc" horiz-adv-x="429" 
d="M331 749h43c-4 -67 -53 -152 -165 -152c-78 0 -147 52 -154 152h45c0 -19 10 -113 108 -113c115 0 123 104 123 113z" />
    <glyph glyph-name="ring.sc" horiz-adv-x="318" 
d="M159 596c-58 0 -104 46 -104 104s47 103 104 103c58 0 104 -47 104 -103c0 -58 -46 -104 -104 -104zM230 701c0 38 -31 69 -71 69c-37 0 -68 -31 -68 -69s31 -71 68 -71c40 0 71 33 71 71z" />
    <glyph glyph-name="tilde.sc" horiz-adv-x="420" 
d="M349 685l16 -27c-13 -16 -53 -53 -96 -53c-37 0 -75 47 -117 47c-29 0 -64 -29 -79 -43l-18 23c16 21 63 59 100 59c43 0 84 -48 118 -48c36 0 65 30 76 42z" />
    <glyph glyph-name="hungarumlaut.sc" horiz-adv-x="455" 
d="M244 712l-169 -108l-20 16l147 125zM400 712l-168 -108l-20 16l148 125z" />
    <glyph glyph-name="napostrophe" unicode="&#x149;" horiz-adv-x="666" 
d="M80 471h-42l63 182h51zM591 0h-44v288c0 109 -42 151 -141 151c-76 0 -132 -42 -155 -66v-373h-44v471h44v-51c27 24 80 63 162 63c113 0 178 -55 178 -177v-306z" />
    <glyph glyph-name="ncaron.sc" horiz-adv-x="662" 
d="M570 -19l-434 446l2 -427h-46v539l434 -445l-2 430h46v-543zM479 739l-148 -133l-148 133l27 22l122 -102l122 102z" />
    <glyph glyph-name="ncaron.alt" 
d="M411 709l-147 -133h-1l-148 133l26 22l122 -102l122 102zM463 0h-44v293c0 99 -57 149 -149 149c-66 0 -122 -23 -149 -43v-399h-44v418c44 36 110 65 192 65c114 0 194 -60 194 -180v-303z" />
    <glyph glyph-name="ncaron" unicode="&#x148;" horiz-adv-x="538" 
d="M463 0h-44v288c0 109 -42 151 -141 151c-76 0 -132 -42 -155 -66v-373h-44v471h44v-51c27 24 80 63 162 63c113 0 178 -55 178 -177v-306zM413 709l-147 -133h-1l-148 133l26 22l122 -102l122 102z" />
    <glyph glyph-name="divide.sinf" horiz-adv-x="433" 
d="M245 105c0 -12 -12 -26 -29 -26c-14 0 -27 14 -27 26c0 14 13 28 27 28c17 0 29 -14 29 -28zM375 -7h-317v36h317v-36zM245 -88c0 -12 -12 -26 -29 -26c-14 0 -27 14 -27 26c0 14 13 28 27 28c17 0 29 -14 29 -28z" />
    <glyph glyph-name="thorn.sc" horiz-adv-x="442" 
d="M139 0h-46v524h46v-105h64c94 0 197 -38 197 -151c0 -93 -75 -163 -209 -163h-52v-105zM139 143l50 1c101 2 164 45 164 124c0 73 -59 111 -139 112h-75v-237z" />
    <glyph glyph-name="divide.sc" horiz-adv-x="520" 
d="M443 236h-366v40h366v-40zM299 393c0 -18 -16 -37 -39 -37c-20 0 -37 19 -37 37c0 20 17 39 37 39c25 0 39 -19 39 -39zM299 117c0 -18 -16 -37 -39 -37c-20 0 -37 19 -37 37c0 20 17 39 37 39c25 0 39 -19 39 -39z" />
    <glyph glyph-name="ydieresis.sc" horiz-adv-x="435" 
d="M149 630c0 -20 -17 -37 -39 -37c-20 0 -37 17 -37 37c0 22 17 39 37 39c22 0 39 -17 39 -39zM368 630c0 -20 -15 -37 -39 -37c-21 0 -36 17 -36 37c0 22 15 39 36 39c24 0 39 -17 39 -39zM240 0h-46l1 226l-183 298h54l153 -258l153 258h53l-186 -298z" />
    <glyph glyph-name="Amacron" unicode="&#x100;" horiz-adv-x="671" 
d="M673 0h-50l-97 224h-381l-97 -224h-51l339 777zM507 268l-151 352c-7 14 -18 42 -20 50l-20 -50l-152 -352h343zM509 882h-349v41h349v-41z" />
    <glyph glyph-name="Amacron.semp" horiz-adv-x="666" 
d="M506 882h-349v41h349v-41zM668 0h-51l-74 170h-423l-71 -170h-51l332 778zM525 214l-195 461l-192 -461h387z" />
    <glyph glyph-name="amacron" unicode="&#x101;" horiz-adv-x="503" 
d="M391 76v133c-30 28 -80 64 -157 64c-66 0 -152 -35 -152 -115c0 -87 73 -129 153 -129c70 0 122 20 156 47zM391 254v70c0 67 -51 118 -143 118c-63 0 -118 -22 -132 -28l-20 35c29 14 80 34 150 34c151 0 189 -71 189 -172v-254c-47 -45 -118 -69 -202 -69
c-135 0 -197 81 -197 170c0 105 115 155 196 155c62 0 120 -21 159 -59zM424 596h-349v41h349v-41z" />
    <glyph glyph-name="amacron.alt" horiz-adv-x="564" 
d="M446 596h-349v41h349v-41zM487 -2h-44v91c-31 -52 -90 -101 -171 -101c-107 0 -224 87 -224 246c0 163 124 249 254 249c87 0 158 -39 185 -65v-420zM443 144v255c-16 11 -71 43 -142 43c-105 0 -207 -70 -207 -204c0 -118 79 -208 182 -208c82 0 138 58 167 114z" />
    <glyph glyph-name="amacron.sc.semp" 
d="M409 616h-282v41h282v-41zM525 0h-48l-49 103h-319l-48 -103h-49l257 539zM409 144l-140 297l-140 -297h280z" />
    <glyph glyph-name="amacron.sc" 
d="M410 616h-282v41h282v-41zM525 0h-48l-68 143h-280l-68 -143h-49l257 539zM391 185l-122 257l-121 -257h243z" />
    <glyph glyph-name="Abreve" unicode="&#x102;" horiz-adv-x="671" 
d="M673 0h-50l-97 224h-381l-97 -224h-51l339 777zM507 268l-151 352c-7 14 -18 42 -20 50l-20 -50l-152 -352h343zM451 1015h43c-4 -67 -53 -152 -165 -152c-78 0 -147 52 -154 152h45c0 -18 10 -113 108 -113c116 0 123 104 123 113z" />
    <glyph glyph-name="Abreve.semp" horiz-adv-x="666" 
d="M448 1015h43c-4 -67 -53 -152 -165 -152c-78 0 -147 52 -154 152h45c0 -18 10 -113 108 -113c116 0 123 104 123 113zM668 0h-51l-74 170h-423l-71 -170h-51l332 778zM525 214l-195 461l-192 -461h387z" />
    <glyph glyph-name="abreve" unicode="&#x103;" horiz-adv-x="503" 
d="M391 76v133c-30 28 -80 64 -157 64c-66 0 -152 -35 -152 -115c0 -87 73 -129 153 -129c70 0 122 20 156 47zM391 254v70c0 67 -51 118 -143 118c-63 0 -118 -22 -132 -28l-20 35c29 14 80 34 150 34c151 0 189 -71 189 -172v-254c-47 -45 -118 -69 -202 -69
c-135 0 -197 81 -197 170c0 105 115 155 196 155c62 0 120 -21 159 -59zM365 729h43c-4 -67 -53 -152 -165 -152c-78 0 -147 52 -154 152h45c0 -18 10 -113 108 -113c116 0 123 104 123 113z" />
    <glyph glyph-name="abreve.alt" horiz-adv-x="564" 
d="M379 729h43c-4 -67 -53 -152 -165 -152c-78 0 -147 52 -154 152h45c0 -18 10 -113 108 -113c116 0 123 104 123 113zM487 -2h-44v91c-31 -52 -90 -101 -171 -101c-107 0 -224 87 -224 246c0 163 124 249 254 249c87 0 158 -39 185 -65v-420zM443 144v255
c-16 11 -71 43 -142 43c-105 0 -207 -70 -207 -204c0 -118 79 -208 182 -208c82 0 138 58 167 114z" />
    <glyph glyph-name="oslash.sc" horiz-adv-x="680" 
d="M207 -102l-34 14l45 102c-99 43 -162 138 -162 248c0 150 119 272 285 272c35 0 68 -6 98 -16l44 100l36 -15l-44 -99c91 -44 149 -134 149 -244c0 -150 -122 -270 -283 -270c-31 0 -61 4 -88 12zM235 54l187 425c-25 8 -52 13 -81 13c-139 0 -237 -97 -237 -228
c0 -90 51 -172 131 -210zM457 464l-187 -423c21 -6 43 -9 66 -9c143 0 240 99 240 228c0 92 -46 166 -119 204z" />
    <glyph glyph-name="abreve.sc.semp" 
d="M385 749h43c-4 -67 -53 -152 -165 -152c-78 0 -147 52 -154 152h45c0 -19 10 -113 108 -113c116 0 123 104 123 113zM525 0h-48l-49 103h-319l-48 -103h-49l257 539zM409 144l-140 297l-140 -297h280z" />
    <glyph glyph-name="ugrave.sc" horiz-adv-x="587" 
d="M451 72v452h46v-466c-34 -38 -103 -68 -205 -68c-127 0 -204 67 -204 199v335h46v-316c0 -128 55 -176 175 -176c48 0 109 11 142 40zM359 620l-21 -17l-138 138l41 33z" />
    <glyph glyph-name="uacute.sc" horiz-adv-x="587" 
d="M451 72v452h46v-466c-34 -38 -103 -68 -205 -68c-127 0 -204 67 -204 199v335h46v-316c0 -128 55 -176 175 -176c48 0 109 11 142 40zM388 741l-139 -138l-20 17l118 154z" />
    <glyph glyph-name="abreve.sc" 
d="M386 749h43c-4 -67 -53 -152 -165 -152c-78 0 -147 52 -154 152h45c0 -19 10 -113 108 -113c116 0 123 104 123 113zM525 0h-48l-68 143h-280l-68 -143h-49l257 539zM391 185l-122 257l-121 -257h243z" />
    <glyph glyph-name="Aogonek" unicode="&#x104;" horiz-adv-x="671" 
d="M697 -172v-39c-18 -10 -40 -15 -68 -15c-57 0 -113 39 -113 100c0 50 42 102 107 127l-97 223h-381l-97 -224h-51l339 777l340 -785c-54 -12 -119 -53 -119 -112c0 -42 36 -66 79 -66c23 0 41 6 61 14zM507 268l-151 352c-7 14 -18 42 -20 50l-20 -50l-152 -352h343z" />
    <glyph glyph-name="Aogonek.semp" horiz-adv-x="666" 
d="M691 -172v-39c-18 -10 -40 -15 -68 -15c-57 0 -113 39 -113 100c0 50 41 102 106 127l-73 169h-423l-71 -170h-51l332 778l341 -786c-54 -12 -120 -53 -120 -112c0 -42 36 -66 79 -66c23 0 41 6 61 14zM525 214l-195 461l-192 -461h387z" />
    <glyph glyph-name="aogonek.sc.semp" 
d="M549 -173v-39c-19 -10 -43 -15 -66 -15c-56 0 -114 28 -114 88c0 51 33 105 108 139l-49 103h-319l-48 -103h-49l257 539l259 -546c-56 -19 -119 -61 -119 -116c0 -42 36 -64 79 -64c23 0 40 6 61 14zM409 144l-140 297l-140 -297h280z" />
    <glyph glyph-name="aogonek.sc" horiz-adv-x="538" 
d="M550 -173v-39c-19 -10 -43 -15 -66 -15c-56 0 -114 28 -114 88c0 51 33 105 107 139l-68 143h-280l-68 -143h-49l257 539l260 -546c-56 -19 -119 -61 -119 -116c0 -42 36 -64 79 -64c23 0 40 6 61 14zM391 185l-122 257l-121 -257h243z" />
    <glyph glyph-name="Cacute" unicode="&#x106;" horiz-adv-x="746" 
d="M675 113l23 -33c-69 -60 -154 -93 -248 -93c-227 0 -395 176 -395 391c0 216 168 392 395 392c94 0 179 -33 248 -94l-29 -36c-42 44 -112 85 -228 85c-188 0 -336 -143 -336 -352c0 -194 157 -342 346 -342c90 0 170 31 224 82zM557 885l-238 -43l-12 31l227 61z" />
    <glyph glyph-name="cacute" unicode="&#x107;" horiz-adv-x="511" 
d="M457 97l23 -27c-44 -58 -116 -82 -189 -82c-138 0 -244 103 -244 246c0 144 102 249 247 249c92 0 151 -50 163 -65l-26 -30c-11 12 -61 54 -141 54c-93 0 -197 -65 -197 -208c0 -131 94 -205 202 -205c80 0 126 30 162 68zM367 721l-139 -138l-20 17l118 154z" />
    <glyph glyph-name="cacute.sc" horiz-adv-x="587" 
d="M518 86l19 -33c-50 -42 -113 -63 -185 -63c-170 0 -296 123 -296 272s125 271 294 271c79 0 144 -29 189 -65l-27 -33c-32 30 -84 57 -168 57c-135 0 -239 -96 -239 -234c0 -128 112 -226 248 -226c70 0 128 23 165 54zM422 741l-139 -138l-19 17l117 154z" />
    <glyph glyph-name="Ccircumflex" unicode="&#x108;" horiz-adv-x="746" 
d="M675 113l23 -33c-69 -60 -154 -93 -248 -93c-227 0 -395 176 -395 391c0 216 168 392 395 392c94 0 179 -33 248 -94l-29 -36c-42 44 -112 85 -228 85c-188 0 -336 -143 -336 -352c0 -194 157 -342 346 -342c90 0 170 31 224 82zM575 842l-149 69l-153 -69l-15 23l168 98
h1l167 -99z" />
    <glyph glyph-name="ccircumflex" unicode="&#x109;" horiz-adv-x="511" 
d="M457 97l23 -27c-44 -58 -116 -82 -189 -82c-138 0 -244 103 -244 246c0 144 102 249 247 249c92 0 151 -50 163 -65l-26 -30c-11 12 -61 54 -141 54c-93 0 -197 -65 -197 -208c0 -131 94 -205 202 -205c80 0 126 30 162 68zM410 608l-26 -22l-122 102l-122 -102l-26 22
l148 133h1z" />
    <glyph glyph-name="ccircumflex.sc" horiz-adv-x="587" 
d="M518 86l19 -33c-50 -42 -113 -63 -185 -63c-170 0 -296 123 -296 272s125 271 294 271c79 0 144 -29 189 -65l-27 -33c-32 30 -84 57 -168 57c-135 0 -239 -96 -239 -234c0 -128 112 -226 248 -226c70 0 128 23 165 54zM466 628l-26 -22l-123 102l-122 -102l-25 22
l149 133z" />
    <glyph glyph-name="Cdotaccent" unicode="&#x10a;" horiz-adv-x="746" 
d="M675 113l23 -33c-69 -60 -154 -93 -248 -93c-227 0 -395 176 -395 391c0 216 168 392 395 392c94 0 179 -33 248 -94l-29 -36c-42 44 -112 85 -228 85c-188 0 -336 -143 -336 -352c0 -194 157 -342 346 -342c90 0 170 31 224 82zM456 879c0 -20 -17 -37 -39 -37
c-20 0 -37 17 -37 37c0 22 17 39 37 39c22 0 39 -17 39 -39z" />
    <glyph glyph-name="ucircumflex.sc" horiz-adv-x="587" 
d="M451 72v452h46v-466c-34 -38 -103 -68 -205 -68c-127 0 -204 67 -204 199v335h46v-316c0 -128 55 -176 175 -176c48 0 109 11 142 40zM443 628l-26 -22l-122 102l-122 -102l-26 22l149 133z" />
    <glyph glyph-name="cdotaccent" unicode="&#x10b;" horiz-adv-x="511" 
d="M457 97l23 -27c-44 -58 -116 -82 -189 -82c-138 0 -244 103 -244 246c0 144 102 249 247 249c92 0 151 -50 163 -65l-26 -30c-11 12 -61 54 -141 54c-93 0 -197 -65 -197 -208c0 -131 94 -205 202 -205c80 0 126 30 162 68zM305 630c0 -20 -17 -37 -39 -37
c-20 0 -37 17 -37 37c0 22 17 39 37 39c22 0 39 -17 39 -39z" />
    <glyph glyph-name="cdotaccent.sc" horiz-adv-x="587" 
d="M518 86l19 -33c-50 -42 -113 -63 -185 -63c-170 0 -296 123 -296 272s125 271 294 271c79 0 144 -29 189 -65l-27 -33c-32 30 -84 57 -168 57c-135 0 -239 -96 -239 -234c0 -128 112 -226 248 -226c70 0 128 23 165 54zM360 640c0 -20 -17 -37 -39 -37
c-20 0 -37 17 -37 37c0 22 17 39 37 39c22 0 39 -17 39 -39z" />
    <glyph glyph-name="udieresis.sc" horiz-adv-x="587" 
d="M451 72v452h46v-466c-34 -38 -103 -68 -205 -68c-127 0 -204 67 -204 199v335h46v-316c0 -128 55 -176 175 -176c48 0 109 11 142 40zM214 640c0 -20 -17 -37 -39 -37c-20 0 -37 17 -37 37c0 22 17 39 37 39c22 0 39 -17 39 -39zM433 640c0 -20 -15 -37 -39 -37
c-21 0 -36 17 -36 37c0 22 15 39 36 39c24 0 39 -17 39 -39z" />
    <glyph glyph-name="gdotaccent" unicode="&#x121;" horiz-adv-x="574" 
d="M453 -27v101c-41 -52 -110 -86 -176 -86c-112 0 -229 88 -229 245c0 164 125 250 256 250c96 0 166 -39 193 -65v-446c0 -179 -112 -232 -217 -232c-58 0 -120 14 -182 54l23 36c51 -34 113 -48 163 -48c69 0 169 24 169 191zM453 129v270c-16 11 -69 43 -151 43
c-106 0 -208 -69 -208 -209c0 -92 58 -203 196 -203c56 0 131 43 163 99zM326 630c0 -20 -17 -37 -39 -37c-20 0 -37 17 -37 37c0 22 17 39 37 39c22 0 39 -17 39 -39z" />
    <glyph glyph-name="gdotaccent.sc" horiz-adv-x="649" 
d="M557 206l-156 -1v40h204c-3 -174 -128 -255 -260 -255c-161 0 -290 122 -290 270c0 153 129 273 294 273c130 0 205 -70 208 -73l-26 -33c-4 4 -73 65 -180 65c-146 0 -248 -101 -248 -234c0 -110 91 -227 242 -227c108 0 201 63 212 175zM367 640c0 -20 -18 -37 -40 -37
c-19 0 -36 17 -36 37c0 22 17 39 36 39c22 0 40 -17 40 -39z" />
    <glyph glyph-name="Gcommaaccent" unicode="&#x122;" horiz-adv-x="831" 
d="M741 299h-214v43h263c-2 -240 -171 -355 -348 -355c-212 0 -387 177 -387 389c0 219 166 394 396 394c172 0 273 -103 277 -108l-30 -35c-5 6 -100 98 -245 98c-214 0 -348 -152 -348 -350c0 -171 137 -344 338 -344c149 0 283 91 298 268zM410 -233h-51l77 178h56z" />
    <glyph glyph-name="gcommaaccent" unicode="&#x123;" horiz-adv-x="574" 
d="M312 603h-51l72 182h42zM453 -27v101c-41 -52 -110 -86 -176 -86c-112 0 -229 88 -229 245c0 164 125 250 256 250c96 0 166 -39 193 -65v-446c0 -179 -112 -232 -217 -232c-58 0 -120 14 -182 54l23 36c51 -34 113 -48 163 -48c69 0 169 24 169 191zM453 129v270
c-16 11 -69 43 -151 43c-106 0 -208 -69 -208 -209c0 -92 58 -203 196 -203c56 0 131 43 163 99z" />
    <glyph glyph-name="gcommaaccent.sc" horiz-adv-x="649" 
d="M557 206l-156 -1v40h204c-3 -174 -128 -255 -260 -255c-161 0 -290 122 -290 270c0 153 129 273 294 273c130 0 205 -70 208 -73l-26 -33c-4 4 -73 65 -180 65c-146 0 -248 -101 -248 -234c0 -110 91 -227 242 -227c108 0 201 63 212 175zM333 -233h-51l77 178h57z" />
    <glyph glyph-name="Hcircumflex" unicode="&#x124;" horiz-adv-x="749" 
d="M643 0h-48v363h-441v-363h-48v757h48v-350h441v350h48v-757zM530 808l-149 69l-153 -69l-15 23l168 98h1l167 -99z" />
    <glyph glyph-name="hcircumflex" unicode="&#x125;" horiz-adv-x="538" 
d="M463 0h-44v288c0 109 -42 151 -141 151c-76 0 -132 -42 -155 -66v-373h-44v820h44v-400c27 24 80 63 162 63c113 0 178 -55 178 -177v-306zM249 882l-26 -22l-122 102l-122 -102l-26 22l148 133h1z" />
    <glyph glyph-name="hcircumflex.sc" horiz-adv-x="595" 
d="M502 0h-46v246h-317v-246h-46v524h46v-236h317v236h46v-524zM443 628l-26 -22l-123 102l-122 -102l-25 22l149 133z" />
    <glyph glyph-name="Hbar" unicode="&#x126;" horiz-adv-x="749" 
d="M643 0h-48v363h-441v-363h-48v579h-70v41h70v137h48v-137h441v137h48v-137h70v-41h-70v-579zM595 407v172h-441v-172h441z" />
    <glyph glyph-name="hbar" unicode="&#x127;" horiz-adv-x="538" 
d="M463 0h-44v288c0 109 -42 151 -141 151c-76 0 -132 -42 -155 -66v-373h-44v650h-77l5 41h72v129h44v-129h179l-5 -41h-174v-230c27 24 80 63 162 63c113 0 178 -55 178 -177v-306z" />
    <glyph glyph-name="hbar.sc" horiz-adv-x="596" 
d="M503 0h-46v246h-317v-246h-46v386h-60v41h60v97h46v-97h317v97h46v-97h55v-41h-55v-386zM457 288v98h-317v-98h317z" />
    <glyph glyph-name="Itilde" unicode="&#x128;" horiz-adv-x="260" 
d="M281 934l18 -30c-14 -17 -63 -61 -105 -61c-39 0 -81 50 -126 50c-30 0 -68 -31 -85 -46l-19 27c18 21 68 62 108 62c46 0 89 -51 125 -51c35 0 72 36 84 49zM154 0h-48v757h48v-757z" />
    <glyph glyph-name="yacute.sc" horiz-adv-x="435" 
d="M240 0h-46l1 226l-183 298h54l153 -258l153 258h53l-186 -298zM347 741l-139 -138l-20 17l118 154z" />
    <glyph glyph-name="itilde" unicode="&#x129;" horiz-adv-x="210" 
d="M127 0h-44v471h44v-471zM244 665l17 -27c-13 -16 -53 -53 -96 -53c-37 0 -76 47 -118 47c-28 0 -63 -29 -79 -43l-18 24c17 20 63 58 101 58c42 0 83 -48 117 -48c37 0 65 30 76 42z" />
    <glyph glyph-name="itilde.sc" horiz-adv-x="231" 
d="M138 0h-45v524h45v-524zM254 685l17 -27c-14 -16 -53 -53 -96 -53c-37 0 -76 47 -118 47c-28 0 -64 -29 -79 -43l-18 23c17 21 63 59 101 59c43 0 83 -48 117 -48c37 0 65 30 76 42z" />
    <glyph glyph-name="Imacron" unicode="&#x12a;" horiz-adv-x="260" 
d="M154 0h-48v757h48v-757zM305 842h-349v41h349v-41z" />
    <glyph glyph-name="imacron" unicode="&#x12b;" horiz-adv-x="210" 
d="M127 0h-44v471h44v-471zM280 596h-349v41h349v-41z" />
    <glyph glyph-name="imacron.sc" horiz-adv-x="231" 
d="M138 0h-45v524h45v-524zM256 616h-282v41h282v-41z" />
    <glyph glyph-name="Ibreve" unicode="&#x12c;" horiz-adv-x="260" 
d="M154 0h-48v757h48v-757zM247 985h43c-4 -67 -53 -152 -165 -152c-78 0 -147 52 -154 152h45c0 -18 10 -113 108 -113c116 0 123 104 123 113z" />
    <glyph glyph-name="ibreve" unicode="&#x12d;" horiz-adv-x="210" 
d="M127 0h-44v471h44v-471zM222 729h43c-4 -67 -53 -152 -165 -152c-78 0 -147 52 -154 152h45c0 -18 10 -113 108 -113c116 0 123 104 123 113z" />
    <glyph glyph-name="ibreve.sc" horiz-adv-x="231" 
d="M138 0h-45v524h45v-524zM232 749h43c-4 -67 -53 -152 -165 -152c-78 0 -147 52 -154 152h45c0 -19 10 -113 108 -113c116 0 123 104 123 113z" />
    <glyph glyph-name="Iogonek" unicode="&#x12e;" horiz-adv-x="260" 
d="M189 -172v-39c-18 -10 -42 -15 -66 -15c-56 0 -114 28 -114 89c0 50 32 98 97 137v757h48v-760c-58 -23 -104 -65 -104 -119c0 -42 35 -64 78 -64c23 0 41 6 61 14z" />
    <glyph glyph-name="iogonek" unicode="&#x12f;" horiz-adv-x="210" 
d="M163 -172v-39c-18 -10 -42 -15 -66 -15c-56 0 -114 28 -114 89c0 50 32 98 100 137v471h44v-476c-57 -20 -103 -63 -103 -117c0 -42 35 -64 78 -64c23 0 41 6 61 14zM145 610c0 -21 -17 -39 -40 -39c-22 0 -40 18 -40 39c0 24 18 41 40 41c23 0 40 -17 40 -41z" />
    <glyph glyph-name="iogonek.sc" horiz-adv-x="231" 
d="M168 -172v-39c-18 -10 -42 -15 -66 -15c-56 0 -114 28 -114 88c0 51 32 98 105 138v524h45v-524c-53 -24 -109 -67 -109 -122c0 -42 35 -64 78 -64c23 0 40 6 61 14z" />
    <glyph glyph-name="Idotaccent" unicode="&#x130;" horiz-adv-x="260" 
d="M154 0h-48v757h48v-757zM168 916c0 -20 -17 -37 -39 -37c-20 0 -37 17 -37 37c0 22 17 39 37 39c22 0 39 -17 39 -39z" />
    <glyph glyph-name="dotlessi.sc" horiz-adv-x="232" 
d="M139 0h-46v524h46v-524z" />
    <glyph glyph-name="IJ" unicode="&#x132;" horiz-adv-x="519" 
d="M154 0h-48v757h48v-757zM234 -265l-19 44c119 51 150 96 150 289v689h48v-694c0 -214 -43 -268 -179 -328z" />
    <glyph glyph-name="IJ.alt" horiz-adv-x="520" 
d="M154 0h-48v757h48v-757zM228 -282l-9 46c125 48 147 105 147 284v709h48v-718c0 -214 -50 -265 -186 -321z" />
    <glyph glyph-name="IJ.semp2" horiz-adv-x="694" 
d="M154 0h-48v757h48v-757zM546 208v549h48v-558c0 -142 -81 -212 -183 -212c-37 0 -74 10 -113 31l19 40c26 -15 55 -27 95 -27c90 0 134 71 134 177z" />
    <glyph glyph-name="ij" unicode="&#x133;" horiz-adv-x="420" 
d="M127 0h-44v471h44v-471zM145 610c0 -21 -17 -39 -40 -39c-22 0 -40 18 -40 39c0 24 18 41 40 41c23 0 40 -17 40 -41zM218 -268l-19 38c94 45 94 65 94 267v434h44v-428c0 -209 -1 -255 -119 -311zM356 610c0 -21 -17 -39 -40 -39c-22 0 -40 18 -40 39c0 24 18 41 40 41
c23 0 40 -17 40 -41z" />
    <glyph glyph-name="ij.semp" horiz-adv-x="420" 
d="M127 0h-44v471h44v-471zM145 610c0 -21 -17 -39 -40 -39c-22 0 -40 18 -40 39c0 24 18 41 40 41c23 0 40 -17 40 -41zM337 -255l-44 -10v736h44v-726zM356 610c0 -21 -17 -39 -40 -39c-22 0 -40 18 -40 39c0 24 18 41 40 41c23 0 40 -17 40 -41z" />
    <glyph glyph-name="ij.sc" horiz-adv-x="463" 
d="M139 0h-46v524h46v-524zM229 -182l-17 40c91 34 113 64 113 194v472h46v-476c0 -148 -34 -187 -142 -230z" />
    <glyph glyph-name="Jcircumflex" unicode="&#x134;" horiz-adv-x="260" 
d="M-25 -265l-19 44c119 51 150 96 150 289v689h48v-694c0 -214 -43 -268 -179 -328zM278 842l-149 69l-153 -69l-15 23l168 98h1l167 -99z" />
    <glyph glyph-name="Jcircumflex.alt" horiz-adv-x="260" 
d="M-32 -282l-9 46c125 48 147 105 147 284v709h48v-718c0 -214 -50 -265 -186 -321zM279 811l-149 69l-153 -69l-15 23l168 98h1l167 -99z" />
    <glyph glyph-name="Jcircumflex.semp" horiz-adv-x="448" 
d="M300 208v505h-177v43h225v-557c0 -142 -81 -212 -183 -212c-37 0 -94 18 -133 39l19 40c26 -15 75 -35 115 -35c86 0 134 64 134 177zM401 811l-149 69l-153 -69l-15 23l168 98h1l167 -99z" />
    <glyph glyph-name="Jcircumflex.semp2" horiz-adv-x="434" 
d="M286 208v549h48v-558c0 -142 -81 -212 -183 -212c-37 0 -74 10 -113 31l19 40c26 -15 55 -27 95 -27c90 0 134 71 134 177zM460 811l-149 69l-153 -69l-15 23l168 98h1l167 -99z" />
    <glyph glyph-name="jcircumflex" unicode="&#x135;" horiz-adv-x="210" 
d="M8 -268l-19 38c94 45 94 65 94 267v434h44v-428c0 -209 -1 -255 -119 -311zM253 608l-26 -22l-122 102l-122 -102l-26 22l148 133h1z" />
    <glyph glyph-name="jcircumflex.semp" horiz-adv-x="210" 
d="M127 -255l-44 -10v736h44v-726zM233 608l-26 -22l-102 102l-102 -102l-26 22l128 133h1z" />
    <glyph glyph-name="jcircumflex.sc.semp" horiz-adv-x="347" 
d="M228 199v285h-147v39h193v-339c0 -142 -49 -197 -151 -197c-37 0 -84 18 -113 39l19 36c21 -15 55 -35 95 -35c86 0 104 59 104 172zM333 628l-27 -22l-122 102l-122 -102l-25 22l149 133z" />
    <glyph glyph-name="jcircumflex.sc" horiz-adv-x="231" 
d="M-3 -182l-17 40c90 34 113 64 113 194v472h45v-476c0 -148 -33 -187 -141 -230zM263 628l-26 -22l-122 102l-123 -102l-25 22l149 133z" />
    <glyph glyph-name="Kcommaaccent" unicode="&#x136;" horiz-adv-x="616" 
d="M307 -233h-51l77 178h56zM630 0h-80l-396 355v-355h-48v757h48v-358l354 358h70l-383 -379z" />
    <glyph glyph-name="kcommaaccent" unicode="&#x137;" horiz-adv-x="441" 
d="M445 0h-71l-251 249v-249h-44v820h44v-551l201 202h61l-213 -208zM201 -233h-51l77 178h56z" />
    <glyph glyph-name="kcommaaccent.sc" horiz-adv-x="504" 
d="M238 -233h-50l77 178h56zM498 0h-77l-282 239v-239h-46v524h46v-240l251 240h70l-285 -262z" />
    <glyph glyph-name="kgreenlandic" unicode="&#x138;" horiz-adv-x="442" 
d="M445 0h-61l-261 249v-249h-44v471h44v-202l201 202h56l-213 -208z" />
    <glyph glyph-name="kgreenlandic.sc" horiz-adv-x="505" 
d="M498 0h-77l-282 239v-239h-46v524h46v-240l251 240h70l-285 -262z" />
    <glyph glyph-name="Lacute" unicode="&#x139;" horiz-adv-x="505" 
d="M279 887l-238 -43l-12 31l227 61zM480 1h-374v756h48v-713h326v-43z" />
    <glyph glyph-name="lacute" unicode="&#x13a;" horiz-adv-x="218" 
d="M201 1009l-139 -138l-20 17l118 154zM131 0h-44v820h44v-820z" />
    <glyph glyph-name="lacute.sc" horiz-adv-x="410" 
d="M380 1h-287v523h46v-484l241 1v-40zM113 603l-20 17l118 154l40 -33z" />
    <glyph glyph-name="Lcommaaccent" unicode="&#x13b;" horiz-adv-x="506" 
d="M480 1h-374v756h48v-713h326v-43zM256 -233h-51l77 178h56z" />
    <glyph glyph-name="lcommaaccent" unicode="&#x13c;" horiz-adv-x="218" 
d="M131 0h-44v820h44v-820zM84 -233h-51l77 178h56z" />
    <glyph glyph-name="lcommaaccent.sc" horiz-adv-x="411" 
d="M380 1h-287v523h46v-484l241 1v-40zM201 -233h-51l77 178h56z" />
    <glyph glyph-name="Lcaron" unicode="&#x13d;" horiz-adv-x="507" 
d="M391 615h-42l63 182h51zM480 1h-374v756h48v-713h326v-43z" />
    <glyph glyph-name="lcaron" unicode="&#x13e;" horiz-adv-x="230" 
d="M243 575h-42l63 182h51zM131 0h-44v820h44v-820z" />
    <glyph glyph-name="lcaron.sc" horiz-adv-x="417" 
d="M314 350h-46l69 200h56zM380 1h-287v523h46v-484l241 1v-40z" />
    <glyph glyph-name="Ldot" unicode="&#x13f;" horiz-adv-x="530" 
d="M436 339c-24 0 -44 20 -44 44s20 44 44 44s44 -20 44 -44c0 -23 -19 -44 -44 -44zM480 1h-374v756h48v-713h326v-43z" />
    <glyph glyph-name="ldot" unicode="&#x140;" horiz-adv-x="330" 
d="M274 339c-24 0 -44 20 -44 44s20 44 44 44s44 -20 44 -44c0 -23 -19 -44 -44 -44zM131 0h-44v820h44v-820z" />
    <glyph glyph-name="ldot.sc" horiz-adv-x="432" 
d="M380 1h-287v523h46v-484l241 1v-40zM374 275c0 -23 -19 -43 -44 -43c-24 0 -44 20 -44 43c0 26 20 45 44 45c25 0 44 -19 44 -45z" />
    <glyph glyph-name="lslash.sc" horiz-adv-x="412" 
d="M383 1h-288v163l-60 -35v44l60 36v315h46v-287l115 68v-44l-115 -68v-153l242 1v-40z" />
    <glyph glyph-name="Nacute" unicode="&#x143;" horiz-adv-x="847" 
d="M742 -25l-588 672v-647h-48v775l588 -669v651h48v-782zM579 884l-238 -43l-12 31l227 61z" />
    <glyph glyph-name="nacute" unicode="&#x144;" horiz-adv-x="538" 
d="M463 0h-44v288c0 109 -42 151 -141 151c-76 0 -132 -42 -155 -66v-373h-44v471h44v-51c27 24 80 63 162 63c113 0 178 -55 178 -177v-306zM369 721l-139 -138l-20 17l118 154z" />
    <glyph glyph-name="nacute.alt" 
d="M367 721l-139 -138l-20 17l118 154zM463 0h-44v293c0 99 -57 149 -149 149c-66 0 -122 -23 -149 -43v-399h-44v418c44 36 110 65 192 65c114 0 194 -60 194 -180v-303z" />
    <glyph glyph-name="nacute.sc" horiz-adv-x="662" 
d="M570 -19l-434 446l2 -427h-46v539l434 -445l-2 430h46v-543zM432 741l-139 -138l-20 17l118 154z" />
    <glyph glyph-name="Ncommaaccent" unicode="&#x145;" horiz-adv-x="847" 
d="M742 -25l-588 672v-647h-48v775l588 -669v651h48v-782zM408 -233h-51l77 178h56z" />
    <glyph glyph-name="ncommaaccent" unicode="&#x146;" horiz-adv-x="538" 
d="M463 0h-44v288c0 109 -42 151 -141 151c-76 0 -132 -42 -155 -66v-373h-44v471h44v-51c27 24 80 63 162 63c113 0 178 -55 178 -177v-306zM254 -233h-51l77 178h56z" />
    <glyph glyph-name="ncommaaccent.alt" horiz-adv-x="536" 
d="M251 -233h-51l77 178h56zM462 0h-44v293c0 99 -57 149 -149 149c-66 0 -122 -23 -149 -43v-399h-44v418c44 36 110 65 192 65c114 0 194 -60 194 -180v-303z" />
    <glyph glyph-name="ncommaaccent.sc" horiz-adv-x="662" 
d="M570 -19l-434 446l2 -427h-46v539l434 -445l-2 430h46v-543zM304 -233h-50l77 178h56z" />
    <glyph glyph-name="Ncaron" unicode="&#x147;" horiz-adv-x="847" 
d="M608 906l-168 -97l-168 98l15 23l157 -70l145 68zM742 -25l-588 672v-647h-48v775l588 -669v651h48v-782z" />
    <glyph glyph-name="Gcircumflex" unicode="&#x11c;" horiz-adv-x="831" 
d="M741 299h-214v43h263c-2 -240 -171 -355 -348 -355c-212 0 -387 177 -387 389c0 219 166 394 396 394c172 0 273 -103 277 -108l-30 -35c-5 6 -100 98 -245 98c-214 0 -348 -152 -348 -350c0 -171 137 -344 338 -344c149 0 283 91 298 268zM584 843l-149 69l-153 -69
l-15 23l168 98h1l167 -99z" />
    <glyph glyph-name="Eogonek" unicode="&#x118;" horiz-adv-x="546" 
d="M432 -172v-39c-18 -10 -42 -15 -66 -15c-56 0 -114 28 -114 89c0 50 32 99 108 138h-254v755h373v-43h-325v-284h261v-44h-261v-341h358v-43h-123c-49 -23 -96 -69 -96 -123c0 -42 35 -64 78 -64c23 0 41 6 61 14z" />
    <glyph glyph-name="Emacron" unicode="&#x112;" horiz-adv-x="547" 
d="M512 1h-406v755h373v-43h-325v-284h261v-44h-261v-341h358v-43zM464 882h-349v41h349v-41z" />
    <glyph glyph-name="Edotaccent" unicode="&#x116;" horiz-adv-x="547" 
d="M512 1h-406v755h373v-43h-325v-284h261v-44h-261v-341h358v-43zM337 916c0 -20 -17 -37 -39 -37c-20 0 -37 17 -37 37c0 22 17 39 37 39c22 0 39 -17 39 -39z" />
    <glyph glyph-name="Ecaron" unicode="&#x11a;" horiz-adv-x="547" 
d="M512 1h-406v755h373v-43h-325v-284h261v-44h-261v-341h358v-43zM442 995l-147 -133h-1l-148 133l26 22l122 -102l122 102z" />
    <glyph glyph-name="Dcroat" unicode="&#x110;" horiz-adv-x="727" 
d="M271 0h-165v358h-70v39h70v360h155c223 0 408 -131 408 -379c0 -233 -165 -378 -398 -378zM154 44h92c219 0 373 110 373 337c0 228 -171 332 -371 332h-94v-316h209v-39h-209v-314z" />
    <glyph glyph-name="Dcaron" unicode="&#x10e;" horiz-adv-x="727" 
d="M271 0h-165v757h155c223 0 408 -131 408 -379c0 -233 -165 -378 -398 -378zM154 44h92c219 0 373 110 373 337c0 228 -171 332 -371 332h-94v-669zM487 941l-168 -100l-168 98l15 23l157 -70l145 71z" />
    <glyph glyph-name="Ccaron" unicode="&#x10c;" horiz-adv-x="746" 
d="M675 113l23 -33c-69 -60 -154 -93 -248 -93c-227 0 -395 176 -395 391c0 216 168 392 395 392c94 0 179 -33 248 -94l-29 -36c-42 44 -112 85 -228 85c-188 0 -336 -143 -336 -352c0 -194 157 -342 346 -342c90 0 170 31 224 82zM582 942l-168 -100l-168 98l15 23
l157 -70l145 71z" />
    <glyph glyph-name="Acircumflex.semp" horiz-adv-x="666" 
d="M481 818l-149 62l-153 -69l-15 23l168 98h1l167 -92zM668 0h-51l-74 170h-423l-71 -170h-51l332 778zM525 214l-195 461l-192 -461h387z" />
    <glyph glyph-name="gbreve" unicode="&#x11f;" horiz-adv-x="574" 
d="M453 -27v101c-41 -52 -110 -86 -176 -86c-112 0 -229 88 -229 245c0 164 125 250 256 250c96 0 166 -39 193 -65v-446c0 -179 -112 -232 -217 -232c-58 0 -120 14 -182 54l23 36c51 -34 113 -48 163 -48c69 0 169 24 169 191zM453 129v270c-16 11 -69 43 -151 43
c-106 0 -208 -69 -208 -209c0 -92 58 -203 196 -203c56 0 131 43 163 99zM405 729h43c-4 -67 -53 -152 -165 -152c-78 0 -147 52 -154 152h45c0 -18 10 -113 108 -113c116 0 123 104 123 113z" />
    <glyph glyph-name="gcircumflex" unicode="&#x11d;" horiz-adv-x="574" 
d="M453 -27v101c-41 -52 -110 -86 -176 -86c-112 0 -229 88 -229 245c0 164 125 250 256 250c96 0 166 -39 193 -65v-446c0 -179 -112 -232 -217 -232c-58 0 -120 14 -182 54l23 36c51 -34 113 -48 163 -48c69 0 169 24 169 191zM453 129v270c-16 11 -69 43 -151 43
c-106 0 -208 -69 -208 -209c0 -92 58 -203 196 -203c56 0 131 43 163 99zM436 608l-26 -22l-122 102l-122 -102l-26 22l148 133h1z" />
    <glyph glyph-name="eogonek" unicode="&#x119;" horiz-adv-x="538" 
d="M450 -158v-39c-18 -10 -42 -15 -66 -15c-56 0 -114 28 -114 89c0 41 22 81 72 116c-18 -3 -37 -5 -56 -5c-136 0 -238 99 -238 244c0 149 91 251 237 251c143 0 207 -115 207 -230v-9h-398c0 -13 1 -26 1 -31c9 -122 98 -184 200 -184c85 0 137 41 160 71l25 -26
c-20 -27 -47 -48 -81 -64c-46 -21 -88 -67 -88 -118c0 -42 35 -64 78 -64c23 0 41 6 61 14zM97 284h348c-10 85 -63 158 -164 158c-97 0 -160 -60 -179 -132c-2 -8 -4 -16 -5 -26z" />
    <glyph glyph-name="emacron" unicode="&#x113;" 
d="M455 100l25 -26c-37 -51 -106 -86 -194 -86c-136 0 -238 99 -238 244c0 149 91 251 237 251c143 0 207 -115 207 -230v-9h-398c0 -13 1 -26 1 -31c9 -122 98 -184 200 -184c85 0 137 41 160 71zM97 284h348c-10 85 -63 158 -164 158c-97 0 -160 -60 -179 -132
c-2 -8 -4 -16 -5 -26zM447 596h-349v41h349v-41z" />
    <glyph glyph-name="edotaccent" unicode="&#x117;" 
d="M455 100l25 -26c-37 -51 -106 -86 -194 -86c-136 0 -238 99 -238 244c0 149 91 251 237 251c143 0 207 -115 207 -230v-9h-398c0 -13 1 -26 1 -31c9 -122 98 -184 200 -184c85 0 137 41 160 71zM97 284h348c-10 85 -63 158 -164 158c-97 0 -160 -60 -179 -132
c-2 -8 -4 -16 -5 -26zM310 630c0 -20 -17 -37 -39 -37c-20 0 -37 17 -37 37c0 22 17 39 37 39c22 0 39 -17 39 -39z" />
    <glyph glyph-name="ecaron" unicode="&#x11b;" 
d="M455 100l25 -26c-37 -51 -106 -86 -194 -86c-136 0 -238 99 -238 244c0 149 91 251 237 251c143 0 207 -115 207 -230v-9h-398c0 -13 1 -26 1 -31c9 -122 98 -184 200 -184c85 0 137 41 160 71zM97 284h348c-10 85 -63 158 -164 158c-97 0 -160 -60 -179 -132
c-2 -8 -4 -16 -5 -26zM420 709l-147 -133h-1l-148 133l26 22l122 -102l122 102z" />
    <glyph glyph-name="dcaron" unicode="&#x10f;" horiz-adv-x="593" 
d="M609 575h-42l63 182h51zM453 76v287c-26 46 -94 79 -165 79c-116 0 -194 -78 -194 -214c0 -134 98 -199 210 -199c44 0 100 12 149 47zM453 423v397h44v-767c-55 -44 -124 -65 -193 -65c-131 0 -256 75 -256 240c0 156 99 255 240 255c62 0 126 -22 165 -60z" />
    <glyph glyph-name="dcroat" unicode="&#x111;" horiz-adv-x="573" 
d="M453 423v227h-177l5 41h172v129h44v-129h79l-5 -41h-74v-597c-55 -44 -124 -65 -193 -65c-131 0 -256 75 -256 240c0 156 99 255 240 255c62 0 126 -22 165 -60zM453 76v287c-26 46 -94 79 -165 79c-116 0 -194 -78 -194 -214c0 -134 98 -199 210 -199
c44 0 100 12 149 47z" />
    <glyph glyph-name="ccaron" unicode="&#x10d;" horiz-adv-x="511" 
d="M457 97l23 -27c-44 -58 -116 -82 -189 -82c-138 0 -244 103 -244 246c0 144 102 249 247 249c92 0 151 -50 163 -65l-26 -30c-11 12 -61 54 -141 54c-93 0 -197 -65 -197 -208c0 -131 94 -205 202 -205c80 0 126 30 162 68zM420 709l-147 -133h-1l-148 133l26 22
l122 -102l122 102z" />
    <glyph glyph-name="Gbreve" unicode="&#x11e;" horiz-adv-x="831" 
d="M741 299h-214v43h263c-2 -240 -171 -355 -348 -355c-212 0 -387 177 -387 389c0 219 166 394 396 394c172 0 273 -103 277 -108l-30 -35c-5 6 -100 98 -245 98c-214 0 -348 -152 -348 -350c0 -171 137 -344 338 -344c149 0 283 91 298 268zM542 985h43
c-4 -67 -53 -152 -165 -152c-78 0 -147 52 -154 152h45c0 -18 10 -113 108 -113c116 0 123 104 123 113z" />
    <glyph glyph-name="Gdotaccent" unicode="&#x120;" horiz-adv-x="831" 
d="M741 299h-214v43h263c-2 -240 -171 -355 -348 -355c-212 0 -387 177 -387 389c0 219 166 394 396 394c172 0 273 -103 277 -108l-30 -35c-5 6 -100 98 -245 98c-214 0 -348 -152 -348 -350c0 -171 137 -344 338 -344c149 0 283 91 298 268zM472 879
c0 -20 -17 -37 -39 -37c-20 0 -37 17 -37 37c0 22 17 39 37 39c22 0 39 -17 39 -39z" />
    <glyph glyph-name="Ohungarumlaut" unicode="&#x150;" horiz-adv-x="903" 
d="M848 375c0 -216 -179 -388 -395 -388c-223 0 -398 174 -398 391c0 218 175 392 398 392c221 0 395 -166 395 -395zM798 376c0 204 -156 349 -345 349c-194 0 -348 -145 -348 -343c0 -187 151 -351 341 -351c200 0 352 149 352 345zM517 947l-169 -108l-20 17l148 124z
M654 947l-169 -108l-20 17l148 124z" />
    <glyph glyph-name="Racute" unicode="&#x154;" horiz-adv-x="579" 
d="M406 886l-238 -43l-12 31l227 61zM586 0h-71l-318 309h-43v-309h-48v757h145c114 0 254 -51 254 -214c0 -132 -94 -226 -250 -233zM154 353h60c155 0 242 67 242 189c0 114 -89 171 -205 171h-97v-360z" />
    <glyph glyph-name="Rcaron" unicode="&#x158;" horiz-adv-x="579" 
d="M442 940l-168 -97l-168 98l15 23l157 -70l145 68zM586 0h-71l-318 309h-43v-309h-48v757h145c114 0 254 -51 254 -214c0 -132 -94 -226 -250 -233zM154 353h60c155 0 242 67 242 189c0 114 -89 171 -205 171h-97v-360z" />
    <glyph glyph-name="Rcommaaccent" unicode="&#x156;" horiz-adv-x="577" 
d="M586 0h-71l-318 309h-43v-309h-48v757h145c114 0 254 -51 254 -214c0 -132 -94 -226 -250 -233zM154 353h60c155 0 242 67 242 189c0 114 -89 171 -205 171h-97v-360zM290 -233h-51l77 178h56z" />
    <glyph glyph-name="Uhungarumlaut" unicode="&#x170;" horiz-adv-x="740" 
d="M590 95v662h48v-676c-44 -52 -135 -94 -270 -94c-166 0 -269 95 -269 285v485h48v-472c0 -185 82 -254 244 -254c67 0 154 18 199 64zM437 950l-169 -108l-20 17l148 124zM594 950l-169 -108l-20 17l148 124z" />
    <glyph glyph-name="Umacron" unicode="&#x16a;" horiz-adv-x="740" 
d="M548 842h-349v41h349v-41zM590 95v662h48v-676c-44 -52 -135 -94 -270 -94c-166 0 -269 95 -269 285v485h48v-472c0 -185 82 -254 244 -254c67 0 154 18 199 64z" />
    <glyph glyph-name="Uring" unicode="&#x16e;" horiz-adv-x="740" 
d="M590 95v662h48v-676c-44 -52 -135 -94 -270 -94c-166 0 -269 95 -269 285v485h48v-472c0 -185 82 -254 244 -254c67 0 154 18 199 64zM479 888c0 -57 -46 -103 -104 -103s-104 46 -104 103c0 58 47 104 104 104c58 0 104 -48 104 -104zM446 889c0 39 -31 70 -70 70
c-38 0 -69 -31 -69 -70c0 -37 31 -70 69 -70c39 0 70 33 70 70z" />
    <glyph glyph-name="Utilde" unicode="&#x168;" horiz-adv-x="740" 
d="M529 934l18 -30c-14 -17 -63 -61 -105 -61c-39 0 -81 50 -126 50c-30 0 -68 -31 -85 -46l-19 27c18 21 68 62 108 62c46 0 89 -51 125 -51c35 0 72 36 84 49zM590 95v662h48v-676c-44 -52 -135 -94 -270 -94c-166 0 -269 95 -269 285v485h48v-472
c0 -185 82 -254 244 -254c67 0 154 18 199 64z" />
    <glyph glyph-name="Ubreve" unicode="&#x16c;" horiz-adv-x="740" 
d="M496 972h43c-4 -67 -53 -152 -165 -152c-78 0 -147 52 -154 152h45c0 -18 10 -113 108 -113c116 0 123 104 123 113zM590 95v662h48v-676c-44 -52 -135 -94 -270 -94c-166 0 -269 95 -269 285v485h48v-472c0 -185 82 -254 244 -254c67 0 154 18 199 64z" />
    <glyph glyph-name="IJ.semp" horiz-adv-x="668" 
d="M154 0h-48v757h48v-757zM520 208v505h-177v43h225v-557c0 -142 -81 -212 -183 -212c-37 0 -94 18 -133 39l19 40c26 -15 75 -35 115 -35c86 0 134 64 134 177z" />
    <glyph glyph-name="n.alt" 
d="M463 0h-44v293c0 99 -57 149 -149 149c-66 0 -122 -23 -149 -43v-399h-44v418c44 36 110 65 192 65c114 0 194 -60 194 -180v-303z" />
    <glyph glyph-name="acircumflex.alt" horiz-adv-x="564" 
d="M422 608l-26 -22l-122 102l-122 -102l-26 22l148 133h1zM487 -2h-44v91c-31 -52 -90 -101 -171 -101c-107 0 -224 87 -224 246c0 163 124 249 254 249c87 0 158 -39 185 -65v-420zM443 144v255c-16 11 -71 43 -142 43c-105 0 -207 -70 -207 -204c0 -118 79 -208 182 -208
c82 0 138 58 167 114z" />
    <glyph glyph-name="aogonek" unicode="&#x105;" horiz-adv-x="503" 
d="M411 -159v-39c-18 -10 -42 -15 -66 -15c-56 0 -114 28 -114 89c0 43 23 84 76 119c-23 -4 -48 -7 -74 -7c-135 0 -197 81 -197 170c0 105 115 155 196 155c62 0 120 -21 159 -59v70c0 67 -51 118 -143 118c-63 0 -118 -22 -132 -28l-20 35c29 14 80 34 150 34
c151 0 189 -71 189 -172v-254c-21 -20 -44 -34 -73 -47c-47 -21 -90 -67 -90 -119c0 -42 35 -64 78 -64c23 0 41 6 61 14zM391 76v133c-30 28 -80 64 -157 64c-66 0 -152 -35 -152 -115c0 -87 73 -129 153 -129c70 0 122 20 156 47z" />
    <glyph glyph-name="aogonek.alt" horiz-adv-x="564" 
d="M515 -172v-39c-18 -10 -42 -15 -66 -15c-56 0 -114 28 -114 89c0 50 32 99 108 138v88c-31 -52 -90 -101 -171 -101c-107 0 -224 87 -224 246c0 163 124 249 254 249c87 0 158 -39 185 -65v-423c-65 -26 -111 -63 -111 -117c0 -42 35 -64 78 -64c23 0 41 6 61 14z
M443 144v255c-16 11 -71 43 -142 43c-105 0 -207 -70 -207 -204c0 -118 79 -208 182 -208c82 0 138 58 167 114z" />
    <glyph glyph-name="tcommaaccent.semp" horiz-adv-x="279" 
d="M85 -233h-51l77 178h56zM123 0h-44v659h44v-189h146v-41h-146v-429z" />
    <glyph glyph-name="tcommaaccent.alt2" horiz-adv-x="298" 
d="M133 -233h-51l77 178h56zM171 0h-44v429h-114v41h114v171h44v-171h114v-41h-114v-429z" />
    <glyph glyph-name="tcommaaccent.alt" horiz-adv-x="287" 
d="M132 -233h-51l77 178h56zM257 31l-30 -40c-71 0 -121 29 -121 143v295h-87v41h87v171h44v-171h114v-41h-114v-286c0 -97 38 -112 107 -112z" />
    <glyph glyph-name="rcommaaccent" unicode="&#x157;" horiz-adv-x="311" 
d="M123 0h-44v471h44v-65c3 21 46 77 100 77c33 0 70 -17 77 -21l-26 -42c-9 6 -28 18 -52 18c-55 0 -93 -60 -99 -95v-343zM108 -233h-51l77 178h56z" />
    <glyph glyph-name="rcaron" unicode="&#x159;" horiz-adv-x="310" 
d="M123 0h-44v471h44v-65c3 21 46 77 100 77c33 0 70 -17 77 -21l-26 -42c-9 6 -28 18 -52 18c-55 0 -93 -60 -99 -95v-343zM322 709l-147 -133h-1l-148 133l26 22l122 -102l122 102z" />
    <glyph glyph-name="racute" unicode="&#x155;" horiz-adv-x="310" 
d="M123 0h-44v471h44v-65c3 21 46 77 100 77c33 0 70 -17 77 -21l-26 -42c-9 6 -28 18 -52 18c-55 0 -93 -60 -99 -95v-343zM276 721l-139 -138l-20 17l118 154z" />
    <glyph glyph-name="ohungarumlaut" unicode="&#x151;" horiz-adv-x="593" 
d="M546 235c0 -138 -109 -247 -249 -247s-250 107 -250 247c0 141 110 248 250 248s249 -110 249 -248zM500 235c0 119 -95 206 -205 206c-121 0 -203 -88 -203 -209c0 -117 97 -202 203 -202c121 0 205 83 205 205zM363 691l-169 -108l-20 17l148 124zM500 691l-169 -108
l-20 17l148 124z" />
    <glyph glyph-name="oacute.sc" horiz-adv-x="680" 
d="M624 260c0 -150 -122 -270 -283 -270c-166 0 -285 122 -285 272s119 272 285 272c165 0 283 -116 283 -274zM576 260c0 135 -100 232 -235 232c-139 0 -237 -97 -237 -228c0 -123 96 -232 232 -232c143 0 240 99 240 228zM444 741l-139 -138l-20 17l118 154z" />
    <glyph glyph-name="ocircumflex.sc" horiz-adv-x="680" 
d="M624 260c0 -150 -122 -270 -283 -270c-166 0 -285 122 -285 272s119 272 285 272c165 0 283 -116 283 -274zM576 260c0 135 -100 232 -235 232c-139 0 -237 -97 -237 -228c0 -123 96 -232 232 -232c143 0 240 99 240 228zM488 628l-26 -22l-122 102l-122 -102l-26 22
l149 133z" />
    <glyph glyph-name="ohungarumlaut.sc" horiz-adv-x="681" 
d="M624 260c0 -150 -122 -270 -283 -270c-167 0 -285 122 -285 272c0 151 118 271 285 271c165 0 283 -115 283 -273zM576 260c0 135 -100 232 -235 232c-139 0 -237 -97 -237 -228c0 -123 96 -232 232 -232c143 0 240 99 240 228zM373 712l-170 -108l-20 16l148 125z
M529 712l-169 -108l-19 16l147 125z" />
    <glyph glyph-name="otilde.sc" horiz-adv-x="680" 
d="M624 260c0 -150 -122 -270 -283 -270c-166 0 -285 122 -285 272s119 272 285 272c165 0 283 -116 283 -274zM576 260c0 135 -100 232 -235 232c-139 0 -237 -97 -237 -228c0 -123 96 -232 232 -232c143 0 240 99 240 228zM479 685l17 -27c-13 -16 -53 -53 -96 -53
c-37 0 -76 47 -118 47c-28 0 -63 -29 -79 -43l-18 24c17 20 63 58 101 58c42 0 83 -48 117 -48c37 0 65 30 76 42z" />
    <glyph glyph-name="obreve.sc" horiz-adv-x="681" 
d="M624 260c0 -150 -122 -270 -283 -270c-167 0 -285 122 -285 272c0 151 118 271 285 271c165 0 283 -115 283 -273zM576 260c0 135 -100 232 -235 232c-139 0 -237 -97 -237 -228c0 -123 96 -232 232 -232c143 0 240 99 240 228zM456 749h43c-4 -67 -53 -152 -165 -152
c-78 0 -147 52 -154 152h45c0 -19 10 -113 108 -113c115 0 123 104 123 113z" />
    <glyph glyph-name="racute.sc" horiz-adv-x="481" 
d="M335 741l-139 -138l-19 17l117 154zM472 0h-72l-231 210h-30v-210h-46v524h114c88 0 193 -37 193 -151c0 -89 -69 -154 -182 -162zM139 249h40c113 0 174 45 174 124c0 75 -62 112 -142 112h-72v-236z" />
    <glyph glyph-name="rcaron.sc" horiz-adv-x="481" 
d="M376 739l-149 -133l-147 133l26 22l122 -102l122 102zM472 0h-72l-231 210h-30v-210h-46v524h114c88 0 193 -37 193 -151c0 -89 -69 -154 -182 -162zM139 249h40c113 0 174 45 174 124c0 75 -62 112 -142 112h-72v-236z" />
    <glyph glyph-name="rcommaaccent.sc" horiz-adv-x="479" 
d="M223 -233h-51l77 178h56zM472 0h-72l-231 210h-30v-210h-46v524h114c88 0 193 -37 193 -151c0 -89 -69 -154 -182 -162zM139 249h40c113 0 174 45 174 124c0 75 -62 112 -142 112h-72v-236z" />
    <glyph glyph-name="tcommaaccent.sc" horiz-adv-x="446" 
d="M246 0h-45v484l-172 -1v39h388v-39l-171 1v-484zM185 -233h-50l77 178h56z" />
    <glyph glyph-name="umacron.sc" horiz-adv-x="587" 
d="M451 71v453h46v-466c-34 -38 -102 -68 -205 -68c-127 0 -204 67 -204 199v335h46v-316c0 -128 55 -176 175 -176c48 0 109 11 142 39zM434 616h-283v41h283v-41z" />
    <glyph glyph-name="uring.sc" horiz-adv-x="587" 
d="M451 71v453h46v-466c-34 -38 -102 -68 -205 -68c-127 0 -204 67 -204 199v335h46v-316c0 -128 55 -176 175 -176c48 0 109 11 142 39zM293 596c-58 0 -104 46 -104 104s47 103 104 103s104 -47 104 -103c0 -58 -47 -104 -104 -104zM364 701c0 38 -31 69 -71 69
c-37 0 -68 -31 -68 -69s31 -71 68 -71c40 0 71 33 71 71z" />
    <glyph glyph-name="utilde.sc" horiz-adv-x="587" 
d="M451 71v453h46v-466c-34 -38 -102 -68 -205 -68c-127 0 -204 67 -204 199v335h46v-316c0 -128 55 -176 175 -176c48 0 109 11 142 39zM432 685l16 -27c-13 -16 -52 -53 -95 -53c-38 0 -76 47 -118 47c-29 0 -64 -29 -79 -43l-18 23c17 21 63 59 100 59
c43 0 84 -48 118 -48c36 0 65 30 76 42z" />
    <glyph glyph-name="ubreve.sc" horiz-adv-x="587" 
d="M451 71v453h46v-466c-34 -38 -102 -68 -205 -68c-127 0 -204 67 -204 199v335h46v-316c0 -128 55 -176 175 -176c48 0 109 11 142 39zM410 749h43c-5 -67 -53 -152 -165 -152c-78 0 -148 52 -154 152h45c0 -19 10 -113 108 -113c115 0 123 104 123 113z" />
    <glyph glyph-name="emacron.sc" horiz-adv-x="446" 
d="M403 1h-310v521h286v-39l-240 1v-184l193 1v-40l-193 1v-222l264 1v-40zM374 616h-283v41h283v-41z" />
    <glyph glyph-name="eogonek.sc" horiz-adv-x="446" 
d="M392 -172v-39c-18 -10 -43 -15 -66 -15c-56 0 -114 28 -114 88c0 51 33 99 108 139h-227v521h286v-39l-240 1v-184l193 1v-40l-193 1v-222l264 1v-40h-55c-47 -23 -95 -68 -95 -123c0 -42 35 -64 78 -64c23 0 40 6 61 14z" />
    <glyph glyph-name="gcircumflex.sc" horiz-adv-x="649" 
d="M557 206l-156 -1v40h204c-3 -174 -128 -255 -260 -255c-161 0 -290 122 -290 270c0 153 129 273 294 273c130 0 205 -70 208 -73l-26 -33c-4 4 -73 65 -180 65c-146 0 -248 -101 -248 -234c0 -110 91 -227 242 -227c108 0 201 63 212 175zM477 628l-26 -22l-122 102
l-122 -102l-26 22l149 133z" />
    <glyph glyph-name="gbreve.sc" horiz-adv-x="649" 
d="M557 206l-156 -1v40h204c-3 -174 -128 -255 -260 -255c-161 0 -290 122 -290 270c0 153 129 273 294 273c130 0 205 -70 208 -73l-26 -33c-4 4 -73 65 -180 65c-146 0 -248 -101 -248 -234c0 -110 91 -227 242 -227c108 0 201 63 212 175zM446 749h43
c-4 -67 -53 -152 -165 -152c-78 0 -147 52 -154 152h45c0 -19 10 -113 108 -113c116 0 123 104 123 113z" />
    <glyph glyph-name="oe.sc" horiz-adv-x="927" 
d="M884 1h-308v126c-50 -91 -135 -137 -235 -137c-166 0 -285 122 -285 272s119 272 285 272c101 0 186 -44 235 -135v124h283v-40l-237 1v-184l190 1v-40l-190 1v-222l262 1v-40zM576 260c0 135 -100 232 -235 232c-139 0 -237 -97 -237 -228c0 -123 96 -232 232 -232
c143 0 240 99 240 228z" />
    <glyph glyph-name="ff.sc" horiz-adv-x="818" 
d="M139 0h-46v523h280v-40l-234 1v-184l189 1v-41l-189 1v-261zM548 0h-46v523h280v-40l-234 1v-184l189 1v-41l-189 1v-261z" />
    <glyph glyph-name="fi.sc" horiz-adv-x="641" 
d="M139 0h-46v523h280v-40l-234 1v-184l189 1v-41l-189 1v-261zM548 0h-46v524h46v-524z" />
    <glyph glyph-name="f_j.sc" horiz-adv-x="641" 
d="M139 0h-46v523h280v-40l-234 1v-184l189 1v-41l-189 1v-261zM407 -182l-17 40c90 34 112 64 112 194v472h46v-476c0 -148 -33 -187 -141 -230z" />
    <glyph glyph-name="fl.sc" horiz-adv-x="819" 
d="M139 0h-46v522h281v-39l-235 1v-184l189 1v-41l-189 1v-261zM789 1h-287v523h46v-484l241 1v-40z" />
    <glyph glyph-name="f_t.sc" horiz-adv-x="853" 
d="M139 0h-46v523h280v-40l-234 1v-184l189 1v-41l-189 1v-261zM654 0h-46v484l-171 -1v40h388v-40l-171 1v-484z" />
    <glyph glyph-name="ffi.sc" horiz-adv-x="1050" 
d="M139 0h-46v523h280v-40l-234 1v-184l189 1v-41l-189 1v-261zM548 0h-46v523h280v-40l-234 1v-184l189 1v-41l-189 1v-261zM957 0h-46v524h46v-524z" />
    <glyph glyph-name="ffl.sc" horiz-adv-x="1228" 
d="M139 0h-46v523h280v-40l-234 1v-184l189 1v-41l-189 1v-261zM548 0h-46v523h280v-40l-234 1v-184l189 1v-41l-189 1v-261zM1198 1h-287v523h46v-484l241 1v-40z" />
    <glyph glyph-name="zero_slash" horiz-adv-x="648" 
d="M324 -12c-212 0 -249 224 -249 386c0 158 36 388 248 388c213 0 251 -220 251 -388c0 -165 -39 -386 -250 -386zM459 652l-237 -587c27 -21 60 -33 102 -33c184 0 202 226 202 342c0 81 -10 203 -67 278zM189 100l236 585c-26 20 -60 32 -102 32
c-178 0 -200 -211 -200 -343c0 -75 10 -198 66 -274z" />
    <glyph glyph-name="edotaccent.sc" horiz-adv-x="446" 
d="M403 1h-310v521h286v-39l-240 1v-184l193 1v-40l-193 1v-222l264 1v-40zM280 640c0 -20 -18 -37 -40 -37c-19 0 -36 17 -36 37c0 22 17 39 36 39c22 0 40 -17 40 -39z" />
    <glyph glyph-name="ecaron.sc" horiz-adv-x="446" 
d="M403 1h-310v521h286v-39l-240 1v-184l193 1v-40l-193 1v-222l264 1v-40zM385 739l-149 -133l-147 133l26 22l122 -102l122 102z" />
    <glyph glyph-name="umacron" unicode="&#x16b;" horiz-adv-x="538" 
d="M417 73v398h44v-417c-45 -43 -106 -66 -192 -66c-114 0 -194 60 -194 180v303h44v-293c0 -99 57 -149 149 -149c75 0 121 24 149 44zM473 596h-349v41h349v-41z" />
    <glyph glyph-name="uring" unicode="&#x16f;" horiz-adv-x="538" 
d="M403 656c0 -57 -46 -103 -104 -103s-104 46 -104 103c0 58 47 104 104 104c58 0 104 -48 104 -104zM370 657c0 39 -31 70 -70 70c-38 0 -69 -31 -69 -70c0 -37 31 -70 69 -70c39 0 70 33 70 70zM417 73v398h44v-417c-45 -43 -106 -66 -192 -66c-114 0 -194 60 -194 180
v303h44v-293c0 -99 57 -149 149 -149c75 0 121 24 149 44z" />
    <glyph glyph-name="utilde" unicode="&#x169;" horiz-adv-x="538" 
d="M417 73v398h44v-417c-45 -43 -106 -66 -192 -66c-114 0 -194 60 -194 180v303h44v-293c0 -99 57 -149 149 -149c75 0 121 24 149 44zM429 665l17 -27c-13 -16 -53 -53 -96 -53c-37 0 -76 47 -118 47c-28 0 -63 -29 -79 -43l-18 24c17 20 63 58 101 58
c42 0 83 -48 117 -48c37 0 65 30 76 42z" />
    <glyph glyph-name="ubreve" unicode="&#x16d;" horiz-adv-x="538" 
d="M417 73v398h44v-417c-45 -43 -106 -66 -192 -66c-114 0 -194 60 -194 180v303h44v-293c0 -99 57 -149 149 -149c75 0 121 24 149 44zM410 729h43c-4 -67 -53 -152 -165 -152c-78 0 -147 52 -154 152h45c0 -18 10 -113 108 -113c116 0 123 104 123 113z" />
    <glyph glyph-name="ff.semp2" horiz-adv-x="568" 
d="M407 429v-429h-44v625c0 68 14 117 40 149c27 32 68 47 109 47c37 0 65 -12 73 -18l-21 -42c-7 5 -29 16 -58 16c-67 0 -99 -56 -99 -142v-165h146v-41h-146zM123 429v-429h-44v578c0 68 14 117 40 149c27 32 68 47 109 47c37 0 65 -12 73 -18l-21 -42
c-7 5 -29 16 -58 16c-67 0 -99 -56 -99 -142v-118h136v-41h-136z" />
    <glyph glyph-name="ff.alt" horiz-adv-x="570" 
d="M149 -231h-44v660h-80v41h80v108c0 68 14 117 40 149c27 32 68 47 109 47c37 0 65 -12 73 -18l-21 -42c-7 5 -29 16 -58 16c-67 0 -99 -56 -99 -142v-118h112v-41h-112v-660zM434 -122h-44v551h-75v41h75v155c0 68 14 117 40 149c27 32 68 47 109 47c37 0 65 -12 73 -18
l-21 -42c-7 5 -29 16 -58 16c-67 0 -99 -56 -99 -142v-165h117v-41h-117v-551z" />
    <glyph glyph-name="ff.semp" horiz-adv-x="568" 
d="M123 -231h-44v809c0 68 14 117 40 149c27 32 68 47 109 47c37 0 65 -12 73 -18l-21 -42c-7 5 -29 16 -58 16c-67 0 -99 -56 -99 -142v-118h136v-41h-136v-660zM407 -122h-44v747c0 68 14 117 40 149c27 32 68 47 109 47c37 0 65 -12 73 -18l-21 -42c-7 5 -29 16 -58 16
c-67 0 -99 -56 -99 -142v-165h146v-41h-146v-551z" />
    <glyph glyph-name="fi.semp2" horiz-adv-x="495" 
d="M123 429v-429h-44v619c0 68 14 117 40 149c27 32 68 47 109 47c37 0 65 -12 73 -18l-21 -42c-7 5 -29 16 -58 16c-67 0 -99 -56 -99 -142v-159h142v-41h-142zM411 0h-44v471h44v-471zM430 611c0 -22 -17 -40 -40 -40c-22 0 -40 17 -40 40s18 40 40 40c23 0 40 -18 40 -40
z" />
    <glyph glyph-name="fi.alt" horiz-adv-x="496" 
d="M412 0h-44v471h44v-471zM431 611c0 -22 -17 -40 -40 -40c-22 0 -40 17 -40 40s18 40 40 40c23 0 40 -18 40 -40zM149 -245h-44v674h-80v41h80v149c0 68 14 117 40 149c27 32 68 47 109 47c37 0 65 -12 73 -18l-21 -42c-7 5 -29 16 -58 16c-67 0 -99 -56 -99 -142v-159
h117v-41h-117v-674z" />
    <glyph glyph-name="fi.semp" horiz-adv-x="495" 
d="M411 0h-44v471h44v-471zM430 611c0 -22 -17 -40 -40 -40c-22 0 -40 17 -40 40s18 40 40 40c23 0 40 -18 40 -40zM123 -245h-44v864c0 68 14 117 40 149c27 32 68 47 109 47c37 0 65 -12 73 -18l-21 -42c-7 5 -29 16 -58 16c-67 0 -99 -56 -99 -142v-159h142v-41h-142
v-674z" />
    <glyph glyph-name="f_j.semp" horiz-adv-x="494" 
d="M123 -245h-44v864c0 68 14 117 40 149c27 32 68 47 109 47c37 0 65 -12 73 -18l-21 -42c-7 5 -29 16 -58 16c-67 0 -99 -56 -99 -142v-159h142v-41h-142v-674zM411 -255l-44 -10v736h44v-726zM430 611c0 -22 -17 -40 -40 -40c-22 0 -40 17 -40 40s18 40 40 40
c23 0 40 -18 40 -40z" />
    <glyph glyph-name="fl.semp2" horiz-adv-x="502" 
d="M123 429v-429h-44v605c0 68 14 117 40 149c27 32 68 47 109 47c37 0 65 -12 73 -18l-21 -42c-7 5 -29 16 -58 16c-67 0 -99 -56 -99 -142v-145h142v-41h-142zM415 0h-44v820h44v-820z" />
    <glyph glyph-name="fl.alt" horiz-adv-x="503" 
d="M416 0h-44v820h44v-820zM149 -245h-44v674h-80v41h80v134c0 68 14 117 40 149c27 32 68 47 109 47c37 0 65 -12 73 -18l-21 -42c-7 5 -29 16 -58 16c-67 0 -99 -56 -99 -142v-144h117v-41h-117v-674z" />
    <glyph glyph-name="fl.semp" horiz-adv-x="502" 
d="M123 -245h-44v850c0 68 14 117 40 149c27 32 68 47 109 47c37 0 65 -12 73 -18l-21 -42c-7 5 -29 16 -58 16c-67 0 -99 -56 -99 -142v-145h142v-41h-142v-674zM415 0h-44v820h44v-820z" />
    <glyph glyph-name="f_t.semp" horiz-adv-x="564" 
d="M123 -245h-44v864c0 68 14 117 40 149c27 32 68 47 109 47c37 0 65 -12 73 -18l-21 -42c-7 5 -29 16 -58 16c-67 0 -99 -56 -99 -142v-159h142v-41h-142v-674zM407 0h-44v659h44v-189h146v-41h-146v-429z" />
    <glyph glyph-name="ffi.semp2" horiz-adv-x="779" 
d="M407 429v-429h-44v625c0 68 14 117 40 149c27 32 68 47 109 47c37 0 65 -12 73 -18l-21 -42c-7 5 -29 16 -58 16c-67 0 -99 -56 -99 -142v-165h142v-41h-142zM123 429v-429h-44v578c0 68 14 117 40 149c27 32 68 47 109 47c37 0 65 -12 73 -18l-21 -42
c-7 5 -29 16 -58 16c-67 0 -99 -56 -99 -142v-118h128v-41h-128zM695 0h-44v471h44v-471zM714 611c0 -22 -17 -40 -40 -40c-22 0 -40 17 -40 40s18 40 40 40c23 0 40 -18 40 -40z" />
    <glyph glyph-name="ffi.alt" horiz-adv-x="781" 
d="M697 0h-44v471h44v-471zM716 611c0 -22 -17 -40 -40 -40c-22 0 -40 17 -40 40s18 40 40 40c23 0 40 -18 40 -40zM149 -229h-44v658h-80v41h80v108c0 68 14 117 40 149c27 32 68 47 109 47c37 0 65 -12 73 -18l-21 -42c-7 5 -29 16 -58 16c-67 0 -99 -56 -99 -142v-118
h112v-41h-112v-658zM434 -122h-44v551h-75v41h75v155c0 68 14 117 40 149c27 32 68 47 109 47c37 0 65 -12 73 -18l-21 -42c-7 5 -29 16 -58 16c-67 0 -99 -56 -99 -142v-165h117v-41h-117v-551z" />
    <glyph glyph-name="ffi.semp" horiz-adv-x="779" 
d="M695 0h-44v471h44v-471zM714 611c0 -22 -17 -40 -40 -40c-22 0 -40 17 -40 40s18 40 40 40c23 0 40 -18 40 -40zM123 -230h-44v808c0 68 14 117 40 149c27 32 68 47 109 47c37 0 65 -12 73 -18l-21 -42c-7 5 -29 16 -58 16c-67 0 -99 -56 -99 -142v-118h128v-41h-128
v-659zM407 -122h-44v747c0 68 14 117 40 149c27 32 68 47 109 47c37 0 65 -12 73 -18l-21 -42c-7 5 -29 16 -58 16c-67 0 -99 -56 -99 -142v-165h142v-41h-142v-551z" />
    <glyph glyph-name="ffl.semp2" horiz-adv-x="786" 
d="M407 429v-429h-44v610c0 68 14 117 40 149c27 32 68 47 109 47c37 0 65 -12 73 -18l-21 -42c-7 5 -29 16 -58 16c-67 0 -99 -56 -99 -142v-150h143v-41h-143zM123 429v-429h-44v573c0 68 14 117 40 149c27 32 68 47 109 47c37 0 65 -12 73 -18l-21 -42
c-7 5 -29 16 -58 16c-67 0 -99 -56 -99 -142v-113h128v-41h-128zM699 0h-44v820h44v-820z" />
    <glyph glyph-name="ffl.alt" horiz-adv-x="788" 
d="M701 0h-44v820h44v-820zM149 -229h-44v658h-80v41h80v103c0 68 14 117 40 149c27 32 68 47 109 47c37 0 65 -12 73 -18l-21 -42c-7 5 -29 16 -58 16c-67 0 -99 -56 -99 -142v-113h112v-41h-112v-658zM434 -121h-44v550h-75v41h75v140c0 68 14 117 40 149
c27 32 68 47 109 47c37 0 65 -12 73 -18l-21 -42c-7 5 -29 16 -58 16c-67 0 -99 -56 -99 -142v-150h112v-41h-112v-550z" />
    <glyph glyph-name="ffl.semp" horiz-adv-x="786" 
d="M699 0h-44v820h44v-820zM123 -231h-44v804c0 68 14 117 40 149c27 32 68 47 109 47c37 0 65 -12 73 -18l-21 -42c-7 5 -29 16 -58 16c-67 0 -99 -56 -99 -142v-113h128v-41h-128v-660zM407 -122h-44v732c0 68 14 117 40 149c27 32 68 47 109 47c37 0 65 -12 73 -18
l-21 -42c-7 5 -29 16 -58 16c-67 0 -99 -56 -99 -142v-150h143v-41h-143v-551z" />
    <glyph glyph-name="c.sc" horiz-adv-x="588" 
d="M518 86l20 -33c-51 -42 -114 -63 -186 -63c-170 0 -296 123 -296 272s125 272 295 272c78 0 142 -30 188 -67l-27 -33c-32 31 -84 58 -168 58c-135 0 -239 -96 -239 -234c0 -128 112 -226 248 -226c70 0 128 23 165 54z" />
    <glyph glyph-name="d.sc" horiz-adv-x="578" 
d="M220 0h-127v524h120c170 0 307 -91 307 -262c0 -163 -123 -262 -300 -262zM139 40h60c164 0 273 72 273 224c0 147 -122 221 -265 221h-68v-445z" />
    <glyph glyph-name="g.sc" horiz-adv-x="649" 
d="M557 206l-156 -1v40h204c-2 -173 -128 -255 -260 -255c-160 0 -290 122 -290 270c0 152 130 274 295 274c129 0 204 -71 207 -74l-26 -33c-4 4 -73 65 -180 65c-146 0 -248 -101 -248 -233c0 -110 91 -228 242 -228c108 0 201 62 212 175z" />
    <glyph glyph-name="h.sc" horiz-adv-x="595" 
d="M502 0h-46v246h-317v-246h-46v524h46v-236h317v236h46v-524z" />
    <glyph glyph-name="m.sc" horiz-adv-x="749" 
d="M683 0h-47l-39 376v21l-8 -18l-215 -399l-215 399l-8 18v-21l-38 -376h-47l59 538l250 -460l248 460z" />
    <glyph glyph-name="n.sc" horiz-adv-x="662" 
d="M570 -19l-434 446l2 -427h-46v539l434 -446l-2 431h46v-543z" />
    <glyph glyph-name="o.sc" horiz-adv-x="680" 
d="M624 260c0 -150 -122 -270 -283 -270c-166 0 -285 122 -285 272s119 272 285 272c165 0 283 -116 283 -274zM576 260c0 135 -100 232 -235 232c-139 0 -237 -97 -237 -228c0 -123 96 -232 232 -232c143 0 240 99 240 228z" />
    <glyph glyph-name="p.sc" horiz-adv-x="443" 
d="M139 0h-46v524h110c94 0 197 -38 197 -151c0 -93 -75 -163 -209 -163h-52v-210zM139 248l50 1c101 2 164 45 164 124c0 73 -59 111 -139 112h-75v-237z" />
    <glyph glyph-name="q.sc" horiz-adv-x="680" 
d="M592 -73l-111 102c-44 -24 -85 -39 -140 -39c-166 0 -285 122 -285 272s119 272 285 272c165 0 283 -116 283 -274c0 -84 -44 -159 -109 -208l116 -85zM576 260c0 135 -100 232 -235 232c-139 0 -237 -97 -237 -228c0 -123 96 -232 232 -232c143 0 240 99 240 228z" />
    <glyph glyph-name="z.sc" horiz-adv-x="464" 
d="M422 1h-405l325 483l-263 -1v40h343l-326 -483l326 1v-40z" />
    <glyph glyph-name="aacute.sc" 
d="M348 741l-139 -138l-20 17l118 154zM525 0h-48l-68 143h-280l-68 -143h-49l257 539zM391 185l-122 257l-121 -257h243z" />
    <glyph glyph-name="ccaron.sc" horiz-adv-x="587" 
d="M518 86l19 -33c-50 -42 -113 -63 -185 -63c-170 0 -296 123 -296 272s125 271 294 271c79 0 144 -29 189 -65l-27 -33c-32 30 -84 57 -168 57c-135 0 -239 -96 -239 -234c0 -128 112 -226 248 -226c70 0 128 23 165 54zM469 739l-148 -133l-148 133l27 22l122 -102
l122 102z" />
    <glyph glyph-name="dcaron.sc" horiz-adv-x="578" 
d="M220 0h-127v524h120c170 0 307 -91 307 -262c0 -163 -123 -262 -300 -262zM139 40h60c164 0 274 72 274 224c0 147 -123 221 -266 221h-68v-445zM432 739l-149 -133l-147 133l26 22l122 -102l123 102z" />
    <glyph glyph-name="dcroat.sc" horiz-adv-x="578" 
d="M220 0h-127v244h-56v36h56v244h120c170 0 307 -91 307 -262c0 -163 -123 -262 -300 -262zM139 40h60c164 0 274 72 274 224c0 147 -123 221 -266 221h-68v-205h143v-36h-143v-204z" />
    <glyph glyph-name="four.sc" horiz-adv-x="482" 
d="M361 -5h-43v108h-293l336 441v-402h75v-39h-75v-108zM319 141v290l-218 -290h218z" />
    <glyph glyph-name="three.sc" horiz-adv-x="430" 
d="M38 45l20 34c11 -14 54 -50 128 -50c95 0 140 55 140 112c0 67 -59 135 -165 137v22c98 6 145 58 145 107c0 44 -36 80 -102 80c-33 0 -70 -11 -95 -29l-16 32c12 12 63 38 118 38c87 0 139 -60 139 -120c0 -44 -27 -90 -92 -116v-2c76 -28 113 -89 113 -149
c0 -76 -64 -150 -184 -150c-86 0 -136 41 -149 54z" />
    <glyph glyph-name="two.sc" horiz-adv-x="467" 
d="M414 1h-390c69 60 115 85 212 182c52 52 113 128 113 201c0 60 -46 109 -112 109c-56 0 -100 -34 -118 -55l-24 29c20 21 70 67 146 67c92 0 154 -65 154 -150c0 -90 -80 -179 -125 -223c-51 -49 -115 -96 -151 -121l295 2v-41z" />
    <glyph glyph-name="one.sc" horiz-adv-x="273" 
d="M181 0h-44v476l-91 -39l-14 34l149 64v-535z" />
    <glyph glyph-name="zero.sc.alt" horiz-adv-x="679" 
d="M621 260c0 -150 -120 -270 -281 -270c-166 0 -283 122 -283 272s117 272 283 272c165 0 281 -116 281 -274zM574 260c0 135 -99 232 -234 232c-139 0 -236 -97 -236 -228c0 -123 95 -232 231 -232c143 0 239 99 239 228z" />
    <glyph glyph-name="zero_slash.sc" horiz-adv-x="529" 
d="M265 -9c-173 0 -203 157 -203 271c0 110 30 271 202 271s203 -154 203 -271c0 -116 -32 -271 -202 -271zM166 68l165 410c-18 9 -40 15 -67 15c-139 0 -157 -142 -157 -231c0 -54 9 -143 59 -194zM368 451l-166 -408c18 -8 38 -13 63 -13c143 0 157 154 157 232
c0 55 -8 139 -54 189z" />
    <glyph glyph-name="zero.sc" horiz-adv-x="529" 
d="M265 -9c-173 0 -203 157 -203 271c0 110 30 271 202 271s203 -154 203 -271c0 -116 -32 -271 -202 -271zM265 30c143 0 157 154 157 232c0 83 -17 231 -158 231c-139 0 -157 -142 -157 -231c0 -78 19 -232 158 -232z" />
    <glyph glyph-name="nine.osf" horiz-adv-x="546" 
d="M236 -266l-31 33c59 62 162 202 223 321c-34 -39 -106 -52 -146 -52c-141 0 -240 111 -240 242c0 123 103 233 240 233c141 0 243 -111 243 -233c0 -187 -208 -453 -289 -544zM284 80c115 0 193 87 193 198c0 104 -88 187 -195 187c-114 0 -190 -88 -190 -187
c0 -105 74 -198 192 -198z" />
    <glyph glyph-name="eight.osf" horiz-adv-x="599" 
d="M393 363c63 -28 128 -79 128 -172c0 -111 -102 -204 -222 -204c-122 0 -222 91 -222 204c0 93 71 144 131 173c-76 31 -125 93 -125 168c0 127 112 200 217 200c116 0 217 -76 217 -200c0 -75 -54 -138 -124 -169zM471 187c0 85 -77 157 -172 157
c-96 0 -173 -71 -173 -157c0 -87 77 -158 173 -158s172 72 172 158zM466 532c0 90 -72 158 -166 158c-93 0 -168 -69 -168 -156c0 -80 73 -149 169 -149c93 0 165 66 165 147z" />
    <glyph glyph-name="seven.osf" horiz-adv-x="511" 
d="M87 -208h-49l397 662l-379 -1v45h450z" />
    <glyph glyph-name="six.osf" horiz-adv-x="591" 
d="M353 766l31 -33c-59 -62 -163 -204 -224 -323c34 39 106 53 146 53c141 0 240 -112 240 -243c0 -123 -103 -233 -240 -233c-141 0 -243 111 -243 233c0 187 209 455 290 546zM496 220c0 105 -74 199 -192 199c-115 0 -193 -88 -193 -199c0 -104 88 -187 195 -187
c114 0 190 88 190 187z" />
    <glyph glyph-name="five.osf" horiz-adv-x="504" 
d="M32 -169l21 40c14 -20 80 -68 177 -68c84 0 170 62 170 176c0 118 -110 213 -284 244l91 274h237l-12 -46l-194 3l-67 -200c158 -32 273 -137 273 -273c0 -129 -96 -221 -220 -221c-96 0 -177 52 -192 71z" />
    <glyph glyph-name="four.osf" horiz-adv-x="610" 
d="M439 -247h-45v251h-372l417 521v-480l139 1v-42h-139v-251zM394 45v355l-286 -356z" />
    <glyph glyph-name="three.osf" horiz-adv-x="538" 
d="M32 -181l21 39c14 -19 71 -73 174 -73c133 0 196 82 196 170c0 107 -78 213 -224 220l1 21c136 14 196 100 196 161c0 65 -59 113 -141 113c-46 0 -95 -16 -131 -43l-18 34c15 17 82 55 155 55c105 0 182 -73 182 -160c0 -56 -37 -130 -125 -167v-2
c103 -41 154 -132 154 -228c0 -110 -83 -217 -244 -217c-114 0 -180 59 -196 77z" />
    <glyph glyph-name="two.osf" horiz-adv-x="535" 
d="M476 0h-452c106 51 192 101 247 137c26 17 132 92 132 182c0 88 -60 148 -144 148c-72 0 -132 -43 -154 -72l-26 31c24 27 91 83 184 83c113 0 188 -81 188 -190c0 -111 -123 -192 -142 -204c-32 -21 -95 -56 -148 -74l315 3v-44z" />
    <glyph glyph-name="one.osf" horiz-adv-x="404" 
d="M366 0h-303v38l142 1l2 402l-123 -46l-14 38l182 71l-2 -464l116 1v-41z" />
    <glyph glyph-name="zero_slash.osf" horiz-adv-x="652" 
d="M326 -18c-145 0 -262 117 -262 262s117 262 262 262s262 -117 262 -262s-117 -262 -262 -262zM203 65l219 372c-28 14 -61 22 -95 22c-120 0 -216 -97 -216 -216c0 -74 36 -139 92 -178zM459 413l-218 -369c26 -11 55 -17 86 -17c120 0 216 96 216 216
c0 69 -33 131 -84 170z" />
    <glyph glyph-name="zero.osf" horiz-adv-x="652" 
d="M326 -18c-145 0 -262 117 -262 262s117 262 262 262s262 -117 262 -262s-117 -262 -262 -262zM543 243c0 119 -96 216 -216 216s-216 -97 -216 -216c0 -120 96 -216 216 -216s216 96 216 216z" />
    <glyph glyph-name="nine.tab" horiz-adv-x="609" 
d="M248 -15l-31 33c59 62 162 202 223 321c-34 -39 -106 -52 -146 -52c-141 0 -240 111 -240 242c0 123 103 233 240 233c141 0 243 -111 243 -233c0 -187 -208 -453 -289 -544zM296 331c115 0 193 87 193 198c0 104 -88 187 -195 187c-114 0 -190 -88 -190 -187
c0 -105 74 -198 192 -198z" />
    <glyph glyph-name="eight.tab" horiz-adv-x="609" 
d="M398 378c63 -29 128 -82 128 -179c0 -116 -102 -212 -222 -212c-122 0 -222 94 -222 212c0 97 71 150 131 180c-76 33 -125 97 -125 175c0 132 112 209 217 209c116 0 217 -80 217 -209c0 -78 -54 -143 -124 -176zM476 194c0 90 -77 165 -172 165
c-96 0 -173 -74 -173 -165s77 -165 173 -165s172 75 172 165zM471 554c0 95 -72 166 -166 166c-93 0 -168 -72 -168 -163c0 -84 73 -156 169 -156c93 0 165 69 165 153z" />
    <glyph glyph-name="seven.tab" horiz-adv-x="609" 
d="M171 -6h-49l347 712l-374 -1v45h445z" />
    <glyph glyph-name="six.tab" horiz-adv-x="609" 
d="M361 766l31 -33c-59 -62 -163 -204 -224 -323c34 39 106 53 146 53c141 0 240 -112 240 -243c0 -123 -103 -233 -240 -233c-141 0 -243 111 -243 233c0 187 209 455 290 546zM504 220c0 105 -74 199 -192 199c-115 0 -193 -88 -193 -199c0 -104 88 -187 195 -187
c114 0 190 88 190 187z" />
    <glyph glyph-name="five.tab" horiz-adv-x="609" 
d="M73 43l23 41c52 -36 108 -52 160 -52c148 0 213 103 213 203c0 97 -69 192 -214 192c-34 0 -70 -6 -109 -19l95 342h258l-12 -44h-213l-64 -241c20 3 40 5 59 5c140 0 248 -90 248 -226c0 -134 -87 -256 -257 -256c-88 0 -166 40 -187 55z" />
    <glyph glyph-name="four.tab" horiz-adv-x="609" 
d="M465 -4h-46v159h-387l433 617v-573h99v-44h-99v-159zM419 199v432l-302 -432h302z" />
    <glyph glyph-name="three.tab" horiz-adv-x="609" 
d="M71 65l21 39c14 -19 71 -73 174 -73c133 0 196 82 196 170c0 97 -78 200 -224 207l1 21c136 14 198 93 198 164c0 65 -51 123 -143 123c-46 0 -95 -16 -131 -43l-18 34c15 17 82 55 155 55c115 0 184 -83 184 -170c0 -66 -39 -133 -127 -170v-2
c103 -41 154 -129 154 -215c0 -110 -83 -217 -244 -217c-114 0 -180 59 -196 77z" />
    <glyph glyph-name="two.tab" horiz-adv-x="609" 
d="M540 0h-502c88 75 183 161 275 257c67 70 156 186 156 294c0 90 -65 167 -157 167c-76 0 -136 -52 -159 -83l-28 32c26 29 91 95 191 95c121 0 201 -92 201 -211c0 -128 -106 -256 -167 -320c-74 -76 -158 -151 -210 -188l400 3v-46z" />
    <glyph glyph-name="one.tab" horiz-adv-x="609" 
d="M529 1h-436v43h195v658l-149 -73l-15 39l210 100v-724h195v-43z" />
    <glyph glyph-name="zero_slash.tab" horiz-adv-x="609" 
d="M304 -12c-212 0 -249 224 -249 386c0 158 36 388 248 388c213 0 251 -220 251 -388c0 -165 -39 -386 -250 -386zM439 652l-237 -587c27 -21 60 -33 102 -33c184 0 202 226 202 342c0 81 -10 203 -67 278zM169 100l236 585c-26 20 -60 32 -102 32
c-178 0 -200 -211 -200 -343c0 -75 10 -198 66 -274z" />
    <glyph glyph-name="zero.tab" horiz-adv-x="609" 
d="M304 -12c-212 0 -249 224 -249 386c0 158 36 388 248 388c213 0 251 -220 251 -388c0 -165 -39 -386 -250 -386zM304 32c184 0 202 226 202 342c0 124 -22 343 -203 343c-178 0 -200 -211 -200 -343c0 -115 24 -342 201 -342z" />
    <glyph glyph-name="five.alt" horiz-adv-x="531" 
d="M28 59l23 42c13 -12 96 -69 190 -69c106 0 192 76 192 190c0 135 -135 220 -313 245l103 274h238l-12 -47h-193l-74 -195c173 -27 300 -119 300 -275c0 -143 -100 -236 -246 -236c-105 0 -192 54 -208 71z" />
    <glyph glyph-name="multiply.dnom" horiz-adv-x="394" 
d="M343 87l-28 -23l-117 104l-116 -103l-30 22l119 105l-118 105l29 23l116 -104l117 104l27 -23l-117 -105z" />
    <glyph glyph-name="multiply.sup" horiz-adv-x="395" 
d="M343 438l-28 -23l-117 106l-116 -105l-30 22l123 105l-122 105l29 23l117 -106l116 106l27 -23l-118 -104z" />
    <glyph glyph-name="section.alt" horiz-adv-x="381" 
d="M245 -161l-93 874c16 22 74 57 136 57c32 0 53 -21 53 -46s-20 -48 -45 -48c-31 0 -46 29 -47 47c-17 -4 -55 -15 -59 -22l93 -873c-22 -45 -103 -96 -173 -96c-28 0 -48 20 -48 46s23 46 46 46c30 0 46 -28 47 -44c32 9 75 28 90 59zM192 -98l-37 -26l-81 779l34 31z
" />
    <glyph glyph-name="five.sc" horiz-adv-x="431" 
d="M39 31l19 36c37 -24 79 -37 119 -37c105 0 152 67 152 134c0 64 -48 127 -153 127c-26 0 -53 -4 -84 -14l71 242h199l-12 -38h-157l-45 -157c14 2 29 3 43 3c103 0 184 -64 184 -158c0 -93 -64 -178 -193 -178c-67 0 -126 29 -143 40z" />
    <glyph glyph-name="two.dnom" horiz-adv-x="379" 
d="M339 0h-318c52 37 118 90 170 139c44 41 92 96 92 150c0 45 -38 83 -91 83c-45 0 -81 -27 -96 -44l-22 26c18 16 59 52 122 52c77 0 129 -52 129 -117c0 -69 -64 -135 -101 -168c-40 -35 -87 -70 -116 -89l231 3v-35z" />
    <glyph glyph-name="six.sc" horiz-adv-x="462" 
d="M271 531l29 -28c-21 -24 -125 -146 -162 -213c24 20 61 33 108 33c96 0 172 -75 172 -168c0 -95 -81 -164 -181 -164c-103 0 -183 76 -183 165c0 134 193 350 217 375zM375 157c0 74 -64 127 -143 127c-71 0 -135 -54 -135 -127c0 -65 64 -126 141 -126
c75 0 137 52 137 126z" />
    <glyph glyph-name="three.dnom" horiz-adv-x="359" 
d="M220 223v-1c65 -21 96 -68 96 -115c0 -58 -56 -116 -160 -116c-75 0 -119 31 -130 42l19 32c9 -11 48 -38 110 -38c80 0 118 40 118 82c0 52 -51 100 -142 101v22c83 2 125 41 125 78c0 33 -30 59 -86 59c-28 0 -61 -9 -82 -22l-15 30c11 10 55 30 104 30
c76 0 121 -47 121 -93c0 -35 -22 -70 -78 -91z" />
    <glyph glyph-name="four.dnom" horiz-adv-x="394" 
d="M299 -3h-43v90h-229v33l242 281h30v-278h64v-36h-64v-90zM257 122l1 218l-184 -218h183z" />
    <glyph glyph-name="five.dnom" horiz-adv-x="352" 
d="M27 25l18 34c30 -17 66 -29 99 -29c86 0 126 48 126 97c0 48 -40 94 -126 94c-22 0 -45 -3 -73 -11l60 190h171l-11 -35h-131l-37 -114c12 2 23 2 36 2c86 0 153 -50 153 -122c0 -73 -52 -138 -162 -138c-57 0 -108 22 -123 32z" />
    <glyph glyph-name="six.dnom" horiz-adv-x="383" 
d="M225 455l29 -28c-20 -21 -109 -122 -139 -176c19 16 50 26 90 26c83 0 149 -64 149 -144c0 -81 -71 -141 -158 -141c-90 0 -160 66 -160 142c0 117 168 299 189 321zM312 135c0 62 -54 106 -120 106c-60 0 -114 -45 -114 -106c0 -54 54 -105 119 -105
c63 0 115 43 115 105z" />
    <glyph glyph-name="seven.dnom" horiz-adv-x="331" 
d="M92 -4h-44l210 366h-223v38h285z" />
    <glyph glyph-name="eight.dnom" horiz-adv-x="386" 
d="M260 209c39 -16 79 -46 79 -97c0 -66 -67 -120 -146 -120c-81 0 -147 53 -147 119c0 51 45 82 81 98c-45 17 -77 54 -77 94c0 75 73 118 143 118c77 0 143 -45 143 -118c0 -40 -34 -78 -76 -94zM295 110c0 44 -46 83 -103 83c-56 0 -102 -38 -102 -83s46 -82 102 -82
c57 0 103 38 103 82zM292 302c0 48 -43 83 -99 83c-55 0 -100 -36 -100 -81c0 -41 43 -78 101 -78c55 0 98 35 98 76z" />
    <glyph glyph-name="nine.dnom" horiz-adv-x="386" 
d="M164 -46l-29 27c51 49 89 96 133 165c-19 -18 -58 -24 -79 -24c-93 0 -160 66 -160 144c0 74 68 141 159 141c93 0 160 -67 160 -141c0 -113 -138 -265 -184 -312zM304 266c0 57 -52 103 -116 103c-69 0 -114 -49 -114 -103c0 -57 44 -108 115 -108c69 0 115 47 115 108z
" />
    </font>
</defs>
</svg>
